<svg onclick="on_click()" xmlns="http://www.w3.org/2000/svg" width="416" height="252">
<text x="8" y="56">1<title>startEvent_1 10 events</title></text>
<text class="t1" style="display:none;fill:gray" x="32" y="56">10 events<title>startEvent_1</title></text>
<rect y="44" x="20.0" width="1" height="22" stroke="black" fill-opacity="0.7" fill="limegreen"><title>1 [0.00, 0.00, 0.00]</title></rect>
<text x="8" y="80">2<title>inclusiveGateway_2 </title></text>
<text class="t1" style="display:none;fill:gray" x="32" y="80"><title>inclusiveGateway_2</title></text>
<rect y="68" x="20.0" width="1" height="22" stroke="black" fill-opacity="0.7" fill="limegreen"><title>1 [0.00, 0.00, 0.00]</title></rect>
<text x="8" y="104">3<title>task_3 G/G/2</title></text>
<text class="t1" style="display:none;fill:gray" x="32" y="104">G/G/2<title>task_3</title></text>
<rect y="92" x="20.0" width="64.0" height="22" stroke="black" fill-opacity="0.7" fill="limegreen"><title>1 [0.00, 0.00, 4.00]</title></rect>
<text x="22.0" y="110">1</text><text x="8" y="128">4<title>task_4 G/G/1</title></text>
<text class="t1" style="display:none;fill:gray" x="32" y="128">G/G/1<title>task_4</title></text>
<rect y="116" x="20.0" width="64.0" height="22" stroke="black" fill-opacity="0.7" fill="limegreen"><title>1 [0.00, 0.00, 4.00]</title></rect>
<text x="22.0" y="134">1</text><text x="8" y="152">5<title>inclusiveGateway_5 </title></text>
<text class="t1" style="display:none;fill:gray" x="32" y="152"><title>inclusiveGateway_5</title></text>
<rect y="140" x="84.0" width="1" height="22" stroke="black" fill-opacity="0.7" fill="limegreen"><title>1 [4.00, 4.00, 4.00]</title></rect>
<text x="8" y="176">6<title>endEvent_6 </title></text>
<text class="t1" style="display:none;fill:gray" x="32" y="176"><title>endEvent_6</title></text>
<rect y="164" x="84.0" width="1" height="22" stroke="black" fill-opacity="0.7" fill="limegreen"><title>1 [4.00, 4.00, 4.00]</title></rect>
<text x="8" y="56">1<title>startEvent_1 10 events</title></text>
<text class="t1" style="display:none;fill:gray" x="32" y="56">10 events<title>startEvent_1</title></text>
<rect y="44" x="36.0" width="1" height="22" stroke="black" fill-opacity="0.7" fill="cornflowerblue"><title>2 [1.00, 1.00, 1.00]</title></rect>
<text x="8" y="80">2<title>inclusiveGateway_2 </title></text>
<text class="t1" style="display:none;fill:gray" x="32" y="80"><title>inclusiveGateway_2</title></text>
<rect y="68" x="36.0" width="1" height="22" stroke="black" fill-opacity="0.7" fill="cornflowerblue"><title>2 [1.00, 1.00, 1.00]</title></rect>
<text x="8" y="104">3<title>task_3 G/G/2</title></text>
<text class="t1" style="display:none;fill:gray" x="32" y="104">G/G/2<title>task_3</title></text>
<rect y="92" x="36.0" width="64.0" height="22" stroke="black" fill-opacity="0.7" fill="cornflowerblue"><title>2 [1.00, 1.00, 5.00]</title></rect>
<text x="38.0" y="110">2</text><text x="8" y="152">5<title>inclusiveGateway_5 </title></text>
<text class="t1" style="display:none;fill:gray" x="32" y="152"><title>inclusiveGateway_5</title></text>
<rect y="140" x="100.0" width="1" height="22" stroke="black" fill-opacity="0.7" fill="cornflowerblue"><title>2 [5.00, 5.00, 5.00]</title></rect>
<text x="8" y="176">6<title>endEvent_6 </title></text>
<text class="t1" style="display:none;fill:gray" x="32" y="176"><title>endEvent_6</title></text>
<rect y="164" x="100.0" width="1" height="22" stroke="black" fill-opacity="0.7" fill="cornflowerblue"><title>2 [5.00, 5.00, 5.00]</title></rect>
<text x="8" y="56">1<title>startEvent_1 10 events</title></text>
<text class="t1" style="display:none;fill:gray" x="32" y="56">10 events<title>startEvent_1</title></text>
<rect y="44" x="52.0" width="1" height="22" stroke="black" fill-opacity="0.7" fill="coral"><title>3 [2.00, 2.00, 2.00]</title></rect>
<text x="8" y="80">2<title>inclusiveGateway_2 </title></text>
<text class="t1" style="display:none;fill:gray" x="32" y="80"><title>inclusiveGateway_2</title></text>
<rect y="68" x="52.0" width="1" height="22" stroke="black" fill-opacity="0.7" fill="coral"><title>3 [2.00, 2.00, 2.00]</title></rect>
<text x="8" y="104">3<title>task_3 G/G/2</title></text>
<text class="t1" style="display:none;fill:gray" x="32" y="104">G/G/2<title>task_3</title></text>
<rect y="92" x="84.0" width="64.0" height="22" stroke="black" fill-opacity="0.7" fill="coral"><title>3 [2.00, 4.00, 8.00]</title></rect>
<text x="86.0" y="110">3</text><text x="8" y="128">4<title>task_4 G/G/1</title></text>
<text class="t1" style="display:none;fill:gray" x="32" y="128">G/G/1<title>task_4</title></text>
<rect y="116" x="84.0" width="64.0" height="22" stroke="black" fill-opacity="0.7" fill="coral"><title>3 [2.00, 4.00, 8.00]</title></rect>
<text x="86.0" y="134">3</text><text x="8" y="152">5<title>inclusiveGateway_5 </title></text>
<text class="t1" style="display:none;fill:gray" x="32" y="152"><title>inclusiveGateway_5</title></text>
<rect y="140" x="148.0" width="1" height="22" stroke="black" fill-opacity="0.7" fill="coral"><title>3 [8.00, 8.00, 8.00]</title></rect>
<text x="8" y="176">6<title>endEvent_6 </title></text>
<text class="t1" style="display:none;fill:gray" x="32" y="176"><title>endEvent_6</title></text>
<rect y="164" x="148.0" width="1" height="22" stroke="black" fill-opacity="0.7" fill="coral"><title>3 [8.00, 8.00, 8.00]</title></rect>
<text x="8" y="56">1<title>startEvent_1 10 events</title></text>
<text class="t1" style="display:none;fill:gray" x="32" y="56">10 events<title>startEvent_1</title></text>
<rect y="44" x="68.0" width="1" height="22" stroke="black" fill-opacity="0.7" fill="mediumseagreen"><title>4 [3.00, 3.00, 3.00]</title></rect>
<text x="8" y="80">2<title>inclusiveGateway_2 </title></text>
<text class="t1" style="display:none;fill:gray" x="32" y="80"><title>inclusiveGateway_2</title></text>
<rect y="68" x="68.0" width="1" height="22" stroke="black" fill-opacity="0.7" fill="mediumseagreen"><title>4 [3.00, 3.00, 3.00]</title></rect>
<text x="8" y="104">3<title>task_3 G/G/2</title></text>
<text class="t1" style="display:none;fill:gray" x="32" y="104">G/G/2<title>task_3</title></text>
<rect y="92" x="100.0" width="64.0" height="22" stroke="black" fill-opacity="0.7" fill="mediumseagreen"><title>4 [3.00, 5.00, 9.00]</title></rect>
<text x="102.0" y="110">4</text><text x="8" y="152">5<title>inclusiveGateway_5 </title></text>
<text class="t1" style="display:none;fill:gray" x="32" y="152"><title>inclusiveGateway_5</title></text>
<rect y="140" x="164.0" width="1" height="22" stroke="black" fill-opacity="0.7" fill="mediumseagreen"><title>4 [9.00, 9.00, 9.00]</title></rect>
<text x="8" y="176">6<title>endEvent_6 </title></text>
<text class="t1" style="display:none;fill:gray" x="32" y="176"><title>endEvent_6</title></text>
<rect y="164" x="164.0" width="1" height="22" stroke="black" fill-opacity="0.7" fill="mediumseagreen"><title>4 [9.00, 9.00, 9.00]</title></rect>
<text x="8" y="56">1<title>startEvent_1 10 events</title></text>
<text class="t1" style="display:none;fill:gray" x="32" y="56">10 events<title>startEvent_1</title></text>
<rect y="44" x="84.0" width="1" height="22" stroke="black" fill-opacity="0.7" fill="mediumpurple"><title>5 [4.00, 4.00, 4.00]</title></rect>
<text x="8" y="80">2<title>inclusiveGateway_2 </title></text>
<text class="t1" style="display:none;fill:gray" x="32" y="80"><title>inclusiveGateway_2</title></text>
<rect y="68" x="84.0" width="1" height="22" stroke="black" fill-opacity="0.7" fill="mediumpurple"><title>5 [4.00, 4.00, 4.00]</title></rect>
<text x="8" y="104">3<title>task_3 G/G/2</title></text>
<text class="t1" style="display:none;fill:gray" x="32" y="104">G/G/2<title>task_3</title></text>
<rect y="92" x="148.0" width="64.0" height="22" stroke="black" fill-opacity="0.7" fill="mediumpurple"><title>5 [4.00, 8.00, 12.00]</title></rect>
<text x="150.0" y="110">5</text><text x="8" y="128">4<title>task_4 G/G/1</title></text>
<text class="t1" style="display:none;fill:gray" x="32" y="128">G/G/1<title>task_4</title></text>
<rect y="116" x="148.0" width="64.0" height="22" stroke="black" fill-opacity="0.7" fill="mediumpurple"><title>5 [4.00, 8.00, 12.00]</title></rect>
<text x="150.0" y="134">5</text><text x="8" y="152">5<title>inclusiveGateway_5 </title></text>
<text class="t1" style="display:none;fill:gray" x="32" y="152"><title>inclusiveGateway_5</title></text>
<rect y="140" x="212.0" width="1" height="22" stroke="black" fill-opacity="0.7" fill="mediumpurple"><title>5 [12.00, 12.00, 12.00]</title></rect>
<text x="8" y="176">6<title>endEvent_6 </title></text>
<text class="t1" style="display:none;fill:gray" x="32" y="176"><title>endEvent_6</title></text>
<rect y="164" x="212.0" width="1" height="22" stroke="black" fill-opacity="0.7" fill="mediumpurple"><title>5 [12.00, 12.00, 12.00]</title></rect>
<text x="8" y="56">1<title>startEvent_1 10 events</title></text>
<text class="t1" style="display:none;fill:gray" x="32" y="56">10 events<title>startEvent_1</title></text>
<rect y="44" x="100.0" width="1" height="22" stroke="black" fill-opacity="0.7" fill="hotpink"><title>6 [5.00, 5.00, 5.00]</title></rect>
<text x="8" y="80">2<title>inclusiveGateway_2 </title></text>
<text class="t1" style="display:none;fill:gray" x="32" y="80"><title>inclusiveGateway_2</title></text>
<rect y="68" x="100.0" width="1" height="22" stroke="black" fill-opacity="0.7" fill="hotpink"><title>6 [5.00, 5.00, 5.00]</title></rect>
<text x="8" y="104">3<title>task_3 G/G/2</title></text>
<text class="t1" style="display:none;fill:gray" x="32" y="104">G/G/2<title>task_3</title></text>
<rect y="92" x="164.0" width="64.0" height="22" stroke="black" fill-opacity="0.7" fill="hotpink"><title>6 [5.00, 9.00, 13.00]</title></rect>
<text x="166.0" y="110">6</text><text x="8" y="152">5<title>inclusiveGateway_5 </title></text>
<text class="t1" style="display:none;fill:gray" x="32" y="152"><title>inclusiveGateway_5</title></text>
<rect y="140" x="228.0" width="1" height="22" stroke="black" fill-opacity="0.7" fill="hotpink"><title>6 [13.00, 13.00, 13.00]</title></rect>
<text x="8" y="176">6<title>endEvent_6 </title></text>
<text class="t1" style="display:none;fill:gray" x="32" y="176"><title>endEvent_6</title></text>
<rect y="164" x="228.0" width="1" height="22" stroke="black" fill-opacity="0.7" fill="hotpink"><title>6 [13.00, 13.00, 13.00]</title></rect>
<text x="8" y="56">1<title>startEvent_1 10 events</title></text>
<text class="t1" style="display:none;fill:gray" x="32" y="56">10 events<title>startEvent_1</title></text>
<rect y="44" x="116.0" width="1" height="22" stroke="black" fill-opacity="0.7" fill="limegreen"><title>7 [6.00, 6.00, 6.00]</title></rect>
<text x="8" y="80">2<title>inclusiveGateway_2 </title></text>
<text class="t1" style="display:none;fill:gray" x="32" y="80"><title>inclusiveGateway_2</title></text>
<rect y="68" x="116.0" width="1" height="22" stroke="black" fill-opacity="0.7" fill="limegreen"><title>7 [6.00, 6.00, 6.00]</title></rect>
<text x="8" y="104">3<title>task_3 G/G/2</title></text>
<text class="t1" style="display:none;fill:gray" x="32" y="104">G/G/2<title>task_3</title></text>
<rect y="92" x="212.0" width="64.0" height="22" stroke="black" fill-opacity="0.7" fill="limegreen"><title>7 [6.00, 12.00, 16.00]</title></rect>
<text x="214.0" y="110">7</text><text x="8" y="128">4<title>task_4 G/G/1</title></text>
<text class="t1" style="display:none;fill:gray" x="32" y="128">G/G/1<title>task_4</title></text>
<rect y="116" x="212.0" width="64.0" height="22" stroke="black" fill-opacity="0.7" fill="limegreen"><title>7 [6.00, 12.00, 16.00]</title></rect>
<text x="214.0" y="134">7</text><text x="8" y="152">5<title>inclusiveGateway_5 </title></text>
<text class="t1" style="display:none;fill:gray" x="32" y="152"><title>inclusiveGateway_5</title></text>
<rect y="140" x="276.0" width="1" height="22" stroke="black" fill-opacity="0.7" fill="limegreen"><title>7 [16.00, 16.00, 16.00]</title></rect>
<text x="8" y="176">6<title>endEvent_6 </title></text>
<text class="t1" style="display:none;fill:gray" x="32" y="176"><title>endEvent_6</title></text>
<rect y="164" x="276.0" width="1" height="22" stroke="black" fill-opacity="0.7" fill="limegreen"><title>7 [16.00, 16.00, 16.00]</title></rect>
<text x="8" y="56">1<title>startEvent_1 10 events</title></text>
<text class="t1" style="display:none;fill:gray" x="32" y="56">10 events<title>startEvent_1</title></text>
<rect y="44" x="132.0" width="1" height="22" stroke="black" fill-opacity="0.7" fill="cornflowerblue"><title>8 [7.00, 7.00, 7.00]</title></rect>
<text x="8" y="80">2<title>inclusiveGateway_2 </title></text>
<text class="t1" style="display:none;fill:gray" x="32" y="80"><title>inclusiveGateway_2</title></text>
<rect y="68" x="132.0" width="1" height="22" stroke="black" fill-opacity="0.7" fill="cornflowerblue"><title>8 [7.00, 7.00, 7.00]</title></rect>
<text x="8" y="104">3<title>task_3 G/G/2</title></text>
<text class="t1" style="display:none;fill:gray" x="32" y="104">G/G/2<title>task_3</title></text>
<rect y="92" x="228.0" width="64.0" height="22" stroke="black" fill-opacity="0.7" fill="cornflowerblue"><title>8 [7.00, 13.00, 17.00]</title></rect>
<text x="230.0" y="110">8</text><text x="8" y="152">5<title>inclusiveGateway_5 </title></text>
<text class="t1" style="display:none;fill:gray" x="32" y="152"><title>inclusiveGateway_5</title></text>
<rect y="140" x="292.0" width="1" height="22" stroke="black" fill-opacity="0.7" fill="cornflowerblue"><title>8 [17.00, 17.00, 17.00]</title></rect>
<text x="8" y="176">6<title>endEvent_6 </title></text>
<text class="t1" style="display:none;fill:gray" x="32" y="176"><title>endEvent_6</title></text>
<rect y="164" x="292.0" width="1" height="22" stroke="black" fill-opacity="0.7" fill="cornflowerblue"><title>8 [17.00, 17.00, 17.00]</title></rect>
<text x="8" y="56">1<title>startEvent_1 10 events</title></text>
<text class="t1" style="display:none;fill:gray" x="32" y="56">10 events<title>startEvent_1</title></text>
<rect y="44" x="148.0" width="1" height="22" stroke="black" fill-opacity="0.7" fill="coral"><title>9 [8.00, 8.00, 8.00]</title></rect>
<text x="8" y="80">2<title>inclusiveGateway_2 </title></text>
<text class="t1" style="display:none;fill:gray" x="32" y="80"><title>inclusiveGateway_2</title></text>
<rect y="68" x="148.0" width="1" height="22" stroke="black" fill-opacity="0.7" fill="coral"><title>9 [8.00, 8.00, 8.00]</title></rect>
<text x="8" y="104">3<title>task_3 G/G/2</title></text>
<text class="t1" style="display:none;fill:gray" x="32" y="104">G/G/2<title>task_3</title></text>
<rect y="92" x="276.0" width="64.0" height="22" stroke="black" fill-opacity="0.7" fill="coral"><title>9 [8.00, 16.00, 20.00]</title></rect>
<text x="278.0" y="110">9</text><text x="8" y="128">4<title>task_4 G/G/1</title></text>
<text class="t1" style="display:none;fill:gray" x="32" y="128">G/G/1<title>task_4</title></text>
<rect y="116" x="276.0" width="64.0" height="22" stroke="black" fill-opacity="0.7" fill="coral"><title>9 [8.00, 16.00, 20.00]</title></rect>
<text x="278.0" y="134">9</text><text x="8" y="152">5<title>inclusiveGateway_5 </title></text>
<text class="t1" style="display:none;fill:gray" x="32" y="152"><title>inclusiveGateway_5</title></text>
<rect y="140" x="340.0" width="1" height="22" stroke="black" fill-opacity="0.7" fill="coral"><title>9 [20.00, 20.00, 20.00]</title></rect>
<text x="8" y="176">6<title>endEvent_6 </title></text>
<text class="t1" style="display:none;fill:gray" x="32" y="176"><title>endEvent_6</title></text>
<rect y="164" x="340.0" width="1" height="22" stroke="black" fill-opacity="0.7" fill="coral"><title>9 [20.00, 20.00, 20.00]</title></rect>
<text x="8" y="56">1<title>startEvent_1 10 events</title></text>
<text class="t1" style="display:none;fill:gray" x="32" y="56">10 events<title>startEvent_1</title></text>
<rect y="44" x="164.0" width="1" height="22" stroke="black" fill-opacity="0.7" fill="mediumseagreen"><title>10 [9.00, 9.00, 9.00]</title></rect>
<text x="8" y="80">2<title>inclusiveGateway_2 </title></text>
<text class="t1" style="display:none;fill:gray" x="32" y="80"><title>inclusiveGateway_2</title></text>
<rect y="68" x="164.0" width="1" height="22" stroke="black" fill-opacity="0.7" fill="mediumseagreen"><title>10 [9.00, 9.00, 9.00]</title></rect>
<text x="8" y="104">3<title>task_3 G/G/2</title></text>
<text class="t1" style="display:none;fill:gray" x="32" y="104">G/G/2<title>task_3</title></text>
<rect y="92" x="292.0" width="64.0" height="22" stroke="black" fill-opacity="0.7" fill="mediumseagreen"><title>10 [9.00, 17.00, 21.00]</title></rect>
<text x="294.0" y="110">10</text><text x="8" y="152">5<title>inclusiveGateway_5 </title></text>
<text class="t1" style="display:none;fill:gray" x="32" y="152"><title>inclusiveGateway_5</title></text>
<rect y="140" x="356.0" width="1" height="22" stroke="black" fill-opacity="0.7" fill="mediumseagreen"><title>10 [21.00, 21.00, 21.00]</title></rect>
<text x="8" y="176">6<title>endEvent_6 </title></text>
<text class="t1" style="display:none;fill:gray" x="32" y="176"><title>endEvent_6</title></text>
<rect y="164" x="356.0" width="1" height="22" stroke="black" fill-opacity="0.7" fill="mediumseagreen"><title>10 [21.00, 21.00, 21.00]</title></rect>
<rect x="20" y="10" width="352" height="2"></rect>
<rect x="20" y="242" width="352" height="2"></rect>
<rect x="20" y="10" width="1" height="10"></rect>
<rect x="20" y="232" width="1" height="10"></rect>
<text x="12" y="32">0</text>
<text x="12" y="232">0</text>
<rect x="36" y="10" width="1" height="10"></rect>
<rect x="36" y="232" width="1" height="10"></rect>
<rect x="52" y="10" width="1" height="10"></rect>
<rect x="52" y="232" width="1" height="10"></rect>
<rect x="68" y="10" width="1" height="10"></rect>
<rect x="68" y="232" width="1" height="10"></rect>
<rect x="84" y="10" width="1" height="10"></rect>
<rect x="84" y="232" width="1" height="10"></rect>
<rect x="100" y="10" width="1" height="10"></rect>
<rect x="100" y="232" width="1" height="10"></rect>
<rect x="116" y="10" width="1" height="10"></rect>
<rect x="116" y="232" width="1" height="10"></rect>
<rect x="132" y="10" width="1" height="10"></rect>
<rect x="132" y="232" width="1" height="10"></rect>
<rect x="148" y="10" width="1" height="10"></rect>
<rect x="148" y="232" width="1" height="10"></rect>
<rect x="164" y="10" width="1" height="10"></rect>
<rect x="164" y="232" width="1" height="10"></rect>
<rect x="180" y="10" width="1" height="10"></rect>
<rect x="180" y="232" width="1" height="10"></rect>
<text x="172" y="32">10</text>
<text x="172" y="232">10</text>
<rect x="196" y="10" width="1" height="10"></rect>
<rect x="196" y="232" width="1" height="10"></rect>
<rect x="212" y="10" width="1" height="10"></rect>
<rect x="212" y="232" width="1" height="10"></rect>
<rect x="228" y="10" width="1" height="10"></rect>
<rect x="228" y="232" width="1" height="10"></rect>
<rect x="244" y="10" width="1" height="10"></rect>
<rect x="244" y="232" width="1" height="10"></rect>
<rect x="260" y="10" width="1" height="10"></rect>
<rect x="260" y="232" width="1" height="10"></rect>
<rect x="276" y="10" width="1" height="10"></rect>
<rect x="276" y="232" width="1" height="10"></rect>
<rect x="292" y="10" width="1" height="10"></rect>
<rect x="292" y="232" width="1" height="10"></rect>
<rect x="308" y="10" width="1" height="10"></rect>
<rect x="308" y="232" width="1" height="10"></rect>
<rect x="324" y="10" width="1" height="10"></rect>
<rect x="324" y="232" width="1" height="10"></rect>
<rect x="340" y="10" width="1" height="10"></rect>
<rect x="340" y="232" width="1" height="10"></rect>
<text x="332" y="32">20</text>
<text x="332" y="232">20</text>
<rect x="356" y="10" width="1" height="10"></rect>
<rect x="356" y="232" width="1" height="10"></rect>
<rect x="372" y="10" width="1" height="10"></rect>
<rect x="372" y="232" width="1" height="10"></rect>
<script>function on_click() {[...document.getElementsByClassName('t1')].forEach(e=&gt;e.style.display=(e.style.display=='none'?'':'none'));}</script></svg>
