<svg xmlns="http://www.w3.org/2000/svg" width="738" height="208">
<defs><marker id="triangle" viewBox="0 0 10 10" refX="10" refY="5" markerUnits="strokeWidth" markerWidth="10" markerHeight="10" orient="auto"> <path d="M 0 0 L 10 5 L 0 10 z" fill="black" /></marker></defs>
<text x="56.0" y="90.0">1</text>
<ellipse cx="80.0" cy="60.0" rx="18.0" ry="18.0" stroke-width="1" stroke="darkgreen" fill-opacity="0.6" fill="white"><title>Start_N_[1.0]_None</title></ellipse>
<path marker-end="url(#triangle)" d="M98 60 L140 60 " style="fill:none;stroke:brown;stroke-width:1"/>
<text x="134.0" y="102.0">2</text>
<rect rx="7" ry="7" x="140.0" y="30.0" width="80.0" height="60.0" stroke="darkblue" fill="white"><title>Task_E_[2.0]_tsk1=1</title></rect>
<path marker-end="url(#triangle)" d="M220 60 L240 60 " style="fill:none;stroke:brown;stroke-width:1"/>
<text x="234.0" y="102.0">3</text>
<rect rx="7" ry="7" x="240.0" y="30.0" width="80.0" height="60.0" stroke="darkblue" fill="white"><title>Task_E_[3.0]_tsk2=1</title></rect>
<path marker-end="url(#triangle)" d="M320 60 L362 60 " style="fill:none;stroke:brown;stroke-width:1"/>
<text x="356.0" y="90.0">4</text>
<path d="M362 60 L380 42 L398 60 L380 78 Z" stroke="orange" fill="white"><title>AndGate_None_0_None</title></path>
<path d="M372 60 L388 60 M380 52 L380 68" stroke="black" stroke-width="3" />
<path marker-end="url(#triangle)" d="M398 60 L440 60 " style="fill:none;stroke:brown;stroke-width:1"/>
<path marker-end="url(#triangle)" d="M380 78 L380 148.001 Q380 160 392 160 L462 160 " style="fill:none;stroke:brown;stroke-width:1"/>
<text x="434.0" y="102.0">5</text>
<rect rx="7" ry="7" x="440.0" y="30.0" width="80.0" height="60.0" stroke="darkblue" fill="white"><title>Task_U_[1.0, 2.0]_None</title></rect>
<path marker-end="url(#triangle)" d="M520 60 L562 60 " style="fill:none;stroke:brown;stroke-width:1"/>
<text x="456.0" y="190.0">6</text>
<ellipse cx="480.0" cy="160.0" rx="18.0" ry="18.0" stroke-width="1" stroke="darkgreen" fill-opacity="0.6" fill="white"><title>Timer_None_1.0_None</title></ellipse>
<ellipse cx="480.0" cy="160.0" rx="15.0" ry="15.0" stroke-width="1" stroke="darkgreen" fill="none"/>
<ellipse cx="480.0" cy="160.0" rx="12.0" ry="12.0" stroke-width="1" stroke="black" fill="none"/>
<path d="M475 157 L480 160 486 154 M492 160 L489 160 M490.392 166 L487.794 164.5 M486 170.392 L484.5 167.794 M480 172 L480 169 M474 170.392 L475.5 167.794 M469.608 166 L472.206 164.5 M468 160 L471 160 M469.608 154 L472.206 155.5 M474 149.608 L475.5 152.206 M480 148 L480 151 M486 149.608 L484.5 152.206 M490.392 154 L487.794 155.5 " stroke="black" stroke-width="1" fill="none"/><path marker-end="url(#triangle)" d="M498 160 L568 160 Q580 160 580 147.999 L580 78 " style="fill:none;stroke:brown;stroke-width:1"/>
<text x="556.0" y="90.0">7</text>
<path d="M562 60 L580 42 L598 60 L580 78 Z" stroke="orange" fill="white"><title>AndGate_None_0_None</title></path>
<path d="M572 60 L588 60 M580 52 L580 68" stroke="black" stroke-width="3" />
<path marker-end="url(#triangle)" d="M598 60 L662 60 " style="fill:none;stroke:brown;stroke-width:1"/>
<text x="656.0" y="90.0">8</text>
<ellipse cx="680.0" cy="60.0" rx="18.0" ry="18.0" stroke-width="3" stroke="red" fill-opacity="0.6" fill="white"><title>End_None_None_None</title></ellipse>
</svg>

