<svg xmlns="http://www.w3.org/2000/svg" width="240" height="156">
<text x="8" y="56">1</text>
<rect y="44" x="20.0" width="1" height="22" stroke="black" fill-opacity="0.7" fill="limegreen"><title>1 [0.00, 0.00, 0.00]</title></rect>
<text x="8" y="80">2</text>
<rect y="68" x="20.0" width="48.0" height="22" stroke="black" fill-opacity="0.7" fill="limegreen"><title>1 [0.00, 0.00, 3.00]</title></rect>
<text x="22.0" y="86">1</text><text x="8" y="104">3</text>
<rect y="92" x="68.0" width="1" height="22" stroke="black" fill-opacity="0.7" fill="limegreen"><title>1 [3.00, 3.00, 3.00]</title></rect>
<text x="8" y="56">1</text>
<rect y="44" x="52.0" width="1" height="22" stroke="black" fill-opacity="0.7" fill="cornflowerblue"><title>2 [2.00, 2.00, 2.00]</title></rect>
<text x="8" y="80">2</text>
<rect y="68" x="52.0" width="48.0" height="22" stroke="black" fill-opacity="0.7" fill="cornflowerblue"><title>2 [2.00, 2.00, 5.00]</title></rect>
<text x="54.0" y="86">2</text><text x="8" y="104">3</text>
<rect y="92" x="100.0" width="1" height="22" stroke="black" fill-opacity="0.7" fill="cornflowerblue"><title>2 [5.00, 5.00, 5.00]</title></rect>
<text x="8" y="56">1</text>
<rect y="44" x="84.0" width="1" height="22" stroke="black" fill-opacity="0.7" fill="coral"><title>3 [4.00, 4.00, 4.00]</title></rect>
<text x="8" y="80">2</text>
<rect y="68" x="84.0" width="48.0" height="22" stroke="black" fill-opacity="0.7" fill="coral"><title>3 [4.00, 4.00, 7.00]</title></rect>
<text x="86.0" y="86">3</text><text x="8" y="104">3</text>
<rect y="92" x="132.0" width="1" height="22" stroke="black" fill-opacity="0.7" fill="coral"><title>3 [7.00, 7.00, 7.00]</title></rect>
<text x="8" y="56">1</text>
<rect y="44" x="116.0" width="1" height="22" stroke="black" fill-opacity="0.7" fill="mediumseagreen"><title>4 [6.00, 6.00, 6.00]</title></rect>
<text x="8" y="80">2</text>
<rect y="68" x="116.0" width="48.0" height="22" stroke="black" fill-opacity="0.7" fill="mediumseagreen"><title>4 [6.00, 6.00, 9.00]</title></rect>
<text x="118.0" y="86">4</text><text x="8" y="104">3</text>
<rect y="92" x="164.0" width="1" height="22" stroke="black" fill-opacity="0.7" fill="mediumseagreen"><title>4 [9.00, 9.00, 9.00]</title></rect>
<rect x="20" y="10" width="176" height="2"/>
<rect x="20" y="146" width="176" height="2"/>
<rect x="20" y="10" width="1" height="10"/>
<rect x="20" y="136" width="1" height="10"/>
<text x="12" y="32">0</text>
<text x="12" y="136">0</text>
<rect x="36" y="10" width="1" height="10"/>
<rect x="36" y="136" width="1" height="10"/>
<rect x="52" y="10" width="1" height="10"/>
<rect x="52" y="136" width="1" height="10"/>
<rect x="68" y="10" width="1" height="10"/>
<rect x="68" y="136" width="1" height="10"/>
<rect x="84" y="10" width="1" height="10"/>
<rect x="84" y="136" width="1" height="10"/>
<rect x="100" y="10" width="1" height="10"/>
<rect x="100" y="136" width="1" height="10"/>
<rect x="116" y="10" width="1" height="10"/>
<rect x="116" y="136" width="1" height="10"/>
<rect x="132" y="10" width="1" height="10"/>
<rect x="132" y="136" width="1" height="10"/>
<rect x="148" y="10" width="1" height="10"/>
<rect x="148" y="136" width="1" height="10"/>
<rect x="164" y="10" width="1" height="10"/>
<rect x="164" y="136" width="1" height="10"/>
<rect x="180" y="10" width="1" height="10"/>
<rect x="180" y="136" width="1" height="10"/>
<text x="172" y="32">10</text>
<text x="172" y="136">10</text>
<rect x="196" y="10" width="1" height="10"/>
<rect x="196" y="136" width="1" height="10"/>
</svg>

