<svg xmlns="http://www.w3.org/2000/svg" id="svg1" width="440" height="440" font-family="Times" font-size="14" oncopy="svg_copy(this);">
      <g id="gt" transform="translate(0,20)">
      </g>
   <path id="Xp" stroke="red" stroke-width="0.875" stroke-dasharray="1,0" fill="none" d="M220.00 220.00 L3462.13 492.33 Z "></path><path id="Xn" stroke="red" stroke-width="0.875" stroke-dasharray="2,4" fill="none" d="M220.00 220.00 L-3022.13 -52.33 Z "></path><path id="Yp" stroke="green" stroke-width="0.875" stroke-dasharray="1,0" fill="none" d="M220.00 220.00 L220.00 -3229.83 Z "></path><path id="Yn" stroke="green" stroke-width="0.875" stroke-dasharray="2,4" fill="none" d="M220.00 220.00 L220.00 3669.83 Z "></path><path id="Zp" stroke="blue" stroke-width="0.875" stroke-dasharray="1,0" fill="none" d="M220.00 220.00 L-1150.75 864.11 Z "></path><path id="Zn" stroke="blue" stroke-width="0.875" stroke-dasharray="2,4" fill="none" d="M220.00 220.00 L1590.75 -424.11 Z "></path><circle id="O" fill="black" stroke-width="1" stroke="none" r="4" cx="220" cy="220"><title>[0,0,0]</title></circle><circle id="lambda_0" fill="#FFAA33" stroke-width="1" stroke="none" r="4" cx="283.13630729417673" cy="225.30320016110682"><title>λ/2=0.0195</title></circle><path id="B11" stroke="black" stroke-width="0.5" stroke-dasharray="1,0" fill="none" d="M183.56 269.33 L130.17 294.42 L130.17 160.06 L183.56 134.97 Z M309.83 279.94 L256.44 305.03 L256.44 170.67 L309.83 145.58 Z M183.56 269.33 L309.83 279.94 Z M130.17 294.42 L256.44 305.03 Z M130.17 160.06 L256.44 170.67 Z M183.56 134.97 L309.83 145.58 Z Z "></path><path id="B1" stroke="black" stroke-width="0.5" stroke-dasharray="2,4" fill="none" d="M225.65 272.87 L172.26 297.96 L172.26 163.59 L225.65 138.51 Z M267.74 276.41 L214.35 301.49 L214.35 167.13 L267.74 142.04 Z M183.56 224.55 L130.17 249.63 L256.44 260.24 L309.83 235.15 Z M183.56 179.76 L130.17 204.85 L256.44 215.45 L309.83 190.37 Z M165.76 277.70 L165.76 143.33 L292.03 153.94 L292.03 288.30 Z M147.97 286.06 L147.97 151.70 L274.24 162.30 L274.24 296.67 Z "></path><path id="C1" stroke="green" stroke-width="1" stroke-dasharray="1,2" fill="none" d="M485.03 254.09 L484.99 248.68 L484.87 243.27 L484.67 237.85 L484.39 232.42 L484.03 226.99 L483.58 221.56 L483.06 216.12 L482.45 210.69 L481.77 205.26 L481.01 199.84 L480.16 194.42 L479.24 189.01 L478.24 183.61 L477.16 178.22 L476.00 172.84 L474.77 167.48 L473.45 162.13 L472.06 156.80 L470.59 151.49 L469.05 146.20 L467.43 140.93 L465.74 135.69 L463.97 130.47 L462.12 125.28 L460.20 120.12 L458.21 114.99 L456.15 109.89 L454.01 104.83 L451.80 99.80 L449.53 94.80 L447.18 89.85 L444.76 84.93 L442.28 80.06 L439.72 75.23 L437.10 70.44 L434.42 65.70 L431.67 61.00 L428.85 56.36 L425.97 51.76 L423.03 47.21 L420.02 42.72 L416.96 38.28 L413.83 33.90 L410.65 29.57 L407.41 25.30 L404.11 21.09 L400.75 16.94 L397.34 12.86 L393.88 8.83 L390.36 4.87 L386.79 0.98 L383.17 -2.85 L379.50 -6.61 L375.78 -10.30 L372.02 -13.92 L368.21 -17.47 L364.35 -20.95 L360.45 -24.35 L356.50 -27.68 L352.52 -30.93 L348.49 -34.11 L344.43 -37.21 L340.32 -40.23 L336.18 -43.17 L332.01 -46.03 L327.80 -48.82 L323.56 -51.51 L319.28 -54.13 L314.98 -56.66 L310.65 -59.11 L306.29 -61.48 L301.90 -63.75 L297.49 -65.94 L293.05 -68.05 L288.60 -70.07 L284.12 -71.99 L279.62 -73.83 L275.10 -75.58 L270.57 -77.24 L266.02 -78.81 L261.46 -80.29 L256.89 -81.68 L252.30 -82.97 L247.70 -84.17 L243.10 -85.28 L238.49 -86.30 L233.87 -87.22 L229.25 -88.05 L224.63 -88.79 L220.00 -89.43 L215.37 -89.98 L210.75 -90.43 L206.13 -90.79 L201.51 -91.06 L196.90 -91.22 L192.30 -91.30 L187.70 -91.28 L183.11 -91.16 L178.54 -90.95 L173.98 -90.65 L169.43 -90.25 L164.90 -89.76 L160.38 -89.17 L155.88 -88.49 L151.40 -87.71 L146.95 -86.84 L142.51 -85.88 L138.10 -84.82 L133.71 -83.67 L129.35 -82.43 L125.02 -81.09 L120.72 -79.67 L116.44 -78.15 L112.20 -76.54 L107.99 -74.85 L103.82 -73.06 L99.68 -71.18 L95.57 -69.21 L91.51 -67.16 L87.48 -65.02 L83.50 -62.79 L79.55 -60.48 L75.65 -58.08 L71.79 -55.59 L67.98 -53.02 L64.22 -50.37 L60.50 -47.64 L56.83 -44.82 L53.21 -41.93 L49.64 -38.95 L46.12 -35.89 L42.66 -32.76 L39.25 -29.55 L35.89 -26.27 L32.59 -22.90 L29.35 -19.47 L26.17 -15.96 L23.04 -12.38 L19.98 -8.73 L16.97 -5.01 L14.03 -1.22 L11.15 2.63 L8.33 6.56 L5.58 10.54 L2.90 14.59 L0.28 18.71 L-2.28 22.88 L-4.76 27.12 L-7.18 31.41 L-9.53 35.76 L-11.80 40.17 L-14.01 44.63 L-16.15 49.15 L-18.21 53.72 L-20.20 58.34 L-22.12 63.00 L-23.97 67.72 L-25.74 72.48 L-27.43 77.29 L-29.05 82.14 L-30.59 87.03 L-32.06 91.96 L-33.45 96.93 L-34.77 101.94 L-36.00 106.99 L-37.16 112.07 L-38.24 117.18 L-39.24 122.32 L-40.16 127.50 L-41.01 132.70 L-41.77 137.93 L-42.45 143.18 L-43.06 148.46 L-43.58 153.75 L-44.03 159.07 L-44.39 164.41 L-44.67 169.76 L-44.87 175.13 L-44.99 180.52 L-45.03 185.91 L-44.99 191.32 L-44.87 196.73 L-44.67 202.15 L-44.39 207.58 L-44.03 213.01 L-43.58 218.44 L-43.06 223.88 L-42.45 229.31 L-41.77 234.74 L-41.01 240.16 L-40.16 245.58 L-39.24 250.99 L-38.24 256.39 L-37.16 261.78 L-36.00 267.16 L-34.77 272.52 L-33.45 277.87 L-32.06 283.20 L-30.59 288.51 L-29.05 293.80 L-27.43 299.07 L-25.74 304.31 L-23.97 309.53 L-22.12 314.72 L-20.20 319.88 L-18.21 325.01 L-16.15 330.11 L-14.01 335.17 L-11.80 340.20 L-9.53 345.20 L-7.18 350.15 L-4.76 355.07 L-2.28 359.94 L0.28 364.77 L2.90 369.56 L5.58 374.30 L8.33 379.00 L11.15 383.64 L14.03 388.24 L16.97 392.79 L19.98 397.28 L23.04 401.72 L26.17 406.10 L29.35 410.43 L32.59 414.70 L35.89 418.91 L39.25 423.06 L42.66 427.14 L46.12 431.17 L49.64 435.13 L53.21 439.02 L56.83 442.85 L60.50 446.61 L64.22 450.30 L67.98 453.92 L71.79 457.47 L75.65 460.95 L79.55 464.35 L83.50 467.68 L87.48 470.93 L91.51 474.11 L95.57 477.21 L99.68 480.23 L103.82 483.17 L107.99 486.03 L112.20 488.82 L116.44 491.51 L120.72 494.13 L125.02 496.66 L129.35 499.11 L133.71 501.48 L138.10 503.75 L142.51 505.94 L146.95 508.05 L151.40 510.07 L155.88 511.99 L160.38 513.83 L164.90 515.58 L169.43 517.24 L173.98 518.81 L178.54 520.29 L183.11 521.68 L187.70 522.97 L192.30 524.17 L196.90 525.28 L201.51 526.30 L206.13 527.22 L210.75 528.05 L215.37 528.79 L220.00 529.43 L224.63 529.98 L229.25 530.43 L233.87 530.79 L238.49 531.06 L243.10 531.22 L247.70 531.30 L252.30 531.28 L256.89 531.16 L261.46 530.95 L266.02 530.65 L270.57 530.25 L275.10 529.76 L279.62 529.17 L284.12 528.49 L288.60 527.71 L293.05 526.84 L297.49 525.88 L301.90 524.82 L306.29 523.67 L310.65 522.43 L314.98 521.09 L319.28 519.67 L323.56 518.15 L327.80 516.54 L332.01 514.85 L336.18 513.06 L340.32 511.18 L344.43 509.21 L348.49 507.16 L352.52 505.02 L356.50 502.79 L360.45 500.48 L364.35 498.08 L368.21 495.59 L372.02 493.02 L375.78 490.37 L379.50 487.64 L383.17 484.82 L386.79 481.93 L390.36 478.95 L393.88 475.89 L397.34 472.76 L400.75 469.55 L404.11 466.27 L407.41 462.90 L410.65 459.47 L413.83 455.96 L416.96 452.38 L420.02 448.73 L423.03 445.01 L425.97 441.22 L428.85 437.37 L431.67 433.44 L434.42 429.46 L437.10 425.41 L439.72 421.29 L442.28 417.12 L444.76 412.88 L447.18 408.59 L449.53 404.24 L451.80 399.83 L454.01 395.37 L456.15 390.85 L458.21 386.28 L460.20 381.66 L462.12 377.00 L463.97 372.28 L465.74 367.52 L467.43 362.71 L469.05 357.86 L470.59 352.97 L472.06 348.04 L473.45 343.07 L474.77 338.06 L476.00 333.01 L477.16 327.93 L478.24 322.82 L479.24 317.68 L480.16 312.50 L481.01 307.30 L481.77 302.07 L482.45 296.82 L483.06 291.54 L483.58 286.25 L484.03 280.93 L484.39 275.59 L484.67 270.24 L484.87 264.87 L484.99 259.48 Z "></path><path id="C1h" stroke="green" stroke-width="1" stroke-dasharray="1,2" fill="none" d="M510.80 244.43 L508.61 245.43 L506.33 246.43 L503.97 247.42 L501.52 248.40 L498.98 249.37 L496.36 250.33 L493.65 251.28 L490.86 252.23 L487.99 253.16 L485.03 254.09 L482.00 255.00 L478.88 255.90 L475.69 256.80 L472.42 257.68 L469.07 258.55 L465.65 259.40 L462.15 260.25 L458.58 261.08 L454.93 261.90 L451.21 262.71 L447.43 263.51 L443.57 264.29 L439.64 265.06 L435.65 265.81 L431.60 266.55 L427.47 267.28 L423.29 267.99 L419.04 268.69 L414.73 269.37 L410.37 270.04 L405.94 270.69 L401.46 271.33 L396.92 271.95 L392.33 272.56 L387.69 273.15 L383.00 273.72 L378.25 274.28 L373.46 274.82 L368.62 275.34 L363.74 275.85 L358.81 276.34 L353.84 276.81 L348.83 277.27 L343.78 277.70 L338.69 278.12 L333.57 278.53 L328.41 278.91 L323.22 279.28 L317.99 279.63 L312.74 279.96 L307.46 280.27 L302.15 280.56 L296.82 280.84 L291.46 281.10 L286.08 281.34 L280.68 281.56 L275.27 281.76 L269.83 281.94 L264.39 282.10 L258.92 282.25 L253.45 282.37 L247.97 282.48 L242.47 282.57 L236.97 282.63 L231.47 282.68 L225.96 282.71 L220.45 282.72 L214.94 282.72 L209.43 282.69 L203.93 282.64 L198.43 282.58 L192.93 282.49 L187.45 282.39 L181.97 282.27 L176.51 282.13 L171.05 281.97 L165.62 281.79 L160.20 281.59 L154.80 281.37 L149.42 281.14 L144.06 280.88 L138.72 280.61 L133.41 280.32 L128.12 280.01 L122.86 279.68 L117.64 279.34 L112.44 278.97 L107.27 278.59 L102.14 278.19 L97.05 277.77 L91.99 277.34 L86.98 276.89 L82.00 276.42 L77.07 275.93 L72.17 275.42 L67.33 274.90 L62.53 274.37 L57.78 273.81 L53.07 273.24 L48.42 272.65 L43.82 272.05 L39.28 271.43 L34.79 270.80 L30.35 270.15 L25.98 269.48 L21.66 268.80 L17.40 268.11 L13.21 267.40 L9.07 266.67 L5.01 265.93 L1.00 265.18 L-2.93 264.42 L-6.80 263.64 L-10.60 262.84 L-14.33 262.04 L-17.98 261.22 L-21.57 260.39 L-25.08 259.54 L-28.52 258.69 L-31.88 257.82 L-35.16 256.94 L-38.37 256.05 L-41.50 255.15 L-44.54 254.24 L-47.51 253.31 L-50.40 252.38 L-53.20 251.44 L-55.92 250.49 L-58.56 249.53 L-61.11 248.56 L-63.57 247.58 L-65.95 246.59 L-68.25 245.59 L-70.45 244.59 L-72.57 243.58 L-74.59 242.56 L-76.53 241.54 L-78.38 240.51 L-80.13 239.47 L-81.80 238.42 L-83.37 237.38 L-84.85 236.32 L-86.24 235.26 L-87.53 234.20 L-88.73 233.13 L-89.84 232.06 L-90.85 230.98 L-91.77 229.90 L-92.59 228.82 L-93.32 227.73 L-93.95 226.65 L-94.48 225.56 L-94.92 224.46 L-95.27 223.37 L-95.52 222.28 L-95.67 221.18 L-95.72 220.09 L-95.68 218.99 L-95.55 217.90 L-95.32 216.81 L-94.99 215.71 L-94.56 214.62 L-94.04 213.53 L-93.43 212.44 L-92.71 211.36 L-91.91 210.28 L-91.01 209.20 L-90.01 208.12 L-88.92 207.05 L-87.73 205.98 L-86.46 204.91 L-85.08 203.85 L-83.62 202.80 L-82.06 201.75 L-80.41 200.70 L-78.67 199.66 L-76.84 198.63 L-74.92 197.60 L-72.90 196.59 L-70.80 195.57 L-68.61 194.57 L-66.33 193.57 L-63.97 192.58 L-61.52 191.60 L-58.98 190.63 L-56.36 189.67 L-53.65 188.72 L-50.86 187.77 L-47.99 186.84 L-45.03 185.91 L-42.00 185.00 L-38.88 184.10 L-35.69 183.20 L-32.42 182.32 L-29.07 181.45 L-25.65 180.60 L-22.15 179.75 L-18.58 178.92 L-14.93 178.10 L-11.21 177.29 L-7.43 176.49 L-3.57 175.71 L0.36 174.94 L4.35 174.19 L8.40 173.45 L12.53 172.72 L16.71 172.01 L20.96 171.31 L25.27 170.63 L29.63 169.96 L34.06 169.31 L38.54 168.67 L43.08 168.05 L47.67 167.44 L52.31 166.85 L57.00 166.28 L61.75 165.72 L66.54 165.18 L71.38 164.66 L76.26 164.15 L81.19 163.66 L86.16 163.19 L91.17 162.73 L96.22 162.30 L101.31 161.88 L106.43 161.47 L111.59 161.09 L116.78 160.72 L122.01 160.37 L127.26 160.04 L132.54 159.73 L137.85 159.44 L143.18 159.16 L148.54 158.90 L153.92 158.66 L159.32 158.44 L164.73 158.24 L170.17 158.06 L175.61 157.90 L181.08 157.75 L186.55 157.63 L192.03 157.52 L197.53 157.43 L203.03 157.37 L208.53 157.32 L214.04 157.29 L219.55 157.28 L225.06 157.28 L230.57 157.31 L236.07 157.36 L241.57 157.42 L247.07 157.51 L252.55 157.61 L258.03 157.73 L263.49 157.87 L268.95 158.03 L274.38 158.21 L279.80 158.41 L285.20 158.63 L290.58 158.86 L295.94 159.12 L301.28 159.39 L306.59 159.68 L311.88 159.99 L317.14 160.32 L322.36 160.66 L327.56 161.03 L332.73 161.41 L337.86 161.81 L342.95 162.23 L348.01 162.66 L353.02 163.11 L358.00 163.58 L362.93 164.07 L367.83 164.58 L372.67 165.10 L377.47 165.63 L382.22 166.19 L386.93 166.76 L391.58 167.35 L396.18 167.95 L400.72 168.57 L405.21 169.20 L409.65 169.85 L414.02 170.52 L418.34 171.20 L422.60 171.89 L426.79 172.60 L430.93 173.33 L434.99 174.07 L439.00 174.82 L442.93 175.58 L446.80 176.36 L450.60 177.16 L454.33 177.96 L457.98 178.78 L461.57 179.61 L465.08 180.46 L468.52 181.31 L471.88 182.18 L475.16 183.06 L478.37 183.95 L481.50 184.85 L484.54 185.76 L487.51 186.69 L490.40 187.62 L493.20 188.56 L495.92 189.51 L498.56 190.47 L501.11 191.44 L503.57 192.42 L505.95 193.41 L508.25 194.41 L510.45 195.41 L512.57 196.42 L514.59 197.44 L516.53 198.46 L518.38 199.49 L520.13 200.53 L521.80 201.58 L523.37 202.62 L524.85 203.68 L526.24 204.74 L527.53 205.80 L528.73 206.87 L529.84 207.94 L530.85 209.02 L531.77 210.10 L532.59 211.18 L533.32 212.27 L533.95 213.35 L534.48 214.44 L534.92 215.54 L535.27 216.63 L535.52 217.72 L535.67 218.82 L535.72 219.91 L535.68 221.01 L535.55 222.10 L535.32 223.19 L534.99 224.29 L534.56 225.38 L534.04 226.47 L533.43 227.56 L532.71 228.64 L531.91 229.72 L531.01 230.80 L530.01 231.88 L528.92 232.95 L527.73 234.02 L526.46 235.09 L525.08 236.15 L523.62 237.20 L522.06 238.25 L520.41 239.30 L518.67 240.34 L516.84 241.37 L514.92 242.40 L512.90 243.41 Z "></path><path id="C2" stroke="green" stroke-width="1" stroke-dasharray="1,1" fill="none" d="M485.03 254.09 L477.08 253.06 Z M476.00 172.84 L468.32 174.25 Z M449.53 94.80 L442.64 98.56 Z M407.41 25.30 L401.79 31.14 Z M352.52 -30.93 L348.54 -23.40 Z M288.60 -70.07 L286.54 -61.36 Z M220.00 -89.43 L220.00 -80.15 Z M151.40 -87.71 L153.46 -78.48 Z M87.48 -65.02 L91.46 -56.47 Z M32.59 -22.90 L38.21 -15.62 Z M-9.53 35.76 L-2.64 41.29 Z M-36.00 106.99 L-28.32 110.38 Z M-45.03 185.91 L-37.08 186.94 Z M-36.00 267.16 L-28.32 265.75 Z M-9.53 345.20 L-2.64 341.44 Z M32.59 414.70 L38.21 408.86 Z M87.48 470.93 L91.46 463.40 Z M151.40 510.07 L153.46 501.36 Z M220.00 529.43 L220.00 520.15 Z M288.60 527.71 L286.54 518.48 Z M352.52 505.02 L348.54 496.47 Z M407.41 462.90 L401.79 455.62 Z M449.53 404.24 L442.64 398.71 Z M476.00 333.01 L468.32 329.62 Z "></path><path id="C2h" stroke="green" stroke-width="1" stroke-dasharray="1,1" fill="none" d="M510.80 244.43 L502.08 243.69 Z M469.07 258.55 L461.60 257.39 Z M410.37 270.04 L404.66 268.54 Z M338.69 278.12 L335.13 276.38 Z M258.92 282.25 L257.76 280.38 Z M176.51 282.13 L177.81 280.26 Z M97.05 277.77 L100.74 276.04 Z M25.98 269.48 L31.80 268.00 Z M-31.88 257.82 L-24.32 256.69 Z M-72.57 243.58 L-63.79 242.87 Z M-93.32 227.73 L-83.92 227.50 Z M-92.71 211.36 L-83.33 211.62 Z M-70.80 195.57 L-62.08 196.31 Z M-29.07 181.45 L-21.60 182.61 Z M29.63 169.96 L35.34 171.46 Z M101.31 161.88 L104.87 163.62 Z M181.08 157.75 L182.24 159.62 Z M263.49 157.87 L262.19 159.74 Z M342.95 162.23 L339.26 163.96 Z M414.02 170.52 L408.20 172.00 Z M471.88 182.18 L464.32 183.31 Z M512.57 196.42 L503.79 197.13 Z M533.32 212.27 L523.92 212.50 Z M532.71 228.64 L523.33 228.38 Z "></path><circle id="th_xy" fill="green" stroke-width="1" stroke="none" r="4" cx="-41.007532111233104" cy="132.69831921552304"><title>θ=-10 Φ=-10</title></circle><path id="M" stroke="#0b22ae" stroke-width="0.5" stroke-dasharray="1,0" fill="none" d="M220.00 310.58 L204.68 311.15 L225.43 295.00 Z M204.68 311.15 L212.10 296.66 L225.43 295.00 Z M204.68 311.15 L192.38 298.43 L212.10 296.66 Z M192.38 298.43 L200.20 286.97 L212.10 296.66 Z M192.38 298.43 L185.58 280.53 L200.20 286.97 Z M185.58 280.53 L192.49 272.68 L200.20 286.97 Z M185.58 280.53 L177.63 270.18 L192.49 272.68 Z M177.63 270.18 L183.19 265.33 L192.49 272.68 Z M177.63 270.18 L170.57 259.98 L183.19 265.33 Z M170.57 259.98 L173.59 257.90 L183.19 265.33 Z M170.57 259.98 L169.53 246.77 L173.59 257.90 Z M169.53 246.77 L169.07 246.65 L173.59 257.90 Z M169.53 246.77 L156.55 239.24 L169.07 246.65 Z M156.55 239.24 L159.86 237.60 L169.07 246.65 Z M156.55 239.24 L188.97 223.22 L159.86 237.60 Z M188.97 223.22 L189.90 222.89 L159.86 237.60 Z M188.97 223.22 L66.88 207.14 L189.90 222.89 Z M66.88 207.14 L66.88 207.14 L189.90 222.89 Z M113.62 191.11 L108.29 191.03 L66.88 207.14 Z M113.62 191.11 L175.28 198.93 L108.29 191.03 Z M175.28 198.93 L173.01 199.28 L108.29 191.03 Z M175.28 198.93 L186.73 196.76 L173.01 199.28 Z M186.73 196.76 L187.03 198.84 L173.01 199.28 Z M186.73 196.76 L211.10 211.30 L187.03 198.84 Z M211.10 211.30 L208.28 209.68 L187.03 198.84 Z M211.10 211.30 L210.91 207.70 L208.28 209.68 Z M210.91 207.70 L210.93 209.23 L208.28 209.68 Z M210.91 207.70 L216.61 213.46 L210.93 209.23 Z M216.61 213.46 L215.84 213.22 L210.93 209.23 Z M216.61 213.46 L216.92 210.73 L215.84 213.22 Z M216.92 210.73 L216.69 212.10 L215.84 213.22 Z M216.92 210.73 L218.88 213.15 L216.69 212.10 Z M218.88 213.15 L219.28 217.05 L216.69 212.10 Z M218.88 213.15 L220.00 211.26 L219.28 217.05 Z M220.00 211.26 L219.81 217.37 L219.28 217.05 Z M220.00 211.26 L221.24 212.60 L219.81 217.37 Z M221.24 212.60 L220.83 211.94 L219.81 217.37 Z M221.24 212.60 L222.08 214.10 L220.83 211.94 Z M222.08 214.10 L221.54 214.80 L220.83 211.94 Z M222.08 214.10 L228.34 205.34 L221.54 214.80 Z M228.34 205.34 L227.98 204.72 L221.54 214.80 Z M228.34 205.34 L224.84 214.27 L227.98 204.72 Z M224.84 214.27 L229.13 208.75 L227.98 204.72 Z M224.84 214.27 L246.96 198.19 L229.13 208.75 Z M246.96 198.19 L241.70 202.27 L229.13 208.75 Z M246.96 198.19 L289.92 182.92 L241.70 202.27 Z M289.92 182.92 L286.45 185.23 L241.70 202.27 Z M289.92 182.92 L322.70 188.85 L286.45 185.23 Z M322.70 188.85 L325.67 189.07 L286.45 185.23 Z M322.70 188.85 L374.83 203.95 L325.67 189.07 Z M374.83 203.95 L371.19 205.50 L325.67 189.07 Z M374.83 203.95 L254.19 222.87 L371.19 205.50 Z M254.19 222.87 L254.19 222.87 L371.19 205.50 Z M256.26 229.85 L256.58 229.49 L254.19 222.87 Z M256.26 229.85 L271.19 244.13 L256.58 229.49 Z M271.19 244.13 L272.75 243.26 L256.58 229.49 Z M271.19 244.13 L265.55 251.81 L272.75 243.26 Z M265.55 251.81 L269.24 251.61 L272.75 243.26 Z M265.55 251.81 L257.97 257.09 L269.24 251.61 Z M257.97 257.09 L263.17 258.00 L269.24 251.61 Z M257.97 257.09 L252.19 263.52 L263.17 258.00 Z M252.19 263.52 L256.09 262.87 L263.17 258.00 Z M252.19 263.52 L247.89 273.75 L256.09 262.87 Z M247.89 273.75 L250.08 269.08 L256.09 262.87 Z M247.89 273.75 L242.99 289.14 L250.08 269.08 Z M242.99 289.14 L245.38 280.58 L250.08 269.08 Z M242.99 289.14 L233.41 302.05 L245.38 280.58 Z M233.41 302.05 L236.82 289.24 L245.38 280.58 Z M233.41 302.05 L220.00 310.58 L236.82 289.24 Z M220.00 310.58 L225.43 295.00 L236.82 289.24 Z M225.43 295.00 L212.10 296.66 L228.36 273.85 Z M212.10 296.66 L218.17 272.91 L228.36 273.85 Z M212.10 296.66 L200.20 286.97 L218.17 272.91 Z M200.20 286.97 L208.67 266.56 L218.17 272.91 Z M200.20 286.97 L192.49 272.68 L208.67 266.56 Z M192.49 272.68 L199.59 261.66 L208.67 266.56 Z M192.49 272.68 L183.19 265.33 L199.59 261.66 Z M183.19 265.33 L188.52 259.04 L199.59 261.66 Z M183.19 265.33 L173.59 257.90 L188.52 259.04 Z M173.59 257.90 L179.49 252.18 L188.52 259.04 Z M173.59 257.90 L169.07 246.65 L179.49 252.18 Z M169.07 246.65 L166.95 246.28 L179.49 252.18 Z M169.07 246.65 L159.86 237.60 L166.95 246.28 Z M159.86 237.60 L167.53 234.13 L166.95 246.28 Z M159.86 237.60 L189.90 222.89 L167.53 234.13 Z M189.90 222.89 L192.18 222.29 L167.53 234.13 Z M189.90 222.89 L66.88 207.14 L192.18 222.29 Z M66.88 207.14 L66.88 207.14 L192.18 222.29 Z M108.29 191.03 L95.45 189.84 L66.88 207.14 Z M108.29 191.03 L173.01 199.28 L95.45 189.84 Z M173.01 199.28 L172.41 200.87 L95.45 189.84 Z M173.01 199.28 L187.03 198.84 L172.41 200.87 Z M187.03 198.84 L190.77 203.22 L172.41 200.87 Z M187.03 198.84 L208.28 209.68 L190.77 203.22 Z M208.28 209.68 L204.09 207.72 L190.77 203.22 Z M208.28 209.68 L210.93 209.23 L204.09 207.72 Z M210.93 209.23 L209.50 209.30 L204.09 207.72 Z M210.93 209.23 L215.84 213.22 L209.50 209.30 Z M215.84 213.22 L215.09 213.34 L209.50 209.30 Z M215.84 213.22 L216.69 212.10 L215.09 213.34 Z M216.69 212.10 L216.53 213.43 L215.09 213.34 Z M216.69 212.10 L219.28 217.05 L216.53 213.43 Z M219.28 217.05 L217.64 213.03 L216.53 213.43 Z M219.28 217.05 L219.81 217.37 L217.64 213.03 Z M219.81 217.37 L218.96 213.30 L217.64 213.03 Z M219.81 217.37 L220.83 211.94 L218.96 213.30 Z M220.83 211.94 L220.16 215.50 L218.96 213.30 Z M220.83 211.94 L221.54 214.80 L220.16 215.50 Z M221.54 214.80 L222.10 211.39 L220.16 215.50 Z M221.54 214.80 L227.98 204.72 L222.10 211.39 Z M227.98 204.72 L225.51 208.75 L222.10 211.39 Z M227.98 204.72 L229.13 208.75 L225.51 208.75 Z M229.13 208.75 L238.82 196.66 L225.51 208.75 Z M229.13 208.75 L241.70 202.27 L238.82 196.66 Z M241.70 202.27 L229.50 212.46 L238.82 196.66 Z M241.70 202.27 L286.45 185.23 L229.50 212.46 Z M286.45 185.23 L278.52 191.01 L229.50 212.46 Z M286.45 185.23 L325.67 189.07 L278.52 191.01 Z M325.67 189.07 L339.06 187.93 L278.52 191.01 Z M325.67 189.07 L371.19 205.50 L339.06 187.93 Z M371.19 205.50 L364.37 208.10 L339.06 187.93 Z M371.19 205.50 L254.19 222.87 L364.37 208.10 Z M254.19 222.87 L254.19 222.87 L364.37 208.10 Z M256.58 229.49 L256.31 228.79 L254.19 222.87 Z M256.58 229.49 L272.75 243.26 L256.31 228.79 Z M272.75 243.26 L274.36 241.85 L256.31 228.79 Z M272.75 243.26 L269.24 251.61 L274.36 241.85 Z M269.24 251.61 L271.94 249.82 L274.36 241.85 Z M269.24 251.61 L263.17 258.00 L271.94 249.82 Z M263.17 258.00 L265.63 255.24 L271.94 249.82 Z M263.17 258.00 L256.09 262.87 L265.63 255.24 Z M256.09 262.87 L256.91 257.61 L265.63 255.24 Z M256.09 262.87 L250.08 269.08 L256.91 257.61 Z M250.08 269.08 L248.12 258.18 L256.91 257.61 Z M250.08 269.08 L245.38 280.58 L248.12 258.18 Z M245.38 280.58 L243.15 263.82 L248.12 258.18 Z M245.38 280.58 L236.82 289.24 L243.15 263.82 Z M236.82 289.24 L236.96 270.02 L243.15 263.82 Z M236.82 289.24 L225.43 295.00 L236.96 270.02 Z M225.43 295.00 L228.36 273.85 L236.96 270.02 Z M228.36 273.85 L218.17 272.91 L229.40 256.56 Z M218.17 272.91 L221.52 255.10 L229.40 256.56 Z M218.17 272.91 L208.67 266.56 L221.52 255.10 Z M208.67 266.56 L213.69 252.73 L221.52 255.10 Z M208.67 266.56 L199.59 261.66 L213.69 252.73 Z M199.59 261.66 L204.62 252.52 L213.69 252.73 Z M199.59 261.66 L188.52 259.04 L204.62 252.52 Z M188.52 259.04 L194.01 251.13 L204.62 252.52 Z M188.52 259.04 L179.49 252.18 L194.01 251.13 Z M179.49 252.18 L187.85 243.68 L194.01 251.13 Z M179.49 252.18 L166.95 246.28 L187.85 243.68 Z M166.95 246.28 L164.12 244.87 L187.85 243.68 Z M166.95 246.28 L167.53 234.13 L164.12 244.87 Z M167.53 234.13 L180.17 229.29 L164.12 244.87 Z M167.53 234.13 L192.18 222.29 L180.17 229.29 Z M192.18 222.29 L197.04 221.45 L180.17 229.29 Z M192.18 222.29 L66.88 207.14 L197.04 221.45 Z M66.88 207.14 L66.88 207.14 L197.04 221.45 Z M95.45 189.84 L76.21 188.26 L66.88 207.14 Z M95.45 189.84 L172.41 200.87 L76.21 188.26 Z M172.41 200.87 L180.10 205.80 L76.21 188.26 Z M172.41 200.87 L190.77 203.22 L180.10 205.80 Z M190.77 203.22 L192.65 206.38 L180.10 205.80 Z M190.77 203.22 L204.09 207.72 L192.65 206.38 Z M204.09 207.72 L195.97 204.21 L192.65 206.38 Z M204.09 207.72 L209.50 209.30 L195.97 204.21 Z M209.50 209.30 L212.88 213.95 L195.97 204.21 Z M209.50 209.30 L215.09 213.34 L212.88 213.95 Z M215.09 213.34 L211.17 210.25 L212.88 213.95 Z M215.09 213.34 L216.53 213.43 L211.17 210.25 Z M216.53 213.43 L214.41 211.71 L211.17 210.25 Z M216.53 213.43 L217.64 213.03 L214.41 211.71 Z M217.64 213.03 L216.69 212.87 L214.41 211.71 Z M217.64 213.03 L218.96 213.30 L216.69 212.87 Z M218.96 213.30 L218.40 213.79 L216.69 212.87 Z M218.96 213.30 L220.16 215.50 L218.40 213.79 Z M220.16 215.50 L219.61 211.14 L218.40 213.79 Z M220.16 215.50 L222.10 211.39 L219.61 211.14 Z M222.10 211.39 L221.66 211.38 L219.61 211.14 Z M222.10 211.39 L225.51 208.75 L221.66 211.38 Z M225.51 208.75 L225.48 208.41 L221.66 211.38 Z M225.51 208.75 L238.82 196.66 L225.48 208.41 Z M238.82 196.66 L239.64 196.48 L225.48 208.41 Z M238.82 196.66 L229.50 212.46 L239.64 196.48 Z M229.50 212.46 L248.36 199.11 L239.64 196.48 Z M229.50 212.46 L278.52 191.01 L248.36 199.11 Z M278.52 191.01 L256.02 203.98 L248.36 199.11 Z M278.52 191.01 L339.06 187.93 L256.02 203.98 Z M339.06 187.93 L356.64 188.14 L256.02 203.98 Z M339.06 187.93 L364.37 208.10 L356.64 188.14 Z M364.37 208.10 L354.29 211.49 L356.64 188.14 Z M364.37 208.10 L254.19 222.87 L354.29 211.49 Z M254.19 222.87 L254.19 222.87 L354.29 211.49 Z M256.31 228.79 L255.69 227.88 L254.19 222.87 Z M256.31 228.79 L274.36 241.85 L255.69 227.88 Z M274.36 241.85 L275.35 239.70 L255.69 227.88 Z M274.36 241.85 L271.94 249.82 L275.35 239.70 Z M271.94 249.82 L272.00 245.89 L275.35 239.70 Z M271.94 249.82 L265.63 255.24 L272.00 245.89 Z M265.63 255.24 L264.84 249.47 L272.00 245.89 Z M265.63 255.24 L256.91 257.61 L264.84 249.47 Z M256.91 257.61 L254.37 249.21 L264.84 249.47 Z M256.91 257.61 L248.12 258.18 L254.37 249.21 Z M248.12 258.18 L245.05 247.65 L254.37 249.21 Z M248.12 258.18 L243.15 263.82 L245.05 247.65 Z M243.15 263.82 L239.74 249.26 L245.05 247.65 Z M243.15 263.82 L236.96 270.02 L239.74 249.26 Z M236.96 270.02 L235.52 253.51 L239.74 249.26 Z M236.96 270.02 L228.36 273.85 L235.52 253.51 Z M228.36 273.85 L229.40 256.56 L235.52 253.51 Z M229.40 256.56 L221.52 255.10 L228.88 242.47 Z M221.52 255.10 L222.83 239.98 L228.88 242.47 Z M221.52 255.10 L213.69 252.73 L222.83 239.98 Z M213.69 252.73 L217.48 237.99 L222.83 239.98 Z M213.69 252.73 L204.62 252.52 L217.48 237.99 Z M204.62 252.52 L211.27 238.26 L217.48 237.99 Z M204.62 252.52 L194.01 251.13 L211.27 238.26 Z M194.01 251.13 L203.02 238.47 L211.27 238.26 Z M194.01 251.13 L187.85 243.68 L203.02 238.47 Z M187.85 243.68 L193.43 236.96 L203.02 238.47 Z M187.85 243.68 L164.12 244.87 L193.43 236.96 Z M164.12 244.87 L165.36 240.28 L193.43 236.96 Z M164.12 244.87 L180.17 229.29 L165.36 240.28 Z M180.17 229.29 L195.38 224.54 L165.36 240.28 Z M180.17 229.29 L197.04 221.45 L195.38 224.54 Z M197.04 221.45 L206.09 220.54 L195.38 224.54 Z M197.04 221.45 L66.88 207.14 L206.09 220.54 Z M66.88 207.14 L66.88 207.14 L206.09 220.54 Z M76.21 188.26 L53.27 187.35 L66.88 207.14 Z M76.21 188.26 L180.10 205.80 L53.27 187.35 Z M180.10 205.80 L203.38 214.95 L53.27 187.35 Z M180.10 205.80 L192.65 206.38 L203.38 214.95 Z M192.65 206.38 L173.82 200.81 L203.38 214.95 Z M192.65 206.38 L195.97 204.21 L173.82 200.81 Z M195.97 204.21 L197.83 208.07 L173.82 200.81 Z M195.97 204.21 L212.88 213.95 L197.83 208.07 Z M212.88 213.95 L197.41 204.59 L197.83 208.07 Z M212.88 213.95 L211.17 210.25 L197.41 204.59 Z M211.17 210.25 L211.19 212.37 L197.41 204.59 Z M211.17 210.25 L214.41 211.71 L211.19 212.37 Z M214.41 211.71 L215.70 215.14 L211.19 212.37 Z M214.41 211.71 L216.69 212.87 L215.70 215.14 Z M216.69 212.87 L217.18 215.58 L215.70 215.14 Z M216.69 212.87 L218.40 213.79 L217.18 215.58 Z M218.40 213.79 L217.77 214.36 L217.18 215.58 Z M218.40 213.79 L219.61 211.14 L217.77 214.36 Z M219.61 211.14 L218.84 211.86 L217.77 214.36 Z M219.61 211.14 L221.66 211.38 L218.84 211.86 Z M221.66 211.38 L222.40 202.92 L218.84 211.86 Z M221.66 211.38 L225.48 208.41 L222.40 202.92 Z M225.48 208.41 L228.66 201.89 L222.40 202.92 Z M225.48 208.41 L239.64 196.48 L228.66 201.89 Z M239.64 196.48 L230.08 209.04 L228.66 201.89 Z M239.64 196.48 L248.36 199.11 L230.08 209.04 Z M248.36 199.11 L262.84 192.65 L230.08 209.04 Z M248.36 199.11 L256.02 203.98 L262.84 192.65 Z M256.02 203.98 L256.66 206.39 L262.84 192.65 Z M256.02 203.98 L356.64 188.14 L256.66 206.39 Z M356.64 188.14 L368.10 192.68 L256.66 206.39 Z M356.64 188.14 L354.29 211.49 L368.10 192.68 Z M354.29 211.49 L341.00 215.27 L368.10 192.68 Z M354.29 211.49 L254.19 222.87 L341.00 215.27 Z M254.19 222.87 L254.19 222.87 L341.00 215.27 Z M255.69 227.88 L254.94 226.84 L254.19 222.87 Z M255.69 227.88 L275.35 239.70 L254.94 226.84 Z M275.35 239.70 L274.04 236.44 L254.94 226.84 Z M275.35 239.70 L272.00 245.89 L274.04 236.44 Z M272.00 245.89 L269.94 240.76 L274.04 236.44 Z M272.00 245.89 L264.84 249.47 L269.94 240.76 Z M264.84 249.47 L262.35 242.79 L269.94 240.76 Z M264.84 249.47 L254.37 249.21 L262.35 242.79 Z M254.37 249.21 L249.18 239.91 L262.35 242.79 Z M254.37 249.21 L245.05 247.65 L249.18 239.91 Z M245.05 247.65 L239.87 237.23 L249.18 239.91 Z M245.05 247.65 L239.74 249.26 L239.87 237.23 Z M239.74 249.26 L234.70 236.60 L239.87 237.23 Z M239.74 249.26 L235.52 253.51 L234.70 236.60 Z M235.52 253.51 L233.21 240.70 L234.70 236.60 Z M235.52 253.51 L229.40 256.56 L233.21 240.70 Z M229.40 256.56 L228.88 242.47 L233.21 240.70 Z M228.88 242.47 L222.83 239.98 L230.46 237.18 Z M222.83 239.98 L223.69 232.95 L230.46 237.18 Z M222.83 239.98 L217.48 237.99 L223.69 232.95 Z M217.48 237.99 L219.28 229.01 L223.69 232.95 Z M217.48 237.99 L211.27 238.26 L219.28 229.01 Z M211.27 238.26 L216.00 227.62 L219.28 229.01 Z M211.27 238.26 L203.02 238.47 L216.00 227.62 Z M203.02 238.47 L209.89 229.05 L216.00 227.62 Z M203.02 238.47 L193.43 236.96 L209.89 229.05 Z M193.43 236.96 L191.22 234.32 L209.89 229.05 Z M193.43 236.96 L165.36 240.28 L191.22 234.32 Z M165.36 240.28 L177.04 231.79 L191.22 234.32 Z M165.36 240.28 L195.38 224.54 L177.04 231.79 Z M195.38 224.54 L201.32 222.32 L177.04 231.79 Z M195.38 224.54 L206.09 220.54 L201.32 222.32 Z M206.09 220.54 L212.29 220.08 L201.32 222.32 Z M206.09 220.54 L66.88 207.14 L212.29 220.08 Z M66.88 207.14 L66.88 207.14 L212.29 220.08 Z M53.27 187.35 L31.41 188.29 L66.88 207.14 Z M53.27 187.35 L203.38 214.95 L31.41 188.29 Z M203.38 214.95 L168.01 207.09 L31.41 188.29 Z M203.38 214.95 L173.82 200.81 L168.01 207.09 Z M173.82 200.81 L169.86 203.48 L168.01 207.09 Z M173.82 200.81 L197.83 208.07 L169.86 203.48 Z M197.83 208.07 L174.13 200.88 L169.86 203.48 Z M197.83 208.07 L197.41 204.59 L174.13 200.88 Z M197.41 204.59 L202.28 210.82 L174.13 200.88 Z M197.41 204.59 L211.19 212.37 L202.28 210.82 Z M211.19 212.37 L207.86 212.19 L202.28 210.82 Z M211.19 212.37 L215.70 215.14 L207.86 212.19 Z M215.70 215.14 L208.11 210.28 L207.86 212.19 Z M215.70 215.14 L217.18 215.58 L208.11 210.28 Z M217.18 215.58 L209.40 208.42 L208.11 210.28 Z M217.18 215.58 L217.77 214.36 L209.40 208.42 Z M217.77 214.36 L213.08 208.64 L209.40 208.42 Z M217.77 214.36 L218.84 211.86 L213.08 208.64 Z M218.84 211.86 L217.60 211.59 L213.08 208.64 Z M218.84 211.86 L222.40 202.92 L217.60 211.59 Z M222.40 202.92 L220.45 214.35 L217.60 211.59 Z M222.40 202.92 L228.66 201.89 L220.45 214.35 Z M228.66 201.89 L231.22 198.61 L220.45 214.35 Z M228.66 201.89 L230.08 209.04 L231.22 198.61 Z M230.08 209.04 L246.74 196.06 L231.22 198.61 Z M230.08 209.04 L262.84 192.65 L246.74 196.06 Z M262.84 192.65 L233.96 213.06 L246.74 196.06 Z M262.84 192.65 L256.66 206.39 L233.96 213.06 Z M256.66 206.39 L309.79 195.37 L233.96 213.06 Z M256.66 206.39 L368.10 192.68 L309.79 195.37 Z M368.10 192.68 L363.84 202.14 L309.79 195.37 Z M368.10 192.68 L341.00 215.27 L363.84 202.14 Z M341.00 215.27 L324.79 218.91 L363.84 202.14 Z M341.00 215.27 L254.19 222.87 L324.79 218.91 Z M254.19 222.87 L254.19 222.87 L324.79 218.91 Z M254.94 226.84 L253.83 225.69 L254.19 222.87 Z M254.94 226.84 L274.04 236.44 L253.83 225.69 Z M274.04 236.44 L268.65 232.08 L253.83 225.69 Z M274.04 236.44 L269.94 240.76 L268.65 232.08 Z M269.94 240.76 L269.72 236.38 L268.65 232.08 Z M269.94 240.76 L262.35 242.79 L269.72 236.38 Z M262.35 242.79 L257.48 235.62 L269.72 236.38 Z M262.35 242.79 L249.18 239.91 L257.48 235.62 Z M249.18 239.91 L245.53 233.22 L257.48 235.62 Z M249.18 239.91 L239.87 237.23 L245.53 233.22 Z M239.87 237.23 L236.68 230.74 L245.53 233.22 Z M239.87 237.23 L234.70 236.60 L236.68 230.74 Z M234.70 236.60 L237.24 234.09 L236.68 230.74 Z M234.70 236.60 L233.21 240.70 L237.24 234.09 Z M233.21 240.70 L236.71 238.26 L237.24 234.09 Z M233.21 240.70 L228.88 242.47 L236.71 238.26 Z M228.88 242.47 L230.46 237.18 L236.71 238.26 Z M230.46 237.18 L223.69 232.95 L229.75 229.58 Z M223.69 232.95 L223.72 226.76 L229.75 229.58 Z M223.69 232.95 L219.28 229.01 L223.72 226.76 Z M219.28 229.01 L220.03 225.03 L223.72 226.76 Z M219.28 229.01 L216.00 227.62 L220.03 225.03 Z M216.00 227.62 L216.45 225.24 L220.03 225.03 Z M216.00 227.62 L209.89 229.05 L216.45 225.24 Z M209.89 229.05 L206.78 228.09 L216.45 225.24 Z M209.89 229.05 L191.22 234.32 L206.78 228.09 Z M191.22 234.32 L190.79 229.20 L206.78 228.09 Z M191.22 234.32 L177.04 231.79 L190.79 229.20 Z M177.04 231.79 L198.83 223.32 L190.79 229.20 Z M177.04 231.79 L201.32 222.32 L198.83 223.32 Z M201.32 222.32 L199.08 221.14 L198.83 223.32 Z M201.32 222.32 L212.29 220.08 L199.08 221.14 Z M212.29 220.08 L190.18 219.35 L199.08 221.14 Z M212.29 220.08 L66.88 207.14 L190.18 219.35 Z M66.88 207.14 L66.88 207.14 L190.18 219.35 Z M31.41 188.29 L16.89 191.86 L66.88 207.14 Z M31.41 188.29 L168.01 207.09 L16.89 191.86 Z M168.01 207.09 L90.86 195.50 L16.89 191.86 Z M168.01 207.09 L169.86 203.48 L90.86 195.50 Z M169.86 203.48 L194.65 213.89 L90.86 195.50 Z M169.86 203.48 L174.13 200.88 L194.65 213.89 Z M174.13 200.88 L177.94 207.58 L194.65 213.89 Z M174.13 200.88 L202.28 210.82 L177.94 207.58 Z M202.28 210.82 L162.61 199.50 L177.94 207.58 Z M202.28 210.82 L207.86 212.19 L162.61 199.50 Z M207.86 212.19 L168.41 197.67 L162.61 199.50 Z M207.86 212.19 L208.11 210.28 L168.41 197.67 Z M208.11 210.28 L177.91 197.48 L168.41 197.67 Z M208.11 210.28 L209.40 208.42 L177.91 197.48 Z M209.40 208.42 L185.57 196.21 L177.91 197.48 Z M209.40 208.42 L213.08 208.64 L185.57 196.21 Z M213.08 208.64 L193.81 194.26 L185.57 196.21 Z M213.08 208.64 L217.60 211.59 L193.81 194.26 Z M217.60 211.59 L206.28 195.05 L193.81 194.26 Z M217.60 211.59 L220.45 214.35 L206.28 195.05 Z M220.45 214.35 L219.87 199.76 L206.28 195.05 Z M220.45 214.35 L231.22 198.61 L219.87 199.76 Z M231.22 198.61 L225.22 212.31 L219.87 199.76 Z M231.22 198.61 L246.74 196.06 L225.22 212.31 Z M246.74 196.06 L236.81 209.71 L225.22 212.31 Z M246.74 196.06 L233.96 213.06 L236.81 209.71 Z M233.96 213.06 L284.31 199.76 L236.81 209.71 Z M233.96 213.06 L309.79 195.37 L284.31 199.76 Z M309.79 195.37 L333.15 202.23 L284.31 199.76 Z M309.79 195.37 L363.84 202.14 L333.15 202.23 Z M363.84 202.14 L342.55 213.35 L333.15 202.23 Z M363.84 202.14 L324.79 218.91 L342.55 213.35 Z M324.79 218.91 L306.21 221.89 L342.55 213.35 Z M324.79 218.91 L254.19 222.87 L306.21 221.89 Z M254.19 222.87 L254.19 222.87 L306.21 221.89 Z M253.83 225.69 L251.46 224.36 L254.19 222.87 Z M253.83 225.69 L268.65 232.08 L251.46 224.36 Z M268.65 232.08 L261.29 227.83 L251.46 224.36 Z M268.65 232.08 L269.72 236.38 L261.29 227.83 Z M269.72 236.38 L267.14 231.36 L261.29 227.83 Z M269.72 236.38 L257.48 235.62 L267.14 231.36 Z M257.48 235.62 L256.61 230.81 L267.14 231.36 Z M257.48 235.62 L245.53 233.22 L256.61 230.81 Z M245.53 233.22 L243.08 228.24 L256.61 230.81 Z M245.53 233.22 L236.68 230.74 L243.08 228.24 Z M236.68 230.74 L237.19 227.44 L243.08 228.24 Z M236.68 230.74 L237.24 234.09 L237.19 227.44 Z M237.24 234.09 L238.56 229.93 L237.19 227.44 Z M237.24 234.09 L236.71 238.26 L238.56 229.93 Z M236.71 238.26 L236.43 231.35 L238.56 229.93 Z M236.71 238.26 L230.46 237.18 L236.43 231.35 Z M230.46 237.18 L229.75 229.58 L236.43 231.35 Z M229.75 229.58 L223.72 226.76 L231.16 224.98 Z M223.72 226.76 L225.84 224.29 L231.16 224.98 Z M223.72 226.76 L220.03 225.03 L225.84 224.29 Z M220.03 225.03 L220.95 224.17 L225.84 224.29 Z M220.03 225.03 L216.45 225.24 L220.95 224.17 Z M216.45 225.24 L213.27 224.81 L220.95 224.17 Z M216.45 225.24 L206.78 228.09 L213.27 224.81 Z M206.78 228.09 L202.53 224.22 L213.27 224.81 Z M206.78 228.09 L190.79 229.20 L202.53 224.22 Z M190.79 229.20 L203.07 221.65 L202.53 224.22 Z M190.79 229.20 L198.83 223.32 L203.07 221.65 Z M198.83 223.32 L209.44 220.25 L203.07 221.65 Z M198.83 223.32 L199.08 221.14 L209.44 220.25 Z M199.08 221.14 L213.68 219.86 L209.44 220.25 Z M199.08 221.14 L190.18 219.35 L213.68 219.86 Z M190.18 219.35 L157.85 216.48 L213.68 219.86 Z M190.18 219.35 L66.88 207.14 L157.85 216.48 Z M66.88 207.14 L66.88 207.14 L157.85 216.48 Z M16.89 191.86 L15.85 198.01 L66.88 207.14 Z M16.89 191.86 L90.86 195.50 L15.85 198.01 Z M90.86 195.50 L28.22 195.12 L15.85 198.01 Z M90.86 195.50 L194.65 213.89 L28.22 195.12 Z M194.65 213.89 L79.20 198.66 L28.22 195.12 Z M194.65 213.89 L177.94 207.58 L79.20 198.66 Z M177.94 207.58 L132.58 204.74 L79.20 198.66 Z M177.94 207.58 L162.61 199.50 L132.58 204.74 Z M162.61 199.50 L170.60 210.10 L132.58 204.74 Z M162.61 199.50 L168.41 197.67 L170.60 210.10 Z M168.41 197.67 L192.46 213.62 L170.60 210.10 Z M168.41 197.67 L177.91 197.48 L192.46 213.62 Z M177.91 197.48 L201.69 215.00 L192.46 213.62 Z M177.91 197.48 L185.57 196.21 L201.69 215.00 Z M185.57 196.21 L202.47 214.13 L201.69 215.00 Z M185.57 196.21 L193.81 194.26 L202.47 214.13 Z M193.81 194.26 L201.11 211.57 L202.47 214.13 Z M193.81 194.26 L206.28 195.05 L201.11 211.57 Z M206.28 195.05 L204.80 208.83 L201.11 211.57 Z M206.28 195.05 L219.87 199.76 L204.80 208.83 Z M219.87 199.76 L217.00 206.79 L204.80 208.83 Z M219.87 199.76 L225.22 212.31 L217.00 206.79 Z M225.22 212.31 L239.39 206.14 L217.00 206.79 Z M225.22 212.31 L236.81 209.71 L239.39 206.14 Z M236.81 209.71 L267.77 208.46 L239.39 206.14 Z M236.81 209.71 L284.31 199.76 L267.77 208.46 Z M284.31 199.76 L293.84 212.83 L267.77 208.46 Z M284.31 199.76 L333.15 202.23 L293.84 212.83 Z M333.15 202.23 L312.15 217.81 L293.84 212.83 Z M333.15 202.23 L342.55 213.35 L312.15 217.81 Z M342.55 213.35 L311.08 222.08 L312.15 217.81 Z M342.55 213.35 L306.21 221.89 L311.08 222.08 Z M306.21 221.89 L286.17 223.75 L311.08 222.08 Z M306.21 221.89 L254.19 222.87 L286.17 223.75 Z M254.19 222.87 L254.19 222.87 L286.17 223.75 Z M251.46 224.36 L247.47 222.96 L254.19 222.87 Z M251.46 224.36 L261.29 227.83 L247.47 222.96 Z M261.29 227.83 L255.58 224.61 L247.47 222.96 Z M261.29 227.83 L267.14 231.36 L255.58 224.61 Z M267.14 231.36 L257.81 225.73 L255.58 224.61 Z M267.14 231.36 L256.61 230.81 L257.81 225.73 Z M256.61 230.81 L255.34 226.17 L257.81 225.73 Z M256.61 230.81 L243.08 228.24 L255.34 226.17 Z M243.08 228.24 L249.10 225.83 L255.34 226.17 Z M243.08 228.24 L237.19 227.44 L249.10 225.83 Z M237.19 227.44 L242.94 225.31 L249.10 225.83 Z M237.19 227.44 L238.56 229.93 L242.94 225.31 Z M238.56 229.93 L239.67 225.37 L242.94 225.31 Z M238.56 229.93 L236.43 231.35 L239.67 225.37 Z M236.43 231.35 L236.21 225.43 L239.67 225.37 Z M236.43 231.35 L229.75 229.58 L236.21 225.43 Z M229.75 229.58 L231.16 224.98 L236.21 225.43 Z M231.16 224.98 L225.84 224.29 L237.54 219.54 Z M225.84 224.29 L230.95 218.83 L237.54 219.54 Z M225.84 224.29 L220.95 224.17 L230.95 218.83 Z M220.95 224.17 L222.33 218.16 L230.95 218.83 Z M220.95 224.17 L213.27 224.81 L222.33 218.16 Z M213.27 224.81 L214.52 217.98 L222.33 218.16 Z M213.27 224.81 L202.53 224.22 L214.52 217.98 Z M202.53 224.22 L212.75 218.61 L214.52 217.98 Z M202.53 224.22 L203.07 221.65 L212.75 218.61 Z M203.07 221.65 L216.25 219.46 L212.75 218.61 Z M203.07 221.65 L209.44 220.25 L216.25 219.46 Z M209.44 220.25 L212.31 219.09 L216.25 219.46 Z M209.44 220.25 L213.68 219.86 L212.31 219.09 Z M213.68 219.86 L176.51 215.49 L212.31 219.09 Z M213.68 219.86 L157.85 216.48 L176.51 215.49 Z M157.85 216.48 L120.78 210.80 L176.51 215.49 Z M157.85 216.48 L66.88 207.14 L120.78 210.80 Z M66.88 207.14 L66.88 207.14 L120.78 210.80 Z M15.85 198.01 L31.71 205.60 L66.88 207.14 Z M15.85 198.01 L28.22 195.12 L31.71 205.60 Z M28.22 195.12 L20.83 206.16 L31.71 205.60 Z M28.22 195.12 L79.20 198.66 L20.83 206.16 Z M79.20 198.66 L30.80 208.15 L20.83 206.16 Z M79.20 198.66 L132.58 204.74 L30.80 208.15 Z M132.58 204.74 L52.25 210.69 L30.80 208.15 Z M132.58 204.74 L170.60 210.10 L52.25 210.69 Z M170.60 210.10 L78.48 213.28 L52.25 210.69 Z M170.60 210.10 L192.46 213.62 L78.48 213.28 Z M192.46 213.62 L106.07 215.69 L78.48 213.28 Z M192.46 213.62 L201.69 215.00 L106.07 215.69 Z M201.69 215.00 L131.76 217.77 L106.07 215.69 Z M201.69 215.00 L202.47 214.13 L131.76 217.77 Z M202.47 214.13 L155.46 219.57 L131.76 217.77 Z M202.47 214.13 L201.11 211.57 L155.46 219.57 Z M201.11 211.57 L178.05 221.10 L155.46 219.57 Z M201.11 211.57 L204.80 208.83 L178.05 221.10 Z M204.80 208.83 L198.24 222.33 L178.05 221.10 Z M204.80 208.83 L217.00 206.79 L198.24 222.33 Z M217.00 206.79 L215.68 223.42 L198.24 222.33 Z M217.00 206.79 L239.39 206.14 L215.68 223.42 Z M239.39 206.14 L231.99 224.42 L215.68 223.42 Z M239.39 206.14 L267.77 208.46 L231.99 224.42 Z M267.77 208.46 L247.13 225.22 L231.99 224.42 Z M267.77 208.46 L293.84 212.83 L247.13 225.22 Z M293.84 212.83 L261.93 226.00 L247.13 225.22 Z M293.84 212.83 L312.15 217.81 L261.93 226.00 Z M312.15 217.81 L274.05 226.42 L261.93 226.00 Z M312.15 217.81 L311.08 222.08 L274.05 226.42 Z M311.08 222.08 L275.51 225.76 L274.05 226.42 Z M311.08 222.08 L286.17 223.75 L275.51 225.76 Z M286.17 223.75 L266.39 224.30 L275.51 225.76 Z M286.17 223.75 L254.19 222.87 L266.39 224.30 Z M254.19 222.87 L254.19 222.87 L266.39 224.30 Z M247.47 222.96 L245.77 221.97 L254.19 222.87 Z M247.47 222.96 L255.58 224.61 L245.77 221.97 Z M255.58 224.61 L244.70 221.72 L245.77 221.97 Z M255.58 224.61 L257.81 225.73 L244.70 221.72 Z M257.81 225.73 L245.38 221.59 L244.70 221.72 Z M257.81 225.73 L255.34 226.17 L245.38 221.59 Z M255.34 226.17 L248.52 221.58 L245.38 221.59 Z M255.34 226.17 L249.10 225.83 L248.52 221.58 Z M249.10 225.83 L252.28 221.53 L248.52 221.58 Z M249.10 225.83 L242.94 225.31 L252.28 221.53 Z M242.94 225.31 L251.02 221.17 L252.28 221.53 Z M242.94 225.31 L239.67 225.37 L251.02 221.17 Z M239.67 225.37 L246.89 220.68 L251.02 221.17 Z M239.67 225.37 L236.21 225.43 L246.89 220.68 Z M236.21 225.43 L242.46 220.15 L246.89 220.68 Z M236.21 225.43 L231.16 224.98 L242.46 220.15 Z M231.16 224.98 L237.54 219.54 L242.46 220.15 Z M237.54 219.54 L230.95 218.83 L227.48 216.49 Z M230.95 218.83 L223.77 216.73 L227.48 216.49 Z M230.95 218.83 L222.33 218.16 L223.77 216.73 Z M222.33 218.16 L220.92 216.41 L223.77 216.73 Z M222.33 218.16 L214.52 217.98 L220.92 216.41 Z M214.52 217.98 L216.63 214.61 L220.92 216.41 Z M214.52 217.98 L212.75 218.61 L216.63 214.61 Z M212.75 218.61 L205.67 210.73 L216.63 214.61 Z M212.75 218.61 L216.25 219.46 L205.67 210.73 Z M216.25 219.46 L183.28 205.73 L205.67 210.73 Z M216.25 219.46 L212.31 219.09 L183.28 205.73 Z M212.31 219.09 L150.49 201.73 L183.28 205.73 Z M212.31 219.09 L176.51 215.49 L150.49 201.73 Z M176.51 215.49 L114.74 200.56 L150.49 201.73 Z M176.51 215.49 L120.78 210.80 L114.74 200.56 Z M120.78 210.80 L85.02 202.64 L114.74 200.56 Z M120.78 210.80 L66.88 207.14 L85.02 202.64 Z M66.88 207.14 L66.88 207.14 L85.02 202.64 Z M31.71 205.60 L63.26 212.86 L66.88 207.14 Z M31.71 205.60 L20.83 206.16 L63.26 212.86 Z M20.83 206.16 L76.49 218.55 L63.26 212.86 Z M20.83 206.16 L30.80 208.15 L76.49 218.55 Z M30.80 208.15 L105.43 222.83 L76.49 218.55 Z M30.80 208.15 L52.25 210.69 L105.43 222.83 Z M52.25 210.69 L141.76 224.78 L105.43 222.83 Z M52.25 210.69 L78.48 213.28 L141.76 224.78 Z M78.48 213.28 L173.43 224.73 L141.76 224.78 Z M78.48 213.28 L106.07 215.69 L173.43 224.73 Z M106.07 215.69 L194.42 223.84 L173.43 224.73 Z M106.07 215.69 L131.76 217.77 L194.42 223.84 Z M131.76 217.77 L205.32 223.14 L194.42 223.84 Z M131.76 217.77 L155.46 219.57 L205.32 223.14 Z M155.46 219.57 L209.91 223.10 L205.32 223.14 Z M155.46 219.57 L178.05 221.10 L209.91 223.10 Z M178.05 221.10 L212.40 223.57 L209.91 223.10 Z M178.05 221.10 L198.24 222.33 L212.40 223.57 Z M198.24 222.33 L215.22 224.14 L212.40 223.57 Z M198.24 222.33 L215.68 223.42 L215.22 224.14 Z M215.68 223.42 L218.88 224.36 L215.22 224.14 Z M215.68 223.42 L231.99 224.42 L218.88 224.36 Z M231.99 224.42 L222.57 224.11 L218.88 224.36 Z M231.99 224.42 L247.13 225.22 L222.57 224.11 Z M247.13 225.22 L225.68 223.67 L222.57 224.11 Z M247.13 225.22 L261.93 226.00 L225.68 223.67 Z M261.93 226.00 L228.46 223.28 L225.68 223.67 Z M261.93 226.00 L274.05 226.42 L228.46 223.28 Z M274.05 226.42 L234.29 223.76 L228.46 223.28 Z M274.05 226.42 L275.51 225.76 L234.29 223.76 Z M275.51 225.76 L242.92 224.23 L234.29 223.76 Z M275.51 225.76 L266.39 224.30 L242.92 224.23 Z M266.39 224.30 L250.19 223.88 L242.92 224.23 Z M266.39 224.30 L254.19 222.87 L250.19 223.88 Z M254.19 222.87 L254.19 222.87 L250.19 223.88 Z M245.77 221.97 L254.83 221.59 L254.19 222.87 Z M245.77 221.97 L244.70 221.72 L254.83 221.59 Z M244.70 221.72 L251.47 220.32 L254.83 221.59 Z M244.70 221.72 L245.38 221.59 L251.47 220.32 Z M245.38 221.59 L242.39 219.45 L251.47 220.32 Z M245.38 221.59 L248.52 221.58 L242.39 219.45 Z M248.52 221.58 L233.59 219.17 L242.39 219.45 Z M248.52 221.58 L252.28 221.53 L233.59 219.17 Z M252.28 221.53 L236.30 218.34 L233.59 219.17 Z M252.28 221.53 L251.02 221.17 L236.30 218.34 Z M251.02 221.17 L238.77 217.18 L236.30 218.34 Z M251.02 221.17 L246.89 220.68 L238.77 217.18 Z M246.89 220.68 L236.59 216.45 L238.77 217.18 Z M246.89 220.68 L242.46 220.15 L236.59 216.45 Z M242.46 220.15 L232.14 216.27 L236.59 216.45 Z M242.46 220.15 L237.54 219.54 L232.14 216.27 Z M237.54 219.54 L227.48 216.49 L232.14 216.27 Z M227.48 216.49 L223.77 216.73 L263.09 180.63 Z M223.77 216.73 L246.74 175.97 L263.09 180.63 Z M223.77 216.73 L220.92 216.41 L246.74 175.97 Z M220.92 216.41 L226.08 172.29 L246.74 175.97 Z M220.92 216.41 L216.63 214.61 L226.08 172.29 Z M216.63 214.61 L201.16 169.79 L226.08 172.29 Z M216.63 214.61 L205.67 210.73 L201.16 169.79 Z M205.67 210.73 L171.94 168.73 L201.16 169.79 Z M205.67 210.73 L183.28 205.73 L171.94 168.73 Z M183.28 205.73 L139.13 169.88 L171.94 168.73 Z M183.28 205.73 L150.49 201.73 L139.13 169.88 Z M150.49 201.73 L104.31 173.75 L139.13 169.88 Z M150.49 201.73 L114.74 200.56 L104.31 173.75 Z M114.74 200.56 L73.09 181.48 L104.31 173.75 Z M114.74 200.56 L85.02 202.64 L73.09 181.48 Z M85.02 202.64 L57.29 193.47 L73.09 181.48 Z M85.02 202.64 L66.88 207.14 L57.29 193.47 Z M66.88 207.14 L66.88 207.14 L57.29 193.47 Z M63.26 212.86 L104.75 218.18 L66.88 207.14 Z M63.26 212.86 L76.49 218.55 L104.75 218.18 Z M76.49 218.55 L159.65 222.86 L104.75 218.18 Z M76.49 218.55 L105.43 222.83 L159.65 222.86 Z M105.43 222.83 L204.48 221.70 L159.65 222.86 Z M105.43 222.83 L141.76 224.78 L204.48 221.70 Z M141.76 224.78 L215.31 220.82 L204.48 221.70 Z M141.76 224.78 L173.43 224.73 L215.31 220.82 Z M173.43 224.73 L200.71 224.76 L215.31 220.82 Z M173.43 224.73 L194.42 223.84 L200.71 224.76 Z M194.42 223.84 L188.87 230.40 L200.71 224.76 Z M194.42 223.84 L205.32 223.14 L188.87 230.40 Z M205.32 223.14 L187.44 234.60 L188.87 230.40 Z M205.32 223.14 L209.91 223.10 L187.44 234.60 Z M209.91 223.10 L193.46 236.37 L187.44 234.60 Z M209.91 223.10 L212.40 223.57 L193.46 236.37 Z M212.40 223.57 L202.12 236.34 L193.46 236.37 Z M212.40 223.57 L215.22 224.14 L202.12 236.34 Z M215.22 224.14 L210.52 235.60 L202.12 236.34 Z M215.22 224.14 L218.88 224.36 L210.52 235.60 Z M218.88 224.36 L218.12 234.72 L210.52 235.60 Z M218.88 224.36 L222.57 224.11 L218.12 234.72 Z M222.57 224.11 L225.09 233.56 L218.12 234.72 Z M222.57 224.11 L225.68 223.67 L225.09 233.56 Z M225.68 223.67 L230.57 231.28 L225.09 233.56 Z M225.68 223.67 L228.46 223.28 L230.57 231.28 Z M228.46 223.28 L232.17 227.54 L230.57 231.28 Z M228.46 223.28 L234.29 223.76 L232.17 227.54 Z M234.29 223.76 L233.87 225.55 L232.17 227.54 Z M234.29 223.76 L242.92 224.23 L233.87 225.55 Z M242.92 224.23 L237.52 224.59 L233.87 225.55 Z M242.92 224.23 L250.19 223.88 L237.52 224.59 Z M250.19 223.88 L242.70 223.70 L237.52 224.59 Z M250.19 223.88 L254.19 222.87 L242.70 223.70 Z M254.19 222.87 L254.19 222.87 L242.70 223.70 Z M254.83 221.59 L273.74 220.85 L254.19 222.87 Z M254.83 221.59 L251.47 220.32 L273.74 220.85 Z M251.47 220.32 L295.36 216.43 L273.74 220.85 Z M251.47 220.32 L242.39 219.45 L295.36 216.43 Z M242.39 219.45 L308.22 210.35 L295.36 216.43 Z M242.39 219.45 L233.59 219.17 L308.22 210.35 Z M233.59 219.17 L307.36 204.77 L308.22 210.35 Z M233.59 219.17 L236.30 218.34 L307.36 204.77 Z M236.30 218.34 L299.67 200.33 L307.36 204.77 Z M236.30 218.34 L238.77 217.18 L299.67 200.33 Z M238.77 217.18 L293.31 195.51 L299.67 200.33 Z M238.77 217.18 L236.59 216.45 L293.31 195.51 Z M236.59 216.45 L286.44 190.21 L293.31 195.51 Z M236.59 216.45 L232.14 216.27 L286.44 190.21 Z M232.14 216.27 L276.11 185.39 L286.44 190.21 Z M232.14 216.27 L227.48 216.49 L276.11 185.39 Z M227.48 216.49 L263.09 180.63 L276.11 185.39 Z M263.09 180.63 L246.74 175.97 L238.00 195.06 Z M246.74 175.97 L226.66 202.95 L238.00 195.06 Z M246.74 175.97 L226.08 172.29 L226.66 202.95 Z M226.08 172.29 L220.77 206.56 L226.66 202.95 Z M226.08 172.29 L201.16 169.79 L220.77 206.56 Z M201.16 169.79 L215.18 203.97 L220.77 206.56 Z M201.16 169.79 L171.94 168.73 L215.18 203.97 Z M171.94 168.73 L203.18 196.36 L215.18 203.97 Z M171.94 168.73 L139.13 169.88 L203.18 196.36 Z M139.13 169.88 L178.99 186.41 L203.18 196.36 Z M139.13 169.88 L104.31 173.75 L178.99 186.41 Z M104.31 173.75 L135.75 176.07 L178.99 186.41 Z M104.31 173.75 L73.09 181.48 L135.75 176.07 Z M73.09 181.48 L78.43 172.93 L135.75 176.07 Z M73.09 181.48 L57.29 193.47 L78.43 172.93 Z M57.29 193.47 L42.45 185.43 L78.43 172.93 Z M57.29 193.47 L66.88 207.14 L42.45 185.43 Z M66.88 207.14 L66.88 207.14 L42.45 185.43 Z M104.75 218.18 L148.05 220.88 L66.88 207.14 Z M104.75 218.18 L159.65 222.86 L148.05 220.88 Z M159.65 222.86 L210.57 220.96 L148.05 220.88 Z M159.65 222.86 L204.48 221.70 L210.57 220.96 Z M204.48 221.70 L202.92 223.25 L210.57 220.96 Z M204.48 221.70 L215.31 220.82 L202.92 223.25 Z M215.31 220.82 L192.06 227.92 L202.92 223.25 Z M215.31 220.82 L200.71 224.76 L192.06 227.92 Z M200.71 224.76 L174.76 237.57 L192.06 227.92 Z M200.71 224.76 L188.87 230.40 L174.76 237.57 Z M188.87 230.40 L181.51 239.83 L174.76 237.57 Z M188.87 230.40 L187.44 234.60 L181.51 239.83 Z M187.44 234.60 L194.70 237.28 L181.51 239.83 Z M187.44 234.60 L193.46 236.37 L194.70 237.28 Z M193.46 236.37 L203.96 234.98 L194.70 237.28 Z M193.46 236.37 L202.12 236.34 L203.96 234.98 Z M202.12 236.34 L210.35 233.37 L203.96 234.98 Z M202.12 236.34 L210.52 235.60 L210.35 233.37 Z M210.52 235.60 L214.80 233.31 L210.35 233.37 Z M210.52 235.60 L218.12 234.72 L214.80 233.31 Z M218.12 234.72 L219.19 234.09 L214.80 233.31 Z M218.12 234.72 L225.09 233.56 L219.19 234.09 Z M225.09 233.56 L224.29 234.27 L219.19 234.09 Z M225.09 233.56 L230.57 231.28 L224.29 234.27 Z M230.57 231.28 L230.19 234.33 L224.29 234.27 Z M230.57 231.28 L232.17 227.54 L230.19 234.33 Z M232.17 227.54 L236.37 233.41 L230.19 234.33 Z M232.17 227.54 L233.87 225.55 L236.37 233.41 Z M233.87 225.55 L242.45 231.71 L236.37 233.41 Z M233.87 225.55 L237.52 224.59 L242.45 231.71 Z M237.52 224.59 L245.53 228.49 L242.45 231.71 Z M237.52 224.59 L242.70 223.70 L245.53 228.49 Z M242.70 223.70 L244.20 224.71 L245.53 228.49 Z M242.70 223.70 L254.19 222.87 L244.20 224.71 Z M254.19 222.87 L254.19 222.87 L244.20 224.71 Z M273.74 220.85 L296.15 219.07 L254.19 222.87 Z M273.74 220.85 L295.36 216.43 L296.15 219.07 Z M295.36 216.43 L341.84 207.61 L296.15 219.07 Z M295.36 216.43 L308.22 210.35 L341.84 207.61 Z M308.22 210.35 L368.08 191.83 L341.84 207.61 Z M308.22 210.35 L307.36 204.77 L368.08 191.83 Z M307.36 204.77 L370.95 177.20 L368.08 191.83 Z M307.36 204.77 L299.67 200.33 L370.95 177.20 Z M299.67 200.33 L358.58 166.18 L370.95 177.20 Z M299.67 200.33 L293.31 195.51 L358.58 166.18 Z M293.31 195.51 L331.87 162.37 L358.58 166.18 Z M293.31 195.51 L286.44 190.21 L331.87 162.37 Z M286.44 190.21 L291.87 170.90 L331.87 162.37 Z M286.44 190.21 L276.11 185.39 L291.87 170.90 Z M276.11 185.39 L257.97 184.53 L291.87 170.90 Z M276.11 185.39 L263.09 180.63 L257.97 184.53 Z M263.09 180.63 L238.00 195.06 L257.97 184.53 Z M238.00 195.06 L226.66 202.95 L245.55 170.87 Z M226.66 202.95 L232.37 173.17 L245.55 170.87 Z M226.66 202.95 L220.77 206.56 L232.37 173.17 Z M220.77 206.56 L220.13 176.40 L232.37 173.17 Z M220.77 206.56 L215.18 203.97 L220.13 176.40 Z M215.18 203.97 L208.14 177.75 L220.13 176.40 Z M215.18 203.97 L203.18 196.36 L208.14 177.75 Z M203.18 196.36 L197.51 183.17 L208.14 177.75 Z M203.18 196.36 L178.99 186.41 L197.51 183.17 Z M178.99 186.41 L198.14 198.70 L197.51 183.17 Z M178.99 186.41 L135.75 176.07 L198.14 198.70 Z M135.75 176.07 L208.31 212.73 L198.14 198.70 Z M135.75 176.07 L78.43 172.93 L208.31 212.73 Z M78.43 172.93 L124.56 182.53 L208.31 212.73 Z M78.43 172.93 L42.45 185.43 L124.56 182.53 Z M42.45 185.43 L41.67 180.32 L124.56 182.53 Z M42.45 185.43 L66.88 207.14 L41.67 180.32 Z M66.88 207.14 L66.88 207.14 L41.67 180.32 Z M148.05 220.88 L185.66 221.29 L66.88 207.14 Z M148.05 220.88 L210.57 220.96 L185.66 221.29 Z M210.57 220.96 L191.73 224.30 L185.66 221.29 Z M210.57 220.96 L202.92 223.25 L191.73 224.30 Z M202.92 223.25 L186.17 229.00 L191.73 224.30 Z M202.92 223.25 L192.06 227.92 L186.17 229.00 Z M192.06 227.92 L167.36 240.40 L186.17 229.00 Z M192.06 227.92 L174.76 237.57 L167.36 240.40 Z M174.76 237.57 L191.95 234.75 L167.36 240.40 Z M174.76 237.57 L181.51 239.83 L191.95 234.75 Z M181.51 239.83 L207.32 228.81 L191.95 234.75 Z M181.51 239.83 L194.70 237.28 L207.32 228.81 Z M194.70 237.28 L209.57 229.62 L207.32 228.81 Z M194.70 237.28 L203.96 234.98 L209.57 229.62 Z M203.96 234.98 L212.36 229.70 L209.57 229.62 Z M203.96 234.98 L210.35 233.37 L212.36 229.70 Z M210.35 233.37 L214.64 230.31 L212.36 229.70 Z M210.35 233.37 L214.80 233.31 L214.64 230.31 Z M214.80 233.31 L216.21 234.35 L214.64 230.31 Z M214.80 233.31 L219.19 234.09 L216.21 234.35 Z M219.19 234.09 L219.95 236.41 L216.21 234.35 Z M219.19 234.09 L224.29 234.27 L219.95 236.41 Z M224.29 234.27 L224.10 234.62 L219.95 236.41 Z M224.29 234.27 L230.19 234.33 L224.10 234.62 Z M230.19 234.33 L228.80 234.41 L224.10 234.62 Z M230.19 234.33 L236.37 233.41 L228.80 234.41 Z M236.37 233.41 L238.64 238.16 L228.80 234.41 Z M236.37 233.41 L242.45 231.71 L238.64 238.16 Z M242.45 231.71 L250.29 238.84 L238.64 238.16 Z M242.45 231.71 L245.53 228.49 L250.29 238.84 Z M245.53 228.49 L250.25 231.88 L250.29 238.84 Z M245.53 228.49 L244.20 224.71 L250.25 231.88 Z M244.20 224.71 L247.58 226.14 L250.25 231.88 Z M244.20 224.71 L254.19 222.87 L247.58 226.14 Z M254.19 222.87 L254.19 222.87 L247.58 226.14 Z M296.15 219.07 L318.08 216.30 L254.19 222.87 Z M296.15 219.07 L341.84 207.61 L318.08 216.30 Z M341.84 207.61 L380.31 195.63 L318.08 216.30 Z M341.84 207.61 L368.08 191.83 L380.31 195.63 Z M368.08 191.83 L394.13 173.64 L380.31 195.63 Z M368.08 191.83 L370.95 177.20 L394.13 173.64 Z M370.95 177.20 L339.57 173.64 L394.13 173.64 Z M370.95 177.20 L358.58 166.18 L339.57 173.64 Z M358.58 166.18 L257.74 200.16 L339.57 173.64 Z M358.58 166.18 L331.87 162.37 L257.74 200.16 Z M331.87 162.37 L246.91 201.30 L257.74 200.16 Z M331.87 162.37 L291.87 170.90 L246.91 201.30 Z M291.87 170.90 L266.18 177.40 L246.91 201.30 Z M291.87 170.90 L257.97 184.53 L266.18 177.40 Z M257.97 184.53 L257.83 171.93 L266.18 177.40 Z M257.97 184.53 L238.00 195.06 L257.83 171.93 Z M238.00 195.06 L245.55 170.87 L257.83 171.93 Z M245.55 170.87 L232.37 173.17 L229.23 196.16 Z M232.37 173.17 L224.37 194.81 L229.23 196.16 Z M232.37 173.17 L220.13 176.40 L224.37 194.81 Z M220.13 176.40 L219.11 200.84 L224.37 194.81 Z M220.13 176.40 L208.14 177.75 L219.11 200.84 Z M208.14 177.75 L216.24 206.89 L219.11 200.84 Z M208.14 177.75 L197.51 183.17 L216.24 206.89 Z M197.51 183.17 L212.40 206.63 L216.24 206.89 Z M197.51 183.17 L198.14 198.70 L212.40 206.63 Z M198.14 198.70 L195.89 193.98 L212.40 206.63 Z M198.14 198.70 L208.31 212.73 L195.89 193.98 Z M208.31 212.73 L188.09 197.75 L195.89 193.98 Z M208.31 212.73 L124.56 182.53 L188.09 197.75 Z M124.56 182.53 L181.78 203.17 L188.09 197.75 Z M124.56 182.53 L41.67 180.32 L181.78 203.17 Z M41.67 180.32 L52.22 178.82 L181.78 203.17 Z M41.67 180.32 L66.88 207.14 L52.22 178.82 Z M66.88 207.14 L66.88 207.14 L52.22 178.82 Z M185.66 221.29 L210.64 220.56 L66.88 207.14 Z M185.66 221.29 L191.73 224.30 L210.64 220.56 Z M191.73 224.30 L195.52 224.82 L210.64 220.56 Z M191.73 224.30 L186.17 229.00 L195.52 224.82 Z M186.17 229.00 L152.84 242.56 L195.52 224.82 Z M186.17 229.00 L167.36 240.40 L152.84 242.56 Z M167.36 240.40 L164.96 246.73 L152.84 242.56 Z M167.36 240.40 L191.95 234.75 L164.96 246.73 Z M191.95 234.75 L195.69 236.01 L164.96 246.73 Z M191.95 234.75 L207.32 228.81 L195.69 236.01 Z M207.32 228.81 L206.85 231.49 L195.69 236.01 Z M207.32 228.81 L209.57 229.62 L206.85 231.49 Z M209.57 229.62 L207.72 234.38 L206.85 231.49 Z M209.57 229.62 L212.36 229.70 L207.72 234.38 Z M212.36 229.70 L208.13 239.48 L207.72 234.38 Z M212.36 229.70 L214.64 230.31 L208.13 239.48 Z M214.64 230.31 L210.26 245.16 L208.13 239.48 Z M214.64 230.31 L216.21 234.35 L210.26 245.16 Z M216.21 234.35 L215.26 247.31 L210.26 245.16 Z M216.21 234.35 L219.95 236.41 L215.26 247.31 Z M219.95 236.41 L221.09 243.64 L215.26 247.31 Z M219.95 236.41 L224.10 234.62 L221.09 243.64 Z M224.10 234.62 L225.32 238.58 L221.09 243.64 Z M224.10 234.62 L228.80 234.41 L225.32 238.58 Z M228.80 234.41 L230.44 238.37 L225.32 238.58 Z M228.80 234.41 L238.64 238.16 L230.44 238.37 Z M238.64 238.16 L239.75 241.30 L230.44 238.37 Z M238.64 238.16 L250.29 238.84 L239.75 241.30 Z M250.29 238.84 L253.80 243.56 L239.75 241.30 Z M250.29 238.84 L250.25 231.88 L253.80 243.56 Z M250.25 231.88 L257.50 236.51 L253.80 243.56 Z M250.25 231.88 L247.58 226.14 L257.50 236.51 Z M247.58 226.14 L249.70 227.29 L257.50 236.51 Z M247.58 226.14 L254.19 222.87 L249.70 227.29 Z M254.19 222.87 L254.19 222.87 L249.70 227.29 Z M318.08 216.30 L337.43 212.95 L254.19 222.87 Z M318.08 216.30 L380.31 195.63 L337.43 212.95 Z M380.31 195.63 L402.61 184.01 L337.43 212.95 Z M380.31 195.63 L394.13 173.64 L402.61 184.01 Z M394.13 173.64 L351.29 175.89 L402.61 184.01 Z M394.13 173.64 L339.57 173.64 L351.29 175.89 Z M339.57 173.64 L245.88 207.43 L351.29 175.89 Z M339.57 173.64 L257.74 200.16 L245.88 207.43 Z M257.74 200.16 L281.06 179.80 L245.88 207.43 Z M257.74 200.16 L246.91 201.30 L281.06 179.80 Z M246.91 201.30 L258.56 186.30 L281.06 179.80 Z M246.91 201.30 L266.18 177.40 L258.56 186.30 Z M266.18 177.40 L229.36 209.04 L258.56 186.30 Z M266.18 177.40 L257.83 171.93 L229.36 209.04 Z M257.83 171.93 L228.86 205.46 L229.36 209.04 Z M257.83 171.93 L245.55 170.87 L228.86 205.46 Z M245.55 170.87 L229.23 196.16 L228.86 205.46 Z M229.23 196.16 L224.37 194.81 L223.20 208.89 Z M224.37 194.81 L221.27 207.22 L223.20 208.89 Z M224.37 194.81 L219.11 200.84 L221.27 207.22 Z M219.11 200.84 L219.10 210.53 L221.27 207.22 Z M219.11 200.84 L216.24 206.89 L219.10 210.53 Z M216.24 206.89 L217.13 210.69 L219.10 210.53 Z M216.24 206.89 L212.40 206.63 L217.13 210.69 Z M212.40 206.63 L208.52 199.49 L217.13 210.69 Z M212.40 206.63 L195.89 193.98 L208.52 199.49 Z M195.89 193.98 L205.57 203.64 L208.52 199.49 Z M195.89 193.98 L188.09 197.75 L205.57 203.64 Z M188.09 197.75 L189.31 197.13 L205.57 203.64 Z M188.09 197.75 L181.78 203.17 L189.31 197.13 Z M181.78 203.17 L210.61 215.55 L189.31 197.13 Z M181.78 203.17 L52.22 178.82 L210.61 215.55 Z M52.22 178.82 L69.12 180.34 L210.61 215.55 Z M52.22 178.82 L66.88 207.14 L69.12 180.34 Z M66.88 207.14 L66.88 207.14 L69.12 180.34 Z M210.64 220.56 L204.17 221.24 L66.88 207.14 Z M210.64 220.56 L195.52 224.82 L204.17 221.24 Z M195.52 224.82 L189.08 227.29 L204.17 221.24 Z M195.52 224.82 L152.84 242.56 L189.08 227.29 Z M152.84 242.56 L143.37 250.49 L189.08 227.29 Z M152.84 242.56 L164.96 246.73 L143.37 250.49 Z M164.96 246.73 L176.10 245.28 L143.37 250.49 Z M164.96 246.73 L195.69 236.01 L176.10 245.28 Z M195.69 236.01 L187.10 245.83 L176.10 245.28 Z M195.69 236.01 L206.85 231.49 L187.10 245.83 Z M206.85 231.49 L196.85 244.38 L187.10 245.83 Z M206.85 231.49 L207.72 234.38 L196.85 244.38 Z M207.72 234.38 L203.90 243.10 L196.85 244.38 Z M207.72 234.38 L208.13 239.48 L203.90 243.10 Z M208.13 239.48 L209.99 240.73 L203.90 243.10 Z M208.13 239.48 L210.26 245.16 L209.99 240.73 Z M210.26 245.16 L214.22 240.05 L209.99 240.73 Z M210.26 245.16 L215.26 247.31 L214.22 240.05 Z M215.26 247.31 L218.23 237.70 L214.22 240.05 Z M215.26 247.31 L221.09 243.64 L218.23 237.70 Z M221.09 243.64 L221.41 234.93 L218.23 237.70 Z M221.09 243.64 L225.32 238.58 L221.41 234.93 Z M225.32 238.58 L225.32 237.25 L221.41 234.93 Z M225.32 238.58 L230.44 238.37 L225.32 237.25 Z M230.44 238.37 L231.49 240.52 L225.32 237.25 Z M230.44 238.37 L239.75 241.30 L231.49 240.52 Z M239.75 241.30 L242.27 245.25 L231.49 240.52 Z M239.75 241.30 L253.80 243.56 L242.27 245.25 Z M253.80 243.56 L254.65 245.83 L242.27 245.25 Z M253.80 243.56 L257.50 236.51 L254.65 245.83 Z M257.50 236.51 L263.91 240.82 L254.65 245.83 Z M257.50 236.51 L249.70 227.29 L263.91 240.82 Z M249.70 227.29 L251.00 228.15 L263.91 240.82 Z M249.70 227.29 L254.19 222.87 L251.00 228.15 Z M254.19 222.87 L254.19 222.87 L251.00 228.15 Z M337.43 212.95 L353.15 209.55 L254.19 222.87 Z M337.43 212.95 L402.61 184.01 L353.15 209.55 Z M402.61 184.01 L401.44 177.21 L353.15 209.55 Z M402.61 184.01 L351.29 175.89 L401.44 177.21 Z M351.29 175.89 L272.72 199.02 L401.44 177.21 Z M351.29 175.89 L245.88 207.43 L272.72 199.02 Z M245.88 207.43 L287.51 181.12 L272.72 199.02 Z M245.88 207.43 L281.06 179.80 L287.51 181.12 Z M281.06 179.80 L240.66 203.78 L287.51 181.12 Z M281.06 179.80 L258.56 186.30 L240.66 203.78 Z M258.56 186.30 L246.21 192.39 L240.66 203.78 Z M258.56 186.30 L229.36 209.04 L246.21 192.39 Z M229.36 209.04 L234.55 199.13 L246.21 192.39 Z M229.36 209.04 L228.86 205.46 L234.55 199.13 Z M228.86 205.46 L222.51 214.79 L234.55 199.13 Z M228.86 205.46 L229.23 196.16 L222.51 214.79 Z M229.23 196.16 L223.20 208.89 L222.51 214.79 Z M223.20 208.89 L221.27 207.22 L222.26 209.09 Z M221.27 207.22 L220.38 208.81 L222.26 209.09 Z M221.27 207.22 L219.10 210.53 L220.38 208.81 Z M219.10 210.53 L219.70 217.91 L220.38 208.81 Z M219.10 210.53 L217.13 210.69 L219.70 217.91 Z M217.13 210.69 L216.32 209.24 L219.70 217.91 Z M217.13 210.69 L208.52 199.49 L216.32 209.24 Z M208.52 199.49 L215.92 212.90 L216.32 209.24 Z M208.52 199.49 L205.57 203.64 L215.92 212.90 Z M205.57 203.64 L200.32 197.49 L215.92 212.90 Z M205.57 203.64 L189.31 197.13 L200.32 197.49 Z M189.31 197.13 L199.68 204.42 L200.32 197.49 Z M189.31 197.13 L210.61 215.55 L199.68 204.42 Z M210.61 215.55 L189.20 204.80 L199.68 204.42 Z M210.61 215.55 L69.12 180.34 L189.20 204.80 Z M69.12 180.34 L87.11 183.56 L189.20 204.80 Z M69.12 180.34 L66.88 207.14 L87.11 183.56 Z M66.88 207.14 L66.88 207.14 L87.11 183.56 Z M204.17 221.24 L194.89 222.32 L66.88 207.14 Z M204.17 221.24 L189.08 227.29 L194.89 222.32 Z M189.08 227.29 L173.08 232.53 L194.89 222.32 Z M189.08 227.29 L143.37 250.49 L173.08 232.53 Z M143.37 250.49 L152.17 250.55 L173.08 232.53 Z M143.37 250.49 L176.10 245.28 L152.17 250.55 Z M176.10 245.28 L179.53 246.56 L152.17 250.55 Z M176.10 245.28 L187.10 245.83 L179.53 246.56 Z M187.10 245.83 L184.55 252.07 L179.53 246.56 Z M187.10 245.83 L196.85 244.38 L184.55 252.07 Z M196.85 244.38 L194.58 251.34 L184.55 252.07 Z M196.85 244.38 L203.90 243.10 L194.58 251.34 Z M203.90 243.10 L200.34 253.84 L194.58 251.34 Z M203.90 243.10 L209.99 240.73 L200.34 253.84 Z M209.99 240.73 L203.84 261.92 L200.34 253.84 Z M209.99 240.73 L214.22 240.05 L203.84 261.92 Z M214.22 240.05 L210.17 267.49 L203.84 261.92 Z M214.22 240.05 L218.23 237.70 L210.17 267.49 Z M218.23 237.70 L218.45 265.84 L210.17 267.49 Z M218.23 237.70 L221.41 234.93 L218.45 265.84 Z M221.41 234.93 L225.67 259.09 L218.45 265.84 Z M221.41 234.93 L225.32 237.25 L225.67 259.09 Z M225.32 237.25 L230.71 251.31 L225.67 259.09 Z M225.32 237.25 L231.49 240.52 L230.71 251.31 Z M231.49 240.52 L235.46 246.87 L230.71 251.31 Z M231.49 240.52 L242.27 245.25 L235.46 246.87 Z M242.27 245.25 L243.57 246.95 L235.46 246.87 Z M242.27 245.25 L254.65 245.83 L243.57 246.95 Z M254.65 245.83 L256.99 248.38 L243.57 246.95 Z M254.65 245.83 L263.91 240.82 L256.99 248.38 Z M263.91 240.82 L267.21 243.30 L256.99 248.38 Z M263.91 240.82 L251.00 228.15 L267.21 243.30 Z M251.00 228.15 L252.32 228.86 L267.21 243.30 Z M251.00 228.15 L254.19 222.87 L252.32 228.86 Z M254.19 222.87 L254.19 222.87 L252.32 228.86 Z M353.15 209.55 L364.70 206.61 L254.19 222.87 Z M353.15 209.55 L401.44 177.21 L364.70 206.61 Z M401.44 177.21 L380.85 177.05 L364.70 206.61 Z M401.44 177.21 L272.72 199.02 L380.85 177.05 Z M272.72 199.02 L264.74 199.85 L380.85 177.05 Z M272.72 199.02 L287.51 181.12 L264.74 199.85 Z M287.51 181.12 L263.34 191.56 L264.74 199.85 Z M287.51 181.12 L240.66 203.78 L263.34 191.56 Z M240.66 203.78 L251.49 191.51 L263.34 191.56 Z M240.66 203.78 L246.21 192.39 L251.49 191.51 Z M246.21 192.39 L230.36 207.22 L251.49 191.51 Z M246.21 192.39 L234.55 199.13 L230.36 207.22 Z M234.55 199.13 L232.37 198.71 L230.36 207.22 Z M234.55 199.13 L222.51 214.79 L232.37 198.71 Z M222.51 214.79 L224.65 207.93 L232.37 198.71 Z M222.51 214.79 L223.20 208.89 L224.65 207.93 Z M223.20 208.89 L222.26 209.09 L224.65 207.93 Z M222.26 209.09 L220.38 208.81 L223.07 197.33 Z M220.38 208.81 L219.51 203.41 L223.07 197.33 Z M220.38 208.81 L219.70 217.91 L219.51 203.41 Z M219.70 217.91 L216.84 204.16 L219.51 203.41 Z M219.70 217.91 L216.32 209.24 L216.84 204.16 Z M216.32 209.24 L217.15 212.66 L216.84 204.16 Z M216.32 209.24 L215.92 212.90 L217.15 212.66 Z M215.92 212.90 L212.98 208.50 L217.15 212.66 Z M215.92 212.90 L200.32 197.49 L212.98 208.50 Z M200.32 197.49 L205.50 203.83 L212.98 208.50 Z M200.32 197.49 L199.68 204.42 L205.50 203.83 Z M199.68 204.42 L195.07 200.94 L205.50 203.83 Z M199.68 204.42 L189.20 204.80 L195.07 200.94 Z M189.20 204.80 L180.20 200.14 L195.07 200.94 Z M189.20 204.80 L87.11 183.56 L180.20 200.14 Z M87.11 183.56 L102.05 187.04 L180.20 200.14 Z M87.11 183.56 L66.88 207.14 L102.05 187.04 Z M66.88 207.14 L66.88 207.14 L102.05 187.04 Z M194.89 222.32 L190.47 223.00 L66.88 207.14 Z M194.89 222.32 L173.08 232.53 L190.47 223.00 Z M173.08 232.53 L162.03 236.78 L190.47 223.00 Z M173.08 232.53 L152.17 250.55 L162.03 236.78 Z M152.17 250.55 L162.68 248.17 L162.03 236.78 Z M152.17 250.55 L179.53 246.56 L162.68 248.17 Z M179.53 246.56 L176.76 251.32 L162.68 248.17 Z M179.53 246.56 L184.55 252.07 L176.76 251.32 Z M184.55 252.07 L183.36 257.15 L176.76 251.32 Z M184.55 252.07 L194.58 251.34 L183.36 257.15 Z M194.58 251.34 L189.33 263.31 L183.36 257.15 Z M194.58 251.34 L200.34 253.84 L189.33 263.31 Z M200.34 253.84 L192.62 275.85 L189.33 263.31 Z M200.34 253.84 L203.84 261.92 L192.62 275.85 Z M203.84 261.92 L199.32 287.86 L192.62 275.85 Z M203.84 261.92 L210.17 267.49 L199.32 287.86 Z M210.17 267.49 L210.33 291.38 L199.32 287.86 Z M210.17 267.49 L218.45 265.84 L210.33 291.38 Z M218.45 265.84 L222.05 289.77 L210.33 291.38 Z M218.45 265.84 L225.67 259.09 L222.05 289.77 Z M225.67 259.09 L232.39 282.03 L222.05 289.77 Z M225.67 259.09 L230.71 251.31 L232.39 282.03 Z M230.71 251.31 L238.53 267.80 L232.39 282.03 Z M230.71 251.31 L235.46 246.87 L238.53 267.80 Z M235.46 246.87 L241.79 255.72 L238.53 267.80 Z M235.46 246.87 L243.57 246.95 L241.79 255.72 Z M243.57 246.95 L246.83 249.93 L241.79 255.72 Z M243.57 246.95 L256.99 248.38 L246.83 249.93 Z M256.99 248.38 L259.51 250.20 L246.83 249.93 Z M256.99 248.38 L267.21 243.30 L259.51 250.20 Z M267.21 243.30 L268.70 244.30 L259.51 250.20 Z M267.21 243.30 L252.32 228.86 L268.70 244.30 Z M252.32 228.86 L253.87 229.46 L268.70 244.30 Z M252.32 228.86 L254.19 222.87 L253.87 229.46 Z M254.19 222.87 L254.19 222.87 L253.87 229.46 Z M364.70 206.61 L371.96 204.55 L254.19 222.87 Z M364.70 206.61 L380.85 177.05 L371.96 204.55 Z M380.85 177.05 L353.84 181.26 L371.96 204.55 Z M380.85 177.05 L264.74 199.85 L353.84 181.26 Z M264.74 199.85 L288.96 186.11 L353.84 181.26 Z M264.74 199.85 L263.34 191.56 L288.96 186.11 Z M263.34 191.56 L230.14 212.66 L288.96 186.11 Z M263.34 191.56 L251.49 191.51 L230.14 212.66 Z M251.49 191.51 L247.16 192.47 L230.14 212.66 Z M251.49 191.51 L230.36 207.22 L247.16 192.47 Z M230.36 207.22 L231.30 204.04 L247.16 192.47 Z M230.36 207.22 L232.37 198.71 L231.30 204.04 Z M232.37 198.71 L221.68 216.57 L231.30 204.04 Z M232.37 198.71 L224.65 207.93 L221.68 216.57 Z M224.65 207.93 L227.43 195.61 L221.68 216.57 Z M224.65 207.93 L222.26 209.09 L227.43 195.61 Z M222.26 209.09 L223.07 197.33 L227.43 195.61 Z M223.07 197.33 L219.51 203.41 L220.72 209.33 Z M219.51 203.41 L219.12 210.58 L220.72 209.33 Z M219.51 203.41 L216.84 204.16 L219.12 210.58 Z M216.84 204.16 L217.98 212.25 L219.12 210.58 Z M216.84 204.16 L217.15 212.66 L217.98 212.25 Z M217.15 212.66 L216.97 213.21 L217.98 212.25 Z M217.15 212.66 L212.98 208.50 L216.97 213.21 Z M212.98 208.50 L211.27 206.85 L216.97 213.21 Z M212.98 208.50 L205.50 203.83 L211.27 206.85 Z M205.50 203.83 L210.54 210.00 L211.27 206.85 Z M205.50 203.83 L195.07 200.94 L210.54 210.00 Z M195.07 200.94 L189.22 197.21 L210.54 210.00 Z M195.07 200.94 L180.20 200.14 L189.22 197.21 Z M180.20 200.14 L177.22 198.99 L189.22 197.21 Z M180.20 200.14 L102.05 187.04 L177.22 198.99 Z M102.05 187.04 L111.36 189.75 L177.22 198.99 Z M102.05 187.04 L66.88 207.14 L111.36 189.75 Z M66.88 207.14 L66.88 207.14 L111.36 189.75 Z M190.47 223.00 L188.99 223.27 L66.88 207.14 Z M190.47 223.00 L162.03 236.78 L188.99 223.27 Z M162.03 236.78 L157.06 239.00 L188.99 223.27 Z M162.03 236.78 L162.68 248.17 L157.06 239.00 Z M162.68 248.17 L168.06 246.95 L157.06 239.00 Z M162.68 248.17 L176.76 251.32 L168.06 246.95 Z M176.76 251.32 L172.15 257.15 L168.06 246.95 Z M176.76 251.32 L183.36 257.15 L172.15 257.15 Z M183.36 257.15 L177.90 266.69 L172.15 257.15 Z M183.36 257.15 L189.33 263.31 L177.90 266.69 Z M189.33 263.31 L184.53 276.36 L177.90 266.69 Z M189.33 263.31 L192.62 275.85 L184.53 276.36 Z M192.62 275.85 L191.04 289.65 L184.53 276.36 Z M192.62 275.85 L199.32 287.86 L191.04 289.65 Z M199.32 287.86 L202.36 295.40 L191.04 289.65 Z M199.32 287.86 L210.33 291.38 L202.36 295.40 Z M210.33 291.38 L215.13 291.85 L202.36 295.40 Z M210.33 291.38 L222.05 289.77 L215.13 291.85 Z M222.05 289.77 L226.47 289.00 L215.13 291.85 Z M222.05 289.77 L232.39 282.03 L226.47 289.00 Z M232.39 282.03 L236.73 284.09 L226.47 289.00 Z M232.39 282.03 L238.53 267.80 L236.73 284.09 Z M238.53 267.80 L243.23 272.12 L236.73 284.09 Z M238.53 267.80 L241.79 255.72 L243.23 272.12 Z M241.79 255.72 L247.10 260.81 L243.23 272.12 Z M241.79 255.72 L246.83 249.93 L247.10 260.81 Z M246.83 249.93 L252.00 253.84 L247.10 260.81 Z M246.83 249.93 L259.51 250.20 L252.00 253.84 Z M259.51 250.20 L262.18 251.23 L252.00 253.84 Z M259.51 250.20 L268.70 244.30 L262.18 251.23 Z M268.70 244.30 L269.85 244.48 L262.18 251.23 Z M268.70 244.30 L253.87 229.46 L269.85 244.48 Z M253.87 229.46 L255.29 229.83 L269.85 244.48 Z M253.87 229.46 L254.19 222.87 L255.29 229.83 Z M254.19 222.87 L254.19 222.87 L255.29 229.83 Z M371.96 204.55 L375.19 203.63 L254.19 222.87 Z M371.96 204.55 L353.84 181.26 L375.19 203.63 Z M353.84 181.26 L332.44 186.05 L375.19 203.63 Z M353.84 181.26 L288.96 186.11 L332.44 186.05 Z M288.96 186.11 L293.12 182.06 L332.44 186.05 Z M288.96 186.11 L230.14 212.66 L293.12 182.06 Z M230.14 212.66 L242.54 202.50 L293.12 182.06 Z M230.14 212.66 L247.16 192.47 L242.54 202.50 Z M247.16 192.47 L230.58 208.27 L242.54 202.50 Z M247.16 192.47 L231.30 204.04 L230.58 208.27 Z M231.30 204.04 L231.20 202.21 L230.58 208.27 Z M231.30 204.04 L221.68 216.57 L231.20 202.21 Z M221.68 216.57 L223.21 212.27 L231.20 202.21 Z M221.68 216.57 L227.43 195.61 L223.21 212.27 Z M227.43 195.61 L220.64 217.28 L223.21 212.27 Z M227.43 195.61 L223.07 197.33 L220.64 217.28 Z M223.07 197.33 L220.72 209.33 L220.64 217.28 Z M220.72 209.33 L219.12 210.58 L220.00 211.26 Z M219.12 210.58 L218.88 213.15 L220.00 211.26 Z M219.12 210.58 L217.98 212.25 L218.88 213.15 Z M217.98 212.25 L216.92 210.73 L218.88 213.15 Z M217.98 212.25 L216.97 213.21 L216.92 210.73 Z M216.97 213.21 L216.61 213.46 L216.92 210.73 Z M216.97 213.21 L211.27 206.85 L216.61 213.46 Z M211.27 206.85 L210.91 207.70 L216.61 213.46 Z M211.27 206.85 L210.54 210.00 L210.91 207.70 Z M210.54 210.00 L211.10 211.30 L210.91 207.70 Z M210.54 210.00 L189.22 197.21 L211.10 211.30 Z M189.22 197.21 L186.73 196.76 L211.10 211.30 Z M189.22 197.21 L177.22 198.99 L186.73 196.76 Z M177.22 198.99 L175.28 198.93 L186.73 196.76 Z M177.22 198.99 L111.36 189.75 L175.28 198.93 Z M111.36 189.75 L113.62 191.11 L175.28 198.93 Z M111.36 189.75 L66.88 207.14 L113.62 191.11 Z M66.88 207.14 L66.88 207.14 L113.62 191.11 Z M188.99 223.27 L188.97 223.22 L66.88 207.14 Z M188.99 223.27 L157.06 239.00 L188.97 223.22 Z M157.06 239.00 L156.55 239.24 L188.97 223.22 Z M157.06 239.00 L168.06 246.95 L156.55 239.24 Z M168.06 246.95 L169.53 246.77 L156.55 239.24 Z M168.06 246.95 L172.15 257.15 L169.53 246.77 Z M172.15 257.15 L170.57 259.98 L169.53 246.77 Z M172.15 257.15 L177.90 266.69 L170.57 259.98 Z M177.90 266.69 L177.63 270.18 L170.57 259.98 Z M177.90 266.69 L184.53 276.36 L177.63 270.18 Z M184.53 276.36 L185.58 280.53 L177.63 270.18 Z M184.53 276.36 L191.04 289.65 L185.58 280.53 Z M191.04 289.65 L192.38 298.43 L185.58 280.53 Z M191.04 289.65 L202.36 295.40 L192.38 298.43 Z M202.36 295.40 L204.68 311.15 L192.38 298.43 Z M202.36 295.40 L215.13 291.85 L204.68 311.15 Z M215.13 291.85 L220.00 310.58 L204.68 311.15 Z M215.13 291.85 L226.47 289.00 L220.00 310.58 Z M226.47 289.00 L233.41 302.05 L220.00 310.58 Z M226.47 289.00 L236.73 284.09 L233.41 302.05 Z M236.73 284.09 L242.99 289.14 L233.41 302.05 Z M236.73 284.09 L243.23 272.12 L242.99 289.14 Z M243.23 272.12 L247.89 273.75 L242.99 289.14 Z M243.23 272.12 L247.10 260.81 L247.89 273.75 Z M247.10 260.81 L252.19 263.52 L247.89 273.75 Z M247.10 260.81 L252.00 253.84 L252.19 263.52 Z M252.00 253.84 L257.97 257.09 L252.19 263.52 Z M252.00 253.84 L262.18 251.23 L257.97 257.09 Z M262.18 251.23 L265.55 251.81 L257.97 257.09 Z M262.18 251.23 L269.85 244.48 L265.55 251.81 Z M269.85 244.48 L271.19 244.13 L265.55 251.81 Z M269.85 244.48 L255.29 229.83 L271.19 244.13 Z M255.29 229.83 L256.26 229.85 L271.19 244.13 Z M255.29 229.83 L254.19 222.87 L256.26 229.85 Z M254.19 222.87 L254.19 222.87 L256.26 229.85 Z M375.19 203.63 L374.83 203.95 L254.19 222.87 Z M375.19 203.63 L332.44 186.05 L374.83 203.95 Z M332.44 186.05 L322.70 188.85 L374.83 203.95 Z M332.44 186.05 L293.12 182.06 L322.70 188.85 Z M293.12 182.06 L289.92 182.92 L322.70 188.85 Z M293.12 182.06 L242.54 202.50 L289.92 182.92 Z M242.54 202.50 L246.96 198.19 L289.92 182.92 Z M242.54 202.50 L230.58 208.27 L246.96 198.19 Z M230.58 208.27 L224.84 214.27 L246.96 198.19 Z M230.58 208.27 L231.20 202.21 L224.84 214.27 Z M231.20 202.21 L228.34 205.34 L224.84 214.27 Z M231.20 202.21 L223.21 212.27 L228.34 205.34 Z M223.21 212.27 L222.08 214.10 L228.34 205.34 Z M223.21 212.27 L220.64 217.28 L222.08 214.10 Z M220.64 217.28 L221.24 212.60 L222.08 214.10 Z M220.64 217.28 L220.72 209.33 L221.24 212.60 Z M220.72 209.33 L220.00 211.26 L221.24 212.60 Z "></path></svg>