<svg xmlns="http://www.w3.org/2000/svg" id="svg1" width="440" height="440" font-family="Times" font-size="14" oncopy="svg_copy(this);">
      <g id="gt" transform="translate(0,20)">
      </g>
   <path id="Xp" stroke="red" stroke-width="0.875" stroke-dasharray="1,0" fill="none" d="M220.00 260.00 L6704.27 804.65 Z "></path><path id="Xn" stroke="red" stroke-width="0.875" stroke-dasharray="2,4" fill="none" d="M220.00 260.00 L-6264.27 -284.65 Z "></path><path id="Yp" stroke="green" stroke-width="0.875" stroke-dasharray="1,0" fill="none" d="M220.00 260.00 L220.00 -6639.67 Z "></path><path id="Yn" stroke="green" stroke-width="0.875" stroke-dasharray="2,4" fill="none" d="M220.00 260.00 L220.00 7159.67 Z "></path><path id="Zp" stroke="blue" stroke-width="0.875" stroke-dasharray="1,0" fill="none" d="M220.00 260.00 L-2521.51 1548.23 Z "></path><path id="Zn" stroke="blue" stroke-width="0.875" stroke-dasharray="2,4" fill="none" d="M220.00 260.00 L2961.51 -1028.23 Z "></path><circle id="O" fill="black" stroke-width="1" stroke="none" r="4" cx="220" cy="260"><title>[0,0,0]</title></circle><circle id="lambda_0" fill="#FFAA33" stroke-width="1" stroke="none" r="4" cx="346.27261458835346" cy="270.60640032221363"><title>λ/2=0.0195</title></circle><path id="B11" stroke="black" stroke-width="0.5" stroke-dasharray="1,0" fill="none" d="M147.11 358.67 L40.34 408.84 L40.34 140.12 L147.11 89.95 Z M399.66 379.88 L292.89 430.05 L292.89 161.33 L399.66 111.16 Z M147.11 358.67 L399.66 379.88 Z M40.34 408.84 L292.89 430.05 Z M40.34 140.12 L292.89 161.33 Z M147.11 89.95 L399.66 111.16 Z Z "></path><path id="B1" stroke="black" stroke-width="0.5" stroke-dasharray="2,4" fill="none" d="M231.30 365.74 L124.52 415.91 L124.52 147.19 L231.30 97.02 Z M315.48 372.81 L208.70 422.98 L208.70 154.26 L315.48 104.09 Z M147.11 269.09 L40.34 319.27 L292.89 340.48 L399.66 290.31 Z M147.11 179.52 L40.34 229.69 L292.89 250.91 L399.66 200.73 Z M111.52 375.39 L111.52 106.67 L364.07 127.88 L364.07 396.61 Z M75.93 392.12 L75.93 123.39 L328.48 144.61 L328.48 413.33 Z "></path><path id="C1" stroke="green" stroke-width="1" stroke-dasharray="1,2" fill="none" d="M324.22 211.03 L324.21 206.46 L324.16 201.90 L324.08 197.37 L323.97 192.85 L323.83 188.35 L323.65 183.88 L323.45 179.42 L323.21 175.00 L322.94 170.60 L322.64 166.22 L322.31 161.88 L321.94 157.56 L321.55 153.28 L321.13 149.02 L320.67 144.81 L320.19 140.62 L319.67 136.48 L319.12 132.37 L318.54 128.30 L317.94 124.27 L317.30 120.28 L316.63 116.33 L315.94 112.43 L315.21 108.57 L314.46 104.76 L313.67 101.00 L312.86 97.28 L312.02 93.62 L311.15 90.00 L310.26 86.44 L309.34 82.93 L308.39 79.47 L307.41 76.07 L306.40 72.72 L305.37 69.43 L304.32 66.20 L303.24 63.03 L302.13 59.92 L301.00 56.87 L299.84 53.88 L298.66 50.95 L297.45 48.09 L296.22 45.29 L294.97 42.56 L293.70 39.90 L292.40 37.30 L291.08 34.76 L289.74 32.30 L288.38 29.91 L286.99 27.59 L285.59 25.33 L284.17 23.15 L282.72 21.04 L281.26 19.01 L279.78 17.05 L278.28 15.16 L276.76 13.34 L275.23 11.60 L273.68 9.94 L272.11 8.35 L270.53 6.84 L268.93 5.41 L267.32 4.05 L265.69 2.78 L264.05 1.58 L262.39 0.46 L260.72 -0.59 L259.04 -1.55 L257.35 -2.43 L255.65 -3.23 L253.93 -3.95 L252.21 -4.60 L250.47 -5.16 L248.73 -5.64 L246.97 -6.04 L245.21 -6.36 L243.44 -6.60 L241.67 -6.75 L239.89 -6.83 L238.10 -6.82 L236.30 -6.73 L234.50 -6.56 L232.70 -6.31 L230.89 -5.98 L229.08 -5.57 L227.27 -5.08 L225.45 -4.50 L223.64 -3.85 L221.82 -3.12 L220.00 -2.30 L218.18 -1.41 L216.36 -0.43 L214.55 0.62 L212.73 1.75 L210.92 2.97 L209.11 4.25 L207.30 5.62 L205.50 7.07 L203.70 8.59 L201.90 10.19 L200.11 11.86 L198.33 13.61 L196.56 15.44 L194.79 17.34 L193.03 19.31 L191.27 21.36 L189.53 23.48 L187.79 25.67 L186.07 27.93 L184.35 30.27 L182.65 32.67 L180.96 35.14 L179.28 37.69 L177.61 40.30 L175.95 42.97 L174.31 45.71 L172.68 48.52 L171.07 51.39 L169.47 54.33 L167.89 57.33 L166.32 60.39 L164.77 63.51 L163.24 66.69 L161.72 69.93 L160.22 73.23 L158.74 76.58 L157.28 79.99 L155.83 83.46 L154.41 86.97 L153.01 90.55 L151.62 94.17 L150.26 97.84 L148.92 101.57 L147.60 105.34 L146.30 109.15 L145.03 113.02 L143.78 116.93 L142.55 120.88 L141.34 124.88 L140.16 128.91 L139.00 132.99 L137.87 137.10 L136.76 141.26 L135.68 145.44 L134.63 149.67 L133.60 153.92 L132.59 158.21 L131.61 162.53 L130.66 166.88 L129.74 171.26 L128.85 175.67 L127.98 180.10 L127.14 184.55 L126.33 189.03 L125.54 193.53 L124.79 198.05 L124.06 202.59 L123.37 207.15 L122.70 211.72 L122.06 216.31 L121.46 220.91 L120.88 225.52 L120.33 230.14 L119.81 234.78 L119.33 239.42 L118.87 244.06 L118.45 248.71 L118.06 253.37 L117.69 258.02 L117.36 262.68 L117.06 267.34 L116.79 271.99 L116.55 276.64 L116.35 281.29 L116.17 285.93 L116.03 290.56 L115.92 295.18 L115.84 299.79 L115.79 304.39 L115.78 308.97 L115.79 313.54 L115.84 318.10 L115.92 322.63 L116.03 327.15 L116.17 331.65 L116.35 336.12 L116.55 340.58 L116.79 345.00 L117.06 349.40 L117.36 353.78 L117.69 358.12 L118.06 362.44 L118.45 366.72 L118.87 370.98 L119.33 375.19 L119.81 379.38 L120.33 383.52 L120.88 387.63 L121.46 391.70 L122.06 395.73 L122.70 399.72 L123.37 403.67 L124.06 407.57 L124.79 411.43 L125.54 415.24 L126.33 419.00 L127.14 422.72 L127.98 426.38 L128.85 430.00 L129.74 433.56 L130.66 437.07 L131.61 440.53 L132.59 443.93 L133.60 447.28 L134.63 450.57 L135.68 453.80 L136.76 456.97 L137.87 460.08 L139.00 463.13 L140.16 466.12 L141.34 469.05 L142.55 471.91 L143.78 474.71 L145.03 477.44 L146.30 480.10 L147.60 482.70 L148.92 485.24 L150.26 487.70 L151.62 490.09 L153.01 492.41 L154.41 494.67 L155.83 496.85 L157.28 498.96 L158.74 500.99 L160.22 502.95 L161.72 504.84 L163.24 506.66 L164.77 508.40 L166.32 510.06 L167.89 511.65 L169.47 513.16 L171.07 514.59 L172.68 515.95 L174.31 517.22 L175.95 518.42 L177.61 519.54 L179.28 520.59 L180.96 521.55 L182.65 522.43 L184.35 523.23 L186.07 523.95 L187.79 524.60 L189.53 525.16 L191.27 525.64 L193.03 526.04 L194.79 526.36 L196.56 526.60 L198.33 526.75 L200.11 526.83 L201.90 526.82 L203.70 526.73 L205.50 526.56 L207.30 526.31 L209.11 525.98 L210.92 525.57 L212.73 525.08 L214.55 524.50 L216.36 523.85 L218.18 523.12 L220.00 522.30 L221.82 521.41 L223.64 520.43 L225.45 519.38 L227.27 518.25 L229.08 517.03 L230.89 515.75 L232.70 514.38 L234.50 512.93 L236.30 511.41 L238.10 509.81 L239.89 508.14 L241.67 506.39 L243.44 504.56 L245.21 502.66 L246.97 500.69 L248.73 498.64 L250.47 496.52 L252.21 494.33 L253.93 492.07 L255.65 489.73 L257.35 487.33 L259.04 484.86 L260.72 482.31 L262.39 479.70 L264.05 477.03 L265.69 474.29 L267.32 471.48 L268.93 468.61 L270.53 465.67 L272.11 462.67 L273.68 459.61 L275.23 456.49 L276.76 453.31 L278.28 450.07 L279.78 446.77 L281.26 443.42 L282.72 440.01 L284.17 436.54 L285.59 433.03 L286.99 429.45 L288.38 425.83 L289.74 422.16 L291.08 418.43 L292.40 414.66 L293.70 410.85 L294.97 406.98 L296.22 403.07 L297.45 399.12 L298.66 395.12 L299.84 391.09 L301.00 387.01 L302.13 382.90 L303.24 378.74 L304.32 374.56 L305.37 370.33 L306.40 366.08 L307.41 361.79 L308.39 357.47 L309.34 353.12 L310.26 348.74 L311.15 344.33 L312.02 339.90 L312.86 335.45 L313.67 330.97 L314.46 326.47 L315.21 321.95 L315.94 317.41 L316.63 312.85 L317.30 308.28 L317.94 303.69 L318.54 299.09 L319.12 294.48 L319.67 289.86 L320.19 285.22 L320.67 280.58 L321.13 275.94 L321.55 271.29 L321.94 266.63 L322.31 261.98 L322.64 257.32 L322.94 252.66 L323.21 248.01 L323.45 243.36 L323.65 238.71 L323.83 234.07 L323.97 229.44 L324.08 224.82 L324.16 220.21 L324.21 215.61 Z "></path><path id="C1h" stroke="green" stroke-width="1" stroke-dasharray="1,2" fill="none" d="M466.51 280.71 L464.65 281.56 L462.72 282.40 L460.72 283.24 L458.64 284.07 L456.49 284.90 L454.26 285.71 L451.97 286.52 L449.61 287.32 L447.17 288.11 L444.67 288.90 L442.09 289.67 L439.45 290.44 L436.75 291.19 L433.97 291.94 L431.13 292.68 L428.23 293.40 L425.27 294.12 L422.24 294.83 L419.15 295.52 L416.00 296.21 L412.79 296.88 L409.52 297.54 L406.19 298.20 L402.81 298.84 L399.37 299.46 L395.87 300.08 L392.33 300.68 L388.73 301.27 L385.07 301.85 L381.37 302.42 L377.62 302.97 L373.82 303.51 L369.98 304.04 L366.08 304.55 L362.15 305.05 L358.17 305.54 L354.15 306.01 L350.09 306.47 L345.98 306.91 L341.84 307.34 L337.67 307.76 L333.45 308.16 L329.21 308.54 L324.92 308.91 L320.61 309.27 L316.27 309.61 L311.90 309.94 L307.49 310.25 L303.07 310.55 L298.61 310.83 L294.14 311.09 L289.64 311.34 L285.12 311.57 L280.58 311.79 L276.02 311.99 L271.44 312.18 L266.85 312.35 L262.24 312.50 L257.63 312.64 L253.00 312.77 L248.36 312.87 L243.71 312.96 L239.05 313.04 L234.39 313.09 L229.72 313.14 L225.05 313.16 L220.38 313.17 L215.71 313.16 L211.04 313.14 L206.37 313.10 L201.71 313.05 L197.05 312.98 L192.40 312.89 L187.76 312.78 L183.13 312.66 L178.51 312.53 L173.90 312.38 L169.31 312.21 L164.73 312.02 L160.17 311.83 L155.62 311.61 L151.10 311.38 L146.60 311.13 L142.12 310.87 L137.66 310.59 L133.23 310.30 L128.82 309.99 L124.44 309.67 L120.10 309.33 L115.78 308.97 L111.49 308.60 L107.24 308.22 L103.02 307.82 L98.84 307.41 L94.69 306.98 L90.58 306.54 L86.51 306.09 L82.48 305.62 L78.50 305.13 L74.56 304.63 L70.66 304.12 L66.80 303.60 L63.00 303.06 L59.24 302.51 L55.53 301.95 L51.87 301.37 L48.26 300.78 L44.70 300.18 L41.20 299.56 L37.75 298.94 L34.36 298.30 L31.02 297.65 L27.74 296.99 L24.52 296.32 L21.36 295.63 L18.26 294.94 L15.22 294.24 L12.25 293.52 L9.34 292.80 L6.49 292.06 L3.70 291.31 L0.98 290.56 L-1.67 289.80 L-4.25 289.02 L-6.77 288.24 L-9.21 287.45 L-11.59 286.65 L-13.89 285.84 L-16.13 285.03 L-18.29 284.21 L-20.38 283.38 L-22.40 282.54 L-24.34 281.70 L-26.21 280.85 L-28.00 279.99 L-29.72 279.13 L-31.36 278.26 L-32.93 277.38 L-34.42 276.50 L-35.83 275.62 L-37.16 274.73 L-38.42 273.83 L-39.59 272.94 L-40.69 272.03 L-41.71 271.13 L-42.65 270.22 L-43.50 269.31 L-44.28 268.39 L-44.98 267.48 L-45.59 266.56 L-46.13 265.63 L-46.58 264.71 L-46.96 263.78 L-47.25 262.86 L-47.46 261.93 L-47.59 261.00 L-47.64 260.08 L-47.60 259.15 L-47.49 258.22 L-47.29 257.29 L-47.01 256.37 L-46.65 255.44 L-46.21 254.52 L-45.69 253.60 L-45.08 252.68 L-44.40 251.76 L-43.64 250.84 L-42.79 249.93 L-41.87 249.02 L-40.86 248.11 L-39.78 247.21 L-38.62 246.31 L-37.37 245.42 L-36.05 244.53 L-34.65 243.64 L-33.18 242.76 L-31.63 241.89 L-30.00 241.02 L-28.29 240.15 L-26.51 239.29 L-24.65 238.44 L-22.72 237.60 L-20.72 236.76 L-18.64 235.93 L-16.49 235.10 L-14.26 234.29 L-11.97 233.48 L-9.61 232.68 L-7.17 231.89 L-4.67 231.10 L-2.09 230.33 L0.55 229.56 L3.25 228.81 L6.03 228.06 L8.87 227.32 L11.77 226.60 L14.73 225.88 L17.76 225.17 L20.85 224.48 L24.00 223.79 L27.21 223.12 L30.48 222.46 L33.81 221.80 L37.19 221.16 L40.63 220.54 L44.13 219.92 L47.67 219.32 L51.27 218.73 L54.93 218.15 L58.63 217.58 L62.38 217.03 L66.18 216.49 L70.02 215.96 L73.92 215.45 L77.85 214.95 L81.83 214.46 L85.85 213.99 L89.91 213.53 L94.02 213.09 L98.16 212.66 L102.33 212.24 L106.55 211.84 L110.79 211.46 L115.08 211.09 L119.39 210.73 L123.73 210.39 L128.10 210.06 L132.51 209.75 L136.93 209.45 L141.39 209.17 L145.86 208.91 L150.36 208.66 L154.88 208.43 L159.42 208.21 L163.98 208.01 L168.56 207.82 L173.15 207.65 L177.76 207.50 L182.37 207.36 L187.00 207.23 L191.64 207.13 L196.29 207.04 L200.95 206.96 L205.61 206.91 L210.28 206.86 L214.95 206.84 L219.62 206.83 L224.29 206.84 L228.96 206.86 L233.63 206.90 L238.29 206.95 L242.95 207.02 L247.60 207.11 L252.24 207.22 L256.87 207.34 L261.49 207.47 L266.10 207.62 L270.69 207.79 L275.27 207.98 L279.83 208.17 L284.38 208.39 L288.90 208.62 L293.40 208.87 L297.88 209.13 L302.34 209.41 L306.77 209.70 L311.18 210.01 L315.56 210.33 L319.90 210.67 L324.22 211.03 L328.51 211.40 L332.76 211.78 L336.98 212.18 L341.16 212.59 L345.31 213.02 L349.42 213.46 L353.49 213.91 L357.52 214.38 L361.50 214.87 L365.44 215.37 L369.34 215.88 L373.20 216.40 L377.00 216.94 L380.76 217.49 L384.47 218.05 L388.13 218.63 L391.74 219.22 L395.30 219.82 L398.80 220.44 L402.25 221.06 L405.64 221.70 L408.98 222.35 L412.26 223.01 L415.48 223.68 L418.64 224.37 L421.74 225.06 L424.78 225.76 L427.75 226.48 L430.66 227.20 L433.51 227.94 L436.30 228.69 L439.02 229.44 L441.67 230.20 L444.25 230.98 L446.77 231.76 L449.21 232.55 L451.59 233.35 L453.89 234.16 L456.13 234.97 L458.29 235.79 L460.38 236.62 L462.40 237.46 L464.34 238.30 L466.21 239.15 L468.00 240.01 L469.72 240.87 L471.36 241.74 L472.93 242.62 L474.42 243.50 L475.83 244.38 L477.16 245.27 L478.42 246.17 L479.59 247.06 L480.69 247.97 L481.71 248.87 L482.65 249.78 L483.50 250.69 L484.28 251.61 L484.98 252.52 L485.59 253.44 L486.13 254.37 L486.58 255.29 L486.96 256.22 L487.25 257.14 L487.46 258.07 L487.59 259.00 L487.64 259.92 L487.60 260.85 L487.49 261.78 L487.29 262.71 L487.01 263.63 L486.65 264.56 L486.21 265.48 L485.69 266.40 L485.08 267.32 L484.40 268.24 L483.64 269.16 L482.79 270.07 L481.87 270.98 L480.86 271.89 L479.78 272.79 L478.62 273.69 L477.37 274.58 L476.05 275.47 L474.65 276.36 L473.18 277.24 L471.63 278.11 L470.00 278.98 L468.29 279.85 Z "></path><path id="C2" stroke="green" stroke-width="1" stroke-dasharray="1,1" fill="none" d="M324.22 211.03 L321.10 212.50 Z M320.67 144.81 L317.65 148.26 Z M310.26 86.44 L307.55 91.64 Z M293.70 39.90 L291.49 46.50 Z M272.11 8.35 L270.55 15.90 Z M246.97 -6.04 L246.17 1.94 Z M220.00 -2.30 L220.00 5.57 Z M193.03 19.31 L193.83 26.53 Z M167.89 57.33 L169.45 63.41 Z M146.30 109.15 L148.51 113.68 Z M129.74 171.26 L132.45 173.92 Z M119.33 239.42 L122.35 240.03 Z M115.78 308.97 L118.90 307.50 Z M119.33 375.19 L122.35 371.74 Z M129.74 433.56 L132.45 428.36 Z M146.30 480.10 L148.51 473.50 Z M167.89 511.65 L169.45 504.10 Z M193.03 526.04 L193.83 518.06 Z M220.00 522.30 L220.00 514.43 Z M246.97 500.69 L246.17 493.47 Z M272.11 462.67 L270.55 456.59 Z M293.70 410.85 L291.49 406.32 Z M310.26 348.74 L307.55 346.08 Z M320.67 280.58 L317.65 279.97 Z "></path><path id="C2h" stroke="green" stroke-width="1" stroke-dasharray="1,1" fill="none" d="M466.51 280.71 L459.11 280.08 Z M431.13 292.68 L424.80 291.70 Z M381.37 302.42 L376.53 301.15 Z M320.61 309.27 L317.59 307.79 Z M253.00 312.77 L252.01 311.18 Z M183.13 312.66 L184.24 311.08 Z M115.78 308.97 L118.90 307.50 Z M55.53 301.95 L60.46 300.69 Z M6.49 292.06 L12.89 291.10 Z M-28.00 279.99 L-20.56 279.39 Z M-45.59 266.56 L-37.63 266.36 Z M-45.08 252.68 L-37.13 252.89 Z M-26.51 239.29 L-19.11 239.92 Z M8.87 227.32 L15.20 228.30 Z M58.63 217.58 L63.47 218.85 Z M119.39 210.73 L122.41 212.21 Z M187.00 207.23 L187.99 208.82 Z M256.87 207.34 L255.76 208.92 Z M324.22 211.03 L321.10 212.50 Z M384.47 218.05 L379.54 219.31 Z M433.51 227.94 L427.11 228.90 Z M468.00 240.01 L460.56 240.61 Z M485.59 253.44 L477.63 253.64 Z M485.08 267.32 L477.13 267.11 Z "></path><circle id="th_xy" fill="green" stroke-width="1" stroke="none" r="4" cx="115.77759271235209" cy="308.97381271034646"><title>θ=0 Φ=90</title></circle><path id="M" stroke="#0b22ae" stroke-width="0.5" stroke-dasharray="1,0" fill="none" d="M217.78 327.23 L216.11 323.03 L230.89 314.96 Z M290.58 356.59 L304.53 352.34 L295.64 340.61 Z M165.64 240.19 L187.64 253.65 L185.49 241.27 Z M246.43 349.22 L221.81 338.66 L226.94 351.49 Z M235.98 327.15 L235.34 338.65 L246.43 349.22 Z M195.90 309.25 L191.98 308.90 L195.52 299.01 Z M233.42 276.20 L233.02 265.13 L217.00 265.65 Z M171.06 202.29 L157.40 213.72 L179.04 214.84 Z M232.56 370.73 L240.86 367.79 L226.94 351.49 Z M225.07 283.08 L233.20 281.47 L231.26 300.53 Z M107.48 130.85 L112.18 133.03 L108.88 129.26 Z M263.19 338.73 L246.43 349.22 L251.08 347.18 Z M247.40 264.94 L250.57 273.33 L261.33 277.44 Z M233.02 283.07 L233.42 276.20 L217.00 265.65 Z M78.45 181.88 L83.60 189.30 L89.49 203.69 Z M78.45 181.88 L83.42 185.46 L83.60 189.30 Z M113.27 216.57 L128.37 233.64 L127.00 205.85 Z M178.35 267.74 L193.98 273.97 L187.64 253.65 Z M199.67 236.54 L185.49 241.27 L206.60 254.95 Z M121.78 132.15 L112.18 133.03 L130.09 135.27 Z M245.16 286.98 L238.14 305.87 L231.26 300.53 Z M216.26 357.22 L211.25 348.98 L225.08 345.54 Z M170.73 260.84 L167.13 273.76 L178.35 267.74 Z M177.71 302.55 L182.20 281.61 L195.52 299.01 Z M142.24 144.43 L130.09 135.27 L123.16 140.81 Z M80.83 160.30 L77.01 165.47 L79.63 150.43 Z M208.10 205.36 L214.85 214.50 L203.85 203.38 Z M264.91 261.05 L273.44 269.56 L262.72 259.27 Z M153.12 310.53 L156.41 314.11 L149.63 304.93 Z M155.76 275.35 L147.96 254.07 L143.05 271.13 Z M112.67 164.67 L102.90 150.32 L111.46 153.91 Z M197.58 356.29 L214.14 368.06 L203.79 362.17 Z M89.49 203.69 L91.20 205.39 L78.45 181.88 Z M136.16 265.61 L143.05 271.13 L147.96 254.07 Z M265.97 373.43 L257.02 367.80 L270.98 368.32 Z M112.54 145.42 L111.46 153.91 L102.90 150.32 Z M103.18 200.66 L113.15 212.21 L93.28 195.05 Z M174.56 336.07 L173.73 338.58 L167.85 331.27 Z M94.39 158.98 L87.46 153.06 L97.21 137.67 Z M215.72 315.25 L195.52 299.01 L222.93 305.77 Z M163.33 323.90 L161.70 316.99 L154.41 308.31 Z M233.46 301.04 L256.84 310.82 L236.81 295.80 Z M116.08 129.85 L114.83 141.88 L112.52 141.92 Z M111.08 227.61 L100.48 223.96 L111.15 240.93 Z M210.79 307.73 L194.90 290.43 L175.58 291.45 Z M225.08 345.54 L211.25 348.98 L212.50 341.89 Z M97.27 160.61 L93.09 173.63 L109.51 161.64 Z M248.51 327.47 L235.98 327.15 L246.43 349.22 Z M286.90 289.46 L302.23 300.65 L288.67 303.43 Z M173.23 247.06 L187.64 253.65 L165.64 240.19 Z M199.99 229.12 L185.13 226.54 L192.21 223.76 Z M94.39 158.98 L97.21 137.67 L102.90 150.32 Z M178.65 342.69 L173.73 338.58 L174.56 336.07 Z M227.60 226.08 L233.92 236.27 L237.81 238.78 Z M79.56 181.24 L75.51 168.74 L78.45 181.88 Z M188.64 225.28 L195.97 222.62 L186.08 216.42 Z M102.90 150.32 L106.62 143.67 L112.52 141.92 Z M306.35 337.35 L292.68 321.94 L283.97 321.85 Z M264.01 261.13 L267.56 266.72 L273.44 269.56 Z M306.35 337.35 L283.97 321.85 L283.87 331.93 Z M273.89 306.61 L277.45 331.71 L260.39 314.39 Z M136.16 265.61 L147.96 254.07 L134.30 255.86 Z M157.21 257.66 L161.33 242.63 L171.65 257.34 Z M108.68 216.94 L114.04 233.84 L110.82 228.09 Z M165.93 303.93 L172.91 318.07 L173.49 305.51 Z M218.83 227.59 L223.15 237.20 L200.86 217.60 Z M165.64 240.19 L145.19 234.88 L147.96 254.07 Z M170.76 332.43 L161.70 316.99 L163.33 323.90 Z M337.62 347.01 L346.03 342.47 L348.59 347.41 Z M102.66 218.78 L111.08 227.61 L113.27 216.57 Z M211.25 348.98 L216.26 357.22 L209.86 355.62 Z M228.55 344.94 L225.08 345.54 L212.50 341.89 Z M175.58 291.45 L165.93 303.93 L174.81 299.23 Z M153.12 310.53 L145.16 297.90 L151.44 305.65 Z M171.65 257.34 L161.33 242.63 L164.51 232.31 Z M230.61 368.56 L248.70 371.67 L238.31 373.01 Z M124.30 266.67 L120.44 261.22 L119.30 258.51 Z M195.97 222.62 L188.64 225.28 L206.45 233.46 Z M93.09 173.63 L79.92 163.96 L79.56 181.24 Z M173.49 305.51 L172.91 318.07 L174.81 299.23 Z M93.09 173.63 L97.27 160.61 L79.92 163.96 Z M248.70 371.67 L241.77 368.56 L244.30 365.62 Z M288.59 286.56 L301.79 298.14 L299.23 295.23 Z M187.64 253.65 L173.23 247.06 L168.20 255.31 Z M116.10 191.79 L115.67 179.14 L127.62 173.91 Z M315.82 385.04 L305.62 385.60 L305.80 384.36 Z M174.81 299.23 L187.61 299.90 L175.58 291.45 Z M247.40 264.94 L236.93 263.34 L233.02 265.13 Z M140.03 227.64 L132.93 204.04 L143.72 215.04 Z M223.41 260.60 L233.20 281.47 L212.65 276.02 Z M227.60 226.08 L247.22 247.89 L250.42 249.02 Z M208.69 332.32 L200.49 331.00 L216.11 323.03 Z M94.51 135.24 L112.18 133.03 L107.48 130.85 Z M102.90 150.32 L97.21 137.67 L109.53 133.68 Z M127.62 173.91 L132.93 204.04 L116.10 191.79 Z M158.36 197.92 L163.11 181.56 L155.06 176.26 Z M183.57 276.73 L178.35 267.74 L167.13 273.76 Z M290.26 286.26 L293.91 291.29 L273.44 269.56 Z M147.96 254.07 L155.76 275.35 L156.00 264.78 Z M206.45 233.46 L199.67 236.54 L206.60 254.95 Z M145.81 175.41 L132.98 159.98 L141.03 172.61 Z M281.00 377.12 L270.98 368.32 L283.65 370.66 Z M83.85 154.64 L99.87 153.08 L103.06 140.46 Z M171.65 257.34 L160.47 262.64 L157.21 257.66 Z M127.62 173.91 L115.67 179.14 L112.67 164.67 Z M209.86 355.62 L190.80 343.50 L211.25 348.98 Z M357.37 367.27 L351.53 374.68 L352.37 374.56 Z M250.42 249.02 L254.50 258.08 L267.56 266.72 Z M288.67 303.43 L287.29 311.67 L283.77 321.14 Z M136.86 179.71 L141.03 172.61 L132.98 159.98 Z M83.85 154.64 L79.33 153.73 L75.51 168.74 Z M165.64 240.19 L147.96 254.07 L156.81 250.94 Z M91.26 140.52 L86.69 141.65 L79.63 150.43 Z M284.15 383.10 L288.98 382.06 L305.80 384.36 Z M134.30 255.86 L147.96 254.07 L136.92 252.67 Z M255.80 375.25 L258.39 381.42 L262.63 373.77 Z M266.65 386.80 L291.08 389.31 L289.35 386.60 Z M233.42 276.20 L233.02 283.07 L251.26 284.13 Z M140.50 292.31 L131.32 275.68 L137.07 287.66 Z M273.89 306.61 L283.77 321.14 L277.45 331.71 Z M181.62 333.06 L171.00 328.18 L176.62 323.60 Z M233.02 283.07 L236.81 295.80 L256.84 310.82 Z M109.60 129.80 L108.88 129.26 L116.08 129.85 Z M241.68 238.69 L255.42 254.11 L246.08 246.81 Z M262.97 267.42 L249.21 259.27 L247.40 264.94 Z M233.02 283.07 L217.00 265.65 L210.48 273.42 Z M200.05 341.19 L190.80 343.50 L194.82 332.49 Z M297.86 382.46 L305.80 384.36 L288.98 382.06 Z M290.95 361.20 L289.27 360.93 L291.70 356.85 Z M283.87 331.93 L295.64 340.61 L306.35 337.35 Z M171.65 257.34 L164.51 232.31 L175.29 244.79 Z M251.08 347.18 L246.43 349.22 L256.00 359.22 Z M248.07 381.36 L258.39 381.42 L255.80 375.25 Z M297.86 382.46 L281.00 377.12 L305.80 384.36 Z M167.85 331.27 L173.73 338.58 L170.76 332.43 Z M236.69 273.49 L251.26 284.13 L250.57 273.33 Z M91.20 205.39 L100.48 223.96 L98.57 206.11 Z M337.62 347.01 L320.80 343.90 L327.93 337.76 Z M328.92 329.57 L324.51 335.52 L309.25 316.24 Z M248.51 327.47 L267.98 327.89 L248.35 312.00 Z M200.50 204.06 L194.74 194.83 L203.85 203.38 Z M167.65 303.29 L163.14 297.05 L177.71 302.55 Z M111.15 240.93 L100.48 223.96 L109.07 241.43 Z M288.59 286.56 L285.36 290.00 L303.02 303.49 Z M325.12 348.97 L316.77 354.13 L332.63 359.59 Z M318.15 337.06 L309.25 316.24 L324.51 335.52 Z M248.07 381.36 L242.63 380.73 L262.29 386.46 Z M189.06 192.38 L185.62 194.21 L191.07 199.01 Z M200.05 341.19 L211.25 348.98 L190.80 343.50 Z M224.34 298.20 L205.32 289.22 L210.79 307.73 Z M212.97 352.74 L210.42 360.80 L232.56 370.73 Z M200.86 217.60 L186.65 200.31 L200.50 204.06 Z M264.84 267.84 L272.11 271.88 L275.49 284.56 Z M340.18 337.63 L328.18 329.37 L337.16 341.31 Z M124.23 129.11 L121.78 132.15 L130.09 135.27 Z M257.32 253.71 L273.44 269.56 L264.91 261.05 Z M246.72 295.62 L251.49 292.04 L233.02 283.07 Z M302.28 378.23 L305.80 384.36 L296.69 378.26 Z M284.88 372.20 L262.63 373.77 L275.16 377.22 Z M183.03 329.14 L187.38 325.52 L172.91 318.07 Z M332.63 359.59 L338.37 366.36 L349.01 364.27 Z M93.28 195.05 L100.54 213.08 L93.82 201.36 Z M165.34 272.42 L160.47 262.64 L171.65 257.34 Z M351.53 374.68 L354.03 358.75 L349.01 364.27 Z M231.26 300.53 L224.68 317.93 L215.72 315.25 Z M273.44 269.56 L283.73 280.78 L277.61 275.77 Z M93.09 173.63 L85.57 184.10 L90.76 195.55 Z M346.63 378.04 L352.37 374.56 L351.53 374.68 Z M275.58 273.14 L267.56 266.72 L279.71 280.21 Z M119.02 158.98 L109.51 161.64 L108.34 170.76 Z M317.66 366.53 L292.80 368.95 L308.89 361.18 Z M78.45 181.88 L85.57 184.10 L79.56 181.24 Z M128.37 233.64 L141.64 222.82 L128.83 217.70 Z M150.94 279.11 L159.39 273.20 L158.39 277.53 Z M228.21 362.62 L230.61 368.56 L216.26 357.22 Z M94.51 213.26 L91.20 205.39 L89.49 203.69 Z M171.24 313.65 L163.05 310.93 L163.50 304.80 Z M223.01 308.36 L224.34 298.20 L219.17 312.72 Z M217.00 265.65 L206.60 254.95 L203.71 267.43 Z M266.65 386.80 L258.39 381.42 L259.93 385.69 Z M295.53 362.90 L292.80 368.95 L275.55 363.32 Z M107.48 130.85 L102.67 131.42 L94.51 135.24 Z M301.79 298.14 L288.59 286.56 L303.02 303.49 Z M203.35 286.87 L223.53 289.96 L215.81 293.41 Z M281.00 377.12 L283.65 370.66 L292.80 368.95 Z M75.51 168.74 L79.56 181.24 L79.92 163.96 Z M294.67 330.11 L296.68 313.85 L318.15 337.06 Z M145.19 234.88 L165.64 240.19 L166.50 232.44 Z M129.93 276.50 L137.07 287.66 L131.32 275.68 Z M141.64 222.82 L127.00 205.85 L128.83 217.70 Z M337.62 347.01 L337.00 335.95 L346.03 342.47 Z M177.14 334.29 L181.62 333.06 L174.56 336.07 Z M212.50 341.89 L211.25 348.98 L203.22 336.00 Z M147.64 158.69 L133.60 149.80 L132.98 159.98 Z M189.97 253.31 L175.29 244.79 L184.43 242.68 Z M127.56 166.59 L119.02 158.98 L121.64 173.60 Z M140.03 227.64 L152.27 218.97 L147.69 235.77 Z M205.67 355.42 L212.97 352.74 L208.49 337.16 Z M203.35 286.87 L211.10 283.29 L223.53 289.96 Z M141.64 222.82 L150.11 225.18 L145.29 205.84 Z M156.81 250.94 L147.96 254.07 L156.00 264.78 Z M177.35 182.14 L184.12 178.54 L186.65 200.31 Z M171.51 188.31 L158.36 197.92 L171.06 202.29 Z M159.43 317.52 L158.62 312.13 L167.85 331.27 Z M96.63 217.67 L94.51 213.26 L89.49 203.69 Z M171.24 313.65 L186.81 321.16 L176.62 323.60 Z M149.94 206.87 L150.11 225.18 L157.40 213.72 Z M152.39 294.11 L160.97 285.88 L147.17 294.22 Z M136.92 252.67 L147.96 254.07 L128.37 233.64 Z M323.46 374.28 L315.82 385.04 L305.80 384.36 Z M236.37 378.19 L242.63 380.73 L226.10 374.71 Z M164.19 167.89 L163.11 181.56 L171.51 188.31 Z M202.06 200.90 L190.49 185.50 L190.43 187.78 Z M178.65 342.69 L174.56 336.07 L181.81 343.04 Z M323.46 374.28 L305.80 384.36 L302.28 378.23 Z M226.10 374.71 L239.05 377.39 L236.37 378.19 Z M228.93 357.26 L225.08 345.54 L238.33 362.18 Z M160.47 262.64 L165.34 272.42 L157.21 257.66 Z M133.27 186.60 L129.18 192.85 L137.06 197.88 Z M183.03 329.14 L187.36 345.14 L189.14 339.23 Z M145.16 297.90 L158.62 312.13 L151.44 305.65 Z M212.50 341.89 L220.00 338.38 L228.55 344.94 Z M99.87 153.08 L97.27 160.61 L109.51 161.64 Z M270.69 309.26 L283.97 321.85 L292.68 321.94 Z M91.12 198.96 L89.49 203.69 L83.42 185.46 Z M103.26 188.07 L103.35 192.91 L97.83 185.10 Z M202.06 200.90 L199.19 201.24 L207.35 211.89 Z M217.03 365.59 L232.56 370.73 L210.42 360.80 Z M149.63 304.93 L147.17 294.22 L140.50 292.31 Z M81.56 178.01 L77.01 165.47 L80.83 160.30 Z M138.03 276.70 L131.27 264.66 L150.94 279.11 Z M131.32 275.68 L140.50 292.31 L147.17 294.22 Z M281.00 377.12 L265.97 373.43 L270.98 368.32 Z M198.21 357.55 L187.36 345.14 L189.90 351.08 Z M169.14 201.10 L152.18 179.18 L164.78 184.81 Z M171.00 328.18 L174.56 336.07 L167.85 331.27 Z M80.41 175.13 L77.01 165.47 L81.56 178.01 Z M216.50 244.54 L214.97 251.27 L221.32 251.27 Z M205.32 289.22 L175.58 291.45 L194.90 290.43 Z M280.50 385.80 L305.80 384.36 L298.79 388.71 Z M167.13 273.76 L175.58 291.45 L183.57 276.73 Z M223.53 289.96 L231.26 300.53 L222.93 305.77 Z M201.44 213.96 L207.35 211.89 L195.54 203.75 Z M205.67 355.42 L208.49 337.16 L193.91 333.30 Z M218.84 236.86 L216.50 244.54 L221.32 251.27 Z M315.96 310.59 L311.89 308.49 L314.69 311.88 Z M93.28 195.05 L93.82 201.36 L91.12 198.96 Z M142.66 282.70 L150.94 279.11 L149.82 281.19 Z M152.27 218.97 L140.03 227.64 L143.94 220.78 Z M152.61 141.96 L146.60 147.42 L147.68 144.77 Z M137.34 253.12 L146.46 267.31 L132.00 255.50 Z M91.20 205.39 L96.63 217.67 L100.48 223.96 Z M261.90 260.78 L262.72 259.27 L272.11 271.88 Z M147.69 235.77 L159.78 216.05 L164.51 232.31 Z M108.68 216.94 L126.32 225.29 L120.96 231.08 Z M233.92 236.27 L227.60 226.08 L223.98 226.27 Z M201.44 213.96 L205.64 220.30 L209.08 217.57 Z M283.64 380.71 L289.35 386.60 L284.88 372.20 Z M248.70 371.67 L265.97 373.43 L265.00 377.80 Z M241.68 238.69 L229.61 234.37 L230.33 226.46 Z M167.13 273.76 L157.23 273.80 L155.76 275.35 Z M312.39 307.28 L315.96 310.59 L322.70 316.68 Z M233.92 236.27 L222.09 228.09 L230.36 238.57 Z M223.41 260.60 L212.65 276.02 L203.92 267.57 Z M139.88 131.99 L142.83 136.95 L133.69 131.84 Z M120.32 255.48 L113.26 236.73 L111.15 240.93 Z M200.86 217.60 L214.85 214.50 L215.14 217.91 Z M99.99 172.49 L81.56 178.01 L87.95 170.13 Z M270.98 368.32 L257.02 367.80 L253.62 361.31 Z M100.48 223.96 L111.08 227.61 L102.66 218.78 Z M318.26 328.33 L319.60 333.20 L325.48 331.37 Z M248.07 381.36 L233.16 373.38 L233.90 376.87 Z M141.64 222.82 L137.06 197.88 L127.00 205.85 Z M163.11 181.56 L147.64 158.69 L155.06 176.26 Z M155.06 176.26 L147.64 158.69 L147.57 167.51 Z M357.37 367.27 L346.63 378.04 L355.81 361.93 Z M114.04 233.84 L108.68 216.94 L120.96 231.08 Z M158.77 170.15 L152.89 163.93 L168.21 169.53 Z M89.49 203.69 L93.82 201.36 L100.54 213.08 Z M328.18 329.37 L334.16 329.76 L325.97 324.23 Z M155.76 275.35 L160.97 285.88 L167.13 273.76 Z M302.23 300.65 L286.90 289.46 L293.91 291.29 Z M187.35 182.46 L182.25 179.36 L189.06 192.38 Z M208.69 332.32 L203.22 336.00 L200.49 331.00 Z M269.25 290.16 L269.95 302.19 L278.38 296.61 Z M268.97 346.75 L245.54 330.23 L264.39 337.29 Z M222.09 228.09 L218.84 236.86 L230.36 238.57 Z M140.75 149.24 L147.64 158.69 L152.96 154.64 Z M193.98 273.97 L178.35 267.74 L183.57 276.73 Z M147.69 235.77 L164.51 232.31 L161.33 242.63 Z M280.18 340.06 L268.97 346.75 L277.45 331.71 Z M351.53 374.68 L350.39 371.11 L347.01 374.58 Z M177.35 182.14 L168.21 169.53 L173.56 165.66 Z M94.39 158.98 L99.99 172.49 L87.95 170.13 Z M230.89 314.96 L231.26 300.53 L238.14 305.87 Z M288.67 303.43 L273.89 306.61 L281.47 297.35 Z M217.51 370.83 L212.07 366.82 L203.79 362.17 Z M150.69 185.56 L150.33 194.37 L158.36 197.92 Z M253.53 352.58 L263.13 360.91 L225.08 345.54 Z M328.92 329.57 L319.22 315.84 L322.70 316.68 Z M267.56 266.72 L270.80 275.59 L279.71 280.21 Z M238.31 373.01 L239.05 377.39 L224.08 372.19 Z M281.44 389.39 L266.65 386.80 L262.29 386.46 Z M349.54 357.62 L350.07 346.84 L355.81 361.93 Z M306.35 337.35 L315.45 346.85 L318.63 338.96 Z M284.63 320.57 L277.45 331.71 L283.77 321.14 Z M339.42 363.02 L355.81 361.93 L348.15 369.58 Z M246.72 295.62 L233.02 283.07 L256.84 310.82 Z M145.29 205.84 L137.06 197.88 L141.64 222.82 Z M237.43 267.14 L249.59 264.91 L242.07 282.63 Z M150.11 225.18 L141.64 222.82 L145.19 234.88 Z M107.48 130.85 L108.88 129.26 L102.67 131.42 Z M153.12 310.53 L151.44 305.65 L154.93 310.57 Z M299.23 295.23 L300.36 296.17 L288.59 286.56 Z M158.35 205.03 L169.14 201.10 L159.78 216.05 Z M113.31 249.48 L109.07 241.43 L103.77 229.23 Z M332.63 359.59 L349.01 364.27 L341.97 355.32 Z M280.18 340.06 L302.21 350.00 L291.70 356.85 Z M348.59 347.41 L346.03 342.47 L350.07 346.84 Z M199.99 229.12 L210.23 234.25 L185.13 226.54 Z M287.92 388.53 L298.49 390.78 L262.29 386.46 Z M323.46 374.28 L339.42 363.02 L335.66 373.10 Z M223.41 260.60 L229.61 234.37 L237.43 267.14 Z M245.16 286.98 L249.59 264.91 L252.97 279.59 Z M129.25 153.58 L152.89 163.93 L143.33 165.97 Z M341.30 380.83 L351.53 374.68 L347.01 374.58 Z M230.89 314.96 L216.11 323.03 L224.68 317.93 Z M303.02 303.49 L285.36 290.00 L296.22 299.57 Z M255.80 375.25 L240.86 367.79 L239.78 371.27 Z M127.56 166.59 L121.64 173.60 L136.86 179.71 Z M337.62 347.01 L348.59 347.41 L349.54 357.62 Z M132.00 255.50 L146.46 267.31 L150.94 279.11 Z M339.42 363.02 L349.54 357.62 L355.81 361.93 Z M166.82 316.54 L172.91 318.07 L165.93 303.93 Z M279.71 280.21 L270.80 275.59 L276.82 288.40 Z M221.11 368.93 L206.64 360.34 L222.27 368.28 Z M130.51 271.65 L119.30 258.51 L118.92 255.27 Z M197.89 267.06 L193.98 273.97 L203.71 267.43 Z M187.64 253.65 L197.89 267.06 L203.71 267.43 Z M290.26 286.26 L273.44 269.56 L288.59 286.56 Z M302.66 338.80 L294.67 330.11 L309.06 334.99 Z M296.68 313.85 L293.54 307.00 L309.25 316.24 Z M257.14 291.24 L270.69 309.26 L269.95 302.19 Z M202.54 260.47 L203.71 267.43 L206.60 254.95 Z M133.79 230.38 L140.03 227.64 L135.43 242.68 Z M350.07 346.84 L346.03 342.47 L334.16 329.76 Z M163.05 310.93 L171.24 313.65 L176.62 323.60 Z M156.87 144.44 L154.89 143.67 L152.61 141.96 Z M89.49 203.69 L91.12 198.96 L93.82 201.36 Z M330.30 376.20 L319.00 382.89 L323.67 386.18 Z M224.34 298.20 L223.01 308.36 L235.98 327.15 Z M275.49 284.56 L273.89 306.61 L271.39 290.02 Z M275.92 364.84 L284.88 372.20 L290.58 356.59 Z M223.98 226.27 L227.60 226.08 L212.89 214.78 Z M281.44 389.39 L262.29 386.46 L302.33 391.68 Z M299.23 295.23 L301.79 298.14 L312.39 307.28 Z M171.47 166.69 L180.26 173.12 L179.23 171.55 Z M236.69 273.49 L233.02 265.13 L233.42 276.20 Z M163.05 310.93 L170.89 325.80 L158.62 312.13 Z M139.59 274.52 L148.13 281.74 L160.97 285.88 Z M211.25 348.98 L194.82 332.49 L203.22 336.00 Z M291.70 356.85 L302.21 350.00 L309.24 350.30 Z M106.62 143.67 L109.53 133.68 L116.08 129.85 Z M147.69 235.77 L157.21 257.66 L144.39 249.87 Z M302.33 391.68 L303.77 391.06 L321.91 389.56 Z M136.86 179.71 L143.61 187.52 L145.81 175.41 Z M100.54 213.08 L97.67 214.96 L89.49 203.69 Z M257.32 253.71 L264.91 261.05 L262.72 259.27 Z M209.08 217.57 L212.89 214.78 L207.35 211.89 Z M233.46 301.04 L236.81 295.80 L233.02 283.07 Z M219.19 250.23 L214.11 234.62 L223.15 237.20 Z M174.81 299.23 L172.91 318.07 L187.61 299.90 Z M320.80 343.90 L318.15 337.06 L324.51 335.52 Z M160.97 285.88 L152.39 294.11 L156.77 294.37 Z M277.45 331.71 L264.39 337.29 L266.00 329.82 Z M91.26 140.52 L95.13 138.87 L94.51 135.24 Z M200.50 204.06 L186.65 200.31 L194.74 194.83 Z M145.16 297.90 L137.07 287.66 L129.93 276.50 Z M149.94 206.87 L137.06 197.88 L145.29 205.84 Z M288.59 286.56 L300.36 296.17 L290.26 286.26 Z M152.61 141.96 L139.88 131.99 L156.87 144.44 Z M133.27 186.60 L136.86 179.71 L117.98 183.29 Z M146.63 146.17 L152.96 154.64 L150.84 143.32 Z M221.11 368.93 L214.14 368.06 L206.64 360.34 Z M193.91 320.65 L193.91 333.30 L206.44 324.99 Z M322.70 316.68 L334.16 329.76 L329.73 323.82 Z M265.93 357.28 L268.97 346.75 L291.70 356.85 Z M140.03 227.64 L147.69 235.77 L139.15 239.35 Z M328.92 329.57 L337.62 347.01 L327.93 337.76 Z M278.38 296.61 L288.11 303.46 L276.82 288.40 Z M152.89 163.93 L146.60 147.42 L159.60 154.70 Z M113.31 249.48 L120.32 255.48 L111.15 240.93 Z M166.82 316.54 L170.76 332.43 L172.91 318.07 Z M287.90 311.62 L292.68 321.94 L301.91 317.57 Z M150.69 185.56 L155.06 176.26 L145.81 175.41 Z M265.00 377.80 L265.97 373.43 L281.00 377.12 Z M97.67 214.96 L96.63 217.67 L89.49 203.69 Z M87.46 153.06 L83.76 146.82 L97.21 137.67 Z M154.93 310.57 L159.43 317.52 L153.12 310.53 Z M351.53 351.39 L340.18 337.63 L345.14 347.30 Z M161.33 242.63 L157.21 257.66 L147.69 235.77 Z M257.32 253.71 L267.56 266.72 L264.01 261.13 Z M167.19 263.42 L167.13 273.76 L170.73 260.84 Z M160.97 285.88 L156.77 294.37 L165.93 303.93 Z M267.98 327.89 L283.87 331.93 L282.63 325.72 Z M247.22 247.89 L254.50 258.08 L250.42 249.02 Z M184.43 242.68 L197.55 242.83 L189.97 253.31 Z M97.83 185.10 L99.99 172.49 L103.26 188.07 Z M97.67 214.96 L100.15 222.30 L100.91 225.70 Z M350.07 346.84 L340.18 337.63 L351.53 351.39 Z M253.62 361.31 L263.13 360.91 L270.98 368.32 Z M225.08 345.54 L228.55 344.94 L239.87 345.67 Z M129.18 192.85 L133.27 186.60 L117.98 183.29 Z M275.55 363.32 L265.93 357.28 L271.77 358.97 Z M168.21 169.53 L152.89 163.93 L159.60 154.70 Z M185.62 194.21 L178.47 194.46 L182.39 201.41 Z M354.03 358.75 L357.37 367.27 L354.27 355.54 Z M156.00 264.78 L167.19 263.42 L168.20 255.31 Z M188.64 225.28 L179.04 214.84 L172.17 220.10 Z M350.07 346.84 L351.53 351.39 L354.27 355.54 Z M164.51 232.31 L175.92 214.94 L184.43 242.68 Z M266.00 329.82 L253.24 320.37 L260.39 314.39 Z M211.18 359.17 L222.27 368.28 L206.64 360.34 Z M130.51 271.65 L124.30 266.67 L119.30 258.51 Z M248.70 371.67 L257.02 367.80 L265.97 373.43 Z M251.26 284.13 L251.49 292.04 L257.14 291.24 Z M317.66 366.53 L308.89 361.18 L339.42 363.02 Z M155.76 275.35 L143.05 271.13 L160.97 285.88 Z M147.64 158.69 L132.98 159.98 L147.57 167.51 Z M200.86 217.60 L223.87 227.29 L218.83 227.59 Z M262.97 267.42 L270.80 275.59 L267.56 266.72 Z M250.42 249.02 L257.32 253.71 L248.39 244.62 Z M262.63 373.77 L283.64 380.71 L275.16 377.22 Z M170.89 325.80 L171.00 328.18 L158.62 312.13 Z M209.86 355.62 L211.18 359.17 L199.79 351.72 Z M251.26 284.13 L261.33 277.44 L250.57 273.33 Z M253.53 352.58 L239.87 345.67 L237.35 336.03 Z M110.82 228.09 L106.56 227.15 L108.68 216.94 Z M293.54 307.00 L296.68 313.85 L288.67 303.43 Z M123.33 212.07 L132.93 204.04 L126.32 225.29 Z M221.95 370.67 L226.10 374.71 L232.56 370.73 Z M153.12 310.53 L167.85 331.27 L161.44 322.36 Z M307.24 390.31 L324.33 387.69 L323.67 386.18 Z M297.01 303.41 L296.22 299.57 L288.11 303.46 Z M261.23 347.89 L266.56 339.65 L263.19 338.73 Z M295.53 362.90 L275.55 363.32 L289.27 360.93 Z M227.65 225.42 L218.59 215.30 L230.33 226.46 Z M128.37 233.64 L134.30 255.86 L136.92 252.67 Z M262.64 289.12 L273.89 306.61 L252.57 304.63 Z M239.05 377.39 L259.95 384.03 L251.13 382.87 Z M78.45 181.88 L86.88 194.38 L85.57 184.10 Z M124.23 129.11 L142.81 134.66 L139.88 131.99 Z M253.53 352.58 L225.08 345.54 L239.87 345.67 Z M204.00 315.35 L215.72 315.25 L201.55 321.29 Z M167.85 331.27 L170.76 332.43 L163.33 323.90 Z M289.35 386.60 L307.24 390.31 L302.53 387.32 Z M290.58 356.59 L270.25 354.56 L275.92 364.84 Z M195.90 309.25 L204.00 315.35 L201.55 321.29 Z M130.09 135.27 L112.18 133.03 L123.16 140.81 Z M249.59 264.91 L260.19 272.55 L256.77 273.79 Z M224.08 372.19 L217.51 370.83 L214.14 368.06 Z M323.46 374.28 L307.16 375.15 L316.82 371.85 Z M200.86 217.60 L223.15 237.20 L214.11 234.62 Z M232.56 370.73 L217.03 365.59 L221.95 370.67 Z M171.47 166.69 L187.35 182.46 L180.26 173.12 Z M346.63 378.04 L327.47 386.39 L332.94 383.33 Z M276.82 288.40 L285.36 290.00 L279.71 280.21 Z M266.06 274.40 L262.97 267.42 L247.40 264.94 Z M183.12 231.41 L185.49 241.27 L199.67 236.54 Z M97.21 137.67 L94.51 135.24 L98.87 135.20 Z M292.80 368.95 L292.57 374.44 L281.00 377.12 Z M262.29 386.46 L259.93 385.69 L248.07 381.36 Z M275.49 284.56 L281.47 297.35 L273.89 306.61 Z M156.00 264.78 L157.23 273.80 L167.13 273.76 Z M264.84 267.84 L261.90 260.78 L272.11 271.88 Z M91.26 140.52 L79.33 153.73 L83.85 154.64 Z M187.35 182.46 L189.06 192.38 L190.43 187.78 Z M329.87 325.81 L322.70 316.68 L329.73 323.82 Z M321.91 389.56 L298.49 390.78 L287.92 388.53 Z M322.70 316.68 L314.69 311.88 L334.16 329.76 Z M219.19 250.23 L223.15 237.20 L223.41 260.60 Z M245.54 330.23 L253.09 344.10 L237.35 336.03 Z M253.09 344.10 L253.53 352.58 L237.35 336.03 Z M331.51 343.35 L325.48 331.37 L319.60 333.20 Z M149.94 206.87 L145.29 205.84 L150.11 225.18 Z M98.57 206.11 L98.89 192.67 L90.76 195.55 Z M239.78 371.27 L233.16 373.38 L248.07 381.36 Z M164.19 167.89 L171.47 166.69 L162.18 161.10 Z M91.26 140.52 L103.06 140.46 L95.13 138.87 Z M323.46 374.28 L335.66 373.10 L327.81 380.14 Z M311.46 387.99 L315.82 385.04 L324.54 385.53 Z M115.01 213.57 L113.27 216.57 L127.00 205.85 Z M272.11 271.88 L283.73 280.78 L275.49 284.56 Z M162.62 152.97 L173.67 163.33 L173.56 165.66 Z M196.38 262.76 L196.22 273.17 L187.75 269.87 Z M109.95 190.97 L116.10 191.79 L113.15 212.21 Z M140.50 292.31 L137.07 287.66 L145.16 297.90 Z M246.43 349.22 L248.40 362.60 L256.00 359.22 Z M166.82 316.54 L165.93 303.93 L156.77 294.37 Z M236.37 378.19 L239.05 377.39 L251.13 382.87 Z M100.15 222.30 L106.56 227.15 L103.77 229.23 Z M149.82 281.19 L150.94 279.11 L158.39 277.53 Z M195.90 309.25 L215.72 315.25 L204.00 315.35 Z M261.23 347.89 L251.08 347.18 L256.00 359.22 Z M124.36 258.46 L118.92 255.27 L118.22 248.42 Z M145.24 288.84 L156.38 306.05 L158.62 312.13 Z M103.77 229.23 L106.56 227.15 L114.04 233.84 Z M111.08 227.61 L118.68 230.61 L113.27 216.57 Z M189.97 253.31 L197.55 242.83 L204.14 244.48 Z M231.26 300.53 L223.53 289.96 L225.07 283.08 Z M144.88 195.63 L152.18 179.18 L158.35 205.03 Z M248.39 244.62 L242.84 238.70 L227.60 226.08 Z M290.22 341.02 L295.64 340.61 L274.98 341.39 Z M114.83 141.88 L111.46 153.91 L112.54 145.42 Z M183.12 231.41 L199.67 236.54 L183.86 229.74 Z M114.04 233.84 L126.01 236.25 L125.42 244.22 Z M93.28 195.05 L83.42 185.46 L81.56 178.01 Z M271.28 385.83 L280.50 385.80 L287.92 388.53 Z M109.53 133.68 L109.60 129.80 L116.08 129.85 Z M195.54 203.75 L207.35 211.89 L199.19 201.24 Z M218.83 227.59 L223.87 227.29 L223.15 237.20 Z M232.53 330.90 L237.35 336.03 L217.78 327.23 Z M257.14 291.24 L251.49 292.04 L256.84 310.82 Z M118.68 230.61 L128.37 233.64 L113.27 216.57 Z M331.51 343.35 L337.16 341.31 L325.48 331.37 Z M227.65 225.42 L214.85 214.50 L218.59 215.30 Z M171.47 166.69 L171.51 188.31 L185.62 194.21 Z M204.14 244.48 L219.19 250.23 L189.97 253.31 Z M229.61 234.37 L249.59 264.91 L238.73 253.38 Z M145.81 175.41 L141.03 172.61 L136.86 179.71 Z M115.01 213.57 L127.00 205.85 L117.64 199.51 Z M79.92 163.96 L99.87 153.08 L83.85 154.64 Z M137.30 284.75 L158.62 312.13 L145.16 297.90 Z M266.56 339.65 L272.86 341.63 L267.98 327.89 Z M127.97 146.69 L129.25 153.58 L120.66 154.59 Z M137.06 286.01 L137.30 284.75 L145.16 297.90 Z M280.50 385.80 L267.34 382.21 L284.15 383.10 Z M219.19 250.23 L223.41 260.60 L189.97 253.31 Z M249.21 254.84 L229.61 234.37 L246.08 246.81 Z M222.27 368.28 L230.61 368.56 L238.31 373.01 Z M158.39 277.53 L170.76 285.84 L177.71 302.55 Z M255.42 254.11 L241.68 238.69 L242.84 238.70 Z M146.63 146.17 L142.24 144.43 L152.96 154.64 Z M198.21 357.55 L197.58 356.29 L203.79 362.17 Z M295.64 340.61 L290.22 341.02 L290.58 356.59 Z M330.30 376.20 L323.67 386.18 L338.62 377.87 Z M185.62 194.21 L195.54 203.75 L191.07 199.01 Z M173.56 165.66 L184.12 178.54 L177.35 182.14 Z M281.00 377.12 L267.34 382.21 L265.00 377.80 Z M162.18 161.10 L163.50 155.34 L150.84 143.32 Z M334.16 329.76 L314.69 311.88 L325.97 324.23 Z M216.11 323.03 L201.55 321.29 L215.72 315.25 Z M97.67 214.96 L106.56 227.15 L100.15 222.30 Z M273.89 306.61 L288.67 303.43 L283.77 321.14 Z M259.95 384.03 L267.34 382.21 L262.29 386.46 Z M189.55 351.23 L189.90 351.08 L187.36 345.14 Z M210.48 273.42 L217.00 265.65 L203.71 267.43 Z M288.59 286.56 L273.44 269.56 L279.71 280.21 Z M182.20 281.61 L196.22 273.17 L203.35 286.87 Z M309.60 317.36 L325.97 324.23 L314.69 311.88 Z M158.39 277.53 L154.44 290.40 L149.82 281.19 Z M289.35 386.60 L291.08 389.31 L307.24 390.31 Z M327.81 380.14 L335.66 373.10 L335.86 378.60 Z M192.21 223.76 L185.13 226.54 L200.86 217.60 Z M273.44 269.56 L267.56 266.72 L275.58 273.14 Z M163.05 310.93 L154.44 290.40 L163.14 297.05 Z M173.49 305.51 L174.81 299.23 L165.93 303.93 Z M90.76 195.55 L98.89 192.67 L93.09 173.63 Z M224.34 298.20 L233.46 301.04 L233.02 283.07 Z M165.68 154.62 L173.67 163.33 L156.87 144.44 Z M253.62 361.31 L238.33 362.18 L225.08 345.54 Z M108.97 194.75 L107.01 199.71 L113.27 216.57 Z M98.57 206.11 L107.01 199.71 L108.97 194.75 Z M145.24 288.84 L137.30 284.75 L142.66 282.70 Z M338.37 366.36 L338.62 377.87 L349.01 364.27 Z M81.56 178.01 L80.83 160.30 L87.95 170.13 Z M262.59 352.02 L253.09 344.10 L268.97 346.75 Z M146.60 147.42 L135.38 137.83 L147.68 144.77 Z M152.96 154.64 L164.19 167.89 L162.18 161.10 Z M173.67 163.33 L163.50 155.34 L179.23 171.55 Z M246.43 349.22 L226.94 351.49 L240.86 367.79 Z M79.92 163.96 L83.85 154.64 L75.51 168.74 Z M294.67 330.11 L302.21 350.00 L280.18 340.06 Z M293.91 291.29 L286.90 289.46 L283.73 280.78 Z M275.55 363.32 L270.98 368.32 L263.13 360.91 Z M199.41 308.79 L193.91 320.65 L210.79 307.73 Z M348.15 369.58 L342.13 374.12 L339.42 363.02 Z M167.65 303.29 L177.71 302.55 L171.24 313.65 Z M173.73 338.58 L189.55 351.23 L170.76 332.43 Z M205.67 355.42 L189.14 339.23 L187.36 345.14 Z M170.76 285.84 L158.39 277.53 L165.34 272.42 Z M232.53 330.90 L217.78 327.23 L230.89 314.96 Z M182.20 281.61 L177.71 302.55 L170.76 285.84 Z M111.10 148.31 L123.16 140.81 L103.06 140.46 Z M307.24 390.31 L323.67 386.18 L319.00 382.89 Z M140.50 292.31 L145.16 297.90 L153.12 310.53 Z M248.35 312.00 L233.46 301.04 L248.51 327.47 Z M275.55 363.32 L271.77 358.97 L291.70 356.85 Z M308.89 361.18 L318.15 337.06 L320.80 343.90 Z M261.33 277.44 L266.06 274.40 L247.40 264.94 Z M328.18 329.37 L328.95 332.18 L337.16 341.31 Z M147.17 294.22 L154.41 308.31 L161.70 316.99 Z M146.46 267.31 L159.39 273.20 L150.94 279.11 Z M200.49 331.00 L194.82 332.49 L196.84 326.52 Z M350.07 346.84 L354.27 355.54 L355.81 361.93 Z M295.53 362.90 L308.89 361.18 L292.80 368.95 Z M315.30 333.67 L292.68 321.94 L306.35 337.35 Z M185.62 194.21 L171.51 188.31 L178.47 194.46 Z M230.36 238.57 L218.84 236.86 L233.75 245.01 Z M116.08 129.85 L112.52 141.92 L106.62 143.67 Z M297.86 382.46 L288.98 382.06 L281.00 377.12 Z M181.62 333.06 L177.14 334.29 L171.00 328.18 Z M232.86 342.60 L228.55 344.94 L237.35 336.03 Z M325.48 331.37 L309.60 317.36 L301.91 317.57 Z M212.89 214.78 L209.08 217.57 L223.98 226.27 Z M221.11 368.93 L222.27 368.28 L238.31 373.01 Z M218.59 215.30 L212.61 210.41 L208.10 205.36 Z M284.63 320.57 L287.29 311.67 L296.68 313.85 Z M156.87 144.44 L150.84 143.32 L163.50 155.34 Z M183.57 276.73 L205.32 289.22 L193.98 273.97 Z M135.43 242.68 L132.00 255.50 L126.32 225.29 Z M112.55 190.29 L108.97 194.75 L117.64 199.51 Z M321.91 389.56 L298.79 388.71 L311.46 387.99 Z M184.43 242.68 L175.29 244.79 L164.51 232.31 Z M292.57 374.44 L292.80 368.95 L307.16 375.15 Z M244.30 365.62 L257.02 367.80 L248.70 371.67 Z M337.62 347.01 L339.42 363.02 L320.80 343.90 Z M225.08 345.54 L228.21 362.62 L216.26 357.22 Z M193.91 320.65 L183.03 329.14 L193.91 333.30 Z M227.60 226.08 L250.42 249.02 L248.39 244.62 Z M214.14 368.06 L197.58 356.29 L207.91 362.37 Z M136.16 265.61 L133.17 272.75 L139.59 274.52 Z M249.59 264.91 L245.16 286.98 L242.07 282.63 Z M254.50 258.08 L262.97 267.42 L267.56 266.72 Z M230.61 368.56 L238.33 362.18 L244.30 365.62 Z M187.61 299.90 L193.91 320.65 L199.41 308.79 Z M95.13 138.87 L103.06 140.46 L94.51 135.24 Z M221.32 251.27 L233.02 265.13 L236.88 258.72 Z M241.77 368.56 L248.70 371.67 L230.61 368.56 Z M249.59 264.91 L256.77 273.79 L252.97 279.59 Z M254.17 285.50 L252.97 279.59 L262.64 289.12 Z M269.25 290.16 L257.14 291.24 L269.95 302.19 Z M109.62 182.64 L99.99 172.49 L115.67 179.14 Z M108.97 194.75 L113.27 216.57 L117.64 199.51 Z M301.91 317.57 L303.02 303.49 L296.71 309.45 Z M233.92 236.27 L243.16 250.37 L237.81 238.78 Z M182.39 201.41 L186.33 209.72 L185.62 194.21 Z M158.35 205.03 L159.78 216.05 L152.27 218.97 Z M303.02 303.49 L296.22 299.57 L297.01 303.41 Z M238.14 305.87 L245.16 286.98 L252.57 304.63 Z M127.94 128.46 L139.88 131.99 L133.69 131.84 Z M154.89 143.67 L162.62 152.97 L152.61 141.96 Z M307.24 390.31 L302.33 391.68 L314.99 390.54 Z M341.97 355.32 L354.03 358.75 L331.51 343.35 Z M152.18 179.18 L144.88 195.63 L127.62 173.91 Z M75.51 168.74 L79.33 153.73 L79.63 150.43 Z M235.98 327.15 L248.51 327.47 L224.34 298.20 Z M114.04 233.84 L106.56 227.15 L110.82 228.09 Z M165.68 154.62 L163.50 155.34 L173.67 163.33 Z M186.08 216.42 L179.04 214.84 L188.64 225.28 Z M97.21 137.67 L83.76 146.82 L86.69 141.65 Z M79.92 163.96 L97.27 160.61 L99.87 153.08 Z M314.29 312.18 L322.70 316.68 L319.22 315.84 Z M208.69 332.32 L214.83 331.55 L218.43 333.51 Z M223.53 289.96 L222.93 305.77 L215.81 293.41 Z M260.19 272.55 L275.49 284.56 L271.39 290.02 Z M129.18 192.85 L117.64 199.51 L127.00 205.85 Z M262.29 386.46 L242.63 380.73 L251.13 382.87 Z M258.39 381.42 L289.35 386.60 L283.64 380.71 Z M183.03 329.14 L189.14 339.23 L193.91 333.30 Z M203.35 286.87 L203.92 267.57 L212.65 276.02 Z M226.10 374.71 L221.95 370.67 L217.51 370.83 Z M142.81 134.66 L145.75 139.92 L156.87 144.44 Z M87.95 170.13 L80.83 160.30 L87.46 153.06 Z M163.14 297.05 L158.39 277.53 L177.71 302.55 Z M309.98 374.64 L322.77 373.37 L308.90 364.02 Z M283.73 280.78 L273.44 269.56 L293.91 291.29 Z M304.53 352.34 L306.99 357.63 L316.77 354.13 Z M304.53 352.34 L306.35 337.35 L295.64 340.61 Z M218.03 330.08 L221.64 326.29 L206.44 324.99 Z M288.11 303.46 L287.90 311.62 L290.44 305.77 Z M166.50 232.44 L165.64 240.19 L185.49 241.27 Z M80.41 175.13 L81.56 178.01 L83.42 185.46 Z M178.91 176.56 L182.25 179.36 L171.47 166.69 Z M109.81 236.66 L114.04 233.84 L118.22 248.42 Z M118.22 248.42 L118.92 255.27 L109.81 236.66 Z M112.18 133.03 L94.51 135.24 L103.06 140.46 Z M253.62 361.31 L244.30 365.62 L238.33 362.18 Z M132.98 159.98 L133.60 149.80 L121.18 146.18 Z M224.68 317.93 L231.26 300.53 L230.89 314.96 Z M199.67 236.54 L172.17 220.10 L183.86 229.74 Z M223.41 260.60 L223.15 237.20 L229.61 234.37 Z M297.01 303.41 L288.11 303.46 L290.44 305.77 Z M211.25 348.98 L200.05 341.19 L194.82 332.49 Z M186.81 321.16 L194.82 332.49 L176.62 323.60 Z M217.51 370.83 L221.95 370.67 L217.03 365.59 Z M241.31 262.35 L237.43 267.14 L238.73 253.38 Z M266.06 274.40 L270.80 275.59 L262.97 267.42 Z M116.10 191.79 L109.95 190.97 L109.62 182.64 Z M78.45 181.88 L75.51 168.74 L77.01 165.47 Z M165.93 303.93 L175.58 291.45 L160.97 285.88 Z M227.60 226.08 L230.33 226.46 L227.68 224.31 Z M111.15 240.93 L113.26 236.73 L111.08 227.61 Z M309.25 316.24 L318.15 337.06 L296.68 313.85 Z M210.48 273.42 L224.34 298.20 L233.02 283.07 Z M259.95 384.03 L262.29 386.46 L251.13 382.87 Z M347.01 374.58 L338.62 377.87 L341.30 380.83 Z M98.57 206.11 L90.76 195.55 L86.88 194.38 Z M307.16 375.15 L296.69 378.26 L281.00 377.12 Z M132.98 159.98 L119.02 158.98 L127.56 166.59 Z M267.98 327.89 L282.63 325.72 L283.97 321.85 Z M257.61 377.12 L265.00 377.80 L248.66 377.50 Z M196.84 326.52 L201.55 321.29 L200.49 331.00 Z M147.64 158.69 L164.19 167.89 L152.96 154.64 Z M296.99 293.86 L290.26 286.26 L300.36 296.17 Z M297.01 303.41 L290.44 305.77 L296.71 309.45 Z M187.35 182.46 L190.49 185.50 L184.12 178.54 Z M335.66 373.10 L339.42 363.02 L335.86 378.60 Z M311.46 387.99 L305.62 385.60 L315.82 385.04 Z M197.55 242.83 L185.13 226.54 L204.14 244.48 Z M195.97 222.62 L185.62 194.21 L186.33 209.72 Z M203.71 267.43 L202.54 260.47 L187.64 253.65 Z M119.93 212.49 L108.68 216.94 L113.15 212.21 Z M255.80 375.25 L256.00 359.22 L248.40 362.60 Z M354.03 358.75 L337.16 341.31 L331.51 343.35 Z M243.16 250.37 L247.22 247.89 L237.81 238.78 Z M93.28 195.05 L113.15 212.21 L100.54 213.08 Z M248.66 377.50 L265.00 377.80 L262.22 381.74 Z M146.55 136.77 L156.87 144.44 L139.88 131.99 Z M311.46 387.99 L324.54 385.53 L321.91 389.56 Z M246.09 376.00 L238.31 373.01 L248.70 371.67 Z M335.86 378.60 L339.42 363.02 L342.13 374.12 Z M302.53 387.32 L307.24 390.31 L319.00 382.89 Z M119.93 212.49 L113.15 212.21 L116.10 191.79 Z M165.34 272.42 L159.39 273.20 L146.46 267.31 Z M303.77 391.06 L298.49 390.78 L321.91 389.56 Z M187.44 347.24 L178.65 342.69 L181.81 343.04 Z M177.14 334.29 L174.56 336.07 L171.00 328.18 Z M262.64 289.12 L252.97 279.59 L256.77 273.79 Z M232.56 370.73 L221.27 355.98 L212.97 352.74 Z M324.51 335.52 L328.92 329.57 L320.80 343.90 Z M236.69 273.49 L233.42 276.20 L251.26 284.13 Z M108.34 170.76 L98.89 192.67 L117.98 183.29 Z M93.09 173.63 L98.89 192.67 L108.34 170.76 Z M171.06 202.29 L158.36 197.92 L157.40 213.72 Z M126.01 236.25 L120.96 231.08 L126.32 225.29 Z M102.66 218.78 L98.57 206.11 L100.48 223.96 Z M143.05 271.13 L139.59 274.52 L160.97 285.88 Z M284.88 372.20 L275.92 364.84 L262.63 373.77 Z M120.32 255.48 L133.17 272.75 L130.84 257.32 Z M194.74 194.83 L184.12 178.54 L190.49 185.50 Z M170.76 285.84 L165.34 272.42 L174.52 276.68 Z M128.37 233.64 L130.84 257.32 L134.30 255.86 Z M337.16 341.31 L345.14 347.30 L340.18 337.63 Z M259.95 384.03 L262.22 381.74 L267.34 382.21 Z M125.42 244.22 L126.01 236.25 L132.00 255.50 Z M296.99 293.86 L300.36 296.17 L302.23 300.65 Z M306.02 380.85 L284.88 372.20 L289.35 386.60 Z M325.12 348.97 L315.45 346.85 L316.77 354.13 Z M318.15 337.06 L302.66 338.80 L309.06 334.99 Z M237.43 267.14 L242.07 282.63 L233.20 281.47 Z M190.80 343.50 L209.86 355.62 L199.79 351.72 Z M86.88 194.38 L91.20 205.39 L98.57 206.11 Z M252.57 304.63 L253.24 320.37 L238.14 305.87 Z M239.05 377.39 L217.51 370.83 L224.08 372.19 Z M172.17 220.10 L183.12 231.41 L183.86 229.74 Z M296.69 378.26 L307.16 375.15 L302.28 378.23 Z M290.44 305.77 L287.90 311.62 L296.71 309.45 Z M113.26 236.73 L130.84 257.32 L118.68 230.61 Z M325.97 324.23 L325.48 331.37 L328.18 329.37 Z M179.04 214.84 L186.08 216.42 L186.33 209.72 Z M83.76 146.82 L83.73 153.72 L80.83 160.30 Z M156.00 264.78 L167.13 273.76 L167.19 263.42 Z M202.06 200.90 L199.51 196.27 L190.49 185.50 Z M302.53 387.32 L306.02 380.85 L289.35 386.60 Z M239.78 371.27 L240.86 367.79 L233.16 373.38 Z M288.67 303.43 L296.68 313.85 L287.29 311.67 Z M327.81 380.14 L335.86 378.60 L346.63 378.04 Z M248.70 371.67 L265.00 377.80 L257.61 377.12 Z M232.53 330.90 L245.54 330.23 L237.35 336.03 Z M301.79 298.14 L303.02 303.49 L311.89 308.49 Z M186.65 200.31 L175.92 214.94 L184.95 201.92 Z M214.97 251.27 L233.02 265.13 L221.32 251.27 Z M270.25 354.56 L261.23 347.89 L256.00 359.22 Z M261.33 277.44 L276.82 288.40 L266.06 274.40 Z M256.84 310.82 L268.89 319.75 L283.97 321.85 Z M187.35 182.46 L190.43 187.78 L190.49 185.50 Z M309.24 350.30 L308.89 361.18 L291.70 356.85 Z M288.11 303.46 L296.22 299.57 L285.36 290.00 Z M129.60 172.05 L129.25 153.58 L143.33 165.97 Z M144.39 249.87 L157.21 257.66 L146.46 267.31 Z M174.56 336.07 L181.62 333.06 L190.80 343.50 Z M292.57 374.44 L307.16 375.15 L281.00 377.12 Z M138.03 276.70 L150.94 279.11 L142.66 282.70 Z M239.05 377.39 L262.22 381.74 L259.95 384.03 Z M318.15 337.06 L308.89 361.18 L309.24 350.30 Z M221.64 326.29 L210.79 307.73 L206.44 324.99 Z M83.76 146.82 L87.46 153.06 L83.73 153.72 Z M231.26 300.53 L233.20 281.47 L242.07 282.63 Z M262.59 352.02 L253.53 352.58 L253.09 344.10 Z M133.27 186.60 L143.61 187.52 L136.86 179.71 Z M177.71 302.55 L186.81 321.16 L171.24 313.65 Z M321.91 389.56 L324.54 385.53 L327.47 386.39 Z M246.43 349.22 L263.19 338.73 L248.51 327.47 Z M132.98 159.98 L127.56 166.59 L136.86 179.71 Z M206.45 233.46 L215.01 234.76 L213.12 228.62 Z M357.37 367.27 L355.81 361.93 L354.27 355.54 Z M282.63 325.72 L283.87 331.93 L283.97 321.85 Z M212.89 214.78 L202.06 200.90 L207.35 211.89 Z M233.20 281.47 L225.07 283.08 L212.65 276.02 Z M171.65 257.34 L189.97 253.31 L187.75 269.87 Z M325.48 331.37 L328.95 332.18 L328.18 329.37 Z M274.98 341.39 L261.23 347.89 L270.25 354.56 Z M135.43 242.68 L140.03 227.64 L139.15 239.35 Z M281.47 297.35 L275.49 284.56 L288.67 303.43 Z M227.68 224.31 L218.59 215.30 L222.07 219.09 Z M177.35 182.14 L175.92 214.94 L169.14 201.10 Z M203.92 267.57 L196.22 273.17 L196.38 262.76 Z M189.55 351.23 L173.73 338.58 L178.65 342.69 Z M137.06 197.88 L129.18 192.85 L127.00 205.85 Z M233.75 245.01 L243.16 250.37 L233.92 236.27 Z M103.77 229.23 L109.81 236.66 L118.92 255.27 Z M258.39 381.42 L266.65 386.80 L289.35 386.60 Z M332.63 359.59 L316.77 354.13 L322.77 373.37 Z M214.85 214.50 L200.50 204.06 L203.85 203.38 Z M205.67 355.42 L198.21 357.55 L203.79 362.17 Z M137.06 197.88 L143.61 187.52 L133.27 186.60 Z M185.62 194.21 L182.25 179.36 L178.91 176.56 Z M156.81 250.94 L156.00 264.78 L168.20 255.31 Z M251.08 347.18 L261.23 347.89 L263.19 338.73 Z M103.26 188.07 L113.15 212.21 L103.35 192.91 Z M172.17 220.10 L166.50 232.44 L185.49 241.27 Z M212.97 352.74 L226.94 351.49 L208.49 337.16 Z M319.88 381.61 L327.81 380.14 L324.54 385.53 Z M325.48 331.37 L301.91 317.57 L318.26 328.33 Z M349.52 375.94 L357.37 367.27 L352.37 374.56 Z M210.23 234.25 L199.99 229.12 L200.86 217.60 Z M230.33 226.46 L223.87 227.29 L227.65 225.42 Z M309.60 317.36 L325.48 331.37 L325.97 324.23 Z M163.05 310.93 L158.62 312.13 L156.38 306.05 Z M126.32 225.29 L134.85 221.59 L140.03 227.64 Z M272.11 271.88 L277.61 275.77 L283.73 280.78 Z M130.09 135.27 L145.75 139.92 L142.81 134.66 Z M328.18 329.37 L340.18 337.63 L334.16 329.76 Z M260.39 314.39 L252.57 304.63 L273.89 306.61 Z M185.13 226.54 L184.43 242.68 L175.92 214.94 Z M133.69 131.84 L142.83 136.95 L135.38 137.83 Z M224.08 372.19 L214.14 368.06 L221.11 368.93 Z M80.41 175.13 L83.42 185.46 L78.45 181.88 Z M127.94 128.46 L116.08 129.85 L124.23 129.11 Z M195.54 203.75 L185.62 194.21 L201.44 213.96 Z M308.90 364.02 L306.99 357.63 L304.53 352.34 Z M266.00 329.82 L264.39 337.29 L245.54 330.23 Z M96.63 217.67 L91.20 205.39 L94.51 213.26 Z M130.51 271.65 L137.30 284.75 L129.93 276.50 Z M218.43 333.51 L220.00 338.38 L208.69 332.32 Z M137.34 253.12 L135.43 242.68 L144.39 249.87 Z M189.06 192.38 L182.25 179.36 L185.62 194.21 Z M316.77 354.13 L308.90 364.02 L322.77 373.37 Z M131.27 264.66 L132.00 255.50 L150.94 279.11 Z M140.03 227.64 L133.79 230.38 L126.32 225.29 Z M139.88 131.99 L147.68 144.77 L142.83 136.95 Z M257.61 377.12 L248.66 377.50 L248.70 371.67 Z M262.63 373.77 L258.39 381.42 L283.64 380.71 Z M142.24 144.43 L150.84 143.32 L130.09 135.27 Z M133.17 272.75 L131.32 275.68 L139.59 274.52 Z M330.30 376.20 L338.62 377.87 L332.63 359.59 Z M332.63 359.59 L319.60 333.20 L325.12 348.97 Z M99.87 153.08 L109.51 161.64 L119.02 158.98 Z M114.04 233.84 L120.96 231.08 L126.01 236.25 Z M169.14 201.10 L175.92 214.94 L159.78 216.05 Z M165.34 272.42 L146.46 267.31 L157.21 257.66 Z M126.32 225.29 L133.79 230.38 L135.43 242.68 Z M242.84 238.70 L262.72 259.27 L255.42 254.11 Z M126.32 225.29 L132.00 255.50 L126.01 236.25 Z M251.49 292.04 L246.72 295.62 L256.84 310.82 Z M156.41 314.11 L167.85 331.27 L163.33 323.90 Z M223.87 227.29 L214.85 214.50 L227.65 225.42 Z M242.84 238.70 L241.68 238.69 L230.33 226.46 Z M108.34 170.76 L117.98 183.29 L121.64 173.60 Z M327.93 337.76 L320.80 343.90 L328.92 329.57 Z M109.62 182.64 L109.95 190.97 L99.99 172.49 Z M135.43 242.68 L137.34 253.12 L132.00 255.50 Z M172.17 220.10 L199.67 236.54 L188.64 225.28 Z M223.01 308.36 L219.17 312.72 L235.98 327.15 Z M100.48 223.96 L100.91 225.70 L103.77 229.23 Z M205.64 220.30 L195.97 222.62 L213.12 228.62 Z M321.91 389.56 L287.92 388.53 L298.79 388.71 Z M159.39 273.20 L165.34 272.42 L158.39 277.53 Z M232.56 370.73 L233.16 373.38 L240.86 367.79 Z M139.88 131.99 L127.94 128.46 L124.23 129.11 Z M123.16 140.81 L121.18 146.18 L133.60 149.80 Z M304.53 352.34 L310.77 351.51 L315.45 346.85 Z M210.82 263.49 L203.92 267.57 L189.97 253.31 Z M130.51 271.65 L124.36 258.46 L131.27 264.66 Z M116.08 129.85 L108.88 129.26 L124.23 129.11 Z M130.51 271.65 L131.27 264.66 L138.03 276.70 Z M169.14 201.10 L158.35 205.03 L152.18 179.18 Z M328.92 329.57 L337.00 335.95 L337.62 347.01 Z M208.69 332.32 L216.11 323.03 L217.78 327.23 Z M289.27 360.93 L275.55 363.32 L291.70 356.85 Z M205.67 355.42 L187.36 345.14 L198.21 357.55 Z M187.36 345.14 L183.03 329.14 L172.91 318.07 Z M221.64 326.29 L235.98 327.15 L219.17 312.72 Z M116.10 191.79 L132.93 204.04 L119.93 212.49 Z M136.16 265.61 L130.84 257.32 L133.17 272.75 Z M145.16 297.90 L129.93 276.50 L137.06 286.01 Z M154.89 143.67 L156.87 144.44 L162.62 152.97 Z M147.17 294.22 L139.59 274.52 L131.32 275.68 Z M120.66 154.59 L112.67 164.67 L114.83 141.88 Z M196.84 326.52 L194.82 332.49 L186.81 321.16 Z M124.36 258.46 L130.51 271.65 L118.92 255.27 Z M249.21 259.27 L262.97 267.42 L254.50 258.08 Z M283.77 321.14 L287.29 311.67 L284.63 320.57 Z M273.44 269.56 L257.32 253.71 L264.01 261.13 Z M273.44 269.56 L275.58 273.14 L279.71 280.21 Z M230.61 368.56 L244.30 365.62 L241.77 368.56 Z M223.53 289.96 L211.10 283.29 L212.65 276.02 Z M216.11 323.03 L215.72 315.25 L224.68 317.93 Z M147.17 294.22 L161.70 316.99 L152.39 294.11 Z M112.67 164.67 L129.60 172.05 L127.62 173.91 Z M98.89 192.67 L98.57 206.11 L108.97 194.75 Z M112.18 133.03 L124.23 129.11 L108.88 129.26 Z M251.26 284.13 L269.25 290.16 L261.33 277.44 Z M262.29 386.46 L298.49 390.78 L302.33 391.68 Z M255.80 375.25 L262.63 373.77 L256.00 359.22 Z M262.22 381.74 L265.00 377.80 L267.34 382.21 Z M189.06 192.38 L199.19 201.24 L202.06 200.90 Z M187.75 269.87 L186.17 270.26 L171.65 257.34 Z M211.10 283.29 L203.35 286.87 L212.65 276.02 Z M315.96 310.59 L314.69 311.88 L322.70 316.68 Z M176.62 323.60 L170.89 325.80 L163.05 310.93 Z M296.71 309.45 L287.90 311.62 L301.91 317.57 Z M149.94 206.87 L158.36 197.92 L150.33 194.37 Z M187.44 347.24 L206.64 360.34 L197.58 356.29 Z M203.92 267.57 L203.35 286.87 L196.22 273.17 Z M170.73 260.84 L178.35 267.74 L168.20 255.31 Z M132.98 159.98 L121.18 146.18 L111.10 148.31 Z M83.42 185.46 L89.49 203.69 L83.60 189.30 Z M245.54 330.23 L268.97 346.75 L253.09 344.10 Z M337.00 335.95 L329.87 325.81 L346.03 342.47 Z M218.84 236.86 L221.32 251.27 L226.93 247.57 Z M187.44 347.24 L199.79 351.72 L206.64 360.34 Z M129.60 172.05 L143.33 165.97 L152.18 179.18 Z M270.25 354.56 L256.00 359.22 L275.92 364.84 Z M325.48 331.37 L337.16 341.31 L328.95 332.18 Z M163.50 155.34 L171.47 166.69 L179.23 171.55 Z M147.17 294.22 L160.97 285.88 L148.13 281.74 Z M167.65 303.29 L171.24 313.65 L163.14 297.05 Z M349.01 364.27 L354.03 358.75 L341.97 355.32 Z M283.65 370.66 L270.98 368.32 L292.80 368.95 Z M133.60 149.80 L147.64 158.69 L140.75 149.24 Z M177.35 182.14 L169.14 201.10 L164.78 184.81 Z M181.81 343.04 L174.56 336.07 L190.80 343.50 Z M103.06 140.46 L91.26 140.52 L83.85 154.64 Z M112.55 190.29 L117.98 183.29 L98.89 192.67 Z M274.98 341.39 L270.25 354.56 L290.58 356.59 Z M145.24 288.84 L163.05 310.93 L156.38 306.05 Z M306.35 337.35 L318.63 338.96 L315.30 333.67 Z M257.32 253.71 L250.42 249.02 L267.56 266.72 Z M186.65 200.31 L185.13 226.54 L175.92 214.94 Z M314.99 390.54 L302.33 391.68 L321.91 389.56 Z M304.53 352.34 L316.77 354.13 L310.77 351.51 Z M315.30 333.67 L301.91 317.57 L292.68 321.94 Z M318.63 338.96 L315.45 346.85 L325.12 348.97 Z M152.61 141.96 L159.60 154.70 L146.60 147.42 Z M200.86 217.60 L200.50 204.06 L214.85 214.50 Z M316.77 354.13 L315.45 346.85 L310.77 351.51 Z M147.57 167.51 L132.98 159.98 L145.81 175.41 Z M186.33 209.72 L182.39 201.41 L179.04 214.84 Z M206.44 324.99 L208.49 337.16 L221.81 338.66 Z M103.18 200.66 L97.83 185.10 L103.35 192.91 Z M242.63 380.73 L233.90 376.87 L226.10 374.71 Z M220.00 338.38 L218.43 333.51 L217.78 327.23 Z M262.59 352.02 L268.97 346.75 L265.93 357.28 Z M256.84 310.82 L283.97 321.85 L270.69 309.26 Z M305.80 384.36 L305.62 385.60 L298.79 388.71 Z M315.82 385.04 L323.46 374.28 L319.88 381.61 Z M205.32 289.22 L183.57 276.73 L175.58 291.45 Z M152.96 154.64 L142.24 144.43 L140.75 149.24 Z M218.84 236.86 L222.09 228.09 L213.12 228.62 Z M160.97 285.88 L175.58 291.45 L167.13 273.76 Z M246.43 349.22 L235.34 338.65 L221.81 338.66 Z M247.40 264.94 L226.93 247.57 L236.88 258.72 Z M262.72 259.27 L261.90 260.78 L255.42 254.11 Z M120.44 261.22 L131.32 275.68 L120.32 255.48 Z M163.50 155.34 L165.68 154.62 L156.87 144.44 Z M306.02 380.85 L309.98 374.64 L284.88 372.20 Z M210.42 360.80 L212.97 352.74 L205.67 355.42 Z M277.45 331.71 L268.97 346.75 L264.39 337.29 Z M83.76 146.82 L79.63 150.43 L86.69 141.65 Z M318.63 338.96 L325.12 348.97 L319.60 333.20 Z M221.27 355.98 L232.56 370.73 L226.94 351.49 Z M262.64 289.12 L271.39 290.02 L273.89 306.61 Z M99.87 153.08 L119.02 158.98 L111.10 148.31 Z M150.69 185.56 L158.36 197.92 L155.06 176.26 Z M168.21 169.53 L177.35 182.14 L164.78 184.81 Z M182.25 179.36 L187.35 182.46 L171.47 166.69 Z M111.10 148.31 L119.02 158.98 L132.98 159.98 Z M172.91 318.07 L193.91 320.65 L187.61 299.90 Z M314.29 312.18 L309.25 316.24 L302.23 300.65 Z M205.32 289.22 L224.34 298.20 L210.48 273.42 Z M145.24 288.84 L158.62 312.13 L137.30 284.75 Z M109.07 241.43 L113.31 249.48 L111.15 240.93 Z M117.98 183.29 L112.55 190.29 L117.64 199.51 Z M296.99 293.86 L301.17 300.02 L293.91 291.29 Z M152.18 179.18 L152.89 163.93 L158.77 170.15 Z M150.84 143.32 L145.75 139.92 L130.09 135.27 Z M159.78 216.05 L147.69 235.77 L152.27 218.97 Z M161.70 316.99 L170.76 332.43 L166.82 316.54 Z M275.49 284.56 L283.73 280.78 L286.90 289.46 Z M318.15 337.06 L309.06 334.99 L294.67 330.11 Z M208.69 332.32 L220.00 338.38 L212.50 341.89 Z M190.80 343.50 L187.44 347.24 L181.81 343.04 Z M249.21 259.27 L243.16 250.37 L247.40 264.94 Z M256.00 359.22 L262.63 373.77 L275.92 364.84 Z M132.93 204.04 L140.03 227.64 L134.85 221.59 Z M337.00 335.95 L328.92 329.57 L329.87 325.81 Z M216.11 323.03 L200.49 331.00 L201.55 321.29 Z M321.91 389.56 L324.33 387.69 L314.99 390.54 Z M171.47 166.69 L185.62 194.21 L178.91 176.56 Z M200.49 331.00 L203.22 336.00 L194.82 332.49 Z M170.89 325.80 L176.62 323.60 L171.00 328.18 Z M189.97 253.31 L196.38 262.76 L187.75 269.87 Z M314.99 390.54 L324.33 387.69 L307.24 390.31 Z M97.21 137.67 L98.87 135.20 L109.60 129.80 Z M288.11 303.46 L269.95 302.19 L270.69 309.26 Z M112.55 190.29 L98.89 192.67 L108.97 194.75 Z M218.43 333.51 L214.83 331.55 L217.78 327.23 Z M197.55 242.83 L184.43 242.68 L185.13 226.54 Z M127.97 146.69 L114.83 141.88 L131.07 137.50 Z M248.40 362.60 L240.86 367.79 L255.80 375.25 Z M171.24 313.65 L163.50 304.80 L163.14 297.05 Z M103.06 140.46 L123.16 140.81 L112.18 133.03 Z M264.84 267.84 L260.19 272.55 L249.59 264.91 Z M94.51 135.24 L102.67 131.42 L98.87 135.20 Z M131.27 264.66 L118.22 248.42 L132.00 255.50 Z M224.34 298.20 L248.51 327.47 L233.46 301.04 Z M140.50 292.31 L153.12 310.53 L149.63 304.93 Z M127.97 146.69 L120.66 154.59 L114.83 141.88 Z M324.33 387.69 L321.91 389.56 L338.62 377.87 Z M340.18 337.63 L350.07 346.84 L334.16 329.76 Z M227.60 226.08 L237.81 238.78 L247.22 247.89 Z M119.30 258.51 L120.44 261.22 L113.31 249.48 Z M205.32 289.22 L210.48 273.42 L203.71 267.43 Z M142.24 144.43 L146.63 146.17 L150.84 143.32 Z M128.37 233.64 L147.96 254.07 L145.19 234.88 Z M257.32 253.71 L262.72 259.27 L248.39 244.62 Z M309.98 374.64 L290.58 356.59 L284.88 372.20 Z M112.67 164.67 L129.25 153.58 L129.60 172.05 Z M127.97 146.69 L135.38 137.83 L129.25 153.58 Z M246.43 349.22 L240.86 367.79 L248.40 362.60 Z M242.63 380.73 L236.37 378.19 L251.13 382.87 Z M94.39 158.98 L87.95 170.13 L87.46 153.06 Z M242.84 238.70 L230.33 226.46 L227.60 226.08 Z M75.51 168.74 L79.63 150.43 L77.01 165.47 Z M301.91 317.57 L319.60 333.20 L318.26 328.33 Z M137.06 197.88 L150.33 194.37 L143.61 187.52 Z M210.42 360.80 L205.67 355.42 L217.51 370.83 Z M142.66 282.70 L149.82 281.19 L154.44 290.40 Z M284.63 320.57 L296.68 313.85 L294.67 330.11 Z M312.39 307.28 L314.29 312.18 L302.23 300.65 Z M133.69 131.84 L135.38 137.83 L131.07 137.50 Z M119.93 212.49 L123.33 212.07 L126.32 225.29 Z M174.52 276.68 L171.65 257.34 L182.20 281.61 Z M270.69 309.26 L287.90 311.62 L288.11 303.46 Z M156.77 294.37 L152.39 294.11 L166.82 316.54 Z M245.16 286.98 L262.64 289.12 L252.57 304.63 Z M78.45 181.88 L77.01 165.47 L80.41 175.13 Z M210.79 307.73 L187.61 299.90 L199.41 308.79 Z M196.84 326.52 L186.81 321.16 L201.55 321.29 Z M131.07 137.50 L114.83 141.88 L133.69 131.84 Z M206.64 360.34 L199.79 351.72 L211.18 359.17 Z M241.31 262.35 L249.59 264.91 L237.43 267.14 Z M145.67 203.90 L144.88 195.63 L158.35 205.03 Z M214.97 251.27 L216.50 244.54 L206.45 233.46 Z M182.20 281.61 L187.75 269.87 L196.22 273.17 Z M150.84 143.32 L156.87 144.44 L145.75 139.92 Z M319.22 315.84 L328.92 329.57 L314.29 312.18 Z M206.60 254.95 L214.97 251.27 L206.45 233.46 Z M199.51 196.27 L208.10 205.36 L194.74 194.83 Z M163.05 310.93 L145.24 288.84 L154.44 290.40 Z M219.19 250.23 L204.14 244.48 L210.23 234.25 Z M194.74 194.83 L190.49 185.50 L199.51 196.27 Z M201.55 321.29 L177.71 302.55 L191.98 308.90 Z M335.86 378.60 L348.15 369.58 L346.63 378.04 Z M195.52 299.01 L215.72 315.25 L195.90 309.25 Z M342.13 374.12 L348.15 369.58 L335.86 378.60 Z M108.88 129.26 L98.87 135.20 L102.67 131.42 Z M277.45 331.71 L266.00 329.82 L260.39 314.39 Z M174.52 276.68 L182.20 281.61 L170.76 285.84 Z M226.93 247.57 L221.32 251.27 L236.88 258.72 Z M173.56 165.66 L173.67 163.33 L179.23 171.55 Z M338.62 377.87 L347.01 374.58 L349.01 364.27 Z M194.82 332.49 L190.80 343.50 L189.83 336.35 Z M121.64 173.60 L117.98 183.29 L136.86 179.71 Z M229.61 234.37 L238.73 253.38 L237.43 267.14 Z M345.14 347.30 L354.27 355.54 L351.53 351.39 Z M178.65 342.69 L187.44 347.24 L189.55 351.23 Z M143.33 165.97 L152.89 163.93 L152.18 179.18 Z M301.91 317.57 L309.60 317.36 L303.02 303.49 Z M354.03 358.75 L345.14 347.30 L337.16 341.31 Z M133.69 131.84 L116.08 129.85 L127.94 128.46 Z M157.40 213.72 L158.36 197.92 L149.94 206.87 Z M237.43 267.14 L233.20 281.47 L223.41 260.60 Z M193.91 333.30 L208.49 337.16 L206.44 324.99 Z M214.14 368.06 L207.91 362.37 L206.64 360.34 Z M81.56 178.01 L97.83 185.10 L93.28 195.05 Z M233.75 245.01 L226.93 247.57 L247.40 264.94 Z M267.98 327.89 L268.89 319.75 L256.84 310.82 Z M222.93 305.77 L203.35 286.87 L215.81 293.41 Z M227.68 224.31 L230.33 226.46 L218.59 215.30 Z M143.72 215.04 L132.93 204.04 L145.67 203.90 Z M271.39 290.02 L262.64 289.12 L260.19 272.55 Z M167.85 331.27 L158.62 312.13 L171.00 328.18 Z M91.12 198.96 L83.42 185.46 L93.28 195.05 Z M142.83 136.95 L147.68 144.77 L135.38 137.83 Z M283.87 331.93 L267.98 327.89 L274.98 341.39 Z M166.50 232.44 L150.11 225.18 L145.19 234.88 Z M354.27 355.54 L345.14 347.30 L354.03 358.75 Z M109.60 129.80 L98.87 135.20 L108.88 129.26 Z M194.82 332.49 L181.62 333.06 L176.62 323.60 Z M156.87 144.44 L173.67 163.33 L162.62 152.97 Z M152.18 179.18 L127.62 173.91 L129.60 172.05 Z M319.00 382.89 L330.30 376.20 L322.77 373.37 Z M191.07 199.01 L195.54 203.75 L189.06 192.38 Z M208.10 205.36 L203.85 203.38 L194.74 194.83 Z M184.12 178.54 L173.56 165.66 L180.26 173.12 Z M150.33 194.37 L137.06 197.88 L149.94 206.87 Z M146.55 136.77 L139.88 131.99 L142.81 134.66 Z M177.71 302.55 L195.52 299.01 L191.98 308.90 Z M239.05 377.39 L248.66 377.50 L262.22 381.74 Z M114.04 233.84 L122.07 245.67 L118.22 248.42 Z M115.67 179.14 L99.99 172.49 L109.40 173.50 Z M261.23 347.89 L274.98 341.39 L272.86 341.63 Z M276.82 288.40 L288.11 303.46 L285.36 290.00 Z M149.63 304.93 L154.41 308.31 L147.17 294.22 Z M255.80 375.25 L239.78 371.27 L248.07 381.36 Z M159.60 154.70 L173.56 165.66 L168.21 169.53 Z M94.39 158.98 L102.90 150.32 L99.99 172.49 Z M286.90 289.46 L288.67 303.43 L275.49 284.56 Z M156.81 250.94 L168.20 255.31 L165.64 240.19 Z M206.60 254.95 L187.64 253.65 L202.54 260.47 Z M265.93 357.28 L291.70 356.85 L271.77 358.97 Z M288.11 303.46 L278.38 296.61 L269.95 302.19 Z M217.03 365.59 L210.42 360.80 L217.51 370.83 Z M278.38 296.61 L276.82 288.40 L269.25 290.16 Z M217.00 265.65 L214.97 251.27 L206.60 254.95 Z M103.26 188.07 L109.95 190.97 L113.15 212.21 Z M185.49 241.27 L183.12 231.41 L172.17 220.10 Z M223.87 227.29 L215.14 217.91 L214.85 214.50 Z M276.82 288.40 L270.80 275.59 L266.06 274.40 Z M315.96 310.59 L301.79 298.14 L311.89 308.49 Z M309.25 316.24 L314.29 312.18 L328.92 329.57 Z M123.16 140.81 L133.60 149.80 L140.75 149.24 Z M251.49 292.04 L251.26 284.13 L233.02 283.07 Z M202.06 200.90 L208.10 205.36 L199.51 196.27 Z M314.69 311.88 L311.89 308.49 L303.02 303.49 Z M306.02 380.85 L322.77 373.37 L309.98 374.64 Z M113.27 216.57 L107.01 199.71 L98.57 206.11 Z M211.18 359.17 L230.61 368.56 L222.27 368.28 Z M271.28 385.83 L267.34 382.21 L280.50 385.80 Z M222.09 228.09 L233.92 236.27 L223.98 226.27 Z M152.61 141.96 L162.62 152.97 L159.60 154.70 Z M265.93 357.28 L253.53 352.58 L262.59 352.02 Z M220.00 338.38 L217.78 327.23 L228.55 344.94 Z M156.87 144.44 L146.55 136.77 L142.81 134.66 Z M233.02 265.13 L236.69 273.49 L250.57 273.33 Z M296.69 378.26 L305.80 384.36 L281.00 377.12 Z M319.60 333.20 L315.30 333.67 L318.63 338.96 Z M134.30 255.86 L130.84 257.32 L136.16 265.61 Z M247.40 264.94 L236.88 258.72 L236.93 263.34 Z M205.67 355.42 L212.07 366.82 L217.51 370.83 Z M182.39 201.41 L171.06 202.29 L179.04 214.84 Z M248.66 377.50 L239.05 377.39 L238.31 373.01 Z M202.06 200.90 L212.89 214.78 L227.60 226.08 Z M171.47 166.69 L163.50 155.34 L162.18 161.10 Z M108.68 216.94 L119.93 212.49 L126.32 225.29 Z M152.96 154.64 L162.18 161.10 L150.84 143.32 Z M267.98 327.89 L248.51 327.47 L263.19 338.73 Z M322.77 373.37 L330.30 376.20 L332.63 359.59 Z M237.35 336.03 L239.87 345.67 L232.86 342.60 Z M196.38 262.76 L189.97 253.31 L203.92 267.57 Z M255.42 254.11 L261.90 260.78 L264.84 267.84 Z M158.39 277.53 L156.92 285.55 L154.44 290.40 Z M119.30 258.51 L113.31 249.48 L118.92 255.27 Z M156.00 264.78 L155.76 275.35 L157.23 273.80 Z M159.78 216.05 L175.92 214.94 L164.51 232.31 Z M206.45 233.46 L216.50 244.54 L218.84 236.86 Z M214.11 234.62 L219.19 250.23 L210.23 234.25 Z M233.16 373.38 L232.56 370.73 L233.90 376.87 Z M193.91 320.65 L172.91 318.07 L187.38 325.52 Z M238.33 362.18 L230.61 368.56 L228.21 362.62 Z M334.16 329.76 L346.03 342.47 L329.73 323.82 Z M99.99 172.49 L102.90 150.32 L112.67 164.67 Z M308.89 361.18 L295.53 362.90 L291.70 356.85 Z M226.94 351.49 L212.97 352.74 L221.27 355.98 Z M309.98 374.64 L308.90 364.02 L304.53 352.34 Z M317.66 366.53 L339.42 363.02 L323.46 374.28 Z M120.44 261.22 L124.30 266.67 L129.93 276.50 Z M281.00 377.12 L284.15 383.10 L267.34 382.21 Z M323.46 374.28 L316.82 371.85 L317.66 366.53 Z M135.38 137.83 L146.60 147.42 L129.25 153.58 Z M302.23 300.65 L293.91 291.29 L301.17 300.02 Z M308.89 361.18 L320.80 343.90 L339.42 363.02 Z M341.30 380.83 L338.62 377.87 L321.91 389.56 Z M109.53 133.68 L106.62 143.67 L102.90 150.32 Z M268.89 319.75 L267.98 327.89 L283.97 321.85 Z M156.41 314.11 L153.12 310.53 L161.44 322.36 Z M332.94 383.33 L327.47 386.39 L324.54 385.53 Z M144.88 195.63 L145.67 203.90 L132.93 204.04 Z M87.46 153.06 L80.83 160.30 L83.73 153.72 Z M230.89 314.96 L245.54 330.23 L232.53 330.90 Z M223.41 260.60 L203.92 267.57 L210.82 263.49 Z M317.66 366.53 L316.82 371.85 L307.16 375.15 Z M254.17 285.50 L245.16 286.98 L252.97 279.59 Z M109.40 173.50 L99.99 172.49 L112.67 164.67 Z M212.61 210.41 L218.59 215.30 L214.85 214.50 Z M277.45 331.71 L294.67 330.11 L280.18 340.06 Z M230.36 238.57 L233.75 245.01 L233.92 236.27 Z M329.73 323.82 L346.03 342.47 L329.87 325.81 Z M152.61 141.96 L147.68 144.77 L139.88 131.99 Z M172.91 318.07 L170.76 332.43 L187.36 345.14 Z M221.64 326.29 L218.03 330.08 L221.81 338.66 Z M307.16 375.15 L323.46 374.28 L302.28 378.23 Z M233.75 245.01 L218.84 236.86 L226.93 247.57 Z M158.77 170.15 L164.78 184.81 L152.18 179.18 Z M200.86 217.60 L215.14 217.91 L223.87 227.29 Z M144.88 195.63 L132.93 204.04 L127.62 173.91 Z M139.15 239.35 L144.39 249.87 L135.43 242.68 Z M284.15 383.10 L281.00 377.12 L288.98 382.06 Z M206.64 360.34 L207.91 362.37 L197.58 356.29 Z M348.15 369.58 L355.81 361.93 L346.63 378.04 Z M157.40 213.72 L159.73 220.15 L172.17 220.10 Z M225.08 345.54 L228.93 357.26 L228.21 362.62 Z M133.69 131.84 L114.83 141.88 L116.08 129.85 Z M108.34 170.76 L109.51 161.64 L93.09 173.63 Z M201.55 321.29 L186.81 321.16 L177.71 302.55 Z M254.17 285.50 L262.64 289.12 L245.16 286.98 Z M302.21 350.00 L302.66 338.80 L318.15 337.06 Z M263.19 338.73 L266.56 339.65 L267.98 327.89 Z M145.81 175.41 L143.61 187.52 L150.69 185.56 Z M245.54 330.23 L253.24 320.37 L266.00 329.82 Z M309.60 317.36 L314.69 311.88 L303.02 303.49 Z M86.88 194.38 L90.76 195.55 L85.57 184.10 Z M346.63 378.04 L332.94 383.33 L324.54 385.53 Z M243.16 250.37 L233.75 245.01 L247.40 264.94 Z M263.13 360.91 L253.62 361.31 L225.08 345.54 Z M262.29 386.46 L271.28 385.83 L287.92 388.53 Z M221.64 326.29 L219.17 312.72 L210.79 307.73 Z M239.87 345.67 L228.55 344.94 L232.86 342.60 Z M137.34 253.12 L144.39 249.87 L146.46 267.31 Z M262.29 386.46 L266.65 386.80 L259.93 385.69 Z M215.72 315.25 L222.93 305.77 L231.26 300.53 Z M290.22 341.02 L274.98 341.39 L290.58 356.59 Z M230.61 368.56 L211.18 359.17 L216.26 357.22 Z M210.23 234.25 L200.86 217.60 L214.11 234.62 Z M132.93 204.04 L123.33 212.07 L119.93 212.49 Z M350.39 371.11 L349.01 364.27 L347.01 374.58 Z M281.44 389.39 L302.33 391.68 L291.08 389.31 Z M339.42 363.02 L337.62 347.01 L349.54 357.62 Z M288.59 286.56 L279.71 280.21 L285.36 290.00 Z M171.47 166.69 L164.19 167.89 L171.51 188.31 Z M130.51 271.65 L129.93 276.50 L124.30 266.67 Z M145.67 203.90 L152.27 218.97 L143.72 215.04 Z M187.38 325.52 L183.03 329.14 L193.91 320.65 Z M205.32 289.22 L203.71 267.43 L193.98 273.97 Z M206.44 324.99 L210.79 307.73 L193.91 320.65 Z M274.98 341.39 L267.98 327.89 L272.86 341.63 Z M291.08 389.31 L266.65 386.80 L281.44 389.39 Z M187.44 347.24 L190.80 343.50 L199.79 351.72 Z M302.21 350.00 L318.15 337.06 L309.24 350.30 Z M321.91 389.56 L327.47 386.39 L346.63 378.04 Z M103.18 200.66 L103.35 192.91 L113.15 212.21 Z M217.00 265.65 L233.02 265.13 L214.97 251.27 Z M149.63 304.93 L156.41 314.11 L154.41 308.31 Z M99.99 172.49 L97.83 185.10 L81.56 178.01 Z M168.20 255.31 L167.19 263.42 L170.73 260.84 Z M252.57 304.63 L260.39 314.39 L253.24 320.37 Z M263.13 360.91 L265.93 357.28 L275.55 363.32 Z M93.09 173.63 L79.56 181.24 L85.57 184.10 Z M147.64 158.69 L163.11 181.56 L164.19 167.89 Z M338.62 377.87 L338.37 366.36 L332.63 359.59 Z M111.46 153.91 L114.83 141.88 L112.67 164.67 Z M102.90 150.32 L112.52 141.92 L112.54 145.42 Z M155.06 176.26 L147.57 167.51 L145.81 175.41 Z M350.39 371.11 L351.53 374.68 L349.01 364.27 Z M205.64 220.30 L185.62 194.21 L195.97 222.62 Z M189.06 192.38 L202.06 200.90 L190.43 187.78 Z M114.04 233.84 L109.81 236.66 L103.77 229.23 Z M140.03 227.64 L143.72 215.04 L143.94 220.78 Z M351.53 374.68 L341.30 380.83 L321.91 389.56 Z M99.87 153.08 L111.10 148.31 L103.06 140.46 Z M103.77 229.23 L109.07 241.43 L100.48 223.96 Z M290.95 361.20 L295.53 362.90 L289.27 360.93 Z M228.93 357.26 L238.33 362.18 L228.21 362.62 Z M159.73 220.15 L157.40 213.72 L150.11 225.18 Z M153.12 310.53 L159.43 317.52 L167.85 331.27 Z M133.17 272.75 L120.32 255.48 L131.32 275.68 Z M218.84 236.86 L215.01 234.76 L206.45 233.46 Z M207.35 211.89 L201.44 213.96 L209.08 217.57 Z M261.33 277.44 L269.25 290.16 L276.82 288.40 Z M218.84 236.86 L213.12 228.62 L215.01 234.76 Z M243.16 250.37 L254.50 258.08 L247.22 247.89 Z M103.26 188.07 L99.99 172.49 L109.95 190.97 Z M338.62 377.87 L323.67 386.18 L324.33 387.69 Z M230.89 314.96 L238.14 305.87 L253.24 320.37 Z M178.35 267.74 L187.64 253.65 L168.20 255.31 Z M349.52 375.94 L352.37 374.56 L346.63 378.04 Z M341.97 355.32 L331.51 343.35 L332.63 359.59 Z M265.93 357.28 L263.13 360.91 L253.53 352.58 Z M121.78 132.15 L124.23 129.11 L112.18 133.03 Z M185.13 226.54 L210.23 234.25 L204.14 244.48 Z M126.32 225.29 L132.93 204.04 L134.85 221.59 Z M154.93 310.57 L158.62 312.13 L159.43 317.52 Z M130.84 257.32 L113.26 236.73 L120.32 255.48 Z M171.51 188.31 L171.06 202.29 L178.47 194.46 Z M205.64 220.30 L213.12 228.62 L209.08 217.57 Z M79.63 150.43 L83.76 146.82 L80.83 160.30 Z M319.60 333.20 L332.63 359.59 L331.51 343.35 Z M228.55 344.94 L217.78 327.23 L237.35 336.03 Z M103.77 229.23 L100.91 225.70 L100.15 222.30 Z M194.74 194.83 L186.65 200.31 L184.12 178.54 Z M91.26 140.52 L79.63 150.43 L79.33 153.73 Z M304.53 352.34 L290.58 356.59 L309.98 374.64 Z M114.83 141.88 L112.54 145.42 L112.52 141.92 Z M161.70 316.99 L166.82 316.54 L152.39 294.11 Z M136.16 265.61 L139.59 274.52 L143.05 271.13 Z M221.64 326.29 L235.34 338.65 L235.98 327.15 Z M253.62 361.31 L257.02 367.80 L244.30 365.62 Z M100.48 223.96 L96.63 217.67 L100.91 225.70 Z M100.54 213.08 L113.15 212.21 L108.68 216.94 Z M248.35 312.00 L267.98 327.89 L256.84 310.82 Z M121.64 173.60 L119.02 158.98 L108.34 170.76 Z M295.53 362.90 L290.95 361.20 L291.70 356.85 Z M147.17 294.22 L148.13 281.74 L139.59 274.52 Z M159.73 220.15 L166.50 232.44 L172.17 220.10 Z M163.14 297.05 L154.44 290.40 L156.92 285.55 Z M138.03 276.70 L142.66 282.70 L137.30 284.75 Z M93.28 195.05 L97.83 185.10 L103.18 200.66 Z M232.56 370.73 L226.10 374.71 L233.90 376.87 Z M293.54 307.00 L288.67 303.43 L309.25 316.24 Z M319.60 333.20 L301.91 317.57 L315.30 333.67 Z M120.44 261.22 L120.32 255.48 L113.31 249.48 Z M129.18 192.85 L117.98 183.29 L117.64 199.51 Z M291.08 389.31 L302.33 391.68 L307.24 390.31 Z M184.95 201.92 L177.35 182.14 L186.65 200.31 Z M218.03 330.08 L206.44 324.99 L221.81 338.66 Z M292.68 321.94 L287.90 311.62 L270.69 309.26 Z M212.50 341.89 L203.22 336.00 L208.69 332.32 Z M199.67 236.54 L206.45 233.46 L188.64 225.28 Z M239.05 377.39 L226.10 374.71 L217.51 370.83 Z M186.08 216.42 L195.97 222.62 L186.33 209.72 Z M205.67 355.42 L203.79 362.17 L212.07 366.82 Z M218.59 215.30 L208.10 205.36 L202.06 200.90 Z M323.46 374.28 L327.81 380.14 L319.88 381.61 Z M222.07 219.09 L227.60 226.08 L227.68 224.31 Z M123.16 140.81 L140.75 149.24 L142.24 144.43 Z M200.86 217.60 L199.99 229.12 L192.21 223.76 Z M173.56 165.66 L159.60 154.70 L162.62 152.97 Z M214.85 214.50 L208.10 205.36 L212.61 210.41 Z M322.70 316.68 L329.87 325.81 L328.92 329.57 Z M200.86 217.60 L185.13 226.54 L186.65 200.31 Z M163.14 297.05 L163.50 304.80 L163.05 310.93 Z M158.36 197.92 L171.51 188.31 L163.11 181.56 Z M264.84 267.84 L275.49 284.56 L260.19 272.55 Z M268.97 346.75 L280.18 340.06 L291.70 356.85 Z M185.62 194.21 L205.64 220.30 L201.44 213.96 Z M247.40 264.94 L233.02 265.13 L250.57 273.33 Z M243.16 250.37 L249.21 259.27 L254.50 258.08 Z M223.53 289.96 L212.65 276.02 L225.07 283.08 Z M121.18 146.18 L123.16 140.81 L111.10 148.31 Z M283.87 331.93 L274.98 341.39 L295.64 340.61 Z M210.82 263.49 L189.97 253.31 L223.41 260.60 Z M165.34 272.42 L171.65 257.34 L174.52 276.68 Z M249.59 264.91 L241.31 262.35 L238.73 253.38 Z M299.23 295.23 L312.39 307.28 L300.36 296.17 Z M139.15 239.35 L147.69 235.77 L144.39 249.87 Z M189.14 339.23 L205.67 355.42 L193.91 333.30 Z M187.61 299.90 L210.79 307.73 L175.58 291.45 Z M214.83 331.55 L208.69 332.32 L217.78 327.23 Z M324.54 385.53 L315.82 385.04 L319.88 381.61 Z M230.33 226.46 L229.61 234.37 L223.87 227.29 Z M269.25 290.16 L251.26 284.13 L257.14 291.24 Z M294.67 330.11 L277.45 331.71 L284.63 320.57 Z M211.18 359.17 L209.86 355.62 L216.26 357.22 Z M213.12 228.62 L195.97 222.62 L206.45 233.46 Z M186.17 270.26 L187.75 269.87 L182.20 281.61 Z M257.14 291.24 L256.84 310.82 L270.69 309.26 Z M156.41 314.11 L161.44 322.36 L167.85 331.27 Z M154.41 308.31 L156.41 314.11 L163.33 323.90 Z M120.44 261.22 L129.93 276.50 L131.32 275.68 Z M118.68 230.61 L130.84 257.32 L128.37 233.64 Z M315.96 310.59 L312.39 307.28 L301.79 298.14 Z M189.83 336.35 L190.80 343.50 L181.62 333.06 Z M303.02 303.49 L297.01 303.41 L296.71 309.45 Z M96.63 217.67 L97.67 214.96 L100.91 225.70 Z M195.52 299.01 L182.20 281.61 L203.35 286.87 Z M209.08 217.57 L222.09 228.09 L223.98 226.27 Z M245.54 330.23 L230.89 314.96 L253.24 320.37 Z M222.09 228.09 L209.08 217.57 L213.12 228.62 Z M189.90 351.08 L189.55 351.23 L197.58 356.29 Z M106.56 227.15 L97.67 214.96 L108.68 216.94 Z M128.37 233.64 L128.83 217.70 L127.00 205.85 Z M115.67 179.14 L116.10 191.79 L109.62 182.64 Z M111.08 227.61 L113.26 236.73 L118.68 230.61 Z M189.83 336.35 L181.62 333.06 L194.82 332.49 Z M248.70 371.67 L248.66 377.50 L246.09 376.00 Z M248.07 381.36 L233.90 376.87 L242.63 380.73 Z M255.42 254.11 L249.21 254.84 L246.08 246.81 Z M241.68 238.69 L246.08 246.81 L229.61 234.37 Z M210.79 307.73 L219.17 312.72 L224.34 298.20 Z M316.77 354.13 L306.99 357.63 L308.90 364.02 Z M150.11 225.18 L166.50 232.44 L159.73 220.15 Z M178.47 194.46 L171.06 202.29 L182.39 201.41 Z M112.67 164.67 L120.66 154.59 L129.25 153.58 Z M322.77 373.37 L306.02 380.85 L319.00 382.89 Z M221.81 338.66 L208.49 337.16 L226.94 351.49 Z M262.29 386.46 L267.34 382.21 L271.28 385.83 Z M272.86 341.63 L266.56 339.65 L261.23 347.89 Z M98.57 206.11 L102.66 218.78 L113.27 216.57 Z M262.72 259.27 L273.44 269.56 L277.61 275.77 Z M264.84 267.84 L249.21 254.84 L255.42 254.11 Z M205.32 289.22 L194.90 290.43 L210.79 307.73 Z M201.55 321.29 L191.98 308.90 L195.90 309.25 Z M118.22 248.42 L122.07 245.67 L132.00 255.50 Z M154.93 310.57 L151.44 305.65 L158.62 312.13 Z M284.88 372.20 L275.16 377.22 L283.64 380.71 Z M227.60 226.08 L222.07 219.09 L218.59 215.30 Z M319.00 382.89 L306.02 380.85 L302.53 387.32 Z M97.21 137.67 L86.69 141.65 L94.51 135.24 Z M288.67 303.43 L302.23 300.65 L309.25 316.24 Z M137.30 284.75 L137.06 286.01 L129.93 276.50 Z M113.27 216.57 L115.01 213.57 L117.64 199.51 Z M197.58 356.29 L189.55 351.23 L187.44 347.24 Z M97.67 214.96 L100.54 213.08 L108.68 216.94 Z M158.35 205.03 L152.27 218.97 L145.67 203.90 Z M311.46 387.99 L298.79 388.71 L305.62 385.60 Z M168.21 169.53 L164.78 184.81 L158.77 170.15 Z M303.77 391.06 L302.33 391.68 L298.49 390.78 Z M156.92 285.55 L158.39 277.53 L163.14 297.05 Z M314.29 312.18 L312.39 307.28 L322.70 316.68 Z M217.51 370.83 L203.79 362.17 L214.14 368.06 Z M179.04 214.84 L157.40 213.72 L172.17 220.10 Z M346.63 378.04 L357.37 367.27 L349.52 375.94 Z M127.97 146.69 L131.07 137.50 L135.38 137.83 Z M301.17 300.02 L296.99 293.86 L302.23 300.65 Z M292.80 368.95 L270.98 368.32 L275.55 363.32 Z M128.37 233.64 L145.19 234.88 L141.64 222.82 Z M248.35 312.00 L256.84 310.82 L233.46 301.04 Z M125.42 244.22 L122.07 245.67 L114.04 233.84 Z M122.07 245.67 L125.42 244.22 L132.00 255.50 Z M143.61 187.52 L150.33 194.37 L150.69 185.56 Z M296.99 293.86 L293.91 291.29 L290.26 286.26 Z M154.44 290.40 L145.24 288.84 L142.66 282.70 Z M109.53 133.68 L97.21 137.67 L109.60 129.80 Z M124.36 258.46 L118.22 248.42 L131.27 264.66 Z M186.17 270.26 L182.20 281.61 L171.65 257.34 Z M130.51 271.65 L138.03 276.70 L137.30 284.75 Z M351.53 374.68 L321.91 389.56 L346.63 378.04 Z M91.26 140.52 L94.51 135.24 L86.69 141.65 Z M189.90 351.08 L197.58 356.29 L198.21 357.55 Z M246.09 376.00 L248.66 377.50 L238.31 373.01 Z M245.16 286.98 L231.26 300.53 L242.07 282.63 Z M249.59 264.91 L229.61 234.37 L249.21 254.84 Z M185.49 241.27 L187.64 253.65 L206.60 254.95 Z M173.56 165.66 L179.23 171.55 L180.26 173.12 Z M221.11 368.93 L238.31 373.01 L224.08 372.19 Z M284.15 383.10 L305.80 384.36 L280.50 385.80 Z M312.39 307.28 L302.23 300.65 L300.36 296.17 Z M357.37 367.27 L354.03 358.75 L351.53 374.68 Z M277.61 275.77 L272.11 271.88 L262.72 259.27 Z M152.89 163.93 L129.25 153.58 L146.60 147.42 Z M168.20 255.31 L173.23 247.06 L165.64 240.19 Z M180.26 173.12 L187.35 182.46 L184.12 178.54 Z M124.23 129.11 L130.09 135.27 L142.81 134.66 Z M236.93 263.34 L236.88 258.72 L233.02 265.13 Z M195.54 203.75 L199.19 201.24 L189.06 192.38 Z M249.21 254.84 L264.84 267.84 L249.59 264.91 Z M258.39 381.42 L248.07 381.36 L259.93 385.69 Z M175.29 244.79 L189.97 253.31 L171.65 257.34 Z M287.92 388.53 L280.50 385.80 L298.79 388.71 Z M346.63 378.04 L324.54 385.53 L327.81 380.14 Z M91.20 205.39 L86.88 194.38 L78.45 181.88 Z M189.55 351.23 L187.36 345.14 L170.76 332.43 Z M222.93 305.77 L195.52 299.01 L203.35 286.87 Z M256.77 273.79 L260.19 272.55 L262.64 289.12 Z M302.21 350.00 L294.67 330.11 L302.66 338.80 Z M248.39 244.62 L262.72 259.27 L242.84 238.70 Z M350.07 346.84 L349.54 357.62 L348.59 347.41 Z M193.98 273.97 L197.89 267.06 L187.64 253.65 Z M317.66 366.53 L307.16 375.15 L292.80 368.95 Z M184.95 201.92 L175.92 214.94 L177.35 182.14 Z M143.94 220.78 L143.72 215.04 L152.27 218.97 Z M229.61 234.37 L223.15 237.20 L223.87 227.29 Z M103.77 229.23 L118.92 255.27 L113.31 249.48 Z M109.40 173.50 L112.67 164.67 L115.67 179.14 Z M306.35 337.35 L304.53 352.34 L315.45 346.85 Z M221.81 338.66 L235.34 338.65 L221.64 326.29 Z M227.60 226.08 L218.59 215.30 L202.06 200.90 Z "></path></svg>