<svg xmlns="http://www.w3.org/2000/svg" id="svg1" width="440" height="440" font-family="Times" font-size="14" oncopy="svg_copy(this);">
      <g id="gt" transform="translate(0,20)">
      </g>
	  <text x="10" y="408" id="legend" onclick="mesh_onoff=(mesh_onoff+1)%3;update();" style="fill1:#ff6633;stroke:none">(0.0381, 0.0381, 0.0381)<title>Mesh dimensions</title></text>
   <path id="Xp" stroke="red" stroke-width="0.875" stroke-dasharray="1,0" fill="none" fill-opacity="1" d="M220.00 220.00 L6704.27 764.65 Z "></path><path id="Xn" stroke="red" stroke-width="0.875" stroke-dasharray="2,4" fill="none" fill-opacity="1" d="M220.00 220.00 L-6264.27 -324.65 Z "></path><path id="Yp" stroke="green" stroke-width="0.875" stroke-dasharray="1,0" fill="none" fill-opacity="1" d="M220.00 220.00 L220.00 -6679.67 Z "></path><path id="Yn" stroke="green" stroke-width="0.875" stroke-dasharray="2,4" fill="none" fill-opacity="1" d="M220.00 220.00 L220.00 7119.67 Z "></path><path id="Zp" stroke="blue" stroke-width="0.875" stroke-dasharray="1,0" fill="none" fill-opacity="1" d="M220.00 220.00 L-2521.51 1508.23 Z "></path><path id="Zn" stroke="blue" stroke-width="0.875" stroke-dasharray="2,4" fill="none" fill-opacity="1" d="M220.00 220.00 L2961.51 -1068.23 Z "></path><circle id="O" fill="black" stroke-width="1" stroke="none" r="4" cx="220" cy="220"><title>[0,0,0]</title></circle><circle id="lambda_0" fill="#FFAA33" stroke-width="1" stroke="none" r="4" cx="346.27261458835346" cy="230.60640032221363"><title>λ/2=0.0195</title></circle><path id="B11" stroke="black" stroke-width="0.5" stroke-dasharray="1,0" fill="none" fill-opacity="1" d="M147.11 318.67 L40.34 368.84 L40.34 100.12 L147.11 49.95 Z M399.66 339.88 L292.89 390.05 L292.89 121.33 L399.66 71.16 Z M147.11 318.67 L399.66 339.88 Z M40.34 368.84 L292.89 390.05 Z M40.34 100.12 L292.89 121.33 Z M147.11 49.95 L399.66 71.16 Z Z "></path><path id="B1" stroke="black" stroke-width="0.5" stroke-dasharray="2,4" fill="none" fill-opacity="1" d="M231.30 325.74 L124.52 375.91 L124.52 107.19 L231.30 57.02 Z M315.48 332.81 L208.70 382.98 L208.70 114.26 L315.48 64.09 Z M147.11 229.09 L40.34 279.27 L292.89 300.48 L399.66 250.31 Z M147.11 139.52 L40.34 189.69 L292.89 210.91 L399.66 160.73 Z M111.52 335.39 L111.52 66.67 L364.07 87.88 L364.07 356.61 Z M75.93 352.12 L75.93 83.39 L328.48 104.61 L328.48 373.33 Z "></path><path id="C1" stroke="green" stroke-width="1" stroke-dasharray="1,2" fill="none" fill-opacity="1" d="M405.29 235.56 L405.26 232.12 L405.18 228.67 L405.04 225.22 L404.84 221.77 L404.59 218.32 L404.28 214.87 L403.91 211.42 L403.49 207.97 L403.01 204.53 L402.48 201.09 L401.89 197.66 L401.24 194.23 L400.54 190.81 L399.79 187.40 L398.98 184.00 L398.11 180.62 L397.20 177.24 L396.22 173.88 L395.20 170.53 L394.12 167.19 L392.99 163.87 L391.80 160.57 L390.56 157.29 L389.27 154.02 L387.93 150.78 L386.54 147.56 L385.10 144.36 L383.60 141.18 L382.06 138.03 L380.47 134.90 L378.83 131.79 L377.14 128.72 L375.40 125.67 L373.61 122.65 L371.78 119.66 L369.91 116.70 L367.98 113.77 L366.01 110.88 L364.00 108.02 L361.94 105.19 L359.84 102.40 L357.70 99.64 L355.51 96.92 L353.29 94.23 L351.02 91.59 L348.72 88.98 L346.37 86.42 L343.99 83.89 L341.56 81.41 L339.10 78.97 L336.61 76.57 L334.08 74.22 L331.51 71.91 L328.91 69.64 L326.28 67.42 L323.61 65.25 L320.92 63.12 L318.19 61.04 L315.43 59.01 L312.65 57.03 L309.83 55.10 L306.99 53.22 L304.12 51.39 L301.23 49.61 L298.31 47.89 L295.37 46.21 L292.40 44.59 L289.41 43.02 L286.40 41.51 L283.37 40.05 L280.33 38.65 L277.26 37.30 L274.17 36.00 L271.07 34.76 L267.96 33.58 L264.83 32.46 L261.68 31.39 L258.52 30.38 L255.36 29.43 L252.18 28.53 L248.99 27.70 L245.79 26.92 L242.58 26.20 L239.37 25.54 L236.15 24.94 L232.93 24.40 L229.70 23.92 L226.47 23.50 L223.23 23.14 L220.00 22.84 L216.77 22.60 L213.53 22.41 L210.30 22.29 L207.07 22.23 L203.85 22.23 L200.63 22.29 L197.42 22.41 L194.21 22.59 L191.01 22.83 L187.82 23.13 L184.64 23.49 L181.48 23.91 L178.32 24.39 L175.17 24.93 L172.04 25.53 L168.93 26.18 L165.83 26.90 L162.74 27.68 L159.67 28.51 L156.63 29.40 L153.60 30.35 L150.59 31.36 L147.60 32.43 L144.63 33.55 L141.69 34.73 L138.77 35.97 L135.88 37.26 L133.01 38.61 L130.17 40.01 L127.35 41.47 L124.57 42.98 L121.81 44.55 L119.08 46.17 L116.39 47.84 L113.72 49.57 L111.09 51.34 L108.49 53.17 L105.92 55.05 L103.39 56.98 L100.90 58.96 L98.44 60.99 L96.01 63.06 L93.63 65.19 L91.28 67.36 L88.98 69.58 L86.71 71.84 L84.49 74.15 L82.30 76.51 L80.16 78.90 L78.06 81.34 L76.00 83.83 L73.99 86.35 L72.02 88.91 L70.09 91.52 L68.22 94.16 L66.39 96.84 L64.60 99.56 L62.86 102.32 L61.17 105.11 L59.53 107.94 L57.94 110.80 L56.40 113.70 L54.90 116.62 L53.46 119.58 L52.07 122.57 L50.73 125.59 L49.44 128.64 L48.20 131.71 L47.01 134.81 L45.88 137.94 L44.80 141.09 L43.78 144.27 L42.80 147.47 L41.89 150.69 L41.02 153.94 L40.21 157.20 L39.46 160.48 L38.76 163.78 L38.11 167.10 L37.52 170.44 L36.99 173.78 L36.51 177.15 L36.09 180.52 L35.72 183.91 L35.41 187.31 L35.16 190.72 L34.96 194.14 L34.82 197.56 L34.74 201.00 L34.71 204.44 L34.74 207.88 L34.82 211.33 L34.96 214.78 L35.16 218.23 L35.41 221.68 L35.72 225.13 L36.09 228.58 L36.51 232.03 L36.99 235.47 L37.52 238.91 L38.11 242.34 L38.76 245.77 L39.46 249.19 L40.21 252.60 L41.02 256.00 L41.89 259.38 L42.80 262.76 L43.78 266.12 L44.80 269.47 L45.88 272.81 L47.01 276.13 L48.20 279.43 L49.44 282.71 L50.73 285.98 L52.07 289.22 L53.46 292.44 L54.90 295.64 L56.40 298.82 L57.94 301.97 L59.53 305.10 L61.17 308.21 L62.86 311.28 L64.60 314.33 L66.39 317.35 L68.22 320.34 L70.09 323.30 L72.02 326.23 L73.99 329.12 L76.00 331.98 L78.06 334.81 L80.16 337.60 L82.30 340.36 L84.49 343.08 L86.71 345.77 L88.98 348.41 L91.28 351.02 L93.63 353.58 L96.01 356.11 L98.44 358.59 L100.90 361.03 L103.39 363.43 L105.92 365.78 L108.49 368.09 L111.09 370.36 L113.72 372.58 L116.39 374.75 L119.08 376.88 L121.81 378.96 L124.57 380.99 L127.35 382.97 L130.17 384.90 L133.01 386.78 L135.88 388.61 L138.77 390.39 L141.69 392.11 L144.63 393.79 L147.60 395.41 L150.59 396.98 L153.60 398.49 L156.63 399.95 L159.67 401.35 L162.74 402.70 L165.83 404.00 L168.93 405.24 L172.04 406.42 L175.17 407.54 L178.32 408.61 L181.48 409.62 L184.64 410.57 L187.82 411.47 L191.01 412.30 L194.21 413.08 L197.42 413.80 L200.63 414.46 L203.85 415.06 L207.07 415.60 L210.30 416.08 L213.53 416.50 L216.77 416.86 L220.00 417.16 L223.23 417.40 L226.47 417.59 L229.70 417.71 L232.93 417.77 L236.15 417.77 L239.37 417.71 L242.58 417.59 L245.79 417.41 L248.99 417.17 L252.18 416.87 L255.36 416.51 L258.52 416.09 L261.68 415.61 L264.83 415.07 L267.96 414.47 L271.07 413.82 L274.17 413.10 L277.26 412.32 L280.33 411.49 L283.37 410.60 L286.40 409.65 L289.41 408.64 L292.40 407.57 L295.37 406.45 L298.31 405.27 L301.23 404.03 L304.12 402.74 L306.99 401.39 L309.83 399.99 L312.65 398.53 L315.43 397.02 L318.19 395.45 L320.92 393.83 L323.61 392.16 L326.28 390.43 L328.91 388.66 L331.51 386.83 L334.08 384.95 L336.61 383.02 L339.10 381.04 L341.56 379.01 L343.99 376.94 L346.37 374.81 L348.72 372.64 L351.02 370.42 L353.29 368.16 L355.51 365.85 L357.70 363.49 L359.84 361.10 L361.94 358.66 L364.00 356.17 L366.01 353.65 L367.98 351.09 L369.91 348.48 L371.78 345.84 L373.61 343.16 L375.40 340.44 L377.14 337.68 L378.83 334.89 L380.47 332.06 L382.06 329.20 L383.60 326.30 L385.10 323.38 L386.54 320.42 L387.93 317.43 L389.27 314.41 L390.56 311.36 L391.80 308.29 L392.99 305.19 L394.12 302.06 L395.20 298.91 L396.22 295.73 L397.20 292.53 L398.11 289.31 L398.98 286.06 L399.79 282.80 L400.54 279.52 L401.24 276.22 L401.89 272.90 L402.48 269.56 L403.01 266.22 L403.49 262.85 L403.91 259.48 L404.28 256.09 L404.59 252.69 L404.84 249.28 L405.04 245.86 L405.18 242.44 L405.26 239.00 Z "></path><path id="C1h" stroke="green" stroke-width="1" stroke-dasharray="1,2" fill="none" fill-opacity="1" d="M405.29 235.56 L403.90 236.20 L402.45 236.84 L400.94 237.47 L399.38 238.09 L397.76 238.71 L396.09 239.33 L394.36 239.93 L392.59 240.54 L390.76 241.13 L388.87 241.72 L386.94 242.30 L384.96 242.88 L382.92 243.45 L380.84 244.01 L378.70 244.56 L376.52 245.11 L374.29 245.65 L372.02 246.18 L369.69 246.70 L367.32 247.22 L364.91 247.72 L362.45 248.22 L359.95 248.71 L357.41 249.19 L354.82 249.66 L352.20 250.13 L349.53 250.58 L346.83 251.02 L344.08 251.46 L341.30 251.88 L338.48 252.30 L335.62 252.71 L332.73 253.10 L329.81 253.49 L326.85 253.86 L323.86 254.23 L320.83 254.58 L317.78 254.93 L314.70 255.26 L311.59 255.58 L308.45 255.90 L305.28 256.20 L302.09 256.49 L298.87 256.77 L295.63 257.04 L292.36 257.29 L289.07 257.54 L285.77 257.77 L282.44 257.99 L279.09 258.20 L275.73 258.40 L272.34 258.59 L268.95 258.77 L265.53 258.93 L262.11 259.08 L258.67 259.22 L255.22 259.35 L251.75 259.47 L248.28 259.57 L244.80 259.66 L241.31 259.74 L237.82 259.81 L234.32 259.87 L230.82 259.91 L227.31 259.94 L223.80 259.96 L220.29 259.97 L216.78 259.96 L213.27 259.94 L209.76 259.92 L206.25 259.87 L202.75 259.82 L199.26 259.75 L195.77 259.68 L192.29 259.59 L188.81 259.48 L185.35 259.37 L181.90 259.24 L178.45 259.11 L175.03 258.96 L171.61 258.79 L168.21 258.62 L164.82 258.43 L161.46 258.24 L158.11 258.03 L154.78 257.81 L151.46 257.58 L148.17 257.33 L144.91 257.08 L141.66 256.81 L138.44 256.53 L135.24 256.25 L132.07 255.95 L128.92 255.64 L125.81 255.32 L122.72 254.98 L119.66 254.64 L116.63 254.29 L113.64 253.92 L110.67 253.55 L107.74 253.17 L104.85 252.77 L101.99 252.37 L99.16 251.95 L96.37 251.53 L93.62 251.10 L90.91 250.65 L88.24 250.20 L85.60 249.74 L83.01 249.27 L80.46 248.79 L77.95 248.30 L75.49 247.80 L73.07 247.30 L70.69 246.79 L68.36 246.26 L66.08 245.73 L63.84 245.20 L61.65 244.65 L59.51 244.10 L57.42 243.54 L55.37 242.97 L53.38 242.40 L51.44 241.82 L49.55 241.23 L47.71 240.63 L45.92 240.03 L44.19 239.43 L42.51 238.81 L40.88 238.20 L39.31 237.57 L37.80 236.94 L36.34 236.31 L34.93 235.67 L33.58 235.02 L32.29 234.38 L31.06 233.72 L29.88 233.07 L28.76 232.40 L27.70 231.74 L26.70 231.07 L25.76 230.40 L24.87 229.72 L24.05 229.05 L23.28 228.37 L22.58 227.68 L21.93 227.00 L21.35 226.31 L20.82 225.62 L20.36 224.93 L19.96 224.23 L19.62 223.54 L19.34 222.84 L19.12 222.15 L18.96 221.45 L18.86 220.75 L18.83 220.06 L18.85 219.36 L18.94 218.66 L19.09 217.97 L19.30 217.27 L19.57 216.57 L19.90 215.88 L20.29 215.19 L20.74 214.49 L21.26 213.80 L21.83 213.12 L22.47 212.43 L23.16 211.75 L23.92 211.06 L24.73 210.39 L25.61 209.71 L26.54 209.04 L27.53 208.37 L28.58 207.70 L29.69 207.04 L30.86 206.38 L32.09 205.73 L33.37 205.08 L34.71 204.44 L36.10 203.80 L37.55 203.16 L39.06 202.53 L40.62 201.91 L42.24 201.29 L43.91 200.67 L45.64 200.07 L47.41 199.46 L49.24 198.87 L51.13 198.28 L53.06 197.70 L55.04 197.12 L57.08 196.55 L59.16 195.99 L61.30 195.44 L63.48 194.89 L65.71 194.35 L67.98 193.82 L70.31 193.30 L72.68 192.78 L75.09 192.28 L77.55 191.78 L80.05 191.29 L82.59 190.81 L85.18 190.34 L87.80 189.87 L90.47 189.42 L93.17 188.98 L95.92 188.54 L98.70 188.12 L101.52 187.70 L104.38 187.29 L107.27 186.90 L110.19 186.51 L113.15 186.14 L116.14 185.77 L119.17 185.42 L122.22 185.07 L125.30 184.74 L128.41 184.42 L131.55 184.10 L134.72 183.80 L137.91 183.51 L141.13 183.23 L144.37 182.96 L147.64 182.71 L150.93 182.46 L154.23 182.23 L157.56 182.01 L160.91 181.80 L164.27 181.60 L167.66 181.41 L171.05 181.23 L174.47 181.07 L177.89 180.92 L181.33 180.78 L184.78 180.65 L188.25 180.53 L191.72 180.43 L195.20 180.34 L198.69 180.26 L202.18 180.19 L205.68 180.13 L209.18 180.09 L212.69 180.06 L216.20 180.04 L219.71 180.03 L223.22 180.04 L226.73 180.06 L230.24 180.08 L233.75 180.13 L237.25 180.18 L240.74 180.25 L244.23 180.32 L247.71 180.41 L251.19 180.52 L254.65 180.63 L258.10 180.76 L261.55 180.89 L264.97 181.04 L268.39 181.21 L271.79 181.38 L275.18 181.57 L278.54 181.76 L281.89 181.97 L285.22 182.19 L288.54 182.42 L291.83 182.67 L295.09 182.92 L298.34 183.19 L301.56 183.47 L304.76 183.75 L307.93 184.05 L311.08 184.36 L314.19 184.68 L317.28 185.02 L320.34 185.36 L323.37 185.71 L326.36 186.08 L329.33 186.45 L332.26 186.83 L335.15 187.23 L338.01 187.63 L340.84 188.05 L343.63 188.47 L346.38 188.90 L349.09 189.35 L351.76 189.80 L354.40 190.26 L356.99 190.73 L359.54 191.21 L362.05 191.70 L364.51 192.20 L366.93 192.70 L369.31 193.21 L371.64 193.74 L373.92 194.27 L376.16 194.80 L378.35 195.35 L380.49 195.90 L382.58 196.46 L384.63 197.03 L386.62 197.60 L388.56 198.18 L390.45 198.77 L392.29 199.37 L394.08 199.97 L395.81 200.57 L397.49 201.19 L399.12 201.80 L400.69 202.43 L402.20 203.06 L403.66 203.69 L405.07 204.33 L406.42 204.98 L407.71 205.62 L408.94 206.28 L410.12 206.93 L411.24 207.60 L412.30 208.26 L413.30 208.93 L414.24 209.60 L415.13 210.28 L415.95 210.95 L416.72 211.63 L417.42 212.32 L418.07 213.00 L418.65 213.69 L419.18 214.38 L419.64 215.07 L420.04 215.77 L420.38 216.46 L420.66 217.16 L420.88 217.85 L421.04 218.55 L421.14 219.25 L421.17 219.94 L421.15 220.64 L421.06 221.34 L420.91 222.03 L420.70 222.73 L420.43 223.43 L420.10 224.12 L419.71 224.81 L419.26 225.51 L418.74 226.20 L418.17 226.88 L417.53 227.57 L416.84 228.25 L416.08 228.94 L415.27 229.61 L414.39 230.29 L413.46 230.96 L412.47 231.63 L411.42 232.30 L410.31 232.96 L409.14 233.62 L407.91 234.27 L406.63 234.92 Z "></path><path id="C2" stroke="green" stroke-width="1" stroke-dasharray="1,1" fill="none" fill-opacity="1" d="M405.29 235.56 L399.73 235.10 Z M398.98 184.00 L393.61 185.08 Z M380.47 134.90 L375.65 137.45 Z M351.02 91.59 L347.09 95.44 Z M312.65 57.03 L309.87 61.92 Z M267.96 33.58 L266.52 39.18 Z M220.00 22.84 L220.00 28.75 Z M172.04 25.53 L173.48 31.36 Z M127.35 41.47 L130.13 46.83 Z M88.98 69.58 L92.91 74.09 Z M59.53 107.94 L64.35 111.30 Z M41.02 153.94 L46.39 155.92 Z M34.71 204.44 L40.27 204.90 Z M41.02 256.00 L46.39 254.92 Z M59.53 305.10 L64.35 302.55 Z M88.98 348.41 L92.91 344.56 Z M127.35 382.97 L130.13 378.08 Z M172.04 406.42 L173.48 400.82 Z M220.00 417.16 L220.00 411.25 Z M267.96 414.47 L266.52 408.64 Z M312.65 398.53 L309.87 393.17 Z M351.02 370.42 L347.09 365.91 Z M380.47 332.06 L375.65 328.70 Z M398.98 286.06 L393.61 284.08 Z "></path><path id="C2h" stroke="green" stroke-width="1" stroke-dasharray="1,1" fill="none" fill-opacity="1" d="M405.29 235.56 L399.73 235.10 Z M378.70 244.56 L373.94 243.82 Z M341.30 251.88 L337.66 250.93 Z M295.63 257.04 L293.36 255.92 Z M244.80 259.66 L244.06 258.47 Z M192.29 259.59 L193.12 258.40 Z M141.66 256.81 L144.01 255.71 Z M96.37 251.53 L100.08 250.58 Z M59.51 244.10 L64.32 243.38 Z M33.58 235.02 L39.18 234.57 Z M20.36 224.93 L26.35 224.78 Z M20.74 214.49 L26.72 214.66 Z M34.71 204.44 L40.27 204.90 Z M61.30 195.44 L66.06 196.18 Z M98.70 188.12 L102.34 189.07 Z M144.37 182.96 L146.64 184.08 Z M195.20 180.34 L195.94 181.53 Z M247.71 180.41 L246.88 181.60 Z M298.34 183.19 L295.99 184.29 Z M343.63 188.47 L339.92 189.42 Z M380.49 195.90 L375.68 196.62 Z M406.42 204.98 L400.82 205.43 Z M419.64 215.07 L413.65 215.22 Z M419.26 225.51 L413.28 225.34 Z "></path><circle id="th_xy" fill="green" stroke-width="1" stroke="none" r="4" cx="220" cy="22.836848484959773"><title>θ=270 Φ=0</title></circle><path id="M" stroke="#0b22ae" stroke-width="0.5" stroke-dasharray="1,0" fill="none" fill-opacity="1" d="M220.00 88.56 L210.93 94.82 L214.79 95.06 L220.00 88.56 Z M220.00 88.56 L214.79 95.06 L218.81 95.18 L220.00 88.56 Z M220.00 88.56 L218.81 95.18 L222.87 95.15 L220.00 88.56 Z M220.00 88.56 L222.87 95.15 L226.84 94.98 L220.00 88.56 Z M220.00 88.56 L226.84 94.98 L230.60 94.67 L220.00 88.56 Z M220.00 88.56 L230.60 94.67 L234.04 94.25 L220.00 88.56 Z M220.00 88.56 L234.04 94.25 L237.06 93.71 L220.00 88.56 Z M220.00 88.56 L237.06 93.71 L239.55 93.07 L220.00 88.56 Z M220.00 88.56 L239.55 93.07 L241.45 92.36 L220.00 88.56 Z M220.00 88.56 L241.45 92.36 L242.70 91.59 L220.00 88.56 Z M220.00 88.56 L242.70 91.59 L243.26 90.79 L220.00 88.56 Z M220.00 88.56 L243.26 90.79 L243.11 89.99 L220.00 88.56 Z M220.00 88.56 L243.11 89.99 L242.26 89.20 L220.00 88.56 Z M220.00 88.56 L242.26 89.20 L240.73 88.45 L220.00 88.56 Z M220.00 88.56 L240.73 88.45 L238.58 87.77 L220.00 88.56 Z M220.00 88.56 L238.58 87.77 L235.86 87.17 L220.00 88.56 Z M220.00 88.56 L235.86 87.17 L232.65 86.67 L220.00 88.56 Z M220.00 88.56 L232.65 86.67 L229.07 86.29 L220.00 88.56 Z M220.00 88.56 L229.07 86.29 L225.21 86.05 L220.00 88.56 Z M220.00 88.56 L225.21 86.05 L221.19 85.93 L220.00 88.56 Z M220.00 88.56 L221.19 85.93 L217.13 85.96 L220.00 88.56 Z M220.00 88.56 L217.13 85.96 L213.16 86.13 L220.00 88.56 Z M220.00 88.56 L213.16 86.13 L209.40 86.44 L220.00 88.56 Z M220.00 88.56 L209.40 86.44 L205.96 86.86 L220.00 88.56 Z M220.00 88.56 L205.96 86.86 L202.94 87.41 L220.00 88.56 Z M220.00 88.56 L202.94 87.41 L200.45 88.04 L220.00 88.56 Z M220.00 88.56 L200.45 88.04 L198.55 88.75 L220.00 88.56 Z M220.00 88.56 L198.55 88.75 L197.30 89.52 L220.00 88.56 Z M220.00 88.56 L197.30 89.52 L196.74 90.32 L220.00 88.56 Z M220.00 88.56 L196.74 90.32 L196.89 91.13 L220.00 88.56 Z M220.00 88.56 L196.89 91.13 L197.74 91.91 L220.00 88.56 Z M220.00 88.56 L197.74 91.91 L199.27 92.66 L220.00 88.56 Z M220.00 88.56 L199.27 92.66 L201.42 93.35 L220.00 88.56 Z M220.00 88.56 L201.42 93.35 L204.14 93.94 L220.00 88.56 Z M220.00 88.56 L204.14 93.94 L207.35 94.44 L220.00 88.56 Z M220.00 88.56 L207.35 94.44 L210.93 94.82 L220.00 88.56 Z M210.93 94.82 L202.14 104.88 L209.74 105.37 L214.79 95.06 Z M214.79 95.06 L209.74 105.37 L217.66 105.59 L218.81 95.18 Z M218.81 95.18 L217.66 105.59 L225.66 105.53 L222.87 95.15 Z M222.87 95.15 L225.66 105.53 L233.47 105.20 L226.84 94.98 Z M226.84 94.98 L233.47 105.20 L240.88 104.60 L230.60 94.67 Z M230.60 94.67 L240.88 104.60 L247.66 103.76 L234.04 94.25 Z M234.04 94.25 L247.66 103.76 L253.60 102.69 L237.06 93.71 Z M237.06 93.71 L253.60 102.69 L258.50 101.44 L239.55 93.07 Z M239.55 93.07 L258.50 101.44 L262.25 100.04 L241.45 92.36 Z M241.45 92.36 L262.25 100.04 L264.70 98.53 L242.70 91.59 Z M242.70 91.59 L264.70 98.53 L265.81 96.95 L243.26 90.79 Z M243.26 90.79 L265.81 96.95 L265.52 95.37 L243.11 89.99 Z M243.11 89.99 L265.52 95.37 L263.84 93.81 L242.26 89.20 Z M242.26 89.20 L263.84 93.81 L260.84 92.34 L240.73 88.45 Z M240.73 88.45 L260.84 92.34 L256.60 90.99 L238.58 87.77 Z M238.58 87.77 L256.60 90.99 L251.23 89.81 L235.86 87.17 Z M235.86 87.17 L251.23 89.81 L244.92 88.84 L232.65 86.67 Z M232.65 86.67 L244.92 88.84 L237.86 88.10 L229.07 86.29 Z M229.07 86.29 L237.86 88.10 L230.26 87.61 L225.21 86.05 Z M225.21 86.05 L230.26 87.61 L222.34 87.39 L221.19 85.93 Z M221.19 85.93 L222.34 87.39 L214.34 87.45 L217.13 85.96 Z M217.13 85.96 L214.34 87.45 L206.53 87.78 L213.16 86.13 Z M213.16 86.13 L206.53 87.78 L199.12 88.38 L209.40 86.44 Z M209.40 86.44 L199.12 88.38 L192.34 89.22 L205.96 86.86 Z M205.96 86.86 L192.34 89.22 L186.40 90.28 L202.94 87.41 Z M202.94 87.41 L186.40 90.28 L181.50 91.54 L200.45 88.04 Z M200.45 88.04 L181.50 91.54 L177.75 92.94 L198.55 88.75 Z M198.55 88.75 L177.75 92.94 L175.30 94.45 L197.30 89.52 Z M197.30 89.52 L175.30 94.45 L174.19 96.02 L196.74 90.32 Z M196.74 90.32 L174.19 96.02 L174.48 97.61 L196.89 91.13 Z M196.89 91.13 L174.48 97.61 L176.16 99.17 L197.74 91.91 Z M197.74 91.91 L176.16 99.17 L179.16 100.64 L199.27 92.66 Z M199.27 92.66 L179.16 100.64 L183.40 101.98 L201.42 93.35 Z M201.42 93.35 L183.40 101.98 L188.77 103.16 L204.14 93.94 Z M204.14 93.94 L188.77 103.16 L195.08 104.14 L207.35 94.44 Z M207.35 94.44 L195.08 104.14 L202.14 104.88 L210.93 94.82 Z M202.14 104.88 L193.89 118.44 L205.01 119.15 L209.74 105.37 Z M209.74 105.37 L205.01 119.15 L216.59 119.47 L217.66 105.59 Z M217.66 105.59 L216.59 119.47 L228.26 119.39 L225.66 105.53 Z M225.66 105.53 L228.26 119.39 L239.70 118.90 L233.47 105.20 Z M233.47 105.20 L239.70 118.90 L250.53 118.03 L240.88 104.60 Z M240.88 104.60 L250.53 118.03 L260.43 116.80 L247.66 103.76 Z M247.66 103.76 L260.43 116.80 L269.11 115.24 L253.60 102.69 Z M253.60 102.69 L269.11 115.24 L276.29 113.41 L258.50 101.44 Z M258.50 101.44 L276.29 113.41 L281.76 111.36 L262.25 100.04 Z M262.25 100.04 L281.76 111.36 L285.36 109.15 L264.70 98.53 Z M264.70 98.53 L285.36 109.15 L286.97 106.85 L265.81 96.95 Z M265.81 96.95 L286.97 106.85 L286.54 104.53 L265.52 95.37 Z M265.52 95.37 L286.54 104.53 L284.10 102.26 L263.84 93.81 Z M263.84 93.81 L284.10 102.26 L279.71 100.10 L260.84 92.34 Z M260.84 92.34 L279.71 100.10 L273.50 98.14 L256.60 90.99 Z M256.60 90.99 L273.50 98.14 L265.66 96.41 L251.23 89.81 Z M251.23 89.81 L265.66 96.41 L256.44 94.99 L244.92 88.84 Z M244.92 88.84 L256.44 94.99 L246.11 93.90 L237.86 88.10 Z M237.86 88.10 L246.11 93.90 L234.99 93.18 L230.26 87.61 Z M230.26 87.61 L234.99 93.18 L223.41 92.86 L222.34 87.39 Z M222.34 87.39 L223.41 92.86 L211.73 92.95 L214.34 87.45 Z M214.34 87.45 L211.73 92.95 L200.30 93.43 L206.53 87.78 Z M206.53 87.78 L200.30 93.43 L189.47 94.31 L199.12 88.38 Z M199.12 88.38 L189.47 94.31 L179.57 95.54 L192.34 89.22 Z M192.34 89.22 L179.57 95.54 L170.89 97.10 L186.40 90.28 Z M186.40 90.28 L170.89 97.10 L163.71 98.93 L181.50 91.54 Z M181.50 91.54 L163.71 98.93 L158.24 100.98 L177.75 92.94 Z M177.75 92.94 L158.24 100.98 L154.64 103.19 L175.30 94.45 Z M175.30 94.45 L154.64 103.19 L153.03 105.49 L174.19 96.02 Z M174.19 96.02 L153.03 105.49 L153.46 107.81 L174.48 97.61 Z M174.48 97.61 L153.46 107.81 L155.90 110.08 L176.16 99.17 Z M176.16 99.17 L155.90 110.08 L160.29 112.23 L179.16 100.64 Z M179.16 100.64 L160.29 112.23 L166.51 114.20 L183.40 101.98 Z M183.40 101.98 L166.51 114.20 L174.34 115.93 L188.77 103.16 Z M188.77 103.16 L174.34 115.93 L183.56 117.35 L195.08 104.14 Z M195.08 104.14 L183.56 117.35 L193.89 118.44 L202.14 104.88 Z M193.89 118.44 L186.43 135.09 L200.73 136.01 L205.01 119.15 Z M205.01 119.15 L200.73 136.01 L215.61 136.42 L216.59 119.47 Z M216.59 119.47 L215.61 136.42 L230.63 136.31 L228.26 119.39 Z M228.26 119.39 L230.63 136.31 L245.32 135.68 L239.70 118.90 Z M239.70 118.90 L245.32 135.68 L259.24 134.56 L250.53 118.03 Z M250.53 118.03 L259.24 134.56 L271.98 132.98 L260.43 116.80 Z M260.43 116.80 L271.98 132.98 L283.13 130.98 L269.11 115.24 Z M269.11 115.24 L283.13 130.98 L292.37 128.62 L276.29 113.41 Z M276.29 113.41 L292.37 128.62 L299.40 125.98 L281.76 111.36 Z M281.76 111.36 L299.40 125.98 L304.02 123.14 L285.36 109.15 Z M285.36 109.15 L304.02 123.14 L306.10 120.19 L286.97 106.85 Z M286.97 106.85 L306.10 120.19 L305.55 117.20 L286.54 104.53 Z M286.54 104.53 L305.55 117.20 L302.40 114.28 L284.10 102.26 Z M284.10 102.26 L302.40 114.28 L296.75 111.52 L279.71 100.10 Z M279.71 100.10 L296.75 111.52 L288.78 108.99 L273.50 98.14 Z M273.50 98.14 L288.78 108.99 L278.70 106.77 L265.66 96.41 Z M265.66 96.41 L278.70 106.77 L266.85 104.94 L256.44 94.99 Z M256.44 94.99 L266.85 104.94 L253.57 103.54 L246.11 93.90 Z M246.11 93.90 L253.57 103.54 L239.27 102.62 L234.99 93.18 Z M234.99 93.18 L239.27 102.62 L224.39 102.21 L223.41 92.86 Z M223.41 92.86 L224.39 102.21 L209.37 102.32 L211.73 92.95 Z M211.73 92.95 L209.37 102.32 L194.68 102.94 L200.30 93.43 Z M200.30 93.43 L194.68 102.94 L180.76 104.06 L189.47 94.31 Z M189.47 94.31 L180.76 104.06 L168.02 105.65 L179.57 95.54 Z M179.57 95.54 L168.02 105.65 L156.87 107.65 L170.89 97.10 Z M170.89 97.10 L156.87 107.65 L147.63 110.01 L163.71 98.93 Z M163.71 98.93 L147.63 110.01 L140.60 112.64 L158.24 100.98 Z M158.24 100.98 L140.60 112.64 L135.98 115.48 L154.64 103.19 Z M154.64 103.19 L135.98 115.48 L133.90 118.44 L153.03 105.49 Z M153.03 105.49 L133.90 118.44 L134.45 121.42 L153.46 107.81 Z M153.46 107.81 L134.45 121.42 L137.60 124.34 L155.90 110.08 Z M155.90 110.08 L137.60 124.34 L143.25 127.11 L160.29 112.23 Z M160.29 112.23 L143.25 127.11 L151.22 129.64 L166.51 114.20 Z M166.51 114.20 L151.22 129.64 L161.30 131.86 L174.34 115.93 Z M174.34 115.93 L161.30 131.86 L173.15 133.69 L183.56 117.35 Z M183.56 117.35 L173.15 133.69 L186.43 135.09 L193.89 118.44 Z M186.43 135.09 L179.99 154.31 L197.03 155.41 L200.73 136.01 Z M200.73 136.01 L197.03 155.41 L214.77 155.90 L215.61 136.42 Z M215.61 136.42 L214.77 155.90 L232.67 155.77 L230.63 136.31 Z M230.63 136.31 L232.67 155.77 L250.18 155.02 L245.32 135.68 Z M245.32 135.68 L250.18 155.02 L266.77 153.69 L259.24 134.56 Z M259.24 134.56 L266.77 153.69 L281.94 151.80 L271.98 132.98 Z M271.98 132.98 L281.94 151.80 L295.24 149.41 L283.13 130.98 Z M283.13 130.98 L295.24 149.41 L306.24 146.61 L292.37 128.62 Z M292.37 128.62 L306.24 146.61 L314.62 143.46 L299.40 125.98 Z M299.40 125.98 L314.62 143.46 L320.13 140.08 L304.02 123.14 Z M304.02 123.14 L320.13 140.08 L322.60 136.55 L306.10 120.19 Z M306.10 120.19 L322.60 136.55 L321.95 133.00 L305.55 117.20 Z M305.55 117.20 L321.95 133.00 L318.20 129.52 L302.40 114.28 Z M302.40 114.28 L318.20 129.52 L311.47 126.22 L296.75 111.52 Z M296.75 111.52 L311.47 126.22 L301.96 123.21 L288.78 108.99 Z M288.78 108.99 L301.96 123.21 L289.96 120.57 L278.70 106.77 Z M278.70 106.77 L289.96 120.57 L275.83 118.38 L266.85 104.94 Z M266.85 104.94 L275.83 118.38 L260.01 116.71 L253.57 103.54 Z M253.57 103.54 L260.01 116.71 L242.97 115.62 L239.27 102.62 Z M239.27 102.62 L242.97 115.62 L225.23 115.13 L224.39 102.21 Z M224.39 102.21 L225.23 115.13 L207.33 115.26 L209.37 102.32 Z M209.37 102.32 L207.33 115.26 L189.82 116.00 L194.68 102.94 Z M194.68 102.94 L189.82 116.00 L173.23 117.34 L180.76 104.06 Z M180.76 104.06 L173.23 117.34 L158.06 119.23 L168.02 105.65 Z M168.02 105.65 L158.06 119.23 L144.76 121.62 L156.87 107.65 Z M156.87 107.65 L144.76 121.62 L133.76 124.42 L147.63 110.01 Z M147.63 110.01 L133.76 124.42 L125.38 127.57 L140.60 112.64 Z M140.60 112.64 L125.38 127.57 L119.87 130.95 L135.98 115.48 Z M135.98 115.48 L119.87 130.95 L117.40 134.47 L133.90 118.44 Z M133.90 118.44 L117.40 134.47 L118.05 138.03 L134.45 121.42 Z M134.45 121.42 L118.05 138.03 L121.80 141.51 L137.60 124.34 Z M137.60 124.34 L121.80 141.51 L128.53 144.81 L143.25 127.11 Z M143.25 127.11 L128.53 144.81 L138.04 147.82 L151.22 129.64 Z M151.22 129.64 L138.04 147.82 L150.04 150.46 L161.30 131.86 Z M161.30 131.86 L150.04 150.46 L164.17 152.65 L173.15 133.69 Z M173.15 133.69 L164.17 152.65 L179.99 154.31 L186.43 135.09 Z M179.99 154.31 L174.77 175.53 L194.04 176.77 L197.03 155.41 Z M197.03 155.41 L194.04 176.77 L214.09 177.33 L214.77 155.90 Z M214.77 155.90 L214.09 177.33 L234.32 177.18 L232.67 155.77 Z M232.67 155.77 L234.32 177.18 L254.12 176.34 L250.18 155.02 Z M250.18 155.02 L254.12 176.34 L272.87 174.83 L266.77 153.69 Z M266.77 153.69 L272.87 174.83 L290.03 172.69 L281.94 151.80 Z M281.94 151.80 L290.03 172.69 L305.06 169.99 L295.24 149.41 Z M295.24 149.41 L305.06 169.99 L317.50 166.82 L306.24 146.61 Z M306.24 146.61 L317.50 166.82 L326.98 163.27 L314.62 143.46 Z M314.62 143.46 L326.98 163.27 L333.20 159.44 L320.13 140.08 Z M320.13 140.08 L333.20 159.44 L336.00 155.45 L322.60 136.55 Z M322.60 136.55 L336.00 155.45 L335.26 151.44 L321.95 133.00 Z M321.95 133.00 L335.26 151.44 L331.02 147.50 L318.20 129.52 Z M318.20 129.52 L331.02 147.50 L323.41 143.78 L311.47 126.22 Z M311.47 126.22 L323.41 143.78 L312.66 140.37 L301.96 123.21 Z M301.96 123.21 L312.66 140.37 L299.09 137.38 L289.96 120.57 Z M289.96 120.57 L299.09 137.38 L283.12 134.91 L275.83 118.38 Z M275.83 118.38 L283.12 134.91 L265.23 133.03 L260.01 116.71 Z M260.01 116.71 L265.23 133.03 L245.96 131.79 L242.97 115.62 Z M242.97 115.62 L245.96 131.79 L225.91 131.24 L225.23 115.13 Z M225.23 115.13 L225.91 131.24 L205.68 131.38 L207.33 115.26 Z M207.33 115.26 L205.68 131.38 L185.88 132.22 L189.82 116.00 Z M189.82 116.00 L185.88 132.22 L167.13 133.74 L173.23 117.34 Z M173.23 117.34 L167.13 133.74 L149.97 135.87 L158.06 119.23 Z M158.06 119.23 L149.97 135.87 L134.94 138.57 L144.76 121.62 Z M144.76 121.62 L134.94 138.57 L122.50 141.74 L133.76 124.42 Z M133.76 124.42 L122.50 141.74 L113.02 145.29 L125.38 127.57 Z M125.38 127.57 L113.02 145.29 L106.80 149.12 L119.87 130.95 Z M119.87 130.95 L106.80 149.12 L104.00 153.11 L117.40 134.47 Z M117.40 134.47 L104.00 153.11 L104.74 157.13 L118.05 138.03 Z M118.05 138.03 L104.74 157.13 L108.98 161.06 L121.80 141.51 Z M121.80 141.51 L108.98 161.06 L116.59 164.79 L128.53 144.81 Z M128.53 144.81 L116.59 164.79 L127.34 168.19 L138.04 147.82 Z M138.04 147.82 L127.34 168.19 L140.91 171.18 L150.04 150.46 Z M150.04 150.46 L140.91 171.18 L156.88 173.65 L164.17 152.65 Z M164.17 152.65 L156.88 173.65 L174.77 175.53 L179.99 154.31 Z M174.77 175.53 L170.92 198.11 L191.83 199.45 L194.04 176.77 Z M194.04 176.77 L191.83 199.45 L213.59 200.05 L214.09 177.33 Z M214.09 177.33 L213.59 200.05 L235.54 199.90 L234.32 177.18 Z M234.32 177.18 L235.54 199.90 L257.02 198.98 L254.12 176.34 Z M254.12 176.34 L257.02 198.98 L277.37 197.34 L272.87 174.83 Z M272.87 174.83 L277.37 197.34 L295.99 195.02 L290.03 172.69 Z M290.03 172.69 L295.99 195.02 L312.29 192.10 L305.06 169.99 Z M305.06 169.99 L312.29 192.10 L325.79 188.66 L317.50 166.82 Z M317.50 166.82 L325.79 188.66 L336.07 184.80 L326.98 163.27 Z M326.98 163.27 L336.07 184.80 L342.83 180.65 L333.20 159.44 Z M333.20 159.44 L342.83 180.65 L345.86 176.32 L336.00 155.45 Z M336.00 155.45 L345.86 176.32 L345.06 171.96 L335.26 151.44 Z M335.26 151.44 L345.06 171.96 L340.47 167.69 L331.02 147.50 Z M331.02 147.50 L340.47 167.69 L332.21 163.65 L323.41 143.78 Z M323.41 143.78 L332.21 163.65 L320.54 159.95 L312.66 140.37 Z M312.66 140.37 L320.54 159.95 L305.82 156.71 L299.09 137.38 Z M299.09 137.38 L305.82 156.71 L288.49 154.03 L283.12 134.91 Z M283.12 134.91 L288.49 154.03 L269.08 151.99 L265.23 133.03 Z M265.23 133.03 L269.08 151.99 L248.17 150.65 L245.96 131.79 Z M245.96 131.79 L248.17 150.65 L226.41 150.04 L225.91 131.24 Z M225.91 131.24 L226.41 150.04 L204.46 150.20 L205.68 131.38 Z M205.68 131.38 L204.46 150.20 L182.98 151.12 L185.88 132.22 Z M185.88 132.22 L182.98 151.12 L162.63 152.76 L167.13 133.74 Z M167.13 133.74 L162.63 152.76 L144.01 155.07 L149.97 135.87 Z M149.97 135.87 L144.01 155.07 L127.71 158.00 L134.94 138.57 Z M134.94 138.57 L127.71 158.00 L114.21 161.44 L122.50 141.74 Z M122.50 141.74 L114.21 161.44 L103.93 165.30 L113.02 145.29 Z M113.02 145.29 L103.93 165.30 L97.17 169.45 L106.80 149.12 Z M106.80 149.12 L97.17 169.45 L94.14 173.77 L104.00 153.11 Z M104.00 153.11 L94.14 173.77 L94.94 178.14 L104.74 157.13 Z M104.74 157.13 L94.94 178.14 L99.53 182.40 L108.98 161.06 Z M108.98 161.06 L99.53 182.40 L107.79 186.45 L116.59 164.79 Z M116.59 164.79 L107.79 186.45 L119.46 190.14 L127.34 168.19 Z M127.34 168.19 L119.46 190.14 L134.18 193.38 L140.91 171.18 Z M140.91 171.18 L134.18 193.38 L151.51 196.07 L156.88 173.65 Z M156.88 173.65 L151.51 196.07 L170.92 198.11 L174.77 175.53 Z M170.92 198.11 L168.57 221.34 L190.47 222.75 L191.83 199.45 Z M191.83 199.45 L190.47 222.75 L213.27 223.38 L213.59 200.05 Z M213.59 200.05 L213.27 223.38 L236.28 223.21 L235.54 199.90 Z M235.54 199.90 L236.28 223.21 L258.80 222.26 L257.02 198.98 Z M257.02 198.98 L258.80 222.26 L280.13 220.54 L277.37 197.34 Z M277.37 197.34 L280.13 220.54 L299.63 218.11 L295.99 195.02 Z M295.99 195.02 L299.63 218.11 L316.72 215.04 L312.29 192.10 Z M312.29 192.10 L316.72 215.04 L330.87 211.44 L325.79 188.66 Z M325.79 188.66 L330.87 211.44 L341.65 207.39 L336.07 184.80 Z M336.07 184.80 L341.65 207.39 L348.74 203.04 L342.83 180.65 Z M342.83 180.65 L348.74 203.04 L351.90 198.51 L345.86 176.32 Z M345.86 176.32 L351.90 198.51 L351.07 193.94 L345.06 171.96 Z M345.06 171.96 L351.07 193.94 L346.25 189.47 L340.47 167.69 Z M340.47 167.69 L346.25 189.47 L337.59 185.23 L332.21 163.65 Z M332.21 163.65 L337.59 185.23 L325.36 181.35 L320.54 159.95 Z M320.54 159.95 L325.36 181.35 L309.93 177.96 L305.82 156.71 Z M305.82 156.71 L309.93 177.96 L291.78 175.15 L288.49 154.03 Z M288.49 154.03 L291.78 175.15 L271.43 173.01 L269.08 151.99 Z M269.08 151.99 L271.43 173.01 L249.53 171.60 L248.17 150.65 Z M248.17 150.65 L249.53 171.60 L226.73 170.97 L226.41 150.04 Z M226.41 150.04 L226.73 170.97 L203.72 171.14 L204.46 150.20 Z M204.46 150.20 L203.72 171.14 L181.20 172.09 L182.98 151.12 Z M182.98 151.12 L181.20 172.09 L159.87 173.81 L162.63 152.76 Z M162.63 152.76 L159.87 173.81 L140.37 176.24 L144.01 155.07 Z M144.01 155.07 L140.37 176.24 L123.28 179.31 L127.71 158.00 Z M127.71 158.00 L123.28 179.31 L109.13 182.92 L114.21 161.44 Z M114.21 161.44 L109.13 182.92 L98.35 186.96 L103.93 165.30 Z M103.93 165.30 L98.35 186.96 L91.26 191.31 L97.17 169.45 Z M97.17 169.45 L91.26 191.31 L88.10 195.84 L94.14 173.77 Z M94.14 173.77 L88.10 195.84 L88.93 200.41 L94.94 178.14 Z M94.94 178.14 L88.93 200.41 L93.75 204.88 L99.53 182.40 Z M99.53 182.40 L93.75 204.88 L102.41 209.12 L107.79 186.45 Z M107.79 186.45 L102.41 209.12 L114.64 213.00 L119.46 190.14 Z M119.46 190.14 L114.64 213.00 L130.07 216.39 L134.18 193.38 Z M134.18 193.38 L130.07 216.39 L148.22 219.20 L151.51 196.07 Z M151.51 196.07 L148.22 219.20 L168.57 221.34 L170.92 198.11 Z M168.57 221.34 L167.77 244.54 L190.02 245.97 L190.47 222.75 Z M190.47 222.75 L190.02 245.97 L213.17 246.61 L213.27 223.38 Z M213.27 223.38 L213.17 246.61 L236.53 246.44 L236.28 223.21 Z M236.28 223.21 L236.53 246.44 L259.39 245.47 L258.80 222.26 Z M258.80 222.26 L259.39 245.47 L281.06 243.72 L280.13 220.54 Z M280.13 220.54 L281.06 243.72 L300.86 241.26 L299.63 218.11 Z M299.63 218.11 L300.86 241.26 L318.21 238.14 L316.72 215.04 Z M316.72 215.04 L318.21 238.14 L332.58 234.48 L330.87 211.44 Z M330.87 211.44 L332.58 234.48 L343.53 230.38 L341.65 207.39 Z M341.65 207.39 L343.53 230.38 L350.72 225.96 L348.74 203.04 Z M348.74 203.04 L350.72 225.96 L353.94 221.36 L351.90 198.51 Z M351.90 198.51 L353.94 221.36 L353.09 216.72 L351.07 193.94 Z M351.07 193.94 L353.09 216.72 L348.19 212.17 L346.25 189.47 Z M346.25 189.47 L348.19 212.17 L339.41 207.87 L337.59 185.23 Z M337.59 185.23 L339.41 207.87 L326.99 203.93 L325.36 181.35 Z M325.36 181.35 L326.99 203.93 L311.32 200.49 L309.93 177.96 Z M309.93 177.96 L311.32 200.49 L292.88 197.63 L291.78 175.15 Z M291.78 175.15 L292.88 197.63 L272.23 195.46 L271.43 173.01 Z M271.43 173.01 L272.23 195.46 L249.98 194.03 L249.53 171.60 Z M249.53 171.60 L249.98 194.03 L226.83 193.39 L226.73 170.97 Z M226.73 170.97 L226.83 193.39 L203.47 193.56 L203.72 171.14 Z M203.72 171.14 L203.47 193.56 L180.61 194.53 L181.20 172.09 Z M181.20 172.09 L180.61 194.53 L158.94 196.28 L159.87 173.81 Z M159.87 173.81 L158.94 196.28 L139.14 198.74 L140.37 176.24 Z M140.37 176.24 L139.14 198.74 L121.79 201.86 L123.28 179.31 Z M123.28 179.31 L121.79 201.86 L107.42 205.52 L109.13 182.92 Z M109.13 182.92 L107.42 205.52 L96.47 209.62 L98.35 186.96 Z M98.35 186.96 L96.47 209.62 L89.28 214.04 L91.26 191.31 Z M91.26 191.31 L89.28 214.04 L86.06 218.64 L88.10 195.84 Z M88.10 195.84 L86.06 218.64 L86.91 223.28 L88.93 200.41 Z M88.93 200.41 L86.91 223.28 L91.81 227.83 L93.75 204.88 Z M93.75 204.88 L91.81 227.83 L100.59 232.13 L102.41 209.12 Z M102.41 209.12 L100.59 232.13 L113.01 236.07 L114.64 213.00 Z M114.64 213.00 L113.01 236.07 L128.68 239.51 L130.07 216.39 Z M130.07 216.39 L128.68 239.51 L147.12 242.37 L148.22 219.20 Z M148.22 219.20 L147.12 242.37 L167.77 244.54 L168.57 221.34 Z M167.77 244.54 L168.57 266.99 L190.47 268.40 L190.02 245.97 Z M190.02 245.97 L190.47 268.40 L213.27 269.03 L213.17 246.61 Z M213.17 246.61 L213.27 269.03 L236.28 268.86 L236.53 246.44 Z M236.53 246.44 L236.28 268.86 L258.80 267.91 L259.39 245.47 Z M259.39 245.47 L258.80 267.91 L280.13 266.19 L281.06 243.72 Z M281.06 243.72 L280.13 266.19 L299.63 263.76 L300.86 241.26 Z M300.86 241.26 L299.63 263.76 L316.72 260.69 L318.21 238.14 Z M318.21 238.14 L316.72 260.69 L330.87 257.08 L332.58 234.48 Z M332.58 234.48 L330.87 257.08 L341.65 253.04 L343.53 230.38 Z M343.53 230.38 L341.65 253.04 L348.74 248.69 L350.72 225.96 Z M350.72 225.96 L348.74 248.69 L351.90 244.16 L353.94 221.36 Z M353.94 221.36 L351.90 244.16 L351.07 239.59 L353.09 216.72 Z M353.09 216.72 L351.07 239.59 L346.25 235.12 L348.19 212.17 Z M348.19 212.17 L346.25 235.12 L337.59 230.88 L339.41 207.87 Z M339.41 207.87 L337.59 230.88 L325.36 227.00 L326.99 203.93 Z M326.99 203.93 L325.36 227.00 L309.93 223.61 L311.32 200.49 Z M311.32 200.49 L309.93 223.61 L291.78 220.80 L292.88 197.63 Z M292.88 197.63 L291.78 220.80 L271.43 218.66 L272.23 195.46 Z M272.23 195.46 L271.43 218.66 L249.53 217.25 L249.98 194.03 Z M249.98 194.03 L249.53 217.25 L226.73 216.62 L226.83 193.39 Z M226.83 193.39 L226.73 216.62 L203.72 216.79 L203.47 193.56 Z M203.47 193.56 L203.72 216.79 L181.20 217.74 L180.61 194.53 Z M180.61 194.53 L181.20 217.74 L159.87 219.46 L158.94 196.28 Z M158.94 196.28 L159.87 219.46 L140.37 221.89 L139.14 198.74 Z M139.14 198.74 L140.37 221.89 L123.28 224.96 L121.79 201.86 Z M121.79 201.86 L123.28 224.96 L109.13 228.56 L107.42 205.52 Z M107.42 205.52 L109.13 228.56 L98.35 232.61 L96.47 209.62 Z M96.47 209.62 L98.35 232.61 L91.26 236.96 L89.28 214.04 Z M89.28 214.04 L91.26 236.96 L88.10 241.49 L86.06 218.64 Z M86.06 218.64 L88.10 241.49 L88.93 246.06 L86.91 223.28 Z M86.91 223.28 L88.93 246.06 L93.75 250.53 L91.81 227.83 Z M91.81 227.83 L93.75 250.53 L102.41 254.77 L100.59 232.13 Z M100.59 232.13 L102.41 254.77 L114.64 258.65 L113.01 236.07 Z M113.01 236.07 L114.64 258.65 L130.07 262.04 L128.68 239.51 Z M128.68 239.51 L130.07 262.04 L148.22 264.85 L147.12 242.37 Z M147.12 242.37 L148.22 264.85 L168.57 266.99 L167.77 244.54 Z M168.57 266.99 L170.92 288.01 L191.83 289.35 L190.47 268.40 Z M190.47 268.40 L191.83 289.35 L213.59 289.96 L213.27 269.03 Z M213.27 269.03 L213.59 289.96 L235.54 289.80 L236.28 268.86 Z M236.28 268.86 L235.54 289.80 L257.02 288.88 L258.80 267.91 Z M258.80 267.91 L257.02 288.88 L277.37 287.24 L280.13 266.19 Z M280.13 266.19 L277.37 287.24 L295.99 284.93 L299.63 263.76 Z M299.63 263.76 L295.99 284.93 L312.29 282.00 L316.72 260.69 Z M316.72 260.69 L312.29 282.00 L325.79 278.56 L330.87 257.08 Z M330.87 257.08 L325.79 278.56 L336.07 274.70 L341.65 253.04 Z M341.65 253.04 L336.07 274.70 L342.83 270.55 L348.74 248.69 Z M348.74 248.69 L342.83 270.55 L345.86 266.23 L351.90 244.16 Z M351.90 244.16 L345.86 266.23 L345.06 261.86 L351.07 239.59 Z M351.07 239.59 L345.06 261.86 L340.47 257.60 L346.25 235.12 Z M346.25 235.12 L340.47 257.60 L332.21 253.55 L337.59 230.88 Z M337.59 230.88 L332.21 253.55 L320.54 249.86 L325.36 227.00 Z M325.36 227.00 L320.54 249.86 L305.82 246.62 L309.93 223.61 Z M309.93 223.61 L305.82 246.62 L288.49 243.93 L291.78 220.80 Z M291.78 220.80 L288.49 243.93 L269.08 241.89 L271.43 218.66 Z M271.43 218.66 L269.08 241.89 L248.17 240.55 L249.53 217.25 Z M249.53 217.25 L248.17 240.55 L226.41 239.95 L226.73 216.62 Z M226.73 216.62 L226.41 239.95 L204.46 240.10 L203.72 216.79 Z M203.72 216.79 L204.46 240.10 L182.98 241.02 L181.20 217.74 Z M181.20 217.74 L182.98 241.02 L162.63 242.66 L159.87 219.46 Z M159.87 219.46 L162.63 242.66 L144.01 244.98 L140.37 221.89 Z M140.37 221.89 L144.01 244.98 L127.71 247.90 L123.28 224.96 Z M123.28 224.96 L127.71 247.90 L114.21 251.34 L109.13 228.56 Z M109.13 228.56 L114.21 251.34 L103.93 255.20 L98.35 232.61 Z M98.35 232.61 L103.93 255.20 L97.17 259.35 L91.26 236.96 Z M91.26 236.96 L97.17 259.35 L94.14 263.68 L88.10 241.49 Z M88.10 241.49 L94.14 263.68 L94.94 268.04 L88.93 246.06 Z M88.93 246.06 L94.94 268.04 L99.53 272.31 L93.75 250.53 Z M93.75 250.53 L99.53 272.31 L107.79 276.35 L102.41 254.77 Z M102.41 254.77 L107.79 276.35 L119.46 280.05 L114.64 258.65 Z M114.64 258.65 L119.46 280.05 L134.18 283.29 L130.07 262.04 Z M130.07 262.04 L134.18 283.29 L151.51 285.97 L148.22 264.85 Z M148.22 264.85 L151.51 285.97 L170.92 288.01 L168.57 266.99 Z M170.92 288.01 L174.77 306.97 L194.04 308.21 L191.83 289.35 Z M191.83 289.35 L194.04 308.21 L214.09 308.76 L213.59 289.96 Z M213.59 289.96 L214.09 308.76 L234.32 308.62 L235.54 289.80 Z M235.54 289.80 L234.32 308.62 L254.12 307.78 L257.02 288.88 Z M257.02 288.88 L254.12 307.78 L272.87 306.26 L277.37 287.24 Z M277.37 287.24 L272.87 306.26 L290.03 304.13 L295.99 284.93 Z M295.99 284.93 L290.03 304.13 L305.06 301.43 L312.29 282.00 Z M312.29 282.00 L305.06 301.43 L317.50 298.26 L325.79 278.56 Z M325.79 278.56 L317.50 298.26 L326.98 294.71 L336.07 274.70 Z M336.07 274.70 L326.98 294.71 L333.20 290.88 L342.83 270.55 Z M342.83 270.55 L333.20 290.88 L336.00 286.89 L345.86 266.23 Z M345.86 266.23 L336.00 286.89 L335.26 282.87 L345.06 261.86 Z M345.06 261.86 L335.26 282.87 L331.02 278.94 L340.47 257.60 Z M340.47 257.60 L331.02 278.94 L323.41 275.21 L332.21 253.55 Z M332.21 253.55 L323.41 275.21 L312.66 271.81 L320.54 249.86 Z M320.54 249.86 L312.66 271.81 L299.09 268.82 L305.82 246.62 Z M305.82 246.62 L299.09 268.82 L283.12 266.35 L288.49 243.93 Z M288.49 243.93 L283.12 266.35 L265.23 264.47 L269.08 241.89 Z M269.08 241.89 L265.23 264.47 L245.96 263.23 L248.17 240.55 Z M248.17 240.55 L245.96 263.23 L225.91 262.67 L226.41 239.95 Z M226.41 239.95 L225.91 262.67 L205.68 262.82 L204.46 240.10 Z M204.46 240.10 L205.68 262.82 L185.88 263.66 L182.98 241.02 Z M182.98 241.02 L185.88 263.66 L167.13 265.17 L162.63 242.66 Z M162.63 242.66 L167.13 265.17 L149.97 267.31 L144.01 244.98 Z M144.01 244.98 L149.97 267.31 L134.94 270.01 L127.71 247.90 Z M127.71 247.90 L134.94 270.01 L122.50 273.18 L114.21 251.34 Z M114.21 251.34 L122.50 273.18 L113.02 276.73 L103.93 255.20 Z M103.93 255.20 L113.02 276.73 L106.80 280.56 L97.17 259.35 Z M97.17 259.35 L106.80 280.56 L104.00 284.55 L94.14 263.68 Z M94.14 263.68 L104.00 284.55 L104.74 288.56 L94.94 268.04 Z M94.94 268.04 L104.74 288.56 L108.98 292.50 L99.53 272.31 Z M99.53 272.31 L108.98 292.50 L116.59 296.22 L107.79 276.35 Z M107.79 276.35 L116.59 296.22 L127.34 299.63 L119.46 280.05 Z M119.46 280.05 L127.34 299.63 L140.91 302.62 L134.18 283.29 Z M134.18 283.29 L140.91 302.62 L156.88 305.09 L151.51 285.97 Z M151.51 285.97 L156.88 305.09 L174.77 306.97 L170.92 288.01 Z M174.77 306.97 L179.99 323.29 L197.03 324.38 L194.04 308.21 Z M194.04 308.21 L197.03 324.38 L214.77 324.87 L214.09 308.76 Z M214.09 308.76 L214.77 324.87 L232.67 324.74 L234.32 308.62 Z M234.32 308.62 L232.67 324.74 L250.18 324.00 L254.12 307.78 Z M254.12 307.78 L250.18 324.00 L266.77 322.66 L272.87 306.26 Z M272.87 306.26 L266.77 322.66 L281.94 320.77 L290.03 304.13 Z M290.03 304.13 L281.94 320.77 L295.24 318.38 L305.06 301.43 Z M305.06 301.43 L295.24 318.38 L306.24 315.58 L317.50 298.26 Z M317.50 298.26 L306.24 315.58 L314.62 312.43 L326.98 294.71 Z M326.98 294.71 L314.62 312.43 L320.13 309.05 L333.20 290.88 Z M333.20 290.88 L320.13 309.05 L322.60 305.53 L336.00 286.89 Z M336.00 286.89 L322.60 305.53 L321.95 301.97 L335.26 282.87 Z M335.26 282.87 L321.95 301.97 L318.20 298.49 L331.02 278.94 Z M331.02 278.94 L318.20 298.49 L311.47 295.19 L323.41 275.21 Z M323.41 275.21 L311.47 295.19 L301.96 292.18 L312.66 271.81 Z M312.66 271.81 L301.96 292.18 L289.96 289.54 L299.09 268.82 Z M299.09 268.82 L289.96 289.54 L275.83 287.35 L283.12 266.35 Z M283.12 266.35 L275.83 287.35 L260.01 285.69 L265.23 264.47 Z M265.23 264.47 L260.01 285.69 L242.97 284.59 L245.96 263.23 Z M245.96 263.23 L242.97 284.59 L225.23 284.10 L225.91 262.67 Z M225.91 262.67 L225.23 284.10 L207.33 284.23 L205.68 262.82 Z M205.68 262.82 L207.33 284.23 L189.82 284.98 L185.88 263.66 Z M185.88 263.66 L189.82 284.98 L173.23 286.31 L167.13 265.17 Z M167.13 265.17 L173.23 286.31 L158.06 288.20 L149.97 267.31 Z M149.97 267.31 L158.06 288.20 L144.76 290.59 L134.94 270.01 Z M134.94 270.01 L144.76 290.59 L133.76 293.39 L122.50 273.18 Z M122.50 273.18 L133.76 293.39 L125.38 296.54 L113.02 276.73 Z M113.02 276.73 L125.38 296.54 L119.87 299.92 L106.80 280.56 Z M106.80 280.56 L119.87 299.92 L117.40 303.45 L104.00 284.55 Z M104.00 284.55 L117.40 303.45 L118.05 307.00 L104.74 288.56 Z M104.74 288.56 L118.05 307.00 L121.80 310.48 L108.98 292.50 Z M108.98 292.50 L121.80 310.48 L128.53 313.78 L116.59 296.22 Z M116.59 296.22 L128.53 313.78 L138.04 316.79 L127.34 299.63 Z M127.34 299.63 L138.04 316.79 L150.04 319.43 L140.91 302.62 Z M140.91 302.62 L150.04 319.43 L164.17 321.62 L156.88 305.09 Z M156.88 305.09 L164.17 321.62 L179.99 323.29 L174.77 306.97 Z M179.99 323.29 L186.43 336.46 L200.73 337.38 L197.03 324.38 Z M197.03 324.38 L200.73 337.38 L215.61 337.79 L214.77 324.87 Z M214.77 324.87 L215.61 337.79 L230.63 337.68 L232.67 324.74 Z M232.67 324.74 L230.63 337.68 L245.32 337.06 L250.18 324.00 Z M250.18 324.00 L245.32 337.06 L259.24 335.94 L266.77 322.66 Z M266.77 322.66 L259.24 335.94 L271.98 334.35 L281.94 320.77 Z M281.94 320.77 L271.98 334.35 L283.13 332.35 L295.24 318.38 Z M295.24 318.38 L283.13 332.35 L292.37 329.99 L306.24 315.58 Z M306.24 315.58 L292.37 329.99 L299.40 327.36 L314.62 312.43 Z M314.62 312.43 L299.40 327.36 L304.02 324.52 L320.13 309.05 Z M320.13 309.05 L304.02 324.52 L306.10 321.56 L322.60 305.53 Z M322.60 305.53 L306.10 321.56 L305.55 318.58 L321.95 301.97 Z M321.95 301.97 L305.55 318.58 L302.40 315.66 L318.20 298.49 Z M318.20 298.49 L302.40 315.66 L296.75 312.89 L311.47 295.19 Z M311.47 295.19 L296.75 312.89 L288.78 310.36 L301.96 292.18 Z M301.96 292.18 L288.78 310.36 L278.70 308.14 L289.96 289.54 Z M289.96 289.54 L278.70 308.14 L266.85 306.31 L275.83 287.35 Z M275.83 287.35 L266.85 306.31 L253.57 304.91 L260.01 285.69 Z M260.01 285.69 L253.57 304.91 L239.27 303.99 L242.97 284.59 Z M242.97 284.59 L239.27 303.99 L224.39 303.58 L225.23 284.10 Z M225.23 284.10 L224.39 303.58 L209.37 303.69 L207.33 284.23 Z M207.33 284.23 L209.37 303.69 L194.68 304.32 L189.82 284.98 Z M189.82 284.98 L194.68 304.32 L180.76 305.44 L173.23 286.31 Z M173.23 286.31 L180.76 305.44 L168.02 307.02 L158.06 288.20 Z M158.06 288.20 L168.02 307.02 L156.87 309.02 L144.76 290.59 Z M144.76 290.59 L156.87 309.02 L147.63 311.38 L133.76 293.39 Z M133.76 293.39 L147.63 311.38 L140.60 314.02 L125.38 296.54 Z M125.38 296.54 L140.60 314.02 L135.98 316.86 L119.87 299.92 Z M119.87 299.92 L135.98 316.86 L133.90 319.81 L117.40 303.45 Z M117.40 303.45 L133.90 319.81 L134.45 322.80 L118.05 307.00 Z M118.05 307.00 L134.45 322.80 L137.60 325.72 L121.80 310.48 Z M121.80 310.48 L137.60 325.72 L143.25 328.48 L128.53 313.78 Z M128.53 313.78 L143.25 328.48 L151.22 331.01 L138.04 316.79 Z M138.04 316.79 L151.22 331.01 L161.30 333.23 L150.04 319.43 Z M150.04 319.43 L161.30 333.23 L173.15 335.06 L164.17 321.62 Z M164.17 321.62 L173.15 335.06 L186.43 336.46 L179.99 323.29 Z M186.43 336.46 L193.89 346.10 L205.01 346.82 L200.73 337.38 Z M200.73 337.38 L205.01 346.82 L216.59 347.14 L215.61 337.79 Z M215.61 337.79 L216.59 347.14 L228.27 347.05 L230.63 337.68 Z M230.63 337.68 L228.27 347.05 L239.70 346.57 L245.32 337.06 Z M245.32 337.06 L239.70 346.57 L250.53 345.69 L259.24 335.94 Z M259.24 335.94 L250.53 345.69 L260.43 344.46 L271.98 334.35 Z M271.98 334.35 L260.43 344.46 L269.11 342.90 L283.13 332.35 Z M283.13 332.35 L269.11 342.90 L276.29 341.07 L292.37 329.99 Z M292.37 329.99 L276.29 341.07 L281.76 339.02 L299.40 327.36 Z M299.40 327.36 L281.76 339.02 L285.36 336.81 L304.02 324.52 Z M304.02 324.52 L285.36 336.81 L286.97 334.51 L306.10 321.56 Z M306.10 321.56 L286.97 334.51 L286.55 332.19 L305.55 318.58 Z M305.55 318.58 L286.55 332.19 L284.10 329.92 L302.40 315.66 Z M302.40 315.66 L284.10 329.92 L279.71 327.77 L296.75 312.89 Z M296.75 312.89 L279.71 327.77 L273.50 325.80 L288.78 310.36 Z M288.78 310.36 L273.50 325.80 L265.66 324.07 L278.70 308.14 Z M278.70 308.14 L265.66 324.07 L256.44 322.65 L266.85 306.31 Z M266.85 306.31 L256.44 322.65 L246.11 321.56 L253.57 304.91 Z M253.57 304.91 L246.11 321.56 L234.99 320.85 L239.27 303.99 Z M239.27 303.99 L234.99 320.85 L223.41 320.53 L224.39 303.58 Z M224.39 303.58 L223.41 320.53 L211.73 320.61 L209.37 303.69 Z M209.37 303.69 L211.73 320.61 L200.30 321.10 L194.68 304.32 Z M194.68 304.32 L200.30 321.10 L189.47 321.97 L180.76 305.44 Z M180.76 305.44 L189.47 321.97 L179.57 323.20 L168.02 307.02 Z M168.02 307.02 L179.57 323.20 L170.89 324.76 L156.87 309.02 Z M156.87 309.02 L170.89 324.76 L163.71 326.59 L147.63 311.38 Z M147.63 311.38 L163.71 326.59 L158.24 328.64 L140.60 314.02 Z M140.60 314.02 L158.24 328.64 L154.64 330.85 L135.98 316.86 Z M135.98 316.86 L154.64 330.85 L153.03 333.15 L133.90 319.81 Z M133.90 319.81 L153.03 333.15 L153.46 335.47 L134.45 322.80 Z M134.45 322.80 L153.46 335.47 L155.90 337.74 L137.60 325.72 Z M137.60 325.72 L155.90 337.74 L160.29 339.90 L143.25 328.48 Z M143.25 328.48 L160.29 339.90 L166.50 341.86 L151.22 331.01 Z M151.22 331.01 L166.50 341.86 L174.34 343.59 L161.30 333.23 Z M161.30 333.23 L174.34 343.59 L183.56 345.01 L173.15 335.06 Z M173.15 335.06 L183.56 345.01 L193.89 346.10 L186.43 336.46 Z M193.89 346.10 L202.14 351.90 L209.74 352.39 L205.01 346.82 Z M205.01 346.82 L209.74 352.39 L217.66 352.61 L216.59 347.14 Z M216.59 347.14 L217.66 352.61 L225.66 352.55 L228.27 347.05 Z M228.27 347.05 L225.66 352.55 L233.47 352.22 L239.70 346.57 Z M239.70 346.57 L233.47 352.22 L240.88 351.62 L250.53 345.69 Z M250.53 345.69 L240.88 351.62 L247.66 350.78 L260.43 344.46 Z M260.43 344.46 L247.66 350.78 L253.60 349.72 L269.11 342.90 Z M269.11 342.90 L253.60 349.72 L258.50 348.46 L276.29 341.07 Z M276.29 341.07 L258.50 348.46 L262.25 347.06 L281.76 339.02 Z M281.76 339.02 L262.25 347.06 L264.70 345.55 L285.36 336.81 Z M285.36 336.81 L264.70 345.55 L265.81 343.98 L286.97 334.51 Z M286.97 334.51 L265.81 343.98 L265.52 342.39 L286.55 332.19 Z M286.55 332.19 L265.52 342.39 L263.84 340.83 L284.10 329.92 Z M284.10 329.92 L263.84 340.83 L260.84 339.36 L279.71 327.77 Z M279.71 327.77 L260.84 339.36 L256.60 338.02 L273.50 325.80 Z M273.50 325.80 L256.60 338.02 L251.23 336.84 L265.66 324.07 Z M265.66 324.07 L251.23 336.84 L244.92 335.86 L256.44 322.65 Z M256.44 322.65 L244.92 335.86 L237.86 335.12 L246.11 321.56 Z M246.11 321.56 L237.86 335.12 L230.26 334.63 L234.99 320.85 Z M234.99 320.85 L230.26 334.63 L222.34 334.41 L223.41 320.53 Z M223.41 320.53 L222.34 334.41 L214.34 334.47 L211.73 320.61 Z M211.73 320.61 L214.34 334.47 L206.53 334.80 L200.30 321.10 Z M200.30 321.10 L206.53 334.80 L199.12 335.40 L189.47 321.97 Z M189.47 321.97 L199.12 335.40 L192.34 336.24 L179.57 323.20 Z M179.57 323.20 L192.34 336.24 L186.40 337.31 L170.89 324.76 Z M170.89 324.76 L186.40 337.31 L181.50 338.56 L163.71 326.59 Z M163.71 326.59 L181.50 338.56 L177.75 339.96 L158.24 328.64 Z M158.24 328.64 L177.75 339.96 L175.30 341.47 L154.64 330.85 Z M154.64 330.85 L175.30 341.47 L174.19 343.05 L153.03 333.15 Z M153.03 333.15 L174.19 343.05 L174.48 344.63 L153.46 335.47 Z M153.46 335.47 L174.48 344.63 L176.16 346.19 L155.90 337.74 Z M155.90 337.74 L176.16 346.19 L179.16 347.66 L160.29 339.90 Z M160.29 339.90 L179.16 347.66 L183.40 349.01 L166.50 341.86 Z M166.50 341.86 L183.40 349.01 L188.77 350.19 L174.34 343.59 Z M174.34 343.59 L188.77 350.19 L195.08 351.16 L183.56 345.01 Z M183.56 345.01 L195.08 351.16 L202.14 351.90 L193.89 346.10 Z M202.14 351.90 L210.93 353.71 L214.79 353.95 L209.74 352.39 Z M209.74 352.39 L214.79 353.95 L218.81 354.07 L217.66 352.61 Z M217.66 352.61 L218.81 354.07 L222.87 354.04 L225.66 352.55 Z M225.66 352.55 L222.87 354.04 L226.84 353.87 L233.47 352.22 Z M233.47 352.22 L226.84 353.87 L230.60 353.56 L240.88 351.62 Z M240.88 351.62 L230.60 353.56 L234.04 353.14 L247.66 350.78 Z M247.66 350.78 L234.04 353.14 L237.06 352.59 L253.60 349.72 Z M253.60 349.72 L237.06 352.59 L239.55 351.96 L258.50 348.46 Z M258.50 348.46 L239.55 351.96 L241.45 351.25 L262.25 347.06 Z M262.25 347.06 L241.45 351.25 L242.70 350.48 L264.70 345.55 Z M264.70 345.55 L242.70 350.48 L243.26 349.68 L265.81 343.98 Z M265.81 343.98 L243.26 349.68 L243.11 348.87 L265.52 342.39 Z M265.52 342.39 L243.11 348.87 L242.26 348.09 L263.84 340.83 Z M263.84 340.83 L242.26 348.09 L240.73 347.34 L260.84 339.36 Z M260.84 339.36 L240.73 347.34 L238.58 346.65 L256.60 338.02 Z M256.60 338.02 L238.58 346.65 L235.86 346.06 L251.23 336.84 Z M251.23 336.84 L235.86 346.06 L232.65 345.56 L244.92 335.86 Z M244.92 335.86 L232.65 345.56 L229.07 345.18 L237.86 335.12 Z M237.86 335.12 L229.07 345.18 L225.21 344.94 L230.26 334.63 Z M230.26 334.63 L225.21 344.94 L221.19 344.82 L222.34 334.41 Z M222.34 334.41 L221.19 344.82 L217.13 344.85 L214.34 334.47 Z M214.34 334.47 L217.13 344.85 L213.16 345.02 L206.53 334.80 Z M206.53 334.80 L213.16 345.02 L209.40 345.33 L199.12 335.40 Z M199.12 335.40 L209.40 345.33 L205.96 345.75 L192.34 336.24 Z M192.34 336.24 L205.96 345.75 L202.94 346.29 L186.40 337.31 Z M186.40 337.31 L202.94 346.29 L200.45 346.93 L181.50 338.56 Z M181.50 338.56 L200.45 346.93 L198.55 347.64 L177.75 339.96 Z M177.75 339.96 L198.55 347.64 L197.30 348.41 L175.30 341.47 Z M175.30 341.47 L197.30 348.41 L196.74 349.21 L174.19 343.05 Z M174.19 343.05 L196.74 349.21 L196.89 350.01 L174.48 344.63 Z M174.48 344.63 L196.89 350.01 L197.74 350.80 L176.16 346.19 Z M176.16 346.19 L197.74 350.80 L199.27 351.55 L179.16 347.66 Z M179.16 347.66 L199.27 351.55 L201.42 352.23 L183.40 349.01 Z M183.40 349.01 L201.42 352.23 L204.14 352.83 L188.77 350.19 Z M188.77 350.19 L204.14 352.83 L207.35 353.33 L195.08 351.16 Z M195.08 351.16 L207.35 353.33 L210.93 353.71 L202.14 351.90 Z M210.93 353.71 L220.00 351.44 L220.00 351.44 L214.79 353.95 Z M214.79 353.95 L220.00 351.44 L220.00 351.44 L218.81 354.07 Z M218.81 354.07 L220.00 351.44 L220.00 351.44 L222.87 354.04 Z M222.87 354.04 L220.00 351.44 L220.00 351.44 L226.84 353.87 Z M226.84 353.87 L220.00 351.44 L220.00 351.44 L230.60 353.56 Z M230.60 353.56 L220.00 351.44 L220.00 351.44 L234.04 353.14 Z M234.04 353.14 L220.00 351.44 L220.00 351.44 L237.06 352.59 Z M237.06 352.59 L220.00 351.44 L220.00 351.44 L239.55 351.96 Z M239.55 351.96 L220.00 351.44 L220.00 351.44 L241.45 351.25 Z M241.45 351.25 L220.00 351.44 L220.00 351.44 L242.70 350.48 Z M242.70 350.48 L220.00 351.44 L220.00 351.44 L243.26 349.68 Z M243.26 349.68 L220.00 351.44 L220.00 351.44 L243.11 348.87 Z M243.11 348.87 L220.00 351.44 L220.00 351.44 L242.26 348.09 Z M242.26 348.09 L220.00 351.44 L220.00 351.44 L240.73 347.34 Z M240.73 347.34 L220.00 351.44 L220.00 351.44 L238.58 346.65 Z M238.58 346.65 L220.00 351.44 L220.00 351.44 L235.86 346.06 Z M235.86 346.06 L220.00 351.44 L220.00 351.44 L232.65 345.56 Z M232.65 345.56 L220.00 351.44 L220.00 351.44 L229.07 345.18 Z M229.07 345.18 L220.00 351.44 L220.00 351.44 L225.21 344.94 Z M225.21 344.94 L220.00 351.44 L220.00 351.44 L221.19 344.82 Z M221.19 344.82 L220.00 351.44 L220.00 351.44 L217.13 344.85 Z M217.13 344.85 L220.00 351.44 L220.00 351.44 L213.16 345.02 Z M213.16 345.02 L220.00 351.44 L220.00 351.44 L209.40 345.33 Z M209.40 345.33 L220.00 351.44 L220.00 351.44 L205.96 345.75 Z M205.96 345.75 L220.00 351.44 L220.00 351.44 L202.94 346.29 Z M202.94 346.29 L220.00 351.44 L220.00 351.44 L200.45 346.93 Z M200.45 346.93 L220.00 351.44 L220.00 351.44 L198.55 347.64 Z M198.55 347.64 L220.00 351.44 L220.00 351.44 L197.30 348.41 Z M197.30 348.41 L220.00 351.44 L220.00 351.44 L196.74 349.21 Z M196.74 349.21 L220.00 351.44 L220.00 351.44 L196.89 350.01 Z M196.89 350.01 L220.00 351.44 L220.00 351.44 L197.74 350.80 Z M197.74 350.80 L220.00 351.44 L220.00 351.44 L199.27 351.55 Z M199.27 351.55 L220.00 351.44 L220.00 351.44 L201.42 352.23 Z M201.42 352.23 L220.00 351.44 L220.00 351.44 L204.14 352.83 Z M204.14 352.83 L220.00 351.44 L220.00 351.44 L207.35 353.33 Z M207.35 353.33 L220.00 351.44 L220.00 351.44 L210.93 353.71 Z "></path><path id="M11" stroke="darkblue" stroke-width="0.5" stroke-dasharray="1,0" fill="none" fill-opacity="1" d="M148.70 316.52 L44.25 365.60 L44.25 102.73 L148.70 53.64 Z M395.75 337.27 L291.30 386.36 L291.30 123.48 L395.75 74.40 Z M148.70 316.52 L395.75 337.27 Z M44.25 365.60 L291.30 386.36 Z M44.25 102.73 L291.30 123.48 Z M148.70 53.64 L395.75 74.40 Z Z "></path><path id="M1" stroke="darkblue" stroke-width="0.5" stroke-dasharray="2,4" fill="none" fill-opacity="1" d="M231.05 323.44 L126.60 372.52 L126.60 109.64 L231.05 60.56 Z M313.40 330.36 L208.95 379.44 L208.95 116.56 L313.40 67.48 Z M148.70 228.90 L44.25 277.98 L291.30 298.73 L395.75 249.65 Z M148.70 141.27 L44.25 190.35 L291.30 211.10 L395.75 162.02 Z M113.88 332.88 L113.88 70.01 L360.93 90.76 L360.93 353.63 Z M79.07 349.24 L79.07 86.37 L326.12 107.12 L326.12 369.99 Z "></path><path id="M2" stroke="#0b22ae" stroke-width="0.5" stroke-dasharray="1,0" fill="darkblue" fill-opacity="0.3" d="M86.06 218.64 L88.10 195.84 L94.14 173.77 L104.00 153.11 L106.80 149.12 L119.87 130.95 L135.98 115.48 L154.64 103.19 L158.24 100.98 L177.75 92.94 L181.50 91.54 L186.40 90.28 L192.34 89.22 L205.96 86.86 L209.40 86.44 L213.16 86.13 L217.13 85.96 L221.19 85.93 L225.21 86.05 L229.07 86.29 L232.65 86.67 L235.86 87.17 L251.23 89.81 L256.60 90.99 L260.84 92.34 L279.71 100.10 L284.10 102.26 L302.40 114.28 L305.55 117.20 L321.95 133.00 L335.26 151.44 L345.06 171.96 L351.07 193.94 L351.90 198.51 L353.94 221.36 L351.90 244.16 L345.86 266.23 L336.00 286.89 L333.20 290.88 L320.13 309.05 L304.02 324.52 L285.36 336.81 L281.76 339.02 L262.25 347.06 L258.50 348.46 L253.60 349.72 L247.66 350.78 L234.04 353.14 L230.60 353.56 L226.84 353.87 L222.87 354.04 L218.81 354.07 L214.79 353.95 L210.93 353.71 L207.35 353.33 L204.14 352.83 L188.77 350.19 L183.40 349.01 L179.16 347.66 L160.29 339.90 L155.90 337.74 L137.60 325.72 L134.45 322.80 L118.05 307.00 L104.74 288.56 L94.94 268.04 L88.93 246.06 L88.10 241.49 Z "></path></svg>