<svg xmlns="http://www.w3.org/2000/svg" id="svg" width="440" height="440" font-family="Times" font-size="14" oncopy="svg_copy(this);">
<text x="10" y="10" id="title" font-style="italic" style="fill1:#ff6633;stroke:none">θ<tspan dy="6" font-size="0.8em">0</tspan><tspan dy="-6" font-style="normal"> = 270° <tspan font-style="italic">φ</tspan><tspan dy="6" font-size="0.8em">0</tspan><tspan dy="-6" font-style="normal"> = 0°</tspan></tspan></text>
<text x="280" y="10" id="title2" font-style="italic" style="fill1:#ff6633;stroke:none">f<tspan dy="6" font-size="0.8em">0</tspan><tspan dy="-6" font-style="normal"> = 120 kHz <tspan font-style="italic">c</tspan><tspan dy="6" font-size="0.8em">0</tspan><tspan dy="-6" font-style="normal"> = 1480 m/s</tspan></tspan></text>
<text x="340" y="432" id="title3" font-style="italic" style="fill1:#ff6633;stroke:none">TS<tspan font-style="normal"> = -47.49 dB</tspan></text>
<text x="10" y="432" id="title4" font-style="italic" style="fill1:#ff6633;stroke:none">ℒ<tspan dy="6" font-size="0.8em">BS</tspan><tspan dy="-6" font-style="normal"> = 0.0042 m</tspan></text>
<g id="svg0" transform="translate(20,20)">
<line x1="210" y1="200" x2="400" y2="200" stroke="gray"></line>
<line x1="210" y1="200" x2="400" y2="200" stroke="gray" transform="rotate(30 200 200)" stroke-dasharray="1,1"></line>
<line x1="210" y1="200" x2="400" y2="200" stroke="gray" transform="rotate(60 200 200)" stroke-dasharray="1,1"></line>
<line x1="210" y1="200" x2="400" y2="200" stroke="gray" transform="rotate(90 200 200)" stroke-dasharray="1,1"></line>
<line x1="210" y1="200" x2="400" y2="200" stroke="gray" transform="rotate(120 200 200)" stroke-dasharray="1,1"></line>
<line x1="210" y1="200" x2="400" y2="200" stroke="gray" transform="rotate(150 200 200)" stroke-dasharray="1,1"></line>
<line x1="210" y1="200" x2="400" y2="200" stroke="gray" transform="rotate(180 200 200)" stroke-dasharray="1,1"></line>
<line x1="210" y1="200" x2="400" y2="200" stroke="gray" transform="rotate(210 200 200)" stroke-dasharray="1,1"></line>
<line x1="210" y1="200" x2="400" y2="200" stroke="gray" transform="rotate(240 200 200)" stroke-dasharray="1,1"></line>
<line x1="210" y1="200" x2="400" y2="200" stroke="gray" transform="rotate(270 200 200)" stroke-dasharray="1,1"></line>
<line x1="210" y1="200" x2="400" y2="200" stroke="gray" transform="rotate(300 200 200)" stroke-dasharray="1,1"></line>
<line x1="210" y1="200" x2="400" y2="200" stroke="gray" transform="rotate(330 200 200)" stroke-dasharray="1,1"></line>
<circle cx="200" cy="200" r="10" stroke="black" fill="none"></circle>	
<circle cx="200" cy="200" r="57.5" stroke="gray" fill="none" stroke-dasharray="1,1"></circle>	
<circle cx="200" cy="200" r="105" stroke="gray" fill="none" stroke-dasharray="1,1"></circle>	
<circle cx="200" cy="200" r="152.5" stroke="gray" fill="none" stroke-dasharray="1,1"></circle>	
<circle cx="200" cy="200" r="200" stroke="black" fill="none"></circle>
<text x="205" y="215">-60</text>
<text x="245" y="215">-50</text>
<text x="295" y="215">-40</text>
<text x="342" y="215">-30</text>
<text x="380" y="215">-20</text>
<text x="405" y="205">0</text>
<g transform="rotate(-30,200,200)"><text x="405" y="205">30</text></g>
<g transform="rotate(-60,200,200)"><text x="405" y="205">60</text></g>
<text x="195" y="-5">90</text>
<g transform="rotate(60,200,200)"><text x="-30" y="205">120</text></g>
<g transform="rotate(30,200,200)"><text x="-30" y="205">150</text></g>
<text x="-20" y="205">180</text>
<g transform="rotate(-30,200,200)"><text x="-30" y="205">210</text></g>
<g transform="rotate(-60,200,200)"><text x="-30" y="205">240</text></g>
<text x="190" y="415">270</text>
<g transform="rotate( 60,200,200)"><text x="405" y="205">300</text></g>
<g transform="rotate( 30,200,200)"><text x="405" y="205">330</text></g>

<line x1="390" y1="200" x2="400" y2="200" stroke="black" transform="rotate(0 200 200)"></line>
<line x1="390" y1="200" x2="400" y2="200" stroke="black" transform="rotate(30 200 200)"></line>
<line x1="390" y1="200" x2="400" y2="200" stroke="black" transform="rotate(60 200 200)"></line>
<line x1="390" y1="200" x2="400" y2="200" stroke="black" transform="rotate(90 200 200)"></line>
<line x1="390" y1="200" x2="400" y2="200" stroke="black" transform="rotate(120 200 200)"></line>
<line x1="390" y1="200" x2="400" y2="200" stroke="black" transform="rotate(150 200 200)"></line>
<line x1="390" y1="200" x2="400" y2="200" stroke="black" transform="rotate(180 200 200)"></line>
<line x1="390" y1="200" x2="400" y2="200" stroke="black" transform="rotate(210 200 200)"></line>
<line x1="390" y1="200" x2="400" y2="200" stroke="black" transform="rotate(240 200 200)"></line>
<line x1="390" y1="200" x2="400" y2="200" stroke="black" transform="rotate(270 200 200)"></line>
<line x1="390" y1="200" x2="400" y2="200" stroke="black" transform="rotate(300 200 200)"></line>
<line x1="390" y1="200" x2="400" y2="200" stroke="black" transform="rotate(330 200 200)"></line>

<line x1="257.5" y1="195" x2="257.5" y2="200" stroke="black"></line>
<line x1="305" y1="195" x2="305" y2="200" stroke="black"></line>
<line x1="352.5" y1="195" x2="352.5" y2="200" stroke="black"></line>
<path id="F" stroke="#AA69D3" stroke-width="3" stroke-dasharray="1,0" fill="none" d=""></path><path id="P" stroke="#ff6633" stroke-width="3" stroke-dasharray="1,0" fill="none" d="M307.94 200.00 L306.98 198.13 L306.05 196.30 L305.20 194.49 L304.48 192.69 L303.93 190.91 L303.57 189.11 L303.39 187.30 L303.40 185.47 L303.54 183.60 L303.79 181.70 L304.09 179.77 L304.39 177.81 L304.65 175.84 L304.82 173.87 L304.88 171.90 L304.79 169.95 L304.54 168.04 L304.11 166.17 L303.49 164.37 L302.68 162.63 L301.67 160.97 L300.47 159.41 L299.08 157.94 L297.51 156.59 L295.76 155.34 L293.87 154.22 L291.84 153.21 L289.70 152.31 L287.49 151.50 L285.26 150.78 L283.04 150.10 L280.91 149.44 L278.93 148.74 L277.15 147.96 L275.63 147.04 L274.41 145.93 L273.51 144.61 L272.89 143.05 L272.52 141.27 L272.34 139.30 L272.28 137.17 L272.28 134.92 L272.29 132.59 L272.25 130.23 L272.15 127.85 L271.94 125.50 L271.63 123.19 L271.19 120.94 L270.62 118.76 L269.93 116.66 L269.11 114.66 L268.15 112.77 L267.08 110.98 L265.89 109.31 L264.59 107.76 L263.18 106.34 L261.66 105.05 L260.05 103.90 L258.35 102.88 L256.57 102.02 L254.71 101.30 L252.78 100.74 L250.78 100.33 L248.73 100.09 L246.63 100.00 L244.48 100.09 L242.31 100.33 L240.10 100.75 L237.88 101.33 L235.64 102.08 L233.40 102.99 L231.17 104.07 L228.95 105.31 L226.76 106.69 L224.60 108.21 L222.47 109.86 L220.40 111.62 L218.39 113.48 L216.44 115.40 L214.57 117.37 L212.77 119.35 L211.06 121.30 L209.43 123.17 L207.89 124.93 L206.43 126.53 L205.04 127.91 L203.72 129.04 L202.45 129.88 L201.21 130.40 L200.00 130.57 L198.79 130.40 L197.55 129.88 L196.28 129.04 L194.96 127.91 L193.57 126.53 L192.11 124.93 L190.57 123.17 L188.94 121.30 L187.23 119.35 L185.43 117.37 L183.56 115.40 L181.61 113.48 L179.60 111.62 L177.53 109.86 L175.40 108.21 L173.24 106.69 L171.05 105.31 L168.83 104.07 L166.60 102.99 L164.36 102.08 L162.12 101.33 L159.90 100.75 L157.69 100.33 L155.52 100.09 L153.37 100.00 L151.27 100.09 L149.22 100.33 L147.22 100.74 L145.29 101.30 L143.43 102.02 L141.65 102.88 L139.95 103.90 L138.34 105.05 L136.82 106.34 L135.41 107.76 L134.11 109.31 L132.92 110.98 L131.85 112.77 L130.89 114.66 L130.07 116.66 L129.38 118.76 L128.81 120.94 L128.37 123.19 L128.06 125.50 L127.85 127.85 L127.75 130.23 L127.71 132.59 L127.72 134.92 L127.72 137.17 L127.66 139.30 L127.48 141.27 L127.11 143.05 L126.49 144.61 L125.59 145.93 L124.37 147.04 L122.85 147.96 L121.07 148.74 L119.09 149.44 L116.96 150.10 L114.74 150.78 L112.51 151.50 L110.30 152.31 L108.16 153.21 L106.13 154.22 L104.24 155.34 L102.49 156.59 L100.92 157.94 L99.53 159.41 L98.33 160.97 L97.32 162.63 L96.51 164.37 L95.89 166.17 L95.46 168.04 L95.21 169.95 L95.12 171.90 L95.18 173.87 L95.35 175.84 L95.61 177.81 L95.91 179.77 L96.21 181.70 L96.46 183.60 L96.60 185.47 L96.61 187.30 L96.43 189.11 L96.07 190.91 L95.52 192.69 L94.80 194.49 L93.95 196.30 L93.02 198.13 L92.06 200.00 L91.11 201.90 L90.23 203.83 L89.46 205.79 L88.84 207.77 L88.40 209.76 L88.16 211.76 L88.14 213.73 L88.37 215.69 L88.86 217.60 L89.61 219.46 L90.64 221.26 L91.93 222.97 L93.49 224.59 L95.29 226.11 L97.32 227.51 L99.51 228.82 L101.79 230.02 L104.07 231.17 L106.20 232.30 L108.05 233.47 L109.46 234.76 L110.34 236.22 L110.68 237.92 L110.53 239.83 L110.04 241.95 L109.37 244.21 L108.66 246.54 L108.04 248.90 L107.59 251.22 L107.36 253.48 L107.38 255.65 L107.65 257.71 L108.15 259.65 L108.84 261.49 L109.69 263.23 L110.65 264.91 L111.67 266.56 L112.71 268.20 L113.73 269.86 L114.72 271.56 L115.68 273.30 L116.64 275.06 L117.63 276.81 L118.70 278.51 L119.88 280.12 L121.20 281.60 L122.66 282.93 L124.26 284.12 L125.95 285.19 L127.64 286.23 L129.25 287.37 L130.65 288.76 L131.75 290.57 L132.50 292.90 L132.95 295.76 L133.19 299.05 L133.39 302.57 L133.68 306.14 L134.17 309.56 L134.95 312.67 L136.06 315.35 L137.53 317.50 L139.36 319.02 L141.55 319.84 L144.07 319.93 L146.88 319.31 L149.83 318.19 L152.69 317.10 L155.02 317.18 L156.40 319.79 L156.79 325.48 L156.68 333.34 L156.58 342.03 L156.81 350.64 L157.46 358.75 L158.56 366.21 L160.06 373.00 L161.92 379.13 L164.11 384.65 L166.57 389.58 L169.28 393.96 L172.20 397.82 L175.30 401.18 L178.55 404.05 L181.94 406.46 L185.43 408.42 L189.00 409.94 L192.63 411.01 L196.31 411.66 L200.00 411.87 L203.69 411.66 L207.37 411.01 L211.00 409.94 L214.57 408.42 L218.06 406.46 L221.45 404.05 L224.70 401.18 L227.80 397.82 L230.72 393.96 L233.43 389.58 L235.89 384.65 L238.08 379.13 L239.94 373.00 L241.44 366.21 L242.54 358.75 L243.19 350.64 L243.42 342.03 L243.32 333.34 L243.21 325.48 L243.60 319.79 L244.98 317.18 L247.31 317.10 L250.17 318.19 L253.12 319.31 L255.93 319.93 L258.45 319.84 L260.64 319.02 L262.47 317.50 L263.94 315.35 L265.05 312.67 L265.83 309.56 L266.32 306.14 L266.61 302.57 L266.81 299.05 L267.05 295.76 L267.50 292.90 L268.25 290.57 L269.35 288.76 L270.75 287.37 L272.36 286.23 L274.05 285.19 L275.74 284.12 L277.34 282.93 L278.80 281.60 L280.12 280.12 L281.30 278.51 L282.37 276.81 L283.36 275.06 L284.32 273.30 L285.28 271.56 L286.27 269.86 L287.29 268.20 L288.33 266.56 L289.35 264.91 L290.31 263.23 L291.16 261.49 L291.85 259.65 L292.35 257.71 L292.62 255.65 L292.64 253.48 L292.41 251.22 L291.96 248.90 L291.34 246.54 L290.63 244.21 L289.96 241.95 L289.47 239.83 L289.32 237.92 L289.66 236.22 L290.54 234.76 L291.95 233.47 L293.80 232.30 L295.93 231.17 L298.21 230.02 L300.49 228.82 L302.68 227.51 L304.71 226.11 L306.51 224.59 L308.07 222.97 L309.36 221.26 L310.39 219.46 L311.14 217.60 L311.63 215.69 L311.86 213.73 L311.84 211.76 L311.60 209.76 L311.16 207.77 L310.54 205.79 L309.77 203.83 L308.89 201.90 Z "></path><circle id="P_TS" fill="#ff6633" stroke-width="1" stroke="#ff6633" r="4" cx="200" cy="130.5659972646338"><title>TS(90°)=-47.49</title></circle><path id="Q" stroke="#4da6ff" stroke-width="3" stroke-dasharray="4,2" fill="none" d="M304.52 200.00 L304.43 198.18 L304.33 196.36 L304.21 194.54 L304.07 192.72 L303.92 190.91 L303.73 189.10 L303.52 187.29 L303.27 185.49 L302.98 183.69 L302.65 181.90 L302.29 180.12 L301.89 178.34 L301.45 176.58 L300.98 174.82 L300.47 173.08 L299.93 171.34 L299.37 169.62 L298.78 167.90 L298.17 166.20 L297.53 164.50 L296.87 162.82 L296.18 161.14 L295.47 159.47 L294.74 157.82 L293.98 156.18 L293.19 154.55 L292.38 152.93 L291.53 151.33 L290.66 149.75 L289.76 148.18 L288.83 146.63 L287.87 145.09 L286.88 143.58 L285.87 142.08 L284.83 140.60 L283.76 139.14 L282.67 137.70 L281.56 136.28 L280.42 134.88 L279.26 133.49 L278.08 132.13 L276.87 130.78 L275.64 129.46 L274.39 128.16 L273.12 126.88 L271.83 125.62 L270.51 124.38 L269.18 123.17 L267.82 121.98 L266.45 120.81 L265.05 119.67 L263.63 118.55 L262.20 117.46 L260.75 116.39 L259.28 115.34 L257.79 114.33 L256.28 113.33 L254.76 112.37 L253.22 111.43 L251.66 110.52 L250.09 109.64 L248.50 108.78 L246.90 107.95 L245.28 107.15 L243.66 106.38 L242.01 105.64 L240.36 104.93 L238.69 104.24 L237.01 103.59 L235.32 102.96 L233.62 102.36 L231.91 101.80 L230.19 101.26 L228.46 100.75 L226.72 100.27 L224.98 99.82 L223.23 99.40 L221.47 99.01 L219.70 98.65 L217.93 98.32 L216.15 98.02 L214.37 97.75 L212.58 97.51 L210.79 97.30 L209.00 97.12 L207.20 96.98 L205.40 96.87 L203.60 96.79 L201.80 96.74 L200.00 96.72 L198.20 96.74 L196.40 96.79 L194.60 96.87 L192.80 96.98 L191.00 97.12 L189.21 97.30 L187.42 97.51 L185.63 97.75 L183.85 98.02 L182.07 98.32 L180.30 98.65 L178.53 99.01 L176.77 99.40 L175.02 99.82 L173.28 100.27 L171.54 100.75 L169.81 101.26 L168.09 101.80 L166.38 102.36 L164.68 102.96 L162.99 103.59 L161.31 104.24 L159.64 104.93 L157.99 105.64 L156.34 106.38 L154.72 107.15 L153.10 107.95 L151.50 108.78 L149.91 109.64 L148.34 110.52 L146.78 111.43 L145.24 112.37 L143.72 113.33 L142.21 114.33 L140.72 115.34 L139.25 116.39 L137.80 117.46 L136.37 118.55 L134.95 119.67 L133.55 120.81 L132.18 121.98 L130.82 123.17 L129.49 124.38 L128.17 125.62 L126.88 126.88 L125.61 128.16 L124.36 129.46 L123.13 130.78 L121.92 132.13 L120.74 133.49 L119.58 134.88 L118.44 136.28 L117.33 137.70 L116.24 139.14 L115.17 140.60 L114.13 142.08 L113.12 143.58 L112.13 145.09 L111.17 146.63 L110.24 148.18 L109.34 149.75 L108.47 151.33 L107.62 152.93 L106.81 154.55 L106.02 156.18 L105.26 157.82 L104.53 159.47 L103.82 161.14 L103.13 162.82 L102.47 164.50 L101.83 166.20 L101.22 167.90 L100.63 169.62 L100.07 171.34 L99.53 173.08 L99.02 174.82 L98.55 176.58 L98.11 178.34 L97.71 180.12 L97.35 181.90 L97.02 183.69 L96.73 185.49 L96.48 187.29 L96.27 189.10 L96.08 190.91 L95.93 192.72 L95.79 194.54 L95.67 196.36 L95.57 198.18 L95.48 200.00 L95.41 201.83 L95.34 203.65 L95.29 205.49 L95.26 207.32 L95.26 209.16 L95.30 211.00 L95.39 212.84 L95.53 214.68 L95.72 216.52 L95.98 218.34 L96.30 220.16 L96.67 221.96 L97.08 223.76 L97.53 225.55 L98.00 227.33 L98.47 229.11 L98.92 230.90 L99.35 232.70 L99.75 234.52 L100.12 236.35 L100.47 238.21 L100.82 240.07 L101.18 241.95 L101.59 243.82 L102.06 245.67 L102.62 247.49 L103.29 249.28 L104.07 251.01 L104.97 252.68 L105.96 254.29 L107.04 255.86 L108.16 257.39 L109.28 258.92 L110.35 260.47 L111.33 262.09 L112.18 263.80 L112.90 265.64 L113.48 267.60 L113.97 269.66 L114.43 271.80 L114.92 273.96 L115.50 276.09 L116.22 278.12 L117.15 280.01 L118.28 281.72 L119.66 283.20 L121.25 284.45 L123.03 285.49 L124.94 286.35 L126.88 287.14 L128.74 288.00 L130.37 289.12 L131.67 290.68 L132.56 292.82 L133.10 295.54 L133.41 298.73 L133.63 302.19 L133.94 305.71 L134.45 309.10 L135.23 312.18 L136.35 314.83 L137.81 316.96 L139.64 318.47 L141.82 319.29 L144.33 319.37 L147.14 318.72 L150.15 317.45 L153.15 315.96 L155.78 315.19 L157.58 316.54 L158.33 321.01 L158.37 328.13 L158.26 336.52 L158.40 345.07 L158.95 353.22 L159.92 360.74 L161.31 367.59 L163.06 373.78 L165.14 379.33 L167.50 384.29 L170.11 388.69 L172.94 392.56 L175.94 395.92 L179.11 398.80 L182.40 401.21 L185.79 403.17 L189.27 404.68 L192.81 405.76 L196.40 406.40 L200.00 406.62 L203.60 406.40 L207.19 405.76 L210.73 404.68 L214.21 403.17 L217.60 401.21 L220.89 398.80 L224.06 395.92 L227.06 392.56 L229.89 388.69 L232.50 384.29 L234.86 379.33 L236.94 373.78 L238.69 367.59 L240.08 360.74 L241.05 353.22 L241.60 345.07 L241.74 336.52 L241.63 328.13 L241.67 321.01 L242.42 316.54 L244.22 315.19 L246.85 315.96 L249.85 317.45 L252.86 318.72 L255.67 319.37 L258.18 319.29 L260.36 318.47 L262.19 316.96 L263.65 314.83 L264.77 312.18 L265.55 309.10 L266.06 305.71 L266.37 302.19 L266.59 298.73 L266.90 295.54 L267.44 292.82 L268.33 290.68 L269.63 289.12 L271.26 288.00 L273.12 287.14 L275.06 286.35 L276.97 285.49 L278.75 284.45 L280.34 283.20 L281.72 281.72 L282.85 280.01 L283.78 278.12 L284.50 276.09 L285.08 273.96 L285.57 271.80 L286.03 269.66 L286.52 267.60 L287.10 265.64 L287.82 263.80 L288.67 262.09 L289.65 260.47 L290.72 258.92 L291.84 257.39 L292.96 255.86 L294.04 254.29 L295.03 252.68 L295.93 251.01 L296.71 249.28 L297.38 247.49 L297.94 245.67 L298.41 243.82 L298.82 241.95 L299.18 240.07 L299.53 238.21 L299.88 236.35 L300.25 234.52 L300.65 232.70 L301.08 230.90 L301.53 229.11 L302.00 227.33 L302.47 225.55 L302.92 223.76 L303.33 221.96 L303.70 220.16 L304.02 218.34 L304.28 216.52 L304.47 214.68 L304.61 212.84 L304.70 211.00 L304.74 209.16 L304.74 207.32 L304.71 205.49 L304.66 203.65 L304.59 201.83 L304.52 200.00 Z "></path><circle id="Q_TS" fill="#4da6ff" stroke-width="1" stroke="#4da6ff" r="4" cx="200" cy="96.72293035582169"><title>TS(90°)=-40.36</title></circle></g>
</svg>