<svg xmlns="http://www.w3.org/2000/svg" id="svg1" width="440" height="440" font-family="Times" font-size="14" oncopy="svg_copy(this);">
      <g id="gt" transform="translate(0,20)">
      </g>
   <path id="Xp" stroke="red" stroke-width="0.875" stroke-dasharray="1,0" fill="none" d="M220.00 220.00 L6704.27 764.65 Z "></path><path id="Xn" stroke="red" stroke-width="0.875" stroke-dasharray="2,4" fill="none" d="M220.00 220.00 L-6264.27 -324.65 Z "></path><path id="Yp" stroke="green" stroke-width="0.875" stroke-dasharray="1,0" fill="none" d="M220.00 220.00 L220.00 -6679.67 Z "></path><path id="Yn" stroke="green" stroke-width="0.875" stroke-dasharray="2,4" fill="none" d="M220.00 220.00 L220.00 7119.67 Z "></path><path id="Zp" stroke="blue" stroke-width="0.875" stroke-dasharray="1,0" fill="none" d="M220.00 220.00 L-2521.51 1508.23 Z "></path><path id="Zn" stroke="blue" stroke-width="0.875" stroke-dasharray="2,4" fill="none" d="M220.00 220.00 L2961.51 -1068.23 Z "></path><circle id="O" fill="black" stroke-width="1" stroke="none" r="4" cx="220" cy="220"><title>[0,0,0]</title></circle><circle id="lambda_0" fill="#FFAA33" stroke-width="1" stroke="none" r="4" cx="346.27261458835346" cy="230.60640032221363"><title>λ/2=0.0195</title></circle><path id="B11" stroke="black" stroke-width="0.5" stroke-dasharray="1,0" fill="none" d="M147.11 318.67 L40.34 368.84 L40.34 100.12 L147.11 49.95 Z M399.66 339.88 L292.89 390.05 L292.89 121.33 L399.66 71.16 Z M147.11 318.67 L399.66 339.88 Z M40.34 368.84 L292.89 390.05 Z M40.34 100.12 L292.89 121.33 Z M147.11 49.95 L399.66 71.16 Z Z "></path><path id="B1" stroke="black" stroke-width="0.5" stroke-dasharray="2,4" fill="none" d="M231.30 325.74 L124.52 375.91 L124.52 107.19 L231.30 57.02 Z M315.48 332.81 L208.70 382.98 L208.70 114.26 L315.48 64.09 Z M147.11 229.09 L40.34 279.27 L292.89 300.48 L399.66 250.31 Z M147.11 139.52 L40.34 189.69 L292.89 210.91 L399.66 160.73 Z M111.52 335.39 L111.52 66.67 L364.07 87.88 L364.07 356.61 Z M75.93 352.12 L75.93 83.39 L328.48 104.61 L328.48 373.33 Z "></path><path id="C1" stroke="green" stroke-width="1" stroke-dasharray="1,2" fill="none" d="M456.54 214.16 L456.51 210.09 L456.40 206.01 L456.22 201.94 L455.97 197.88 L455.64 193.82 L455.25 189.77 L454.78 185.74 L454.24 181.71 L453.63 177.69 L452.95 173.68 L452.20 169.69 L451.37 165.72 L450.48 161.76 L449.52 157.82 L448.48 153.90 L447.38 150.00 L446.21 146.12 L444.97 142.26 L443.66 138.42 L442.28 134.61 L440.83 130.83 L439.32 127.07 L437.74 123.35 L436.09 119.65 L434.38 115.98 L432.60 112.34 L430.76 108.74 L428.86 105.17 L426.89 101.64 L424.85 98.14 L422.76 94.68 L420.60 91.25 L418.38 87.87 L416.10 84.53 L413.77 81.22 L411.37 77.96 L408.91 74.75 L406.40 71.57 L403.83 68.45 L401.20 65.37 L398.52 62.33 L395.79 59.35 L393.00 56.41 L390.16 53.52 L387.26 50.68 L384.32 47.90 L381.32 45.17 L378.28 42.49 L375.19 39.86 L372.05 37.29 L368.86 34.78 L365.63 32.32 L362.36 29.92 L359.04 27.57 L355.68 25.29 L352.27 23.06 L348.83 20.90 L345.35 18.79 L341.83 16.75 L338.27 14.77 L334.68 12.85 L331.05 10.99 L327.39 9.20 L323.69 7.47 L319.97 5.81 L316.21 4.21 L312.42 2.68 L308.61 1.21 L304.77 -0.19 L300.90 -1.52 L297.01 -2.78 L293.10 -3.98 L289.16 -5.11 L285.20 -6.17 L281.22 -7.16 L277.23 -8.08 L273.21 -8.94 L269.18 -9.72 L265.13 -10.43 L261.08 -11.08 L257.00 -11.65 L252.92 -12.15 L248.83 -12.58 L244.73 -12.94 L240.62 -13.23 L236.50 -13.45 L232.38 -13.60 L228.26 -13.67 L224.13 -13.68 L220.00 -13.61 L215.87 -13.47 L211.74 -13.26 L207.62 -12.98 L203.50 -12.63 L199.38 -12.21 L195.27 -11.72 L191.17 -11.16 L187.08 -10.52 L183.00 -9.82 L178.92 -9.05 L174.87 -8.20 L170.82 -7.29 L166.79 -6.31 L162.77 -5.26 L158.78 -4.14 L154.80 -2.95 L150.84 -1.70 L146.90 -0.37 L142.99 1.02 L139.10 2.47 L135.23 4.00 L131.39 5.59 L127.58 7.24 L123.79 8.96 L120.03 10.74 L116.31 12.59 L112.61 14.50 L108.95 16.47 L105.32 18.51 L101.73 20.61 L98.17 22.76 L94.65 24.98 L91.17 27.26 L87.73 29.59 L84.32 31.99 L80.96 34.44 L77.64 36.94 L74.37 39.51 L71.14 42.12 L67.95 44.80 L64.81 47.52 L61.72 50.30 L58.68 53.13 L55.68 56.01 L52.74 58.94 L49.84 61.92 L47.00 64.95 L44.21 68.02 L41.48 71.14 L38.80 74.31 L36.17 77.52 L33.60 80.78 L31.09 84.07 L28.63 87.41 L26.23 90.79 L23.90 94.21 L21.62 97.66 L19.40 101.16 L17.24 104.69 L15.15 108.25 L13.11 111.85 L11.14 115.48 L9.24 119.14 L7.40 122.84 L5.62 126.56 L3.91 130.32 L2.26 134.10 L0.68 137.90 L-0.83 141.73 L-2.28 145.59 L-3.66 149.46 L-4.97 153.36 L-6.21 157.28 L-7.38 161.22 L-8.48 165.18 L-9.52 169.15 L-10.48 173.14 L-11.37 177.14 L-12.20 181.16 L-12.95 185.18 L-13.63 189.22 L-14.24 193.27 L-14.78 197.32 L-15.25 201.39 L-15.64 205.46 L-15.97 209.53 L-16.22 213.60 L-16.40 217.68 L-16.51 221.76 L-16.54 225.84 L-16.51 229.91 L-16.40 233.99 L-16.22 238.06 L-15.97 242.12 L-15.64 246.18 L-15.25 250.23 L-14.78 254.26 L-14.24 258.29 L-13.63 262.31 L-12.95 266.32 L-12.20 270.31 L-11.37 274.28 L-10.48 278.24 L-9.52 282.18 L-8.48 286.10 L-7.38 290.00 L-6.21 293.88 L-4.97 297.74 L-3.66 301.58 L-2.28 305.39 L-0.83 309.17 L0.68 312.93 L2.26 316.65 L3.91 320.35 L5.62 324.02 L7.40 327.66 L9.24 331.26 L11.14 334.83 L13.11 338.36 L15.15 341.86 L17.24 345.32 L19.40 348.75 L21.62 352.13 L23.90 355.47 L26.23 358.78 L28.63 362.04 L31.09 365.25 L33.60 368.43 L36.17 371.55 L38.80 374.63 L41.48 377.67 L44.21 380.65 L47.00 383.59 L49.84 386.48 L52.74 389.32 L55.68 392.10 L58.68 394.83 L61.72 397.51 L64.81 400.14 L67.95 402.71 L71.14 405.22 L74.37 407.68 L77.64 410.08 L80.96 412.43 L84.32 414.71 L87.73 416.94 L91.17 419.10 L94.65 421.21 L98.17 423.25 L101.73 425.23 L105.32 427.15 L108.95 429.01 L112.61 430.80 L116.31 432.53 L120.03 434.19 L123.79 435.79 L127.58 437.32 L131.39 438.79 L135.23 440.19 L139.10 441.52 L142.99 442.78 L146.90 443.98 L150.84 445.11 L154.80 446.17 L158.78 447.16 L162.77 448.08 L166.79 448.94 L170.82 449.72 L174.87 450.43 L178.92 451.08 L183.00 451.65 L187.08 452.15 L191.17 452.58 L195.27 452.94 L199.38 453.23 L203.50 453.45 L207.62 453.60 L211.74 453.67 L215.87 453.68 L220.00 453.61 L224.13 453.47 L228.26 453.26 L232.38 452.98 L236.50 452.63 L240.62 452.21 L244.73 451.72 L248.83 451.16 L252.92 450.52 L257.00 449.82 L261.08 449.05 L265.13 448.20 L269.18 447.29 L273.21 446.31 L277.23 445.26 L281.22 444.14 L285.20 442.95 L289.16 441.70 L293.10 440.37 L297.01 438.98 L300.90 437.53 L304.77 436.00 L308.61 434.41 L312.42 432.76 L316.21 431.04 L319.97 429.26 L323.69 427.41 L327.39 425.50 L331.05 423.53 L334.68 421.49 L338.27 419.39 L341.83 417.24 L345.35 415.02 L348.83 412.74 L352.27 410.41 L355.68 408.01 L359.04 405.56 L362.36 403.06 L365.63 400.49 L368.86 397.88 L372.05 395.20 L375.19 392.48 L378.28 389.70 L381.32 386.87 L384.32 383.99 L387.26 381.06 L390.16 378.08 L393.00 375.05 L395.79 371.98 L398.52 368.86 L401.20 365.69 L403.83 362.48 L406.40 359.22 L408.91 355.93 L411.37 352.59 L413.77 349.21 L416.10 345.79 L418.38 342.34 L420.60 338.84 L422.76 335.31 L424.85 331.75 L426.89 328.15 L428.86 324.52 L430.76 320.86 L432.60 317.16 L434.38 313.44 L436.09 309.68 L437.74 305.90 L439.32 302.10 L440.83 298.27 L442.28 294.41 L443.66 290.54 L444.97 286.64 L446.21 282.72 L447.38 278.78 L448.48 274.82 L449.52 270.85 L450.48 266.86 L451.37 262.86 L452.20 258.84 L452.95 254.82 L453.63 250.78 L454.24 246.73 L454.78 242.68 L455.25 238.61 L455.64 234.54 L455.97 230.47 L456.22 226.40 L456.40 222.32 L456.51 218.24 Z "></path><path id="C1h" stroke="green" stroke-width="1" stroke-dasharray="1,2" fill="none" d="M439.55 238.44 L437.89 239.20 L436.17 239.95 L434.39 240.70 L432.54 241.44 L430.62 242.17 L428.64 242.90 L426.60 243.62 L424.49 244.33 L422.32 245.04 L420.09 245.73 L417.80 246.42 L415.45 247.11 L413.04 247.78 L410.57 248.45 L408.04 249.10 L405.46 249.75 L402.81 250.39 L400.12 251.02 L397.36 251.64 L394.56 252.25 L391.70 252.85 L388.79 253.44 L385.82 254.02 L382.81 254.59 L379.75 255.15 L376.64 255.70 L373.48 256.23 L370.27 256.76 L367.02 257.27 L363.72 257.78 L360.38 258.27 L357.00 258.75 L353.57 259.22 L350.11 259.68 L346.60 260.12 L343.06 260.56 L339.48 260.98 L335.86 261.39 L332.20 261.78 L328.52 262.16 L324.80 262.53 L321.04 262.89 L317.26 263.23 L313.45 263.56 L309.61 263.88 L305.74 264.19 L301.84 264.48 L297.92 264.75 L293.98 265.02 L290.02 265.27 L286.03 265.50 L282.02 265.72 L277.99 265.93 L273.95 266.13 L269.89 266.31 L265.82 266.47 L261.73 266.62 L257.62 266.76 L253.51 266.88 L249.39 266.99 L245.25 267.09 L241.11 267.17 L236.97 267.24 L232.81 267.29 L228.66 267.32 L224.50 267.35 L220.34 267.36 L216.18 267.35 L212.02 267.33 L207.86 267.29 L203.71 267.24 L199.56 267.18 L195.42 267.10 L191.29 267.01 L187.16 266.90 L183.05 266.78 L178.94 266.65 L174.85 266.50 L170.77 266.33 L166.71 266.16 L162.66 265.96 L158.64 265.76 L154.63 265.54 L150.63 265.31 L146.67 265.06 L142.72 264.80 L138.79 264.52 L134.90 264.23 L131.02 263.93 L127.18 263.62 L123.36 263.29 L119.57 262.95 L115.81 262.59 L112.09 262.22 L108.40 261.84 L104.74 261.45 L101.11 261.04 L97.53 260.63 L93.98 260.20 L90.46 259.75 L86.99 259.30 L83.56 258.83 L80.17 258.35 L76.82 257.86 L73.52 257.36 L70.26 256.84 L67.04 256.32 L63.88 255.78 L60.76 255.24 L57.69 254.68 L54.66 254.11 L51.69 253.53 L48.77 252.94 L45.90 252.35 L43.09 251.74 L40.33 251.12 L37.62 250.49 L34.97 249.85 L32.38 249.21 L29.84 248.55 L27.36 247.89 L24.94 247.22 L22.58 246.54 L20.28 245.85 L18.04 245.15 L15.86 244.45 L13.74 243.74 L11.69 243.02 L9.70 242.29 L7.77 241.56 L5.91 240.82 L4.11 240.07 L2.38 239.32 L0.72 238.57 L-0.88 237.80 L-2.41 237.03 L-3.87 236.26 L-5.26 235.48 L-6.59 234.70 L-7.85 233.91 L-9.03 233.12 L-10.15 232.32 L-11.20 231.52 L-12.18 230.72 L-13.08 229.91 L-13.92 229.10 L-14.68 228.29 L-15.37 227.47 L-15.99 226.66 L-16.54 225.84 L-17.02 225.02 L-17.43 224.19 L-17.76 223.37 L-18.02 222.55 L-18.20 221.72 L-18.32 220.89 L-18.36 220.07 L-18.33 219.24 L-18.23 218.41 L-18.05 217.59 L-17.80 216.76 L-17.48 215.94 L-17.09 215.12 L-16.63 214.30 L-16.09 213.48 L-15.48 212.66 L-14.80 211.84 L-14.05 211.03 L-13.22 210.22 L-12.33 209.41 L-11.36 208.61 L-10.33 207.81 L-9.22 207.01 L-8.05 206.22 L-6.80 205.43 L-5.49 204.65 L-4.10 203.87 L-2.65 203.09 L-1.13 202.32 L0.45 201.56 L2.11 200.80 L3.83 200.05 L5.61 199.30 L7.46 198.56 L9.38 197.83 L11.36 197.10 L13.40 196.38 L15.51 195.67 L17.68 194.96 L19.91 194.27 L22.20 193.58 L24.55 192.89 L26.96 192.22 L29.43 191.55 L31.96 190.90 L34.54 190.25 L37.19 189.61 L39.88 188.98 L42.64 188.36 L45.44 187.75 L48.30 187.15 L51.21 186.56 L54.18 185.98 L57.19 185.41 L60.25 184.85 L63.36 184.30 L66.52 183.77 L69.73 183.24 L72.98 182.73 L76.28 182.22 L79.62 181.73 L83.00 181.25 L86.43 180.78 L89.89 180.32 L93.40 179.88 L96.94 179.44 L100.52 179.02 L104.14 178.61 L107.80 178.22 L111.48 177.84 L115.20 177.47 L118.96 177.11 L122.74 176.77 L126.55 176.44 L130.39 176.12 L134.26 175.81 L138.16 175.52 L142.08 175.25 L146.02 174.98 L149.98 174.73 L153.97 174.50 L157.98 174.28 L162.01 174.07 L166.05 173.87 L170.11 173.69 L174.18 173.53 L178.27 173.38 L182.38 173.24 L186.49 173.12 L190.61 173.01 L194.75 172.91 L198.89 172.83 L203.03 172.76 L207.19 172.71 L211.34 172.68 L215.50 172.65 L219.66 172.64 L223.82 172.65 L227.98 172.67 L232.14 172.71 L236.29 172.76 L240.44 172.82 L244.58 172.90 L248.71 172.99 L252.84 173.10 L256.95 173.22 L261.06 173.35 L265.15 173.50 L269.23 173.67 L273.29 173.84 L277.34 174.04 L281.36 174.24 L285.37 174.46 L289.37 174.69 L293.33 174.94 L297.28 175.20 L301.21 175.48 L305.10 175.77 L308.98 176.07 L312.82 176.38 L316.64 176.71 L320.43 177.05 L324.19 177.41 L327.91 177.78 L331.60 178.16 L335.26 178.55 L338.89 178.96 L342.47 179.37 L346.02 179.80 L349.54 180.25 L353.01 180.70 L356.44 181.17 L359.83 181.65 L363.18 182.14 L366.48 182.64 L369.74 183.16 L372.96 183.68 L376.12 184.22 L379.24 184.76 L382.31 185.32 L385.34 185.89 L388.31 186.47 L391.23 187.06 L394.10 187.65 L396.91 188.26 L399.67 188.88 L402.38 189.51 L405.03 190.15 L407.62 190.79 L410.16 191.45 L412.64 192.11 L415.06 192.78 L417.42 193.46 L419.72 194.15 L421.96 194.85 L424.14 195.55 L426.26 196.26 L428.31 196.98 L430.30 197.71 L432.23 198.44 L434.09 199.18 L435.89 199.93 L437.62 200.68 L439.28 201.43 L440.88 202.20 L442.41 202.97 L443.87 203.74 L445.26 204.52 L446.59 205.30 L447.85 206.09 L449.03 206.88 L450.15 207.68 L451.20 208.48 L452.18 209.28 L453.08 210.09 L453.92 210.90 L454.68 211.71 L455.37 212.53 L455.99 213.34 L456.54 214.16 L457.02 214.98 L457.43 215.81 L457.76 216.63 L458.02 217.45 L458.20 218.28 L458.32 219.11 L458.36 219.93 L458.33 220.76 L458.23 221.59 L458.05 222.41 L457.80 223.24 L457.48 224.06 L457.09 224.88 L456.63 225.70 L456.09 226.52 L455.48 227.34 L454.80 228.16 L454.05 228.97 L453.22 229.78 L452.33 230.59 L451.36 231.39 L450.33 232.19 L449.22 232.99 L448.05 233.78 L446.80 234.57 L445.49 235.35 L444.10 236.13 L442.65 236.91 L441.13 237.68 Z "></path><path id="C2" stroke="green" stroke-width="1" stroke-dasharray="1,1" fill="none" d="M456.54 214.16 L449.45 214.34 Z M448.48 153.90 L441.63 155.88 Z M424.85 98.14 L418.71 101.79 Z M387.26 50.68 L382.24 55.76 Z M338.27 14.77 L334.72 20.93 Z M281.22 -7.16 L279.39 -0.35 Z M220.00 -13.61 L220.00 -6.60 Z M158.78 -4.14 L160.61 2.58 Z M101.73 20.61 L105.28 26.59 Z M52.74 58.94 L57.76 63.77 Z M15.15 108.25 L21.29 111.60 Z M-8.48 165.18 L-1.63 166.82 Z M-16.54 225.84 L-9.45 225.66 Z M-8.48 286.10 L-1.63 284.12 Z M15.15 341.86 L21.29 338.21 Z M52.74 389.32 L57.76 384.24 Z M101.73 425.23 L105.28 419.07 Z M158.78 447.16 L160.61 440.35 Z M220.00 453.61 L220.00 446.60 Z M281.22 444.14 L279.39 437.42 Z M338.27 419.39 L334.72 413.41 Z M387.26 381.06 L382.24 376.23 Z M424.85 331.75 L418.71 328.40 Z M448.48 274.82 L441.63 273.18 Z "></path><path id="C2h" stroke="green" stroke-width="1" stroke-dasharray="1,1" fill="none" d="M439.55 238.44 L432.96 237.89 Z M408.04 249.10 L402.40 248.23 Z M363.72 257.78 L359.41 256.65 Z M309.61 263.88 L306.92 262.57 Z M249.39 266.99 L248.50 265.58 Z M187.16 266.90 L188.15 265.50 Z M127.18 263.62 L129.96 262.31 Z M73.52 257.36 L77.91 256.24 Z M29.84 248.55 L35.55 247.70 Z M-0.88 237.80 L5.75 237.27 Z M-16.54 225.84 L-9.45 225.66 Z M-16.09 213.48 L-9.01 213.67 Z M0.45 201.56 L7.04 202.11 Z M31.96 190.90 L37.60 191.77 Z M76.28 182.22 L80.59 183.35 Z M130.39 176.12 L133.08 177.43 Z M190.61 173.01 L191.50 174.42 Z M252.84 173.10 L251.85 174.50 Z M312.82 176.38 L310.04 177.69 Z M366.48 182.64 L362.09 183.76 Z M410.16 191.45 L404.45 192.30 Z M440.88 202.20 L434.25 202.73 Z M456.54 214.16 L449.45 214.34 Z M456.09 226.52 L449.01 226.33 Z "></path><circle id="th_xy" fill="green" stroke-width="1" stroke="none" r="4" cx="139.0973033476057" cy="441.51898086394976"><title>θ=70 Φ=30</title></circle><path id="M" stroke="#0b22ae" stroke-width="0.5" stroke-dasharray="1,0" fill="none" d="M89.02 179.33 L102.63 176.44 L85.19 181.70 Z M85.19 181.70 L102.63 176.44 L98.14 179.27 Z M89.02 179.33 L85.19 181.70 L89.02 195.89 Z M85.19 181.70 L98.14 179.27 L81.62 185.03 Z M81.62 185.03 L98.14 179.27 L93.96 183.37 Z M85.19 181.70 L81.62 185.03 L89.02 195.89 Z M81.62 185.03 L93.96 183.37 L78.55 189.10 Z M78.55 189.10 L93.96 183.37 L90.36 188.45 Z M81.62 185.03 L78.55 189.10 L89.02 195.89 Z M78.55 189.10 L90.36 188.45 L76.20 193.63 Z M76.20 193.63 L90.36 188.45 L87.61 194.16 Z M78.55 189.10 L76.20 193.63 L89.02 195.89 Z M76.20 193.63 L87.61 194.16 L74.72 198.32 Z M74.72 198.32 L87.61 194.16 L85.87 200.11 Z M76.20 193.63 L74.72 198.32 L89.02 195.89 Z M74.72 198.32 L85.87 200.11 L74.21 202.85 Z M74.21 202.85 L85.87 200.11 L85.28 205.91 Z M74.72 198.32 L74.21 202.85 L89.02 195.89 Z M74.21 202.85 L85.28 205.91 L74.72 206.89 Z M74.72 206.89 L85.28 205.91 L85.87 211.15 Z M74.21 202.85 L74.72 206.89 L89.02 195.89 Z M74.72 206.89 L85.87 211.15 L76.20 210.19 Z M76.20 210.19 L85.87 211.15 L87.61 215.48 Z M74.72 206.89 L76.20 210.19 L89.02 195.89 Z M76.20 210.19 L87.61 215.48 L78.55 212.52 Z M78.55 212.52 L87.61 215.48 L90.36 218.60 Z M76.20 210.19 L78.55 212.52 L89.02 195.89 Z M78.55 212.52 L90.36 218.60 L81.62 213.70 Z M81.62 213.70 L90.36 218.60 L93.96 220.30 Z M78.55 212.52 L81.62 213.70 L89.02 195.89 Z M81.62 213.70 L93.96 220.30 L85.19 213.68 Z M85.19 213.68 L93.96 220.30 L98.14 220.46 Z M81.62 213.70 L85.19 213.68 L89.02 195.89 Z M85.19 213.68 L98.14 220.46 L89.02 212.45 Z M89.02 212.45 L98.14 220.46 L102.63 219.08 Z M85.19 213.68 L89.02 212.45 L89.02 195.89 Z M89.02 212.45 L102.63 219.08 L92.85 210.08 Z M92.85 210.08 L102.63 219.08 L107.13 216.24 Z M89.02 212.45 L92.85 210.08 L89.02 195.89 Z M92.85 210.08 L107.13 216.24 L96.42 206.75 Z M96.42 206.75 L107.13 216.24 L111.31 212.14 Z M92.85 210.08 L96.42 206.75 L89.02 195.89 Z M96.42 206.75 L111.31 212.14 L99.48 202.68 Z M99.48 202.68 L111.31 212.14 L114.91 207.07 Z M96.42 206.75 L99.48 202.68 L89.02 195.89 Z M99.48 202.68 L114.91 207.07 L101.84 198.14 Z M101.84 198.14 L114.91 207.07 L117.66 201.35 Z M99.48 202.68 L101.84 198.14 L89.02 195.89 Z M101.84 198.14 L117.66 201.35 L103.32 193.45 Z M103.32 193.45 L117.66 201.35 L119.40 195.40 Z M101.84 198.14 L103.32 193.45 L89.02 195.89 Z M103.32 193.45 L119.40 195.40 L103.82 188.93 Z M103.82 188.93 L119.40 195.40 L119.99 189.60 Z M103.32 193.45 L103.82 188.93 L89.02 195.89 Z M103.82 188.93 L119.99 189.60 L103.32 184.88 Z M103.32 184.88 L119.99 189.60 L119.40 184.36 Z M103.82 188.93 L103.32 184.88 L89.02 195.89 Z M103.32 184.88 L119.40 184.36 L101.84 181.58 Z M101.84 181.58 L119.40 184.36 L117.66 180.03 Z M103.32 184.88 L101.84 181.58 L89.02 195.89 Z M101.84 181.58 L117.66 180.03 L99.48 179.26 Z M99.48 179.26 L117.66 180.03 L114.91 176.92 Z M101.84 181.58 L99.48 179.26 L89.02 195.89 Z M99.48 179.26 L114.91 176.92 L96.42 178.07 Z M96.42 178.07 L114.91 176.92 L111.31 175.22 Z M99.48 179.26 L96.42 178.07 L89.02 195.89 Z M96.42 178.07 L111.31 175.22 L92.85 178.09 Z M92.85 178.09 L111.31 175.22 L107.13 175.05 Z M96.42 178.07 L92.85 178.09 L89.02 195.89 Z M92.85 178.09 L107.13 175.05 L89.02 179.33 Z M89.02 179.33 L107.13 175.05 L102.63 176.44 Z M92.85 178.09 L89.02 179.33 L89.02 195.89 Z M102.63 176.44 L116.25 173.54 L98.14 179.27 Z M98.14 179.27 L116.25 173.54 L111.10 176.85 Z M98.14 179.27 L111.10 176.85 L93.96 183.37 Z M93.96 183.37 L111.10 176.85 L106.30 181.71 Z M93.96 183.37 L106.30 181.71 L90.36 188.45 Z M90.36 188.45 L106.30 181.71 L102.18 187.80 Z M90.36 188.45 L102.18 187.80 L87.61 194.16 Z M87.61 194.16 L102.18 187.80 L99.02 194.68 Z M87.61 194.16 L99.02 194.68 L85.87 200.11 Z M85.87 200.11 L99.02 194.68 L97.03 201.91 Z M85.87 200.11 L97.03 201.91 L85.28 205.91 Z M85.28 205.91 L97.03 201.91 L96.35 208.98 Z M85.28 205.91 L96.35 208.98 L85.87 211.15 Z M85.87 211.15 L96.35 208.98 L97.03 215.41 Z M85.87 211.15 L97.03 215.41 L87.61 215.48 Z M87.61 215.48 L97.03 215.41 L99.02 220.76 Z M87.61 215.48 L99.02 220.76 L90.36 218.60 Z M90.36 218.60 L99.02 220.76 L102.18 224.68 Z M90.36 218.60 L102.18 224.68 L93.96 220.30 Z M93.96 220.30 L102.18 224.68 L106.30 226.89 Z M93.96 220.30 L106.30 226.89 L98.14 220.46 Z M98.14 220.46 L106.30 226.89 L111.10 227.24 Z M98.14 220.46 L111.10 227.24 L102.63 219.08 Z M102.63 219.08 L111.10 227.24 L116.25 225.71 Z M102.63 219.08 L116.25 225.71 L107.13 216.24 Z M107.13 216.24 L116.25 225.71 L121.40 222.40 Z M107.13 216.24 L121.40 222.40 L111.31 212.14 Z M111.31 212.14 L121.40 222.40 L126.20 217.54 Z M111.31 212.14 L126.20 217.54 L114.91 207.07 Z M114.91 207.07 L126.20 217.54 L130.33 211.45 Z M114.91 207.07 L130.33 211.45 L117.66 201.35 Z M117.66 201.35 L130.33 211.45 L133.49 204.57 Z M117.66 201.35 L133.49 204.57 L119.40 195.40 Z M119.40 195.40 L133.49 204.57 L135.48 197.34 Z M119.40 195.40 L135.48 197.34 L119.99 189.60 Z M119.99 189.60 L135.48 197.34 L136.16 190.27 Z M119.99 189.60 L136.16 190.27 L119.40 184.36 Z M119.40 184.36 L136.16 190.27 L135.48 183.84 Z M119.40 184.36 L135.48 183.84 L117.66 180.03 Z M117.66 180.03 L135.48 183.84 L133.49 178.49 Z M117.66 180.03 L133.49 178.49 L114.91 176.92 Z M114.91 176.92 L133.49 178.49 L130.33 174.57 Z M114.91 176.92 L130.33 174.57 L111.31 175.22 Z M111.31 175.22 L130.33 174.57 L126.20 172.36 Z M111.31 175.22 L126.20 172.36 L107.13 175.05 Z M107.13 175.05 L126.20 172.36 L121.40 172.01 Z M107.13 175.05 L121.40 172.01 L102.63 176.44 Z M102.63 176.44 L121.40 172.01 L116.25 173.54 Z M116.25 173.54 L129.87 170.65 L111.10 176.85 Z M111.10 176.85 L129.87 170.65 L124.06 174.43 Z M111.10 176.85 L124.06 174.43 L106.30 181.71 Z M106.30 181.71 L124.06 174.43 L118.64 180.06 Z M106.30 181.71 L118.64 180.06 L102.18 187.80 Z M102.18 187.80 L118.64 180.06 L113.99 187.14 Z M102.18 187.80 L113.99 187.14 L99.02 194.68 Z M99.02 194.68 L113.99 187.14 L110.42 195.21 Z M99.02 194.68 L110.42 195.21 L97.03 201.91 Z M97.03 201.91 L110.42 195.21 L108.18 203.70 Z M97.03 201.91 L108.18 203.70 L96.35 208.98 Z M96.35 208.98 L108.18 203.70 L107.42 212.04 Z M96.35 208.98 L107.42 212.04 L97.03 215.41 Z M97.03 215.41 L107.42 212.04 L108.18 219.67 Z M97.03 215.41 L108.18 219.67 L99.02 220.76 Z M99.02 220.76 L108.18 219.67 L110.42 226.05 Z M99.02 220.76 L110.42 226.05 L102.18 224.68 Z M102.18 224.68 L110.42 226.05 L113.99 230.76 Z M102.18 224.68 L113.99 230.76 L106.30 226.89 Z M106.30 226.89 L113.99 230.76 L118.64 233.48 Z M106.30 226.89 L118.64 233.48 L111.10 227.24 Z M111.10 227.24 L118.64 233.48 L124.06 234.02 Z M111.10 227.24 L124.06 234.02 L116.25 225.71 Z M116.25 225.71 L124.06 234.02 L129.87 232.33 Z M116.25 225.71 L129.87 232.33 L121.40 222.40 Z M121.40 222.40 L129.87 232.33 L135.68 228.56 Z M121.40 222.40 L135.68 228.56 L126.20 217.54 Z M126.20 217.54 L135.68 228.56 L141.10 222.93 Z M126.20 217.54 L141.10 222.93 L130.33 211.45 Z M130.33 211.45 L141.10 222.93 L145.74 215.84 Z M130.33 211.45 L145.74 215.84 L133.49 204.57 Z M133.49 204.57 L145.74 215.84 L149.31 207.78 Z M133.49 204.57 L149.31 207.78 L135.48 197.34 Z M135.48 197.34 L149.31 207.78 L151.56 199.29 Z M135.48 197.34 L151.56 199.29 L136.16 190.27 Z M136.16 190.27 L151.56 199.29 L152.32 190.94 Z M136.16 190.27 L152.32 190.94 L135.48 183.84 Z M135.48 183.84 L152.32 190.94 L151.56 183.32 Z M135.48 183.84 L151.56 183.32 L133.49 178.49 Z M133.49 178.49 L151.56 183.32 L149.31 176.94 Z M133.49 178.49 L149.31 176.94 L130.33 174.57 Z M130.33 174.57 L149.31 176.94 L145.74 172.22 Z M130.33 174.57 L145.74 172.22 L126.20 172.36 Z M126.20 172.36 L145.74 172.22 L141.10 169.51 Z M126.20 172.36 L141.10 169.51 L121.40 172.01 Z M121.40 172.01 L141.10 169.51 L135.68 168.97 Z M121.40 172.01 L135.68 168.97 L116.25 173.54 Z M116.25 173.54 L135.68 168.97 L129.87 170.65 Z M129.87 170.65 L144.52 169.43 L124.06 174.43 Z M124.06 174.43 L144.52 169.43 L138.59 173.40 Z M124.06 174.43 L138.59 173.40 L118.64 180.06 Z M118.64 180.06 L138.59 173.40 L133.06 179.46 Z M118.64 180.06 L133.06 179.46 L113.99 187.14 Z M113.99 187.14 L133.06 179.46 L128.32 187.19 Z M113.99 187.14 L128.32 187.19 L110.42 195.21 Z M110.42 195.21 L128.32 187.19 L124.67 196.08 Z M110.42 195.21 L124.67 196.08 L108.18 203.70 Z M108.18 203.70 L124.67 196.08 L122.39 205.51 Z M108.18 203.70 L122.39 205.51 L107.42 212.04 Z M107.42 212.04 L122.39 205.51 L121.60 214.84 Z M107.42 212.04 L121.60 214.84 L108.18 219.67 Z M108.18 219.67 L121.60 214.84 L122.39 223.43 Z M108.18 219.67 L122.39 223.43 L110.42 226.05 Z M110.42 226.05 L122.39 223.43 L124.67 230.71 Z M110.42 226.05 L124.67 230.71 L113.99 230.76 Z M113.99 230.76 L124.67 230.71 L128.32 236.18 Z M113.99 230.76 L128.32 236.18 L118.64 233.48 Z M118.64 233.48 L128.32 236.18 L133.06 239.45 Z M118.64 233.48 L133.06 239.45 L124.06 234.02 Z M124.06 234.02 L133.06 239.45 L138.59 240.31 Z M124.06 234.02 L138.59 240.31 L129.87 232.33 Z M129.87 232.33 L138.59 240.31 L144.52 238.71 Z M129.87 232.33 L144.52 238.71 L135.68 228.56 Z M135.68 228.56 L144.52 238.71 L150.46 234.74 Z M135.68 228.56 L150.46 234.74 L141.10 222.93 Z M141.10 222.93 L150.46 234.74 L155.98 228.68 Z M141.10 222.93 L155.98 228.68 L145.74 215.84 Z M145.74 215.84 L155.98 228.68 L160.73 220.95 Z M145.74 215.84 L160.73 220.95 L149.31 207.78 Z M149.31 207.78 L160.73 220.95 L164.37 212.06 Z M149.31 207.78 L164.37 212.06 L151.56 199.29 Z M151.56 199.29 L164.37 212.06 L166.66 202.63 Z M151.56 199.29 L166.66 202.63 L152.32 190.94 Z M152.32 190.94 L166.66 202.63 L167.44 193.30 Z M152.32 190.94 L167.44 193.30 L151.56 183.32 Z M151.56 183.32 L167.44 193.30 L166.66 184.70 Z M151.56 183.32 L166.66 184.70 L149.31 176.94 Z M149.31 176.94 L166.66 184.70 L164.37 177.42 Z M149.31 176.94 L164.37 177.42 L145.74 172.22 Z M145.74 172.22 L164.37 177.42 L160.73 171.96 Z M145.74 172.22 L160.73 171.96 L141.10 169.51 Z M141.10 169.51 L160.73 171.96 L155.98 168.69 Z M141.10 169.51 L155.98 168.69 L135.68 168.97 Z M135.68 168.97 L155.98 168.69 L150.46 167.83 Z M135.68 168.97 L150.46 167.83 L129.87 170.65 Z M129.87 170.65 L150.46 167.83 L144.52 169.43 Z M144.52 169.43 L159.70 169.05 L138.59 173.40 Z M138.59 173.40 L159.70 169.05 L153.91 173.06 Z M138.59 173.40 L153.91 173.06 L133.06 179.46 Z M133.06 179.46 L153.91 173.06 L148.52 179.39 Z M133.06 179.46 L148.52 179.39 L128.32 187.19 Z M128.32 187.19 L148.52 179.39 L143.90 187.59 Z M128.32 187.19 L143.90 187.59 L124.67 196.08 Z M124.67 196.08 L143.90 187.59 L140.35 197.12 Z M124.67 196.08 L140.35 197.12 L122.39 205.51 Z M122.39 205.51 L140.35 197.12 L138.12 207.32 Z M122.39 205.51 L138.12 207.32 L121.60 214.84 Z M121.60 214.84 L138.12 207.32 L137.35 217.50 Z M121.60 214.84 L137.35 217.50 L122.39 223.43 Z M122.39 223.43 L137.35 217.50 L138.12 226.97 Z M122.39 223.43 L138.12 226.97 L124.67 230.71 Z M124.67 230.71 L138.12 226.97 L140.35 235.07 Z M124.67 230.71 L140.35 235.07 L128.32 236.18 Z M128.32 236.18 L140.35 235.07 L143.90 241.26 Z M128.32 236.18 L143.90 241.26 L133.06 239.45 Z M133.06 239.45 L143.90 241.26 L148.52 245.11 Z M133.06 239.45 L148.52 245.11 L138.59 240.31 Z M138.59 240.31 L148.52 245.11 L153.91 246.37 Z M138.59 240.31 L153.91 246.37 L144.52 238.71 Z M144.52 238.71 L153.91 246.37 L159.70 244.95 Z M144.52 238.71 L159.70 244.95 L150.46 234.74 Z M150.46 234.74 L159.70 244.95 L165.48 240.94 Z M150.46 234.74 L165.48 240.94 L155.98 228.68 Z M155.98 228.68 L165.48 240.94 L170.87 234.61 Z M155.98 228.68 L170.87 234.61 L160.73 220.95 Z M160.73 220.95 L170.87 234.61 L175.50 226.41 Z M160.73 220.95 L175.50 226.41 L164.37 212.06 Z M164.37 212.06 L175.50 226.41 L179.05 216.88 Z M164.37 212.06 L179.05 216.88 L166.66 202.63 Z M166.66 202.63 L179.05 216.88 L181.28 206.68 Z M166.66 202.63 L181.28 206.68 L167.44 193.30 Z M167.44 193.30 L181.28 206.68 L182.04 196.50 Z M167.44 193.30 L182.04 196.50 L166.66 184.70 Z M166.66 184.70 L182.04 196.50 L181.28 187.03 Z M166.66 184.70 L181.28 187.03 L164.37 177.42 Z M164.37 177.42 L181.28 187.03 L179.05 178.93 Z M164.37 177.42 L179.05 178.93 L160.73 171.96 Z M160.73 171.96 L179.05 178.93 L175.50 172.74 Z M160.73 171.96 L175.50 172.74 L155.98 168.69 Z M155.98 168.69 L175.50 172.74 L170.87 168.89 Z M155.98 168.69 L170.87 168.89 L150.46 167.83 Z M150.46 167.83 L170.87 168.89 L165.48 167.63 Z M150.46 167.83 L165.48 167.63 L144.52 169.43 Z M144.52 169.43 L165.48 167.63 L159.70 169.05 Z M159.70 169.05 L174.87 168.67 L153.91 173.06 Z M153.91 173.06 L174.87 168.67 L169.24 172.73 Z M153.91 173.06 L169.24 172.73 L148.52 179.39 Z M148.52 179.39 L169.24 172.73 L163.99 179.31 Z M148.52 179.39 L163.99 179.31 L143.90 187.59 Z M143.90 187.59 L163.99 179.31 L159.48 187.99 Z M143.90 187.59 L159.48 187.99 L140.35 197.12 Z M140.35 197.12 L159.48 187.99 L156.02 198.16 Z M140.35 197.12 L156.02 198.16 L138.12 207.32 Z M138.12 207.32 L156.02 198.16 L153.84 209.13 Z M138.12 207.32 L153.84 209.13 L137.35 217.50 Z M137.35 217.50 L153.84 209.13 L153.10 220.16 Z M137.35 217.50 L153.10 220.16 L138.12 226.97 Z M138.12 226.97 L153.10 220.16 L153.84 230.49 Z M138.12 226.97 L153.84 230.49 L140.35 235.07 Z M140.35 235.07 L153.84 230.49 L156.02 239.42 Z M140.35 235.07 L156.02 239.42 L143.90 241.26 Z M143.90 241.26 L156.02 239.42 L159.48 246.33 Z M143.90 241.26 L159.48 246.33 L148.52 245.11 Z M148.52 245.11 L159.48 246.33 L163.99 250.78 Z M148.52 245.11 L163.99 250.78 L153.91 246.37 Z M153.91 246.37 L163.99 250.78 L169.24 252.43 Z M153.91 246.37 L169.24 252.43 L159.70 244.95 Z M159.70 244.95 L169.24 252.43 L174.87 251.19 Z M159.70 244.95 L174.87 251.19 L165.48 240.94 Z M165.48 240.94 L174.87 251.19 L180.50 247.14 Z M165.48 240.94 L180.50 247.14 L170.87 234.61 Z M170.87 234.61 L180.50 247.14 L185.75 240.55 Z M170.87 234.61 L185.75 240.55 L175.50 226.41 Z M175.50 226.41 L185.75 240.55 L190.26 231.87 Z M175.50 226.41 L190.26 231.87 L179.05 216.88 Z M179.05 216.88 L190.26 231.87 L193.72 221.70 Z M179.05 216.88 L193.72 221.70 L181.28 206.68 Z M181.28 206.68 L193.72 221.70 L195.89 210.73 Z M181.28 206.68 L195.89 210.73 L182.04 196.50 Z M182.04 196.50 L195.89 210.73 L196.64 199.70 Z M182.04 196.50 L196.64 199.70 L181.28 187.03 Z M181.28 187.03 L196.64 199.70 L195.89 189.37 Z M181.28 187.03 L195.89 189.37 L179.05 178.93 Z M179.05 178.93 L195.89 189.37 L193.72 180.44 Z M179.05 178.93 L193.72 180.44 L175.50 172.74 Z M175.50 172.74 L193.72 180.44 L190.26 173.53 Z M175.50 172.74 L190.26 173.53 L170.87 168.89 Z M170.87 168.89 L190.26 173.53 L185.75 169.08 Z M170.87 168.89 L185.75 169.08 L165.48 167.63 Z M165.48 167.63 L185.75 169.08 L180.50 167.43 Z M165.48 167.63 L180.50 167.43 L159.70 169.05 Z M159.70 169.05 L180.50 167.43 L174.87 168.67 Z M174.87 168.67 L190.11 170.54 L169.24 172.73 Z M169.24 172.73 L190.11 170.54 L184.69 174.56 Z M169.24 172.73 L184.69 174.56 L163.99 179.31 Z M163.99 179.31 L184.69 174.56 L179.63 181.27 Z M163.99 179.31 L179.63 181.27 L159.48 187.99 Z M159.48 187.99 L179.63 181.27 L175.30 190.21 Z M159.48 187.99 L175.30 190.21 L156.02 198.16 Z M156.02 198.16 L175.30 190.21 L171.97 200.76 Z M156.02 198.16 L171.97 200.76 L153.84 209.13 Z M153.84 209.13 L171.97 200.76 L169.88 212.21 Z M153.84 209.13 L169.88 212.21 L153.10 220.16 Z M153.10 220.16 L169.88 212.21 L169.16 223.78 Z M153.10 220.16 L169.16 223.78 L153.84 230.49 Z M153.84 230.49 L169.16 223.78 L169.88 234.68 Z M153.84 230.49 L169.88 234.68 L156.02 239.42 Z M156.02 239.42 L169.88 234.68 L171.97 244.16 Z M156.02 239.42 L171.97 244.16 L159.48 246.33 Z M159.48 246.33 L171.97 244.16 L175.30 251.58 Z M159.48 246.33 L175.30 251.58 L163.99 250.78 Z M163.99 250.78 L175.30 251.58 L179.63 256.44 Z M163.99 250.78 L179.63 256.44 L169.24 252.43 Z M169.24 252.43 L179.63 256.44 L184.69 258.41 Z M169.24 252.43 L184.69 258.41 L174.87 251.19 Z M174.87 251.19 L184.69 258.41 L190.11 257.33 Z M174.87 251.19 L190.11 257.33 L180.50 247.14 Z M180.50 247.14 L190.11 257.33 L195.53 253.31 Z M180.50 247.14 L195.53 253.31 L185.75 240.55 Z M185.75 240.55 L195.53 253.31 L200.58 246.60 Z M185.75 240.55 L200.58 246.60 L190.26 231.87 Z M190.26 231.87 L200.58 246.60 L204.92 237.67 Z M190.26 231.87 L204.92 237.67 L193.72 221.70 Z M193.72 221.70 L204.92 237.67 L208.25 227.11 Z M193.72 221.70 L208.25 227.11 L195.89 210.73 Z M195.89 210.73 L208.25 227.11 L210.34 215.66 Z M195.89 210.73 L210.34 215.66 L196.64 199.70 Z M196.64 199.70 L210.34 215.66 L211.05 204.09 Z M196.64 199.70 L211.05 204.09 L195.89 189.37 Z M195.89 189.37 L211.05 204.09 L210.34 193.20 Z M195.89 189.37 L210.34 193.20 L193.72 180.44 Z M193.72 180.44 L210.34 193.20 L208.25 183.71 Z M193.72 180.44 L208.25 183.71 L190.26 173.53 Z M190.26 173.53 L208.25 183.71 L204.92 176.29 Z M190.26 173.53 L204.92 176.29 L185.75 169.08 Z M185.75 169.08 L204.92 176.29 L200.58 171.43 Z M185.75 169.08 L200.58 171.43 L180.50 167.43 Z M180.50 167.43 L200.58 171.43 L195.53 169.47 Z M180.50 167.43 L195.53 169.47 L174.87 168.67 Z M174.87 168.67 L195.53 169.47 L190.11 170.54 Z M190.11 170.54 L205.48 176.90 L184.69 174.56 Z M184.69 174.56 L205.48 176.90 L200.40 180.76 Z M184.69 174.56 L200.40 180.76 L179.63 181.27 Z M179.63 181.27 L200.40 180.76 L195.66 187.30 Z M179.63 181.27 L195.66 187.30 L175.30 190.21 Z M175.30 190.21 L195.66 187.30 L191.59 196.08 Z M175.30 190.21 L191.59 196.08 L171.97 200.76 Z M171.97 200.76 L191.59 196.08 L188.48 206.48 Z M171.97 200.76 L188.48 206.48 L169.88 212.21 Z M169.88 212.21 L188.48 206.48 L186.51 217.82 Z M169.88 212.21 L186.51 217.82 L169.16 223.78 Z M169.16 223.78 L186.51 217.82 L185.85 229.31 Z M169.16 223.78 L185.85 229.31 L169.88 234.68 Z M169.88 234.68 L185.85 229.31 L186.51 240.18 Z M169.88 234.68 L186.51 240.18 L171.97 244.16 Z M171.97 244.16 L186.51 240.18 L188.48 249.68 Z M171.97 244.16 L188.48 249.68 L175.30 251.58 Z M175.30 251.58 L188.48 249.68 L191.59 257.15 Z M175.30 251.58 L191.59 257.15 L179.63 256.44 Z M179.63 256.44 L191.59 257.15 L195.66 262.11 Z M179.63 256.44 L195.66 262.11 L184.69 258.41 Z M184.69 258.41 L195.66 262.11 L200.40 264.20 Z M184.69 258.41 L200.40 264.20 L190.11 257.33 Z M190.11 257.33 L200.40 264.20 L205.48 263.28 Z M190.11 257.33 L205.48 263.28 L195.53 253.31 Z M195.53 253.31 L205.48 263.28 L210.56 259.43 Z M195.53 253.31 L210.56 259.43 L200.58 246.60 Z M200.58 246.60 L210.56 259.43 L215.29 252.88 Z M200.58 246.60 L215.29 252.88 L204.92 237.67 Z M204.92 237.67 L215.29 252.88 L219.36 244.11 Z M204.92 237.67 L219.36 244.11 L208.25 227.11 Z M208.25 227.11 L219.36 244.11 L222.48 233.70 Z M208.25 227.11 L222.48 233.70 L210.34 215.66 Z M210.34 215.66 L222.48 233.70 L224.44 222.36 Z M210.34 215.66 L224.44 222.36 L211.05 204.09 Z M211.05 204.09 L224.44 222.36 L225.10 210.87 Z M211.05 204.09 L225.10 210.87 L210.34 193.20 Z M210.34 193.20 L225.10 210.87 L224.44 200.00 Z M210.34 193.20 L224.44 200.00 L208.25 183.71 Z M208.25 183.71 L224.44 200.00 L222.48 190.51 Z M208.25 183.71 L222.48 190.51 L204.92 176.29 Z M204.92 176.29 L222.48 190.51 L219.36 183.03 Z M204.92 176.29 L219.36 183.03 L200.58 171.43 Z M200.58 171.43 L219.36 183.03 L215.29 178.08 Z M200.58 171.43 L215.29 178.08 L195.53 169.47 Z M195.53 169.47 L215.29 178.08 L210.56 175.98 Z M195.53 169.47 L210.56 175.98 L190.11 170.54 Z M190.11 170.54 L210.56 175.98 L205.48 176.90 Z M205.48 176.90 L220.84 183.26 L200.40 180.76 Z M200.40 180.76 L220.84 183.26 L216.10 186.95 Z M200.40 180.76 L216.10 186.95 L195.66 187.30 Z M195.66 187.30 L216.10 186.95 L211.69 193.32 Z M195.66 187.30 L211.69 193.32 L191.59 196.08 Z M191.59 196.08 L211.69 193.32 L207.89 201.94 Z M191.59 196.08 L207.89 201.94 L188.48 206.48 Z M188.48 206.48 L207.89 201.94 L204.98 212.21 Z M188.48 206.48 L204.98 212.21 L186.51 217.82 Z M186.51 217.82 L204.98 212.21 L203.15 223.44 Z M186.51 217.82 L203.15 223.44 L185.85 229.31 Z M185.85 229.31 L203.15 223.44 L202.53 234.85 Z M185.85 229.31 L202.53 234.85 L186.51 240.18 Z M186.51 240.18 L202.53 234.85 L203.15 245.68 Z M186.51 240.18 L203.15 245.68 L188.48 249.68 Z M188.48 249.68 L203.15 245.68 L204.98 255.19 Z M188.48 249.68 L204.98 255.19 L191.59 257.15 Z M191.59 257.15 L204.98 255.19 L207.89 262.72 Z M191.59 257.15 L207.89 262.72 L195.66 262.11 Z M195.66 262.11 L207.89 262.72 L211.69 267.77 Z M195.66 262.11 L211.69 267.77 L200.40 264.20 Z M200.40 264.20 L211.69 267.77 L216.10 270.00 Z M200.40 264.20 L216.10 270.00 L205.48 263.28 Z M205.48 263.28 L216.10 270.00 L220.84 269.23 Z M205.48 263.28 L220.84 269.23 L210.56 259.43 Z M210.56 259.43 L220.84 269.23 L225.58 265.54 Z M210.56 259.43 L225.58 265.54 L215.29 252.88 Z M215.29 252.88 L225.58 265.54 L230.00 259.17 Z M215.29 252.88 L230.00 259.17 L219.36 244.11 Z M219.36 244.11 L230.00 259.17 L233.79 250.55 Z M219.36 244.11 L233.79 250.55 L222.48 233.70 Z M222.48 233.70 L233.79 250.55 L236.70 240.29 Z M222.48 233.70 L236.70 240.29 L224.44 222.36 Z M224.44 222.36 L236.70 240.29 L238.53 229.06 Z M224.44 222.36 L238.53 229.06 L225.10 210.87 Z M225.10 210.87 L238.53 229.06 L239.16 217.64 Z M225.10 210.87 L239.16 217.64 L224.44 200.00 Z M224.44 200.00 L239.16 217.64 L238.53 206.81 Z M224.44 200.00 L238.53 206.81 L222.48 190.51 Z M222.48 190.51 L238.53 206.81 L236.70 197.30 Z M222.48 190.51 L236.70 197.30 L219.36 183.03 Z M219.36 183.03 L236.70 197.30 L233.79 189.77 Z M219.36 183.03 L233.79 189.77 L215.29 178.08 Z M215.29 178.08 L233.79 189.77 L230.00 184.72 Z M215.29 178.08 L230.00 184.72 L210.56 175.98 Z M210.56 175.98 L230.00 184.72 L225.58 182.50 Z M210.56 175.98 L225.58 182.50 L205.48 176.90 Z M205.48 176.90 L225.58 182.50 L220.84 183.26 Z M220.84 183.26 L236.21 189.62 L216.10 186.95 Z M216.10 186.95 L236.21 189.62 L231.81 193.15 Z M216.10 186.95 L231.81 193.15 L211.69 193.32 Z M211.69 193.32 L231.81 193.15 L227.71 199.35 Z M211.69 193.32 L227.71 199.35 L207.89 201.94 Z M207.89 201.94 L227.71 199.35 L224.19 207.80 Z M207.89 201.94 L224.19 207.80 L204.98 212.21 Z M204.98 212.21 L224.19 207.80 L221.49 217.93 Z M204.98 212.21 L221.49 217.93 L203.15 223.44 Z M203.15 223.44 L221.49 217.93 L219.79 229.04 Z M203.15 223.44 L219.79 229.04 L202.53 234.85 Z M202.53 234.85 L219.79 229.04 L219.21 240.39 Z M202.53 234.85 L219.21 240.39 L203.15 245.68 Z M203.15 245.68 L219.21 240.39 L219.79 251.19 Z M203.15 245.68 L219.79 251.19 L204.98 255.19 Z M204.98 255.19 L219.79 251.19 L221.49 260.71 Z M204.98 255.19 L221.49 260.71 L207.89 262.72 Z M207.89 262.72 L221.49 260.71 L224.19 268.30 Z M207.89 262.72 L224.19 268.30 L211.69 267.77 Z M211.69 267.77 L224.19 268.30 L227.71 273.44 Z M211.69 267.77 L227.71 273.44 L216.10 270.00 Z M216.10 270.00 L227.71 273.44 L231.81 275.79 Z M216.10 270.00 L231.81 275.79 L220.84 269.23 Z M220.84 269.23 L231.81 275.79 L236.21 275.18 Z M220.84 269.23 L236.21 275.18 L225.58 265.54 Z M225.58 265.54 L236.21 275.18 L240.61 271.66 Z M225.58 265.54 L240.61 271.66 L230.00 259.17 Z M230.00 259.17 L240.61 271.66 L244.71 265.45 Z M230.00 259.17 L244.71 265.45 L233.79 250.55 Z M233.79 250.55 L244.71 265.45 L248.23 257.00 Z M233.79 250.55 L248.23 257.00 L236.70 240.29 Z M236.70 240.29 L248.23 257.00 L250.93 246.87 Z M236.70 240.29 L250.93 246.87 L238.53 229.06 Z M238.53 229.06 L250.93 246.87 L252.63 235.76 Z M238.53 229.06 L252.63 235.76 L239.16 217.64 Z M239.16 217.64 L252.63 235.76 L253.21 224.41 Z M239.16 217.64 L253.21 224.41 L238.53 206.81 Z M238.53 206.81 L253.21 224.41 L252.63 213.61 Z M238.53 206.81 L252.63 213.61 L236.70 197.30 Z M236.70 197.30 L252.63 213.61 L250.93 204.10 Z M236.70 197.30 L250.93 204.10 L233.79 189.77 Z M233.79 189.77 L250.93 204.10 L248.23 196.51 Z M233.79 189.77 L248.23 196.51 L230.00 184.72 Z M230.00 184.72 L248.23 196.51 L244.71 191.36 Z M230.00 184.72 L244.71 191.36 L225.58 182.50 Z M225.58 182.50 L244.71 191.36 L240.61 189.01 Z M225.58 182.50 L240.61 189.01 L220.84 183.26 Z M220.84 183.26 L240.61 189.01 L236.21 189.62 Z M236.21 189.62 L251.38 198.87 L231.81 193.15 Z M231.81 193.15 L251.38 198.87 L247.33 202.13 Z M231.81 193.15 L247.33 202.13 L227.71 199.35 Z M227.71 199.35 L247.33 202.13 L243.54 207.86 Z M227.71 199.35 L243.54 207.86 L224.19 207.80 Z M224.19 207.80 L243.54 207.86 L240.29 215.70 Z M224.19 207.80 L240.29 215.70 L221.49 217.93 Z M221.49 217.93 L240.29 215.70 L237.80 225.09 Z M221.49 217.93 L237.80 225.09 L219.79 229.04 Z M219.79 229.04 L237.80 225.09 L236.24 235.39 Z M219.79 229.04 L236.24 235.39 L219.21 240.39 Z M219.21 240.39 L236.24 235.39 L235.70 245.91 Z M219.21 240.39 L235.70 245.91 L219.79 251.19 Z M219.79 251.19 L235.70 245.91 L236.24 255.92 Z M219.79 251.19 L236.24 255.92 L221.49 260.71 Z M221.49 260.71 L236.24 255.92 L237.80 264.76 Z M221.49 260.71 L237.80 264.76 L224.19 268.30 Z M224.19 268.30 L237.80 264.76 L240.29 271.80 Z M224.19 268.30 L240.29 271.80 L227.71 273.44 Z M227.71 273.44 L240.29 271.80 L243.54 276.58 Z M227.71 273.44 L243.54 276.58 L231.81 275.79 Z M231.81 275.79 L243.54 276.58 L247.33 278.77 Z M231.81 275.79 L247.33 278.77 L236.21 275.18 Z M236.21 275.18 L247.33 278.77 L251.38 278.21 Z M236.21 275.18 L251.38 278.21 L240.61 271.66 Z M240.61 271.66 L251.38 278.21 L255.44 274.95 Z M240.61 271.66 L255.44 274.95 L244.71 265.45 Z M244.71 265.45 L255.44 274.95 L259.22 269.22 Z M244.71 265.45 L259.22 269.22 L248.23 257.00 Z M248.23 257.00 L259.22 269.22 L262.47 261.38 Z M248.23 257.00 L262.47 261.38 L250.93 246.87 Z M250.93 246.87 L262.47 261.38 L264.97 251.99 Z M250.93 246.87 L264.97 251.99 L252.63 235.76 Z M252.63 235.76 L264.97 251.99 L266.53 241.69 Z M252.63 235.76 L266.53 241.69 L253.21 224.41 Z M253.21 224.41 L266.53 241.69 L267.07 231.17 Z M253.21 224.41 L267.07 231.17 L252.63 213.61 Z M252.63 213.61 L267.07 231.17 L266.53 221.16 Z M252.63 213.61 L266.53 221.16 L250.93 204.10 Z M250.93 204.10 L266.53 221.16 L264.97 212.32 Z M250.93 204.10 L264.97 212.32 L248.23 196.51 Z M248.23 196.51 L264.97 212.32 L262.47 205.27 Z M248.23 196.51 L262.47 205.27 L244.71 191.36 Z M244.71 191.36 L262.47 205.27 L259.22 200.50 Z M244.71 191.36 L259.22 200.50 L240.61 189.01 Z M240.61 189.01 L259.22 200.50 L255.44 198.31 Z M240.61 189.01 L255.44 198.31 L236.21 189.62 Z M236.21 189.62 L255.44 198.31 L251.38 198.87 Z M251.38 198.87 L266.56 208.11 L247.33 202.13 Z M247.33 202.13 L266.56 208.11 L262.84 211.11 Z M247.33 202.13 L262.84 211.11 L243.54 207.86 Z M243.54 207.86 L262.84 211.11 L259.37 216.38 Z M243.54 207.86 L259.37 216.38 L240.29 215.70 Z M240.29 215.70 L259.37 216.38 L256.40 223.59 Z M240.29 215.70 L256.40 223.59 L237.80 225.09 Z M237.80 225.09 L256.40 223.59 L254.12 232.24 Z M237.80 225.09 L254.12 232.24 L236.24 235.39 Z M236.24 235.39 L254.12 232.24 L252.68 241.73 Z M236.24 235.39 L252.68 241.73 L235.70 245.91 Z M235.70 245.91 L252.68 241.73 L252.19 251.43 Z M235.70 245.91 L252.19 251.43 L236.24 255.92 Z M236.24 255.92 L252.19 251.43 L252.68 260.66 Z M236.24 255.92 L252.68 260.66 L237.80 264.76 Z M237.80 264.76 L252.68 260.66 L254.12 268.81 Z M237.80 264.76 L254.12 268.81 L240.29 271.80 Z M240.29 271.80 L254.12 268.81 L256.40 275.31 Z M240.29 271.80 L256.40 275.31 L243.54 276.58 Z M243.54 276.58 L256.40 275.31 L259.37 279.72 Z M243.54 276.58 L259.37 279.72 L247.33 278.77 Z M247.33 278.77 L259.37 279.72 L262.84 281.74 Z M247.33 278.77 L262.84 281.74 L251.38 278.21 Z M251.38 278.21 L262.84 281.74 L266.56 281.25 Z M251.38 278.21 L266.56 281.25 L255.44 274.95 Z M255.44 274.95 L266.56 281.25 L270.27 278.25 Z M255.44 274.95 L270.27 278.25 L259.22 269.22 Z M259.22 269.22 L270.27 278.25 L273.74 272.97 Z M259.22 269.22 L273.74 272.97 L262.47 261.38 Z M262.47 261.38 L273.74 272.97 L276.71 265.77 Z M262.47 261.38 L276.71 265.77 L264.97 251.99 Z M264.97 251.99 L276.71 265.77 L279.00 257.12 Z M264.97 251.99 L279.00 257.12 L266.53 241.69 Z M266.53 241.69 L279.00 257.12 L280.43 247.63 Z M266.53 241.69 L280.43 247.63 L267.07 231.17 Z M267.07 231.17 L280.43 247.63 L280.92 237.93 Z M267.07 231.17 L280.92 237.93 L266.53 221.16 Z M266.53 221.16 L280.92 237.93 L280.43 228.69 Z M266.53 221.16 L280.43 228.69 L264.97 212.32 Z M264.97 212.32 L280.43 228.69 L279.00 220.55 Z M264.97 212.32 L279.00 220.55 L262.47 205.27 Z M262.47 205.27 L279.00 220.55 L276.71 214.05 Z M262.47 205.27 L276.71 214.05 L259.22 200.50 Z M259.22 200.50 L276.71 214.05 L273.74 209.63 Z M259.22 200.50 L273.74 209.63 L255.44 198.31 Z M255.44 198.31 L273.74 209.63 L270.27 207.61 Z M255.44 198.31 L270.27 207.61 L251.38 198.87 Z M251.38 198.87 L270.27 207.61 L266.56 208.11 Z M266.56 208.11 L281.73 217.35 L262.84 211.11 Z M262.84 211.11 L281.73 217.35 L278.35 220.08 Z M262.84 211.11 L278.35 220.08 L259.37 216.38 Z M259.37 216.38 L278.35 220.08 L275.21 224.90 Z M259.37 216.38 L275.21 224.90 L256.40 223.59 Z M256.40 223.59 L275.21 224.90 L272.50 231.49 Z M256.40 223.59 L272.50 231.49 L254.12 232.24 Z M254.12 232.24 L272.50 231.49 L270.43 239.40 Z M254.12 232.24 L270.43 239.40 L252.68 241.73 Z M252.68 241.73 L270.43 239.40 L269.12 248.08 Z M252.68 241.73 L269.12 248.08 L252.19 251.43 Z M252.19 251.43 L269.12 248.08 L268.68 256.95 Z M252.19 251.43 L268.68 256.95 L252.68 260.66 Z M252.68 260.66 L268.68 256.95 L269.12 265.40 Z M252.68 260.66 L269.12 265.40 L254.12 268.81 Z M254.12 268.81 L269.12 265.40 L270.43 272.86 Z M254.12 268.81 L270.43 272.86 L256.40 275.31 Z M256.40 275.31 L270.43 272.86 L272.50 278.81 Z M256.40 275.31 L272.50 278.81 L259.37 279.72 Z M259.37 279.72 L272.50 278.81 L275.21 282.86 Z M259.37 279.72 L275.21 282.86 L262.84 281.74 Z M262.84 281.74 L275.21 282.86 L278.35 284.73 Z M262.84 281.74 L278.35 284.73 L266.56 281.25 Z M266.56 281.25 L278.35 284.73 L281.73 284.28 Z M266.56 281.25 L281.73 284.28 L270.27 278.25 Z M270.27 278.25 L281.73 284.28 L285.11 281.56 Z M270.27 278.25 L285.11 281.56 L273.74 272.97 Z M273.74 272.97 L285.11 281.56 L288.26 276.73 Z M273.74 272.97 L288.26 276.73 L276.71 265.77 Z M276.71 265.77 L288.26 276.73 L290.96 270.14 Z M276.71 265.77 L290.96 270.14 L279.00 257.12 Z M279.00 257.12 L290.96 270.14 L293.03 262.24 Z M279.00 257.12 L293.03 262.24 L280.43 247.63 Z M280.43 247.63 L293.03 262.24 L294.34 253.55 Z M280.43 247.63 L294.34 253.55 L280.92 237.93 Z M280.92 237.93 L294.34 253.55 L294.78 244.69 Z M280.92 237.93 L294.78 244.69 L280.43 228.69 Z M280.43 228.69 L294.78 244.69 L294.34 236.24 Z M280.43 228.69 L294.34 236.24 L279.00 220.55 Z M279.00 220.55 L294.34 236.24 L293.03 228.78 Z M279.00 220.55 L293.03 228.78 L276.71 214.05 Z M276.71 214.05 L293.03 228.78 L290.96 222.82 Z M276.71 214.05 L290.96 222.82 L273.74 209.63 Z M273.74 209.63 L290.96 222.82 L288.26 218.77 Z M273.74 209.63 L288.26 218.77 L270.27 207.61 Z M270.27 207.61 L288.26 218.77 L285.11 216.91 Z M270.27 207.61 L285.11 216.91 L266.56 208.11 Z M266.56 208.11 L285.11 216.91 L281.73 217.35 Z M281.73 217.35 L296.90 226.80 L278.35 220.08 Z M278.35 220.08 L296.90 226.80 L293.85 229.19 Z M278.35 220.08 L293.85 229.19 L275.21 224.90 Z M275.21 224.90 L293.85 229.19 L291.01 233.33 Z M275.21 224.90 L291.01 233.33 L272.50 231.49 Z M272.50 231.49 L291.01 233.33 L288.57 238.93 Z M272.50 231.49 L288.57 238.93 L270.43 239.40 Z M270.43 239.40 L288.57 238.93 L286.69 245.61 Z M270.43 239.40 L286.69 245.61 L269.12 248.08 Z M269.12 248.08 L286.69 245.61 L285.52 252.92 Z M269.12 248.08 L285.52 252.92 L268.68 256.95 Z M268.68 256.95 L285.52 252.92 L285.11 260.36 Z M268.68 256.95 L285.11 260.36 L269.12 265.40 Z M269.12 265.40 L285.11 260.36 L285.52 267.42 Z M269.12 265.40 L285.52 267.42 L270.43 272.86 Z M270.43 272.86 L285.52 267.42 L286.69 273.62 Z M270.43 272.86 L286.69 273.62 L272.50 278.81 Z M272.50 278.81 L286.69 273.62 L288.57 278.54 Z M272.50 278.81 L288.57 278.54 L275.21 282.86 Z M275.21 282.86 L288.57 278.54 L291.01 281.85 Z M275.21 282.86 L291.01 281.85 L278.35 284.73 Z M278.35 284.73 L291.01 281.85 L293.85 283.31 Z M278.35 284.73 L293.85 283.31 L281.73 284.28 Z M281.73 284.28 L293.85 283.31 L296.90 282.83 Z M281.73 284.28 L296.90 282.83 L285.11 281.56 Z M285.11 281.56 L296.90 282.83 L299.95 280.44 Z M285.11 281.56 L299.95 280.44 L288.26 276.73 Z M288.26 276.73 L299.95 280.44 L302.80 276.31 Z M288.26 276.73 L302.80 276.31 L290.96 270.14 Z M290.96 270.14 L302.80 276.31 L305.24 270.71 Z M290.96 270.14 L305.24 270.71 L293.03 262.24 Z M293.03 262.24 L305.24 270.71 L307.11 264.03 Z M293.03 262.24 L307.11 264.03 L294.34 253.55 Z M294.34 253.55 L307.11 264.03 L308.29 256.72 Z M294.34 253.55 L308.29 256.72 L294.78 244.69 Z M294.78 244.69 L308.29 256.72 L308.69 249.28 Z M294.78 244.69 L308.69 249.28 L294.34 236.24 Z M294.34 236.24 L308.69 249.28 L308.29 242.22 Z M294.34 236.24 L308.29 242.22 L293.03 228.78 Z M293.03 228.78 L308.29 242.22 L307.11 236.01 Z M293.03 228.78 L307.11 236.01 L290.96 222.82 Z M290.96 222.82 L307.11 236.01 L305.24 231.09 Z M290.96 222.82 L305.24 231.09 L288.26 218.77 Z M288.26 218.77 L305.24 231.09 L302.80 227.79 Z M288.26 218.77 L302.80 227.79 L285.11 216.91 Z M285.11 216.91 L302.80 227.79 L299.95 226.32 Z M285.11 216.91 L299.95 226.32 L281.73 217.35 Z M281.73 217.35 L299.95 226.32 L296.90 226.80 Z M296.90 226.80 L312.08 236.36 L293.85 229.19 Z M293.85 229.19 L312.08 236.36 L309.35 238.37 Z M293.85 229.19 L309.35 238.37 L291.01 233.33 Z M291.01 233.33 L309.35 238.37 L306.80 241.70 Z M291.01 233.33 L306.80 241.70 L288.57 238.93 Z M288.57 238.93 L306.80 241.70 L304.61 246.13 Z M288.57 238.93 L304.61 246.13 L286.69 245.61 Z M286.69 245.61 L304.61 246.13 L302.94 251.35 Z M286.69 245.61 L302.94 251.35 L285.52 252.92 Z M285.52 252.92 L302.94 251.35 L301.88 257.01 Z M285.52 252.92 L301.88 257.01 L285.11 260.36 Z M285.11 260.36 L301.88 257.01 L301.52 262.71 Z M285.11 260.36 L301.52 262.71 L285.52 267.42 Z M285.52 267.42 L301.52 262.71 L301.88 268.07 Z M285.52 267.42 L301.88 268.07 L286.69 273.62 Z M286.69 273.62 L301.88 268.07 L302.94 272.74 Z M286.69 273.62 L302.94 272.74 L288.57 278.54 Z M288.57 278.54 L302.94 272.74 L304.61 276.38 Z M288.57 278.54 L304.61 276.38 L291.01 281.85 Z M291.01 281.85 L304.61 276.38 L306.80 278.75 Z M291.01 281.85 L306.80 278.75 L293.85 283.31 Z M293.85 283.31 L306.80 278.75 L309.35 279.69 Z M293.85 283.31 L309.35 279.69 L296.90 282.83 Z M296.90 282.83 L309.35 279.69 L312.08 279.14 Z M296.90 282.83 L312.08 279.14 L299.95 280.44 Z M299.95 280.44 L312.08 279.14 L314.81 277.12 Z M299.95 280.44 L314.81 277.12 L302.80 276.31 Z M302.80 276.31 L314.81 277.12 L317.35 273.79 Z M302.80 276.31 L317.35 273.79 L305.24 270.71 Z M305.24 270.71 L317.35 273.79 L319.54 269.37 Z M305.24 270.71 L319.54 269.37 L307.11 264.03 Z M307.11 264.03 L319.54 269.37 L321.22 264.15 Z M307.11 264.03 L321.22 264.15 L308.29 256.72 Z M308.29 256.72 L321.22 264.15 L322.27 258.49 Z M308.29 256.72 L322.27 258.49 L308.69 249.28 Z M308.69 249.28 L322.27 258.49 L322.63 252.79 Z M308.69 249.28 L322.63 252.79 L308.29 242.22 Z M308.29 242.22 L322.63 252.79 L322.27 247.42 Z M308.29 242.22 L322.27 247.42 L307.11 236.01 Z M307.11 236.01 L322.27 247.42 L321.22 242.76 Z M307.11 236.01 L321.22 242.76 L305.24 231.09 Z M305.24 231.09 L321.22 242.76 L319.54 239.12 Z M305.24 231.09 L319.54 239.12 L302.80 227.79 Z M302.80 227.79 L319.54 239.12 L317.35 236.74 Z M302.80 227.79 L317.35 236.74 L299.95 226.32 Z M299.95 226.32 L317.35 236.74 L314.81 235.81 Z M299.95 226.32 L314.81 235.81 L296.90 226.80 Z M296.90 226.80 L314.81 235.81 L312.08 236.36 Z M312.08 236.36 L327.25 245.91 L309.35 238.37 Z M309.35 238.37 L327.25 245.91 L324.84 247.55 Z M309.35 238.37 L324.84 247.55 L306.80 241.70 Z M306.80 241.70 L324.84 247.55 L322.59 250.08 Z M306.80 241.70 L322.59 250.08 L304.61 246.13 Z M304.61 246.13 L322.59 250.08 L320.66 253.34 Z M304.61 246.13 L320.66 253.34 L302.94 251.35 Z M302.94 251.35 L320.66 253.34 L319.18 257.09 Z M302.94 251.35 L319.18 257.09 L301.88 257.01 Z M301.88 257.01 L319.18 257.09 L318.25 261.09 Z M301.88 257.01 L318.25 261.09 L301.52 262.71 Z M301.52 262.71 L318.25 261.09 L317.93 265.06 Z M301.52 262.71 L317.93 265.06 L301.88 268.07 Z M301.88 268.07 L317.93 265.06 L318.25 268.73 Z M301.88 268.07 L318.25 268.73 L302.94 272.74 Z M302.94 272.74 L318.25 268.73 L319.18 271.85 Z M302.94 272.74 L319.18 271.85 L304.61 276.38 Z M304.61 276.38 L319.18 271.85 L320.66 274.21 Z M304.61 276.38 L320.66 274.21 L306.80 278.75 Z M306.80 278.75 L320.66 274.21 L322.59 275.65 Z M306.80 278.75 L322.59 275.65 L309.35 279.69 Z M309.35 279.69 L322.59 275.65 L324.84 276.07 Z M309.35 279.69 L324.84 276.07 L312.08 279.14 Z M312.08 279.14 L324.84 276.07 L327.25 275.44 Z M312.08 279.14 L327.25 275.44 L314.81 277.12 Z M314.81 277.12 L327.25 275.44 L329.66 273.81 Z M314.81 277.12 L329.66 273.81 L317.35 273.79 Z M317.35 273.79 L329.66 273.81 L331.91 271.27 Z M317.35 273.79 L331.91 271.27 L319.54 269.37 Z M319.54 269.37 L331.91 271.27 L333.84 268.02 Z M319.54 269.37 L333.84 268.02 L321.22 264.15 Z M321.22 264.15 L333.84 268.02 L335.32 264.27 Z M321.22 264.15 L335.32 264.27 L322.27 258.49 Z M322.27 258.49 L335.32 264.27 L336.25 260.27 Z M322.27 258.49 L336.25 260.27 L322.63 252.79 Z M322.63 252.79 L336.25 260.27 L336.57 256.30 Z M322.63 252.79 L336.57 256.30 L322.27 247.42 Z M322.27 247.42 L336.57 256.30 L336.25 252.63 Z M322.27 247.42 L336.25 252.63 L321.22 242.76 Z M321.22 242.76 L336.25 252.63 L335.32 249.50 Z M321.22 242.76 L335.32 249.50 L319.54 239.12 Z M319.54 239.12 L335.32 249.50 L333.84 247.14 Z M319.54 239.12 L333.84 247.14 L317.35 236.74 Z M317.35 236.74 L333.84 247.14 L331.91 245.70 Z M317.35 236.74 L331.91 245.70 L314.81 235.81 Z M314.81 235.81 L331.91 245.70 L329.66 245.28 Z M314.81 235.81 L329.66 245.28 L312.08 236.36 Z M312.08 236.36 L329.66 245.28 L327.25 245.91 Z M327.25 245.91 L339.89 252.77 L324.84 247.55 Z M324.84 247.55 L339.89 252.77 L337.81 254.08 Z M324.84 247.55 L337.81 254.08 L322.59 250.08 Z M322.59 250.08 L337.81 254.08 L335.86 255.98 Z M322.59 250.08 L335.86 255.98 L320.66 253.34 Z M320.66 253.34 L335.86 255.98 L334.19 258.32 Z M320.66 253.34 L334.19 258.32 L319.18 257.09 Z M319.18 257.09 L334.19 258.32 L332.91 260.95 Z M319.18 257.09 L332.91 260.95 L318.25 261.09 Z M318.25 261.09 L332.91 260.95 L332.11 263.69 Z M318.25 261.09 L332.11 263.69 L317.93 265.06 Z M317.93 265.06 L332.11 263.69 L331.83 266.36 Z M317.93 265.06 L331.83 266.36 L318.25 268.73 Z M318.25 268.73 L331.83 266.36 L332.11 268.77 Z M318.25 268.73 L332.11 268.77 L319.18 271.85 Z M319.18 271.85 L332.11 268.77 L332.91 270.75 Z M319.18 271.85 L332.91 270.75 L320.66 274.21 Z M320.66 274.21 L332.91 270.75 L334.19 272.17 Z M320.66 274.21 L334.19 272.17 L322.59 275.65 Z M322.59 275.65 L334.19 272.17 L335.86 272.95 Z M322.59 275.65 L335.86 272.95 L324.84 276.07 Z M324.84 276.07 L335.86 272.95 L337.81 273.01 Z M324.84 276.07 L337.81 273.01 L327.25 275.44 Z M327.25 275.44 L337.81 273.01 L339.89 272.37 Z M327.25 275.44 L339.89 272.37 L329.66 273.81 Z M329.66 273.81 L339.89 272.37 L341.98 271.05 Z M329.66 273.81 L341.98 271.05 L331.91 271.27 Z M331.91 271.27 L341.98 271.05 L343.92 269.16 Z M331.91 271.27 L343.92 269.16 L333.84 268.02 Z M333.84 268.02 L343.92 269.16 L345.59 266.82 Z M333.84 268.02 L345.59 266.82 L335.32 264.27 Z M335.32 264.27 L345.59 266.82 L346.87 264.19 Z M335.32 264.27 L346.87 264.19 L336.25 260.27 Z M336.25 260.27 L346.87 264.19 L347.68 261.45 Z M336.25 260.27 L347.68 261.45 L336.57 256.30 Z M336.57 256.30 L347.68 261.45 L347.95 258.78 Z M336.57 256.30 L347.95 258.78 L336.25 252.63 Z M336.25 252.63 L347.95 258.78 L347.68 256.37 Z M336.25 252.63 L347.68 256.37 L335.32 249.50 Z M335.32 249.50 L347.68 256.37 L346.87 254.39 Z M335.32 249.50 L346.87 254.39 L333.84 247.14 Z M333.84 247.14 L346.87 254.39 L345.59 252.96 Z M333.84 247.14 L345.59 252.96 L331.91 245.70 Z M331.91 245.70 L345.59 252.96 L343.92 252.19 Z M331.91 245.70 L343.92 252.19 L329.66 245.28 Z M329.66 245.28 L343.92 252.19 L341.98 252.12 Z M329.66 245.28 L341.98 252.12 L327.25 245.91 Z M327.25 245.91 L341.98 252.12 L339.89 252.77 Z M339.89 252.77 L347.48 254.24 L337.81 254.08 Z M337.81 254.08 L347.48 254.24 L345.73 255.33 Z M337.81 254.08 L345.73 255.33 L335.86 255.98 Z M335.86 255.98 L345.73 255.33 L344.11 256.91 Z M335.86 255.98 L344.11 256.91 L334.19 258.32 Z M334.19 258.32 L344.11 256.91 L342.71 258.86 Z M334.19 258.32 L342.71 258.86 L332.91 260.95 Z M332.91 260.95 L342.71 258.86 L341.64 261.05 Z M332.91 260.95 L341.64 261.05 L332.11 263.69 Z M332.11 263.69 L341.64 261.05 L340.97 263.33 Z M332.11 263.69 L340.97 263.33 L331.83 266.36 Z M331.83 266.36 L340.97 263.33 L340.74 265.55 Z M331.83 266.36 L340.74 265.55 L332.11 268.77 Z M332.11 268.77 L340.74 265.55 L340.97 267.54 Z M332.11 268.77 L340.97 267.54 L332.91 270.75 Z M332.91 270.75 L340.97 267.54 L341.64 269.19 Z M332.91 270.75 L341.64 269.19 L334.19 272.17 Z M334.19 272.17 L341.64 269.19 L342.71 270.37 Z M334.19 272.17 L342.71 270.37 L335.86 272.95 Z M335.86 272.95 L342.71 270.37 L344.11 271.01 Z M335.86 272.95 L344.11 271.01 L337.81 273.01 Z M337.81 273.01 L344.11 271.01 L345.73 271.06 Z M337.81 273.01 L345.73 271.06 L339.89 272.37 Z M339.89 272.37 L345.73 271.06 L347.48 270.52 Z M339.89 272.37 L347.48 270.52 L341.98 271.05 Z M341.98 271.05 L347.48 270.52 L349.23 269.42 Z M341.98 271.05 L349.23 269.42 L343.92 269.16 Z M343.92 269.16 L349.23 269.42 L350.85 267.84 Z M343.92 269.16 L350.85 267.84 L345.59 266.82 Z M345.59 266.82 L350.85 267.84 L352.25 265.89 Z M345.59 266.82 L352.25 265.89 L346.87 264.19 Z M346.87 264.19 L352.25 265.89 L353.32 263.70 Z M346.87 264.19 L353.32 263.70 L347.68 261.45 Z M347.68 261.45 L353.32 263.70 L353.99 261.42 Z M347.68 261.45 L353.99 261.42 L347.95 258.78 Z M347.95 258.78 L353.99 261.42 L354.22 259.21 Z M347.95 258.78 L354.22 259.21 L347.68 256.37 Z M347.68 256.37 L354.22 259.21 L353.99 257.21 Z M347.68 256.37 L353.99 257.21 L346.87 254.39 Z M346.87 254.39 L353.99 257.21 L353.32 255.56 Z M346.87 254.39 L353.32 255.56 L345.59 252.96 Z M345.59 252.96 L353.32 255.56 L352.25 254.38 Z M345.59 252.96 L352.25 254.38 L343.92 252.19 Z M343.92 252.19 L352.25 254.38 L350.85 253.74 Z M343.92 252.19 L350.85 253.74 L341.98 252.12 Z M341.98 252.12 L350.85 253.74 L349.23 253.69 Z M341.98 252.12 L349.23 253.69 L339.89 252.77 Z M339.89 252.77 L349.23 253.69 L347.48 254.24 Z M347.48 254.24 L355.07 255.70 L345.73 255.33 Z M345.73 255.33 L355.07 255.70 L353.66 256.58 Z M345.73 255.33 L353.66 256.58 L344.11 256.91 Z M344.11 256.91 L353.66 256.58 L352.35 257.85 Z M344.11 256.91 L352.35 257.85 L342.71 258.86 Z M342.71 258.86 L352.35 257.85 L351.23 259.40 Z M342.71 258.86 L351.23 259.40 L341.64 261.05 Z M341.64 261.05 L351.23 259.40 L350.37 261.15 Z M341.64 261.05 L350.37 261.15 L340.97 263.33 Z M340.97 263.33 L350.37 261.15 L349.82 262.97 Z M340.97 263.33 L349.82 262.97 L340.74 265.55 Z M340.74 265.55 L349.82 262.97 L349.64 264.74 Z M340.74 265.55 L349.64 264.74 L340.97 267.54 Z M340.97 267.54 L349.64 264.74 L349.82 266.33 Z M340.97 267.54 L349.82 266.33 L341.64 269.19 Z M341.64 269.19 L349.82 266.33 L350.37 267.64 Z M341.64 269.19 L350.37 267.64 L342.71 270.37 Z M342.71 270.37 L350.37 267.64 L351.23 268.58 Z M342.71 270.37 L351.23 268.58 L344.11 271.01 Z M344.11 271.01 L351.23 268.58 L352.35 269.08 Z M344.11 271.01 L352.35 269.08 L345.73 271.06 Z M345.73 271.06 L352.35 269.08 L353.66 269.11 Z M345.73 271.06 L353.66 269.11 L347.48 270.52 Z M347.48 270.52 L353.66 269.11 L355.07 268.67 Z M347.48 270.52 L355.07 268.67 L349.23 269.42 Z M349.23 269.42 L355.07 268.67 L356.47 267.79 Z M349.23 269.42 L356.47 267.79 L350.85 267.84 Z M350.85 267.84 L356.47 267.79 L357.78 266.53 Z M350.85 267.84 L357.78 266.53 L352.25 265.89 Z M352.25 265.89 L357.78 266.53 L358.91 264.97 Z M352.25 265.89 L358.91 264.97 L353.32 263.70 Z M353.32 263.70 L358.91 264.97 L359.77 263.22 Z M353.32 263.70 L359.77 263.22 L353.99 261.42 Z M353.99 261.42 L359.77 263.22 L360.31 261.40 Z M353.99 261.42 L360.31 261.40 L354.22 259.21 Z M354.22 259.21 L360.31 261.40 L360.50 259.64 Z M354.22 259.21 L360.50 259.64 L353.99 257.21 Z M353.99 257.21 L360.50 259.64 L360.31 258.05 Z M353.99 257.21 L360.31 258.05 L353.32 255.56 Z M353.32 255.56 L360.31 258.05 L359.77 256.73 Z M353.32 255.56 L359.77 256.73 L352.25 254.38 Z M352.25 254.38 L359.77 256.73 L358.91 255.79 Z M352.25 254.38 L358.91 255.79 L350.85 253.74 Z M350.85 253.74 L358.91 255.79 L357.78 255.29 Z M350.85 253.74 L357.78 255.29 L349.23 253.69 Z M349.23 253.69 L357.78 255.29 L356.47 255.26 Z M349.23 253.69 L356.47 255.26 L347.48 254.24 Z M347.48 254.24 L356.47 255.26 L355.07 255.70 Z M355.07 255.70 L362.65 257.17 L353.66 256.58 Z M353.66 256.58 L362.65 257.17 L361.59 257.83 Z M362.65 257.17 L362.65 262.00 L361.59 257.83 Z M353.66 256.58 L361.59 257.83 L352.35 257.85 Z M352.35 257.85 L361.59 257.83 L360.60 258.78 Z M361.59 257.83 L362.65 262.00 L360.60 258.78 Z M352.35 257.85 L360.60 258.78 L351.23 259.40 Z M351.23 259.40 L360.60 258.78 L359.75 259.95 Z M360.60 258.78 L362.65 262.00 L359.75 259.95 Z M351.23 259.40 L359.75 259.95 L350.37 261.15 Z M350.37 261.15 L359.75 259.95 L359.09 261.25 Z M359.75 259.95 L362.65 262.00 L359.09 261.25 Z M350.37 261.15 L359.09 261.25 L349.82 262.97 Z M349.82 262.97 L359.09 261.25 L358.68 262.61 Z M359.09 261.25 L362.65 262.00 L358.68 262.61 Z M349.82 262.97 L358.68 262.61 L349.64 264.74 Z M349.64 264.74 L358.68 262.61 L358.54 263.93 Z M358.68 262.61 L362.65 262.00 L358.54 263.93 Z M349.64 264.74 L358.54 263.93 L349.82 266.33 Z M349.82 266.33 L358.54 263.93 L358.68 265.11 Z M358.54 263.93 L362.65 262.00 L358.68 265.11 Z M349.82 266.33 L358.68 265.11 L350.37 267.64 Z M350.37 267.64 L358.68 265.11 L359.09 266.08 Z M358.68 265.11 L362.65 262.00 L359.09 266.08 Z M350.37 267.64 L359.09 266.08 L351.23 268.58 Z M351.23 268.58 L359.09 266.08 L359.75 266.78 Z M359.09 266.08 L362.65 262.00 L359.75 266.78 Z M351.23 268.58 L359.75 266.78 L352.35 269.08 Z M352.35 269.08 L359.75 266.78 L360.60 267.14 Z M359.75 266.78 L362.65 262.00 L360.60 267.14 Z M352.35 269.08 L360.60 267.14 L353.66 269.11 Z M353.66 269.11 L360.60 267.14 L361.59 267.16 Z M360.60 267.14 L362.65 262.00 L361.59 267.16 Z M353.66 269.11 L361.59 267.16 L355.07 268.67 Z M355.07 268.67 L361.59 267.16 L362.65 266.83 Z M361.59 267.16 L362.65 262.00 L362.65 266.83 Z M355.07 268.67 L362.65 266.83 L356.47 267.79 Z M356.47 267.79 L362.65 266.83 L363.72 266.16 Z M362.65 266.83 L362.65 262.00 L363.72 266.16 Z M356.47 267.79 L363.72 266.16 L357.78 266.53 Z M357.78 266.53 L363.72 266.16 L364.71 265.21 Z M363.72 266.16 L362.65 262.00 L364.71 265.21 Z M357.78 266.53 L364.71 265.21 L358.91 264.97 Z M358.91 264.97 L364.71 265.21 L365.56 264.04 Z M364.71 265.21 L362.65 262.00 L365.56 264.04 Z M358.91 264.97 L365.56 264.04 L359.77 263.22 Z M359.77 263.22 L365.56 264.04 L366.22 262.74 Z M365.56 264.04 L362.65 262.00 L366.22 262.74 Z M359.77 263.22 L366.22 262.74 L360.31 261.40 Z M360.31 261.40 L366.22 262.74 L366.63 261.38 Z M366.22 262.74 L362.65 262.00 L366.63 261.38 Z M360.31 261.40 L366.63 261.38 L360.50 259.64 Z M360.50 259.64 L366.63 261.38 L366.77 260.06 Z M366.63 261.38 L362.65 262.00 L366.77 260.06 Z M360.50 259.64 L366.77 260.06 L360.31 258.05 Z M360.31 258.05 L366.77 260.06 L366.63 258.88 Z M366.77 260.06 L362.65 262.00 L366.63 258.88 Z M360.31 258.05 L366.63 258.88 L359.77 256.73 Z M359.77 256.73 L366.63 258.88 L366.22 257.91 Z M366.63 258.88 L362.65 262.00 L366.22 257.91 Z M359.77 256.73 L366.22 257.91 L358.91 255.79 Z M358.91 255.79 L366.22 257.91 L365.56 257.21 Z M366.22 257.91 L362.65 262.00 L365.56 257.21 Z M358.91 255.79 L365.56 257.21 L357.78 255.29 Z M357.78 255.29 L365.56 257.21 L364.71 256.85 Z M365.56 257.21 L362.65 262.00 L364.71 256.85 Z M357.78 255.29 L364.71 256.85 L356.47 255.26 Z M356.47 255.26 L364.71 256.85 L363.72 256.83 Z M364.71 256.85 L362.65 262.00 L363.72 256.83 Z M356.47 255.26 L363.72 256.83 L355.07 255.70 Z M355.07 255.70 L363.72 256.83 L362.65 257.17 Z M363.72 256.83 L362.65 262.00 L362.65 257.17 Z "></path></svg>