<svg xmlns="http://www.w3.org/2000/svg" id="svg" width="440" height="440" font-family="Times" font-size="14" oncopy="svg_copy(this);">
<text x="10" y="10" id="title" font-style="italic" style="fill1:#ff6633;stroke:none"></text>
<text x="280" y="10" id="title2" font-style="italic" style="fill1:#ff6633;stroke:none">f<tspan dy="6" font-size="0.8em">0</tspan><tspan dy="-6" font-style="normal"> = 38 kHz <tspan font-style="italic">c</tspan><tspan dy="6" font-size="0.8em">0</tspan><tspan dy="-6" font-style="normal"> = 1480 m/s</tspan></tspan></text>
<text x="340" y="432" id="title3" font-style="italic" style="fill1:#ff6633;stroke:none">TS<tspan font-style="normal"> = -41.83 dB</tspan></text>
<text x="10" y="432" id="title4" font-style="italic" style="fill1:#ff6633;stroke:none">ℒ<tspan dy="6" font-size="0.8em">BS</tspan><tspan dy="-6" font-style="normal"> = 0.0081 m</tspan></text>
<g id="svg0" transform="translate(20,20)">
<line x1="210" y1="200" x2="400" y2="200" stroke="gray"></line>
<line x1="210" y1="200" x2="400" y2="200" stroke="gray" transform="rotate(30 200 200)" stroke-dasharray="1,1"></line>
<line x1="210" y1="200" x2="400" y2="200" stroke="gray" transform="rotate(60 200 200)" stroke-dasharray="1,1"></line>
<line x1="210" y1="200" x2="400" y2="200" stroke="gray" transform="rotate(90 200 200)" stroke-dasharray="1,1"></line>
<line x1="210" y1="200" x2="400" y2="200" stroke="gray" transform="rotate(120 200 200)" stroke-dasharray="1,1"></line>
<line x1="210" y1="200" x2="400" y2="200" stroke="gray" transform="rotate(150 200 200)" stroke-dasharray="1,1"></line>
<line x1="210" y1="200" x2="400" y2="200" stroke="gray" transform="rotate(180 200 200)" stroke-dasharray="1,1"></line>
<line x1="210" y1="200" x2="400" y2="200" stroke="gray" transform="rotate(210 200 200)" stroke-dasharray="1,1"></line>
<line x1="210" y1="200" x2="400" y2="200" stroke="gray" transform="rotate(240 200 200)" stroke-dasharray="1,1"></line>
<line x1="210" y1="200" x2="400" y2="200" stroke="gray" transform="rotate(270 200 200)" stroke-dasharray="1,1"></line>
<line x1="210" y1="200" x2="400" y2="200" stroke="gray" transform="rotate(300 200 200)" stroke-dasharray="1,1"></line>
<line x1="210" y1="200" x2="400" y2="200" stroke="gray" transform="rotate(330 200 200)" stroke-dasharray="1,1"></line>
<circle cx="200" cy="200" r="10" stroke="black" fill="none"></circle>	
<circle cx="200" cy="200" r="57.5" stroke="gray" fill="none" stroke-dasharray="1,1"></circle>	
<circle cx="200" cy="200" r="105" stroke="gray" fill="none" stroke-dasharray="1,1"></circle>	
<circle cx="200" cy="200" r="152.5" stroke="gray" fill="none" stroke-dasharray="1,1"></circle>	
<circle cx="200" cy="200" r="200" stroke="black" fill="none"></circle>
<text x="205" y="215">-60</text>
<text x="245" y="215">-50</text>
<text x="295" y="215">-40</text>
<text x="342" y="215">-30</text>
<text x="380" y="215">-20</text>
<text x="405" y="205">0</text>
<g transform="rotate(-30,200,200)"><text x="405" y="205">30</text></g>
<g transform="rotate(-60,200,200)"><text x="405" y="205">60</text></g>
<text x="195" y="-5">90</text>
<g transform="rotate(60,200,200)"><text x="-30" y="205">120</text></g>
<g transform="rotate(30,200,200)"><text x="-30" y="205">150</text></g>
<text x="-20" y="205">180</text>
<g transform="rotate(-30,200,200)"><text x="-30" y="205">210</text></g>
<g transform="rotate(-60,200,200)"><text x="-30" y="205">240</text></g>
<text x="190" y="415">270</text>
<g transform="rotate( 60,200,200)"><text x="405" y="205">300</text></g>
<g transform="rotate( 30,200,200)"><text x="405" y="205">330</text></g>

<line x1="390" y1="200" x2="400" y2="200" stroke="black" transform="rotate(0 200 200)"></line>
<line x1="390" y1="200" x2="400" y2="200" stroke="black" transform="rotate(30 200 200)"></line>
<line x1="390" y1="200" x2="400" y2="200" stroke="black" transform="rotate(60 200 200)"></line>
<line x1="390" y1="200" x2="400" y2="200" stroke="black" transform="rotate(90 200 200)"></line>
<line x1="390" y1="200" x2="400" y2="200" stroke="black" transform="rotate(120 200 200)"></line>
<line x1="390" y1="200" x2="400" y2="200" stroke="black" transform="rotate(150 200 200)"></line>
<line x1="390" y1="200" x2="400" y2="200" stroke="black" transform="rotate(180 200 200)"></line>
<line x1="390" y1="200" x2="400" y2="200" stroke="black" transform="rotate(210 200 200)"></line>
<line x1="390" y1="200" x2="400" y2="200" stroke="black" transform="rotate(240 200 200)"></line>
<line x1="390" y1="200" x2="400" y2="200" stroke="black" transform="rotate(270 200 200)"></line>
<line x1="390" y1="200" x2="400" y2="200" stroke="black" transform="rotate(300 200 200)"></line>
<line x1="390" y1="200" x2="400" y2="200" stroke="black" transform="rotate(330 200 200)"></line>

<line x1="257.5" y1="195" x2="257.5" y2="200" stroke="black"></line>
<line x1="305" y1="195" x2="305" y2="200" stroke="black"></line>
<line x1="352.5" y1="195" x2="352.5" y2="200" stroke="black"></line>
<path id="F" stroke="#AA69D3" stroke-width="3" stroke-dasharray="1,0" fill="none" d=""></path><path id="P" stroke="#92ba6c" stroke-width="3" stroke-dasharray="1,0" fill="none" d="M103.67 200.00 L104.51 225.59 L113.47 249.96 L132.74 267.26 L150.04 286.53 L174.41 295.49 L200.00 296.33 L225.59 295.49 L249.96 286.53 L267.26 267.26 L286.53 249.96 L295.49 225.59 L296.33 200.00 L295.49 174.41 L286.53 150.04 L267.26 132.74 L249.96 113.47 L225.59 104.51 L200.00 103.67 L174.41 104.51 L150.04 113.47 L132.74 132.74 L113.47 150.04 L104.51 174.41 L103.67 200.00 Z "></path><circle id="P_TS" fill="none" stroke-width="1" stroke="none" r="4" cx="210" cy="200"><title>TS(0°)=-60.00</title></circle><path id="Q" stroke="#4da6ff" stroke-width="3" stroke-dasharray="4,2" fill="none" d="M304.65 200.00 L301.09 172.91 L290.63 147.67 L274.00 126.00 L252.33 109.37 L227.09 98.91 L200.00 95.35 L172.91 98.91 L147.67 109.37 L126.00 126.00 L109.37 147.67 L98.91 172.91 L95.35 200.00 L98.91 227.09 L109.37 252.33 L126.00 274.00 L147.67 290.63 L172.91 301.09 L200.00 304.65 L227.09 301.09 L252.33 290.63 L274.00 274.00 L290.63 252.33 L301.09 227.09 L304.65 200.00 Z "></path><circle id="Q_TS" fill="none" stroke-width="1" stroke="none" r="4" cx="210" cy="200"><title>TS(0°)=-60.00</title></circle></g>
</svg>