<svg xmlns="http://www.w3.org/2000/svg" id="svg" width="440" height="440" font-family="Times" font-size="14" oncopy="svg_copy(this);">
<text x="10" y="10" id="title" font-style="italic" style="fill1:#ff6633;stroke:none">θ<tspan dy="6" font-size="0.8em">0</tspan><tspan dy="-6" font-style="normal"> = 270° <tspan font-style="italic">φ</tspan><tspan dy="6" font-size="0.8em">0</tspan><tspan dy="-6" font-style="normal"> = 0°</tspan></tspan></text>
<text x="280" y="10" id="title2" font-style="italic" style="fill1:#ff6633;stroke:none">f<tspan dy="6" font-size="0.8em">0</tspan><tspan dy="-6" font-style="normal"> = 200 kHz <tspan font-style="italic">c</tspan><tspan dy="6" font-size="0.8em">0</tspan><tspan dy="-6" font-style="normal"> = 1480 m/s</tspan></tspan></text>
<text x="340" y="432" id="title3" font-style="italic" style="fill1:#ff6633;stroke:none">TS<tspan font-style="normal"> = -40.41 dB</tspan></text>
<text x="10" y="432" id="title4" font-style="italic" style="fill1:#ff6633;stroke:none">ℒ<tspan dy="6" font-size="0.8em">BS</tspan><tspan dy="-6" font-style="normal"> = 0.0095 m</tspan></text>
<g id="svg0" transform="translate(20,20)">
<line x1="210" y1="200" x2="400" y2="200" stroke="gray"></line>
<line x1="210" y1="200" x2="400" y2="200" stroke="gray" transform="rotate(30 200 200)" stroke-dasharray="1,1"></line>
<line x1="210" y1="200" x2="400" y2="200" stroke="gray" transform="rotate(60 200 200)" stroke-dasharray="1,1"></line>
<line x1="210" y1="200" x2="400" y2="200" stroke="gray" transform="rotate(90 200 200)" stroke-dasharray="1,1"></line>
<line x1="210" y1="200" x2="400" y2="200" stroke="gray" transform="rotate(120 200 200)" stroke-dasharray="1,1"></line>
<line x1="210" y1="200" x2="400" y2="200" stroke="gray" transform="rotate(150 200 200)" stroke-dasharray="1,1"></line>
<line x1="210" y1="200" x2="400" y2="200" stroke="gray" transform="rotate(180 200 200)" stroke-dasharray="1,1"></line>
<line x1="210" y1="200" x2="400" y2="200" stroke="gray" transform="rotate(210 200 200)" stroke-dasharray="1,1"></line>
<line x1="210" y1="200" x2="400" y2="200" stroke="gray" transform="rotate(240 200 200)" stroke-dasharray="1,1"></line>
<line x1="210" y1="200" x2="400" y2="200" stroke="gray" transform="rotate(270 200 200)" stroke-dasharray="1,1"></line>
<line x1="210" y1="200" x2="400" y2="200" stroke="gray" transform="rotate(300 200 200)" stroke-dasharray="1,1"></line>
<line x1="210" y1="200" x2="400" y2="200" stroke="gray" transform="rotate(330 200 200)" stroke-dasharray="1,1"></line>
<circle cx="200" cy="200" r="10" stroke="black" fill="none"></circle>	
<circle cx="200" cy="200" r="57.5" stroke="gray" fill="none" stroke-dasharray="1,1"></circle>	
<circle cx="200" cy="200" r="105" stroke="gray" fill="none" stroke-dasharray="1,1"></circle>	
<circle cx="200" cy="200" r="152.5" stroke="gray" fill="none" stroke-dasharray="1,1"></circle>	
<circle cx="200" cy="200" r="200" stroke="black" fill="none"></circle>
<text x="205" y="215">-60</text>
<text x="245" y="215">-50</text>
<text x="295" y="215">-40</text>
<text x="342" y="215">-30</text>
<text x="380" y="215">-20</text>
<text x="405" y="205">0</text>
<g transform="rotate(-30,200,200)"><text x="405" y="205">30</text></g>
<g transform="rotate(-60,200,200)"><text x="405" y="205">60</text></g>
<text x="195" y="-5">90</text>
<g transform="rotate(60,200,200)"><text x="-30" y="205">120</text></g>
<g transform="rotate(30,200,200)"><text x="-30" y="205">150</text></g>
<text x="-20" y="205">180</text>
<g transform="rotate(-30,200,200)"><text x="-30" y="205">210</text></g>
<g transform="rotate(-60,200,200)"><text x="-30" y="205">240</text></g>
<text x="190" y="415">270</text>
<g transform="rotate( 60,200,200)"><text x="405" y="205">300</text></g>
<g transform="rotate( 30,200,200)"><text x="405" y="205">330</text></g>

<line x1="390" y1="200" x2="400" y2="200" stroke="black" transform="rotate(0 200 200)"></line>
<line x1="390" y1="200" x2="400" y2="200" stroke="black" transform="rotate(30 200 200)"></line>
<line x1="390" y1="200" x2="400" y2="200" stroke="black" transform="rotate(60 200 200)"></line>
<line x1="390" y1="200" x2="400" y2="200" stroke="black" transform="rotate(90 200 200)"></line>
<line x1="390" y1="200" x2="400" y2="200" stroke="black" transform="rotate(120 200 200)"></line>
<line x1="390" y1="200" x2="400" y2="200" stroke="black" transform="rotate(150 200 200)"></line>
<line x1="390" y1="200" x2="400" y2="200" stroke="black" transform="rotate(180 200 200)"></line>
<line x1="390" y1="200" x2="400" y2="200" stroke="black" transform="rotate(210 200 200)"></line>
<line x1="390" y1="200" x2="400" y2="200" stroke="black" transform="rotate(240 200 200)"></line>
<line x1="390" y1="200" x2="400" y2="200" stroke="black" transform="rotate(270 200 200)"></line>
<line x1="390" y1="200" x2="400" y2="200" stroke="black" transform="rotate(300 200 200)"></line>
<line x1="390" y1="200" x2="400" y2="200" stroke="black" transform="rotate(330 200 200)"></line>

<line x1="257.5" y1="195" x2="257.5" y2="200" stroke="black"></line>
<line x1="305" y1="195" x2="305" y2="200" stroke="black"></line>
<line x1="352.5" y1="195" x2="352.5" y2="200" stroke="black"></line>
<path id="F" stroke="#AA69D3" stroke-width="3" stroke-dasharray="1,0" fill="none" d=""></path><path id="P" stroke="#ff6633" stroke-width="3" stroke-dasharray="1,0" fill="none" d="M303.73 200.00 L303.71 198.19 L303.66 196.38 L303.58 194.57 L303.45 192.77 L303.29 190.96 L303.08 189.17 L302.83 187.37 L302.56 185.59 L302.26 183.80 L301.93 182.03 L301.58 180.26 L301.20 178.49 L300.81 176.73 L300.38 174.97 L299.92 173.23 L299.43 171.49 L298.90 169.76 L298.34 168.05 L297.75 166.34 L297.13 164.65 L296.48 162.96 L295.80 161.29 L295.10 159.63 L294.37 157.98 L293.62 156.35 L292.84 154.72 L292.02 153.11 L291.18 151.52 L290.31 149.94 L289.42 148.37 L288.50 146.83 L287.54 145.30 L286.57 143.78 L285.57 142.28 L284.55 140.80 L283.50 139.34 L282.42 137.89 L281.32 136.46 L280.20 135.06 L279.05 133.67 L277.88 132.30 L276.68 130.96 L275.46 129.64 L274.21 128.33 L272.95 127.05 L271.66 125.79 L270.36 124.55 L269.03 123.34 L267.67 122.15 L266.30 120.98 L264.91 119.85 L263.50 118.73 L262.06 117.64 L260.61 116.57 L259.15 115.53 L257.66 114.52 L256.16 113.52 L254.64 112.55 L253.11 111.61 L251.56 110.70 L249.99 109.81 L248.41 108.94 L246.82 108.11 L245.21 107.31 L243.58 106.54 L241.94 105.80 L240.29 105.09 L238.62 104.41 L236.94 103.76 L235.26 103.13 L233.56 102.53 L231.85 101.97 L230.14 101.42 L228.41 100.91 L226.68 100.43 L224.94 99.97 L223.19 99.54 L221.44 99.15 L219.67 98.79 L217.90 98.46 L216.13 98.16 L214.35 97.90 L212.56 97.67 L210.78 97.48 L208.98 97.31 L207.19 97.18 L205.39 97.08 L203.60 97.01 L201.80 96.97 L200.00 96.95 L198.20 96.97 L196.40 97.01 L194.61 97.08 L192.81 97.18 L191.02 97.31 L189.22 97.48 L187.44 97.67 L185.65 97.90 L183.87 98.16 L182.10 98.46 L180.33 98.79 L178.56 99.15 L176.81 99.54 L175.06 99.97 L173.32 100.43 L171.59 100.91 L169.86 101.42 L168.15 101.97 L166.44 102.53 L164.74 103.13 L163.06 103.76 L161.38 104.41 L159.71 105.09 L158.06 105.80 L156.42 106.54 L154.79 107.31 L153.18 108.11 L151.59 108.94 L150.01 109.81 L148.44 110.70 L146.89 111.61 L145.36 112.55 L143.84 113.52 L142.34 114.52 L140.85 115.53 L139.39 116.57 L137.94 117.64 L136.50 118.73 L135.09 119.85 L133.70 120.98 L132.33 122.15 L130.97 123.34 L129.64 124.55 L128.34 125.79 L127.05 127.05 L125.79 128.33 L124.54 129.64 L123.32 130.96 L122.12 132.30 L120.95 133.67 L119.80 135.06 L118.68 136.46 L117.58 137.89 L116.50 139.34 L115.45 140.80 L114.43 142.28 L113.43 143.78 L112.46 145.30 L111.50 146.83 L110.58 148.37 L109.69 149.94 L108.82 151.52 L107.98 153.11 L107.16 154.72 L106.38 156.35 L105.63 157.98 L104.90 159.63 L104.20 161.29 L103.52 162.96 L102.87 164.65 L102.25 166.34 L101.66 168.05 L101.10 169.76 L100.57 171.49 L100.08 173.23 L99.62 174.97 L99.19 176.73 L98.80 178.49 L98.42 180.26 L98.07 182.03 L97.74 183.80 L97.44 185.59 L97.17 187.37 L96.92 189.17 L96.71 190.96 L96.55 192.77 L96.42 194.57 L96.34 196.38 L96.29 198.19 L96.27 200.00 L96.26 201.81 L96.26 203.62 L96.27 205.44 L96.30 207.25 L96.36 209.07 L96.45 210.88 L96.60 212.70 L96.80 214.50 L97.06 216.30 L97.37 218.10 L97.70 219.88 L98.05 221.67 L98.39 223.46 L98.72 225.25 L99.03 227.05 L99.35 228.86 L99.71 230.66 L100.14 232.45 L100.64 234.21 L101.23 235.95 L101.90 237.66 L102.62 239.34 L103.34 241.03 L104.01 242.74 L104.63 244.47 L105.18 246.25 L105.69 248.05 L106.24 249.85 L106.87 251.62 L107.63 253.33 L108.55 254.95 L109.61 256.48 L110.73 257.97 L111.84 259.46 L112.84 261.03 L113.67 262.72 L114.34 264.55 L114.92 266.47 L115.52 268.41 L116.29 270.24 L117.30 271.89 L118.59 273.31 L120.10 274.51 L121.72 275.59 L123.26 276.74 L124.52 278.16 L125.40 280.00 L125.96 282.23 L126.39 284.68 L126.95 287.06 L127.83 289.12 L129.17 290.66 L130.97 291.60 L133.13 292.04 L135.38 292.29 L137.33 292.91 L138.62 294.51 L139.17 297.34 L139.29 301.03 L139.45 304.88 L140.01 308.22 L141.21 310.58 L143.10 311.68 L145.65 311.43 L148.67 310.08 L151.67 308.54 L153.82 308.79 L154.51 312.58 L154.22 319.27 L153.90 326.65 L154.17 333.09 L155.21 337.84 L157.05 340.49 L159.65 340.70 L163.00 338.08 L166.97 332.46 L170.83 326.36 L172.37 329.98 L171.72 345.50 L171.40 362.19 L172.07 376.34 L173.59 387.94 L175.76 397.43 L178.44 405.16 L181.50 411.40 L184.87 416.33 L188.47 420.06 L192.22 422.67 L196.09 424.22 L200.00 424.73 L203.91 424.22 L207.78 422.67 L211.53 420.06 L215.13 416.33 L218.50 411.40 L221.56 405.16 L224.24 397.43 L226.41 387.94 L227.93 376.34 L228.60 362.19 L228.28 345.50 L227.63 329.98 L229.17 326.36 L233.03 332.46 L237.00 338.08 L240.35 340.70 L242.95 340.49 L244.79 337.84 L245.83 333.09 L246.10 326.65 L245.78 319.27 L245.49 312.58 L246.18 308.79 L248.33 308.54 L251.33 310.08 L254.35 311.43 L256.90 311.68 L258.79 310.58 L259.99 308.22 L260.55 304.88 L260.71 301.03 L260.83 297.34 L261.38 294.51 L262.67 292.91 L264.62 292.29 L266.87 292.04 L269.03 291.60 L270.83 290.66 L272.17 289.12 L273.05 287.06 L273.61 284.68 L274.04 282.23 L274.60 280.00 L275.48 278.16 L276.74 276.74 L278.28 275.59 L279.90 274.51 L281.41 273.31 L282.70 271.89 L283.71 270.24 L284.48 268.41 L285.08 266.47 L285.66 264.55 L286.33 262.72 L287.16 261.03 L288.16 259.46 L289.27 257.97 L290.39 256.48 L291.45 254.95 L292.37 253.33 L293.13 251.62 L293.76 249.85 L294.31 248.05 L294.82 246.25 L295.37 244.47 L295.99 242.74 L296.66 241.03 L297.38 239.34 L298.10 237.66 L298.77 235.95 L299.36 234.21 L299.86 232.45 L300.29 230.66 L300.65 228.86 L300.97 227.05 L301.28 225.25 L301.61 223.46 L301.95 221.67 L302.30 219.88 L302.63 218.10 L302.94 216.30 L303.20 214.50 L303.40 212.70 L303.55 210.88 L303.64 209.07 L303.70 207.25 L303.73 205.44 L303.74 203.62 L303.74 201.81 L303.73 200.00 Z "></path><circle id="P_TS" fill="#ff6633" stroke-width="1" stroke="#ff6633" r="4" cx="200" cy="96.95155478070446"><title>TS(90°)=-40.41</title></circle><path id="Q" stroke="#4da6ff" stroke-width="3" stroke-dasharray="4,2" fill="none" d="M310.14 200.00 L309.87 198.08 L309.56 196.17 L309.23 194.28 L308.86 192.39 L308.47 190.51 L308.05 188.64 L307.61 186.79 L307.15 184.94 L306.66 183.11 L306.16 181.28 L305.63 179.47 L305.08 177.66 L304.52 175.87 L303.94 174.09 L303.34 172.31 L302.72 170.55 L302.07 168.79 L301.41 167.05 L300.73 165.31 L300.04 163.59 L299.31 161.88 L298.57 160.17 L297.81 158.48 L297.02 156.80 L296.21 155.14 L295.38 153.48 L294.52 151.84 L293.64 150.21 L292.73 148.60 L291.80 147.00 L290.84 145.42 L289.85 143.85 L288.84 142.30 L287.81 140.77 L286.75 139.26 L285.66 137.76 L284.54 136.29 L283.40 134.84 L282.24 133.40 L281.05 131.99 L279.83 130.60 L278.60 129.23 L277.33 127.89 L276.04 126.57 L274.73 125.27 L273.40 124.00 L272.04 122.75 L270.66 121.53 L269.26 120.33 L267.84 119.15 L266.40 118.00 L264.94 116.88 L263.45 115.79 L261.96 114.72 L260.44 113.68 L258.91 112.67 L257.35 111.68 L255.79 110.72 L254.20 109.79 L252.60 108.89 L250.99 108.01 L249.36 107.17 L247.72 106.35 L246.06 105.56 L244.39 104.80 L242.71 104.06 L241.02 103.36 L239.32 102.68 L237.60 102.04 L235.88 101.42 L234.15 100.83 L232.40 100.27 L230.65 99.75 L228.89 99.25 L227.12 98.78 L225.35 98.34 L223.57 97.92 L221.78 97.55 L219.98 97.20 L218.18 96.88 L216.38 96.59 L214.57 96.33 L212.76 96.10 L210.94 95.90 L209.12 95.73 L207.30 95.59 L205.48 95.49 L203.65 95.41 L201.83 95.36 L200.00 95.35 L198.17 95.36 L196.35 95.41 L194.52 95.49 L192.70 95.59 L190.88 95.73 L189.06 95.90 L187.24 96.10 L185.43 96.33 L183.62 96.59 L181.82 96.88 L180.02 97.20 L178.22 97.55 L176.43 97.92 L174.65 98.34 L172.88 98.78 L171.11 99.25 L169.35 99.75 L167.60 100.27 L165.85 100.83 L164.12 101.42 L162.40 102.04 L160.68 102.68 L158.98 103.36 L157.29 104.06 L155.61 104.80 L153.94 105.56 L152.28 106.35 L150.64 107.17 L149.01 108.01 L147.40 108.89 L145.80 109.79 L144.21 110.72 L142.65 111.68 L141.09 112.67 L139.56 113.68 L138.04 114.72 L136.55 115.79 L135.06 116.88 L133.60 118.00 L132.16 119.15 L130.74 120.33 L129.34 121.53 L127.96 122.75 L126.60 124.00 L125.27 125.27 L123.96 126.57 L122.67 127.89 L121.40 129.23 L120.17 130.60 L118.95 131.99 L117.76 133.40 L116.60 134.84 L115.46 136.29 L114.34 137.76 L113.25 139.26 L112.19 140.77 L111.16 142.30 L110.15 143.85 L109.16 145.42 L108.20 147.00 L107.27 148.60 L106.36 150.21 L105.48 151.84 L104.62 153.48 L103.79 155.14 L102.98 156.80 L102.19 158.48 L101.43 160.17 L100.69 161.88 L99.96 163.59 L99.27 165.31 L98.59 167.05 L97.93 168.79 L97.28 170.55 L96.66 172.31 L96.06 174.09 L95.48 175.87 L94.92 177.66 L94.37 179.47 L93.84 181.28 L93.34 183.11 L92.85 184.94 L92.39 186.79 L91.95 188.64 L91.53 190.51 L91.14 192.39 L90.77 194.28 L90.44 196.17 L90.13 198.08 L89.86 200.00 L89.61 201.93 L89.41 203.86 L89.25 205.80 L89.12 207.75 L89.03 209.71 L89.00 211.67 L89.00 213.63 L89.06 215.59 L89.16 217.56 L89.32 219.52 L89.52 221.47 L89.79 223.43 L90.10 225.37 L90.47 227.31 L90.89 229.24 L91.37 231.15 L91.90 233.05 L92.49 234.93 L93.12 236.80 L93.80 238.65 L94.53 240.49 L95.30 242.30 L96.10 244.10 L96.94 245.89 L97.80 247.66 L98.68 249.42 L99.57 251.17 L100.46 252.92 L101.35 254.68 L102.22 256.45 L103.08 258.24 L103.89 260.06 L104.67 261.91 L105.40 263.81 L106.09 265.76 L106.72 267.77 L107.30 269.86 L107.83 272.01 L108.32 274.24 L108.76 276.56 L109.19 278.94 L109.60 281.40 L110.00 283.93 L110.41 286.52 L110.84 289.16 L111.30 291.86 L111.80 294.59 L112.35 297.35 L112.96 300.13 L113.64 302.92 L114.39 305.72 L115.22 308.52 L116.13 311.30 L117.12 314.07 L118.21 316.81 L119.38 319.53 L120.64 322.21 L121.99 324.85 L123.42 327.44 L124.95 329.99 L126.56 332.48 L128.26 334.92 L130.04 337.30 L131.91 339.61 L133.85 341.86 L135.87 344.04 L137.96 346.15 L140.13 348.19 L142.36 350.15 L144.67 352.03 L147.03 353.83 L149.46 355.54 L151.95 357.18 L154.49 358.73 L157.08 360.19 L159.72 361.57 L162.40 362.85 L165.13 364.05 L167.90 365.15 L170.70 366.16 L173.54 367.08 L176.40 367.90 L179.30 368.63 L182.21 369.26 L185.14 369.80 L188.10 370.23 L191.06 370.58 L194.03 370.82 L197.02 370.97 L200.00 371.01 L202.98 370.97 L205.97 370.82 L208.94 370.58 L211.90 370.23 L214.86 369.80 L217.79 369.26 L220.70 368.63 L223.60 367.90 L226.46 367.08 L229.30 366.16 L232.10 365.15 L234.87 364.05 L237.60 362.85 L240.28 361.57 L242.92 360.19 L245.51 358.73 L248.05 357.18 L250.54 355.54 L252.97 353.83 L255.33 352.03 L257.64 350.15 L259.87 348.19 L262.04 346.15 L264.13 344.04 L266.15 341.86 L268.09 339.61 L269.96 337.30 L271.74 334.92 L273.44 332.48 L275.05 329.99 L276.58 327.44 L278.01 324.85 L279.36 322.21 L280.62 319.53 L281.79 316.81 L282.88 314.07 L283.87 311.30 L284.78 308.52 L285.61 305.72 L286.36 302.92 L287.04 300.13 L287.65 297.35 L288.20 294.59 L288.70 291.86 L289.16 289.16 L289.59 286.52 L290.00 283.93 L290.40 281.40 L290.81 278.94 L291.24 276.56 L291.68 274.24 L292.17 272.01 L292.70 269.86 L293.28 267.77 L293.91 265.76 L294.60 263.81 L295.33 261.91 L296.11 260.06 L296.92 258.24 L297.78 256.45 L298.65 254.68 L299.54 252.92 L300.43 251.17 L301.32 249.42 L302.20 247.66 L303.06 245.89 L303.90 244.10 L304.70 242.30 L305.47 240.49 L306.20 238.65 L306.88 236.80 L307.51 234.93 L308.10 233.05 L308.63 231.15 L309.11 229.24 L309.53 227.31 L309.90 225.37 L310.21 223.43 L310.48 221.47 L310.68 219.52 L310.84 217.56 L310.94 215.59 L311.00 213.63 L311.00 211.67 L310.97 209.71 L310.88 207.75 L310.75 205.80 L310.59 203.86 L310.39 201.93 L310.14 200.00 L304.52 200.00 L304.43 198.18 L304.33 196.36 L304.21 194.54 L304.07 192.72 L303.92 190.91 L303.73 189.10 L303.52 187.29 L303.27 185.49 L302.98 183.69 L302.65 181.90 L302.29 180.12 L301.89 178.34 L301.45 176.58 L300.98 174.82 L300.47 173.08 L299.93 171.34 L299.37 169.62 L298.78 167.90 L298.17 166.20 L297.53 164.50 L296.87 162.82 L296.18 161.14 L295.47 159.47 L294.74 157.82 L293.98 156.18 L293.19 154.55 L292.38 152.93 L291.53 151.33 L290.66 149.75 L289.76 148.18 L288.83 146.63 L287.87 145.09 L286.88 143.58 L285.87 142.08 L284.83 140.60 L283.76 139.14 L282.67 137.70 L281.56 136.28 L280.42 134.88 L279.26 133.49 L278.08 132.13 L276.87 130.78 L275.64 129.46 L274.39 128.16 L273.12 126.88 L271.83 125.62 L270.51 124.38 L269.18 123.17 L267.82 121.98 L266.45 120.81 L265.05 119.67 L263.63 118.55 L262.20 117.46 L260.75 116.39 L259.28 115.34 L257.79 114.33 L256.28 113.33 L254.76 112.37 L253.22 111.43 L251.66 110.52 L250.09 109.64 L248.50 108.78 L246.90 107.95 L245.28 107.15 L243.66 106.38 L242.01 105.64 L240.36 104.93 L238.69 104.24 L237.01 103.59 L235.32 102.96 L233.62 102.36 L231.91 101.80 L230.19 101.26 L228.46 100.75 L226.72 100.27 L224.98 99.82 L223.23 99.40 L221.47 99.01 L219.70 98.65 L217.93 98.32 L216.15 98.02 L214.37 97.75 L212.58 97.51 L210.79 97.30 L209.00 97.12 L207.20 96.98 L205.40 96.87 L203.60 96.79 L201.80 96.74 L200.00 96.72 L198.20 96.74 L196.40 96.79 L194.60 96.87 L192.80 96.98 L191.00 97.12 L189.21 97.30 L187.42 97.51 L185.63 97.75 L183.85 98.02 L182.07 98.32 L180.30 98.65 L178.53 99.01 L176.77 99.40 L175.02 99.82 L173.28 100.27 L171.54 100.75 L169.81 101.26 L168.09 101.80 L166.38 102.36 L164.68 102.96 L162.99 103.59 L161.31 104.24 L159.64 104.93 L157.99 105.64 L156.34 106.38 L154.72 107.15 L153.10 107.95 L151.50 108.78 L149.91 109.64 L148.34 110.52 L146.78 111.43 L145.24 112.37 L143.72 113.33 L142.21 114.33 L140.72 115.34 L139.25 116.39 L137.80 117.46 L136.37 118.55 L134.95 119.67 L133.55 120.81 L132.18 121.98 L130.82 123.17 L129.49 124.38 L128.17 125.62 L126.88 126.88 L125.61 128.16 L124.36 129.46 L123.13 130.78 L121.92 132.13 L120.74 133.49 L119.58 134.88 L118.44 136.28 L117.33 137.70 L116.24 139.14 L115.17 140.60 L114.13 142.08 L113.12 143.58 L112.13 145.09 L111.17 146.63 L110.24 148.18 L109.34 149.75 L108.47 151.33 L107.62 152.93 L106.81 154.55 L106.02 156.18 L105.26 157.82 L104.53 159.47 L103.82 161.14 L103.13 162.82 L102.47 164.50 L101.83 166.20 L101.22 167.90 L100.63 169.62 L100.07 171.34 L99.53 173.08 L99.02 174.82 L98.55 176.58 L98.11 178.34 L97.71 180.12 L97.35 181.90 L97.02 183.69 L96.73 185.49 L96.48 187.29 L96.27 189.10 L96.08 190.91 L95.93 192.72 L95.79 194.54 L95.67 196.36 L95.57 198.18 L95.48 200.00 L95.41 201.83 L95.34 203.65 L95.29 205.49 L95.26 207.32 L95.26 209.16 L95.30 211.00 L95.39 212.84 L95.53 214.68 L95.72 216.52 L95.98 218.34 L96.30 220.16 L96.67 221.96 L97.08 223.76 L97.53 225.55 L98.00 227.33 L98.47 229.11 L98.92 230.90 L99.35 232.70 L99.75 234.52 L100.12 236.35 L100.47 238.21 L100.82 240.07 L101.18 241.95 L101.59 243.82 L102.06 245.67 L102.62 247.49 L103.29 249.28 L104.07 251.01 L104.97 252.68 L105.96 254.29 L107.04 255.86 L108.16 257.39 L109.28 258.92 L110.35 260.47 L111.33 262.09 L112.18 263.80 L112.90 265.64 L113.48 267.60 L113.97 269.66 L114.43 271.80 L114.92 273.96 L115.50 276.09 L116.22 278.12 L117.15 280.01 L118.28 281.72 L119.66 283.20 L121.25 284.45 L123.03 285.49 L124.94 286.35 L126.88 287.14 L128.74 288.00 L130.37 289.12 L131.67 290.68 L132.56 292.82 L133.10 295.54 L133.41 298.73 L133.63 302.19 L133.94 305.71 L134.45 309.10 L135.23 312.18 L136.35 314.83 L137.81 316.96 L139.64 318.47 L141.82 319.29 L144.33 319.37 L147.14 318.72 L150.15 317.45 L153.15 315.96 L155.78 315.19 L157.58 316.54 L158.33 321.01 L158.37 328.13 L158.26 336.52 L158.40 345.07 L158.95 353.22 L159.92 360.74 L161.31 367.59 L163.06 373.78 L165.14 379.33 L167.50 384.29 L170.11 388.69 L172.94 392.56 L175.94 395.92 L179.11 398.80 L182.40 401.21 L185.79 403.17 L189.27 404.68 L192.81 405.76 L196.40 406.40 L200.00 406.62 L203.60 406.40 L207.19 405.76 L210.73 404.68 L214.21 403.17 L217.60 401.21 L220.89 398.80 L224.06 395.92 L227.06 392.56 L229.89 388.69 L232.50 384.29 L234.86 379.33 L236.94 373.78 L238.69 367.59 L240.08 360.74 L241.05 353.22 L241.60 345.07 L241.74 336.52 L241.63 328.13 L241.67 321.01 L242.42 316.54 L244.22 315.19 L246.85 315.96 L249.85 317.45 L252.86 318.72 L255.67 319.37 L258.18 319.29 L260.36 318.47 L262.19 316.96 L263.65 314.83 L264.77 312.18 L265.55 309.10 L266.06 305.71 L266.37 302.19 L266.59 298.73 L266.90 295.54 L267.44 292.82 L268.33 290.68 L269.63 289.12 L271.26 288.00 L273.12 287.14 L275.06 286.35 L276.97 285.49 L278.75 284.45 L280.34 283.20 L281.72 281.72 L282.85 280.01 L283.78 278.12 L284.50 276.09 L285.08 273.96 L285.57 271.80 L286.03 269.66 L286.52 267.60 L287.10 265.64 L287.82 263.80 L288.67 262.09 L289.65 260.47 L290.72 258.92 L291.84 257.39 L292.96 255.86 L294.04 254.29 L295.03 252.68 L295.93 251.01 L296.71 249.28 L297.38 247.49 L297.94 245.67 L298.41 243.82 L298.82 241.95 L299.18 240.07 L299.53 238.21 L299.88 236.35 L300.25 234.52 L300.65 232.70 L301.08 230.90 L301.53 229.11 L302.00 227.33 L302.47 225.55 L302.92 223.76 L303.33 221.96 L303.70 220.16 L304.02 218.34 L304.28 216.52 L304.47 214.68 L304.61 212.84 L304.70 211.00 L304.74 209.16 L304.74 207.32 L304.71 205.49 L304.66 203.65 L304.59 201.83 L304.52 200.00 L303.73 200.00 L303.71 198.19 L303.66 196.38 L303.58 194.57 L303.45 192.77 L303.29 190.96 L303.08 189.17 L302.83 187.37 L302.56 185.59 L302.26 183.80 L301.93 182.03 L301.58 180.26 L301.20 178.49 L300.81 176.73 L300.38 174.97 L299.92 173.23 L299.43 171.49 L298.90 169.76 L298.34 168.05 L297.75 166.34 L297.13 164.65 L296.48 162.96 L295.80 161.29 L295.10 159.63 L294.37 157.98 L293.62 156.35 L292.84 154.72 L292.02 153.11 L291.18 151.52 L290.31 149.94 L289.42 148.37 L288.50 146.83 L287.54 145.30 L286.57 143.78 L285.57 142.28 L284.55 140.80 L283.50 139.34 L282.42 137.89 L281.32 136.46 L280.20 135.06 L279.05 133.67 L277.88 132.30 L276.68 130.96 L275.46 129.64 L274.21 128.33 L272.95 127.05 L271.66 125.79 L270.36 124.55 L269.03 123.34 L267.67 122.15 L266.30 120.98 L264.91 119.85 L263.50 118.73 L262.06 117.64 L260.61 116.57 L259.15 115.53 L257.66 114.52 L256.16 113.52 L254.64 112.55 L253.11 111.61 L251.56 110.70 L249.99 109.81 L248.41 108.94 L246.82 108.11 L245.21 107.31 L243.58 106.54 L241.94 105.80 L240.29 105.09 L238.62 104.41 L236.94 103.76 L235.26 103.13 L233.56 102.53 L231.85 101.97 L230.14 101.42 L228.41 100.91 L226.68 100.43 L224.94 99.97 L223.19 99.54 L221.44 99.15 L219.67 98.79 L217.90 98.46 L216.13 98.16 L214.35 97.90 L212.56 97.67 L210.78 97.48 L208.98 97.31 L207.19 97.18 L205.39 97.08 L203.60 97.01 L201.80 96.97 L200.00 96.95 L198.20 96.97 L196.40 97.01 L194.61 97.08 L192.81 97.18 L191.02 97.31 L189.22 97.48 L187.44 97.67 L185.65 97.90 L183.87 98.16 L182.10 98.46 L180.33 98.79 L178.56 99.15 L176.81 99.54 L175.06 99.97 L173.32 100.43 L171.59 100.91 L169.86 101.42 L168.15 101.97 L166.44 102.53 L164.74 103.13 L163.06 103.76 L161.38 104.41 L159.71 105.09 L158.06 105.80 L156.42 106.54 L154.79 107.31 L153.18 108.11 L151.59 108.94 L150.01 109.81 L148.44 110.70 L146.89 111.61 L145.36 112.55 L143.84 113.52 L142.34 114.52 L140.85 115.53 L139.39 116.57 L137.94 117.64 L136.50 118.73 L135.09 119.85 L133.70 120.98 L132.33 122.15 L130.97 123.34 L129.64 124.55 L128.34 125.79 L127.05 127.05 L125.79 128.33 L124.54 129.64 L123.32 130.96 L122.12 132.30 L120.95 133.67 L119.80 135.06 L118.68 136.46 L117.58 137.89 L116.50 139.34 L115.45 140.80 L114.43 142.28 L113.43 143.78 L112.46 145.30 L111.50 146.83 L110.58 148.37 L109.69 149.94 L108.82 151.52 L107.98 153.11 L107.16 154.72 L106.38 156.35 L105.63 157.98 L104.90 159.63 L104.20 161.29 L103.52 162.96 L102.87 164.65 L102.25 166.34 L101.66 168.05 L101.10 169.76 L100.57 171.49 L100.08 173.23 L99.62 174.97 L99.19 176.73 L98.80 178.49 L98.42 180.26 L98.07 182.03 L97.74 183.80 L97.44 185.59 L97.17 187.37 L96.92 189.17 L96.71 190.96 L96.55 192.77 L96.42 194.57 L96.34 196.38 L96.29 198.19 L96.27 200.00 L96.26 201.81 L96.26 203.62 L96.27 205.44 L96.30 207.25 L96.36 209.07 L96.45 210.88 L96.60 212.70 L96.80 214.50 L97.06 216.30 L97.37 218.10 L97.70 219.88 L98.05 221.67 L98.39 223.46 L98.72 225.25 L99.03 227.05 L99.35 228.86 L99.71 230.66 L100.14 232.45 L100.64 234.21 L101.23 235.95 L101.90 237.66 L102.62 239.34 L103.34 241.03 L104.01 242.74 L104.63 244.47 L105.18 246.25 L105.69 248.05 L106.24 249.85 L106.87 251.62 L107.63 253.33 L108.55 254.95 L109.61 256.48 L110.73 257.97 L111.84 259.46 L112.84 261.03 L113.67 262.72 L114.34 264.55 L114.92 266.47 L115.52 268.41 L116.29 270.24 L117.30 271.89 L118.59 273.31 L120.10 274.51 L121.72 275.59 L123.26 276.74 L124.52 278.16 L125.40 280.00 L125.96 282.23 L126.39 284.68 L126.95 287.06 L127.83 289.12 L129.17 290.66 L130.97 291.60 L133.13 292.04 L135.38 292.29 L137.33 292.91 L138.62 294.51 L139.17 297.34 L139.29 301.03 L139.45 304.88 L140.01 308.22 L141.21 310.58 L143.10 311.68 L145.65 311.43 L148.67 310.08 L151.67 308.54 L153.82 308.79 L154.51 312.58 L154.22 319.27 L153.90 326.65 L154.17 333.09 L155.21 337.84 L157.05 340.49 L159.65 340.70 L163.00 338.08 L166.97 332.46 L170.83 326.36 L172.37 329.98 L171.72 345.50 L171.40 362.19 L172.07 376.34 L173.59 387.94 L175.76 397.43 L178.44 405.16 L181.50 411.40 L184.87 416.33 L188.47 420.06 L192.22 422.67 L196.09 424.22 L200.00 424.73 L203.91 424.22 L207.78 422.67 L211.53 420.06 L215.13 416.33 L218.50 411.40 L221.56 405.16 L224.24 397.43 L226.41 387.94 L227.93 376.34 L228.60 362.19 L228.28 345.50 L227.63 329.98 L229.17 326.36 L233.03 332.46 L237.00 338.08 L240.35 340.70 L242.95 340.49 L244.79 337.84 L245.83 333.09 L246.10 326.65 L245.78 319.27 L245.49 312.58 L246.18 308.79 L248.33 308.54 L251.33 310.08 L254.35 311.43 L256.90 311.68 L258.79 310.58 L259.99 308.22 L260.55 304.88 L260.71 301.03 L260.83 297.34 L261.38 294.51 L262.67 292.91 L264.62 292.29 L266.87 292.04 L269.03 291.60 L270.83 290.66 L272.17 289.12 L273.05 287.06 L273.61 284.68 L274.04 282.23 L274.60 280.00 L275.48 278.16 L276.74 276.74 L278.28 275.59 L279.90 274.51 L281.41 273.31 L282.70 271.89 L283.71 270.24 L284.48 268.41 L285.08 266.47 L285.66 264.55 L286.33 262.72 L287.16 261.03 L288.16 259.46 L289.27 257.97 L290.39 256.48 L291.45 254.95 L292.37 253.33 L293.13 251.62 L293.76 249.85 L294.31 248.05 L294.82 246.25 L295.37 244.47 L295.99 242.74 L296.66 241.03 L297.38 239.34 L298.10 237.66 L298.77 235.95 L299.36 234.21 L299.86 232.45 L300.29 230.66 L300.65 228.86 L300.97 227.05 L301.28 225.25 L301.61 223.46 L301.95 221.67 L302.30 219.88 L302.63 218.10 L302.94 216.30 L303.20 214.50 L303.40 212.70 L303.55 210.88 L303.64 209.07 L303.70 207.25 L303.73 205.44 L303.74 203.62 L303.74 201.81 L303.73 200.00 Z "></path><circle id="Q_TS" fill="#4da6ff" stroke-width="1" stroke="#4da6ff" r="4" cx="200" cy="95.34803078090049"><title>TS(90°)=-40.07</title></circle></g>
</svg>