<svg xmlns="http://www.w3.org/2000/svg" id="svg1" width="440" height="440" font-family="Times" font-size="14" oncopy="svg_copy(this);">
      <g id="gt" transform="translate(0,20)">
      </g>
   <path id="Xp" stroke="red" stroke-width="0.875" stroke-dasharray="1,0" fill="none" d="M220.00 220.00 L13188.54 1309.31 Z "></path><path id="Xn" stroke="red" stroke-width="0.875" stroke-dasharray="2,4" fill="none" d="M220.00 220.00 L-12748.54 -869.31 Z "></path><path id="Yp" stroke="green" stroke-width="0.875" stroke-dasharray="1,0" fill="none" d="M220.00 220.00 L220.00 -13579.34 Z "></path><path id="Yn" stroke="green" stroke-width="0.875" stroke-dasharray="2,4" fill="none" d="M220.00 220.00 L220.00 14019.34 Z "></path><path id="Zp" stroke="blue" stroke-width="0.875" stroke-dasharray="1,0" fill="none" d="M220.00 220.00 L-5263.01 2796.45 Z "></path><path id="Zn" stroke="blue" stroke-width="0.875" stroke-dasharray="2,4" fill="none" d="M220.00 220.00 L5703.01 -2356.45 Z "></path><circle id="O" fill="black" stroke-width="1" stroke="none" r="4" cx="220" cy="220"><title>[0,0,0]</title></circle><circle id="lambda_0" fill="#FFAA33" stroke-width="1" stroke="none" r="4" cx="472.5452291767069" cy="241.21280064442726"><title>λ/2=0.0195</title></circle><path id="B11" stroke="black" stroke-width="0.5" stroke-dasharray="1,0" fill="none" d="M74.23 417.34 L-139.32 517.68 L-139.32 -19.76 L74.23 -120.11 Z M579.32 459.76 L365.77 560.11 L365.77 22.66 L579.32 -77.68 Z M74.23 417.34 L579.32 459.76 Z M-139.32 517.68 L365.77 560.11 Z M-139.32 -19.76 L365.77 22.66 Z M74.23 -120.11 L579.32 -77.68 Z Z "></path><path id="B1" stroke="black" stroke-width="0.5" stroke-dasharray="2,4" fill="none" d="M242.59 431.48 L29.04 531.83 L29.04 -5.62 L242.59 -105.97 Z M410.96 445.62 L197.41 545.97 L197.41 8.52 L410.96 -91.83 Z M74.23 238.19 L-139.32 338.53 L365.77 380.96 L579.32 280.61 Z M74.23 59.04 L-139.32 159.39 L365.77 201.81 L579.32 101.47 Z M3.05 450.79 L3.05 -86.66 L508.14 -44.24 L508.14 493.21 Z M-68.14 484.24 L-68.14 -53.21 L436.95 -10.79 L436.95 526.66 Z "></path><path id="C1" stroke="green" stroke-width="1" stroke-dasharray="1,2" fill="none" d="M437.11 247.92 L437.08 243.50 L436.98 239.06 L436.81 234.62 L436.58 230.17 L436.28 225.73 L435.92 221.27 L435.49 216.82 L435.00 212.37 L434.44 207.93 L433.81 203.48 L433.12 199.04 L432.37 194.61 L431.55 190.19 L430.66 185.77 L429.71 181.37 L428.70 176.97 L427.62 172.59 L426.48 168.23 L425.28 163.88 L424.02 159.54 L422.69 155.23 L421.30 150.94 L419.85 146.66 L418.34 142.41 L416.77 138.18 L415.14 133.98 L413.45 129.80 L411.70 125.65 L409.89 121.53 L408.02 117.44 L406.10 113.38 L404.12 109.36 L402.08 105.36 L399.99 101.41 L397.85 97.48 L395.65 93.60 L393.39 89.75 L391.08 85.95 L388.73 82.18 L386.32 78.46 L383.85 74.78 L381.34 71.14 L378.78 67.55 L376.18 64.01 L373.52 60.51 L370.82 57.06 L368.07 53.66 L365.27 50.31 L362.44 47.02 L359.56 43.77 L356.63 40.58 L353.67 37.45 L350.66 34.37 L347.61 31.34 L344.53 28.38 L341.41 25.47 L338.25 22.62 L335.05 19.83 L331.82 17.11 L328.55 14.44 L325.26 11.84 L321.93 9.30 L318.57 6.83 L315.17 4.42 L311.75 2.07 L308.31 -0.21 L304.83 -2.42 L301.33 -4.56 L297.81 -6.64 L294.26 -8.64 L290.68 -10.58 L287.09 -12.44 L283.48 -14.24 L279.84 -15.96 L276.19 -17.61 L272.52 -19.19 L268.84 -20.70 L265.14 -22.13 L261.43 -23.49 L257.70 -24.78 L253.96 -25.99 L250.22 -27.13 L246.46 -28.19 L242.69 -29.17 L238.92 -30.08 L235.14 -30.91 L231.36 -31.67 L227.58 -32.35 L223.79 -32.95 L220.00 -33.48 L216.21 -33.93 L212.42 -34.30 L208.64 -34.59 L204.86 -34.81 L201.08 -34.95 L197.31 -35.01 L193.54 -34.99 L189.78 -34.90 L186.04 -34.73 L182.30 -34.48 L178.57 -34.15 L174.86 -33.75 L171.16 -33.26 L167.48 -32.71 L163.81 -32.07 L160.16 -31.36 L156.52 -30.57 L152.91 -29.70 L149.32 -28.76 L145.74 -27.74 L142.19 -26.65 L138.67 -25.48 L135.17 -24.24 L131.69 -22.92 L128.25 -21.53 L124.83 -20.07 L121.43 -18.53 L118.07 -16.92 L114.74 -15.24 L111.45 -13.48 L108.18 -11.66 L104.95 -9.76 L101.75 -7.79 L98.59 -5.76 L95.47 -3.65 L92.39 -1.48 L89.34 0.76 L86.33 3.06 L83.37 5.44 L80.44 7.87 L77.56 10.38 L74.73 12.94 L71.93 15.57 L69.18 18.27 L66.48 21.02 L63.82 23.83 L61.22 26.71 L58.66 29.64 L56.15 32.63 L53.68 35.68 L51.27 38.78 L48.92 41.94 L46.61 45.15 L44.35 48.42 L42.15 51.74 L40.01 55.11 L37.92 58.53 L35.88 62.00 L33.90 65.51 L31.98 69.08 L30.11 72.69 L28.30 76.34 L26.55 80.04 L24.86 83.78 L23.23 87.57 L21.66 91.39 L20.15 95.25 L18.70 99.15 L17.31 103.09 L15.98 107.07 L14.72 111.07 L13.52 115.11 L12.38 119.19 L11.30 123.29 L10.29 127.42 L9.34 131.58 L8.45 135.77 L7.63 139.99 L6.88 144.22 L6.19 148.48 L5.56 152.77 L5.00 157.07 L4.51 161.39 L4.08 165.73 L3.72 170.09 L3.42 174.46 L3.19 178.85 L3.02 183.25 L2.92 187.66 L2.89 192.08 L2.92 196.50 L3.02 200.94 L3.19 205.38 L3.42 209.83 L3.72 214.27 L4.08 218.73 L4.51 223.18 L5.00 227.63 L5.56 232.07 L6.19 236.52 L6.88 240.96 L7.63 245.39 L8.45 249.81 L9.34 254.23 L10.29 258.63 L11.30 263.03 L12.38 267.41 L13.52 271.77 L14.72 276.12 L15.98 280.46 L17.31 284.77 L18.70 289.06 L20.15 293.34 L21.66 297.59 L23.23 301.82 L24.86 306.02 L26.55 310.20 L28.30 314.35 L30.11 318.47 L31.98 322.56 L33.90 326.62 L35.88 330.64 L37.92 334.64 L40.01 338.59 L42.15 342.52 L44.35 346.40 L46.61 350.25 L48.92 354.05 L51.27 357.82 L53.68 361.54 L56.15 365.22 L58.66 368.86 L61.22 372.45 L63.82 375.99 L66.48 379.49 L69.18 382.94 L71.93 386.34 L74.73 389.69 L77.56 392.98 L80.44 396.23 L83.37 399.42 L86.33 402.55 L89.34 405.63 L92.39 408.66 L95.47 411.62 L98.59 414.53 L101.75 417.38 L104.95 420.17 L108.18 422.89 L111.45 425.56 L114.74 428.16 L118.07 430.70 L121.43 433.17 L124.83 435.58 L128.25 437.93 L131.69 440.21 L135.17 442.42 L138.67 444.56 L142.19 446.64 L145.74 448.64 L149.32 450.58 L152.91 452.44 L156.52 454.24 L160.16 455.96 L163.81 457.61 L167.48 459.19 L171.16 460.70 L174.86 462.13 L178.57 463.49 L182.30 464.78 L186.04 465.99 L189.78 467.13 L193.54 468.19 L197.31 469.17 L201.08 470.08 L204.86 470.91 L208.64 471.67 L212.42 472.35 L216.21 472.95 L220.00 473.48 L223.79 473.93 L227.58 474.30 L231.36 474.59 L235.14 474.81 L238.92 474.95 L242.69 475.01 L246.46 474.99 L250.22 474.90 L253.96 474.73 L257.70 474.48 L261.43 474.15 L265.14 473.75 L268.84 473.26 L272.52 472.71 L276.19 472.07 L279.84 471.36 L283.48 470.57 L287.09 469.70 L290.68 468.76 L294.26 467.74 L297.81 466.65 L301.33 465.48 L304.83 464.24 L308.31 462.92 L311.75 461.53 L315.17 460.07 L318.57 458.53 L321.93 456.92 L325.26 455.24 L328.55 453.48 L331.82 451.66 L335.05 449.76 L338.25 447.79 L341.41 445.76 L344.53 443.65 L347.61 441.48 L350.66 439.24 L353.67 436.94 L356.63 434.56 L359.56 432.13 L362.44 429.62 L365.27 427.06 L368.07 424.43 L370.82 421.73 L373.52 418.98 L376.18 416.17 L378.78 413.29 L381.34 410.36 L383.85 407.37 L386.32 404.32 L388.73 401.22 L391.08 398.06 L393.39 394.85 L395.65 391.58 L397.85 388.26 L399.99 384.89 L402.08 381.47 L404.12 378.00 L406.10 374.49 L408.02 370.92 L409.89 367.31 L411.70 363.66 L413.45 359.96 L415.14 356.22 L416.77 352.43 L418.34 348.61 L419.85 344.75 L421.30 340.85 L422.69 336.91 L424.02 332.93 L425.28 328.93 L426.48 324.89 L427.62 320.81 L428.70 316.71 L429.71 312.58 L430.66 308.42 L431.55 304.23 L432.37 300.01 L433.12 295.78 L433.81 291.52 L434.44 287.23 L435.00 282.93 L435.49 278.61 L435.92 274.27 L436.28 269.91 L436.58 265.54 L436.81 261.15 L436.98 256.75 L437.08 252.34 Z "></path><path id="C1h" stroke="green" stroke-width="1" stroke-dasharray="1,2" fill="none" d="M458.22 240.01 L456.42 240.83 L454.56 241.65 L452.62 242.46 L450.61 243.26 L448.53 244.06 L446.39 244.85 L444.17 245.63 L441.88 246.40 L439.53 247.17 L437.11 247.92 L434.62 248.67 L432.07 249.41 L429.46 250.14 L426.78 250.86 L424.03 251.58 L421.23 252.28 L418.36 252.97 L415.44 253.65 L412.45 254.33 L409.40 254.99 L406.30 255.64 L403.14 256.28 L399.93 256.91 L396.66 257.53 L393.33 258.14 L389.96 258.73 L386.53 259.31 L383.05 259.89 L379.52 260.45 L375.94 260.99 L372.32 261.53 L368.65 262.05 L364.93 262.56 L361.17 263.05 L357.37 263.54 L353.52 264.01 L349.64 264.46 L345.71 264.90 L341.75 265.33 L337.75 265.75 L333.71 266.15 L329.64 266.54 L325.53 266.91 L321.40 267.27 L317.23 267.61 L313.03 267.94 L308.80 268.26 L304.55 268.56 L300.27 268.85 L295.97 269.12 L291.64 269.37 L287.30 269.61 L282.93 269.84 L278.54 270.05 L274.13 270.24 L269.71 270.42 L265.27 270.59 L260.82 270.74 L256.36 270.87 L251.89 270.99 L247.40 271.09 L242.91 271.18 L238.41 271.25 L233.90 271.31 L229.39 271.35 L224.88 271.37 L220.37 271.38 L215.85 271.38 L211.34 271.35 L206.83 271.32 L202.33 271.26 L197.83 271.19 L193.33 271.11 L188.85 271.01 L184.37 270.89 L179.90 270.76 L175.45 270.61 L171.01 270.45 L166.59 270.28 L162.18 270.08 L157.79 269.87 L153.42 269.65 L149.07 269.41 L144.74 269.16 L140.43 268.89 L136.15 268.61 L131.89 268.31 L127.66 268.00 L123.46 267.67 L119.28 267.33 L115.14 266.97 L111.03 266.60 L106.95 266.21 L102.91 265.82 L98.90 265.40 L94.93 264.98 L91.00 264.54 L87.11 264.08 L83.26 263.61 L79.45 263.13 L75.68 262.64 L71.96 262.13 L68.28 261.61 L64.64 261.08 L61.06 260.54 L57.52 259.98 L54.04 259.41 L50.60 258.83 L47.21 258.23 L43.88 257.63 L40.60 257.01 L37.38 256.38 L34.21 255.75 L31.10 255.10 L28.04 254.44 L25.05 253.77 L22.11 253.08 L19.24 252.39 L16.42 251.69 L13.67 250.98 L10.98 250.26 L8.35 249.53 L5.79 248.79 L3.29 248.05 L0.86 247.29 L-1.50 246.53 L-3.80 245.75 L-6.03 244.97 L-8.19 244.19 L-10.28 243.39 L-12.30 242.59 L-14.25 241.78 L-16.12 240.97 L-17.93 240.14 L-19.66 239.32 L-21.32 238.48 L-22.91 237.64 L-24.42 236.80 L-25.86 235.95 L-27.23 235.09 L-28.51 234.23 L-29.73 233.37 L-30.86 232.50 L-31.92 231.63 L-32.91 230.75 L-33.81 229.88 L-34.64 228.99 L-35.39 228.11 L-36.07 227.22 L-36.66 226.33 L-37.18 225.44 L-37.62 224.55 L-37.98 223.66 L-38.26 222.76 L-38.46 221.87 L-38.59 220.97 L-38.63 220.07 L-38.60 219.18 L-38.49 218.28 L-38.30 217.38 L-38.03 216.49 L-37.68 215.59 L-37.26 214.70 L-36.75 213.81 L-36.17 212.92 L-35.51 212.03 L-34.77 211.15 L-33.95 210.27 L-33.06 209.39 L-32.09 208.51 L-31.04 207.64 L-29.92 206.77 L-28.72 205.91 L-27.44 205.05 L-26.09 204.19 L-24.66 203.34 L-23.16 202.49 L-21.59 201.65 L-19.94 200.82 L-18.22 199.99 L-16.42 199.17 L-14.56 198.35 L-12.62 197.54 L-10.61 196.74 L-8.53 195.94 L-6.39 195.15 L-4.17 194.37 L-1.88 193.60 L0.47 192.83 L2.89 192.08 L5.38 191.33 L7.93 190.59 L10.54 189.86 L13.22 189.14 L15.97 188.42 L18.77 187.72 L21.64 187.03 L24.56 186.35 L27.55 185.67 L30.60 185.01 L33.70 184.36 L36.86 183.72 L40.07 183.09 L43.34 182.47 L46.67 181.86 L50.04 181.27 L53.47 180.69 L56.95 180.11 L60.48 179.55 L64.06 179.01 L67.68 178.47 L71.35 177.95 L75.07 177.44 L78.83 176.95 L82.63 176.46 L86.48 175.99 L90.36 175.54 L94.29 175.10 L98.25 174.67 L102.25 174.25 L106.29 173.85 L110.36 173.46 L114.47 173.09 L118.60 172.73 L122.77 172.39 L126.97 172.06 L131.20 171.74 L135.45 171.44 L139.73 171.15 L144.03 170.88 L148.36 170.63 L152.70 170.39 L157.07 170.16 L161.46 169.95 L165.87 169.76 L170.29 169.58 L174.73 169.41 L179.18 169.26 L183.64 169.13 L188.11 169.01 L192.60 168.91 L197.09 168.82 L201.59 168.75 L206.10 168.69 L210.61 168.65 L215.12 168.63 L219.63 168.62 L224.15 168.62 L228.66 168.65 L233.17 168.68 L237.67 168.74 L242.17 168.81 L246.67 168.89 L251.15 168.99 L255.63 169.11 L260.10 169.24 L264.55 169.39 L268.99 169.55 L273.41 169.72 L277.82 169.92 L282.21 170.13 L286.58 170.35 L290.93 170.59 L295.26 170.84 L299.57 171.11 L303.85 171.39 L308.11 171.69 L312.34 172.00 L316.54 172.33 L320.72 172.67 L324.86 173.03 L328.97 173.40 L333.05 173.79 L337.09 174.18 L341.10 174.60 L345.07 175.02 L349.00 175.46 L352.89 175.92 L356.74 176.39 L360.55 176.87 L364.32 177.36 L368.04 177.87 L371.72 178.39 L375.36 178.92 L378.94 179.46 L382.48 180.02 L385.96 180.59 L389.40 181.17 L392.79 181.77 L396.12 182.37 L399.40 182.99 L402.62 183.62 L405.79 184.25 L408.90 184.90 L411.96 185.56 L414.95 186.23 L417.89 186.92 L420.76 187.61 L423.58 188.31 L426.33 189.02 L429.02 189.74 L431.65 190.47 L434.21 191.21 L436.71 191.95 L439.14 192.71 L441.50 193.47 L443.80 194.25 L446.03 195.03 L448.19 195.81 L450.28 196.61 L452.30 197.41 L454.25 198.22 L456.12 199.03 L457.93 199.86 L459.66 200.68 L461.32 201.52 L462.91 202.36 L464.42 203.20 L465.86 204.05 L467.23 204.91 L468.51 205.77 L469.73 206.63 L470.86 207.50 L471.92 208.37 L472.91 209.25 L473.81 210.12 L474.64 211.01 L475.39 211.89 L476.07 212.78 L476.66 213.67 L477.18 214.56 L477.62 215.45 L477.98 216.34 L478.26 217.24 L478.46 218.13 L478.59 219.03 L478.63 219.93 L478.60 220.82 L478.49 221.72 L478.30 222.62 L478.03 223.51 L477.68 224.41 L477.26 225.30 L476.75 226.19 L476.17 227.08 L475.51 227.97 L474.77 228.85 L473.95 229.73 L473.06 230.61 L472.09 231.49 L471.04 232.36 L469.92 233.23 L468.72 234.09 L467.44 234.95 L466.09 235.81 L464.66 236.66 L463.16 237.51 L461.59 238.35 L459.94 239.18 Z "></path><path id="C2" stroke="green" stroke-width="1" stroke-dasharray="1,1" fill="none" d="M437.11 247.92 L430.60 247.09 Z M429.71 181.37 L423.42 182.53 Z M408.02 117.44 L402.38 120.52 Z M373.52 60.51 L368.91 65.29 Z M328.55 14.44 L325.30 20.61 Z M276.19 -17.61 L274.51 -10.49 Z M220.00 -33.48 L220.00 -25.87 Z M163.81 -32.07 L165.49 -24.51 Z M111.45 -13.48 L114.70 -6.48 Z M66.48 21.02 L71.09 26.99 Z M31.98 69.08 L37.62 73.61 Z M10.29 127.42 L16.58 130.20 Z M2.89 192.08 L9.40 192.91 Z M10.29 258.63 L16.58 257.47 Z M31.98 322.56 L37.62 319.48 Z M66.48 379.49 L71.09 374.71 Z M111.45 425.56 L114.70 419.39 Z M163.81 457.61 L165.49 450.49 Z M220.00 473.48 L220.00 465.87 Z M276.19 472.07 L274.51 464.51 Z M328.55 453.48 L325.30 446.48 Z M373.52 418.98 L368.91 413.01 Z M408.02 370.92 L402.38 366.39 Z M429.71 312.58 L423.42 309.80 Z "></path><path id="C2h" stroke="green" stroke-width="1" stroke-dasharray="1,1" fill="none" d="M458.22 240.01 L451.07 239.41 Z M424.03 251.58 L417.91 250.63 Z M375.94 260.99 L371.27 259.76 Z M317.23 267.61 L314.31 266.19 Z M251.89 270.99 L250.93 269.46 Z M184.37 270.89 L185.44 269.37 Z M119.28 267.33 L122.30 265.91 Z M61.06 260.54 L65.83 259.32 Z M13.67 250.98 L19.86 250.05 Z M-19.66 239.32 L-12.47 238.74 Z M-36.66 226.33 L-28.96 226.14 Z M-36.17 212.92 L-28.48 213.13 Z M-18.22 199.99 L-11.07 200.59 Z M15.97 188.42 L22.09 189.37 Z M64.06 179.01 L68.73 180.24 Z M122.77 172.39 L125.69 173.81 Z M188.11 169.01 L189.07 170.54 Z M255.63 169.11 L254.56 170.63 Z M320.72 172.67 L317.70 174.09 Z M378.94 179.46 L374.17 180.68 Z M426.33 189.02 L420.14 189.95 Z M459.66 200.68 L452.47 201.26 Z M476.66 213.67 L468.96 213.86 Z M476.17 227.08 L468.48 226.87 Z "></path><circle id="th_xy" fill="green" stroke-width="1" stroke="none" r="4" cx="6.188529164555803" cy="148.48443635342846"><title>θ=-10 Φ=-10</title></circle><path id="M" stroke="#0b22ae" stroke-width="0.5" stroke-dasharray="1,0" fill="none" d="M220.00 265.76 L212.32 265.68 L223.17 263.72 Z M212.32 265.68 L215.53 263.41 L223.17 263.72 Z M212.32 265.68 L204.52 263.97 L215.53 263.41 Z M204.52 263.97 L207.72 261.55 L215.53 263.41 Z M204.52 263.97 L196.71 260.96 L207.72 261.55 Z M196.71 260.96 L199.68 258.91 L207.72 261.55 Z M196.71 260.96 L184.28 262.30 L199.68 258.91 Z M184.28 262.30 L187.01 260.64 L199.68 258.91 Z M184.28 262.30 L162.16 266.78 L187.01 260.64 Z M162.16 266.78 L165.19 264.76 L187.01 260.64 Z M162.16 266.78 L131.80 266.78 L165.19 264.76 Z M131.80 266.78 L134.78 264.60 L165.19 264.76 Z M131.80 266.78 L91.08 259.10 L134.78 264.60 Z M91.08 259.10 L93.77 256.95 L134.78 264.60 Z M91.08 259.10 L63.60 236.20 L93.77 256.95 Z M63.60 236.20 L65.66 234.81 L93.77 256.95 Z M63.60 236.20 L86.42 208.78 L65.66 234.81 Z M86.42 208.78 L86.42 208.78 L65.66 234.81 Z M144.83 199.58 L142.94 200.01 L86.42 208.78 Z M144.83 199.58 L177.01 199.73 L142.94 200.01 Z M177.01 199.73 L175.64 200.44 L142.94 200.01 Z M177.01 199.73 L179.38 191.63 L175.64 200.44 Z M179.38 191.63 L177.83 192.93 L175.64 200.44 Z M179.38 191.63 L189.24 189.94 L177.83 192.93 Z M189.24 189.94 L186.94 190.91 L177.83 192.93 Z M189.24 189.94 L200.27 193.32 L186.94 190.91 Z M200.27 193.32 L198.01 193.88 L186.94 190.91 Z M200.27 193.32 L207.58 196.08 L198.01 193.88 Z M207.58 196.08 L205.63 196.55 L198.01 193.88 Z M207.58 196.08 L212.65 197.90 L205.63 196.55 Z M212.65 197.90 L210.93 198.36 L205.63 196.55 Z M212.65 197.90 L216.62 199.28 L210.93 198.36 Z M216.62 199.28 L215.08 199.74 L210.93 198.36 Z M216.62 199.28 L220.00 200.27 L215.08 199.74 Z M220.00 200.27 L218.61 200.85 L215.08 199.74 Z M220.00 200.27 L223.07 201.71 L218.61 200.85 Z M223.07 201.71 L221.81 202.47 L218.61 200.85 Z M223.07 201.71 L225.60 204.09 L221.81 202.47 Z M225.60 204.09 L224.53 204.66 L221.81 202.47 Z M225.60 204.09 L230.40 201.69 L224.53 204.66 Z M230.40 201.69 L229.61 201.59 L224.53 204.66 Z M230.40 201.69 L245.06 190.34 L229.61 201.59 Z M245.06 190.34 L244.01 190.42 L229.61 201.59 Z M245.06 190.34 L272.76 177.32 L244.01 190.42 Z M272.76 177.32 L271.26 178.15 L244.01 190.42 Z M272.76 177.32 L315.60 169.29 L271.26 178.15 Z M315.60 169.29 L313.28 171.18 L271.26 178.15 Z M315.60 169.29 L357.62 178.27 L313.28 171.18 Z M357.62 178.27 L354.46 180.64 L313.28 171.18 Z M357.62 178.27 L361.01 205.39 L354.46 180.64 Z M361.01 205.39 L358.75 206.69 L354.46 180.64 Z M361.01 205.39 L323.10 228.66 L358.75 206.69 Z M323.10 228.66 L323.10 228.66 L358.75 206.69 Z M303.80 242.76 L304.78 241.99 L323.10 228.66 Z M303.80 242.76 L302.86 259.04 L304.78 241.99 Z M302.86 259.04 L304.97 257.49 L304.78 241.99 Z M302.86 259.04 L284.97 265.37 L304.97 257.49 Z M284.97 265.37 L288.24 263.80 L304.97 257.49 Z M284.97 265.37 L265.47 264.42 L288.24 263.80 Z M265.47 264.42 L268.57 262.76 L288.24 263.80 Z M265.47 264.42 L253.74 265.63 L268.57 262.76 Z M253.74 265.63 L256.60 263.48 L268.57 262.76 Z M253.74 265.63 L244.30 266.85 L256.60 263.48 Z M244.30 266.85 L247.35 264.62 L256.60 263.48 Z M244.30 266.85 L235.43 266.42 L247.35 264.62 Z M235.43 266.42 L238.59 264.39 L247.35 264.62 Z M235.43 266.42 L227.48 265.81 L238.59 264.39 Z M227.48 265.81 L230.65 263.86 L238.59 264.39 Z M227.48 265.81 L220.00 265.76 L230.65 263.86 Z M220.00 265.76 L223.17 263.72 L230.65 263.86 Z M223.17 263.72 L215.53 263.41 L226.25 260.26 Z M215.53 263.41 L218.64 259.42 L226.25 260.26 Z M215.53 263.41 L207.72 261.55 L218.64 259.42 Z M207.72 261.55 L210.90 257.38 L218.64 259.42 Z M207.72 261.55 L199.68 258.91 L210.90 257.38 Z M199.68 258.91 L202.41 255.90 L210.90 257.38 Z M199.68 258.91 L187.01 260.64 L202.41 255.90 Z M187.01 260.64 L188.94 258.53 L202.41 255.90 Z M187.01 260.64 L165.19 264.76 L188.94 258.53 Z M165.19 264.76 L167.20 261.95 L188.94 258.53 Z M165.19 264.76 L134.78 264.60 L167.20 261.95 Z M134.78 264.60 L136.18 261.53 L167.20 261.95 Z M134.78 264.60 L93.77 256.95 L136.18 261.53 Z M93.77 256.95 L95.01 253.66 L136.18 261.53 Z M93.77 256.95 L65.66 234.81 L95.01 253.66 Z M65.66 234.81 L67.76 232.55 L95.01 253.66 Z M65.66 234.81 L86.42 208.78 L67.76 232.55 Z M86.42 208.78 L86.42 208.78 L67.76 232.55 Z M142.94 200.01 L139.25 200.45 L86.42 208.78 Z M142.94 200.01 L175.64 200.44 L139.25 200.45 Z M175.64 200.44 L173.52 201.31 L139.25 200.45 Z M175.64 200.44 L177.83 192.93 L173.52 201.31 Z M177.83 192.93 L176.79 195.20 L173.52 201.31 Z M177.83 192.93 L186.94 190.91 L176.79 195.20 Z M186.94 190.91 L184.16 192.31 L176.79 195.20 Z M186.94 190.91 L198.01 193.88 L184.16 192.31 Z M198.01 193.88 L194.73 194.24 L184.16 192.31 Z M198.01 193.88 L205.63 196.55 L194.73 194.24 Z M205.63 196.55 L202.86 196.73 L194.73 194.24 Z M205.63 196.55 L210.93 198.36 L202.86 196.73 Z M210.93 198.36 L208.68 198.59 L202.86 196.73 Z M210.93 198.36 L215.08 199.74 L208.68 198.59 Z M215.08 199.74 L213.25 200.10 L208.68 198.59 Z M215.08 199.74 L218.61 200.85 L213.25 200.10 Z M218.61 200.85 L217.14 201.61 L213.25 200.10 Z M218.61 200.85 L221.81 202.47 L217.14 201.61 Z M221.81 202.47 L220.56 203.65 L217.14 201.61 Z M221.81 202.47 L224.53 204.66 L220.56 203.65 Z M224.53 204.66 L223.66 204.94 L220.56 203.65 Z M224.53 204.66 L229.61 201.59 L223.66 204.94 Z M229.61 201.59 L229.90 199.78 L223.66 204.94 Z M229.61 201.59 L244.01 190.42 L229.90 199.78 Z M244.01 190.42 L245.22 188.71 L229.90 199.78 Z M244.01 190.42 L271.26 178.15 L245.22 188.71 Z M271.26 178.15 L273.08 177.83 L245.22 188.71 Z M271.26 178.15 L313.28 171.18 L273.08 177.83 Z M313.28 171.18 L314.06 173.41 L273.08 177.83 Z M313.28 171.18 L354.46 180.64 L314.06 173.41 Z M354.46 180.64 L352.13 184.41 L314.06 173.41 Z M354.46 180.64 L358.75 206.69 L352.13 184.41 Z M358.75 206.69 L355.64 208.82 L352.13 184.41 Z M358.75 206.69 L323.10 228.66 L355.64 208.82 Z M323.10 228.66 L323.10 228.66 L355.64 208.82 Z M304.78 241.99 L305.61 240.74 L323.10 228.66 Z M304.78 241.99 L304.97 257.49 L305.61 240.74 Z M304.97 257.49 L306.78 254.89 L305.61 240.74 Z M304.97 257.49 L288.24 263.80 L306.78 254.89 Z M288.24 263.80 L292.45 261.59 L306.78 254.89 Z M288.24 263.80 L268.57 262.76 L292.45 261.59 Z M268.57 262.76 L272.55 260.59 L292.45 261.59 Z M268.57 262.76 L256.60 263.48 L272.55 260.59 Z M256.60 263.48 L259.35 260.09 L272.55 260.59 Z M256.60 263.48 L247.35 264.62 L259.35 260.09 Z M247.35 264.62 L250.08 260.85 L259.35 260.09 Z M247.35 264.62 L238.59 264.39 L250.08 260.85 Z M238.59 264.39 L241.64 260.95 L250.08 260.85 Z M238.59 264.39 L230.65 263.86 L241.64 260.95 Z M230.65 263.86 L233.76 260.61 L241.64 260.95 Z M230.65 263.86 L223.17 263.72 L233.76 260.61 Z M223.17 263.72 L226.25 260.26 L233.76 260.61 Z M226.25 260.26 L218.64 259.42 L228.97 254.89 Z M218.64 259.42 L221.47 253.74 L228.97 254.89 Z M218.64 259.42 L210.90 257.38 L221.47 253.74 Z M210.90 257.38 L213.77 252.33 L221.47 253.74 Z M210.90 257.38 L202.41 255.90 L213.77 252.33 Z M202.41 255.90 L204.55 252.66 L213.77 252.33 Z M202.41 255.90 L188.94 258.53 L204.55 252.66 Z M188.94 258.53 L190.19 255.68 L204.55 252.66 Z M188.94 258.53 L167.20 261.95 L190.19 255.68 Z M167.20 261.95 L168.19 258.16 L190.19 255.68 Z M167.20 261.95 L136.18 261.53 L168.19 258.16 Z M136.18 261.53 L135.78 257.47 L168.19 258.16 Z M136.18 261.53 L95.01 253.66 L135.78 257.47 Z M95.01 253.66 L95.03 249.15 L135.78 257.47 Z M95.01 253.66 L67.76 232.55 L95.03 249.15 Z M67.76 232.55 L70.02 229.49 L95.03 249.15 Z M67.76 232.55 L86.42 208.78 L70.02 229.49 Z M86.42 208.78 L86.42 208.78 L70.02 229.49 Z M139.25 200.45 L133.69 200.95 L86.42 208.78 Z M139.25 200.45 L173.52 201.31 L133.69 200.95 Z M173.52 201.31 L169.43 202.01 L133.69 200.95 Z M173.52 201.31 L176.79 195.20 L169.43 202.01 Z M176.79 195.20 L176.24 198.22 L169.43 202.01 Z M176.79 195.20 L184.16 192.31 L176.24 198.22 Z M184.16 192.31 L181.73 194.85 L176.24 198.22 Z M184.16 192.31 L194.73 194.24 L181.73 194.85 Z M194.73 194.24 L191.00 195.35 L181.73 194.85 Z M194.73 194.24 L202.86 196.73 L191.00 195.35 Z M202.86 196.73 L199.43 197.30 L191.00 195.35 Z M202.86 196.73 L208.68 198.59 L199.43 197.30 Z M208.68 198.59 L205.99 199.24 L199.43 197.30 Z M208.68 198.59 L213.25 200.10 L205.99 199.24 Z M213.25 200.10 L211.24 201.09 L205.99 199.24 Z M213.25 200.10 L217.14 201.61 L211.24 201.09 Z M217.14 201.61 L215.66 203.09 L211.24 201.09 Z M217.14 201.61 L220.56 203.65 L215.66 203.09 Z M220.56 203.65 L219.35 204.87 L215.66 203.09 Z M220.56 203.65 L223.66 204.94 L219.35 204.87 Z M223.66 204.94 L223.20 203.40 L219.35 204.87 Z M223.66 204.94 L229.90 199.78 L223.20 203.40 Z M229.90 199.78 L231.41 195.86 L223.20 203.40 Z M229.90 199.78 L245.22 188.71 L231.41 195.86 Z M245.22 188.71 L248.77 185.55 L231.41 195.86 Z M245.22 188.71 L273.08 177.83 L248.77 185.55 Z M273.08 177.83 L277.90 177.35 L248.77 185.55 Z M273.08 177.83 L314.06 173.41 L277.90 177.35 Z M314.06 173.41 L317.00 176.83 L277.90 177.35 Z M314.06 173.41 L352.13 184.41 L317.00 176.83 Z M352.13 184.41 L349.98 189.68 L317.00 176.83 Z M352.13 184.41 L355.64 208.82 L349.98 189.68 Z M355.64 208.82 L351.67 211.67 L349.98 189.68 Z M355.64 208.82 L323.10 228.66 L351.67 211.67 Z M323.10 228.66 L323.10 228.66 L351.67 211.67 Z M305.61 240.74 L306.37 239.07 L323.10 228.66 Z M305.61 240.74 L306.78 254.89 L306.37 239.07 Z M306.78 254.89 L307.84 251.25 L306.37 239.07 Z M306.78 254.89 L292.45 261.59 L307.84 251.25 Z M292.45 261.59 L297.12 258.40 L307.84 251.25 Z M292.45 261.59 L272.55 260.59 L297.12 258.40 Z M272.55 260.59 L277.99 258.12 L297.12 258.40 Z M272.55 260.59 L259.35 260.09 L277.99 258.12 Z M259.35 260.09 L262.72 256.29 L277.99 258.12 Z M259.35 260.09 L250.08 260.85 L262.72 256.29 Z M250.08 260.85 L252.46 255.83 L262.72 256.29 Z M250.08 260.85 L241.64 260.95 L252.46 255.83 Z M241.64 260.95 L244.13 255.77 L252.46 255.83 Z M241.64 260.95 L233.76 260.61 L244.13 255.77 Z M233.76 260.61 L236.43 255.48 L244.13 255.77 Z M233.76 260.61 L226.25 260.26 L236.43 255.48 Z M226.25 260.26 L228.97 254.89 L236.43 255.48 Z M228.97 254.89 L221.47 253.74 L231.31 248.62 Z M221.47 253.74 L223.95 247.90 L231.31 248.62 Z M221.47 253.74 L213.77 252.33 L223.95 247.90 Z M213.77 252.33 L216.11 247.75 L223.95 247.90 Z M213.77 252.33 L204.55 252.66 L216.11 247.75 Z M204.55 252.66 L206.06 249.14 L216.11 247.75 Z M204.55 252.66 L190.19 255.68 L206.06 249.14 Z M190.19 255.68 L190.97 251.56 L206.06 249.14 Z M190.19 255.68 L168.19 258.16 L190.97 251.56 Z M168.19 258.16 L167.72 253.38 L190.97 251.56 Z M168.19 258.16 L135.78 257.47 L167.72 253.38 Z M135.78 257.47 L133.34 252.16 L167.72 253.38 Z M135.78 257.47 L95.03 249.15 L133.34 252.16 Z M95.03 249.15 L94.27 243.19 L133.34 252.16 Z M95.03 249.15 L70.02 229.49 L94.27 243.19 Z M70.02 229.49 L72.61 225.76 L94.27 243.19 Z M70.02 229.49 L86.42 208.78 L72.61 225.76 Z M86.42 208.78 L86.42 208.78 L72.61 225.76 Z M133.69 200.95 L126.38 201.67 L86.42 208.78 Z M133.69 200.95 L169.43 202.01 L126.38 201.67 Z M169.43 202.01 L161.64 202.25 L126.38 201.67 Z M169.43 202.01 L176.24 198.22 L161.64 202.25 Z M176.24 198.22 L174.57 201.12 L161.64 202.25 Z M176.24 198.22 L181.73 194.85 L174.57 201.12 Z M181.73 194.85 L180.23 198.60 L174.57 201.12 Z M181.73 194.85 L191.00 195.35 L180.23 198.60 Z M191.00 195.35 L188.00 198.16 L180.23 198.60 Z M191.00 195.35 L199.43 197.30 L188.00 198.16 Z M199.43 197.30 L196.20 199.38 L188.00 198.16 Z M199.43 197.30 L205.99 199.24 L196.20 199.38 Z M205.99 199.24 L203.33 201.18 L196.20 199.38 Z M205.99 199.24 L211.24 201.09 L203.33 201.18 Z M211.24 201.09 L209.19 203.05 L203.33 201.18 Z M211.24 201.09 L215.66 203.09 L209.19 203.05 Z M215.66 203.09 L213.82 204.36 L209.19 203.05 Z M215.66 203.09 L219.35 204.87 L213.82 204.36 Z M219.35 204.87 L217.64 203.34 L213.82 204.36 Z M219.35 204.87 L223.20 203.40 L217.64 203.34 Z M223.20 203.40 L223.06 198.22 L217.64 203.34 Z M223.20 203.40 L231.41 195.86 L223.06 198.22 Z M231.41 195.86 L234.28 190.12 L223.06 198.22 Z M231.41 195.86 L248.77 185.55 L234.28 190.12 Z M248.77 185.55 L254.59 182.39 L234.28 190.12 Z M248.77 185.55 L277.90 177.35 L254.59 182.39 Z M277.90 177.35 L284.82 178.62 L254.59 182.39 Z M277.90 177.35 L317.00 176.83 L284.82 178.62 Z M317.00 176.83 L320.49 182.71 L284.82 178.62 Z M317.00 176.83 L349.98 189.68 L320.49 182.71 Z M349.98 189.68 L347.01 196.57 L320.49 182.71 Z M349.98 189.68 L351.67 211.67 L347.01 196.57 Z M351.67 211.67 L346.80 215.05 L347.01 196.57 Z M351.67 211.67 L323.10 228.66 L346.80 215.05 Z M323.10 228.66 L323.10 228.66 L346.80 215.05 Z M306.37 239.07 L307.33 237.10 L323.10 228.66 Z M306.37 239.07 L307.84 251.25 L307.33 237.10 Z M307.84 251.25 L307.77 246.69 L307.33 237.10 Z M307.84 251.25 L297.12 258.40 L307.77 246.69 Z M297.12 258.40 L301.04 253.68 L307.77 246.69 Z M297.12 258.40 L277.99 258.12 L301.04 253.68 Z M277.99 258.12 L284.75 254.85 L301.04 253.68 Z M277.99 258.12 L262.72 256.29 L284.75 254.85 Z M262.72 256.29 L268.21 252.90 L284.75 254.85 Z M262.72 256.29 L252.46 255.83 L268.21 252.90 Z M252.46 255.83 L255.80 251.03 L268.21 252.90 Z M252.46 255.83 L244.13 255.77 L255.80 251.03 Z M244.13 255.77 L246.55 249.99 L255.80 251.03 Z M244.13 255.77 L236.43 255.48 L246.55 249.99 Z M236.43 255.48 L238.69 249.30 L246.55 249.99 Z M236.43 255.48 L228.97 254.89 L238.69 249.30 Z M228.97 254.89 L231.31 248.62 L238.69 249.30 Z M231.31 248.62 L223.95 247.90 L234.23 243.36 Z M223.95 247.90 L226.53 242.86 L234.23 243.36 Z M223.95 247.90 L216.11 247.75 L226.53 242.86 Z M216.11 247.75 L218.17 243.00 L226.53 242.86 Z M216.11 247.75 L206.06 249.14 L218.17 243.00 Z M206.06 249.14 L207.33 244.16 L218.17 243.00 Z M206.06 249.14 L190.97 251.56 L207.33 244.16 Z M190.97 251.56 L190.81 246.15 L207.33 244.16 Z M190.97 251.56 L167.72 253.38 L190.81 246.15 Z M167.72 253.38 L164.77 247.47 L190.81 246.15 Z M167.72 253.38 L133.34 252.16 L164.77 247.47 Z M133.34 252.16 L129.05 244.95 L164.77 247.47 Z M133.34 252.16 L94.27 243.19 L129.05 244.95 Z M94.27 243.19 L93.53 235.70 L129.05 244.95 Z M94.27 243.19 L72.61 225.76 L93.53 235.70 Z M72.61 225.76 L75.76 221.50 L93.53 235.70 Z M72.61 225.76 L86.42 208.78 L75.76 221.50 Z M86.42 208.78 L86.42 208.78 L75.76 221.50 Z M126.38 201.67 L117.54 202.77 L86.42 208.78 Z M126.38 201.67 L161.64 202.25 L117.54 202.77 Z M161.64 202.25 L148.76 202.31 L117.54 202.77 Z M161.64 202.25 L174.57 201.12 L148.76 202.31 Z M174.57 201.12 L166.82 202.48 L148.76 202.31 Z M174.57 201.12 L180.23 198.60 L166.82 202.48 Z M180.23 198.60 L176.10 201.69 L166.82 202.48 Z M180.23 198.60 L188.00 198.16 L176.10 201.69 Z M188.00 198.16 L183.98 201.35 L176.10 201.69 Z M188.00 198.16 L196.20 199.38 L183.98 201.35 Z M196.20 199.38 L191.77 201.82 L183.98 201.35 Z M196.20 199.38 L203.33 201.18 L191.77 201.82 Z M203.33 201.18 L198.59 202.49 L191.77 201.82 Z M203.33 201.18 L209.19 203.05 L198.59 202.49 Z M209.19 203.05 L203.93 202.46 L198.59 202.49 Z M209.19 203.05 L213.82 204.36 L203.93 202.46 Z M213.82 204.36 L208.22 200.67 L203.93 202.46 Z M213.82 204.36 L217.64 203.34 L208.22 200.67 Z M217.64 203.34 L213.34 196.64 L208.22 200.67 Z M217.64 203.34 L223.06 198.22 L213.34 196.64 Z M223.06 198.22 L222.32 191.04 L213.34 196.64 Z M223.06 198.22 L234.28 190.12 L222.32 191.04 Z M234.28 190.12 L238.01 185.65 L222.32 191.04 Z M234.28 190.12 L254.59 182.39 L238.01 185.65 Z M254.59 182.39 L261.64 182.72 L238.01 185.65 Z M254.59 182.39 L284.82 178.62 L261.64 182.72 Z M284.82 178.62 L291.73 184.33 L261.64 182.72 Z M284.82 178.62 L320.49 182.71 L291.73 184.33 Z M320.49 182.71 L322.33 191.93 L291.73 184.33 Z M320.49 182.71 L347.01 196.57 L322.33 191.93 Z M347.01 196.57 L342.19 204.82 L322.33 191.93 Z M347.01 196.57 L346.80 215.05 L342.19 204.82 Z M346.80 215.05 L341.03 218.74 L342.19 204.82 Z M346.80 215.05 L323.10 228.66 L341.03 218.74 Z M323.10 228.66 L323.10 228.66 L341.03 218.74 Z M307.33 237.10 L308.88 234.95 L323.10 228.66 Z M307.33 237.10 L307.77 246.69 L308.88 234.95 Z M307.77 246.69 L306.62 241.51 L308.88 234.95 Z M307.77 246.69 L301.04 253.68 L306.62 241.51 Z M301.04 253.68 L302.45 247.16 L306.62 241.51 Z M301.04 253.68 L284.75 254.85 L302.45 247.16 Z M284.75 254.85 L290.58 249.42 L302.45 247.16 Z M284.75 254.85 L268.21 252.90 L290.58 249.42 Z M268.21 252.90 L275.52 248.75 L290.58 249.42 Z M268.21 252.90 L255.80 251.03 L275.52 248.75 Z M255.80 251.03 L261.93 247.00 L275.52 248.75 Z M255.80 251.03 L246.55 249.99 L261.93 247.00 Z M246.55 249.99 L251.05 245.38 L261.93 247.00 Z M246.55 249.99 L238.69 249.30 L251.05 245.38 Z M238.69 249.30 L242.15 244.19 L251.05 245.38 Z M238.69 249.30 L231.31 248.62 L242.15 244.19 Z M231.31 248.62 L234.23 243.36 L242.15 244.19 Z M234.23 243.36 L226.53 242.86 L237.21 236.92 Z M226.53 242.86 L228.97 236.30 L237.21 236.92 Z M226.53 242.86 L218.17 243.00 L228.97 236.30 Z M218.17 243.00 L220.10 236.62 L228.97 236.30 Z M218.17 243.00 L207.33 244.16 L220.10 236.62 Z M207.33 244.16 L207.77 238.01 L220.10 236.62 Z M207.33 244.16 L190.81 246.15 L207.77 238.01 Z M190.81 246.15 L188.03 239.57 L207.77 238.01 Z M190.81 246.15 L164.77 247.47 L188.03 239.57 Z M164.77 247.47 L158.93 239.23 L188.03 239.57 Z M164.77 247.47 L129.05 244.95 L158.93 239.23 Z M129.05 244.95 L124.15 235.06 L158.93 239.23 Z M129.05 244.95 L93.53 235.70 L124.15 235.06 Z M93.53 235.70 L93.85 226.84 L124.15 235.06 Z M93.53 235.70 L75.76 221.50 L93.85 226.84 Z M75.76 221.50 L79.70 216.93 L93.85 226.84 Z M75.76 221.50 L86.42 208.78 L79.70 216.93 Z M86.42 208.78 L86.42 208.78 L79.70 216.93 Z M117.54 202.77 L107.62 204.43 L86.42 208.78 Z M117.54 202.77 L148.76 202.31 L107.62 204.43 Z M148.76 202.31 L131.01 203.12 L107.62 204.43 Z M148.76 202.31 L166.82 202.48 L131.01 203.12 Z M166.82 202.48 L148.36 202.73 L131.01 203.12 Z M166.82 202.48 L176.10 201.69 L148.36 202.73 Z M176.10 201.69 L159.70 202.20 L148.36 202.73 Z M176.10 201.69 L183.98 201.35 L159.70 202.20 Z M183.98 201.35 L168.16 201.49 L159.70 202.20 Z M183.98 201.35 L191.77 201.82 L168.16 201.49 Z M191.77 201.82 L175.28 200.64 L168.16 201.49 Z M191.77 201.82 L198.59 202.49 L175.28 200.64 Z M198.59 202.49 L181.42 199.35 L175.28 200.64 Z M198.59 202.49 L203.93 202.46 L181.42 199.35 Z M203.93 202.46 L187.23 197.36 L181.42 199.35 Z M203.93 202.46 L208.22 200.67 L187.23 197.36 Z M208.22 200.67 L194.24 194.67 L187.23 197.36 Z M208.22 200.67 L213.34 196.64 L194.24 194.67 Z M213.34 196.64 L204.47 191.76 L194.24 194.67 Z M213.34 196.64 L222.32 191.04 L204.47 191.76 Z M222.32 191.04 L219.79 189.52 L204.47 191.76 Z M222.32 191.04 L238.01 185.65 L219.79 189.52 Z M238.01 185.65 L241.01 189.01 L219.79 189.52 Z M238.01 185.65 L261.64 182.72 L241.01 189.01 Z M261.64 182.72 L267.20 191.12 L241.01 189.01 Z M261.64 182.72 L291.73 184.33 L267.20 191.12 Z M291.73 184.33 L295.35 196.28 L267.20 191.12 Z M291.73 184.33 L322.33 191.93 L295.35 196.28 Z M322.33 191.93 L320.16 204.27 L295.35 196.28 Z M322.33 191.93 L342.19 204.82 L320.16 204.27 Z M342.19 204.82 L334.70 213.78 L320.16 204.27 Z M342.19 204.82 L341.03 218.74 L334.70 213.78 Z M341.03 218.74 L334.46 222.51 L334.70 213.78 Z M341.03 218.74 L323.10 228.66 L334.46 222.51 Z M323.10 228.66 L323.10 228.66 L334.46 222.51 Z M308.88 234.95 L311.50 232.67 L323.10 228.66 Z M308.88 234.95 L306.62 241.51 L311.50 232.67 Z M306.62 241.51 L305.62 236.24 L311.50 232.67 Z M306.62 241.51 L302.45 247.16 L305.62 236.24 Z M302.45 247.16 L300.61 239.41 L305.62 236.24 Z M302.45 247.16 L290.58 249.42 L300.61 239.41 Z M290.58 249.42 L291.78 241.19 L300.61 239.41 Z M290.58 249.42 L275.52 248.75 L291.78 241.19 Z M275.52 248.75 L279.81 241.37 L291.78 241.19 Z M275.52 248.75 L261.93 247.00 L279.81 241.37 Z M261.93 247.00 L267.33 240.49 L279.81 241.37 Z M261.93 247.00 L251.05 245.38 L267.33 240.49 Z M251.05 245.38 L255.96 239.24 L267.33 240.49 Z M251.05 245.38 L242.15 244.19 L255.96 239.24 Z M242.15 244.19 L246.02 237.97 L255.96 239.24 Z M242.15 244.19 L234.23 243.36 L246.02 237.97 Z M234.23 243.36 L237.21 236.92 L246.02 237.97 Z M237.21 236.92 L228.97 236.30 L239.84 228.85 Z M228.97 236.30 L232.31 229.05 L239.84 228.85 Z M228.97 236.30 L220.10 236.62 L232.31 229.05 Z M220.10 236.62 L222.19 229.61 L232.31 229.05 Z M220.10 236.62 L207.77 238.01 L222.19 229.61 Z M207.77 238.01 L206.12 229.92 L222.19 229.61 Z M207.77 238.01 L188.03 239.57 L206.12 229.92 Z M188.03 239.57 L182.27 229.12 L206.12 229.92 Z M188.03 239.57 L158.93 239.23 L182.27 229.12 Z M158.93 239.23 L152.09 226.59 L182.27 229.12 Z M158.93 239.23 L124.15 235.06 L152.09 226.59 Z M124.15 235.06 L120.94 222.35 L152.09 226.59 Z M124.15 235.06 L93.85 226.84 L120.94 222.35 Z M93.85 226.84 L96.44 217.19 L120.94 222.35 Z M93.85 226.84 L79.70 216.93 L96.44 217.19 Z M79.70 216.93 L84.63 212.32 L96.44 217.19 Z M79.70 216.93 L86.42 208.78 L84.63 212.32 Z M86.42 208.78 L86.42 208.78 L84.63 212.32 Z M107.62 204.43 L97.22 206.77 L86.42 208.78 Z M107.62 204.43 L131.01 203.12 L97.22 206.77 Z M131.01 203.12 L110.26 205.76 L97.22 206.77 Z M131.01 203.12 L148.36 202.73 L110.26 205.76 Z M148.36 202.73 L121.18 205.02 L110.26 205.76 Z M148.36 202.73 L159.70 202.20 L121.18 205.02 Z M159.70 202.20 L129.32 204.17 L121.18 205.02 Z M159.70 202.20 L168.16 201.49 L129.32 204.17 Z M168.16 201.49 L136.00 203.17 L129.32 204.17 Z M168.16 201.49 L175.28 200.64 L136.00 203.17 Z M175.28 200.64 L142.72 202.10 L136.00 203.17 Z M175.28 200.64 L181.42 199.35 L142.72 202.10 Z M181.42 199.35 L150.72 201.09 L142.72 202.10 Z M181.42 199.35 L187.23 197.36 L150.72 201.09 Z M187.23 197.36 L161.18 200.30 L150.72 201.09 Z M187.23 197.36 L194.24 194.67 L161.18 200.30 Z M194.24 194.67 L175.19 200.00 L161.18 200.30 Z M194.24 194.67 L204.47 191.76 L175.19 200.00 Z M204.47 191.76 L193.47 200.49 L175.19 200.00 Z M204.47 191.76 L219.79 189.52 L193.47 200.49 Z M219.79 189.52 L215.92 202.02 L193.47 200.49 Z M219.79 189.52 L241.01 189.01 L215.92 202.02 Z M241.01 189.01 L241.39 204.70 L215.92 202.02 Z M241.01 189.01 L267.20 191.12 L241.39 204.70 Z M267.20 191.12 L267.85 208.44 L241.39 204.70 Z M267.20 191.12 L295.35 196.28 L267.85 208.44 Z M295.35 196.28 L292.53 212.96 L267.85 208.44 Z M295.35 196.28 L320.16 204.27 L292.53 212.96 Z M320.16 204.27 L312.35 217.80 L292.53 212.96 Z M320.16 204.27 L334.70 213.78 L312.35 217.80 Z M334.70 213.78 L324.38 222.38 L312.35 217.80 Z M334.70 213.78 L334.46 222.51 L324.38 222.38 Z M334.46 222.51 L327.35 226.09 L324.38 222.38 Z M334.46 222.51 L323.10 228.66 L327.35 226.09 Z M323.10 228.66 L323.10 228.66 L327.35 226.09 Z M311.50 232.67 L315.58 230.29 L323.10 228.66 Z M311.50 232.67 L305.62 236.24 L315.58 230.29 Z M305.62 236.24 L307.52 231.36 L315.58 230.29 Z M305.62 236.24 L300.61 239.41 L307.52 231.36 Z M300.61 239.41 L298.93 231.97 L307.52 231.36 Z M300.61 239.41 L291.78 241.19 L298.93 231.97 Z M291.78 241.19 L289.05 232.05 L298.93 231.97 Z M291.78 241.19 L279.81 241.37 L289.05 232.05 Z M279.81 241.37 L278.06 231.63 L289.05 232.05 Z M279.81 241.37 L267.33 240.49 L278.06 231.63 Z M267.33 240.49 L266.90 230.86 L278.06 231.63 Z M267.33 240.49 L255.96 239.24 L266.90 230.86 Z M255.96 239.24 L256.56 229.97 L266.90 230.86 Z M255.96 239.24 L246.02 237.97 L256.56 229.97 Z M246.02 237.97 L247.54 229.22 L256.56 229.97 Z M246.02 237.97 L237.21 236.92 L247.54 229.22 Z M237.21 236.92 L239.84 228.85 L247.54 229.22 Z M239.84 228.85 L232.31 229.05 L252.04 219.16 Z M232.31 229.05 L241.11 217.75 L252.04 219.16 Z M232.31 229.05 L222.19 229.61 L241.11 217.75 Z M222.19 229.61 L225.13 215.93 L241.11 217.75 Z M222.19 229.61 L206.12 229.92 L225.13 215.93 Z M206.12 229.92 L203.29 213.83 L225.13 215.93 Z M206.12 229.92 L182.27 229.12 L203.29 213.83 Z M182.27 229.12 L176.63 211.65 L203.29 213.83 Z M182.27 229.12 L152.09 226.59 L176.63 211.65 Z M152.09 226.59 L148.16 209.72 L176.63 211.65 Z M152.09 226.59 L120.94 222.35 L148.16 209.72 Z M120.94 222.35 L122.08 208.37 L148.16 209.72 Z M120.94 222.35 L96.44 217.19 L122.08 208.37 Z M96.44 217.19 L102.26 207.79 L122.08 208.37 Z M96.44 217.19 L84.63 212.32 L102.26 207.79 Z M84.63 212.32 L90.62 208.01 L102.26 207.79 Z M84.63 212.32 L86.42 208.78 L90.62 208.01 Z M86.42 208.78 L86.42 208.78 L90.62 208.01 Z M97.22 206.77 L87.03 209.84 L86.42 208.78 Z M97.22 206.77 L110.26 205.76 L87.03 209.84 Z M110.26 205.76 L89.57 210.93 L87.03 209.84 Z M110.26 205.76 L121.18 205.02 L89.57 210.93 Z M121.18 205.02 L92.56 212.02 L89.57 210.93 Z M121.18 205.02 L129.32 204.17 L92.56 212.02 Z M129.32 204.17 L96.26 213.14 L92.56 212.02 Z M129.32 204.17 L136.00 203.17 L96.26 213.14 Z M136.00 203.17 L101.93 214.40 L96.26 213.14 Z M136.00 203.17 L142.72 202.10 L101.93 214.40 Z M142.72 202.10 L110.96 215.88 L101.93 214.40 Z M142.72 202.10 L150.72 201.09 L110.96 215.88 Z M150.72 201.09 L124.25 217.58 L110.96 215.88 Z M150.72 201.09 L161.18 200.30 L124.25 217.58 Z M161.18 200.30 L141.94 219.49 L124.25 217.58 Z M161.18 200.30 L175.19 200.00 L141.94 219.49 Z M175.19 200.00 L163.52 221.48 L141.94 219.49 Z M175.19 200.00 L193.47 200.49 L163.52 221.48 Z M193.47 200.49 L187.84 223.44 L163.52 221.48 Z M193.47 200.49 L215.92 202.02 L187.84 223.44 Z M215.92 202.02 L213.36 225.26 L187.84 223.44 Z M215.92 202.02 L241.39 204.70 L213.36 225.26 Z M241.39 204.70 L238.47 226.80 L213.36 225.26 Z M241.39 204.70 L267.85 208.44 L238.47 226.80 Z M267.85 208.44 L261.79 228.04 L238.47 226.80 Z M267.85 208.44 L292.53 212.96 L261.79 228.04 Z M292.53 212.96 L282.33 228.93 L261.79 228.04 Z M292.53 212.96 L312.35 217.80 L282.33 228.93 Z M312.35 217.80 L299.32 229.43 L282.33 228.93 Z M312.35 217.80 L324.38 222.38 L299.32 229.43 Z M324.38 222.38 L312.10 229.55 L299.32 229.43 Z M324.38 222.38 L327.35 226.09 L312.10 229.55 Z M327.35 226.09 L320.11 229.28 L312.10 229.55 Z M327.35 226.09 L323.10 228.66 L320.11 229.28 Z M323.10 228.66 L323.10 228.66 L320.11 229.28 Z M315.58 230.29 L321.23 227.74 L323.10 228.66 Z M315.58 230.29 L307.52 231.36 L321.23 227.74 Z M307.52 231.36 L315.11 226.62 L321.23 227.74 Z M307.52 231.36 L298.93 231.97 L315.11 226.62 Z M298.93 231.97 L305.95 225.39 L315.11 226.62 Z M298.93 231.97 L289.05 232.05 L305.95 225.39 Z M289.05 232.05 L295.25 224.18 L305.95 225.39 Z M289.05 232.05 L278.06 231.63 L295.25 224.18 Z M278.06 231.63 L284.56 223.07 L295.25 224.18 Z M278.06 231.63 L266.90 230.86 L284.56 223.07 Z M266.90 230.86 L275.02 222.09 L284.56 223.07 Z M266.90 230.86 L256.56 229.97 L275.02 222.09 Z M256.56 229.97 L267.04 221.19 L275.02 222.09 Z M256.56 229.97 L247.54 229.22 L267.04 221.19 Z M247.54 229.22 L259.93 220.26 L267.04 221.19 Z M247.54 229.22 L239.84 228.85 L259.93 220.26 Z M239.84 228.85 L252.04 219.16 L259.93 220.26 Z M252.04 219.16 L241.11 217.75 L270.26 196.38 Z M241.11 217.75 L250.70 193.41 L270.26 196.38 Z M241.11 217.75 L225.13 215.93 L250.70 193.41 Z M225.13 215.93 L227.36 191.34 L250.70 193.41 Z M225.13 215.93 L203.29 213.83 L227.36 191.34 Z M203.29 213.83 L201.56 190.51 L227.36 191.34 Z M203.29 213.83 L176.63 211.65 L201.56 190.51 Z M176.63 211.65 L175.30 191.10 L201.56 190.51 Z M176.63 211.65 L148.16 209.72 L175.30 191.10 Z M148.16 209.72 L150.67 193.06 L175.30 191.10 Z M148.16 209.72 L122.08 208.37 L150.67 193.06 Z M122.08 208.37 L129.22 196.14 L150.67 193.06 Z M122.08 208.37 L102.26 207.79 L129.22 196.14 Z M102.26 207.79 L111.63 199.98 L129.22 196.14 Z M102.26 207.79 L90.62 208.01 L111.63 199.98 Z M90.62 208.01 L97.58 204.26 L111.63 199.98 Z M90.62 208.01 L86.42 208.78 L97.58 204.26 Z M86.42 208.78 L86.42 208.78 L97.58 204.26 Z M87.03 209.84 L77.77 213.52 L86.42 208.78 Z M87.03 209.84 L89.57 210.93 L77.77 213.52 Z M89.57 210.93 L72.05 218.50 L77.77 213.52 Z M89.57 210.93 L92.56 212.02 L72.05 218.50 Z M92.56 212.02 L70.41 223.69 L72.05 218.50 Z M92.56 212.02 L96.26 213.14 L70.41 223.69 Z M96.26 213.14 L74.21 228.90 L70.41 223.69 Z M96.26 213.14 L101.93 214.40 L74.21 228.90 Z M101.93 214.40 L84.32 233.78 L74.21 228.90 Z M101.93 214.40 L110.96 215.88 L84.32 233.78 Z M110.96 215.88 L100.53 237.94 L84.32 233.78 Z M110.96 215.88 L124.25 217.58 L100.53 237.94 Z M124.25 217.58 L121.54 241.04 L100.53 237.94 Z M124.25 217.58 L141.94 219.49 L121.54 241.04 Z M141.94 219.49 L145.31 242.92 L121.54 241.04 Z M141.94 219.49 L163.52 221.48 L145.31 242.92 Z M163.52 221.48 L169.68 243.64 L145.31 242.92 Z M163.52 221.48 L187.84 223.44 L169.68 243.64 Z M187.84 223.44 L192.96 243.42 L169.68 243.64 Z M187.84 223.44 L213.36 225.26 L192.96 243.42 Z M213.36 225.26 L214.21 242.57 L192.96 243.42 Z M213.36 225.26 L238.47 226.80 L214.21 242.57 Z M238.47 226.80 L233.36 241.37 L214.21 242.57 Z M238.47 226.80 L261.79 228.04 L233.36 241.37 Z M261.79 228.04 L250.99 240.03 L233.36 241.37 Z M261.79 228.04 L282.33 228.93 L250.99 240.03 Z M282.33 228.93 L267.82 238.58 L250.99 240.03 Z M282.33 228.93 L299.32 229.43 L267.82 238.58 Z M299.32 229.43 L284.26 236.89 L267.82 238.58 Z M299.32 229.43 L312.10 229.55 L284.26 236.89 Z M312.10 229.55 L299.84 234.75 L284.26 236.89 Z M312.10 229.55 L320.11 229.28 L299.84 234.75 Z M320.11 229.28 L313.30 232.00 L299.84 234.75 Z M320.11 229.28 L323.10 228.66 L313.30 232.00 Z M323.10 228.66 L323.10 228.66 L313.30 232.00 Z M321.23 227.74 L328.17 224.93 L323.10 228.66 Z M321.23 227.74 L315.11 226.62 L328.17 224.93 Z M315.11 226.62 L328.57 221.10 L328.17 224.93 Z M315.11 226.62 L305.95 225.39 L328.57 221.10 Z M305.95 225.39 L325.36 217.40 L328.57 221.10 Z M305.95 225.39 L295.25 224.18 L325.36 217.40 Z M295.25 224.18 L320.00 213.90 L325.36 217.40 Z M295.25 224.18 L284.56 223.07 L320.00 213.90 Z M284.56 223.07 L313.56 210.50 L320.00 213.90 Z M284.56 223.07 L275.02 222.09 L313.56 210.50 Z M275.02 222.09 L306.20 207.06 L313.56 210.50 Z M275.02 222.09 L267.04 221.19 L306.20 207.06 Z M267.04 221.19 L297.26 203.49 L306.20 207.06 Z M267.04 221.19 L259.93 220.26 L297.26 203.49 Z M259.93 220.26 L285.63 199.86 L297.26 203.49 Z M259.93 220.26 L252.04 219.16 L285.63 199.86 Z M252.04 219.16 L270.26 196.38 L285.63 199.86 Z M270.26 196.38 L250.70 193.41 L276.46 168.41 Z M250.70 193.41 L251.60 167.99 L276.46 168.41 Z M250.70 193.41 L227.36 191.34 L251.60 167.99 Z M227.36 191.34 L226.42 169.63 L251.60 167.99 Z M227.36 191.34 L201.56 190.51 L226.42 169.63 Z M201.56 190.51 L202.36 173.01 L226.42 169.63 Z M201.56 190.51 L175.30 191.10 L202.36 173.01 Z M175.30 191.10 L180.33 177.68 L202.36 173.01 Z M175.30 191.10 L150.67 193.06 L180.33 177.68 Z M150.67 193.06 L160.47 183.10 L180.33 177.68 Z M150.67 193.06 L129.22 196.14 L160.47 183.10 Z M129.22 196.14 L142.11 188.86 L160.47 183.10 Z M129.22 196.14 L111.63 199.98 L142.11 188.86 Z M111.63 199.98 L124.04 194.84 L142.11 188.86 Z M111.63 199.98 L97.58 204.26 L124.04 194.84 Z M97.58 204.26 L105.29 201.30 L124.04 194.84 Z M97.58 204.26 L86.42 208.78 L105.29 201.30 Z M86.42 208.78 L86.42 208.78 L105.29 201.30 Z M77.77 213.52 L70.04 217.64 L86.42 208.78 Z M77.77 213.52 L72.05 218.50 L70.04 217.64 Z M72.05 218.50 L60.10 227.57 L70.04 217.64 Z M72.05 218.50 L70.41 223.69 L60.10 227.57 Z M70.41 223.69 L60.02 237.49 L60.10 227.57 Z M70.41 223.69 L74.21 228.90 L60.02 237.49 Z M74.21 228.90 L70.94 245.98 L60.02 237.49 Z M74.21 228.90 L84.32 233.78 L70.94 245.98 Z M84.32 233.78 L91.18 251.80 L70.94 245.98 Z M84.32 233.78 L100.53 237.94 L91.18 251.80 Z M100.53 237.94 L116.86 254.45 L91.18 251.80 Z M100.53 237.94 L121.54 241.04 L116.86 254.45 Z M121.54 241.04 L143.60 254.25 L116.86 254.45 Z M121.54 241.04 L145.31 242.92 L143.60 254.25 Z M145.31 242.92 L167.87 252.16 L143.60 254.25 Z M145.31 242.92 L169.68 243.64 L167.87 252.16 Z M169.68 243.64 L187.93 249.30 L167.87 252.16 Z M169.68 243.64 L192.96 243.42 L187.93 249.30 Z M192.96 243.42 L203.79 246.68 L187.93 249.30 Z M192.96 243.42 L214.21 242.57 L203.79 246.68 Z M214.21 242.57 L216.83 244.86 L203.79 246.68 Z M214.21 242.57 L233.36 241.37 L216.83 244.86 Z M233.36 241.37 L228.96 243.86 L216.83 244.86 Z M233.36 241.37 L250.99 240.03 L228.96 243.86 Z M250.99 240.03 L241.83 243.30 L228.96 243.86 Z M250.99 240.03 L267.82 238.58 L241.83 243.30 Z M267.82 238.58 L256.44 242.58 L241.83 243.30 Z M267.82 238.58 L284.26 236.89 L256.44 242.58 Z M284.26 236.89 L272.84 241.13 L256.44 242.58 Z M284.26 236.89 L299.84 234.75 L272.84 241.13 Z M299.84 234.75 L290.29 238.43 L272.84 241.13 Z M299.84 234.75 L313.30 232.00 L290.29 238.43 Z M313.30 232.00 L307.51 234.27 L290.29 238.43 Z M313.30 232.00 L323.10 228.66 L307.51 234.27 Z M323.10 228.66 L323.10 228.66 L307.51 234.27 Z M328.17 224.93 L335.82 221.82 L323.10 228.66 Z M328.17 224.93 L328.57 221.10 L335.82 221.82 Z M328.57 221.10 L344.70 214.10 L335.82 221.82 Z M328.57 221.10 L325.36 217.40 L344.70 214.10 Z M325.36 217.40 L349.17 205.87 L344.70 214.10 Z M325.36 217.40 L320.00 213.90 L349.17 205.87 Z M320.00 213.90 L348.95 197.52 L349.17 205.87 Z M320.00 213.90 L313.56 210.50 L348.95 197.52 Z M313.56 210.50 L343.89 189.42 L348.95 197.52 Z M313.56 210.50 L306.20 207.06 L343.89 189.42 Z M306.20 207.06 L333.86 181.97 L343.89 189.42 Z M306.20 207.06 L297.26 203.49 L333.86 181.97 Z M297.26 203.49 L318.87 175.67 L333.86 181.97 Z M297.26 203.49 L285.63 199.86 L318.87 175.67 Z M285.63 199.86 L299.39 171.02 L318.87 175.67 Z M285.63 199.86 L270.26 196.38 L299.39 171.02 Z M270.26 196.38 L276.46 168.41 L299.39 171.02 Z M276.46 168.41 L251.60 167.99 L264.83 157.87 Z M251.60 167.99 L242.67 162.01 L264.83 157.87 Z M251.60 167.99 L226.42 169.63 L242.67 162.01 Z M226.42 169.63 L223.04 167.14 L242.67 162.01 Z M226.42 169.63 L202.36 173.01 L223.04 167.14 Z M202.36 173.01 L205.74 172.57 L223.04 167.14 Z M202.36 173.01 L180.33 177.68 L205.74 172.57 Z M180.33 177.68 L190.05 177.89 L205.74 172.57 Z M180.33 177.68 L160.47 183.10 L190.05 177.89 Z M160.47 183.10 L174.77 182.96 L190.05 177.89 Z M160.47 183.10 L142.11 188.86 L174.77 182.96 Z M142.11 188.86 L158.22 187.78 L174.77 182.96 Z M142.11 188.86 L124.04 194.84 L158.22 187.78 Z M124.04 194.84 L138.14 192.78 L158.22 187.78 Z M124.04 194.84 L105.29 201.30 L138.14 192.78 Z M105.29 201.30 L113.36 199.24 L138.14 192.78 Z M105.29 201.30 L86.42 208.78 L113.36 199.24 Z M86.42 208.78 L86.42 208.78 L113.36 199.24 Z M70.04 217.64 L64.19 221.90 L86.42 208.78 Z M70.04 217.64 L60.10 227.57 L64.19 221.90 Z M60.10 227.57 L54.64 236.82 L64.19 221.90 Z M60.10 227.57 L60.02 237.49 L54.64 236.82 Z M60.02 237.49 L62.03 250.06 L54.64 236.82 Z M60.02 237.49 L70.94 245.98 L62.03 250.06 Z M70.94 245.98 L84.31 258.47 L62.03 250.06 Z M70.94 245.98 L91.18 251.80 L84.31 258.47 Z M91.18 251.80 L114.65 260.91 L84.31 258.47 Z M91.18 251.80 L116.86 254.45 L114.65 260.91 Z M116.86 254.45 L145.15 258.56 L114.65 260.91 Z M116.86 254.45 L143.60 254.25 L145.15 258.56 Z M143.60 254.25 L170.28 253.96 L145.15 258.56 Z M143.60 254.25 L167.87 252.16 L170.28 253.96 Z M167.87 252.16 L188.16 249.74 L170.28 253.96 Z M167.87 252.16 L187.93 249.30 L188.16 249.74 Z M187.93 249.30 L200.21 247.43 L188.16 249.74 Z M187.93 249.30 L203.79 246.68 L200.21 247.43 Z M203.79 246.68 L209.40 247.12 L200.21 247.43 Z M203.79 246.68 L216.83 244.86 L209.40 247.12 Z M216.83 244.86 L218.40 247.92 L209.40 247.12 Z M216.83 244.86 L228.96 243.86 L218.40 247.92 Z M228.96 243.86 L228.67 248.87 L218.40 247.92 Z M228.96 243.86 L241.83 243.30 L228.67 248.87 Z M241.83 243.30 L240.78 249.22 L228.67 248.87 Z M241.83 243.30 L256.44 242.58 L240.78 249.22 Z M256.44 242.58 L254.60 248.35 L240.78 249.22 Z M256.44 242.58 L272.84 241.13 L254.60 248.35 Z M272.84 241.13 L269.61 245.87 L254.60 248.35 Z M272.84 241.13 L290.29 238.43 L269.61 245.87 Z M290.29 238.43 L285.56 241.80 L269.61 245.87 Z M290.29 238.43 L307.51 234.27 L285.56 241.80 Z M307.51 234.27 L303.19 236.20 L285.56 241.80 Z M307.51 234.27 L323.10 228.66 L303.19 236.20 Z M323.10 228.66 L323.10 228.66 L303.19 236.20 Z M335.82 221.82 L343.37 218.49 L323.10 228.66 Z M335.82 221.82 L344.70 214.10 L343.37 218.49 Z M344.70 214.10 L359.41 205.82 L343.37 218.49 Z M344.70 214.10 L349.17 205.87 L359.41 205.82 Z M349.17 205.87 L367.09 192.01 L359.41 205.82 Z M349.17 205.87 L348.95 197.52 L367.09 192.01 Z M348.95 197.52 L364.96 178.90 L367.09 192.01 Z M348.95 197.52 L343.89 189.42 L364.96 178.90 Z M343.89 189.42 L353.90 168.00 L364.96 178.90 Z M343.89 189.42 L333.86 181.97 L353.90 168.00 Z M333.86 181.97 L335.90 160.29 L353.90 168.00 Z M333.86 181.97 L318.87 175.67 L335.90 160.29 Z M318.87 175.67 L313.39 156.21 L335.90 160.29 Z M318.87 175.67 L299.39 171.02 L313.39 156.21 Z M299.39 171.02 L288.93 155.62 L313.39 156.21 Z M299.39 171.02 L276.46 168.41 L288.93 155.62 Z M276.46 168.41 L264.83 157.87 L288.93 155.62 Z M264.83 157.87 L242.67 162.01 L245.79 170.42 Z M242.67 162.01 L231.47 176.54 L245.79 170.42 Z M242.67 162.01 L223.04 167.14 L231.47 176.54 Z M223.04 167.14 L220.12 181.15 L231.47 176.54 Z M223.04 167.14 L205.74 172.57 L220.12 181.15 Z M205.74 172.57 L209.98 184.32 L220.12 181.15 Z M205.74 172.57 L190.05 177.89 L209.98 184.32 Z M190.05 177.89 L199.67 186.71 L209.98 184.32 Z M190.05 177.89 L174.77 182.96 L199.67 186.71 Z M174.77 182.96 L188.09 188.92 L199.67 186.71 Z M174.77 182.96 L158.22 187.78 L188.09 188.92 Z M158.22 187.78 L173.49 191.07 L188.09 188.92 Z M158.22 187.78 L138.14 192.78 L173.49 191.07 Z M138.14 192.78 L152.08 193.33 L173.49 191.07 Z M138.14 192.78 L113.36 199.24 L152.08 193.33 Z M113.36 199.24 L121.32 198.05 L152.08 193.33 Z M113.36 199.24 L86.42 208.78 L121.32 198.05 Z M86.42 208.78 L86.42 208.78 L121.32 198.05 Z M64.19 221.90 L60.31 226.03 L86.42 208.78 Z M64.19 221.90 L54.64 236.82 L60.31 226.03 Z M54.64 236.82 L55.09 245.07 L60.31 226.03 Z M54.64 236.82 L62.03 250.06 L55.09 245.07 Z M62.03 250.06 L72.92 259.15 L55.09 245.07 Z M62.03 250.06 L84.31 258.47 L72.92 259.15 Z M84.31 258.47 L105.06 264.57 L72.92 259.15 Z M84.31 258.47 L114.65 260.91 L105.06 264.57 Z M114.65 260.91 L138.90 262.63 L105.06 264.57 Z M114.65 260.91 L145.15 258.56 L138.90 262.63 Z M145.15 258.56 L165.75 257.70 L138.90 262.63 Z M145.15 258.56 L170.28 253.96 L165.75 257.70 Z M170.28 253.96 L183.42 253.75 L165.75 257.70 Z M170.28 253.96 L188.16 249.74 L183.42 253.75 Z M188.16 249.74 L194.51 252.39 L183.42 253.75 Z M188.16 249.74 L200.21 247.43 L194.51 252.39 Z M200.21 247.43 L202.85 252.98 L194.51 252.39 Z M200.21 247.43 L209.40 247.12 L202.85 252.98 Z M209.40 247.12 L210.91 254.44 L202.85 252.98 Z M209.40 247.12 L218.40 247.92 L210.91 254.44 Z M218.40 247.92 L219.89 256.18 L210.91 254.44 Z M218.40 247.92 L228.67 248.87 L219.89 256.18 Z M228.67 248.87 L230.60 257.79 L219.89 256.18 Z M228.67 248.87 L240.78 249.22 L230.60 257.79 Z M240.78 249.22 L243.50 258.48 L230.60 257.79 Z M240.78 249.22 L254.60 248.35 L243.50 258.48 Z M254.60 248.35 L258.08 257.10 L243.50 258.48 Z M254.60 248.35 L269.61 245.87 L258.08 257.10 Z M269.61 245.87 L272.56 252.68 L258.08 257.10 Z M269.61 245.87 L285.56 241.80 L272.56 252.68 Z M285.56 241.80 L285.59 245.75 L272.56 252.68 Z M285.56 241.80 L303.19 236.20 L285.59 245.75 Z M303.19 236.20 L300.52 237.91 L285.59 245.75 Z M303.19 236.20 L323.10 228.66 L300.52 237.91 Z M323.10 228.66 L323.10 228.66 L300.52 237.91 Z M343.37 218.49 L350.13 215.09 L323.10 228.66 Z M343.37 218.49 L359.41 205.82 L350.13 215.09 Z M359.41 205.82 L369.77 197.23 L350.13 215.09 Z M359.41 205.82 L367.09 192.01 L369.77 197.23 Z M367.09 192.01 L373.75 179.07 L369.77 197.23 Z M367.09 192.01 L364.96 178.90 L373.75 179.07 Z M364.96 178.90 L362.24 164.86 L373.75 179.07 Z M364.96 178.90 L353.90 168.00 L362.24 164.86 Z M353.90 168.00 L340.41 156.70 L362.24 164.86 Z M353.90 168.00 L335.90 160.29 L340.41 156.70 Z M335.90 160.29 L313.99 154.69 L340.41 156.70 Z M335.90 160.29 L313.39 156.21 L313.99 154.69 Z M313.39 156.21 L287.62 157.62 L313.99 154.69 Z M313.39 156.21 L288.93 155.62 L287.62 157.62 Z M288.93 155.62 L264.41 163.58 L287.62 157.62 Z M288.93 155.62 L264.83 157.87 L264.41 163.58 Z M264.83 157.87 L245.79 170.42 L264.41 163.58 Z M245.79 170.42 L231.47 176.54 L231.83 189.45 Z M231.47 176.54 L224.76 192.56 L231.83 189.45 Z M231.47 176.54 L220.12 181.15 L224.76 192.56 Z M220.12 181.15 L218.75 192.95 L224.76 192.56 Z M220.12 181.15 L209.98 184.32 L218.75 192.95 Z M209.98 184.32 L212.04 192.23 L218.75 192.95 Z M209.98 184.32 L199.67 186.71 L212.04 192.23 Z M199.67 186.71 L204.02 191.88 L212.04 192.23 Z M199.67 186.71 L188.09 188.92 L204.02 191.88 Z M188.09 188.92 L194.84 192.86 L204.02 191.88 Z M188.09 188.92 L173.49 191.07 L194.84 192.86 Z M173.49 191.07 L183.64 194.65 L194.84 192.86 Z M173.49 191.07 L152.08 193.33 L183.64 194.65 Z M152.08 193.33 L163.91 195.31 L183.64 194.65 Z M152.08 193.33 L121.32 198.05 L163.91 195.31 Z M121.32 198.05 L128.68 197.59 L163.91 195.31 Z M121.32 198.05 L86.42 208.78 L128.68 197.59 Z M86.42 208.78 L86.42 208.78 L128.68 197.59 Z M60.31 226.03 L58.28 229.70 L86.42 208.78 Z M60.31 226.03 L55.09 245.07 L58.28 229.70 Z M55.09 245.07 L59.79 251.57 L58.28 229.70 Z M55.09 245.07 L72.92 259.15 L59.79 251.57 Z M72.92 259.15 L87.43 264.54 L59.79 251.57 Z M72.92 259.15 L105.06 264.57 L87.43 264.54 Z M105.06 264.57 L123.88 266.67 L87.43 264.54 Z M105.06 264.57 L138.90 262.63 L123.88 266.67 Z M138.90 262.63 L154.43 263.16 L123.88 266.67 Z M138.90 262.63 L165.75 257.70 L154.43 263.16 Z M165.75 257.70 L175.20 259.14 L154.43 263.16 Z M165.75 257.70 L183.42 253.75 L175.20 259.14 Z M183.42 253.75 L188.60 256.78 L175.20 259.14 Z M183.42 253.75 L194.51 252.39 L188.60 256.78 Z M194.51 252.39 L197.97 256.18 L188.60 256.78 Z M194.51 252.39 L202.85 252.98 L197.97 256.18 Z M202.85 252.98 L205.80 256.66 L197.97 256.18 Z M202.85 252.98 L210.91 254.44 L205.80 256.66 Z M210.91 254.44 L213.46 257.69 L205.80 256.66 Z M210.91 254.44 L219.89 256.18 L213.46 257.69 Z M219.89 256.18 L221.82 259.17 L213.46 257.69 Z M219.89 256.18 L230.60 257.79 L221.82 259.17 Z M230.60 257.79 L231.81 261.23 L221.82 259.17 Z M230.60 257.79 L243.50 258.48 L231.81 261.23 Z M243.50 258.48 L244.64 263.35 L231.81 261.23 Z M243.50 258.48 L258.08 257.10 L244.64 263.35 Z M258.08 257.10 L260.46 263.65 L244.64 263.35 Z M258.08 257.10 L272.56 252.68 L260.46 263.65 Z M272.56 252.68 L276.53 259.41 L260.46 263.65 Z M272.56 252.68 L285.59 245.75 L276.53 259.41 Z M285.59 245.75 L288.42 250.12 L276.53 259.41 Z M285.59 245.75 L300.52 237.91 L288.42 250.12 Z M300.52 237.91 L299.36 239.49 L288.42 250.12 Z M300.52 237.91 L323.10 228.66 L299.36 239.49 Z M323.10 228.66 L323.10 228.66 L299.36 239.49 Z M350.13 215.09 L355.57 211.86 L323.10 228.66 Z M350.13 215.09 L369.77 197.23 L355.57 211.86 Z M369.77 197.23 L374.72 189.50 L355.57 211.86 Z M369.77 197.23 L373.75 179.07 L374.72 189.50 Z M373.75 179.07 L369.41 169.81 L374.72 189.50 Z M373.75 179.07 L362.24 164.86 L369.41 169.81 Z M362.24 164.86 L345.38 159.11 L369.41 169.81 Z M362.24 164.86 L340.41 156.70 L345.38 159.11 Z M340.41 156.70 L314.13 158.02 L345.38 159.11 Z M340.41 156.70 L313.99 154.69 L314.13 158.02 Z M313.99 154.69 L284.15 163.93 L314.13 158.02 Z M313.99 154.69 L287.62 157.62 L284.15 163.93 Z M287.62 157.62 L259.83 173.35 L284.15 163.93 Z M287.62 157.62 L264.41 163.58 L259.83 173.35 Z M264.41 163.58 L242.70 182.75 L259.83 173.35 Z M264.41 163.58 L245.79 170.42 L242.70 182.75 Z M245.79 170.42 L231.83 189.45 L242.70 182.75 Z M231.83 189.45 L224.76 192.56 L226.22 198.44 Z M224.76 192.56 L222.30 196.85 L226.22 198.44 Z M224.76 192.56 L218.75 192.95 L222.30 196.85 Z M218.75 192.95 L217.58 194.49 L222.30 196.85 Z M218.75 192.95 L212.04 192.23 L217.58 194.49 Z M212.04 192.23 L211.44 192.23 L217.58 194.49 Z M212.04 192.23 L204.02 191.88 L211.44 192.23 Z M204.02 191.88 L203.65 190.79 L211.44 192.23 Z M204.02 191.88 L194.84 192.86 L203.65 190.79 Z M194.84 192.86 L194.98 191.63 L203.65 190.79 Z M194.84 192.86 L183.64 194.65 L194.98 191.63 Z M183.64 194.65 L186.89 195.33 L194.98 191.63 Z M183.64 194.65 L163.91 195.31 L186.89 195.33 Z M163.91 195.31 L172.22 197.35 L186.89 195.33 Z M163.91 195.31 L128.68 197.59 L172.22 197.35 Z M128.68 197.59 L135.00 197.66 L172.22 197.35 Z M128.68 197.59 L86.42 208.78 L135.00 197.66 Z M86.42 208.78 L86.42 208.78 L135.00 197.66 Z M58.28 229.70 L57.76 232.73 L86.42 208.78 Z M58.28 229.70 L59.79 251.57 L57.76 232.73 Z M59.79 251.57 L66.75 256.14 L57.76 232.73 Z M59.79 251.57 L87.43 264.54 L66.75 256.14 Z M87.43 264.54 L101.31 267.23 L66.75 256.14 Z M87.43 264.54 L123.88 266.67 L101.31 267.23 Z M123.88 266.67 L137.12 267.72 L101.31 267.23 Z M123.88 266.67 L154.43 263.16 L137.12 267.72 Z M154.43 263.16 L163.43 264.42 L137.12 267.72 Z M154.43 263.16 L175.20 259.14 L163.43 264.42 Z M175.20 259.14 L181.45 260.59 L163.43 264.42 Z M175.20 259.14 L188.60 256.78 L181.45 260.59 Z M188.60 256.78 L193.25 258.39 L181.45 260.59 Z M188.60 256.78 L197.97 256.18 L193.25 258.39 Z M197.97 256.18 L201.48 258.36 L193.25 258.39 Z M197.97 256.18 L205.80 256.66 L201.48 258.36 Z M205.80 256.66 L208.70 259.22 L201.48 258.36 Z M205.80 256.66 L213.46 257.69 L208.70 259.22 Z M213.46 257.69 L216.01 260.01 L208.70 259.22 Z M213.46 257.69 L221.82 259.17 L216.01 260.01 Z M221.82 259.17 L223.86 260.75 L216.01 260.01 Z M221.82 259.17 L231.81 261.23 L223.86 260.75 Z M231.81 261.23 L232.93 261.92 L223.86 260.75 Z M231.81 261.23 L244.64 263.35 L232.93 261.92 Z M244.64 263.35 L244.68 264.09 L232.93 261.92 Z M244.64 263.35 L260.46 263.65 L244.68 264.09 Z M260.46 263.65 L260.77 266.22 L244.68 264.09 Z M260.46 263.65 L276.53 259.41 L260.77 266.22 Z M276.53 259.41 L279.12 264.05 L260.77 266.22 Z M276.53 259.41 L288.42 250.12 L279.12 264.05 Z M288.42 250.12 L292.02 254.14 L279.12 264.05 Z M288.42 250.12 L299.36 239.49 L292.02 254.14 Z M299.36 239.49 L299.40 240.88 L292.02 254.14 Z M299.36 239.49 L323.10 228.66 L299.40 240.88 Z M323.10 228.66 L323.10 228.66 L299.40 240.88 Z M355.57 211.86 L359.47 209.06 L323.10 228.66 Z M355.57 211.86 L374.72 189.50 L359.47 209.06 Z M374.72 189.50 L374.83 183.49 L359.47 209.06 Z M374.72 189.50 L369.41 169.81 L374.83 183.49 Z M369.41 169.81 L357.95 165.10 L374.83 183.49 Z M369.41 169.81 L345.38 159.11 L357.95 165.10 Z M345.38 159.11 L323.25 160.55 L357.95 165.10 Z M345.38 159.11 L314.13 158.02 L323.25 160.55 Z M314.13 158.02 L287.87 166.70 L323.25 160.55 Z M314.13 158.02 L284.15 163.93 L287.87 166.70 Z M284.15 163.93 L259.84 178.03 L287.87 166.70 Z M284.15 163.93 L259.83 173.35 L259.84 178.03 Z M259.83 173.35 L241.23 189.54 L259.84 178.03 Z M259.83 173.35 L242.70 182.75 L241.23 189.54 Z M242.70 182.75 L231.20 196.81 L241.23 189.54 Z M242.70 182.75 L231.83 189.45 L231.20 196.81 Z M231.83 189.45 L226.22 198.44 L231.20 196.81 Z M226.22 198.44 L222.30 196.85 L224.34 199.06 Z M222.30 196.85 L220.80 196.66 L224.34 199.06 Z M222.30 196.85 L217.58 194.49 L220.80 196.66 Z M217.58 194.49 L216.29 194.45 L220.80 196.66 Z M217.58 194.49 L211.44 192.23 L216.29 194.45 Z M211.44 192.23 L210.48 192.18 L216.29 194.45 Z M211.44 192.23 L203.65 190.79 L210.48 192.18 Z M203.65 190.79 L202.69 189.90 L210.48 192.18 Z M203.65 190.79 L194.98 191.63 L202.69 189.90 Z M194.98 191.63 L193.24 189.40 L202.69 189.90 Z M194.98 191.63 L186.89 195.33 L193.24 189.40 Z M186.89 195.33 L185.74 193.72 L193.24 189.40 Z M186.89 195.33 L172.22 197.35 L185.74 193.72 Z M172.22 197.35 L176.70 198.63 L185.74 193.72 Z M172.22 197.35 L135.00 197.66 L176.70 198.63 Z M135.00 197.66 L139.94 198.05 L176.70 198.63 Z M135.00 197.66 L86.42 208.78 L139.94 198.05 Z M86.42 208.78 L86.42 208.78 L139.94 198.05 Z M57.76 232.73 L58.40 234.95 L86.42 208.78 Z M57.76 232.73 L66.75 256.14 L58.40 234.95 Z M66.75 256.14 L74.29 258.91 L58.40 234.95 Z M66.75 256.14 L101.31 267.23 L74.29 258.91 Z M101.31 267.23 L112.55 268.40 L74.29 258.91 Z M101.31 267.23 L137.12 267.72 L112.55 268.40 Z M137.12 267.72 L146.06 268.52 L112.55 268.40 Z M137.12 267.72 L163.43 264.42 L146.06 268.52 Z M163.43 264.42 L170.28 264.99 L146.06 268.52 Z M163.43 264.42 L181.45 260.59 L170.28 264.99 Z M181.45 260.59 L186.80 260.91 L170.28 264.99 Z M181.45 260.59 L193.25 258.39 L186.80 260.91 Z M193.25 258.39 L196.57 260.32 L186.80 260.91 Z M193.25 258.39 L201.48 258.36 L196.57 260.32 Z M201.48 258.36 L203.82 261.97 L196.57 260.32 Z M201.48 258.36 L208.70 259.22 L203.82 261.97 Z M208.70 259.22 L211.03 263.32 L203.82 261.97 Z M208.70 259.22 L216.01 260.01 L211.03 263.32 Z M216.01 260.01 L218.51 263.97 L211.03 263.32 Z M216.01 260.01 L223.86 260.75 L218.51 263.97 Z M223.86 260.75 L226.41 264.21 L218.51 263.97 Z M223.86 260.75 L232.93 261.92 L226.41 264.21 Z M232.93 261.92 L235.10 264.13 L226.41 264.21 Z M232.93 261.92 L244.68 264.09 L235.10 264.13 Z M244.68 264.09 L245.58 264.48 L235.10 264.13 Z M244.68 264.09 L260.77 266.22 L245.58 264.48 Z M260.77 266.22 L260.58 266.40 L245.58 264.48 Z M260.77 266.22 L279.12 264.05 L260.58 266.40 Z M279.12 264.05 L280.39 266.32 L260.58 266.40 Z M279.12 264.05 L292.02 254.14 L280.39 266.32 Z M292.02 254.14 L295.33 257.18 L280.39 266.32 Z M292.02 254.14 L299.40 240.88 L295.33 257.18 Z M299.40 240.88 L300.21 241.99 L295.33 257.18 Z M299.40 240.88 L323.10 228.66 L300.21 241.99 Z M323.10 228.66 L323.10 228.66 L300.21 241.99 Z M359.47 209.06 L361.80 206.87 L323.10 228.66 Z M359.47 209.06 L374.83 183.49 L361.80 206.87 Z M374.83 183.49 L371.61 179.51 L361.80 206.87 Z M374.83 183.49 L357.95 165.10 L371.61 179.51 Z M357.95 165.10 L344.02 164.13 L371.61 179.51 Z M357.95 165.10 L323.25 160.55 L344.02 164.13 Z M323.25 160.55 L302.99 165.54 L344.02 164.13 Z M323.25 160.55 L287.87 166.70 L302.99 165.54 Z M287.87 166.70 L268.25 176.34 L302.99 165.54 Z M287.87 166.70 L259.84 178.03 L268.25 176.34 Z M259.84 178.03 L244.73 189.50 L268.25 176.34 Z M259.84 178.03 L241.23 189.54 L244.73 189.50 Z M241.23 189.54 L232.16 199.08 L244.73 189.50 Z M241.23 189.54 L231.20 196.81 L232.16 199.08 Z M231.20 196.81 L227.28 201.09 L232.16 199.08 Z M231.20 196.81 L226.22 198.44 L227.28 201.09 Z M226.22 198.44 L224.34 199.06 L227.28 201.09 Z M224.34 199.06 L220.80 196.66 L222.85 198.98 Z M220.80 196.66 L219.34 197.29 L222.85 198.98 Z M220.80 196.66 L216.29 194.45 L219.34 197.29 Z M216.29 194.45 L215.12 195.59 L219.34 197.29 Z M216.29 194.45 L210.48 192.18 L215.12 195.59 Z M210.48 192.18 L209.75 193.56 L215.12 195.59 Z M210.48 192.18 L202.69 189.90 L209.75 193.56 Z M202.69 189.90 L202.18 190.80 L209.75 193.56 Z M202.69 189.90 L193.24 189.40 L202.18 190.80 Z M193.24 189.40 L191.91 188.67 L202.18 190.80 Z M193.24 189.40 L185.74 193.72 L191.91 188.67 Z M185.74 193.72 L183.43 192.05 L191.91 188.67 Z M185.74 193.72 L176.70 198.63 L183.43 192.05 Z M176.70 198.63 L178.18 199.14 L183.43 192.05 Z M176.70 198.63 L139.94 198.05 L178.18 199.14 Z M139.94 198.05 L143.30 198.56 L178.18 199.14 Z M139.94 198.05 L86.42 208.78 L143.30 198.56 Z M86.42 208.78 L86.42 208.78 L143.30 198.56 Z M58.40 234.95 L59.80 236.29 L86.42 208.78 Z M58.40 234.95 L74.29 258.91 L59.80 236.29 Z M74.29 258.91 L81.19 260.18 L59.80 236.29 Z M74.29 258.91 L112.55 268.40 L81.19 260.18 Z M112.55 268.40 L121.04 268.64 L81.19 260.18 Z M112.55 268.40 L146.06 268.52 L121.04 268.64 Z M146.06 268.52 L152.74 268.71 L121.04 268.64 Z M146.06 268.52 L170.28 264.99 L152.74 268.71 Z M170.28 264.99 L176.08 264.53 L152.74 268.71 Z M170.28 264.99 L186.80 260.91 L176.08 264.53 Z M186.80 260.91 L190.73 261.33 L176.08 264.53 Z M186.80 260.91 L196.57 260.32 L190.73 261.33 Z M196.57 260.32 L198.94 262.96 L190.73 261.33 Z M196.57 260.32 L203.82 261.97 L198.94 262.96 Z M203.82 261.97 L206.21 265.23 L198.94 262.96 Z M203.82 261.97 L211.03 263.32 L206.21 265.23 Z M211.03 263.32 L213.75 266.14 L206.21 265.23 Z M211.03 263.32 L218.51 263.97 L213.75 266.14 Z M218.51 263.97 L221.36 266.50 L213.75 266.14 Z M218.51 263.97 L226.41 264.21 L221.36 266.50 Z M226.41 264.21 L229.35 266.81 L221.36 266.50 Z M226.41 264.21 L235.10 264.13 L229.35 266.81 Z M235.10 264.13 L238.06 266.60 L229.35 266.81 Z M235.10 264.13 L245.58 264.48 L238.06 266.60 Z M245.58 264.48 L247.82 265.61 L238.06 266.60 Z M245.58 264.48 L260.58 266.40 L247.82 265.61 Z M260.58 266.40 L261.24 265.99 L247.82 265.61 Z M260.58 266.40 L280.39 266.32 L261.24 265.99 Z M280.39 266.32 L281.33 266.87 L261.24 265.99 Z M280.39 266.32 L295.33 257.18 L281.33 266.87 Z M295.33 257.18 L298.12 258.98 L281.33 266.87 Z M295.33 257.18 L300.21 241.99 L298.12 258.98 Z M300.21 241.99 L301.39 242.74 L298.12 258.98 Z M300.21 241.99 L323.10 228.66 L301.39 242.74 Z M323.10 228.66 L323.10 228.66 L301.39 242.74 Z M361.80 206.87 L362.69 205.48 L323.10 228.66 Z M361.80 206.87 L371.61 179.51 L362.69 205.48 Z M371.61 179.51 L366.81 177.51 L362.69 205.48 Z M371.61 179.51 L344.02 164.13 L366.81 177.51 Z M344.02 164.13 L331.26 165.31 L366.81 177.51 Z M344.02 164.13 L302.99 165.54 L331.26 165.31 Z M302.99 165.54 L287.82 170.89 L331.26 165.31 Z M302.99 165.54 L268.25 176.34 L287.82 170.89 Z M268.25 176.34 L255.82 183.67 L287.82 170.89 Z M268.25 176.34 L244.73 189.50 L255.82 183.67 Z M244.73 189.50 L236.61 196.55 L255.82 183.67 Z M244.73 189.50 L232.16 199.08 L236.61 196.55 Z M232.16 199.08 L228.51 202.65 L236.61 196.55 Z M232.16 199.08 L227.28 201.09 L228.51 202.65 Z M227.28 201.09 L225.71 201.28 L228.51 202.65 Z M227.28 201.09 L224.34 199.06 L225.71 201.28 Z M224.34 199.06 L222.85 198.98 L225.71 201.28 Z M222.85 198.98 L219.34 197.29 L221.39 199.56 Z M219.34 197.29 L217.97 198.38 L221.39 199.56 Z M219.34 197.29 L215.12 195.59 L217.97 198.38 Z M215.12 195.59 L213.98 196.95 L217.97 198.38 Z M215.12 195.59 L209.75 193.56 L213.98 196.95 Z M209.75 193.56 L208.88 195.06 L213.98 196.95 Z M209.75 193.56 L202.18 190.80 L208.88 195.06 Z M202.18 190.80 L201.56 192.23 L208.88 195.06 Z M202.18 190.80 L191.91 188.67 L201.56 192.23 Z M191.91 188.67 L190.78 189.10 L201.56 192.23 Z M191.91 188.67 L183.43 192.05 L190.78 189.10 Z M183.43 192.05 L181.25 191.31 L190.78 189.10 Z M183.43 192.05 L178.18 199.14 L181.25 191.31 Z M178.18 199.14 L177.97 199.36 L181.25 191.31 Z M178.18 199.14 L143.30 198.56 L177.97 199.36 Z M143.30 198.56 L144.94 199.10 L177.97 199.36 Z M143.30 198.56 L86.42 208.78 L144.94 199.10 Z M86.42 208.78 L86.42 208.78 L144.94 199.10 Z M59.80 236.29 L61.62 236.71 L86.42 208.78 Z M59.80 236.29 L81.19 260.18 L61.62 236.71 Z M81.19 260.18 L86.88 260.19 L61.62 236.71 Z M81.19 260.18 L121.04 268.64 L86.88 260.19 Z M121.04 268.64 L127.29 268.11 L86.88 260.19 Z M121.04 268.64 L152.74 268.71 L127.29 268.11 Z M152.74 268.71 L158.03 268.11 L127.29 268.11 Z M152.74 268.71 L176.08 264.53 L158.03 268.11 Z M176.08 264.53 L180.71 263.58 L158.03 268.11 Z M176.08 264.53 L190.73 261.33 L180.71 263.58 Z M190.73 261.33 L193.78 261.65 L180.71 263.58 Z M190.73 261.33 L198.94 262.96 L193.78 261.65 Z M198.94 262.96 L201.52 264.43 L193.78 261.65 Z M198.94 262.96 L206.21 265.23 L201.52 264.43 Z M206.21 265.23 L209.14 266.39 L201.52 264.43 Z M206.21 265.23 L213.75 266.14 L209.14 266.39 Z M213.75 266.14 L216.83 266.71 L209.14 266.39 Z M213.75 266.14 L221.36 266.50 L216.83 266.71 Z M221.36 266.50 L224.39 266.83 L216.83 266.71 Z M221.36 266.50 L229.35 266.81 L224.39 266.83 Z M229.35 266.81 L232.36 267.37 L224.39 266.83 Z M229.35 266.81 L238.06 266.60 L232.36 267.37 Z M238.06 266.60 L241.19 267.56 L232.36 267.37 Z M238.06 266.60 L247.82 265.61 L241.19 267.56 Z M247.82 265.61 L250.74 266.29 L241.19 267.56 Z M247.82 265.61 L261.24 265.99 L250.74 266.29 Z M261.24 265.99 L262.97 265.44 L250.74 266.29 Z M261.24 265.99 L281.33 266.87 L262.97 265.44 Z M281.33 266.87 L282.72 266.42 L262.97 265.44 Z M281.33 266.87 L298.12 258.98 L282.72 266.42 Z M298.12 258.98 L300.57 259.56 L282.72 266.42 Z M298.12 258.98 L301.39 242.74 L300.57 259.56 Z M301.39 242.74 L302.63 243.01 L300.57 259.56 Z M301.39 242.74 L323.10 228.66 L302.63 243.01 Z M323.10 228.66 L323.10 228.66 L302.63 243.01 Z M362.69 205.48 L362.37 204.98 L323.10 228.66 Z M362.69 205.48 L366.81 177.51 L362.37 204.98 Z M366.81 177.51 L361.84 177.17 L362.37 204.98 Z M366.81 177.51 L331.26 165.31 L361.84 177.17 Z M331.26 165.31 L321.57 167.29 L361.84 177.17 Z M331.26 165.31 L287.82 170.89 L321.57 167.29 Z M287.82 170.89 L278.03 174.95 L321.57 167.29 Z M287.82 170.89 L255.82 183.67 L278.03 174.95 Z M255.82 183.67 L248.66 188.22 L278.03 174.95 Z M255.82 183.67 L236.61 196.55 L248.66 188.22 Z M236.61 196.55 L232.44 200.23 L248.66 188.22 Z M236.61 196.55 L228.51 202.65 L232.44 200.23 Z M228.51 202.65 L226.81 203.60 L232.44 200.23 Z M228.51 202.65 L225.71 201.28 L226.81 203.60 Z M225.71 201.28 L224.38 201.29 L226.81 203.60 Z M225.71 201.28 L222.85 198.98 L224.38 201.29 Z M222.85 198.98 L221.39 199.56 L224.38 201.29 Z M221.39 199.56 L217.97 198.38 L220.00 200.27 Z M217.97 198.38 L216.62 199.28 L220.00 200.27 Z M217.97 198.38 L213.98 196.95 L216.62 199.28 Z M213.98 196.95 L212.65 197.90 L216.62 199.28 Z M213.98 196.95 L208.88 195.06 L212.65 197.90 Z M208.88 195.06 L207.58 196.08 L212.65 197.90 Z M208.88 195.06 L201.56 192.23 L207.58 196.08 Z M201.56 192.23 L200.27 193.32 L207.58 196.08 Z M201.56 192.23 L190.78 189.10 L200.27 193.32 Z M190.78 189.10 L189.24 189.94 L200.27 193.32 Z M190.78 189.10 L181.25 191.31 L189.24 189.94 Z M181.25 191.31 L179.38 191.63 L189.24 189.94 Z M181.25 191.31 L177.97 199.36 L179.38 191.63 Z M177.97 199.36 L177.01 199.73 L179.38 191.63 Z M177.97 199.36 L144.94 199.10 L177.01 199.73 Z M144.94 199.10 L144.83 199.58 L177.01 199.73 Z M144.94 199.10 L86.42 208.78 L144.83 199.58 Z M86.42 208.78 L86.42 208.78 L144.83 199.58 Z M61.62 236.71 L63.60 236.20 L86.42 208.78 Z M61.62 236.71 L86.88 260.19 L63.60 236.20 Z M86.88 260.19 L91.08 259.10 L63.60 236.20 Z M86.88 260.19 L127.29 268.11 L91.08 259.10 Z M127.29 268.11 L131.80 266.78 L91.08 259.10 Z M127.29 268.11 L158.03 268.11 L131.80 266.78 Z M158.03 268.11 L162.16 266.78 L131.80 266.78 Z M158.03 268.11 L180.71 263.58 L162.16 266.78 Z M180.71 263.58 L184.28 262.30 L162.16 266.78 Z M180.71 263.58 L193.78 261.65 L184.28 262.30 Z M193.78 261.65 L196.71 260.96 L184.28 262.30 Z M193.78 261.65 L201.52 264.43 L196.71 260.96 Z M201.52 264.43 L204.52 263.97 L196.71 260.96 Z M201.52 264.43 L209.14 266.39 L204.52 263.97 Z M209.14 266.39 L212.32 265.68 L204.52 263.97 Z M209.14 266.39 L216.83 266.71 L212.32 265.68 Z M216.83 266.71 L220.00 265.76 L212.32 265.68 Z M216.83 266.71 L224.39 266.83 L220.00 265.76 Z M224.39 266.83 L227.48 265.81 L220.00 265.76 Z M224.39 266.83 L232.36 267.37 L227.48 265.81 Z M232.36 267.37 L235.43 266.42 L227.48 265.81 Z M232.36 267.37 L241.19 267.56 L235.43 266.42 Z M241.19 267.56 L244.30 266.85 L235.43 266.42 Z M241.19 267.56 L250.74 266.29 L244.30 266.85 Z M250.74 266.29 L253.74 265.63 L244.30 266.85 Z M250.74 266.29 L262.97 265.44 L253.74 265.63 Z M262.97 265.44 L265.47 264.42 L253.74 265.63 Z M262.97 265.44 L282.72 266.42 L265.47 264.42 Z M282.72 266.42 L284.97 265.38 L265.47 264.42 Z M282.72 266.42 L300.57 259.56 L284.97 265.38 Z M300.57 259.56 L302.86 259.04 L284.97 265.38 Z M300.57 259.56 L302.63 243.01 L302.86 259.04 Z M302.63 243.01 L303.80 242.76 L302.86 259.04 Z M302.63 243.01 L323.10 228.66 L303.80 242.76 Z M323.10 228.66 L323.10 228.66 L303.80 242.76 Z M362.37 204.98 L361.01 205.39 L323.10 228.66 Z M362.37 204.98 L361.84 177.17 L361.01 205.39 Z M361.84 177.17 L357.62 178.27 L361.01 205.39 Z M361.84 177.17 L321.57 167.29 L357.62 178.27 Z M321.57 167.29 L315.60 169.30 L357.62 178.27 Z M321.57 167.29 L278.03 174.95 L315.60 169.30 Z M278.03 174.95 L272.76 177.32 L315.60 169.30 Z M278.03 174.95 L248.66 188.22 L272.76 177.32 Z M248.66 188.22 L245.06 190.34 L272.76 177.32 Z M248.66 188.22 L232.44 200.23 L245.06 190.34 Z M232.44 200.23 L230.40 201.69 L245.06 190.34 Z M232.44 200.23 L226.81 203.60 L230.40 201.69 Z M226.81 203.60 L225.60 204.09 L230.40 201.69 Z M226.81 203.60 L224.38 201.29 L225.60 204.09 Z M224.38 201.29 L223.07 201.71 L225.60 204.09 Z M224.38 201.29 L221.39 199.56 L223.07 201.71 Z M221.39 199.56 L220.00 200.27 L223.07 201.71 Z "></path></svg>