<svg xmlns="http://www.w3.org/2000/svg" id="svg1" width="440" height="440" font-family="Times" font-size="14" oncopy="svg_copy(this);">
      <g id="gt" transform="translate(0,20)">
      </g>
   <path id="Xp" stroke="red" stroke-width="0.875" stroke-dasharray="1,0" fill="none" d="M220.00 280.00 L6704.27 824.65 Z "></path><path id="Xn" stroke="red" stroke-width="0.875" stroke-dasharray="2,4" fill="none" d="M220.00 280.00 L-6264.27 -264.65 Z "></path><path id="Yp" stroke="green" stroke-width="0.875" stroke-dasharray="1,0" fill="none" d="M220.00 280.00 L220.00 -6619.67 Z "></path><path id="Yn" stroke="green" stroke-width="0.875" stroke-dasharray="2,4" fill="none" d="M220.00 280.00 L220.00 7179.67 Z "></path><path id="Zp" stroke="blue" stroke-width="0.875" stroke-dasharray="1,0" fill="none" d="M220.00 280.00 L-2521.51 1568.23 Z "></path><path id="Zn" stroke="blue" stroke-width="0.875" stroke-dasharray="2,4" fill="none" d="M220.00 280.00 L2961.51 -1008.23 Z "></path><circle id="O" fill="black" stroke-width="1" stroke="none" r="4" cx="220" cy="280"><title>[0,0,0]</title></circle><circle id="lambda_0" fill="#FFAA33" stroke-width="1" stroke="none" r="4" cx="346.27261458835346" cy="290.60640032221363"><title>λ/2=0.0195</title></circle><path id="B11" stroke="black" stroke-width="0.5" stroke-dasharray="1,0" fill="none" d="M147.11 378.67 L40.34 428.84 L40.34 160.12 L147.11 109.95 Z M399.66 399.88 L292.89 450.05 L292.89 181.33 L399.66 131.16 Z M147.11 378.67 L399.66 399.88 Z M40.34 428.84 L292.89 450.05 Z M40.34 160.12 L292.89 181.33 Z M147.11 109.95 L399.66 131.16 Z Z "></path><path id="B1" stroke="black" stroke-width="0.5" stroke-dasharray="2,4" fill="none" d="M231.30 385.74 L124.52 435.91 L124.52 167.19 L231.30 117.02 Z M315.48 392.81 L208.70 442.98 L208.70 174.26 L315.48 124.09 Z M147.11 289.09 L40.34 339.27 L292.89 360.48 L399.66 310.31 Z M147.11 199.52 L40.34 249.69 L292.89 270.91 L399.66 220.73 Z M111.52 395.39 L111.52 126.67 L364.07 147.88 L364.07 416.61 Z M75.93 412.12 L75.93 143.39 L328.48 164.61 L328.48 433.33 Z "></path><path id="C1" stroke="green" stroke-width="1" stroke-dasharray="1,2" fill="none" d="M466.51 300.71 L466.47 296.12 L466.36 291.54 L466.17 286.95 L465.91 282.36 L465.57 277.77 L465.16 273.17 L464.67 268.58 L464.11 264.00 L463.47 259.42 L462.76 254.84 L461.98 250.28 L461.12 245.72 L460.19 241.17 L459.19 236.63 L458.11 232.11 L456.96 227.60 L455.74 223.11 L454.44 218.64 L453.08 214.18 L451.64 209.74 L450.14 205.33 L448.56 200.94 L446.91 196.57 L445.20 192.23 L443.41 187.91 L441.56 183.62 L439.64 179.37 L437.65 175.14 L435.60 170.94 L433.48 166.78 L431.30 162.65 L429.05 158.56 L426.74 154.51 L424.37 150.49 L421.93 146.51 L419.43 142.57 L416.87 138.68 L414.25 134.83 L411.57 131.02 L408.84 127.26 L406.04 123.54 L403.19 119.87 L400.29 116.25 L397.32 112.68 L394.31 109.17 L391.24 105.70 L388.12 102.29 L384.95 98.93 L381.72 95.62 L378.45 92.38 L375.13 89.18 L371.77 86.05 L368.35 82.98 L364.89 79.96 L361.39 77.01 L357.85 74.12 L354.26 71.29 L350.63 68.53 L346.96 65.83 L343.25 63.19 L339.51 60.62 L335.73 58.12 L331.91 55.69 L328.06 53.32 L324.18 51.03 L320.26 48.80 L316.32 46.64 L312.34 44.56 L308.34 42.54 L304.31 40.60 L300.26 38.73 L296.18 36.94 L292.07 35.21 L287.95 33.57 L283.80 32.00 L279.64 30.50 L275.45 29.08 L271.25 27.74 L267.04 26.47 L262.81 25.28 L258.56 24.17 L254.31 23.13 L250.04 22.18 L245.77 21.30 L241.48 20.50 L237.20 19.78 L232.90 19.14 L228.60 18.58 L224.30 18.10 L220.00 17.70 L215.70 17.38 L211.40 17.14 L207.10 16.97 L202.80 16.89 L198.52 16.89 L194.23 16.97 L189.96 17.13 L185.69 17.37 L181.44 17.69 L177.19 18.09 L172.96 18.57 L168.75 19.13 L164.55 19.76 L160.36 20.48 L156.20 21.28 L152.05 22.15 L147.93 23.11 L143.82 24.14 L139.74 25.25 L135.69 26.44 L131.66 27.70 L127.66 29.04 L123.68 30.46 L119.74 31.95 L115.82 33.52 L111.94 35.17 L108.09 36.89 L104.27 38.68 L100.49 40.55 L96.75 42.49 L93.04 44.50 L89.37 46.58 L85.74 48.74 L82.15 50.96 L78.61 53.26 L75.11 55.62 L71.65 58.06 L68.23 60.56 L64.87 63.12 L61.55 65.76 L58.28 68.45 L55.05 71.22 L51.88 74.04 L48.76 76.93 L45.69 79.88 L42.68 82.90 L39.71 85.97 L36.81 89.10 L33.96 92.29 L31.16 95.53 L28.43 98.84 L25.75 102.19 L23.13 105.61 L20.57 109.07 L18.07 112.59 L15.63 116.16 L13.26 119.78 L10.95 123.44 L8.70 127.16 L6.52 130.92 L4.40 134.72 L2.35 138.57 L0.36 142.47 L-1.56 146.40 L-3.41 150.38 L-5.20 154.40 L-6.91 158.45 L-8.56 162.54 L-10.14 166.67 L-11.64 170.83 L-13.08 175.03 L-14.44 179.25 L-15.74 183.51 L-16.96 187.80 L-18.11 192.11 L-19.19 196.45 L-20.19 200.82 L-21.12 205.21 L-21.98 209.63 L-22.76 214.06 L-23.47 218.52 L-24.11 222.99 L-24.67 227.48 L-25.16 231.99 L-25.57 236.51 L-25.91 241.05 L-26.17 245.59 L-26.36 250.15 L-26.47 254.72 L-26.51 259.29 L-26.47 263.88 L-26.36 268.46 L-26.17 273.05 L-25.91 277.64 L-25.57 282.23 L-25.16 286.83 L-24.67 291.42 L-24.11 296.00 L-23.47 300.58 L-22.76 305.16 L-21.98 309.72 L-21.12 314.28 L-20.19 318.83 L-19.19 323.37 L-18.11 327.89 L-16.96 332.40 L-15.74 336.89 L-14.44 341.36 L-13.08 345.82 L-11.64 350.26 L-10.14 354.67 L-8.56 359.06 L-6.91 363.43 L-5.20 367.77 L-3.41 372.09 L-1.56 376.38 L0.36 380.63 L2.35 384.86 L4.40 389.06 L6.52 393.22 L8.70 397.35 L10.95 401.44 L13.26 405.49 L15.63 409.51 L18.07 413.49 L20.57 417.43 L23.13 421.32 L25.75 425.17 L28.43 428.98 L31.16 432.74 L33.96 436.46 L36.81 440.13 L39.71 443.75 L42.68 447.32 L45.69 450.83 L48.76 454.30 L51.88 457.71 L55.05 461.07 L58.28 464.38 L61.55 467.62 L64.87 470.82 L68.23 473.95 L71.65 477.02 L75.11 480.04 L78.61 482.99 L82.15 485.88 L85.74 488.71 L89.37 491.47 L93.04 494.17 L96.75 496.81 L100.49 499.38 L104.27 501.88 L108.09 504.31 L111.94 506.68 L115.82 508.97 L119.74 511.20 L123.68 513.36 L127.66 515.44 L131.66 517.46 L135.69 519.40 L139.74 521.27 L143.82 523.06 L147.93 524.79 L152.05 526.43 L156.20 528.00 L160.36 529.50 L164.55 530.92 L168.75 532.26 L172.96 533.53 L177.19 534.72 L181.44 535.83 L185.69 536.87 L189.96 537.82 L194.23 538.70 L198.52 539.50 L202.80 540.22 L207.10 540.86 L211.40 541.42 L215.70 541.90 L220.00 542.30 L224.30 542.62 L228.60 542.86 L232.90 543.03 L237.20 543.11 L241.48 543.11 L245.77 543.03 L250.04 542.87 L254.31 542.63 L258.56 542.31 L262.81 541.91 L267.04 541.43 L271.25 540.87 L275.45 540.24 L279.64 539.52 L283.80 538.72 L287.95 537.85 L292.07 536.89 L296.18 535.86 L300.26 534.75 L304.31 533.56 L308.34 532.30 L312.34 530.96 L316.32 529.54 L320.26 528.05 L324.18 526.48 L328.06 524.83 L331.91 523.11 L335.73 521.32 L339.51 519.45 L343.25 517.51 L346.96 515.50 L350.63 513.42 L354.26 511.26 L357.85 509.04 L361.39 506.74 L364.89 504.38 L368.35 501.94 L371.77 499.44 L375.13 496.88 L378.45 494.24 L381.72 491.55 L384.95 488.78 L388.12 485.96 L391.24 483.07 L394.31 480.12 L397.32 477.10 L400.29 474.03 L403.19 470.90 L406.04 467.71 L408.84 464.47 L411.57 461.16 L414.25 457.81 L416.87 454.39 L419.43 450.93 L421.93 447.41 L424.37 443.84 L426.74 440.22 L429.05 436.56 L431.30 432.84 L433.48 429.08 L435.60 425.28 L437.65 421.43 L439.64 417.53 L441.56 413.60 L443.41 409.62 L445.20 405.60 L446.91 401.55 L448.56 397.46 L450.14 393.33 L451.64 389.17 L453.08 384.97 L454.44 380.75 L455.74 376.49 L456.96 372.20 L458.11 367.89 L459.19 363.55 L460.19 359.18 L461.12 354.79 L461.98 350.37 L462.76 345.94 L463.47 341.48 L464.11 337.01 L464.67 332.52 L465.16 328.01 L465.57 323.49 L465.91 318.95 L466.17 314.41 L466.36 309.85 L466.47 305.28 Z "></path><path id="C1h" stroke="green" stroke-width="1" stroke-dasharray="1,2" fill="none" d="M466.51 300.71 L464.65 301.56 L462.72 302.40 L460.72 303.24 L458.64 304.07 L456.49 304.90 L454.26 305.71 L451.97 306.52 L449.61 307.32 L447.17 308.11 L444.67 308.90 L442.09 309.67 L439.45 310.44 L436.75 311.19 L433.97 311.94 L431.13 312.68 L428.23 313.40 L425.27 314.12 L422.24 314.83 L419.15 315.52 L416.00 316.21 L412.79 316.88 L409.52 317.54 L406.19 318.20 L402.81 318.84 L399.37 319.46 L395.87 320.08 L392.33 320.68 L388.73 321.27 L385.07 321.85 L381.37 322.42 L377.62 322.97 L373.82 323.51 L369.98 324.04 L366.08 324.55 L362.15 325.05 L358.17 325.54 L354.15 326.01 L350.09 326.47 L345.98 326.91 L341.84 327.34 L337.67 327.76 L333.45 328.16 L329.21 328.54 L324.92 328.91 L320.61 329.27 L316.27 329.61 L311.90 329.94 L307.49 330.25 L303.07 330.55 L298.61 330.83 L294.14 331.09 L289.64 331.34 L285.12 331.57 L280.58 331.79 L276.02 331.99 L271.44 332.18 L266.85 332.35 L262.24 332.50 L257.63 332.64 L253.00 332.77 L248.36 332.87 L243.71 332.96 L239.05 333.04 L234.39 333.09 L229.72 333.14 L225.05 333.16 L220.38 333.17 L215.71 333.16 L211.04 333.14 L206.37 333.10 L201.71 333.05 L197.05 332.98 L192.40 332.89 L187.76 332.78 L183.13 332.66 L178.51 332.53 L173.90 332.38 L169.31 332.21 L164.73 332.02 L160.17 331.83 L155.62 331.61 L151.10 331.38 L146.60 331.13 L142.12 330.87 L137.66 330.59 L133.23 330.30 L128.82 329.99 L124.44 329.67 L120.10 329.33 L115.78 328.97 L111.49 328.60 L107.24 328.22 L103.02 327.82 L98.84 327.41 L94.69 326.98 L90.58 326.54 L86.51 326.09 L82.48 325.62 L78.50 325.13 L74.56 324.63 L70.66 324.12 L66.80 323.60 L63.00 323.06 L59.24 322.51 L55.53 321.95 L51.87 321.37 L48.26 320.78 L44.70 320.18 L41.20 319.56 L37.75 318.94 L34.36 318.30 L31.02 317.65 L27.74 316.99 L24.52 316.32 L21.36 315.63 L18.26 314.94 L15.22 314.24 L12.25 313.52 L9.34 312.80 L6.49 312.06 L3.70 311.31 L0.98 310.56 L-1.67 309.80 L-4.25 309.02 L-6.77 308.24 L-9.21 307.45 L-11.59 306.65 L-13.89 305.84 L-16.13 305.03 L-18.29 304.21 L-20.38 303.38 L-22.40 302.54 L-24.34 301.70 L-26.21 300.85 L-28.00 299.99 L-29.72 299.13 L-31.36 298.26 L-32.93 297.38 L-34.42 296.50 L-35.83 295.62 L-37.16 294.73 L-38.42 293.83 L-39.59 292.94 L-40.69 292.03 L-41.71 291.13 L-42.65 290.22 L-43.50 289.31 L-44.28 288.39 L-44.98 287.48 L-45.59 286.56 L-46.13 285.63 L-46.58 284.71 L-46.96 283.78 L-47.25 282.86 L-47.46 281.93 L-47.59 281.00 L-47.64 280.08 L-47.60 279.15 L-47.49 278.22 L-47.29 277.29 L-47.01 276.37 L-46.65 275.44 L-46.21 274.52 L-45.69 273.60 L-45.08 272.68 L-44.40 271.76 L-43.64 270.84 L-42.79 269.93 L-41.87 269.02 L-40.86 268.11 L-39.78 267.21 L-38.62 266.31 L-37.37 265.42 L-36.05 264.53 L-34.65 263.64 L-33.18 262.76 L-31.63 261.89 L-30.00 261.02 L-28.29 260.15 L-26.51 259.29 L-24.65 258.44 L-22.72 257.60 L-20.72 256.76 L-18.64 255.93 L-16.49 255.10 L-14.26 254.29 L-11.97 253.48 L-9.61 252.68 L-7.17 251.89 L-4.67 251.10 L-2.09 250.33 L0.55 249.56 L3.25 248.81 L6.03 248.06 L8.87 247.32 L11.77 246.60 L14.73 245.88 L17.76 245.17 L20.85 244.48 L24.00 243.79 L27.21 243.12 L30.48 242.46 L33.81 241.80 L37.19 241.16 L40.63 240.54 L44.13 239.92 L47.67 239.32 L51.27 238.73 L54.93 238.15 L58.63 237.58 L62.38 237.03 L66.18 236.49 L70.02 235.96 L73.92 235.45 L77.85 234.95 L81.83 234.46 L85.85 233.99 L89.91 233.53 L94.02 233.09 L98.16 232.66 L102.33 232.24 L106.55 231.84 L110.79 231.46 L115.08 231.09 L119.39 230.73 L123.73 230.39 L128.10 230.06 L132.51 229.75 L136.93 229.45 L141.39 229.17 L145.86 228.91 L150.36 228.66 L154.88 228.43 L159.42 228.21 L163.98 228.01 L168.56 227.82 L173.15 227.65 L177.76 227.50 L182.37 227.36 L187.00 227.23 L191.64 227.13 L196.29 227.04 L200.95 226.96 L205.61 226.91 L210.28 226.86 L214.95 226.84 L219.62 226.83 L224.29 226.84 L228.96 226.86 L233.63 226.90 L238.29 226.95 L242.95 227.02 L247.60 227.11 L252.24 227.22 L256.87 227.34 L261.49 227.47 L266.10 227.62 L270.69 227.79 L275.27 227.98 L279.83 228.17 L284.38 228.39 L288.90 228.62 L293.40 228.87 L297.88 229.13 L302.34 229.41 L306.77 229.70 L311.18 230.01 L315.56 230.33 L319.90 230.67 L324.22 231.03 L328.51 231.40 L332.76 231.78 L336.98 232.18 L341.16 232.59 L345.31 233.02 L349.42 233.46 L353.49 233.91 L357.52 234.38 L361.50 234.87 L365.44 235.37 L369.34 235.88 L373.20 236.40 L377.00 236.94 L380.76 237.49 L384.47 238.05 L388.13 238.63 L391.74 239.22 L395.30 239.82 L398.80 240.44 L402.25 241.06 L405.64 241.70 L408.98 242.35 L412.26 243.01 L415.48 243.68 L418.64 244.37 L421.74 245.06 L424.78 245.76 L427.75 246.48 L430.66 247.20 L433.51 247.94 L436.30 248.69 L439.02 249.44 L441.67 250.20 L444.25 250.98 L446.77 251.76 L449.21 252.55 L451.59 253.35 L453.89 254.16 L456.13 254.97 L458.29 255.79 L460.38 256.62 L462.40 257.46 L464.34 258.30 L466.21 259.15 L468.00 260.01 L469.72 260.87 L471.36 261.74 L472.93 262.62 L474.42 263.50 L475.83 264.38 L477.16 265.27 L478.42 266.17 L479.59 267.06 L480.69 267.97 L481.71 268.87 L482.65 269.78 L483.50 270.69 L484.28 271.61 L484.98 272.52 L485.59 273.44 L486.13 274.37 L486.58 275.29 L486.96 276.22 L487.25 277.14 L487.46 278.07 L487.59 279.00 L487.64 279.92 L487.60 280.85 L487.49 281.78 L487.29 282.71 L487.01 283.63 L486.65 284.56 L486.21 285.48 L485.69 286.40 L485.08 287.32 L484.40 288.24 L483.64 289.16 L482.79 290.07 L481.87 290.98 L480.86 291.89 L479.78 292.79 L478.62 293.69 L477.37 294.58 L476.05 295.47 L474.65 296.36 L473.18 297.24 L471.63 298.11 L470.00 298.98 L468.29 299.85 Z "></path><path id="C2" stroke="green" stroke-width="1" stroke-dasharray="1,1" fill="none" d="M466.51 300.71 L459.11 300.08 Z M458.11 232.11 L450.97 233.55 Z M433.48 166.78 L427.08 170.18 Z M394.31 109.17 L389.08 114.29 Z M343.25 63.19 L339.56 69.70 Z M283.80 32.00 L281.89 39.44 Z M220.00 17.70 L220.00 25.57 Z M156.20 21.28 L158.11 29.04 Z M96.75 42.49 L100.44 49.61 Z M45.69 79.88 L50.92 85.89 Z M6.52 130.92 L12.92 135.39 Z M-18.11 192.11 L-10.97 194.75 Z M-26.51 259.29 L-19.11 259.92 Z M-18.11 327.89 L-10.97 326.45 Z M6.52 393.22 L12.92 389.82 Z M45.69 450.83 L50.92 445.71 Z M96.75 496.81 L100.44 490.30 Z M156.20 528.00 L158.11 520.56 Z M220.00 542.30 L220.00 534.43 Z M283.80 538.72 L281.89 530.96 Z M343.25 517.51 L339.56 510.39 Z M394.31 480.12 L389.08 474.11 Z M433.48 429.08 L427.08 424.61 Z M458.11 367.89 L450.97 365.25 Z "></path><path id="C2h" stroke="green" stroke-width="1" stroke-dasharray="1,1" fill="none" d="M466.51 300.71 L459.11 300.08 Z M431.13 312.68 L424.80 311.70 Z M381.37 322.42 L376.53 321.15 Z M320.61 329.27 L317.59 327.79 Z M253.00 332.77 L252.01 331.18 Z M183.13 332.66 L184.24 331.08 Z M115.78 328.97 L118.90 327.50 Z M55.53 321.95 L60.46 320.69 Z M6.49 312.06 L12.89 311.10 Z M-28.00 299.99 L-20.56 299.39 Z M-45.59 286.56 L-37.63 286.36 Z M-45.08 272.68 L-37.13 272.89 Z M-26.51 259.29 L-19.11 259.92 Z M8.87 247.32 L15.20 248.30 Z M58.63 237.58 L63.47 238.85 Z M119.39 230.73 L122.41 232.21 Z M187.00 227.23 L187.99 228.82 Z M256.87 227.34 L255.76 228.92 Z M324.22 231.03 L321.10 232.50 Z M384.47 238.05 L379.54 239.31 Z M433.51 247.94 L427.11 248.90 Z M468.00 260.01 L460.56 260.61 Z M485.59 273.44 L477.63 273.64 Z M485.08 287.32 L477.13 287.11 Z "></path><circle id="th_xy" fill="green" stroke-width="1" stroke="none" r="4" cx="220" cy="17.69880114218722"><title>θ=270 Φ=0</title></circle><path id="M" stroke="#0b22ae" stroke-width="0.5" stroke-dasharray="1,0" fill="none" d="M217.78 347.23 L216.11 343.03 L230.89 334.96 Z M290.58 376.59 L304.53 372.34 L295.64 360.61 Z M165.64 260.19 L187.64 273.65 L185.49 261.27 Z M246.43 369.22 L221.81 358.66 L226.94 371.49 Z M235.98 347.15 L235.34 358.65 L246.43 369.22 Z M195.90 329.25 L191.98 328.90 L195.52 319.01 Z M233.42 296.20 L233.02 285.13 L217.00 285.65 Z M171.06 222.29 L157.40 233.72 L179.04 234.84 Z M232.56 390.73 L240.86 387.79 L226.94 371.49 Z M225.07 303.08 L233.20 301.47 L231.26 320.53 Z M107.48 150.85 L112.18 153.03 L108.88 149.26 Z M263.19 358.73 L246.43 369.22 L251.08 367.18 Z M247.40 284.94 L250.57 293.33 L261.33 297.44 Z M233.02 303.07 L233.42 296.20 L217.00 285.65 Z M78.45 201.88 L83.60 209.30 L89.49 223.69 Z M78.45 201.88 L83.42 205.46 L83.60 209.30 Z M113.27 236.57 L128.37 253.64 L127.00 225.85 Z M178.35 287.74 L193.98 293.97 L187.64 273.65 Z M199.67 256.54 L185.49 261.27 L206.60 274.95 Z M121.78 152.15 L112.18 153.03 L130.09 155.27 Z M245.16 306.98 L238.14 325.87 L231.26 320.53 Z M216.26 377.22 L211.25 368.98 L225.08 365.54 Z M170.73 280.84 L167.13 293.76 L178.35 287.74 Z M177.71 322.55 L182.20 301.61 L195.52 319.01 Z M142.24 164.43 L130.09 155.27 L123.16 160.81 Z M80.83 180.30 L77.01 185.47 L79.63 170.43 Z M208.10 225.36 L214.85 234.50 L203.85 223.38 Z M264.91 281.05 L273.44 289.56 L262.72 279.27 Z M153.12 330.53 L156.41 334.11 L149.63 324.93 Z M155.76 295.35 L147.96 274.07 L143.05 291.13 Z M112.67 184.67 L102.90 170.32 L111.46 173.91 Z M197.58 376.29 L214.14 388.06 L203.79 382.17 Z M89.49 223.69 L91.20 225.39 L78.45 201.88 Z M136.16 285.61 L143.05 291.13 L147.96 274.07 Z M265.97 393.43 L257.02 387.80 L270.98 388.32 Z M112.54 165.42 L111.46 173.91 L102.90 170.32 Z M103.18 220.66 L113.15 232.21 L93.28 215.05 Z M174.56 356.07 L173.73 358.58 L167.85 351.27 Z M94.39 178.98 L87.46 173.06 L97.21 157.67 Z M215.72 335.25 L195.52 319.01 L222.93 325.77 Z M163.33 343.90 L161.70 336.99 L154.41 328.31 Z M233.46 321.04 L256.84 330.82 L236.81 315.80 Z M116.08 149.85 L114.83 161.88 L112.52 161.92 Z M111.08 247.61 L100.48 243.96 L111.15 260.93 Z M210.79 327.73 L194.90 310.43 L175.58 311.45 Z M225.08 365.54 L211.25 368.98 L212.50 361.89 Z M97.27 180.61 L93.09 193.63 L109.51 181.64 Z M248.51 347.47 L235.98 347.15 L246.43 369.22 Z M286.90 309.46 L302.23 320.65 L288.67 323.43 Z M173.23 267.06 L187.64 273.65 L165.64 260.19 Z M199.99 249.12 L185.13 246.54 L192.21 243.76 Z M94.39 178.98 L97.21 157.67 L102.90 170.32 Z M178.65 362.69 L173.73 358.58 L174.56 356.07 Z M227.60 246.08 L233.92 256.27 L237.81 258.78 Z M79.56 201.24 L75.51 188.74 L78.45 201.88 Z M188.64 245.28 L195.97 242.62 L186.08 236.42 Z M102.90 170.32 L106.62 163.67 L112.52 161.92 Z M306.35 357.35 L292.68 341.94 L283.97 341.85 Z M264.01 281.13 L267.56 286.72 L273.44 289.56 Z M306.35 357.35 L283.97 341.85 L283.87 351.93 Z M273.89 326.61 L277.45 351.71 L260.39 334.39 Z M136.16 285.61 L147.96 274.07 L134.30 275.86 Z M157.21 277.66 L161.33 262.63 L171.65 277.34 Z M108.68 236.94 L114.04 253.84 L110.82 248.09 Z M165.93 323.93 L172.91 338.07 L173.49 325.51 Z M218.83 247.59 L223.15 257.20 L200.86 237.60 Z M165.64 260.19 L145.19 254.88 L147.96 274.07 Z M170.76 352.43 L161.70 336.99 L163.33 343.90 Z M337.62 367.01 L346.03 362.47 L348.59 367.41 Z M102.66 238.78 L111.08 247.61 L113.27 236.57 Z M211.25 368.98 L216.26 377.22 L209.86 375.62 Z M228.55 364.94 L225.08 365.54 L212.50 361.89 Z M175.58 311.45 L165.93 323.93 L174.81 319.23 Z M153.12 330.53 L145.16 317.90 L151.44 325.65 Z M171.65 277.34 L161.33 262.63 L164.51 252.31 Z M230.61 388.56 L248.70 391.67 L238.31 393.01 Z M124.30 286.67 L120.44 281.22 L119.30 278.51 Z M195.97 242.62 L188.64 245.28 L206.45 253.46 Z M93.09 193.63 L79.92 183.96 L79.56 201.24 Z M173.49 325.51 L172.91 338.07 L174.81 319.23 Z M93.09 193.63 L97.27 180.61 L79.92 183.96 Z M248.70 391.67 L241.77 388.56 L244.30 385.62 Z M288.59 306.56 L301.79 318.14 L299.23 315.23 Z M187.64 273.65 L173.23 267.06 L168.20 275.31 Z M116.10 211.79 L115.67 199.14 L127.62 193.91 Z M315.82 405.04 L305.62 405.60 L305.80 404.36 Z M174.81 319.23 L187.61 319.90 L175.58 311.45 Z M247.40 284.94 L236.93 283.34 L233.02 285.13 Z M140.03 247.64 L132.93 224.04 L143.72 235.04 Z M223.41 280.60 L233.20 301.47 L212.65 296.02 Z M227.60 246.08 L247.22 267.89 L250.42 269.02 Z M208.69 352.32 L200.49 351.00 L216.11 343.03 Z M94.51 155.24 L112.18 153.03 L107.48 150.85 Z M102.90 170.32 L97.21 157.67 L109.53 153.68 Z M127.62 193.91 L132.93 224.04 L116.10 211.79 Z M158.36 217.92 L163.11 201.56 L155.06 196.26 Z M183.57 296.73 L178.35 287.74 L167.13 293.76 Z M290.26 306.26 L293.91 311.29 L273.44 289.56 Z M147.96 274.07 L155.76 295.35 L156.00 284.78 Z M206.45 253.46 L199.67 256.54 L206.60 274.95 Z M145.81 195.41 L132.98 179.98 L141.03 192.61 Z M281.00 397.12 L270.98 388.32 L283.65 390.66 Z M83.85 174.64 L99.87 173.08 L103.06 160.46 Z M171.65 277.34 L160.47 282.64 L157.21 277.66 Z M127.62 193.91 L115.67 199.14 L112.67 184.67 Z M209.86 375.62 L190.80 363.50 L211.25 368.98 Z M357.37 387.27 L351.53 394.68 L352.37 394.56 Z M250.42 269.02 L254.50 278.08 L267.56 286.72 Z M288.67 323.43 L287.29 331.67 L283.77 341.14 Z M136.86 199.71 L141.03 192.61 L132.98 179.98 Z M83.85 174.64 L79.33 173.73 L75.51 188.74 Z M165.64 260.19 L147.96 274.07 L156.81 270.94 Z M91.26 160.52 L86.69 161.65 L79.63 170.43 Z M284.15 403.10 L288.98 402.06 L305.80 404.36 Z M134.30 275.86 L147.96 274.07 L136.92 272.67 Z M255.80 395.25 L258.39 401.42 L262.63 393.77 Z M266.65 406.80 L291.08 409.31 L289.35 406.60 Z M233.42 296.20 L233.02 303.07 L251.26 304.13 Z M140.50 312.31 L131.32 295.68 L137.07 307.66 Z M273.89 326.61 L283.77 341.14 L277.45 351.71 Z M181.62 353.06 L171.00 348.18 L176.62 343.60 Z M233.02 303.07 L236.81 315.80 L256.84 330.82 Z M109.60 149.80 L108.88 149.26 L116.08 149.85 Z M241.68 258.69 L255.42 274.11 L246.08 266.81 Z M262.97 287.42 L249.21 279.27 L247.40 284.94 Z M233.02 303.07 L217.00 285.65 L210.48 293.42 Z M200.05 361.19 L190.80 363.50 L194.82 352.49 Z M297.86 402.46 L305.80 404.36 L288.98 402.06 Z M290.95 381.20 L289.27 380.93 L291.70 376.85 Z M283.87 351.93 L295.64 360.61 L306.35 357.35 Z M171.65 277.34 L164.51 252.31 L175.29 264.79 Z M251.08 367.18 L246.43 369.22 L256.00 379.22 Z M248.07 401.36 L258.39 401.42 L255.80 395.25 Z M297.86 402.46 L281.00 397.12 L305.80 404.36 Z M167.85 351.27 L173.73 358.58 L170.76 352.43 Z M236.69 293.49 L251.26 304.13 L250.57 293.33 Z M91.20 225.39 L100.48 243.96 L98.57 226.11 Z M337.62 367.01 L320.80 363.90 L327.93 357.76 Z M328.92 349.57 L324.51 355.52 L309.25 336.24 Z M248.51 347.47 L267.98 347.89 L248.35 332.00 Z M200.50 224.06 L194.74 214.83 L203.85 223.38 Z M167.65 323.29 L163.14 317.05 L177.71 322.55 Z M111.15 260.93 L100.48 243.96 L109.07 261.43 Z M288.59 306.56 L285.36 310.00 L303.02 323.49 Z M325.12 368.97 L316.77 374.13 L332.63 379.59 Z M318.15 357.06 L309.25 336.24 L324.51 355.52 Z M248.07 401.36 L242.63 400.73 L262.29 406.46 Z M189.06 212.38 L185.62 214.21 L191.07 219.01 Z M200.05 361.19 L211.25 368.98 L190.80 363.50 Z M224.34 318.20 L205.32 309.22 L210.79 327.73 Z M212.97 372.74 L210.42 380.80 L232.56 390.73 Z M200.86 237.60 L186.65 220.31 L200.50 224.06 Z M264.84 287.84 L272.11 291.88 L275.49 304.56 Z M340.18 357.63 L328.18 349.37 L337.16 361.31 Z M124.23 149.11 L121.78 152.15 L130.09 155.27 Z M257.32 273.71 L273.44 289.56 L264.91 281.05 Z M246.72 315.62 L251.49 312.04 L233.02 303.07 Z M302.28 398.23 L305.80 404.36 L296.69 398.26 Z M284.88 392.20 L262.63 393.77 L275.16 397.22 Z M183.03 349.14 L187.38 345.52 L172.91 338.07 Z M332.63 379.59 L338.37 386.36 L349.01 384.27 Z M93.28 215.05 L100.54 233.08 L93.82 221.36 Z M165.34 292.42 L160.47 282.64 L171.65 277.34 Z M351.53 394.68 L354.03 378.75 L349.01 384.27 Z M231.26 320.53 L224.68 337.93 L215.72 335.25 Z M273.44 289.56 L283.73 300.78 L277.61 295.77 Z M93.09 193.63 L85.57 204.10 L90.76 215.55 Z M346.63 398.04 L352.37 394.56 L351.53 394.68 Z M275.58 293.14 L267.56 286.72 L279.71 300.21 Z M119.02 178.98 L109.51 181.64 L108.34 190.76 Z M317.66 386.53 L292.80 388.95 L308.89 381.18 Z M78.45 201.88 L85.57 204.10 L79.56 201.24 Z M128.37 253.64 L141.64 242.82 L128.83 237.70 Z M150.94 299.11 L159.39 293.20 L158.39 297.53 Z M228.21 382.62 L230.61 388.56 L216.26 377.22 Z M94.51 233.26 L91.20 225.39 L89.49 223.69 Z M171.24 333.65 L163.05 330.93 L163.50 324.80 Z M223.01 328.36 L224.34 318.20 L219.17 332.72 Z M217.00 285.65 L206.60 274.95 L203.71 287.43 Z M266.65 406.80 L258.39 401.42 L259.93 405.69 Z M295.53 382.90 L292.80 388.95 L275.55 383.32 Z M107.48 150.85 L102.67 151.42 L94.51 155.24 Z M301.79 318.14 L288.59 306.56 L303.02 323.49 Z M203.35 306.87 L223.53 309.96 L215.81 313.41 Z M281.00 397.12 L283.65 390.66 L292.80 388.95 Z M75.51 188.74 L79.56 201.24 L79.92 183.96 Z M294.67 350.11 L296.68 333.85 L318.15 357.06 Z M145.19 254.88 L165.64 260.19 L166.50 252.44 Z M129.93 296.50 L137.07 307.66 L131.32 295.68 Z M141.64 242.82 L127.00 225.85 L128.83 237.70 Z M337.62 367.01 L337.00 355.95 L346.03 362.47 Z M177.14 354.29 L181.62 353.06 L174.56 356.07 Z M212.50 361.89 L211.25 368.98 L203.22 356.00 Z M147.64 178.69 L133.60 169.80 L132.98 179.98 Z M189.97 273.31 L175.29 264.79 L184.43 262.68 Z M127.56 186.59 L119.02 178.98 L121.64 193.60 Z M140.03 247.64 L152.27 238.97 L147.69 255.77 Z M205.67 375.42 L212.97 372.74 L208.49 357.16 Z M203.35 306.87 L211.10 303.29 L223.53 309.96 Z M141.64 242.82 L150.11 245.18 L145.29 225.84 Z M156.81 270.94 L147.96 274.07 L156.00 284.78 Z M177.35 202.14 L184.12 198.54 L186.65 220.31 Z M171.51 208.31 L158.36 217.92 L171.06 222.29 Z M159.43 337.52 L158.62 332.13 L167.85 351.27 Z M96.63 237.67 L94.51 233.26 L89.49 223.69 Z M171.24 333.65 L186.81 341.16 L176.62 343.60 Z M149.94 226.87 L150.11 245.18 L157.40 233.72 Z M152.39 314.11 L160.97 305.88 L147.17 314.22 Z M136.92 272.67 L147.96 274.07 L128.37 253.64 Z M323.46 394.28 L315.82 405.04 L305.80 404.36 Z M236.37 398.19 L242.63 400.73 L226.10 394.71 Z M164.19 187.89 L163.11 201.56 L171.51 208.31 Z M202.06 220.90 L190.49 205.50 L190.43 207.78 Z M178.65 362.69 L174.56 356.07 L181.81 363.04 Z M323.46 394.28 L305.80 404.36 L302.28 398.23 Z M226.10 394.71 L239.05 397.39 L236.37 398.19 Z M228.93 377.26 L225.08 365.54 L238.33 382.18 Z M160.47 282.64 L165.34 292.42 L157.21 277.66 Z M133.27 206.60 L129.18 212.85 L137.06 217.88 Z M183.03 349.14 L187.36 365.14 L189.14 359.23 Z M145.16 317.90 L158.62 332.13 L151.44 325.65 Z M212.50 361.89 L220.00 358.38 L228.55 364.94 Z M99.87 173.08 L97.27 180.61 L109.51 181.64 Z M270.69 329.26 L283.97 341.85 L292.68 341.94 Z M91.12 218.96 L89.49 223.69 L83.42 205.46 Z M103.26 208.07 L103.35 212.91 L97.83 205.10 Z M202.06 220.90 L199.19 221.24 L207.35 231.89 Z M217.03 385.59 L232.56 390.73 L210.42 380.80 Z M149.63 324.93 L147.17 314.22 L140.50 312.31 Z M81.56 198.01 L77.01 185.47 L80.83 180.30 Z M138.03 296.70 L131.27 284.66 L150.94 299.11 Z M131.32 295.68 L140.50 312.31 L147.17 314.22 Z M281.00 397.12 L265.97 393.43 L270.98 388.32 Z M198.21 377.55 L187.36 365.14 L189.90 371.08 Z M169.14 221.10 L152.18 199.18 L164.78 204.81 Z M171.00 348.18 L174.56 356.07 L167.85 351.27 Z M80.41 195.13 L77.01 185.47 L81.56 198.01 Z M216.50 264.54 L214.97 271.27 L221.32 271.27 Z M205.32 309.22 L175.58 311.45 L194.90 310.43 Z M280.50 405.80 L305.80 404.36 L298.79 408.71 Z M167.13 293.76 L175.58 311.45 L183.57 296.73 Z M223.53 309.96 L231.26 320.53 L222.93 325.77 Z M201.44 233.96 L207.35 231.89 L195.54 223.75 Z M205.67 375.42 L208.49 357.16 L193.91 353.30 Z M218.84 256.86 L216.50 264.54 L221.32 271.27 Z M315.96 330.59 L311.89 328.49 L314.69 331.88 Z M93.28 215.05 L93.82 221.36 L91.12 218.96 Z M142.66 302.70 L150.94 299.11 L149.82 301.19 Z M152.27 238.97 L140.03 247.64 L143.94 240.78 Z M152.61 161.96 L146.60 167.42 L147.68 164.77 Z M137.34 273.12 L146.46 287.31 L132.00 275.50 Z M91.20 225.39 L96.63 237.67 L100.48 243.96 Z M261.90 280.78 L262.72 279.27 L272.11 291.88 Z M147.69 255.77 L159.78 236.05 L164.51 252.31 Z M108.68 236.94 L126.32 245.29 L120.96 251.08 Z M233.92 256.27 L227.60 246.08 L223.98 246.27 Z M201.44 233.96 L205.64 240.30 L209.08 237.57 Z M283.64 400.71 L289.35 406.60 L284.88 392.20 Z M248.70 391.67 L265.97 393.43 L265.00 397.80 Z M241.68 258.69 L229.61 254.37 L230.33 246.46 Z M167.13 293.76 L157.23 293.80 L155.76 295.35 Z M312.39 327.28 L315.96 330.59 L322.70 336.68 Z M233.92 256.27 L222.09 248.09 L230.36 258.57 Z M223.41 280.60 L212.65 296.02 L203.92 287.57 Z M139.88 151.99 L142.83 156.95 L133.69 151.84 Z M120.32 275.48 L113.26 256.73 L111.15 260.93 Z M200.86 237.60 L214.85 234.50 L215.14 237.91 Z M99.99 192.49 L81.56 198.01 L87.95 190.13 Z M270.98 388.32 L257.02 387.80 L253.62 381.31 Z M100.48 243.96 L111.08 247.61 L102.66 238.78 Z M318.26 348.33 L319.60 353.20 L325.48 351.37 Z M248.07 401.36 L233.16 393.38 L233.90 396.87 Z M141.64 242.82 L137.06 217.88 L127.00 225.85 Z M163.11 201.56 L147.64 178.69 L155.06 196.26 Z M155.06 196.26 L147.64 178.69 L147.57 187.51 Z M357.37 387.27 L346.63 398.04 L355.81 381.93 Z M114.04 253.84 L108.68 236.94 L120.96 251.08 Z M158.77 190.15 L152.89 183.93 L168.21 189.53 Z M89.49 223.69 L93.82 221.36 L100.54 233.08 Z M328.18 349.37 L334.16 349.76 L325.97 344.23 Z M155.76 295.35 L160.97 305.88 L167.13 293.76 Z M302.23 320.65 L286.90 309.46 L293.91 311.29 Z M187.35 202.46 L182.25 199.36 L189.06 212.38 Z M208.69 352.32 L203.22 356.00 L200.49 351.00 Z M269.25 310.16 L269.95 322.19 L278.38 316.61 Z M268.97 366.75 L245.54 350.23 L264.39 357.29 Z M222.09 248.09 L218.84 256.86 L230.36 258.57 Z M140.75 169.24 L147.64 178.69 L152.96 174.64 Z M193.98 293.97 L178.35 287.74 L183.57 296.73 Z M147.69 255.77 L164.51 252.31 L161.33 262.63 Z M280.18 360.06 L268.97 366.75 L277.45 351.71 Z M351.53 394.68 L350.39 391.11 L347.01 394.58 Z M177.35 202.14 L168.21 189.53 L173.56 185.66 Z M94.39 178.98 L99.99 192.49 L87.95 190.13 Z M230.89 334.96 L231.26 320.53 L238.14 325.87 Z M288.67 323.43 L273.89 326.61 L281.47 317.35 Z M217.51 390.83 L212.07 386.82 L203.79 382.17 Z M150.69 205.56 L150.33 214.37 L158.36 217.92 Z M253.53 372.58 L263.13 380.91 L225.08 365.54 Z M328.92 349.57 L319.22 335.84 L322.70 336.68 Z M267.56 286.72 L270.80 295.59 L279.71 300.21 Z M238.31 393.01 L239.05 397.39 L224.08 392.19 Z M281.44 409.39 L266.65 406.80 L262.29 406.46 Z M349.54 377.62 L350.07 366.84 L355.81 381.93 Z M306.35 357.35 L315.45 366.85 L318.63 358.96 Z M284.63 340.57 L277.45 351.71 L283.77 341.14 Z M339.42 383.02 L355.81 381.93 L348.15 389.58 Z M246.72 315.62 L233.02 303.07 L256.84 330.82 Z M145.29 225.84 L137.06 217.88 L141.64 242.82 Z M237.43 287.14 L249.59 284.91 L242.07 302.63 Z M150.11 245.18 L141.64 242.82 L145.19 254.88 Z M107.48 150.85 L108.88 149.26 L102.67 151.42 Z M153.12 330.53 L151.44 325.65 L154.93 330.57 Z M299.23 315.23 L300.36 316.17 L288.59 306.56 Z M158.35 225.03 L169.14 221.10 L159.78 236.05 Z M113.31 269.48 L109.07 261.43 L103.77 249.23 Z M332.63 379.59 L349.01 384.27 L341.97 375.32 Z M280.18 360.06 L302.21 370.00 L291.70 376.85 Z M348.59 367.41 L346.03 362.47 L350.07 366.84 Z M199.99 249.12 L210.23 254.25 L185.13 246.54 Z M287.92 408.53 L298.49 410.78 L262.29 406.46 Z M323.46 394.28 L339.42 383.02 L335.66 393.10 Z M223.41 280.60 L229.61 254.37 L237.43 287.14 Z M245.16 306.98 L249.59 284.91 L252.97 299.59 Z M129.25 173.58 L152.89 183.93 L143.33 185.97 Z M341.30 400.83 L351.53 394.68 L347.01 394.58 Z M230.89 334.96 L216.11 343.03 L224.68 337.93 Z M303.02 323.49 L285.36 310.00 L296.22 319.57 Z M255.80 395.25 L240.86 387.79 L239.78 391.27 Z M127.56 186.59 L121.64 193.60 L136.86 199.71 Z M337.62 367.01 L348.59 367.41 L349.54 377.62 Z M132.00 275.50 L146.46 287.31 L150.94 299.11 Z M339.42 383.02 L349.54 377.62 L355.81 381.93 Z M166.82 336.54 L172.91 338.07 L165.93 323.93 Z M279.71 300.21 L270.80 295.59 L276.82 308.40 Z M221.11 388.93 L206.64 380.34 L222.27 388.28 Z M130.51 291.65 L119.30 278.51 L118.92 275.27 Z M197.89 287.06 L193.98 293.97 L203.71 287.43 Z M187.64 273.65 L197.89 287.06 L203.71 287.43 Z M290.26 306.26 L273.44 289.56 L288.59 306.56 Z M302.66 358.80 L294.67 350.11 L309.06 354.99 Z M296.68 333.85 L293.54 327.00 L309.25 336.24 Z M257.14 311.24 L270.69 329.26 L269.95 322.19 Z M202.54 280.47 L203.71 287.43 L206.60 274.95 Z M133.79 250.38 L140.03 247.64 L135.43 262.68 Z M350.07 366.84 L346.03 362.47 L334.16 349.76 Z M163.05 330.93 L171.24 333.65 L176.62 343.60 Z M156.87 164.44 L154.89 163.67 L152.61 161.96 Z M89.49 223.69 L91.12 218.96 L93.82 221.36 Z M330.30 396.20 L319.00 402.89 L323.67 406.18 Z M224.34 318.20 L223.01 328.36 L235.98 347.15 Z M275.49 304.56 L273.89 326.61 L271.39 310.02 Z M275.92 384.84 L284.88 392.20 L290.58 376.59 Z M223.98 246.27 L227.60 246.08 L212.89 234.78 Z M281.44 409.39 L262.29 406.46 L302.33 411.68 Z M299.23 315.23 L301.79 318.14 L312.39 327.28 Z M171.47 186.69 L180.26 193.12 L179.23 191.55 Z M236.69 293.49 L233.02 285.13 L233.42 296.20 Z M163.05 330.93 L170.89 345.80 L158.62 332.13 Z M139.59 294.52 L148.13 301.74 L160.97 305.88 Z M211.25 368.98 L194.82 352.49 L203.22 356.00 Z M291.70 376.85 L302.21 370.00 L309.24 370.30 Z M106.62 163.67 L109.53 153.68 L116.08 149.85 Z M147.69 255.77 L157.21 277.66 L144.39 269.87 Z M302.33 411.68 L303.77 411.06 L321.91 409.56 Z M136.86 199.71 L143.61 207.52 L145.81 195.41 Z M100.54 233.08 L97.67 234.96 L89.49 223.69 Z M257.32 273.71 L264.91 281.05 L262.72 279.27 Z M209.08 237.57 L212.89 234.78 L207.35 231.89 Z M233.46 321.04 L236.81 315.80 L233.02 303.07 Z M219.19 270.23 L214.11 254.62 L223.15 257.20 Z M174.81 319.23 L172.91 338.07 L187.61 319.90 Z M320.80 363.90 L318.15 357.06 L324.51 355.52 Z M160.97 305.88 L152.39 314.11 L156.77 314.37 Z M277.45 351.71 L264.39 357.29 L266.00 349.82 Z M91.26 160.52 L95.13 158.87 L94.51 155.24 Z M200.50 224.06 L186.65 220.31 L194.74 214.83 Z M145.16 317.90 L137.07 307.66 L129.93 296.50 Z M149.94 226.87 L137.06 217.88 L145.29 225.84 Z M288.59 306.56 L300.36 316.17 L290.26 306.26 Z M152.61 161.96 L139.88 151.99 L156.87 164.44 Z M133.27 206.60 L136.86 199.71 L117.98 203.29 Z M146.63 166.17 L152.96 174.64 L150.84 163.32 Z M221.11 388.93 L214.14 388.06 L206.64 380.34 Z M193.91 340.65 L193.91 353.30 L206.44 344.99 Z M322.70 336.68 L334.16 349.76 L329.73 343.82 Z M265.93 377.28 L268.97 366.75 L291.70 376.85 Z M140.03 247.64 L147.69 255.77 L139.15 259.35 Z M328.92 349.57 L337.62 367.01 L327.93 357.76 Z M278.38 316.61 L288.11 323.46 L276.82 308.40 Z M152.89 183.93 L146.60 167.42 L159.60 174.70 Z M113.31 269.48 L120.32 275.48 L111.15 260.93 Z M166.82 336.54 L170.76 352.43 L172.91 338.07 Z M287.90 331.62 L292.68 341.94 L301.91 337.57 Z M150.69 205.56 L155.06 196.26 L145.81 195.41 Z M265.00 397.80 L265.97 393.43 L281.00 397.12 Z M97.67 234.96 L96.63 237.67 L89.49 223.69 Z M87.46 173.06 L83.76 166.82 L97.21 157.67 Z M154.93 330.57 L159.43 337.52 L153.12 330.53 Z M351.53 371.39 L340.18 357.63 L345.14 367.30 Z M161.33 262.63 L157.21 277.66 L147.69 255.77 Z M257.32 273.71 L267.56 286.72 L264.01 281.13 Z M167.19 283.42 L167.13 293.76 L170.73 280.84 Z M160.97 305.88 L156.77 314.37 L165.93 323.93 Z M267.98 347.89 L283.87 351.93 L282.63 345.72 Z M247.22 267.89 L254.50 278.08 L250.42 269.02 Z M184.43 262.68 L197.55 262.83 L189.97 273.31 Z M97.83 205.10 L99.99 192.49 L103.26 208.07 Z M97.67 234.96 L100.15 242.30 L100.91 245.70 Z M350.07 366.84 L340.18 357.63 L351.53 371.39 Z M253.62 381.31 L263.13 380.91 L270.98 388.32 Z M225.08 365.54 L228.55 364.94 L239.87 365.67 Z M129.18 212.85 L133.27 206.60 L117.98 203.29 Z M275.55 383.32 L265.93 377.28 L271.77 378.97 Z M168.21 189.53 L152.89 183.93 L159.60 174.70 Z M185.62 214.21 L178.47 214.46 L182.39 221.41 Z M354.03 378.75 L357.37 387.27 L354.27 375.54 Z M156.00 284.78 L167.19 283.42 L168.20 275.31 Z M188.64 245.28 L179.04 234.84 L172.17 240.10 Z M350.07 366.84 L351.53 371.39 L354.27 375.54 Z M164.51 252.31 L175.92 234.94 L184.43 262.68 Z M266.00 349.82 L253.24 340.37 L260.39 334.39 Z M211.18 379.17 L222.27 388.28 L206.64 380.34 Z M130.51 291.65 L124.30 286.67 L119.30 278.51 Z M248.70 391.67 L257.02 387.80 L265.97 393.43 Z M251.26 304.13 L251.49 312.04 L257.14 311.24 Z M317.66 386.53 L308.89 381.18 L339.42 383.02 Z M155.76 295.35 L143.05 291.13 L160.97 305.88 Z M147.64 178.69 L132.98 179.98 L147.57 187.51 Z M200.86 237.60 L223.87 247.29 L218.83 247.59 Z M262.97 287.42 L270.80 295.59 L267.56 286.72 Z M250.42 269.02 L257.32 273.71 L248.39 264.62 Z M262.63 393.77 L283.64 400.71 L275.16 397.22 Z M170.89 345.80 L171.00 348.18 L158.62 332.13 Z M209.86 375.62 L211.18 379.17 L199.79 371.72 Z M251.26 304.13 L261.33 297.44 L250.57 293.33 Z M253.53 372.58 L239.87 365.67 L237.35 356.03 Z M110.82 248.09 L106.56 247.15 L108.68 236.94 Z M293.54 327.00 L296.68 333.85 L288.67 323.43 Z M123.33 232.07 L132.93 224.04 L126.32 245.29 Z M221.95 390.67 L226.10 394.71 L232.56 390.73 Z M153.12 330.53 L167.85 351.27 L161.44 342.36 Z M307.24 410.31 L324.33 407.69 L323.67 406.18 Z M297.01 323.41 L296.22 319.57 L288.11 323.46 Z M261.23 367.89 L266.56 359.65 L263.19 358.73 Z M295.53 382.90 L275.55 383.32 L289.27 380.93 Z M227.65 245.42 L218.59 235.30 L230.33 246.46 Z M128.37 253.64 L134.30 275.86 L136.92 272.67 Z M262.64 309.12 L273.89 326.61 L252.57 324.63 Z M239.05 397.39 L259.95 404.03 L251.13 402.87 Z M78.45 201.88 L86.88 214.38 L85.57 204.10 Z M124.23 149.11 L142.81 154.66 L139.88 151.99 Z M253.53 372.58 L225.08 365.54 L239.87 365.67 Z M204.00 335.35 L215.72 335.25 L201.55 341.29 Z M167.85 351.27 L170.76 352.43 L163.33 343.90 Z M289.35 406.60 L307.24 410.31 L302.53 407.32 Z M290.58 376.59 L270.25 374.56 L275.92 384.84 Z M195.90 329.25 L204.00 335.35 L201.55 341.29 Z M130.09 155.27 L112.18 153.03 L123.16 160.81 Z M249.59 284.91 L260.19 292.55 L256.77 293.79 Z M224.08 392.19 L217.51 390.83 L214.14 388.06 Z M323.46 394.28 L307.16 395.15 L316.82 391.85 Z M200.86 237.60 L223.15 257.20 L214.11 254.62 Z M232.56 390.73 L217.03 385.59 L221.95 390.67 Z M171.47 186.69 L187.35 202.46 L180.26 193.12 Z M346.63 398.04 L327.47 406.39 L332.94 403.33 Z M276.82 308.40 L285.36 310.00 L279.71 300.21 Z M266.06 294.40 L262.97 287.42 L247.40 284.94 Z M183.12 251.41 L185.49 261.27 L199.67 256.54 Z M97.21 157.67 L94.51 155.24 L98.87 155.20 Z M292.80 388.95 L292.57 394.44 L281.00 397.12 Z M262.29 406.46 L259.93 405.69 L248.07 401.36 Z M275.49 304.56 L281.47 317.35 L273.89 326.61 Z M156.00 284.78 L157.23 293.80 L167.13 293.76 Z M264.84 287.84 L261.90 280.78 L272.11 291.88 Z M91.26 160.52 L79.33 173.73 L83.85 174.64 Z M187.35 202.46 L189.06 212.38 L190.43 207.78 Z M329.87 345.81 L322.70 336.68 L329.73 343.82 Z M321.91 409.56 L298.49 410.78 L287.92 408.53 Z M322.70 336.68 L314.69 331.88 L334.16 349.76 Z M219.19 270.23 L223.15 257.20 L223.41 280.60 Z M245.54 350.23 L253.09 364.10 L237.35 356.03 Z M253.09 364.10 L253.53 372.58 L237.35 356.03 Z M331.51 363.35 L325.48 351.37 L319.60 353.20 Z M149.94 226.87 L145.29 225.84 L150.11 245.18 Z M98.57 226.11 L98.89 212.67 L90.76 215.55 Z M239.78 391.27 L233.16 393.38 L248.07 401.36 Z M164.19 187.89 L171.47 186.69 L162.18 181.10 Z M91.26 160.52 L103.06 160.46 L95.13 158.87 Z M323.46 394.28 L335.66 393.10 L327.81 400.14 Z M311.46 407.99 L315.82 405.04 L324.54 405.53 Z M115.01 233.57 L113.27 236.57 L127.00 225.85 Z M272.11 291.88 L283.73 300.78 L275.49 304.56 Z M162.62 172.97 L173.67 183.33 L173.56 185.66 Z M196.38 282.76 L196.22 293.17 L187.75 289.87 Z M109.95 210.97 L116.10 211.79 L113.15 232.21 Z M140.50 312.31 L137.07 307.66 L145.16 317.90 Z M246.43 369.22 L248.40 382.60 L256.00 379.22 Z M166.82 336.54 L165.93 323.93 L156.77 314.37 Z M236.37 398.19 L239.05 397.39 L251.13 402.87 Z M100.15 242.30 L106.56 247.15 L103.77 249.23 Z M149.82 301.19 L150.94 299.11 L158.39 297.53 Z M195.90 329.25 L215.72 335.25 L204.00 335.35 Z M261.23 367.89 L251.08 367.18 L256.00 379.22 Z M124.36 278.46 L118.92 275.27 L118.22 268.42 Z M145.24 308.84 L156.38 326.05 L158.62 332.13 Z M103.77 249.23 L106.56 247.15 L114.04 253.84 Z M111.08 247.61 L118.68 250.61 L113.27 236.57 Z M189.97 273.31 L197.55 262.83 L204.14 264.48 Z M231.26 320.53 L223.53 309.96 L225.07 303.08 Z M144.88 215.63 L152.18 199.18 L158.35 225.03 Z M248.39 264.62 L242.84 258.70 L227.60 246.08 Z M290.22 361.02 L295.64 360.61 L274.98 361.39 Z M114.83 161.88 L111.46 173.91 L112.54 165.42 Z M183.12 251.41 L199.67 256.54 L183.86 249.74 Z M114.04 253.84 L126.01 256.25 L125.42 264.22 Z M93.28 215.05 L83.42 205.46 L81.56 198.01 Z M271.28 405.83 L280.50 405.80 L287.92 408.53 Z M109.53 153.68 L109.60 149.80 L116.08 149.85 Z M195.54 223.75 L207.35 231.89 L199.19 221.24 Z M218.83 247.59 L223.87 247.29 L223.15 257.20 Z M232.53 350.90 L237.35 356.03 L217.78 347.23 Z M257.14 311.24 L251.49 312.04 L256.84 330.82 Z M118.68 250.61 L128.37 253.64 L113.27 236.57 Z M331.51 363.35 L337.16 361.31 L325.48 351.37 Z M227.65 245.42 L214.85 234.50 L218.59 235.30 Z M171.47 186.69 L171.51 208.31 L185.62 214.21 Z M204.14 264.48 L219.19 270.23 L189.97 273.31 Z M229.61 254.37 L249.59 284.91 L238.73 273.38 Z M145.81 195.41 L141.03 192.61 L136.86 199.71 Z M115.01 233.57 L127.00 225.85 L117.64 219.51 Z M79.92 183.96 L99.87 173.08 L83.85 174.64 Z M137.30 304.75 L158.62 332.13 L145.16 317.90 Z M266.56 359.65 L272.86 361.63 L267.98 347.89 Z M127.97 166.69 L129.25 173.58 L120.66 174.59 Z M137.06 306.01 L137.30 304.75 L145.16 317.90 Z M280.50 405.80 L267.34 402.21 L284.15 403.10 Z M219.19 270.23 L223.41 280.60 L189.97 273.31 Z M249.21 274.84 L229.61 254.37 L246.08 266.81 Z M222.27 388.28 L230.61 388.56 L238.31 393.01 Z M158.39 297.53 L170.76 305.84 L177.71 322.55 Z M255.42 274.11 L241.68 258.69 L242.84 258.70 Z M146.63 166.17 L142.24 164.43 L152.96 174.64 Z M198.21 377.55 L197.58 376.29 L203.79 382.17 Z M295.64 360.61 L290.22 361.02 L290.58 376.59 Z M330.30 396.20 L323.67 406.18 L338.62 397.87 Z M185.62 214.21 L195.54 223.75 L191.07 219.01 Z M173.56 185.66 L184.12 198.54 L177.35 202.14 Z M281.00 397.12 L267.34 402.21 L265.00 397.80 Z M162.18 181.10 L163.50 175.34 L150.84 163.32 Z M334.16 349.76 L314.69 331.88 L325.97 344.23 Z M216.11 343.03 L201.55 341.29 L215.72 335.25 Z M97.67 234.96 L106.56 247.15 L100.15 242.30 Z M273.89 326.61 L288.67 323.43 L283.77 341.14 Z M259.95 404.03 L267.34 402.21 L262.29 406.46 Z M189.55 371.23 L189.90 371.08 L187.36 365.14 Z M210.48 293.42 L217.00 285.65 L203.71 287.43 Z M288.59 306.56 L273.44 289.56 L279.71 300.21 Z M182.20 301.61 L196.22 293.17 L203.35 306.87 Z M309.60 337.36 L325.97 344.23 L314.69 331.88 Z M158.39 297.53 L154.44 310.40 L149.82 301.19 Z M289.35 406.60 L291.08 409.31 L307.24 410.31 Z M327.81 400.14 L335.66 393.10 L335.86 398.60 Z M192.21 243.76 L185.13 246.54 L200.86 237.60 Z M273.44 289.56 L267.56 286.72 L275.58 293.14 Z M163.05 330.93 L154.44 310.40 L163.14 317.05 Z M173.49 325.51 L174.81 319.23 L165.93 323.93 Z M90.76 215.55 L98.89 212.67 L93.09 193.63 Z M224.34 318.20 L233.46 321.04 L233.02 303.07 Z M165.68 174.62 L173.67 183.33 L156.87 164.44 Z M253.62 381.31 L238.33 382.18 L225.08 365.54 Z M108.97 214.75 L107.01 219.71 L113.27 236.57 Z M98.57 226.11 L107.01 219.71 L108.97 214.75 Z M145.24 308.84 L137.30 304.75 L142.66 302.70 Z M338.37 386.36 L338.62 397.87 L349.01 384.27 Z M81.56 198.01 L80.83 180.30 L87.95 190.13 Z M262.59 372.02 L253.09 364.10 L268.97 366.75 Z M146.60 167.42 L135.38 157.83 L147.68 164.77 Z M152.96 174.64 L164.19 187.89 L162.18 181.10 Z M173.67 183.33 L163.50 175.34 L179.23 191.55 Z M246.43 369.22 L226.94 371.49 L240.86 387.79 Z M79.92 183.96 L83.85 174.64 L75.51 188.74 Z M294.67 350.11 L302.21 370.00 L280.18 360.06 Z M293.91 311.29 L286.90 309.46 L283.73 300.78 Z M275.55 383.32 L270.98 388.32 L263.13 380.91 Z M199.41 328.79 L193.91 340.65 L210.79 327.73 Z M348.15 389.58 L342.13 394.12 L339.42 383.02 Z M167.65 323.29 L177.71 322.55 L171.24 333.65 Z M173.73 358.58 L189.55 371.23 L170.76 352.43 Z M205.67 375.42 L189.14 359.23 L187.36 365.14 Z M170.76 305.84 L158.39 297.53 L165.34 292.42 Z M232.53 350.90 L217.78 347.23 L230.89 334.96 Z M182.20 301.61 L177.71 322.55 L170.76 305.84 Z M111.10 168.31 L123.16 160.81 L103.06 160.46 Z M307.24 410.31 L323.67 406.18 L319.00 402.89 Z M140.50 312.31 L145.16 317.90 L153.12 330.53 Z M248.35 332.00 L233.46 321.04 L248.51 347.47 Z M275.55 383.32 L271.77 378.97 L291.70 376.85 Z M308.89 381.18 L318.15 357.06 L320.80 363.90 Z M261.33 297.44 L266.06 294.40 L247.40 284.94 Z M328.18 349.37 L328.95 352.18 L337.16 361.31 Z M147.17 314.22 L154.41 328.31 L161.70 336.99 Z M146.46 287.31 L159.39 293.20 L150.94 299.11 Z M200.49 351.00 L194.82 352.49 L196.84 346.52 Z M350.07 366.84 L354.27 375.54 L355.81 381.93 Z M295.53 382.90 L308.89 381.18 L292.80 388.95 Z M315.30 353.67 L292.68 341.94 L306.35 357.35 Z M185.62 214.21 L171.51 208.31 L178.47 214.46 Z M230.36 258.57 L218.84 256.86 L233.75 265.01 Z M116.08 149.85 L112.52 161.92 L106.62 163.67 Z M297.86 402.46 L288.98 402.06 L281.00 397.12 Z M181.62 353.06 L177.14 354.29 L171.00 348.18 Z M232.86 362.60 L228.55 364.94 L237.35 356.03 Z M325.48 351.37 L309.60 337.36 L301.91 337.57 Z M212.89 234.78 L209.08 237.57 L223.98 246.27 Z M221.11 388.93 L222.27 388.28 L238.31 393.01 Z M218.59 235.30 L212.61 230.41 L208.10 225.36 Z M284.63 340.57 L287.29 331.67 L296.68 333.85 Z M156.87 164.44 L150.84 163.32 L163.50 175.34 Z M183.57 296.73 L205.32 309.22 L193.98 293.97 Z M135.43 262.68 L132.00 275.50 L126.32 245.29 Z M112.55 210.29 L108.97 214.75 L117.64 219.51 Z M321.91 409.56 L298.79 408.71 L311.46 407.99 Z M184.43 262.68 L175.29 264.79 L164.51 252.31 Z M292.57 394.44 L292.80 388.95 L307.16 395.15 Z M244.30 385.62 L257.02 387.80 L248.70 391.67 Z M337.62 367.01 L339.42 383.02 L320.80 363.90 Z M225.08 365.54 L228.21 382.62 L216.26 377.22 Z M193.91 340.65 L183.03 349.14 L193.91 353.30 Z M227.60 246.08 L250.42 269.02 L248.39 264.62 Z M214.14 388.06 L197.58 376.29 L207.91 382.37 Z M136.16 285.61 L133.17 292.75 L139.59 294.52 Z M249.59 284.91 L245.16 306.98 L242.07 302.63 Z M254.50 278.08 L262.97 287.42 L267.56 286.72 Z M230.61 388.56 L238.33 382.18 L244.30 385.62 Z M187.61 319.90 L193.91 340.65 L199.41 328.79 Z M95.13 158.87 L103.06 160.46 L94.51 155.24 Z M221.32 271.27 L233.02 285.13 L236.88 278.72 Z M241.77 388.56 L248.70 391.67 L230.61 388.56 Z M249.59 284.91 L256.77 293.79 L252.97 299.59 Z M254.17 305.50 L252.97 299.59 L262.64 309.12 Z M269.25 310.16 L257.14 311.24 L269.95 322.19 Z M109.62 202.64 L99.99 192.49 L115.67 199.14 Z M108.97 214.75 L113.27 236.57 L117.64 219.51 Z M301.91 337.57 L303.02 323.49 L296.71 329.45 Z M233.92 256.27 L243.16 270.37 L237.81 258.78 Z M182.39 221.41 L186.33 229.72 L185.62 214.21 Z M158.35 225.03 L159.78 236.05 L152.27 238.97 Z M303.02 323.49 L296.22 319.57 L297.01 323.41 Z M238.14 325.87 L245.16 306.98 L252.57 324.63 Z M127.94 148.46 L139.88 151.99 L133.69 151.84 Z M154.89 163.67 L162.62 172.97 L152.61 161.96 Z M307.24 410.31 L302.33 411.68 L314.99 410.54 Z M341.97 375.32 L354.03 378.75 L331.51 363.35 Z M152.18 199.18 L144.88 215.63 L127.62 193.91 Z M75.51 188.74 L79.33 173.73 L79.63 170.43 Z M235.98 347.15 L248.51 347.47 L224.34 318.20 Z M114.04 253.84 L106.56 247.15 L110.82 248.09 Z M165.68 174.62 L163.50 175.34 L173.67 183.33 Z M186.08 236.42 L179.04 234.84 L188.64 245.28 Z M97.21 157.67 L83.76 166.82 L86.69 161.65 Z M79.92 183.96 L97.27 180.61 L99.87 173.08 Z M314.29 332.18 L322.70 336.68 L319.22 335.84 Z M208.69 352.32 L214.83 351.55 L218.43 353.51 Z M223.53 309.96 L222.93 325.77 L215.81 313.41 Z M260.19 292.55 L275.49 304.56 L271.39 310.02 Z M129.18 212.85 L117.64 219.51 L127.00 225.85 Z M262.29 406.46 L242.63 400.73 L251.13 402.87 Z M258.39 401.42 L289.35 406.60 L283.64 400.71 Z M183.03 349.14 L189.14 359.23 L193.91 353.30 Z M203.35 306.87 L203.92 287.57 L212.65 296.02 Z M226.10 394.71 L221.95 390.67 L217.51 390.83 Z M142.81 154.66 L145.75 159.92 L156.87 164.44 Z M87.95 190.13 L80.83 180.30 L87.46 173.06 Z M163.14 317.05 L158.39 297.53 L177.71 322.55 Z M309.98 394.64 L322.77 393.37 L308.90 384.02 Z M283.73 300.78 L273.44 289.56 L293.91 311.29 Z M304.53 372.34 L306.99 377.63 L316.77 374.13 Z M304.53 372.34 L306.35 357.35 L295.64 360.61 Z M218.03 350.08 L221.64 346.29 L206.44 344.99 Z M288.11 323.46 L287.90 331.62 L290.44 325.77 Z M166.50 252.44 L165.64 260.19 L185.49 261.27 Z M80.41 195.13 L81.56 198.01 L83.42 205.46 Z M178.91 196.56 L182.25 199.36 L171.47 186.69 Z M109.81 256.66 L114.04 253.84 L118.22 268.42 Z M118.22 268.42 L118.92 275.27 L109.81 256.66 Z M112.18 153.03 L94.51 155.24 L103.06 160.46 Z M253.62 381.31 L244.30 385.62 L238.33 382.18 Z M132.98 179.98 L133.60 169.80 L121.18 166.18 Z M224.68 337.93 L231.26 320.53 L230.89 334.96 Z M199.67 256.54 L172.17 240.10 L183.86 249.74 Z M223.41 280.60 L223.15 257.20 L229.61 254.37 Z M297.01 323.41 L288.11 323.46 L290.44 325.77 Z M211.25 368.98 L200.05 361.19 L194.82 352.49 Z M186.81 341.16 L194.82 352.49 L176.62 343.60 Z M217.51 390.83 L221.95 390.67 L217.03 385.59 Z M241.31 282.35 L237.43 287.14 L238.73 273.38 Z M266.06 294.40 L270.80 295.59 L262.97 287.42 Z M116.10 211.79 L109.95 210.97 L109.62 202.64 Z M78.45 201.88 L75.51 188.74 L77.01 185.47 Z M165.93 323.93 L175.58 311.45 L160.97 305.88 Z M227.60 246.08 L230.33 246.46 L227.68 244.31 Z M111.15 260.93 L113.26 256.73 L111.08 247.61 Z M309.25 336.24 L318.15 357.06 L296.68 333.85 Z M210.48 293.42 L224.34 318.20 L233.02 303.07 Z M259.95 404.03 L262.29 406.46 L251.13 402.87 Z M347.01 394.58 L338.62 397.87 L341.30 400.83 Z M98.57 226.11 L90.76 215.55 L86.88 214.38 Z M307.16 395.15 L296.69 398.26 L281.00 397.12 Z M132.98 179.98 L119.02 178.98 L127.56 186.59 Z M267.98 347.89 L282.63 345.72 L283.97 341.85 Z M257.61 397.12 L265.00 397.80 L248.66 397.50 Z M196.84 346.52 L201.55 341.29 L200.49 351.00 Z M147.64 178.69 L164.19 187.89 L152.96 174.64 Z M296.99 313.86 L290.26 306.26 L300.36 316.17 Z M297.01 323.41 L290.44 325.77 L296.71 329.45 Z M187.35 202.46 L190.49 205.50 L184.12 198.54 Z M335.66 393.10 L339.42 383.02 L335.86 398.60 Z M311.46 407.99 L305.62 405.60 L315.82 405.04 Z M197.55 262.83 L185.13 246.54 L204.14 264.48 Z M195.97 242.62 L185.62 214.21 L186.33 229.72 Z M203.71 287.43 L202.54 280.47 L187.64 273.65 Z M119.93 232.49 L108.68 236.94 L113.15 232.21 Z M255.80 395.25 L256.00 379.22 L248.40 382.60 Z M354.03 378.75 L337.16 361.31 L331.51 363.35 Z M243.16 270.37 L247.22 267.89 L237.81 258.78 Z M93.28 215.05 L113.15 232.21 L100.54 233.08 Z M248.66 397.50 L265.00 397.80 L262.22 401.74 Z M146.55 156.77 L156.87 164.44 L139.88 151.99 Z M311.46 407.99 L324.54 405.53 L321.91 409.56 Z M246.09 396.00 L238.31 393.01 L248.70 391.67 Z M335.86 398.60 L339.42 383.02 L342.13 394.12 Z M302.53 407.32 L307.24 410.31 L319.00 402.89 Z M119.93 232.49 L113.15 232.21 L116.10 211.79 Z M165.34 292.42 L159.39 293.20 L146.46 287.31 Z M303.77 411.06 L298.49 410.78 L321.91 409.56 Z M187.44 367.24 L178.65 362.69 L181.81 363.04 Z M177.14 354.29 L174.56 356.07 L171.00 348.18 Z M262.64 309.12 L252.97 299.59 L256.77 293.79 Z M232.56 390.73 L221.27 375.98 L212.97 372.74 Z M324.51 355.52 L328.92 349.57 L320.80 363.90 Z M236.69 293.49 L233.42 296.20 L251.26 304.13 Z M108.34 190.76 L98.89 212.67 L117.98 203.29 Z M93.09 193.63 L98.89 212.67 L108.34 190.76 Z M171.06 222.29 L158.36 217.92 L157.40 233.72 Z M126.01 256.25 L120.96 251.08 L126.32 245.29 Z M102.66 238.78 L98.57 226.11 L100.48 243.96 Z M143.05 291.13 L139.59 294.52 L160.97 305.88 Z M284.88 392.20 L275.92 384.84 L262.63 393.77 Z M120.32 275.48 L133.17 292.75 L130.84 277.32 Z M194.74 214.83 L184.12 198.54 L190.49 205.50 Z M170.76 305.84 L165.34 292.42 L174.52 296.68 Z M128.37 253.64 L130.84 277.32 L134.30 275.86 Z M337.16 361.31 L345.14 367.30 L340.18 357.63 Z M259.95 404.03 L262.22 401.74 L267.34 402.21 Z M125.42 264.22 L126.01 256.25 L132.00 275.50 Z M296.99 313.86 L300.36 316.17 L302.23 320.65 Z M306.02 400.85 L284.88 392.20 L289.35 406.60 Z M325.12 368.97 L315.45 366.85 L316.77 374.13 Z M318.15 357.06 L302.66 358.80 L309.06 354.99 Z M237.43 287.14 L242.07 302.63 L233.20 301.47 Z M190.80 363.50 L209.86 375.62 L199.79 371.72 Z M86.88 214.38 L91.20 225.39 L98.57 226.11 Z M252.57 324.63 L253.24 340.37 L238.14 325.87 Z M239.05 397.39 L217.51 390.83 L224.08 392.19 Z M172.17 240.10 L183.12 251.41 L183.86 249.74 Z M296.69 398.26 L307.16 395.15 L302.28 398.23 Z M290.44 325.77 L287.90 331.62 L296.71 329.45 Z M113.26 256.73 L130.84 277.32 L118.68 250.61 Z M325.97 344.23 L325.48 351.37 L328.18 349.37 Z M179.04 234.84 L186.08 236.42 L186.33 229.72 Z M83.76 166.82 L83.73 173.72 L80.83 180.30 Z M156.00 284.78 L167.13 293.76 L167.19 283.42 Z M202.06 220.90 L199.51 216.27 L190.49 205.50 Z M302.53 407.32 L306.02 400.85 L289.35 406.60 Z M239.78 391.27 L240.86 387.79 L233.16 393.38 Z M288.67 323.43 L296.68 333.85 L287.29 331.67 Z M327.81 400.14 L335.86 398.60 L346.63 398.04 Z M248.70 391.67 L265.00 397.80 L257.61 397.12 Z M232.53 350.90 L245.54 350.23 L237.35 356.03 Z M301.79 318.14 L303.02 323.49 L311.89 328.49 Z M186.65 220.31 L175.92 234.94 L184.95 221.92 Z M214.97 271.27 L233.02 285.13 L221.32 271.27 Z M270.25 374.56 L261.23 367.89 L256.00 379.22 Z M261.33 297.44 L276.82 308.40 L266.06 294.40 Z M256.84 330.82 L268.89 339.75 L283.97 341.85 Z M187.35 202.46 L190.43 207.78 L190.49 205.50 Z M309.24 370.30 L308.89 381.18 L291.70 376.85 Z M288.11 323.46 L296.22 319.57 L285.36 310.00 Z M129.60 192.05 L129.25 173.58 L143.33 185.97 Z M144.39 269.87 L157.21 277.66 L146.46 287.31 Z M174.56 356.07 L181.62 353.06 L190.80 363.50 Z M292.57 394.44 L307.16 395.15 L281.00 397.12 Z M138.03 296.70 L150.94 299.11 L142.66 302.70 Z M239.05 397.39 L262.22 401.74 L259.95 404.03 Z M318.15 357.06 L308.89 381.18 L309.24 370.30 Z M221.64 346.29 L210.79 327.73 L206.44 344.99 Z M83.76 166.82 L87.46 173.06 L83.73 173.72 Z M231.26 320.53 L233.20 301.47 L242.07 302.63 Z M262.59 372.02 L253.53 372.58 L253.09 364.10 Z M133.27 206.60 L143.61 207.52 L136.86 199.71 Z M177.71 322.55 L186.81 341.16 L171.24 333.65 Z M321.91 409.56 L324.54 405.53 L327.47 406.39 Z M246.43 369.22 L263.19 358.73 L248.51 347.47 Z M132.98 179.98 L127.56 186.59 L136.86 199.71 Z M206.45 253.46 L215.01 254.76 L213.12 248.62 Z M357.37 387.27 L355.81 381.93 L354.27 375.54 Z M282.63 345.72 L283.87 351.93 L283.97 341.85 Z M212.89 234.78 L202.06 220.90 L207.35 231.89 Z M233.20 301.47 L225.07 303.08 L212.65 296.02 Z M171.65 277.34 L189.97 273.31 L187.75 289.87 Z M325.48 351.37 L328.95 352.18 L328.18 349.37 Z M274.98 361.39 L261.23 367.89 L270.25 374.56 Z M135.43 262.68 L140.03 247.64 L139.15 259.35 Z M281.47 317.35 L275.49 304.56 L288.67 323.43 Z M227.68 244.31 L218.59 235.30 L222.07 239.09 Z M177.35 202.14 L175.92 234.94 L169.14 221.10 Z M203.92 287.57 L196.22 293.17 L196.38 282.76 Z M189.55 371.23 L173.73 358.58 L178.65 362.69 Z M137.06 217.88 L129.18 212.85 L127.00 225.85 Z M233.75 265.01 L243.16 270.37 L233.92 256.27 Z M103.77 249.23 L109.81 256.66 L118.92 275.27 Z M258.39 401.42 L266.65 406.80 L289.35 406.60 Z M332.63 379.59 L316.77 374.13 L322.77 393.37 Z M214.85 234.50 L200.50 224.06 L203.85 223.38 Z M205.67 375.42 L198.21 377.55 L203.79 382.17 Z M137.06 217.88 L143.61 207.52 L133.27 206.60 Z M185.62 214.21 L182.25 199.36 L178.91 196.56 Z M156.81 270.94 L156.00 284.78 L168.20 275.31 Z M251.08 367.18 L261.23 367.89 L263.19 358.73 Z M103.26 208.07 L113.15 232.21 L103.35 212.91 Z M172.17 240.10 L166.50 252.44 L185.49 261.27 Z M212.97 372.74 L226.94 371.49 L208.49 357.16 Z M319.88 401.61 L327.81 400.14 L324.54 405.53 Z M325.48 351.37 L301.91 337.57 L318.26 348.33 Z M349.52 395.94 L357.37 387.27 L352.37 394.56 Z M210.23 254.25 L199.99 249.12 L200.86 237.60 Z M230.33 246.46 L223.87 247.29 L227.65 245.42 Z M309.60 337.36 L325.48 351.37 L325.97 344.23 Z M163.05 330.93 L158.62 332.13 L156.38 326.05 Z M126.32 245.29 L134.85 241.59 L140.03 247.64 Z M272.11 291.88 L277.61 295.77 L283.73 300.78 Z M130.09 155.27 L145.75 159.92 L142.81 154.66 Z M328.18 349.37 L340.18 357.63 L334.16 349.76 Z M260.39 334.39 L252.57 324.63 L273.89 326.61 Z M185.13 246.54 L184.43 262.68 L175.92 234.94 Z M133.69 151.84 L142.83 156.95 L135.38 157.83 Z M224.08 392.19 L214.14 388.06 L221.11 388.93 Z M80.41 195.13 L83.42 205.46 L78.45 201.88 Z M127.94 148.46 L116.08 149.85 L124.23 149.11 Z M195.54 223.75 L185.62 214.21 L201.44 233.96 Z M308.90 384.02 L306.99 377.63 L304.53 372.34 Z M266.00 349.82 L264.39 357.29 L245.54 350.23 Z M96.63 237.67 L91.20 225.39 L94.51 233.26 Z M130.51 291.65 L137.30 304.75 L129.93 296.50 Z M218.43 353.51 L220.00 358.38 L208.69 352.32 Z M137.34 273.12 L135.43 262.68 L144.39 269.87 Z M189.06 212.38 L182.25 199.36 L185.62 214.21 Z M316.77 374.13 L308.90 384.02 L322.77 393.37 Z M131.27 284.66 L132.00 275.50 L150.94 299.11 Z M140.03 247.64 L133.79 250.38 L126.32 245.29 Z M139.88 151.99 L147.68 164.77 L142.83 156.95 Z M257.61 397.12 L248.66 397.50 L248.70 391.67 Z M262.63 393.77 L258.39 401.42 L283.64 400.71 Z M142.24 164.43 L150.84 163.32 L130.09 155.27 Z M133.17 292.75 L131.32 295.68 L139.59 294.52 Z M330.30 396.20 L338.62 397.87 L332.63 379.59 Z M332.63 379.59 L319.60 353.20 L325.12 368.97 Z M99.87 173.08 L109.51 181.64 L119.02 178.98 Z M114.04 253.84 L120.96 251.08 L126.01 256.25 Z M169.14 221.10 L175.92 234.94 L159.78 236.05 Z M165.34 292.42 L146.46 287.31 L157.21 277.66 Z M126.32 245.29 L133.79 250.38 L135.43 262.68 Z M242.84 258.70 L262.72 279.27 L255.42 274.11 Z M126.32 245.29 L132.00 275.50 L126.01 256.25 Z M251.49 312.04 L246.72 315.62 L256.84 330.82 Z M156.41 334.11 L167.85 351.27 L163.33 343.90 Z M223.87 247.29 L214.85 234.50 L227.65 245.42 Z M242.84 258.70 L241.68 258.69 L230.33 246.46 Z M108.34 190.76 L117.98 203.29 L121.64 193.60 Z M327.93 357.76 L320.80 363.90 L328.92 349.57 Z M109.62 202.64 L109.95 210.97 L99.99 192.49 Z M135.43 262.68 L137.34 273.12 L132.00 275.50 Z M172.17 240.10 L199.67 256.54 L188.64 245.28 Z M223.01 328.36 L219.17 332.72 L235.98 347.15 Z M100.48 243.96 L100.91 245.70 L103.77 249.23 Z M205.64 240.30 L195.97 242.62 L213.12 248.62 Z M321.91 409.56 L287.92 408.53 L298.79 408.71 Z M159.39 293.20 L165.34 292.42 L158.39 297.53 Z M232.56 390.73 L233.16 393.38 L240.86 387.79 Z M139.88 151.99 L127.94 148.46 L124.23 149.11 Z M123.16 160.81 L121.18 166.18 L133.60 169.80 Z M304.53 372.34 L310.77 371.51 L315.45 366.85 Z M210.82 283.49 L203.92 287.57 L189.97 273.31 Z M130.51 291.65 L124.36 278.46 L131.27 284.66 Z M116.08 149.85 L108.88 149.26 L124.23 149.11 Z M130.51 291.65 L131.27 284.66 L138.03 296.70 Z M169.14 221.10 L158.35 225.03 L152.18 199.18 Z M328.92 349.57 L337.00 355.95 L337.62 367.01 Z M208.69 352.32 L216.11 343.03 L217.78 347.23 Z M289.27 380.93 L275.55 383.32 L291.70 376.85 Z M205.67 375.42 L187.36 365.14 L198.21 377.55 Z M187.36 365.14 L183.03 349.14 L172.91 338.07 Z M221.64 346.29 L235.98 347.15 L219.17 332.72 Z M116.10 211.79 L132.93 224.04 L119.93 232.49 Z M136.16 285.61 L130.84 277.32 L133.17 292.75 Z M145.16 317.90 L129.93 296.50 L137.06 306.01 Z M154.89 163.67 L156.87 164.44 L162.62 172.97 Z M147.17 314.22 L139.59 294.52 L131.32 295.68 Z M120.66 174.59 L112.67 184.67 L114.83 161.88 Z M196.84 346.52 L194.82 352.49 L186.81 341.16 Z M124.36 278.46 L130.51 291.65 L118.92 275.27 Z M249.21 279.27 L262.97 287.42 L254.50 278.08 Z M283.77 341.14 L287.29 331.67 L284.63 340.57 Z M273.44 289.56 L257.32 273.71 L264.01 281.13 Z M273.44 289.56 L275.58 293.14 L279.71 300.21 Z M230.61 388.56 L244.30 385.62 L241.77 388.56 Z M223.53 309.96 L211.10 303.29 L212.65 296.02 Z M216.11 343.03 L215.72 335.25 L224.68 337.93 Z M147.17 314.22 L161.70 336.99 L152.39 314.11 Z M112.67 184.67 L129.60 192.05 L127.62 193.91 Z M98.89 212.67 L98.57 226.11 L108.97 214.75 Z M112.18 153.03 L124.23 149.11 L108.88 149.26 Z M251.26 304.13 L269.25 310.16 L261.33 297.44 Z M262.29 406.46 L298.49 410.78 L302.33 411.68 Z M255.80 395.25 L262.63 393.77 L256.00 379.22 Z M262.22 401.74 L265.00 397.80 L267.34 402.21 Z M189.06 212.38 L199.19 221.24 L202.06 220.90 Z M187.75 289.87 L186.17 290.26 L171.65 277.34 Z M211.10 303.29 L203.35 306.87 L212.65 296.02 Z M315.96 330.59 L314.69 331.88 L322.70 336.68 Z M176.62 343.60 L170.89 345.80 L163.05 330.93 Z M296.71 329.45 L287.90 331.62 L301.91 337.57 Z M149.94 226.87 L158.36 217.92 L150.33 214.37 Z M187.44 367.24 L206.64 380.34 L197.58 376.29 Z M203.92 287.57 L203.35 306.87 L196.22 293.17 Z M170.73 280.84 L178.35 287.74 L168.20 275.31 Z M132.98 179.98 L121.18 166.18 L111.10 168.31 Z M83.42 205.46 L89.49 223.69 L83.60 209.30 Z M245.54 350.23 L268.97 366.75 L253.09 364.10 Z M337.00 355.95 L329.87 345.81 L346.03 362.47 Z M218.84 256.86 L221.32 271.27 L226.93 267.57 Z M187.44 367.24 L199.79 371.72 L206.64 380.34 Z M129.60 192.05 L143.33 185.97 L152.18 199.18 Z M270.25 374.56 L256.00 379.22 L275.92 384.84 Z M325.48 351.37 L337.16 361.31 L328.95 352.18 Z M163.50 175.34 L171.47 186.69 L179.23 191.55 Z M147.17 314.22 L160.97 305.88 L148.13 301.74 Z M167.65 323.29 L171.24 333.65 L163.14 317.05 Z M349.01 384.27 L354.03 378.75 L341.97 375.32 Z M283.65 390.66 L270.98 388.32 L292.80 388.95 Z M133.60 169.80 L147.64 178.69 L140.75 169.24 Z M177.35 202.14 L169.14 221.10 L164.78 204.81 Z M181.81 363.04 L174.56 356.07 L190.80 363.50 Z M103.06 160.46 L91.26 160.52 L83.85 174.64 Z M112.55 210.29 L117.98 203.29 L98.89 212.67 Z M274.98 361.39 L270.25 374.56 L290.58 376.59 Z M145.24 308.84 L163.05 330.93 L156.38 326.05 Z M306.35 357.35 L318.63 358.96 L315.30 353.67 Z M257.32 273.71 L250.42 269.02 L267.56 286.72 Z M186.65 220.31 L185.13 246.54 L175.92 234.94 Z M314.99 410.54 L302.33 411.68 L321.91 409.56 Z M304.53 372.34 L316.77 374.13 L310.77 371.51 Z M315.30 353.67 L301.91 337.57 L292.68 341.94 Z M318.63 358.96 L315.45 366.85 L325.12 368.97 Z M152.61 161.96 L159.60 174.70 L146.60 167.42 Z M200.86 237.60 L200.50 224.06 L214.85 234.50 Z M316.77 374.13 L315.45 366.85 L310.77 371.51 Z M147.57 187.51 L132.98 179.98 L145.81 195.41 Z M186.33 229.72 L182.39 221.41 L179.04 234.84 Z M206.44 344.99 L208.49 357.16 L221.81 358.66 Z M103.18 220.66 L97.83 205.10 L103.35 212.91 Z M242.63 400.73 L233.90 396.87 L226.10 394.71 Z M220.00 358.38 L218.43 353.51 L217.78 347.23 Z M262.59 372.02 L268.97 366.75 L265.93 377.28 Z M256.84 330.82 L283.97 341.85 L270.69 329.26 Z M305.80 404.36 L305.62 405.60 L298.79 408.71 Z M315.82 405.04 L323.46 394.28 L319.88 401.61 Z M205.32 309.22 L183.57 296.73 L175.58 311.45 Z M152.96 174.64 L142.24 164.43 L140.75 169.24 Z M218.84 256.86 L222.09 248.09 L213.12 248.62 Z M160.97 305.88 L175.58 311.45 L167.13 293.76 Z M246.43 369.22 L235.34 358.65 L221.81 358.66 Z M247.40 284.94 L226.93 267.57 L236.88 278.72 Z M262.72 279.27 L261.90 280.78 L255.42 274.11 Z M120.44 281.22 L131.32 295.68 L120.32 275.48 Z M163.50 175.34 L165.68 174.62 L156.87 164.44 Z M306.02 400.85 L309.98 394.64 L284.88 392.20 Z M210.42 380.80 L212.97 372.74 L205.67 375.42 Z M277.45 351.71 L268.97 366.75 L264.39 357.29 Z M83.76 166.82 L79.63 170.43 L86.69 161.65 Z M318.63 358.96 L325.12 368.97 L319.60 353.20 Z M221.27 375.98 L232.56 390.73 L226.94 371.49 Z M262.64 309.12 L271.39 310.02 L273.89 326.61 Z M99.87 173.08 L119.02 178.98 L111.10 168.31 Z M150.69 205.56 L158.36 217.92 L155.06 196.26 Z M168.21 189.53 L177.35 202.14 L164.78 204.81 Z M182.25 199.36 L187.35 202.46 L171.47 186.69 Z M111.10 168.31 L119.02 178.98 L132.98 179.98 Z M172.91 338.07 L193.91 340.65 L187.61 319.90 Z M314.29 332.18 L309.25 336.24 L302.23 320.65 Z M205.32 309.22 L224.34 318.20 L210.48 293.42 Z M145.24 308.84 L158.62 332.13 L137.30 304.75 Z M109.07 261.43 L113.31 269.48 L111.15 260.93 Z M117.98 203.29 L112.55 210.29 L117.64 219.51 Z M296.99 313.86 L301.17 320.02 L293.91 311.29 Z M152.18 199.18 L152.89 183.93 L158.77 190.15 Z M150.84 163.32 L145.75 159.92 L130.09 155.27 Z M159.78 236.05 L147.69 255.77 L152.27 238.97 Z M161.70 336.99 L170.76 352.43 L166.82 336.54 Z M275.49 304.56 L283.73 300.78 L286.90 309.46 Z M318.15 357.06 L309.06 354.99 L294.67 350.11 Z M208.69 352.32 L220.00 358.38 L212.50 361.89 Z M190.80 363.50 L187.44 367.24 L181.81 363.04 Z M249.21 279.27 L243.16 270.37 L247.40 284.94 Z M256.00 379.22 L262.63 393.77 L275.92 384.84 Z M132.93 224.04 L140.03 247.64 L134.85 241.59 Z M337.00 355.95 L328.92 349.57 L329.87 345.81 Z M216.11 343.03 L200.49 351.00 L201.55 341.29 Z M321.91 409.56 L324.33 407.69 L314.99 410.54 Z M171.47 186.69 L185.62 214.21 L178.91 196.56 Z M200.49 351.00 L203.22 356.00 L194.82 352.49 Z M170.89 345.80 L176.62 343.60 L171.00 348.18 Z M189.97 273.31 L196.38 282.76 L187.75 289.87 Z M314.99 410.54 L324.33 407.69 L307.24 410.31 Z M97.21 157.67 L98.87 155.20 L109.60 149.80 Z M288.11 323.46 L269.95 322.19 L270.69 329.26 Z M112.55 210.29 L98.89 212.67 L108.97 214.75 Z M218.43 353.51 L214.83 351.55 L217.78 347.23 Z M197.55 262.83 L184.43 262.68 L185.13 246.54 Z M127.97 166.69 L114.83 161.88 L131.07 157.50 Z M248.40 382.60 L240.86 387.79 L255.80 395.25 Z M171.24 333.65 L163.50 324.80 L163.14 317.05 Z M103.06 160.46 L123.16 160.81 L112.18 153.03 Z M264.84 287.84 L260.19 292.55 L249.59 284.91 Z M94.51 155.24 L102.67 151.42 L98.87 155.20 Z M131.27 284.66 L118.22 268.42 L132.00 275.50 Z M224.34 318.20 L248.51 347.47 L233.46 321.04 Z M140.50 312.31 L153.12 330.53 L149.63 324.93 Z M127.97 166.69 L120.66 174.59 L114.83 161.88 Z M324.33 407.69 L321.91 409.56 L338.62 397.87 Z M340.18 357.63 L350.07 366.84 L334.16 349.76 Z M227.60 246.08 L237.81 258.78 L247.22 267.89 Z M119.30 278.51 L120.44 281.22 L113.31 269.48 Z M205.32 309.22 L210.48 293.42 L203.71 287.43 Z M142.24 164.43 L146.63 166.17 L150.84 163.32 Z M128.37 253.64 L147.96 274.07 L145.19 254.88 Z M257.32 273.71 L262.72 279.27 L248.39 264.62 Z M309.98 394.64 L290.58 376.59 L284.88 392.20 Z M112.67 184.67 L129.25 173.58 L129.60 192.05 Z M127.97 166.69 L135.38 157.83 L129.25 173.58 Z M246.43 369.22 L240.86 387.79 L248.40 382.60 Z M242.63 400.73 L236.37 398.19 L251.13 402.87 Z M94.39 178.98 L87.95 190.13 L87.46 173.06 Z M242.84 258.70 L230.33 246.46 L227.60 246.08 Z M75.51 188.74 L79.63 170.43 L77.01 185.47 Z M301.91 337.57 L319.60 353.20 L318.26 348.33 Z M137.06 217.88 L150.33 214.37 L143.61 207.52 Z M210.42 380.80 L205.67 375.42 L217.51 390.83 Z M142.66 302.70 L149.82 301.19 L154.44 310.40 Z M284.63 340.57 L296.68 333.85 L294.67 350.11 Z M312.39 327.28 L314.29 332.18 L302.23 320.65 Z M133.69 151.84 L135.38 157.83 L131.07 157.50 Z M119.93 232.49 L123.33 232.07 L126.32 245.29 Z M174.52 296.68 L171.65 277.34 L182.20 301.61 Z M270.69 329.26 L287.90 331.62 L288.11 323.46 Z M156.77 314.37 L152.39 314.11 L166.82 336.54 Z M245.16 306.98 L262.64 309.12 L252.57 324.63 Z M78.45 201.88 L77.01 185.47 L80.41 195.13 Z M210.79 327.73 L187.61 319.90 L199.41 328.79 Z M196.84 346.52 L186.81 341.16 L201.55 341.29 Z M131.07 157.50 L114.83 161.88 L133.69 151.84 Z M206.64 380.34 L199.79 371.72 L211.18 379.17 Z M241.31 282.35 L249.59 284.91 L237.43 287.14 Z M145.67 223.90 L144.88 215.63 L158.35 225.03 Z M214.97 271.27 L216.50 264.54 L206.45 253.46 Z M182.20 301.61 L187.75 289.87 L196.22 293.17 Z M150.84 163.32 L156.87 164.44 L145.75 159.92 Z M319.22 335.84 L328.92 349.57 L314.29 332.18 Z M206.60 274.95 L214.97 271.27 L206.45 253.46 Z M199.51 216.27 L208.10 225.36 L194.74 214.83 Z M163.05 330.93 L145.24 308.84 L154.44 310.40 Z M219.19 270.23 L204.14 264.48 L210.23 254.25 Z M194.74 214.83 L190.49 205.50 L199.51 216.27 Z M201.55 341.29 L177.71 322.55 L191.98 328.90 Z M335.86 398.60 L348.15 389.58 L346.63 398.04 Z M195.52 319.01 L215.72 335.25 L195.90 329.25 Z M342.13 394.12 L348.15 389.58 L335.86 398.60 Z M108.88 149.26 L98.87 155.20 L102.67 151.42 Z M277.45 351.71 L266.00 349.82 L260.39 334.39 Z M174.52 296.68 L182.20 301.61 L170.76 305.84 Z M226.93 267.57 L221.32 271.27 L236.88 278.72 Z M173.56 185.66 L173.67 183.33 L179.23 191.55 Z M338.62 397.87 L347.01 394.58 L349.01 384.27 Z M194.82 352.49 L190.80 363.50 L189.83 356.35 Z M121.64 193.60 L117.98 203.29 L136.86 199.71 Z M229.61 254.37 L238.73 273.38 L237.43 287.14 Z M345.14 367.30 L354.27 375.54 L351.53 371.39 Z M178.65 362.69 L187.44 367.24 L189.55 371.23 Z M143.33 185.97 L152.89 183.93 L152.18 199.18 Z M301.91 337.57 L309.60 337.36 L303.02 323.49 Z M354.03 378.75 L345.14 367.30 L337.16 361.31 Z M133.69 151.84 L116.08 149.85 L127.94 148.46 Z M157.40 233.72 L158.36 217.92 L149.94 226.87 Z M237.43 287.14 L233.20 301.47 L223.41 280.60 Z M193.91 353.30 L208.49 357.16 L206.44 344.99 Z M214.14 388.06 L207.91 382.37 L206.64 380.34 Z M81.56 198.01 L97.83 205.10 L93.28 215.05 Z M233.75 265.01 L226.93 267.57 L247.40 284.94 Z M267.98 347.89 L268.89 339.75 L256.84 330.82 Z M222.93 325.77 L203.35 306.87 L215.81 313.41 Z M227.68 244.31 L230.33 246.46 L218.59 235.30 Z M143.72 235.04 L132.93 224.04 L145.67 223.90 Z M271.39 310.02 L262.64 309.12 L260.19 292.55 Z M167.85 351.27 L158.62 332.13 L171.00 348.18 Z M91.12 218.96 L83.42 205.46 L93.28 215.05 Z M142.83 156.95 L147.68 164.77 L135.38 157.83 Z M283.87 351.93 L267.98 347.89 L274.98 361.39 Z M166.50 252.44 L150.11 245.18 L145.19 254.88 Z M354.27 375.54 L345.14 367.30 L354.03 378.75 Z M109.60 149.80 L98.87 155.20 L108.88 149.26 Z M194.82 352.49 L181.62 353.06 L176.62 343.60 Z M156.87 164.44 L173.67 183.33 L162.62 172.97 Z M152.18 199.18 L127.62 193.91 L129.60 192.05 Z M319.00 402.89 L330.30 396.20 L322.77 393.37 Z M191.07 219.01 L195.54 223.75 L189.06 212.38 Z M208.10 225.36 L203.85 223.38 L194.74 214.83 Z M184.12 198.54 L173.56 185.66 L180.26 193.12 Z M150.33 214.37 L137.06 217.88 L149.94 226.87 Z M146.55 156.77 L139.88 151.99 L142.81 154.66 Z M177.71 322.55 L195.52 319.01 L191.98 328.90 Z M239.05 397.39 L248.66 397.50 L262.22 401.74 Z M114.04 253.84 L122.07 265.67 L118.22 268.42 Z M115.67 199.14 L99.99 192.49 L109.40 193.50 Z M261.23 367.89 L274.98 361.39 L272.86 361.63 Z M276.82 308.40 L288.11 323.46 L285.36 310.00 Z M149.63 324.93 L154.41 328.31 L147.17 314.22 Z M255.80 395.25 L239.78 391.27 L248.07 401.36 Z M159.60 174.70 L173.56 185.66 L168.21 189.53 Z M94.39 178.98 L102.90 170.32 L99.99 192.49 Z M286.90 309.46 L288.67 323.43 L275.49 304.56 Z M156.81 270.94 L168.20 275.31 L165.64 260.19 Z M206.60 274.95 L187.64 273.65 L202.54 280.47 Z M265.93 377.28 L291.70 376.85 L271.77 378.97 Z M288.11 323.46 L278.38 316.61 L269.95 322.19 Z M217.03 385.59 L210.42 380.80 L217.51 390.83 Z M278.38 316.61 L276.82 308.40 L269.25 310.16 Z M217.00 285.65 L214.97 271.27 L206.60 274.95 Z M103.26 208.07 L109.95 210.97 L113.15 232.21 Z M185.49 261.27 L183.12 251.41 L172.17 240.10 Z M223.87 247.29 L215.14 237.91 L214.85 234.50 Z M276.82 308.40 L270.80 295.59 L266.06 294.40 Z M315.96 330.59 L301.79 318.14 L311.89 328.49 Z M309.25 336.24 L314.29 332.18 L328.92 349.57 Z M123.16 160.81 L133.60 169.80 L140.75 169.24 Z M251.49 312.04 L251.26 304.13 L233.02 303.07 Z M202.06 220.90 L208.10 225.36 L199.51 216.27 Z M314.69 331.88 L311.89 328.49 L303.02 323.49 Z M306.02 400.85 L322.77 393.37 L309.98 394.64 Z M113.27 236.57 L107.01 219.71 L98.57 226.11 Z M211.18 379.17 L230.61 388.56 L222.27 388.28 Z M271.28 405.83 L267.34 402.21 L280.50 405.80 Z M222.09 248.09 L233.92 256.27 L223.98 246.27 Z M152.61 161.96 L162.62 172.97 L159.60 174.70 Z M265.93 377.28 L253.53 372.58 L262.59 372.02 Z M220.00 358.38 L217.78 347.23 L228.55 364.94 Z M156.87 164.44 L146.55 156.77 L142.81 154.66 Z M233.02 285.13 L236.69 293.49 L250.57 293.33 Z M296.69 398.26 L305.80 404.36 L281.00 397.12 Z M319.60 353.20 L315.30 353.67 L318.63 358.96 Z M134.30 275.86 L130.84 277.32 L136.16 285.61 Z M247.40 284.94 L236.88 278.72 L236.93 283.34 Z M205.67 375.42 L212.07 386.82 L217.51 390.83 Z M182.39 221.41 L171.06 222.29 L179.04 234.84 Z M248.66 397.50 L239.05 397.39 L238.31 393.01 Z M202.06 220.90 L212.89 234.78 L227.60 246.08 Z M171.47 186.69 L163.50 175.34 L162.18 181.10 Z M108.68 236.94 L119.93 232.49 L126.32 245.29 Z M152.96 174.64 L162.18 181.10 L150.84 163.32 Z M267.98 347.89 L248.51 347.47 L263.19 358.73 Z M322.77 393.37 L330.30 396.20 L332.63 379.59 Z M237.35 356.03 L239.87 365.67 L232.86 362.60 Z M196.38 282.76 L189.97 273.31 L203.92 287.57 Z M255.42 274.11 L261.90 280.78 L264.84 287.84 Z M158.39 297.53 L156.92 305.55 L154.44 310.40 Z M119.30 278.51 L113.31 269.48 L118.92 275.27 Z M156.00 284.78 L155.76 295.35 L157.23 293.80 Z M159.78 236.05 L175.92 234.94 L164.51 252.31 Z M206.45 253.46 L216.50 264.54 L218.84 256.86 Z M214.11 254.62 L219.19 270.23 L210.23 254.25 Z M233.16 393.38 L232.56 390.73 L233.90 396.87 Z M193.91 340.65 L172.91 338.07 L187.38 345.52 Z M238.33 382.18 L230.61 388.56 L228.21 382.62 Z M334.16 349.76 L346.03 362.47 L329.73 343.82 Z M99.99 192.49 L102.90 170.32 L112.67 184.67 Z M308.89 381.18 L295.53 382.90 L291.70 376.85 Z M226.94 371.49 L212.97 372.74 L221.27 375.98 Z M309.98 394.64 L308.90 384.02 L304.53 372.34 Z M317.66 386.53 L339.42 383.02 L323.46 394.28 Z M120.44 281.22 L124.30 286.67 L129.93 296.50 Z M281.00 397.12 L284.15 403.10 L267.34 402.21 Z M323.46 394.28 L316.82 391.85 L317.66 386.53 Z M135.38 157.83 L146.60 167.42 L129.25 173.58 Z M302.23 320.65 L293.91 311.29 L301.17 320.02 Z M308.89 381.18 L320.80 363.90 L339.42 383.02 Z M341.30 400.83 L338.62 397.87 L321.91 409.56 Z M109.53 153.68 L106.62 163.67 L102.90 170.32 Z M268.89 339.75 L267.98 347.89 L283.97 341.85 Z M156.41 334.11 L153.12 330.53 L161.44 342.36 Z M332.94 403.33 L327.47 406.39 L324.54 405.53 Z M144.88 215.63 L145.67 223.90 L132.93 224.04 Z M87.46 173.06 L80.83 180.30 L83.73 173.72 Z M230.89 334.96 L245.54 350.23 L232.53 350.90 Z M223.41 280.60 L203.92 287.57 L210.82 283.49 Z M317.66 386.53 L316.82 391.85 L307.16 395.15 Z M254.17 305.50 L245.16 306.98 L252.97 299.59 Z M109.40 193.50 L99.99 192.49 L112.67 184.67 Z M212.61 230.41 L218.59 235.30 L214.85 234.50 Z M277.45 351.71 L294.67 350.11 L280.18 360.06 Z M230.36 258.57 L233.75 265.01 L233.92 256.27 Z M329.73 343.82 L346.03 362.47 L329.87 345.81 Z M152.61 161.96 L147.68 164.77 L139.88 151.99 Z M172.91 338.07 L170.76 352.43 L187.36 365.14 Z M221.64 346.29 L218.03 350.08 L221.81 358.66 Z M307.16 395.15 L323.46 394.28 L302.28 398.23 Z M233.75 265.01 L218.84 256.86 L226.93 267.57 Z M158.77 190.15 L164.78 204.81 L152.18 199.18 Z M200.86 237.60 L215.14 237.91 L223.87 247.29 Z M144.88 215.63 L132.93 224.04 L127.62 193.91 Z M139.15 259.35 L144.39 269.87 L135.43 262.68 Z M284.15 403.10 L281.00 397.12 L288.98 402.06 Z M206.64 380.34 L207.91 382.37 L197.58 376.29 Z M348.15 389.58 L355.81 381.93 L346.63 398.04 Z M157.40 233.72 L159.73 240.15 L172.17 240.10 Z M225.08 365.54 L228.93 377.26 L228.21 382.62 Z M133.69 151.84 L114.83 161.88 L116.08 149.85 Z M108.34 190.76 L109.51 181.64 L93.09 193.63 Z M201.55 341.29 L186.81 341.16 L177.71 322.55 Z M254.17 305.50 L262.64 309.12 L245.16 306.98 Z M302.21 370.00 L302.66 358.80 L318.15 357.06 Z M263.19 358.73 L266.56 359.65 L267.98 347.89 Z M145.81 195.41 L143.61 207.52 L150.69 205.56 Z M245.54 350.23 L253.24 340.37 L266.00 349.82 Z M309.60 337.36 L314.69 331.88 L303.02 323.49 Z M86.88 214.38 L90.76 215.55 L85.57 204.10 Z M346.63 398.04 L332.94 403.33 L324.54 405.53 Z M243.16 270.37 L233.75 265.01 L247.40 284.94 Z M263.13 380.91 L253.62 381.31 L225.08 365.54 Z M262.29 406.46 L271.28 405.83 L287.92 408.53 Z M221.64 346.29 L219.17 332.72 L210.79 327.73 Z M239.87 365.67 L228.55 364.94 L232.86 362.60 Z M137.34 273.12 L144.39 269.87 L146.46 287.31 Z M262.29 406.46 L266.65 406.80 L259.93 405.69 Z M215.72 335.25 L222.93 325.77 L231.26 320.53 Z M290.22 361.02 L274.98 361.39 L290.58 376.59 Z M230.61 388.56 L211.18 379.17 L216.26 377.22 Z M210.23 254.25 L200.86 237.60 L214.11 254.62 Z M132.93 224.04 L123.33 232.07 L119.93 232.49 Z M350.39 391.11 L349.01 384.27 L347.01 394.58 Z M281.44 409.39 L302.33 411.68 L291.08 409.31 Z M339.42 383.02 L337.62 367.01 L349.54 377.62 Z M288.59 306.56 L279.71 300.21 L285.36 310.00 Z M171.47 186.69 L164.19 187.89 L171.51 208.31 Z M130.51 291.65 L129.93 296.50 L124.30 286.67 Z M145.67 223.90 L152.27 238.97 L143.72 235.04 Z M187.38 345.52 L183.03 349.14 L193.91 340.65 Z M205.32 309.22 L203.71 287.43 L193.98 293.97 Z M206.44 344.99 L210.79 327.73 L193.91 340.65 Z M274.98 361.39 L267.98 347.89 L272.86 361.63 Z M291.08 409.31 L266.65 406.80 L281.44 409.39 Z M187.44 367.24 L190.80 363.50 L199.79 371.72 Z M302.21 370.00 L318.15 357.06 L309.24 370.30 Z M321.91 409.56 L327.47 406.39 L346.63 398.04 Z M103.18 220.66 L103.35 212.91 L113.15 232.21 Z M217.00 285.65 L233.02 285.13 L214.97 271.27 Z M149.63 324.93 L156.41 334.11 L154.41 328.31 Z M99.99 192.49 L97.83 205.10 L81.56 198.01 Z M168.20 275.31 L167.19 283.42 L170.73 280.84 Z M252.57 324.63 L260.39 334.39 L253.24 340.37 Z M263.13 380.91 L265.93 377.28 L275.55 383.32 Z M93.09 193.63 L79.56 201.24 L85.57 204.10 Z M147.64 178.69 L163.11 201.56 L164.19 187.89 Z M338.62 397.87 L338.37 386.36 L332.63 379.59 Z M111.46 173.91 L114.83 161.88 L112.67 184.67 Z M102.90 170.32 L112.52 161.92 L112.54 165.42 Z M155.06 196.26 L147.57 187.51 L145.81 195.41 Z M350.39 391.11 L351.53 394.68 L349.01 384.27 Z M205.64 240.30 L185.62 214.21 L195.97 242.62 Z M189.06 212.38 L202.06 220.90 L190.43 207.78 Z M114.04 253.84 L109.81 256.66 L103.77 249.23 Z M140.03 247.64 L143.72 235.04 L143.94 240.78 Z M351.53 394.68 L341.30 400.83 L321.91 409.56 Z M99.87 173.08 L111.10 168.31 L103.06 160.46 Z M103.77 249.23 L109.07 261.43 L100.48 243.96 Z M290.95 381.20 L295.53 382.90 L289.27 380.93 Z M228.93 377.26 L238.33 382.18 L228.21 382.62 Z M159.73 240.15 L157.40 233.72 L150.11 245.18 Z M153.12 330.53 L159.43 337.52 L167.85 351.27 Z M133.17 292.75 L120.32 275.48 L131.32 295.68 Z M218.84 256.86 L215.01 254.76 L206.45 253.46 Z M207.35 231.89 L201.44 233.96 L209.08 237.57 Z M261.33 297.44 L269.25 310.16 L276.82 308.40 Z M218.84 256.86 L213.12 248.62 L215.01 254.76 Z M243.16 270.37 L254.50 278.08 L247.22 267.89 Z M103.26 208.07 L99.99 192.49 L109.95 210.97 Z M338.62 397.87 L323.67 406.18 L324.33 407.69 Z M230.89 334.96 L238.14 325.87 L253.24 340.37 Z M178.35 287.74 L187.64 273.65 L168.20 275.31 Z M349.52 395.94 L352.37 394.56 L346.63 398.04 Z M341.97 375.32 L331.51 363.35 L332.63 379.59 Z M265.93 377.28 L263.13 380.91 L253.53 372.58 Z M121.78 152.15 L124.23 149.11 L112.18 153.03 Z M185.13 246.54 L210.23 254.25 L204.14 264.48 Z M126.32 245.29 L132.93 224.04 L134.85 241.59 Z M154.93 330.57 L158.62 332.13 L159.43 337.52 Z M130.84 277.32 L113.26 256.73 L120.32 275.48 Z M171.51 208.31 L171.06 222.29 L178.47 214.46 Z M205.64 240.30 L213.12 248.62 L209.08 237.57 Z M79.63 170.43 L83.76 166.82 L80.83 180.30 Z M319.60 353.20 L332.63 379.59 L331.51 363.35 Z M228.55 364.94 L217.78 347.23 L237.35 356.03 Z M103.77 249.23 L100.91 245.70 L100.15 242.30 Z M194.74 214.83 L186.65 220.31 L184.12 198.54 Z M91.26 160.52 L79.63 170.43 L79.33 173.73 Z M304.53 372.34 L290.58 376.59 L309.98 394.64 Z M114.83 161.88 L112.54 165.42 L112.52 161.92 Z M161.70 336.99 L166.82 336.54 L152.39 314.11 Z M136.16 285.61 L139.59 294.52 L143.05 291.13 Z M221.64 346.29 L235.34 358.65 L235.98 347.15 Z M253.62 381.31 L257.02 387.80 L244.30 385.62 Z M100.48 243.96 L96.63 237.67 L100.91 245.70 Z M100.54 233.08 L113.15 232.21 L108.68 236.94 Z M248.35 332.00 L267.98 347.89 L256.84 330.82 Z M121.64 193.60 L119.02 178.98 L108.34 190.76 Z M295.53 382.90 L290.95 381.20 L291.70 376.85 Z M147.17 314.22 L148.13 301.74 L139.59 294.52 Z M159.73 240.15 L166.50 252.44 L172.17 240.10 Z M163.14 317.05 L154.44 310.40 L156.92 305.55 Z M138.03 296.70 L142.66 302.70 L137.30 304.75 Z M93.28 215.05 L97.83 205.10 L103.18 220.66 Z M232.56 390.73 L226.10 394.71 L233.90 396.87 Z M293.54 327.00 L288.67 323.43 L309.25 336.24 Z M319.60 353.20 L301.91 337.57 L315.30 353.67 Z M120.44 281.22 L120.32 275.48 L113.31 269.48 Z M129.18 212.85 L117.98 203.29 L117.64 219.51 Z M291.08 409.31 L302.33 411.68 L307.24 410.31 Z M184.95 221.92 L177.35 202.14 L186.65 220.31 Z M218.03 350.08 L206.44 344.99 L221.81 358.66 Z M292.68 341.94 L287.90 331.62 L270.69 329.26 Z M212.50 361.89 L203.22 356.00 L208.69 352.32 Z M199.67 256.54 L206.45 253.46 L188.64 245.28 Z M239.05 397.39 L226.10 394.71 L217.51 390.83 Z M186.08 236.42 L195.97 242.62 L186.33 229.72 Z M205.67 375.42 L203.79 382.17 L212.07 386.82 Z M218.59 235.30 L208.10 225.36 L202.06 220.90 Z M323.46 394.28 L327.81 400.14 L319.88 401.61 Z M222.07 239.09 L227.60 246.08 L227.68 244.31 Z M123.16 160.81 L140.75 169.24 L142.24 164.43 Z M200.86 237.60 L199.99 249.12 L192.21 243.76 Z M173.56 185.66 L159.60 174.70 L162.62 172.97 Z M214.85 234.50 L208.10 225.36 L212.61 230.41 Z M322.70 336.68 L329.87 345.81 L328.92 349.57 Z M200.86 237.60 L185.13 246.54 L186.65 220.31 Z M163.14 317.05 L163.50 324.80 L163.05 330.93 Z M158.36 217.92 L171.51 208.31 L163.11 201.56 Z M264.84 287.84 L275.49 304.56 L260.19 292.55 Z M268.97 366.75 L280.18 360.06 L291.70 376.85 Z M185.62 214.21 L205.64 240.30 L201.44 233.96 Z M247.40 284.94 L233.02 285.13 L250.57 293.33 Z M243.16 270.37 L249.21 279.27 L254.50 278.08 Z M223.53 309.96 L212.65 296.02 L225.07 303.08 Z M121.18 166.18 L123.16 160.81 L111.10 168.31 Z M283.87 351.93 L274.98 361.39 L295.64 360.61 Z M210.82 283.49 L189.97 273.31 L223.41 280.60 Z M165.34 292.42 L171.65 277.34 L174.52 296.68 Z M249.59 284.91 L241.31 282.35 L238.73 273.38 Z M299.23 315.23 L312.39 327.28 L300.36 316.17 Z M139.15 259.35 L147.69 255.77 L144.39 269.87 Z M189.14 359.23 L205.67 375.42 L193.91 353.30 Z M187.61 319.90 L210.79 327.73 L175.58 311.45 Z M214.83 351.55 L208.69 352.32 L217.78 347.23 Z M324.54 405.53 L315.82 405.04 L319.88 401.61 Z M230.33 246.46 L229.61 254.37 L223.87 247.29 Z M269.25 310.16 L251.26 304.13 L257.14 311.24 Z M294.67 350.11 L277.45 351.71 L284.63 340.57 Z M211.18 379.17 L209.86 375.62 L216.26 377.22 Z M213.12 248.62 L195.97 242.62 L206.45 253.46 Z M186.17 290.26 L187.75 289.87 L182.20 301.61 Z M257.14 311.24 L256.84 330.82 L270.69 329.26 Z M156.41 334.11 L161.44 342.36 L167.85 351.27 Z M154.41 328.31 L156.41 334.11 L163.33 343.90 Z M120.44 281.22 L129.93 296.50 L131.32 295.68 Z M118.68 250.61 L130.84 277.32 L128.37 253.64 Z M315.96 330.59 L312.39 327.28 L301.79 318.14 Z M189.83 356.35 L190.80 363.50 L181.62 353.06 Z M303.02 323.49 L297.01 323.41 L296.71 329.45 Z M96.63 237.67 L97.67 234.96 L100.91 245.70 Z M195.52 319.01 L182.20 301.61 L203.35 306.87 Z M209.08 237.57 L222.09 248.09 L223.98 246.27 Z M245.54 350.23 L230.89 334.96 L253.24 340.37 Z M222.09 248.09 L209.08 237.57 L213.12 248.62 Z M189.90 371.08 L189.55 371.23 L197.58 376.29 Z M106.56 247.15 L97.67 234.96 L108.68 236.94 Z M128.37 253.64 L128.83 237.70 L127.00 225.85 Z M115.67 199.14 L116.10 211.79 L109.62 202.64 Z M111.08 247.61 L113.26 256.73 L118.68 250.61 Z M189.83 356.35 L181.62 353.06 L194.82 352.49 Z M248.70 391.67 L248.66 397.50 L246.09 396.00 Z M248.07 401.36 L233.90 396.87 L242.63 400.73 Z M255.42 274.11 L249.21 274.84 L246.08 266.81 Z M241.68 258.69 L246.08 266.81 L229.61 254.37 Z M210.79 327.73 L219.17 332.72 L224.34 318.20 Z M316.77 374.13 L306.99 377.63 L308.90 384.02 Z M150.11 245.18 L166.50 252.44 L159.73 240.15 Z M178.47 214.46 L171.06 222.29 L182.39 221.41 Z M112.67 184.67 L120.66 174.59 L129.25 173.58 Z M322.77 393.37 L306.02 400.85 L319.00 402.89 Z M221.81 358.66 L208.49 357.16 L226.94 371.49 Z M262.29 406.46 L267.34 402.21 L271.28 405.83 Z M272.86 361.63 L266.56 359.65 L261.23 367.89 Z M98.57 226.11 L102.66 238.78 L113.27 236.57 Z M262.72 279.27 L273.44 289.56 L277.61 295.77 Z M264.84 287.84 L249.21 274.84 L255.42 274.11 Z M205.32 309.22 L194.90 310.43 L210.79 327.73 Z M201.55 341.29 L191.98 328.90 L195.90 329.25 Z M118.22 268.42 L122.07 265.67 L132.00 275.50 Z M154.93 330.57 L151.44 325.65 L158.62 332.13 Z M284.88 392.20 L275.16 397.22 L283.64 400.71 Z M227.60 246.08 L222.07 239.09 L218.59 235.30 Z M319.00 402.89 L306.02 400.85 L302.53 407.32 Z M97.21 157.67 L86.69 161.65 L94.51 155.24 Z M288.67 323.43 L302.23 320.65 L309.25 336.24 Z M137.30 304.75 L137.06 306.01 L129.93 296.50 Z M113.27 236.57 L115.01 233.57 L117.64 219.51 Z M197.58 376.29 L189.55 371.23 L187.44 367.24 Z M97.67 234.96 L100.54 233.08 L108.68 236.94 Z M158.35 225.03 L152.27 238.97 L145.67 223.90 Z M311.46 407.99 L298.79 408.71 L305.62 405.60 Z M168.21 189.53 L164.78 204.81 L158.77 190.15 Z M303.77 411.06 L302.33 411.68 L298.49 410.78 Z M156.92 305.55 L158.39 297.53 L163.14 317.05 Z M314.29 332.18 L312.39 327.28 L322.70 336.68 Z M217.51 390.83 L203.79 382.17 L214.14 388.06 Z M179.04 234.84 L157.40 233.72 L172.17 240.10 Z M346.63 398.04 L357.37 387.27 L349.52 395.94 Z M127.97 166.69 L131.07 157.50 L135.38 157.83 Z M301.17 320.02 L296.99 313.86 L302.23 320.65 Z M292.80 388.95 L270.98 388.32 L275.55 383.32 Z M128.37 253.64 L145.19 254.88 L141.64 242.82 Z M248.35 332.00 L256.84 330.82 L233.46 321.04 Z M125.42 264.22 L122.07 265.67 L114.04 253.84 Z M122.07 265.67 L125.42 264.22 L132.00 275.50 Z M143.61 207.52 L150.33 214.37 L150.69 205.56 Z M296.99 313.86 L293.91 311.29 L290.26 306.26 Z M154.44 310.40 L145.24 308.84 L142.66 302.70 Z M109.53 153.68 L97.21 157.67 L109.60 149.80 Z M124.36 278.46 L118.22 268.42 L131.27 284.66 Z M186.17 290.26 L182.20 301.61 L171.65 277.34 Z M130.51 291.65 L138.03 296.70 L137.30 304.75 Z M351.53 394.68 L321.91 409.56 L346.63 398.04 Z M91.26 160.52 L94.51 155.24 L86.69 161.65 Z M189.90 371.08 L197.58 376.29 L198.21 377.55 Z M246.09 396.00 L248.66 397.50 L238.31 393.01 Z M245.16 306.98 L231.26 320.53 L242.07 302.63 Z M249.59 284.91 L229.61 254.37 L249.21 274.84 Z M185.49 261.27 L187.64 273.65 L206.60 274.95 Z M173.56 185.66 L179.23 191.55 L180.26 193.12 Z M221.11 388.93 L238.31 393.01 L224.08 392.19 Z M284.15 403.10 L305.80 404.36 L280.50 405.80 Z M312.39 327.28 L302.23 320.65 L300.36 316.17 Z M357.37 387.27 L354.03 378.75 L351.53 394.68 Z M277.61 295.77 L272.11 291.88 L262.72 279.27 Z M152.89 183.93 L129.25 173.58 L146.60 167.42 Z M168.20 275.31 L173.23 267.06 L165.64 260.19 Z M180.26 193.12 L187.35 202.46 L184.12 198.54 Z M124.23 149.11 L130.09 155.27 L142.81 154.66 Z M236.93 283.34 L236.88 278.72 L233.02 285.13 Z M195.54 223.75 L199.19 221.24 L189.06 212.38 Z M249.21 274.84 L264.84 287.84 L249.59 284.91 Z M258.39 401.42 L248.07 401.36 L259.93 405.69 Z M175.29 264.79 L189.97 273.31 L171.65 277.34 Z M287.92 408.53 L280.50 405.80 L298.79 408.71 Z M346.63 398.04 L324.54 405.53 L327.81 400.14 Z M91.20 225.39 L86.88 214.38 L78.45 201.88 Z M189.55 371.23 L187.36 365.14 L170.76 352.43 Z M222.93 325.77 L195.52 319.01 L203.35 306.87 Z M256.77 293.79 L260.19 292.55 L262.64 309.12 Z M302.21 370.00 L294.67 350.11 L302.66 358.80 Z M248.39 264.62 L262.72 279.27 L242.84 258.70 Z M350.07 366.84 L349.54 377.62 L348.59 367.41 Z M193.98 293.97 L197.89 287.06 L187.64 273.65 Z M317.66 386.53 L307.16 395.15 L292.80 388.95 Z M184.95 221.92 L175.92 234.94 L177.35 202.14 Z M143.94 240.78 L143.72 235.04 L152.27 238.97 Z M229.61 254.37 L223.15 257.20 L223.87 247.29 Z M103.77 249.23 L118.92 275.27 L113.31 269.48 Z M109.40 193.50 L112.67 184.67 L115.67 199.14 Z M306.35 357.35 L304.53 372.34 L315.45 366.85 Z M221.81 358.66 L235.34 358.65 L221.64 346.29 Z M227.60 246.08 L218.59 235.30 L202.06 220.90 Z "></path></svg>