<svg xmlns="http://www.w3.org/2000/svg" id="svg" width="440" height="440" font-family="Times" font-size="14" oncopy="svg_copy(this);">
<text x="10" y="10" id="title" font-style="italic" style="fill1:#ff6633;stroke:none">θ<tspan dy="6" font-size="0.8em">0</tspan><tspan dy="-6" font-style="normal"> = 270° <tspan font-style="italic">φ</tspan><tspan dy="6" font-size="0.8em">0</tspan><tspan dy="-6" font-style="normal"> = 0°</tspan></tspan></text>
<text x="280" y="10" id="title2" font-style="italic" style="fill1:#ff6633;stroke:none">f<tspan dy="6" font-size="0.8em">0</tspan><tspan dy="-6" font-style="normal"> = 38 kHz <tspan font-style="italic">c</tspan><tspan dy="6" font-size="0.8em">0</tspan><tspan dy="-6" font-style="normal"> = 1480 m/s</tspan></tspan></text>
<text x="340" y="432" id="title3" font-style="italic" style="fill1:#ff6633;stroke:none">TS<tspan font-style="normal"> = -40.49 dB</tspan></text>
<text x="10" y="432" id="title4" font-style="italic" style="fill1:#ff6633;stroke:none">ℒ<tspan dy="6" font-size="0.8em">BS</tspan><tspan dy="-6" font-style="normal"> = 0.0094 m</tspan></text>
<g id="svg0" transform="translate(20,20)">
<line x1="210" y1="200" x2="400" y2="200" stroke="gray"></line>
<line x1="210" y1="200" x2="400" y2="200" stroke="gray" transform="rotate(30 200 200)" stroke-dasharray="1,1"></line>
<line x1="210" y1="200" x2="400" y2="200" stroke="gray" transform="rotate(60 200 200)" stroke-dasharray="1,1"></line>
<line x1="210" y1="200" x2="400" y2="200" stroke="gray" transform="rotate(90 200 200)" stroke-dasharray="1,1"></line>
<line x1="210" y1="200" x2="400" y2="200" stroke="gray" transform="rotate(120 200 200)" stroke-dasharray="1,1"></line>
<line x1="210" y1="200" x2="400" y2="200" stroke="gray" transform="rotate(150 200 200)" stroke-dasharray="1,1"></line>
<line x1="210" y1="200" x2="400" y2="200" stroke="gray" transform="rotate(180 200 200)" stroke-dasharray="1,1"></line>
<line x1="210" y1="200" x2="400" y2="200" stroke="gray" transform="rotate(210 200 200)" stroke-dasharray="1,1"></line>
<line x1="210" y1="200" x2="400" y2="200" stroke="gray" transform="rotate(240 200 200)" stroke-dasharray="1,1"></line>
<line x1="210" y1="200" x2="400" y2="200" stroke="gray" transform="rotate(270 200 200)" stroke-dasharray="1,1"></line>
<line x1="210" y1="200" x2="400" y2="200" stroke="gray" transform="rotate(300 200 200)" stroke-dasharray="1,1"></line>
<line x1="210" y1="200" x2="400" y2="200" stroke="gray" transform="rotate(330 200 200)" stroke-dasharray="1,1"></line>
<circle cx="200" cy="200" r="10" stroke="black" fill="none"></circle>	
<circle cx="200" cy="200" r="57.5" stroke="gray" fill="none" stroke-dasharray="1,1"></circle>	
<circle cx="200" cy="200" r="105" stroke="gray" fill="none" stroke-dasharray="1,1"></circle>	
<circle cx="200" cy="200" r="152.5" stroke="gray" fill="none" stroke-dasharray="1,1"></circle>	
<circle cx="200" cy="200" r="200" stroke="black" fill="none"></circle>
<text x="205" y="215">-60</text>
<text x="245" y="215">-50</text>
<text x="295" y="215">-40</text>
<text x="342" y="215">-30</text>
<text x="380" y="215">-20</text>
<text x="405" y="205">0</text>
<g transform="rotate(-30,200,200)"><text x="405" y="205">30</text></g>
<g transform="rotate(-60,200,200)"><text x="405" y="205">60</text></g>
<text x="195" y="-5">90</text>
<g transform="rotate(60,200,200)"><text x="-30" y="205">120</text></g>
<g transform="rotate(30,200,200)"><text x="-30" y="205">150</text></g>
<text x="-20" y="205">180</text>
<g transform="rotate(-30,200,200)"><text x="-30" y="205">210</text></g>
<g transform="rotate(-60,200,200)"><text x="-30" y="205">240</text></g>
<text x="190" y="415">270</text>
<g transform="rotate( 60,200,200)"><text x="405" y="205">300</text></g>
<g transform="rotate( 30,200,200)"><text x="405" y="205">330</text></g>

<line x1="390" y1="200" x2="400" y2="200" stroke="black" transform="rotate(0 200 200)"></line>
<line x1="390" y1="200" x2="400" y2="200" stroke="black" transform="rotate(30 200 200)"></line>
<line x1="390" y1="200" x2="400" y2="200" stroke="black" transform="rotate(60 200 200)"></line>
<line x1="390" y1="200" x2="400" y2="200" stroke="black" transform="rotate(90 200 200)"></line>
<line x1="390" y1="200" x2="400" y2="200" stroke="black" transform="rotate(120 200 200)"></line>
<line x1="390" y1="200" x2="400" y2="200" stroke="black" transform="rotate(150 200 200)"></line>
<line x1="390" y1="200" x2="400" y2="200" stroke="black" transform="rotate(180 200 200)"></line>
<line x1="390" y1="200" x2="400" y2="200" stroke="black" transform="rotate(210 200 200)"></line>
<line x1="390" y1="200" x2="400" y2="200" stroke="black" transform="rotate(240 200 200)"></line>
<line x1="390" y1="200" x2="400" y2="200" stroke="black" transform="rotate(270 200 200)"></line>
<line x1="390" y1="200" x2="400" y2="200" stroke="black" transform="rotate(300 200 200)"></line>
<line x1="390" y1="200" x2="400" y2="200" stroke="black" transform="rotate(330 200 200)"></line>

<line x1="257.5" y1="195" x2="257.5" y2="200" stroke="black"></line>
<line x1="305" y1="195" x2="305" y2="200" stroke="black"></line>
<line x1="352.5" y1="195" x2="352.5" y2="200" stroke="black"></line>
<path id="F" stroke="#AA69D3" stroke-width="3" stroke-dasharray="1,0" fill="none" d=""></path><path id="P" stroke="#ff6633" stroke-width="3" stroke-dasharray="1,0" fill="none" d="M326.35 200.00 L326.73 197.79 L327.06 195.56 L327.33 193.33 L327.55 191.08 L327.71 188.83 L327.81 186.57 L327.85 184.30 L327.82 182.04 L327.72 179.77 L327.56 177.51 L327.33 175.25 L327.03 173.00 L326.65 170.76 L326.20 168.53 L325.67 166.33 L325.07 164.14 L324.39 161.97 L323.64 159.83 L322.80 157.72 L321.88 155.64 L320.88 153.60 L319.80 151.60 L318.63 149.64 L317.38 147.74 L316.05 145.88 L314.64 144.09 L313.14 142.35 L311.56 140.68 L309.89 139.09 L308.14 137.56 L306.31 136.12 L304.39 134.77 L302.39 133.50 L300.31 132.34 L298.15 131.28 L295.90 130.32 L293.57 129.49 L291.17 128.77 L288.68 128.19 L286.11 127.74 L283.47 127.44 L280.75 127.29 L277.95 127.31 L275.09 127.49 L272.15 127.85 L269.15 128.39 L266.09 129.13 L262.98 130.05 L259.84 131.17 L256.67 132.47 L253.50 133.93 L250.38 135.51 L247.35 137.16 L244.48 138.78 L241.85 140.23 L239.54 141.38 L237.64 142.04 L236.20 142.07 L235.20 141.42 L234.58 140.11 L234.24 138.23 L234.06 135.94 L233.94 133.39 L233.80 130.70 L233.59 127.96 L233.28 125.26 L232.84 122.63 L232.28 120.11 L231.59 117.72 L230.77 115.46 L229.84 113.34 L228.80 111.36 L227.66 109.53 L226.43 107.84 L225.11 106.28 L223.72 104.86 L222.26 103.58 L220.74 102.42 L219.17 101.38 L217.55 100.47 L215.89 99.68 L214.19 99.00 L212.47 98.43 L210.72 97.98 L208.96 97.62 L207.18 97.38 L205.39 97.23 L203.59 97.17 L201.79 97.21 L200.00 97.34 L198.21 97.56 L196.43 97.85 L194.67 98.24 L192.92 98.69 L191.18 99.23 L189.47 99.83 L187.78 100.50 L186.12 101.24 L184.48 102.04 L182.88 102.89 L181.30 103.81 L179.76 104.78 L178.25 105.79 L176.78 106.86 L175.34 107.96 L173.94 109.11 L172.57 110.30 L171.25 111.52 L169.96 112.77 L168.72 114.05 L167.51 115.36 L166.34 116.69 L165.21 118.03 L164.12 119.40 L163.06 120.79 L162.05 122.19 L161.07 123.60 L160.13 125.02 L159.23 126.44 L158.36 127.87 L157.52 129.30 L156.72 130.74 L155.95 132.18 L155.22 133.61 L154.52 135.05 L153.85 136.48 L153.21 137.91 L152.60 139.33 L152.02 140.75 L151.46 142.16 L150.94 143.56 L150.45 144.97 L149.98 146.36 L149.54 147.75 L149.13 149.13 L148.75 150.51 L148.41 151.89 L148.09 153.26 L147.80 154.62 L147.54 155.98 L147.33 157.34 L147.14 158.70 L147.00 160.06 L146.90 161.42 L146.83 162.77 L146.81 164.12 L146.85 165.48 L146.94 166.84 L147.07 168.20 L147.27 169.56 L147.54 170.92 L147.88 172.29 L148.29 173.65 L148.77 175.01 L149.34 176.38 L150.00 177.74 L150.75 179.10 L151.62 180.45 L152.59 181.80 L153.66 183.13 L154.86 184.46 L156.17 185.76 L157.59 187.03 L159.14 188.28 L160.75 189.48 L162.45 190.64 L164.18 191.73 L165.87 192.75 L167.43 193.67 L168.76 194.49 L169.69 195.20 L170.14 195.80 L169.92 196.31 L168.99 196.74 L167.37 197.15 L165.13 197.56 L162.39 198.03 L159.32 198.58 L156.04 199.23 L152.66 200.00 L149.27 200.89 L145.93 201.89 L142.70 203.00 L139.58 204.22 L136.60 205.55 L133.77 206.96 L131.09 208.46 L128.58 210.04 L126.22 211.69 L124.03 213.40 L121.99 215.16 L120.11 216.98 L118.37 218.84 L116.80 220.74 L115.37 222.68 L114.10 224.63 L112.97 226.61 L111.98 228.60 L111.14 230.60 L110.43 232.60 L109.87 234.60 L109.44 236.59 L109.15 238.57 L108.98 240.52 L108.95 242.46 L109.04 244.36 L109.25 246.24 L109.59 248.07 L110.04 249.87 L110.60 251.62 L111.26 253.32 L112.03 254.97 L112.88 256.58 L113.81 258.13 L114.82 259.65 L115.88 261.12 L116.98 262.56 L118.12 263.98 L119.25 265.39 L120.39 266.80 L121.49 268.25 L122.55 269.74 L123.53 271.31 L124.44 272.97 L125.26 274.74 L125.98 276.65 L126.61 278.70 L127.16 280.89 L127.65 283.23 L128.08 285.71 L128.50 288.30 L128.91 290.99 L129.35 293.76 L129.83 296.59 L130.37 299.45 L130.98 302.33 L131.68 305.21 L132.47 308.07 L133.36 310.90 L134.36 313.69 L135.47 316.42 L136.68 319.09 L138.00 321.69 L139.42 324.21 L140.94 326.65 L142.57 329.00 L144.28 331.26 L146.09 333.42 L147.99 335.49 L149.97 337.45 L152.03 339.31 L154.16 341.07 L156.36 342.73 L158.63 344.28 L160.96 345.72 L163.34 347.05 L165.77 348.28 L168.24 349.40 L170.76 350.41 L173.32 351.31 L175.91 352.11 L178.53 352.80 L181.17 353.38 L183.83 353.86 L186.51 354.24 L189.20 354.51 L191.89 354.68 L194.60 354.75 L197.30 354.73 L200.00 354.60 L202.69 354.38 L205.38 354.07 L208.05 353.66 L210.71 353.16 L213.35 352.58 L215.97 351.91 L218.56 351.16 L221.13 350.33 L223.66 349.41 L226.17 348.43 L228.64 347.36 L231.08 346.23 L233.48 345.03 L235.84 343.76 L238.16 342.43 L240.44 341.05 L242.68 339.60 L244.87 338.10 L247.02 336.55 L249.12 334.94 L251.17 333.30 L253.17 331.61 L255.13 329.88 L257.04 328.12 L258.90 326.32 L260.72 324.49 L262.48 322.63 L264.20 320.75 L265.87 318.84 L267.50 316.91 L269.08 314.97 L270.62 313.01 L272.11 311.04 L273.56 309.06 L274.97 307.07 L276.34 305.08 L277.68 303.08 L278.97 301.08 L280.24 299.08 L281.47 297.09 L282.67 295.10 L283.84 293.11 L284.98 291.13 L286.10 289.16 L287.19 287.19 L288.27 285.24 L289.32 283.29 L290.36 281.36 L291.38 279.43 L292.39 277.52 L293.38 275.62 L294.37 273.73 L295.35 271.85 L296.32 269.98 L297.28 268.12 L298.24 266.26 L299.20 264.42 L300.15 262.58 L301.10 260.75 L302.06 258.92 L303.00 257.10 L303.96 255.27 L304.91 253.45 L305.85 251.63 L306.80 249.80 L307.75 247.97 L308.69 246.14 L309.64 244.30 L310.57 242.45 L311.51 240.59 L312.44 238.71 L313.35 236.83 L314.26 234.93 L315.16 233.02 L316.05 231.10 L316.92 229.15 L317.78 227.19 L318.62 225.21 L319.43 223.22 L320.22 221.20 L320.99 219.16 L321.73 217.11 L322.44 215.03 L323.12 212.94 L323.76 210.83 L324.36 208.70 L324.93 206.55 L325.45 204.38 L325.92 202.20 Z "></path><circle id="P_TS" fill="#ff6633" stroke-width="1" stroke="#ff6633" r="4" cx="200" cy="97.33834434600057"><title>TS(90°)=-40.49</title></circle></g>
</svg>