<svg xmlns="http://www.w3.org/2000/svg" id="svg1" width="440" height="440" font-family="Times" font-size="14" oncopy="svg_copy(this);">
      <g id="gt" transform="translate(0,20)">
      </g>
   <path id="Xp" stroke="red" stroke-width="0.875" stroke-dasharray="1,0" fill="none" d="M220.00 220.00 L6704.27 764.65 Z "></path><path id="Xn" stroke="red" stroke-width="0.875" stroke-dasharray="2,4" fill="none" d="M220.00 220.00 L-6264.27 -324.65 Z "></path><path id="Yp" stroke="green" stroke-width="0.875" stroke-dasharray="1,0" fill="none" d="M220.00 220.00 L220.00 -6679.67 Z "></path><path id="Yn" stroke="green" stroke-width="0.875" stroke-dasharray="2,4" fill="none" d="M220.00 220.00 L220.00 7119.67 Z "></path><path id="Zp" stroke="blue" stroke-width="0.875" stroke-dasharray="1,0" fill="none" d="M220.00 220.00 L-2521.51 1508.23 Z "></path><path id="Zn" stroke="blue" stroke-width="0.875" stroke-dasharray="2,4" fill="none" d="M220.00 220.00 L2961.51 -1068.23 Z "></path><circle id="O" fill="black" stroke-width="1" stroke="none" r="4" cx="220" cy="220"><title>[0,0,0]</title></circle><circle id="lambda_0" fill="#FFAA33" stroke-width="1" stroke="none" r="4" cx="346.27261458835346" cy="230.60640032221363"><title>λ/2=0.0195</title></circle><path id="B11" stroke="black" stroke-width="0.5" stroke-dasharray="1,0" fill="none" d="M147.11 318.67 L40.34 368.84 L40.34 100.12 L147.11 49.95 Z M399.66 339.88 L292.89 390.05 L292.89 121.33 L399.66 71.16 Z M147.11 318.67 L399.66 339.88 Z M40.34 368.84 L292.89 390.05 Z M40.34 100.12 L292.89 121.33 Z M147.11 49.95 L399.66 71.16 Z Z "></path><path id="B1" stroke="black" stroke-width="0.5" stroke-dasharray="2,4" fill="none" d="M231.30 325.74 L124.52 375.91 L124.52 107.19 L231.30 57.02 Z M315.48 332.81 L208.70 382.98 L208.70 114.26 L315.48 64.09 Z M147.11 229.09 L40.34 279.27 L292.89 300.48 L399.66 250.31 Z M147.11 139.52 L40.34 189.69 L292.89 210.91 L399.66 160.73 Z M111.52 335.39 L111.52 66.67 L364.07 87.88 L364.07 356.61 Z M75.93 352.12 L75.93 83.39 L328.48 104.61 L328.48 373.33 Z "></path><path id="C1" stroke="green" stroke-width="1" stroke-dasharray="1,2" fill="none" d="M299.96 232.37 L299.95 230.64 L299.91 228.90 L299.85 227.16 L299.77 225.42 L299.66 223.67 L299.52 221.92 L299.36 220.18 L299.18 218.43 L298.98 216.68 L298.75 214.94 L298.49 213.19 L298.21 211.45 L297.91 209.71 L297.59 207.98 L297.24 206.24 L296.86 204.51 L296.47 202.79 L296.05 201.07 L295.60 199.36 L295.14 197.65 L294.65 195.95 L294.14 194.26 L293.60 192.58 L293.05 190.90 L292.47 189.23 L291.87 187.58 L291.25 185.93 L290.60 184.29 L289.94 182.66 L289.25 181.05 L288.54 179.44 L287.81 177.85 L287.06 176.27 L286.29 174.71 L285.50 173.16 L284.69 171.62 L283.86 170.10 L283.01 168.59 L282.14 167.10 L281.25 165.63 L280.35 164.17 L279.42 162.73 L278.48 161.30 L277.52 159.90 L276.54 158.51 L275.55 157.14 L274.53 155.79 L273.50 154.46 L272.46 153.15 L271.40 151.86 L270.32 150.59 L269.23 149.34 L268.12 148.11 L267.00 146.91 L265.86 145.72 L264.71 144.56 L263.55 143.43 L262.37 142.31 L261.18 141.22 L259.98 140.16 L258.77 139.12 L257.54 138.10 L256.30 137.11 L255.05 136.14 L253.79 135.20 L252.52 134.28 L251.24 133.39 L249.95 132.53 L248.66 131.69 L247.35 130.89 L246.03 130.10 L244.71 129.35 L243.38 128.62 L242.04 127.92 L240.70 127.25 L239.34 126.61 L237.99 125.99 L236.62 125.41 L235.26 124.85 L233.89 124.32 L232.51 123.82 L231.13 123.35 L229.74 122.91 L228.36 122.50 L226.97 122.12 L225.58 121.77 L224.18 121.45 L222.79 121.15 L221.40 120.89 L220.00 120.66 L218.60 120.46 L217.21 120.29 L215.82 120.15 L214.42 120.04 L213.03 119.96 L211.64 119.91 L210.26 119.89 L208.87 119.91 L207.49 119.95 L206.11 120.02 L204.74 120.13 L203.38 120.26 L202.01 120.42 L200.66 120.62 L199.30 120.84 L197.96 121.10 L196.62 121.38 L195.29 121.70 L193.97 122.05 L192.65 122.42 L191.34 122.83 L190.05 123.26 L188.76 123.72 L187.48 124.22 L186.21 124.74 L184.95 125.29 L183.70 125.87 L182.46 126.48 L181.23 127.12 L180.02 127.78 L178.82 128.48 L177.63 129.20 L176.45 129.95 L175.29 130.73 L174.14 131.53 L173.00 132.36 L171.88 133.22 L170.77 134.10 L169.68 135.01 L168.60 135.95 L167.54 136.91 L166.50 137.90 L165.47 138.91 L164.45 139.95 L163.46 141.01 L162.48 142.09 L161.52 143.20 L160.58 144.33 L159.65 145.49 L158.75 146.67 L157.86 147.87 L156.99 149.09 L156.14 150.33 L155.31 151.60 L154.50 152.89 L153.71 154.19 L152.94 155.52 L152.19 156.86 L151.46 158.23 L150.75 159.61 L150.06 161.02 L149.40 162.44 L148.75 163.88 L148.13 165.33 L147.53 166.80 L146.95 168.29 L146.40 169.79 L145.86 171.31 L145.35 172.85 L144.86 174.40 L144.40 175.96 L143.95 177.53 L143.53 179.12 L143.14 180.72 L142.76 182.34 L142.41 183.96 L142.09 185.60 L141.79 187.24 L141.51 188.90 L141.25 190.56 L141.02 192.24 L140.82 193.92 L140.64 195.61 L140.48 197.31 L140.34 199.01 L140.23 200.73 L140.15 202.44 L140.09 204.17 L140.05 205.89 L140.04 207.63 L140.05 209.36 L140.09 211.10 L140.15 212.84 L140.23 214.58 L140.34 216.33 L140.48 218.08 L140.64 219.82 L140.82 221.57 L141.02 223.32 L141.25 225.06 L141.51 226.81 L141.79 228.55 L142.09 230.29 L142.41 232.02 L142.76 233.76 L143.14 235.49 L143.53 237.21 L143.95 238.93 L144.40 240.64 L144.86 242.35 L145.35 244.05 L145.86 245.74 L146.40 247.42 L146.95 249.10 L147.53 250.77 L148.13 252.42 L148.75 254.07 L149.40 255.71 L150.06 257.34 L150.75 258.95 L151.46 260.56 L152.19 262.15 L152.94 263.73 L153.71 265.29 L154.50 266.84 L155.31 268.38 L156.14 269.90 L156.99 271.41 L157.86 272.90 L158.75 274.37 L159.65 275.83 L160.58 277.27 L161.52 278.70 L162.48 280.10 L163.46 281.49 L164.45 282.86 L165.47 284.21 L166.50 285.54 L167.54 286.85 L168.60 288.14 L169.68 289.41 L170.77 290.66 L171.88 291.89 L173.00 293.09 L174.14 294.28 L175.29 295.44 L176.45 296.57 L177.63 297.69 L178.82 298.78 L180.02 299.84 L181.23 300.88 L182.46 301.90 L183.70 302.89 L184.95 303.86 L186.21 304.80 L187.48 305.72 L188.76 306.61 L190.05 307.47 L191.34 308.31 L192.65 309.11 L193.97 309.90 L195.29 310.65 L196.62 311.38 L197.96 312.08 L199.30 312.75 L200.66 313.39 L202.01 314.01 L203.38 314.59 L204.74 315.15 L206.11 315.68 L207.49 316.18 L208.87 316.65 L210.26 317.09 L211.64 317.50 L213.03 317.88 L214.42 318.23 L215.82 318.55 L217.21 318.85 L218.60 319.11 L220.00 319.34 L221.40 319.54 L222.79 319.71 L224.18 319.85 L225.58 319.96 L226.97 320.04 L228.36 320.09 L229.74 320.11 L231.13 320.09 L232.51 320.05 L233.89 319.98 L235.26 319.87 L236.62 319.74 L237.99 319.58 L239.34 319.38 L240.70 319.16 L242.04 318.90 L243.38 318.62 L244.71 318.30 L246.03 317.95 L247.35 317.58 L248.66 317.17 L249.95 316.74 L251.24 316.28 L252.52 315.78 L253.79 315.26 L255.05 314.71 L256.30 314.13 L257.54 313.52 L258.77 312.88 L259.98 312.22 L261.18 311.52 L262.37 310.80 L263.55 310.05 L264.71 309.27 L265.86 308.47 L267.00 307.64 L268.12 306.78 L269.23 305.90 L270.32 304.99 L271.40 304.05 L272.46 303.09 L273.50 302.10 L274.53 301.09 L275.55 300.05 L276.54 298.99 L277.52 297.91 L278.48 296.80 L279.42 295.67 L280.35 294.51 L281.25 293.33 L282.14 292.13 L283.01 290.91 L283.86 289.67 L284.69 288.40 L285.50 287.11 L286.29 285.81 L287.06 284.48 L287.81 283.14 L288.54 281.77 L289.25 280.39 L289.94 278.98 L290.60 277.56 L291.25 276.12 L291.87 274.67 L292.47 273.20 L293.05 271.71 L293.60 270.21 L294.14 268.69 L294.65 267.15 L295.14 265.60 L295.60 264.04 L296.05 262.47 L296.47 260.88 L296.86 259.28 L297.24 257.66 L297.59 256.04 L297.91 254.40 L298.21 252.76 L298.49 251.10 L298.75 249.44 L298.98 247.76 L299.18 246.08 L299.36 244.39 L299.52 242.69 L299.66 240.99 L299.77 239.27 L299.85 237.56 L299.91 235.83 L299.95 234.11 Z "></path><path id="C1h" stroke="green" stroke-width="1" stroke-dasharray="1,2" fill="none" d="M313.36 227.84 L312.65 228.16 L311.92 228.48 L311.16 228.80 L310.38 229.12 L309.56 229.43 L308.72 229.74 L307.85 230.04 L306.96 230.35 L306.03 230.65 L305.09 230.94 L304.11 231.24 L303.11 231.53 L302.09 231.81 L301.04 232.10 L299.96 232.37 L298.86 232.65 L297.74 232.92 L296.59 233.19 L295.42 233.45 L294.23 233.71 L293.01 233.97 L291.77 234.22 L290.51 234.47 L289.23 234.71 L287.93 234.95 L286.61 235.18 L285.26 235.41 L283.90 235.63 L282.52 235.85 L281.11 236.06 L279.69 236.27 L278.26 236.48 L276.80 236.68 L275.32 236.87 L273.83 237.06 L272.33 237.25 L270.80 237.42 L269.27 237.60 L267.71 237.77 L266.14 237.93 L264.56 238.09 L262.97 238.24 L261.36 238.38 L259.74 238.52 L258.10 238.66 L256.46 238.79 L254.80 238.91 L253.14 239.03 L251.46 239.14 L249.77 239.25 L248.08 239.35 L246.37 239.44 L244.66 239.53 L242.94 239.61 L241.21 239.69 L239.48 239.76 L237.74 239.83 L236.00 239.88 L234.25 239.94 L232.50 239.98 L230.74 240.02 L228.98 240.06 L227.21 240.09 L225.45 240.11 L223.68 240.12 L221.91 240.13 L220.14 240.14 L218.38 240.13 L216.61 240.13 L214.84 240.11 L213.07 240.09 L211.31 240.06 L209.55 240.03 L207.79 239.99 L206.04 239.94 L204.29 239.89 L202.54 239.84 L200.80 239.77 L199.07 239.70 L197.34 239.63 L195.62 239.55 L193.91 239.46 L192.20 239.36 L190.50 239.27 L188.82 239.16 L187.14 239.05 L185.47 238.93 L183.81 238.81 L182.16 238.68 L180.53 238.55 L178.91 238.41 L177.30 238.26 L175.70 238.11 L174.11 237.96 L172.54 237.79 L170.99 237.63 L169.45 237.45 L167.92 237.28 L166.41 237.09 L164.92 236.90 L163.44 236.71 L161.98 236.51 L160.54 236.31 L159.12 236.10 L157.71 235.89 L156.33 235.67 L154.96 235.44 L153.61 235.22 L152.29 234.98 L150.98 234.75 L149.69 234.51 L148.43 234.26 L147.19 234.01 L145.97 233.75 L144.77 233.50 L143.60 233.23 L142.45 232.97 L141.32 232.69 L140.22 232.42 L139.14 232.14 L138.08 231.86 L137.05 231.57 L136.05 231.28 L135.07 230.99 L134.12 230.70 L133.19 230.40 L132.29 230.09 L131.42 229.79 L130.57 229.48 L129.75 229.17 L128.96 228.85 L128.20 228.54 L127.46 228.22 L126.76 227.89 L126.08 227.57 L125.43 227.24 L124.80 226.91 L124.21 226.58 L123.65 226.25 L123.11 225.91 L122.61 225.58 L122.13 225.24 L121.69 224.90 L121.27 224.56 L120.89 224.21 L120.53 223.87 L120.21 223.52 L119.91 223.18 L119.65 222.83 L119.41 222.48 L119.21 222.13 L119.04 221.78 L118.90 221.43 L118.79 221.08 L118.71 220.73 L118.66 220.38 L118.64 220.03 L118.65 219.68 L118.70 219.33 L118.77 218.97 L118.88 218.62 L119.01 218.27 L119.18 217.92 L119.38 217.57 L119.61 217.23 L119.87 216.88 L120.16 216.53 L120.48 216.19 L120.83 215.84 L121.21 215.50 L121.62 215.16 L122.06 214.82 L122.53 214.48 L123.03 214.14 L123.56 213.80 L124.12 213.47 L124.70 213.14 L125.32 212.81 L125.97 212.48 L126.64 212.16 L127.35 211.84 L128.08 211.52 L128.84 211.20 L129.62 210.88 L130.44 210.57 L131.28 210.26 L132.15 209.96 L133.04 209.65 L133.97 209.35 L134.91 209.06 L135.89 208.76 L136.89 208.47 L137.91 208.19 L138.96 207.90 L140.04 207.63 L141.14 207.35 L142.26 207.08 L143.41 206.81 L144.58 206.55 L145.77 206.29 L146.99 206.03 L148.23 205.78 L149.49 205.53 L150.77 205.29 L152.07 205.05 L153.39 204.82 L154.74 204.59 L156.10 204.37 L157.48 204.15 L158.89 203.94 L160.31 203.73 L161.74 203.52 L163.20 203.32 L164.68 203.13 L166.17 202.94 L167.67 202.75 L169.20 202.58 L170.73 202.40 L172.29 202.23 L173.86 202.07 L175.44 201.91 L177.03 201.76 L178.64 201.62 L180.26 201.48 L181.90 201.34 L183.54 201.21 L185.20 201.09 L186.86 200.97 L188.54 200.86 L190.23 200.75 L191.92 200.65 L193.63 200.56 L195.34 200.47 L197.06 200.39 L198.79 200.31 L200.52 200.24 L202.26 200.17 L204.00 200.12 L205.75 200.06 L207.50 200.02 L209.26 199.98 L211.02 199.94 L212.79 199.91 L214.55 199.89 L216.32 199.88 L218.09 199.87 L219.86 199.86 L221.62 199.87 L223.39 199.87 L225.16 199.89 L226.93 199.91 L228.69 199.94 L230.45 199.97 L232.21 200.01 L233.96 200.06 L235.71 200.11 L237.46 200.16 L239.20 200.23 L240.93 200.30 L242.66 200.37 L244.38 200.45 L246.09 200.54 L247.80 200.64 L249.50 200.73 L251.18 200.84 L252.86 200.95 L254.53 201.07 L256.19 201.19 L257.84 201.32 L259.47 201.45 L261.09 201.59 L262.70 201.74 L264.30 201.89 L265.89 202.04 L267.46 202.21 L269.01 202.37 L270.55 202.55 L272.08 202.72 L273.59 202.91 L275.08 203.10 L276.56 203.29 L278.02 203.49 L279.46 203.69 L280.88 203.90 L282.29 204.11 L283.67 204.33 L285.04 204.56 L286.39 204.78 L287.71 205.02 L289.02 205.25 L290.31 205.49 L291.57 205.74 L292.81 205.99 L294.03 206.25 L295.23 206.50 L296.40 206.77 L297.55 207.03 L298.68 207.31 L299.78 207.58 L300.86 207.86 L301.92 208.14 L302.95 208.43 L303.95 208.72 L304.93 209.01 L305.88 209.30 L306.81 209.60 L307.71 209.91 L308.58 210.21 L309.43 210.52 L310.25 210.83 L311.04 211.15 L311.80 211.46 L312.54 211.78 L313.24 212.11 L313.92 212.43 L314.57 212.76 L315.20 213.09 L315.79 213.42 L316.35 213.75 L316.89 214.09 L317.39 214.42 L317.87 214.76 L318.31 215.10 L318.73 215.44 L319.11 215.79 L319.47 216.13 L319.79 216.48 L320.09 216.82 L320.35 217.17 L320.59 217.52 L320.79 217.87 L320.96 218.22 L321.10 218.57 L321.21 218.92 L321.29 219.27 L321.34 219.62 L321.36 219.97 L321.35 220.32 L321.30 220.67 L321.23 221.03 L321.12 221.38 L320.99 221.73 L320.82 222.08 L320.62 222.43 L320.39 222.77 L320.13 223.12 L319.84 223.47 L319.52 223.81 L319.17 224.16 L318.79 224.50 L318.38 224.84 L317.94 225.18 L317.47 225.52 L316.97 225.86 L316.44 226.20 L315.88 226.53 L315.30 226.86 L314.68 227.19 L314.03 227.52 Z "></path><path id="C2" stroke="green" stroke-width="1" stroke-dasharray="1,1" fill="none" d="M299.96 232.37 L297.56 232.00 Z M297.24 206.24 L294.92 206.66 Z M289.25 181.05 L287.17 182.22 Z M276.54 158.51 L274.84 160.35 Z M259.98 140.16 L258.78 142.55 Z M240.70 127.25 L240.07 130.03 Z M220.00 120.66 L220.00 123.64 Z M199.30 120.84 L199.93 123.82 Z M180.02 127.78 L181.22 130.55 Z M163.46 141.01 L165.16 143.38 Z M150.75 159.61 L152.83 161.43 Z M142.76 182.34 L145.08 183.47 Z M140.04 207.63 L142.44 208.00 Z M142.76 233.76 L145.08 233.34 Z M150.75 258.95 L152.83 257.78 Z M163.46 281.49 L165.16 279.65 Z M180.02 299.84 L181.22 297.45 Z M199.30 312.75 L199.93 309.97 Z M220.00 319.34 L220.00 316.36 Z M240.70 319.16 L240.07 316.18 Z M259.98 312.22 L258.78 309.45 Z M276.54 298.99 L274.84 296.62 Z M289.25 280.39 L287.17 278.57 Z M297.24 257.66 L294.92 256.53 Z "></path><path id="C2h" stroke="green" stroke-width="1" stroke-dasharray="1,1" fill="none" d="M313.36 227.84 L310.56 227.61 Z M299.96 232.37 L297.56 232.00 Z M281.11 236.06 L279.28 235.58 Z M258.10 238.66 L256.96 238.10 Z M232.50 239.98 L232.12 239.38 Z M206.04 239.94 L206.46 239.35 Z M180.53 238.55 L181.71 237.99 Z M157.71 235.89 L159.58 235.41 Z M139.14 232.14 L141.56 231.78 Z M126.08 227.57 L128.89 227.34 Z M119.41 222.48 L122.43 222.41 Z M119.61 217.23 L122.62 217.31 Z M126.64 212.16 L129.44 212.39 Z M140.04 207.63 L142.44 208.00 Z M158.89 203.94 L160.72 204.42 Z M181.90 201.34 L183.04 201.90 Z M207.50 200.02 L207.88 200.62 Z M233.96 200.06 L233.54 200.65 Z M259.47 201.45 L258.29 202.01 Z M282.29 204.11 L280.42 204.59 Z M300.86 207.86 L298.44 208.22 Z M313.92 212.43 L311.11 212.66 Z M320.59 217.52 L317.57 217.59 Z M320.39 222.77 L317.38 222.69 Z "></path><circle id="th_xy" fill="green" stroke-width="1" stroke="none" r="4" cx="142.76404704091692" cy="182.33621272604523"><title>θ=-15 Φ=-15</title></circle><path id="M" stroke="#0b22ae" stroke-width="0.5" stroke-dasharray="1,0" fill="none" d="M220.00 275.91 L205.54 276.20 L226.11 274.55 Z M205.54 276.20 L211.06 273.81 L226.11 274.55 Z M205.54 276.20 L191.33 270.42 L211.06 273.81 Z M191.33 270.42 L195.49 268.59 L211.06 273.81 Z M191.33 270.42 L183.92 255.37 L195.49 268.59 Z M183.92 255.37 L184.84 255.23 L195.49 268.59 Z M183.92 255.37 L170.35 246.33 L184.84 255.23 Z M170.35 246.33 L172.26 244.45 L184.84 255.23 Z M170.35 246.33 L166.04 230.85 L172.26 244.45 Z M166.04 230.85 L167.65 229.57 L172.26 244.45 Z M166.04 230.85 L167.45 215.59 L167.65 229.57 Z M167.45 215.59 L167.45 215.59 L167.65 229.57 Z M166.04 200.08 L164.49 201.36 L167.45 215.59 Z M166.04 200.08 L170.35 185.33 L164.49 201.36 Z M170.35 185.33 L165.82 186.99 L164.49 201.36 Z M170.35 185.33 L183.92 178.57 L165.82 186.99 Z M183.92 178.57 L176.20 178.14 L165.82 186.99 Z M183.92 178.57 L191.33 164.76 L176.20 178.14 Z M191.33 164.76 L184.03 166.33 L176.20 178.14 Z M191.33 164.76 L205.54 161.37 L184.03 166.33 Z M205.54 161.37 L198.71 163.65 L184.03 166.33 Z M205.54 161.37 L220.00 164.09 L198.71 163.65 Z M220.00 164.09 L213.89 165.45 L198.71 163.65 Z M220.00 164.09 L234.46 163.80 L213.89 165.45 Z M234.46 163.80 L228.94 166.19 L213.89 165.45 Z M234.46 163.80 L248.66 169.58 L228.94 166.19 Z M248.66 169.58 L244.50 171.41 L228.94 166.19 Z M248.66 169.58 L256.08 184.63 L244.50 171.41 Z M256.08 184.63 L255.16 184.77 L244.50 171.41 Z M256.08 184.63 L269.65 193.67 L255.16 184.77 Z M269.65 193.67 L267.74 195.55 L255.16 184.77 Z M269.65 193.67 L273.96 209.15 L267.74 195.55 Z M273.96 209.15 L272.35 210.43 L267.74 195.55 Z M273.96 209.15 L272.55 224.41 L272.35 210.43 Z M272.55 224.41 L272.55 224.41 L272.35 210.43 Z M273.96 239.92 L275.51 238.64 L272.55 224.41 Z M273.96 239.92 L269.65 254.67 L275.51 238.64 Z M269.65 254.67 L274.18 253.01 L275.51 238.64 Z M269.65 254.67 L256.08 261.43 L274.18 253.01 Z M256.08 261.43 L263.80 261.86 L274.18 253.01 Z M256.08 261.43 L248.66 275.24 L263.80 261.86 Z M248.66 275.24 L255.96 273.67 L263.80 261.86 Z M248.66 275.24 L234.46 278.63 L255.96 273.67 Z M234.46 278.63 L241.29 276.35 L255.96 273.67 Z M234.46 278.63 L220.00 275.91 L241.29 276.35 Z M220.00 275.91 L226.11 274.55 L241.29 276.35 Z M226.11 274.55 L211.06 273.81 L232.12 267.14 Z M211.06 273.81 L216.65 267.35 L232.12 267.14 Z M211.06 273.81 L195.49 268.59 L216.65 267.35 Z M195.49 268.59 L200.28 261.70 L216.65 267.35 Z M195.49 268.59 L184.84 255.23 L200.28 261.70 Z M184.84 255.23 L185.98 251.85 L200.28 261.70 Z M184.84 255.23 L172.26 244.45 L185.98 251.85 Z M172.26 244.45 L173.47 240.71 L185.98 251.85 Z M172.26 244.45 L167.65 229.57 L173.47 240.71 Z M167.65 229.57 L169.20 227.34 L173.47 240.71 Z M167.65 229.57 L167.45 215.59 L169.20 227.34 Z M167.45 215.59 L167.45 215.59 L169.20 227.34 Z M164.49 201.36 L163.10 203.61 L167.45 215.59 Z M164.49 201.36 L165.82 186.99 L163.10 203.61 Z M165.82 186.99 L160.53 190.39 L163.10 203.61 Z M165.82 186.99 L176.20 178.14 L160.53 190.39 Z M176.20 178.14 L167.74 180.91 L160.53 190.39 Z M176.20 178.14 L184.03 166.33 L167.74 180.91 Z M184.03 166.33 L177.49 173.08 L167.74 180.91 Z M184.03 166.33 L198.71 163.65 L177.49 173.08 Z M198.71 163.65 L191.62 169.99 L177.49 173.08 Z M198.71 163.65 L213.89 165.45 L191.62 169.99 Z M213.89 165.45 L207.88 172.86 L191.62 169.99 Z M213.89 165.45 L228.94 166.19 L207.88 172.86 Z M228.94 166.19 L223.35 172.65 L207.88 172.86 Z M228.94 166.19 L244.50 171.41 L223.35 172.65 Z M244.50 171.41 L239.72 178.30 L223.35 172.65 Z M244.50 171.41 L255.16 184.77 L239.72 178.30 Z M255.16 184.77 L254.02 188.15 L239.72 178.30 Z M255.16 184.77 L267.74 195.55 L254.02 188.15 Z M267.74 195.55 L266.53 199.29 L254.02 188.15 Z M267.74 195.55 L272.35 210.43 L266.53 199.29 Z M272.35 210.43 L270.80 212.66 L266.53 199.29 Z M272.35 210.43 L272.55 224.41 L270.80 212.66 Z M272.55 224.41 L272.55 224.41 L270.80 212.66 Z M275.51 238.64 L276.90 236.39 L272.55 224.41 Z M275.51 238.64 L274.18 253.01 L276.90 236.39 Z M274.18 253.01 L279.47 249.61 L276.90 236.39 Z M274.18 253.01 L263.80 261.86 L279.47 249.61 Z M263.80 261.86 L272.26 259.09 L279.47 249.61 Z M263.80 261.86 L255.96 273.67 L272.26 259.09 Z M255.96 273.67 L262.51 266.93 L272.26 259.09 Z M255.96 273.67 L241.29 276.35 L262.51 266.93 Z M241.29 276.35 L248.38 270.01 L262.51 266.93 Z M241.29 276.35 L226.11 274.55 L248.38 270.01 Z M226.11 274.55 L232.12 267.14 L248.38 270.01 Z M232.12 267.14 L216.65 267.35 L235.26 251.23 Z M216.65 267.35 L221.76 253.42 L235.26 251.23 Z M216.65 267.35 L200.28 261.70 L221.76 253.42 Z M200.28 261.70 L205.53 249.27 L221.76 253.42 Z M200.28 261.70 L185.98 251.85 L205.53 249.27 Z M185.98 251.85 L189.62 242.88 L205.53 249.27 Z M185.98 251.85 L173.47 240.71 L189.62 242.88 Z M173.47 240.71 L175.54 234.47 L189.62 242.88 Z M173.47 240.71 L169.20 227.34 L175.54 234.47 Z M169.20 227.34 L170.50 224.30 L175.54 234.47 Z M169.20 227.34 L167.45 215.59 L170.50 224.30 Z M167.45 215.59 L167.45 215.59 L170.50 224.30 Z M163.10 203.61 L161.88 206.66 L167.45 215.59 Z M163.10 203.61 L160.53 190.39 L161.88 206.66 Z M160.53 190.39 L156.99 196.50 L161.88 206.66 Z M160.53 190.39 L167.74 180.91 L156.99 196.50 Z M167.74 180.91 L163.70 189.84 L156.99 196.50 Z M167.74 180.91 L177.49 173.08 L163.70 189.84 Z M177.49 173.08 L174.47 185.69 L163.70 189.84 Z M177.49 173.08 L191.62 169.99 L174.47 185.69 Z M191.62 169.99 L187.86 184.03 L174.47 185.69 Z M191.62 169.99 L207.88 172.86 L187.86 184.03 Z M207.88 172.86 L204.74 188.77 L187.86 184.03 Z M207.88 172.86 L223.35 172.65 L204.74 188.77 Z M223.35 172.65 L218.24 186.58 L204.74 188.77 Z M223.35 172.65 L239.72 178.30 L218.24 186.58 Z M239.72 178.30 L234.46 190.73 L218.24 186.58 Z M239.72 178.30 L254.02 188.15 L234.46 190.73 Z M254.02 188.15 L250.38 197.12 L234.46 190.73 Z M254.02 188.15 L266.53 199.29 L250.38 197.12 Z M266.53 199.29 L264.46 205.53 L250.38 197.12 Z M266.53 199.29 L270.80 212.66 L264.46 205.53 Z M270.80 212.66 L269.50 215.70 L264.46 205.53 Z M270.80 212.66 L272.55 224.41 L269.50 215.70 Z M272.55 224.41 L272.55 224.41 L269.50 215.70 Z M276.90 236.39 L278.12 233.34 L272.55 224.41 Z M276.90 236.39 L279.47 249.61 L278.12 233.34 Z M279.47 249.61 L283.01 243.50 L278.12 233.34 Z M279.47 249.61 L272.26 259.09 L283.01 243.50 Z M272.26 259.09 L276.30 250.16 L283.01 243.50 Z M272.26 259.09 L262.51 266.93 L276.30 250.16 Z M262.51 266.93 L265.52 254.31 L276.30 250.16 Z M262.51 266.93 L248.38 270.01 L265.52 254.31 Z M248.38 270.01 L252.14 255.97 L265.52 254.31 Z M248.38 270.01 L232.12 267.14 L252.14 255.97 Z M232.12 267.14 L235.26 251.23 L252.14 255.97 Z M235.26 251.23 L221.76 253.42 L240.99 240.64 Z M221.76 253.42 L225.81 239.98 L240.99 240.64 Z M221.76 253.42 L205.53 249.27 L225.81 239.98 Z M205.53 249.27 L208.62 236.79 L225.81 239.98 Z M205.53 249.27 L189.62 242.88 L208.62 236.79 Z M189.62 242.88 L192.66 231.91 L208.62 236.79 Z M189.62 242.88 L175.54 234.47 L192.66 231.91 Z M175.54 234.47 L178.20 226.57 L192.66 231.91 Z M175.54 234.47 L170.50 224.30 L178.20 226.57 Z M170.50 224.30 L171.43 220.67 L178.20 226.57 Z M170.50 224.30 L167.45 215.59 L171.43 220.67 Z M167.45 215.59 L167.45 215.59 L171.43 220.67 Z M161.88 206.66 L160.87 210.28 L167.45 215.59 Z M161.88 206.66 L156.99 196.50 L160.87 210.28 Z M156.99 196.50 L155.79 204.53 L160.87 210.28 Z M156.99 196.50 L163.70 189.84 L155.79 204.53 Z M163.70 189.84 L161.06 200.84 L155.79 204.53 Z M163.70 189.84 L174.47 185.69 L161.06 200.84 Z M174.47 185.69 L169.15 197.98 L161.06 200.84 Z M174.47 185.69 L187.86 184.03 L169.15 197.98 Z M187.86 184.03 L182.45 197.35 L169.15 197.98 Z M187.86 184.03 L204.74 188.77 L182.45 197.35 Z M204.74 188.77 L199.01 199.36 L182.45 197.35 Z M204.74 188.77 L218.24 186.58 L199.01 199.36 Z M218.24 186.58 L214.19 200.02 L199.01 199.36 Z M218.24 186.58 L234.46 190.73 L214.19 200.02 Z M234.46 190.73 L231.38 203.21 L214.19 200.02 Z M234.46 190.73 L250.38 197.12 L231.38 203.21 Z M250.38 197.12 L247.34 208.09 L231.38 203.21 Z M250.38 197.12 L264.46 205.53 L247.34 208.09 Z M264.46 205.53 L261.80 213.43 L247.34 208.09 Z M264.46 205.53 L269.50 215.70 L261.80 213.43 Z M269.50 215.70 L268.57 219.33 L261.80 213.43 Z M269.50 215.70 L272.55 224.41 L268.57 219.33 Z M272.55 224.41 L272.55 224.41 L268.57 219.33 Z M278.12 233.34 L279.13 229.72 L272.55 224.41 Z M278.12 233.34 L283.01 243.50 L279.13 229.72 Z M283.01 243.50 L284.21 235.47 L279.13 229.72 Z M283.01 243.50 L276.30 250.16 L284.21 235.47 Z M276.30 250.16 L278.94 239.16 L284.21 235.47 Z M276.30 250.16 L265.52 254.31 L278.94 239.16 Z M265.52 254.31 L270.85 242.01 L278.94 239.16 Z M265.52 254.31 L252.14 255.97 L270.85 242.01 Z M252.14 255.97 L257.55 242.65 L270.85 242.01 Z M252.14 255.97 L235.26 251.23 L257.55 242.65 Z M235.26 251.23 L240.99 240.64 L257.55 242.65 Z M240.99 240.64 L225.81 239.98 L242.81 224.67 Z M225.81 239.98 L227.92 223.44 L242.81 224.67 Z M225.81 239.98 L208.62 236.79 L227.92 223.44 Z M208.62 236.79 L211.15 221.83 L227.92 223.44 Z M208.62 236.79 L192.66 231.91 L211.15 221.83 Z M192.66 231.91 L196.64 219.98 L211.15 221.83 Z M192.66 231.91 L178.20 226.57 L196.64 219.98 Z M178.20 226.57 L181.06 218.17 L196.64 219.98 Z M178.20 226.57 L171.43 220.67 L181.06 218.17 Z M171.43 220.67 L171.97 216.68 L181.06 218.17 Z M171.43 220.67 L167.45 215.59 L171.97 216.68 Z M167.45 215.59 L167.45 215.59 L171.97 216.68 Z M160.87 210.28 L160.17 214.26 L167.45 215.59 Z M160.87 210.28 L155.79 204.53 L160.17 214.26 Z M155.79 204.53 L157.02 213.27 L160.17 214.26 Z M155.79 204.53 L161.06 200.84 L157.02 213.27 Z M161.06 200.84 L164.39 213.39 L157.02 213.27 Z M161.06 200.84 L169.15 197.98 L164.39 213.39 Z M169.15 197.98 L168.38 213.09 L164.39 213.39 Z M169.15 197.98 L182.45 197.35 L168.38 213.09 Z M182.45 197.35 L181.85 214.02 L168.38 213.09 Z M182.45 197.35 L199.01 199.36 L181.85 214.02 Z M199.01 199.36 L197.19 215.33 L181.85 214.02 Z M199.01 199.36 L214.19 200.02 L197.19 215.33 Z M214.19 200.02 L212.08 216.56 L197.19 215.33 Z M214.19 200.02 L231.38 203.21 L212.08 216.56 Z M231.38 203.21 L228.84 218.17 L212.08 216.56 Z M231.38 203.21 L247.34 208.09 L228.84 218.17 Z M247.34 208.09 L243.36 220.02 L228.84 218.17 Z M247.34 208.09 L261.80 213.43 L243.36 220.02 Z M261.80 213.43 L258.94 221.83 L243.36 220.02 Z M261.80 213.43 L268.57 219.33 L258.94 221.83 Z M268.57 219.33 L268.03 223.32 L258.94 221.83 Z M268.57 219.33 L272.55 224.41 L268.03 223.32 Z M272.55 224.41 L272.55 224.41 L268.03 223.32 Z M279.13 229.72 L279.83 225.74 L272.55 224.41 Z M279.13 229.72 L284.21 235.47 L279.83 225.74 Z M284.21 235.47 L282.98 226.73 L279.83 225.74 Z M284.21 235.47 L278.94 239.16 L282.98 226.73 Z M278.94 239.16 L275.61 226.61 L282.98 226.73 Z M278.94 239.16 L270.85 242.01 L275.61 226.61 Z M270.85 242.01 L271.62 226.91 L275.61 226.61 Z M270.85 242.01 L257.55 242.65 L271.62 226.91 Z M257.55 242.65 L258.15 225.98 L271.62 226.91 Z M257.55 242.65 L240.99 240.64 L258.15 225.98 Z M240.99 240.64 L242.81 224.67 L258.15 225.98 Z M242.81 224.67 L227.92 223.44 L242.22 209.56 Z M227.92 223.44 L228.35 208.06 L242.22 209.56 Z M227.92 223.44 L211.15 221.83 L228.35 208.06 Z M211.15 221.83 L212.32 207.73 L228.35 208.06 Z M211.15 221.83 L196.64 219.98 L212.32 207.73 Z M196.64 219.98 L199.17 209.80 L212.32 207.73 Z M196.64 219.98 L181.06 218.17 L199.17 209.80 Z M181.06 218.17 L182.47 210.13 L199.17 209.80 Z M181.06 218.17 L171.97 216.68 L182.47 210.13 Z M171.97 216.68 L172.15 212.59 L182.47 210.13 Z M171.97 216.68 L167.45 215.59 L172.15 212.59 Z M167.45 215.59 L167.45 215.59 L172.15 212.59 Z M160.17 214.26 L159.92 218.34 L167.45 215.59 Z M160.17 214.26 L157.02 213.27 L159.92 218.34 Z M157.02 213.27 L158.23 221.52 L159.92 218.34 Z M157.02 213.27 L164.39 213.39 L158.23 221.52 Z M164.39 213.39 L168.66 224.14 L158.23 221.52 Z M164.39 213.39 L168.38 213.09 L168.66 224.14 Z M168.38 213.09 L170.34 227.46 L168.66 224.14 Z M168.38 213.09 L181.85 214.02 L170.34 227.46 Z M181.85 214.02 L182.73 229.51 L170.34 227.46 Z M181.85 214.02 L197.19 215.33 L182.73 229.51 Z M197.19 215.33 L197.78 230.44 L182.73 229.51 Z M197.19 215.33 L212.08 216.56 L197.78 230.44 Z M212.08 216.56 L211.65 231.94 L197.78 230.44 Z M212.08 216.56 L228.84 218.17 L211.65 231.94 Z M228.84 218.17 L227.67 232.27 L211.65 231.94 Z M228.84 218.17 L243.36 220.02 L227.67 232.27 Z M243.36 220.02 L240.83 230.20 L227.67 232.27 Z M243.36 220.02 L258.94 221.83 L240.83 230.20 Z M258.94 221.83 L257.53 229.87 L240.83 230.20 Z M258.94 221.83 L268.03 223.32 L257.53 229.87 Z M268.03 223.32 L267.85 227.41 L257.53 229.87 Z M268.03 223.32 L272.55 224.41 L267.85 227.41 Z M272.55 224.41 L272.55 224.41 L267.85 227.41 Z M279.83 225.74 L280.08 221.66 L272.55 224.41 Z M279.83 225.74 L282.98 226.73 L280.08 221.66 Z M282.98 226.73 L281.77 218.48 L280.08 221.66 Z M282.98 226.73 L275.61 226.61 L281.77 218.48 Z M275.61 226.61 L271.34 215.86 L281.77 218.48 Z M275.61 226.61 L271.62 226.91 L271.34 215.86 Z M271.62 226.91 L269.65 212.54 L271.34 215.86 Z M271.62 226.91 L258.15 225.98 L269.65 212.54 Z M258.15 225.98 L257.27 210.49 L269.65 212.54 Z M258.15 225.98 L242.81 224.67 L257.27 210.49 Z M242.81 224.67 L242.22 209.56 L257.27 210.49 Z M242.22 209.56 L228.35 208.06 L242.81 193.89 Z M228.35 208.06 L227.92 192.37 L242.81 193.89 Z M228.35 208.06 L212.32 207.73 L227.92 192.37 Z M212.32 207.73 L211.15 192.99 L227.92 192.37 Z M212.32 207.73 L199.17 209.80 L211.15 192.99 Z M199.17 209.80 L196.64 198.23 L211.15 192.99 Z M199.17 209.80 L182.47 210.13 L196.64 198.23 Z M182.47 210.13 L181.06 201.97 L196.64 198.23 Z M182.47 210.13 L172.15 212.59 L181.06 201.97 Z M172.15 212.59 L171.97 208.72 L181.06 201.97 Z M172.15 212.59 L167.45 215.59 L171.97 208.72 Z M167.45 215.59 L167.45 215.59 L171.97 208.72 Z M159.92 218.34 L160.17 222.22 L167.45 215.59 Z M159.92 218.34 L158.23 221.52 L160.17 222.22 Z M158.23 221.52 L157.02 229.47 L160.17 222.22 Z M158.23 221.52 L168.66 224.14 L157.02 229.47 Z M168.66 224.14 L164.39 235.13 L157.02 229.47 Z M168.66 224.14 L170.34 227.46 L164.39 235.13 Z M170.34 227.46 L168.38 241.93 L164.39 235.13 Z M170.34 227.46 L182.73 229.51 L168.38 241.93 Z M182.73 229.51 L181.85 245.09 L168.38 241.93 Z M182.73 229.51 L197.78 230.44 L181.85 245.09 Z M197.78 230.44 L197.19 246.11 L181.85 245.09 Z M197.78 230.44 L211.65 231.94 L197.19 246.11 Z M211.65 231.94 L212.08 247.63 L197.19 246.11 Z M211.65 231.94 L227.67 232.27 L212.08 247.63 Z M227.67 232.27 L228.84 247.01 L212.08 247.63 Z M227.67 232.27 L240.83 230.20 L228.84 247.01 Z M240.83 230.20 L243.36 241.77 L228.84 247.01 Z M240.83 230.20 L257.53 229.87 L243.36 241.77 Z M257.53 229.87 L258.94 238.03 L243.36 241.77 Z M257.53 229.87 L267.85 227.41 L258.94 238.03 Z M267.85 227.41 L268.03 231.28 L258.94 238.03 Z M267.85 227.41 L272.55 224.41 L268.03 231.28 Z M272.55 224.41 L272.55 224.41 L268.03 231.28 Z M280.08 221.66 L279.83 217.78 L272.55 224.41 Z M280.08 221.66 L281.77 218.48 L279.83 217.78 Z M281.77 218.48 L282.98 210.53 L279.83 217.78 Z M281.77 218.48 L271.34 215.86 L282.98 210.53 Z M271.34 215.86 L275.61 204.87 L282.98 210.53 Z M271.34 215.86 L269.65 212.54 L275.61 204.87 Z M269.65 212.54 L271.62 198.07 L275.61 204.87 Z M269.65 212.54 L257.27 210.49 L271.62 198.07 Z M257.27 210.49 L258.15 194.91 L271.62 198.07 Z M257.27 210.49 L242.22 209.56 L258.15 194.91 Z M242.22 209.56 L242.81 193.89 L258.15 194.91 Z M242.81 193.89 L227.92 192.37 L240.99 179.64 Z M227.92 192.37 L225.81 176.98 L240.99 179.64 Z M227.92 192.37 L211.15 192.99 L225.81 176.98 Z M211.15 192.99 L208.62 179.44 L225.81 176.98 Z M211.15 192.99 L196.64 198.23 L208.62 179.44 Z M196.64 198.23 L192.66 186.00 L208.62 179.44 Z M196.64 198.23 L181.06 201.97 L192.66 186.00 Z M181.06 201.97 L178.20 194.00 L192.66 186.00 Z M181.06 201.97 L171.97 208.72 L178.20 194.00 Z M171.97 208.72 L171.43 205.31 L178.20 194.00 Z M171.97 208.72 L167.45 215.59 L171.43 205.31 Z M167.45 215.59 L167.45 215.59 L171.43 205.31 Z M160.17 222.22 L160.87 225.64 L167.45 215.59 Z M160.17 222.22 L157.02 229.47 L160.87 225.64 Z M157.02 229.47 L155.79 237.10 L160.87 225.64 Z M157.02 229.47 L164.39 235.13 L155.79 237.10 Z M164.39 235.13 L161.06 246.75 L155.79 237.10 Z M164.39 235.13 L168.38 241.93 L161.06 246.75 Z M168.38 241.93 L169.15 255.33 L161.06 246.75 Z M168.38 241.93 L181.85 245.09 L169.15 255.33 Z M181.85 245.09 L182.45 260.36 L169.15 255.33 Z M181.85 245.09 L197.19 246.11 L182.45 260.36 Z M197.19 246.11 L199.01 260.36 L182.45 260.36 Z M197.19 246.11 L212.08 247.63 L199.01 260.36 Z M212.08 247.63 L214.19 263.02 L199.01 260.36 Z M212.08 247.63 L228.84 247.01 L214.19 263.02 Z M228.84 247.01 L231.38 260.56 L214.19 263.02 Z M228.84 247.01 L243.36 241.77 L231.38 260.56 Z M243.36 241.77 L247.34 254.00 L231.38 260.56 Z M243.36 241.77 L258.94 238.03 L247.34 254.00 Z M258.94 238.03 L261.80 246.00 L247.34 254.00 Z M258.94 238.03 L268.03 231.28 L261.80 246.00 Z M268.03 231.28 L268.57 234.69 L261.80 246.00 Z M268.03 231.28 L272.55 224.41 L268.57 234.69 Z M272.55 224.41 L272.55 224.41 L268.57 234.69 Z M279.83 217.78 L279.13 214.36 L272.55 224.41 Z M279.83 217.78 L282.98 210.53 L279.13 214.36 Z M282.98 210.53 L284.21 202.90 L279.13 214.36 Z M282.98 210.53 L275.61 204.87 L284.21 202.90 Z M275.61 204.87 L278.94 193.25 L284.21 202.90 Z M275.61 204.87 L271.62 198.07 L278.94 193.25 Z M271.62 198.07 L270.85 184.66 L278.94 193.25 Z M271.62 198.07 L258.15 194.91 L270.85 184.66 Z M258.15 194.91 L257.55 179.64 L270.85 184.66 Z M258.15 194.91 L242.81 193.89 L257.55 179.64 Z M242.81 193.89 L240.99 179.64 L257.55 179.64 Z M240.99 179.64 L225.81 176.98 L235.26 174.43 Z M225.81 176.98 L221.76 168.10 L235.26 174.43 Z M225.81 176.98 L208.62 179.44 L221.76 168.10 Z M208.62 179.44 L205.53 171.10 L221.76 168.10 Z M208.62 179.44 L192.66 186.00 L205.53 171.10 Z M192.66 186.00 L189.62 177.66 L205.53 171.10 Z M192.66 186.00 L178.20 194.00 L189.62 177.66 Z M178.20 194.00 L175.54 187.79 L189.62 177.66 Z M178.20 194.00 L171.43 205.31 L175.54 187.79 Z M171.43 205.31 L170.50 202.61 L175.54 187.79 Z M171.43 205.31 L167.45 215.59 L170.50 202.61 Z M167.45 215.59 L167.45 215.59 L170.50 202.61 Z M160.87 225.64 L161.88 228.35 L167.45 215.59 Z M160.87 225.64 L155.79 237.10 L161.88 228.35 Z M155.79 237.10 L156.99 243.19 L161.88 228.35 Z M155.79 237.10 L161.06 246.75 L156.99 243.19 Z M161.06 246.75 L163.70 255.06 L156.99 243.19 Z M161.06 246.75 L169.15 255.33 L163.70 255.06 Z M169.15 255.33 L174.47 263.86 L163.70 255.06 Z M169.15 255.33 L182.45 260.36 L174.47 263.86 Z M182.45 260.36 L187.86 269.35 L174.47 263.86 Z M182.45 260.36 L199.01 260.36 L187.86 269.35 Z M199.01 260.36 L204.74 265.57 L187.86 269.35 Z M199.01 260.36 L214.19 263.02 L204.74 265.57 Z M214.19 263.02 L218.24 271.90 L204.74 265.57 Z M214.19 263.02 L231.38 260.56 L218.24 271.90 Z M231.38 260.56 L234.46 268.90 L218.24 271.90 Z M231.38 260.56 L247.34 254.00 L234.46 268.90 Z M247.34 254.00 L250.38 262.34 L234.46 268.90 Z M247.34 254.00 L261.80 246.00 L250.38 262.34 Z M261.80 246.00 L264.46 252.21 L250.38 262.34 Z M261.80 246.00 L268.57 234.69 L264.46 252.21 Z M268.57 234.69 L269.50 237.39 L264.46 252.21 Z M268.57 234.69 L272.55 224.41 L269.50 237.39 Z M272.55 224.41 L272.55 224.41 L269.50 237.39 Z M279.13 214.36 L278.12 211.65 L272.55 224.41 Z M279.13 214.36 L284.21 202.90 L278.12 211.65 Z M284.21 202.90 L283.01 196.81 L278.12 211.65 Z M284.21 202.90 L278.94 193.25 L283.01 196.81 Z M278.94 193.25 L276.30 184.94 L283.01 196.81 Z M278.94 193.25 L270.85 184.66 L276.30 184.94 Z M270.85 184.66 L265.52 176.13 L276.30 184.94 Z M270.85 184.66 L257.55 179.64 L265.52 176.13 Z M257.55 179.64 L252.14 170.65 L265.52 176.13 Z M257.55 179.64 L240.99 179.64 L252.14 170.65 Z M240.99 179.64 L235.26 174.43 L252.14 170.65 Z M235.26 174.43 L221.76 168.10 L232.12 161.48 Z M221.76 168.10 L216.65 158.22 L232.12 161.48 Z M221.76 168.10 L205.53 171.10 L216.65 158.22 Z M205.53 171.10 L200.28 162.36 L216.65 158.22 Z M205.53 171.10 L189.62 177.66 L200.28 162.36 Z M189.62 177.66 L185.98 172.33 L200.28 162.36 Z M189.62 177.66 L175.54 187.79 L185.98 172.33 Z M175.54 187.79 L173.47 184.31 L185.98 172.33 Z M175.54 187.79 L170.50 202.61 L173.47 184.31 Z M170.50 202.61 L169.20 200.75 L173.47 184.31 Z M170.50 202.61 L167.45 215.59 L169.20 200.75 Z M167.45 215.59 L167.45 215.59 L169.20 200.75 Z M161.88 228.35 L163.10 230.21 L167.45 215.59 Z M161.88 228.35 L156.99 243.19 L163.10 230.21 Z M156.99 243.19 L160.53 246.79 L163.10 230.21 Z M156.99 243.19 L163.70 255.06 L160.53 246.79 Z M163.70 255.06 L167.74 260.42 L160.53 246.79 Z M163.70 255.06 L174.47 263.86 L167.74 260.42 Z M174.47 263.86 L177.49 272.40 L167.74 260.42 Z M174.47 263.86 L187.86 269.35 L177.49 272.40 Z M187.86 269.35 L191.62 279.11 L177.49 272.40 Z M187.86 269.35 L204.74 265.57 L191.62 279.11 Z M204.74 265.57 L207.88 278.52 L191.62 279.11 Z M204.74 265.57 L218.24 271.90 L207.88 278.52 Z M218.24 271.90 L223.35 281.78 L207.88 278.52 Z M218.24 271.90 L234.46 268.90 L223.35 281.78 Z M234.46 268.90 L239.72 277.64 L223.35 281.78 Z M234.46 268.90 L250.38 262.34 L239.72 277.64 Z M250.38 262.34 L254.02 267.67 L239.72 277.64 Z M250.38 262.34 L264.46 252.21 L254.02 267.67 Z M264.46 252.21 L266.53 255.69 L254.02 267.67 Z M264.46 252.21 L269.50 237.39 L266.53 255.69 Z M269.50 237.39 L270.80 239.25 L266.53 255.69 Z M269.50 237.39 L272.55 224.41 L270.80 239.25 Z M272.55 224.41 L272.55 224.41 L270.80 239.25 Z M278.12 211.65 L276.90 209.79 L272.55 224.41 Z M278.12 211.65 L283.01 196.81 L276.90 209.79 Z M283.01 196.81 L279.47 193.21 L276.90 209.79 Z M283.01 196.81 L276.30 184.94 L279.47 193.21 Z M276.30 184.94 L272.26 179.58 L279.47 193.21 Z M276.30 184.94 L265.52 176.13 L272.26 179.58 Z M265.52 176.13 L262.51 167.59 L272.26 179.58 Z M265.52 176.13 L252.14 170.65 L262.51 167.59 Z M252.14 170.65 L248.38 160.89 L262.51 167.59 Z M252.14 170.65 L235.26 174.43 L248.38 160.89 Z M235.26 174.43 L232.12 161.48 L248.38 160.89 Z M232.12 161.48 L216.65 158.22 L226.11 159.71 Z M216.65 158.22 L211.06 157.85 L226.11 159.71 Z M216.65 158.22 L200.28 162.36 L211.06 157.85 Z M200.28 162.36 L195.49 160.94 L211.06 157.85 Z M200.28 162.36 L185.98 172.33 L195.49 160.94 Z M185.98 172.33 L184.84 174.08 L195.49 160.94 Z M185.98 172.33 L173.47 184.31 L184.84 174.08 Z M173.47 184.31 L172.26 183.97 L184.84 174.08 Z M173.47 184.31 L169.20 200.75 L172.26 183.97 Z M169.20 200.75 L167.65 199.88 L172.26 183.97 Z M169.20 200.75 L167.45 215.59 L167.65 199.88 Z M167.45 215.59 L167.45 215.59 L167.65 199.88 Z M163.10 230.21 L164.49 231.07 L167.45 215.59 Z M163.10 230.21 L160.53 246.79 L164.49 231.07 Z M160.53 246.79 L165.82 247.47 L164.49 231.07 Z M160.53 246.79 L167.74 260.42 L165.82 247.47 Z M167.74 260.42 L176.20 259.29 L165.82 247.47 Z M167.74 260.42 L177.49 272.40 L176.20 259.29 Z M177.49 272.40 L184.03 273.98 L176.20 259.29 Z M177.49 272.40 L191.62 279.11 L184.03 273.98 Z M191.62 279.11 L198.71 279.61 L184.03 273.98 Z M191.62 279.11 L207.88 278.52 L198.71 279.61 Z M207.88 278.52 L213.89 280.29 L198.71 279.61 Z M207.88 278.52 L223.35 281.78 L213.89 280.29 Z M223.35 281.78 L228.94 282.15 L213.89 280.29 Z M223.35 281.78 L239.72 277.64 L228.94 282.15 Z M239.72 277.64 L244.50 279.06 L228.94 282.15 Z M239.72 277.64 L254.02 267.67 L244.50 279.06 Z M254.02 267.67 L255.16 265.92 L244.50 279.06 Z M254.02 267.67 L266.53 255.69 L255.16 265.92 Z M266.53 255.69 L267.74 256.03 L255.16 265.92 Z M266.53 255.69 L270.80 239.25 L267.74 256.03 Z M270.80 239.25 L272.35 240.12 L267.74 256.03 Z M270.80 239.25 L272.55 224.41 L272.35 240.12 Z M272.55 224.41 L272.55 224.41 L272.35 240.12 Z M276.90 209.79 L275.51 208.93 L272.55 224.41 Z M276.90 209.79 L279.47 193.21 L275.51 208.93 Z M279.47 193.21 L274.18 192.53 L275.51 208.93 Z M279.47 193.21 L272.26 179.58 L274.18 192.53 Z M272.26 179.58 L263.80 180.71 L274.18 192.53 Z M272.26 179.58 L262.51 167.59 L263.80 180.71 Z M262.51 167.59 L255.96 166.02 L263.80 180.71 Z M262.51 167.59 L248.38 160.89 L255.96 166.02 Z M248.38 160.89 L241.29 160.39 L255.96 166.02 Z M248.38 160.89 L232.12 161.48 L241.29 160.39 Z M232.12 161.48 L226.11 159.71 L241.29 160.39 Z M226.11 159.71 L211.06 157.85 L220.00 164.09 Z M211.06 157.85 L205.54 161.37 L220.00 164.09 Z M211.06 157.85 L195.49 160.94 L205.54 161.37 Z M195.49 160.94 L191.33 164.76 L205.54 161.37 Z M195.49 160.94 L184.84 174.08 L191.33 164.76 Z M184.84 174.08 L183.92 178.57 L191.33 164.76 Z M184.84 174.08 L172.26 183.97 L183.92 178.57 Z M172.26 183.97 L170.35 185.33 L183.92 178.57 Z M172.26 183.97 L167.65 199.88 L170.35 185.33 Z M167.65 199.88 L166.04 200.08 L170.35 185.33 Z M167.65 199.88 L167.45 215.59 L166.04 200.08 Z M167.45 215.59 L167.45 215.59 L166.04 200.08 Z M164.49 231.07 L166.04 230.85 L167.45 215.59 Z M164.49 231.07 L165.82 247.47 L166.04 230.85 Z M165.82 247.47 L170.35 246.33 L166.04 230.85 Z M165.82 247.47 L176.20 259.29 L170.35 246.33 Z M176.20 259.29 L183.92 255.37 L170.35 246.33 Z M176.20 259.29 L184.03 273.98 L183.92 255.37 Z M184.03 273.98 L191.33 270.42 L183.92 255.37 Z M184.03 273.98 L198.71 279.61 L191.33 270.42 Z M198.71 279.61 L205.54 276.20 L191.33 270.42 Z M198.71 279.61 L213.89 280.29 L205.54 276.20 Z M213.89 280.29 L220.00 275.91 L205.54 276.20 Z M213.89 280.29 L228.94 282.15 L220.00 275.91 Z M228.94 282.15 L234.46 278.63 L220.00 275.91 Z M228.94 282.15 L244.50 279.06 L234.46 278.63 Z M244.50 279.06 L248.66 275.24 L234.46 278.63 Z M244.50 279.06 L255.16 265.92 L248.66 275.24 Z M255.16 265.92 L256.08 261.43 L248.66 275.24 Z M255.16 265.92 L267.74 256.03 L256.08 261.43 Z M267.74 256.03 L269.65 254.67 L256.08 261.43 Z M267.74 256.03 L272.35 240.12 L269.65 254.67 Z M272.35 240.12 L273.96 239.92 L269.65 254.67 Z M272.35 240.12 L272.55 224.41 L273.96 239.92 Z M272.55 224.41 L272.55 224.41 L273.96 239.92 Z M275.51 208.93 L273.96 209.15 L272.55 224.41 Z M275.51 208.93 L274.18 192.53 L273.96 209.15 Z M274.18 192.53 L269.65 193.67 L273.96 209.15 Z M274.18 192.53 L263.80 180.71 L269.65 193.67 Z M263.80 180.71 L256.08 184.63 L269.65 193.67 Z M263.80 180.71 L255.96 166.02 L256.08 184.63 Z M255.96 166.02 L248.66 169.58 L256.08 184.63 Z M255.96 166.02 L241.29 160.39 L248.66 169.58 Z M241.29 160.39 L234.46 163.80 L248.66 169.58 Z M241.29 160.39 L226.11 159.71 L234.46 163.80 Z M226.11 159.71 L220.00 164.09 L234.46 163.80 Z "></path></svg>