<svg xmlns="http://www.w3.org/2000/svg" id="svg" width="440" height="440" font-family="Times" font-size="14" oncopy="svg_copy(this);">
<text x="10" y="10" id="title" font-style="italic" style="fill1:#ff6633;stroke:none">θ<tspan dy="6" font-size="0.8em">0</tspan><tspan dy="-6" font-style="normal"> = 270° <tspan font-style="italic">φ</tspan><tspan dy="6" font-size="0.8em">0</tspan><tspan dy="-6" font-style="normal"> = 0°</tspan></tspan></text>
<text x="280" y="10" id="title2" font-style="italic" style="fill1:#ff6633;stroke:none">f<tspan dy="6" font-size="0.8em">0</tspan><tspan dy="-6" font-style="normal"> = 70 kHz <tspan font-style="italic">c</tspan><tspan dy="6" font-size="0.8em">0</tspan><tspan dy="-6" font-style="normal"> = 1480 m/s</tspan></tspan></text>
<text x="340" y="432" id="title3" font-style="italic" style="fill1:#ff6633;stroke:none">TS<tspan font-style="normal"> = -40.19 dB</tspan></text>
<text x="10" y="432" id="title4" font-style="italic" style="fill1:#ff6633;stroke:none">ℒ<tspan dy="6" font-size="0.8em">BS</tspan><tspan dy="-6" font-style="normal"> = 0.0098 m</tspan></text>
<g id="svg0" transform="translate(20,20)">
<line x1="210" y1="200" x2="400" y2="200" stroke="gray"></line>
<line x1="210" y1="200" x2="400" y2="200" stroke="gray" transform="rotate(30 200 200)" stroke-dasharray="1,1"></line>
<line x1="210" y1="200" x2="400" y2="200" stroke="gray" transform="rotate(60 200 200)" stroke-dasharray="1,1"></line>
<line x1="210" y1="200" x2="400" y2="200" stroke="gray" transform="rotate(90 200 200)" stroke-dasharray="1,1"></line>
<line x1="210" y1="200" x2="400" y2="200" stroke="gray" transform="rotate(120 200 200)" stroke-dasharray="1,1"></line>
<line x1="210" y1="200" x2="400" y2="200" stroke="gray" transform="rotate(150 200 200)" stroke-dasharray="1,1"></line>
<line x1="210" y1="200" x2="400" y2="200" stroke="gray" transform="rotate(180 200 200)" stroke-dasharray="1,1"></line>
<line x1="210" y1="200" x2="400" y2="200" stroke="gray" transform="rotate(210 200 200)" stroke-dasharray="1,1"></line>
<line x1="210" y1="200" x2="400" y2="200" stroke="gray" transform="rotate(240 200 200)" stroke-dasharray="1,1"></line>
<line x1="210" y1="200" x2="400" y2="200" stroke="gray" transform="rotate(270 200 200)" stroke-dasharray="1,1"></line>
<line x1="210" y1="200" x2="400" y2="200" stroke="gray" transform="rotate(300 200 200)" stroke-dasharray="1,1"></line>
<line x1="210" y1="200" x2="400" y2="200" stroke="gray" transform="rotate(330 200 200)" stroke-dasharray="1,1"></line>
<circle cx="200" cy="200" r="10" stroke="black" fill="none"></circle>	
<circle cx="200" cy="200" r="57.5" stroke="gray" fill="none" stroke-dasharray="1,1"></circle>	
<circle cx="200" cy="200" r="105" stroke="gray" fill="none" stroke-dasharray="1,1"></circle>	
<circle cx="200" cy="200" r="152.5" stroke="gray" fill="none" stroke-dasharray="1,1"></circle>	
<circle cx="200" cy="200" r="200" stroke="black" fill="none"></circle>
<text x="205" y="215">-60</text>
<text x="245" y="215">-50</text>
<text x="295" y="215">-40</text>
<text x="342" y="215">-30</text>
<text x="380" y="215">-20</text>
<text x="405" y="205">0</text>
<g transform="rotate(-30,200,200)"><text x="405" y="205">30</text></g>
<g transform="rotate(-60,200,200)"><text x="405" y="205">60</text></g>
<text x="195" y="-5">90</text>
<g transform="rotate(60,200,200)"><text x="-30" y="205">120</text></g>
<g transform="rotate(30,200,200)"><text x="-30" y="205">150</text></g>
<text x="-20" y="205">180</text>
<g transform="rotate(-30,200,200)"><text x="-30" y="205">210</text></g>
<g transform="rotate(-60,200,200)"><text x="-30" y="205">240</text></g>
<text x="190" y="415">270</text>
<g transform="rotate( 60,200,200)"><text x="405" y="205">300</text></g>
<g transform="rotate( 30,200,200)"><text x="405" y="205">330</text></g>

<line x1="390" y1="200" x2="400" y2="200" stroke="black" transform="rotate(0 200 200)"></line>
<line x1="390" y1="200" x2="400" y2="200" stroke="black" transform="rotate(30 200 200)"></line>
<line x1="390" y1="200" x2="400" y2="200" stroke="black" transform="rotate(60 200 200)"></line>
<line x1="390" y1="200" x2="400" y2="200" stroke="black" transform="rotate(90 200 200)"></line>
<line x1="390" y1="200" x2="400" y2="200" stroke="black" transform="rotate(120 200 200)"></line>
<line x1="390" y1="200" x2="400" y2="200" stroke="black" transform="rotate(150 200 200)"></line>
<line x1="390" y1="200" x2="400" y2="200" stroke="black" transform="rotate(180 200 200)"></line>
<line x1="390" y1="200" x2="400" y2="200" stroke="black" transform="rotate(210 200 200)"></line>
<line x1="390" y1="200" x2="400" y2="200" stroke="black" transform="rotate(240 200 200)"></line>
<line x1="390" y1="200" x2="400" y2="200" stroke="black" transform="rotate(270 200 200)"></line>
<line x1="390" y1="200" x2="400" y2="200" stroke="black" transform="rotate(300 200 200)"></line>
<line x1="390" y1="200" x2="400" y2="200" stroke="black" transform="rotate(330 200 200)"></line>

<line x1="257.5" y1="195" x2="257.5" y2="200" stroke="black"></line>
<line x1="305" y1="195" x2="305" y2="200" stroke="black"></line>
<line x1="352.5" y1="195" x2="352.5" y2="200" stroke="black"></line>
<path id="F" stroke="#AA69D3" stroke-width="3" stroke-dasharray="1,0" fill="none" d=""></path><path id="P" stroke="#ff6633" stroke-width="3" stroke-dasharray="1,0" fill="none" d="M306.56 200.00 L306.30 198.14 L306.03 196.30 L305.74 194.46 L305.45 192.63 L305.14 190.80 L304.82 188.98 L304.49 187.17 L304.14 185.36 L303.77 183.56 L303.38 181.77 L302.97 179.98 L302.54 178.20 L302.09 176.43 L301.62 174.66 L301.12 172.91 L300.60 171.15 L300.06 169.41 L299.49 167.67 L298.91 165.94 L298.30 164.22 L297.67 162.51 L297.01 160.81 L296.33 159.11 L295.63 157.42 L294.90 155.75 L294.15 154.08 L293.38 152.42 L292.58 150.78 L291.75 149.14 L290.90 147.52 L290.02 145.91 L289.11 144.32 L288.17 142.74 L287.21 141.18 L286.21 139.63 L285.19 138.11 L284.13 136.60 L283.05 135.12 L281.93 133.65 L280.79 132.21 L279.61 130.79 L278.41 129.40 L277.18 128.03 L275.91 126.69 L274.63 125.37 L273.31 124.08 L271.97 122.82 L270.60 121.59 L269.21 120.38 L267.80 119.20 L266.36 118.05 L264.90 116.93 L263.42 115.83 L261.92 114.77 L260.40 113.74 L258.86 112.73 L257.31 111.75 L255.73 110.81 L254.14 109.89 L252.54 109.00 L250.92 108.14 L249.28 107.31 L247.64 106.51 L245.97 105.74 L244.30 105.00 L242.62 104.28 L240.92 103.60 L239.21 102.94 L237.50 102.32 L235.77 101.72 L234.04 101.15 L232.29 100.62 L230.54 100.11 L228.78 99.63 L227.02 99.18 L225.24 98.76 L223.46 98.36 L221.68 98.00 L219.89 97.67 L218.10 97.36 L216.30 97.09 L214.50 96.84 L212.69 96.63 L210.88 96.44 L209.07 96.28 L207.26 96.15 L205.45 96.05 L203.63 95.97 L201.82 95.93 L200.00 95.92 L198.18 95.93 L196.37 95.97 L194.55 96.05 L192.74 96.15 L190.93 96.28 L189.12 96.44 L187.31 96.63 L185.50 96.84 L183.70 97.09 L181.90 97.36 L180.11 97.67 L178.32 98.00 L176.54 98.36 L174.76 98.76 L172.98 99.18 L171.22 99.63 L169.46 100.11 L167.71 100.62 L165.96 101.15 L164.23 101.72 L162.50 102.32 L160.79 102.94 L159.08 103.60 L157.38 104.28 L155.70 105.00 L154.03 105.74 L152.36 106.51 L150.72 107.31 L149.08 108.14 L147.46 109.00 L145.86 109.89 L144.27 110.81 L142.69 111.75 L141.14 112.73 L139.60 113.74 L138.08 114.77 L136.58 115.83 L135.10 116.93 L133.64 118.05 L132.20 119.20 L130.79 120.38 L129.40 121.59 L128.03 122.82 L126.69 124.08 L125.37 125.37 L124.09 126.69 L122.82 128.03 L121.59 129.40 L120.39 130.79 L119.21 132.21 L118.07 133.65 L116.95 135.12 L115.87 136.60 L114.81 138.11 L113.79 139.63 L112.79 141.18 L111.83 142.74 L110.89 144.32 L109.98 145.91 L109.10 147.52 L108.25 149.14 L107.42 150.78 L106.62 152.42 L105.85 154.08 L105.10 155.75 L104.37 157.42 L103.67 159.11 L102.99 160.81 L102.33 162.51 L101.70 164.22 L101.09 165.94 L100.51 167.67 L99.94 169.41 L99.40 171.15 L98.88 172.91 L98.38 174.66 L97.91 176.43 L97.46 178.20 L97.03 179.98 L96.62 181.77 L96.23 183.56 L95.86 185.36 L95.51 187.17 L95.18 188.98 L94.86 190.80 L94.55 192.63 L94.26 194.46 L93.97 196.30 L93.70 198.14 L93.44 200.00 L93.19 201.86 L92.95 203.74 L92.73 205.62 L92.52 207.52 L92.33 209.42 L92.17 211.33 L92.03 213.26 L91.93 215.19 L91.87 217.13 L91.85 219.07 L91.89 221.01 L91.99 222.96 L92.15 224.90 L92.38 226.83 L92.69 228.75 L93.07 230.66 L93.54 232.55 L94.08 234.42 L94.70 236.26 L95.40 238.07 L96.17 239.86 L97.00 241.61 L97.88 243.35 L98.81 245.05 L99.75 246.75 L100.70 248.43 L101.63 250.12 L102.53 251.83 L103.38 253.56 L104.15 255.34 L104.86 257.17 L105.47 259.07 L106.00 261.04 L106.46 263.09 L106.87 265.21 L107.24 267.40 L107.60 269.63 L107.97 271.90 L108.39 274.18 L108.88 276.46 L109.45 278.71 L110.13 280.92 L110.94 283.05 L111.87 285.10 L112.95 287.05 L114.17 288.87 L115.55 290.56 L117.06 292.11 L118.72 293.50 L120.50 294.74 L122.39 295.84 L124.36 296.81 L126.39 297.69 L128.40 298.54 L130.36 299.45 L132.20 300.52 L133.84 301.88 L135.23 303.66 L136.33 305.96 L137.17 308.82 L137.80 312.21 L138.29 316.06 L138.74 320.24 L139.22 324.63 L139.79 329.12 L140.51 333.62 L141.39 338.07 L142.46 342.41 L143.72 346.62 L145.16 350.67 L146.79 354.54 L148.59 358.23 L150.56 361.72 L152.68 365.02 L154.95 368.11 L157.36 371.01 L159.90 373.71 L162.55 376.21 L165.30 378.50 L168.16 380.59 L171.10 382.49 L174.11 384.18 L177.20 385.68 L180.35 386.97 L183.55 388.06 L186.79 388.96 L190.06 389.65 L193.36 390.15 L196.68 390.45 L200.00 390.55 L203.32 390.45 L206.64 390.15 L209.94 389.65 L213.21 388.96 L216.45 388.06 L219.65 386.97 L222.80 385.68 L225.89 384.18 L228.90 382.49 L231.84 380.59 L234.70 378.50 L237.45 376.21 L240.10 373.71 L242.64 371.01 L245.05 368.11 L247.32 365.02 L249.44 361.72 L251.41 358.23 L253.21 354.54 L254.84 350.67 L256.28 346.62 L257.54 342.41 L258.61 338.07 L259.49 333.62 L260.21 329.12 L260.78 324.63 L261.26 320.24 L261.71 316.06 L262.20 312.21 L262.83 308.82 L263.67 305.96 L264.77 303.66 L266.16 301.88 L267.80 300.52 L269.64 299.45 L271.60 298.54 L273.61 297.69 L275.64 296.81 L277.61 295.84 L279.50 294.74 L281.28 293.50 L282.94 292.11 L284.45 290.56 L285.83 288.87 L287.05 287.05 L288.13 285.10 L289.06 283.05 L289.87 280.92 L290.55 278.71 L291.12 276.46 L291.61 274.18 L292.03 271.90 L292.40 269.63 L292.76 267.40 L293.13 265.21 L293.54 263.09 L294.00 261.04 L294.53 259.07 L295.14 257.17 L295.85 255.34 L296.62 253.56 L297.47 251.83 L298.37 250.12 L299.30 248.43 L300.25 246.75 L301.19 245.05 L302.12 243.35 L303.00 241.61 L303.83 239.86 L304.60 238.07 L305.30 236.26 L305.92 234.42 L306.46 232.55 L306.93 230.66 L307.31 228.75 L307.62 226.83 L307.85 224.90 L308.01 222.96 L308.11 221.01 L308.15 219.07 L308.13 217.13 L308.07 215.19 L307.97 213.26 L307.83 211.33 L307.67 209.42 L307.48 207.52 L307.27 205.62 L307.05 203.74 L306.81 201.86 Z "></path><circle id="P_TS" fill="#ff6633" stroke-width="1" stroke="#ff6633" r="4" cx="200" cy="95.91780879517783"><title>TS(90°)=-40.19</title></circle><path id="Q" stroke="#4da6ff" stroke-width="3" stroke-dasharray="4,2" fill="none" d="M305.88 200.00 L305.74 198.15 L305.59 196.31 L305.43 194.47 L305.25 192.64 L305.06 190.81 L304.85 188.98 L304.61 187.16 L304.35 185.33 L304.06 183.52 L303.75 181.71 L303.40 179.90 L303.02 178.10 L302.60 176.31 L302.14 174.53 L301.65 172.76 L301.13 171.00 L300.57 169.25 L299.97 167.52 L299.34 165.80 L298.68 164.09 L297.98 162.39 L297.25 160.71 L296.49 159.04 L295.70 157.39 L294.88 155.76 L294.04 154.13 L293.17 152.53 L292.27 150.94 L291.35 149.36 L290.41 147.80 L289.44 146.26 L288.45 144.73 L287.44 143.21 L286.41 141.72 L285.35 140.24 L284.27 138.77 L283.17 137.33 L282.05 135.90 L280.90 134.49 L279.73 133.10 L278.54 131.72 L277.33 130.37 L276.09 129.04 L274.83 127.73 L273.56 126.44 L272.25 125.18 L270.93 123.94 L269.59 122.72 L268.22 121.52 L266.83 120.35 L265.42 119.21 L264.00 118.09 L262.55 116.99 L261.08 115.93 L259.60 114.88 L258.10 113.87 L256.58 112.88 L255.04 111.92 L253.49 110.98 L251.92 110.07 L250.33 109.19 L248.74 108.34 L247.12 107.52 L245.49 106.72 L243.85 105.95 L242.20 105.21 L240.54 104.50 L238.86 103.82 L237.17 103.17 L235.47 102.54 L233.76 101.94 L232.04 101.38 L230.32 100.84 L228.58 100.34 L226.83 99.86 L225.08 99.41 L223.32 98.99 L221.55 98.60 L219.78 98.25 L218.00 97.92 L216.21 97.63 L214.43 97.36 L212.63 97.13 L210.83 96.92 L209.03 96.75 L207.23 96.61 L205.42 96.50 L203.62 96.42 L201.81 96.37 L200.00 96.36 L198.19 96.37 L196.38 96.42 L194.58 96.50 L192.77 96.61 L190.97 96.75 L189.17 96.92 L187.37 97.13 L185.57 97.36 L183.79 97.63 L182.00 97.92 L180.22 98.25 L178.45 98.60 L176.68 98.99 L174.92 99.41 L173.17 99.86 L171.42 100.34 L169.68 100.84 L167.96 101.38 L166.24 101.94 L164.53 102.54 L162.83 103.17 L161.14 103.82 L159.46 104.50 L157.80 105.21 L156.15 105.95 L154.51 106.72 L152.88 107.52 L151.26 108.34 L149.67 109.19 L148.08 110.07 L146.51 110.98 L144.96 111.92 L143.42 112.88 L141.90 113.87 L140.40 114.88 L138.92 115.93 L137.45 116.99 L136.00 118.09 L134.58 119.21 L133.17 120.35 L131.78 121.52 L130.41 122.72 L129.07 123.94 L127.75 125.18 L126.44 126.44 L125.17 127.73 L123.91 129.04 L122.67 130.37 L121.46 131.72 L120.27 133.10 L119.10 134.49 L117.95 135.90 L116.83 137.33 L115.73 138.77 L114.65 140.24 L113.59 141.72 L112.56 143.21 L111.55 144.73 L110.56 146.26 L109.59 147.80 L108.65 149.36 L107.73 150.94 L106.83 152.53 L105.96 154.13 L105.12 155.76 L104.30 157.39 L103.51 159.04 L102.75 160.71 L102.02 162.39 L101.32 164.09 L100.66 165.80 L100.03 167.52 L99.43 169.25 L98.87 171.00 L98.35 172.76 L97.86 174.53 L97.40 176.31 L96.98 178.10 L96.60 179.90 L96.25 181.71 L95.94 183.52 L95.65 185.33 L95.39 187.16 L95.15 188.98 L94.94 190.81 L94.75 192.64 L94.57 194.47 L94.41 196.31 L94.26 198.15 L94.12 200.00 L93.99 201.85 L93.87 203.71 L93.77 205.57 L93.67 207.44 L93.59 209.31 L93.53 211.19 L93.50 213.08 L93.49 214.97 L93.52 216.87 L93.58 218.76 L93.70 220.66 L93.86 222.56 L94.09 224.45 L94.37 226.34 L94.72 228.21 L95.13 230.07 L95.61 231.91 L96.16 233.74 L96.77 235.55 L97.43 237.33 L98.15 239.10 L98.90 240.85 L99.68 242.58 L100.48 244.31 L101.28 246.03 L102.07 247.77 L102.82 249.52 L103.53 251.29 L104.19 253.11 L104.78 254.97 L105.32 256.89 L105.79 258.87 L106.22 260.90 L106.61 262.99 L106.99 265.13 L107.37 267.30 L107.78 269.49 L108.24 271.69 L108.76 273.88 L109.38 276.04 L110.10 278.15 L110.93 280.19 L111.90 282.15 L113.00 284.01 L114.25 285.75 L115.63 287.37 L117.16 288.84 L118.82 290.16 L120.61 291.33 L122.51 292.35 L124.49 293.25 L126.52 294.05 L128.56 294.80 L130.54 295.60 L132.40 296.54 L134.06 297.76 L135.46 299.38 L136.56 301.53 L137.35 304.26 L137.91 307.55 L138.29 311.33 L138.60 315.47 L138.93 319.85 L139.35 324.36 L139.89 328.90 L140.61 333.39 L141.51 337.79 L142.60 342.07 L143.88 346.19 L145.35 350.14 L147.00 353.91 L148.83 357.49 L150.81 360.89 L152.95 364.09 L155.23 367.10 L157.64 369.91 L160.17 372.52 L162.81 374.94 L165.56 377.17 L168.40 379.20 L171.33 381.04 L174.33 382.68 L177.39 384.13 L180.52 385.38 L183.69 386.45 L186.90 387.31 L190.15 387.99 L193.42 388.47 L196.71 388.76 L200.00 388.86 L203.29 388.76 L206.58 388.47 L209.85 387.99 L213.10 387.31 L216.31 386.45 L219.48 385.38 L222.61 384.13 L225.67 382.68 L228.67 381.04 L231.60 379.20 L234.44 377.17 L237.19 374.94 L239.83 372.52 L242.36 369.91 L244.77 367.10 L247.05 364.09 L249.19 360.89 L251.17 357.49 L253.00 353.91 L254.65 350.14 L256.12 346.19 L257.40 342.07 L258.49 337.79 L259.39 333.39 L260.11 328.90 L260.65 324.36 L261.07 319.85 L261.40 315.47 L261.71 311.33 L262.09 307.55 L262.65 304.26 L263.44 301.53 L264.54 299.38 L265.94 297.76 L267.60 296.54 L269.46 295.60 L271.44 294.80 L273.48 294.05 L275.51 293.25 L277.49 292.35 L279.39 291.33 L281.18 290.16 L282.84 288.84 L284.37 287.37 L285.75 285.75 L287.00 284.01 L288.10 282.15 L289.07 280.19 L289.90 278.15 L290.62 276.04 L291.24 273.88 L291.76 271.69 L292.22 269.49 L292.63 267.30 L293.01 265.13 L293.39 262.99 L293.78 260.90 L294.21 258.87 L294.68 256.89 L295.22 254.97 L295.81 253.11 L296.47 251.29 L297.18 249.52 L297.93 247.77 L298.72 246.03 L299.52 244.31 L300.32 242.58 L301.10 240.85 L301.85 239.10 L302.57 237.33 L303.23 235.55 L303.84 233.74 L304.39 231.91 L304.87 230.07 L305.28 228.21 L305.63 226.34 L305.91 224.45 L306.14 222.56 L306.30 220.66 L306.42 218.76 L306.48 216.87 L306.51 214.97 L306.50 213.08 L306.47 211.19 L306.41 209.31 L306.33 207.44 L306.23 205.57 L306.13 203.71 L306.01 201.85 L305.88 200.00 Z "></path><circle id="Q_TS" fill="#4da6ff" stroke-width="1" stroke="#4da6ff" r="4" cx="200" cy="96.35889332946502"><title>TS(90°)=-40.29</title></circle></g>
</svg>