<svg xmlns="http://www.w3.org/2000/svg" id="svg1" width="440" height="440" font-family="Times" font-size="14" oncopy="svg_copy(this);">
      <g id="gt" transform="translate(0,20)">
      </g>
   <path id="Xp" stroke="red" stroke-width="0.875" stroke-dasharray="1,0" fill="none" d="M220.00 220.00 L6704.27 764.65 Z "></path><path id="Xn" stroke="red" stroke-width="0.875" stroke-dasharray="2,4" fill="none" d="M220.00 220.00 L-6264.27 -324.65 Z "></path><path id="Yp" stroke="green" stroke-width="0.875" stroke-dasharray="1,0" fill="none" d="M220.00 220.00 L220.00 -6679.67 Z "></path><path id="Yn" stroke="green" stroke-width="0.875" stroke-dasharray="2,4" fill="none" d="M220.00 220.00 L220.00 7119.67 Z "></path><path id="Zp" stroke="blue" stroke-width="0.875" stroke-dasharray="1,0" fill="none" d="M220.00 220.00 L-2521.51 1508.23 Z "></path><path id="Zn" stroke="blue" stroke-width="0.875" stroke-dasharray="2,4" fill="none" d="M220.00 220.00 L2961.51 -1068.23 Z "></path><circle id="O" fill="black" stroke-width="1" stroke="none" r="4" cx="220" cy="220"><title>[0,0,0]</title></circle><circle id="lambda_0" fill="#FFAA33" stroke-width="1" stroke="none" r="4" cx="346.27261458835346" cy="230.60640032221363"><title>λ/2=0.0195</title></circle><path id="B11" stroke="black" stroke-width="0.5" stroke-dasharray="1,0" fill="none" d="M147.11 318.67 L40.34 368.84 L40.34 100.12 L147.11 49.95 Z M399.66 339.88 L292.89 390.05 L292.89 121.33 L399.66 71.16 Z M147.11 318.67 L399.66 339.88 Z M40.34 368.84 L292.89 390.05 Z M40.34 100.12 L292.89 121.33 Z M147.11 49.95 L399.66 71.16 Z Z "></path><path id="B1" stroke="black" stroke-width="0.5" stroke-dasharray="2,4" fill="none" d="M231.30 325.74 L124.52 375.91 L124.52 107.19 L231.30 57.02 Z M315.48 332.81 L208.70 382.98 L208.70 114.26 L315.48 64.09 Z M147.11 229.09 L40.34 279.27 L292.89 300.48 L399.66 250.31 Z M147.11 139.52 L40.34 189.69 L292.89 210.91 L399.66 160.73 Z M111.52 335.39 L111.52 66.67 L364.07 87.88 L364.07 356.61 Z M75.93 352.12 L75.93 83.39 L328.48 104.61 L328.48 373.33 Z "></path><path id="C1" stroke="green" stroke-width="1" stroke-dasharray="1,2" fill="none" d="M405.29 235.56 L405.26 232.12 L405.18 228.67 L405.03 225.22 L404.84 221.77 L404.58 218.32 L404.27 214.87 L403.91 211.42 L403.49 207.97 L403.01 204.53 L402.47 201.09 L401.88 197.66 L401.24 194.23 L400.54 190.81 L399.78 187.40 L398.97 184.00 L398.11 180.62 L397.19 177.24 L396.22 173.88 L395.19 170.53 L394.11 167.19 L392.98 163.87 L391.80 160.57 L390.56 157.29 L389.27 154.03 L387.93 150.78 L386.54 147.56 L385.09 144.36 L383.60 141.18 L382.06 138.03 L380.46 134.90 L378.82 131.80 L377.13 128.72 L375.40 125.67 L373.61 122.65 L371.78 119.66 L369.90 116.70 L367.98 113.78 L366.01 110.88 L364.00 108.02 L361.94 105.19 L359.84 102.40 L357.70 99.64 L355.51 96.92 L353.29 94.24 L351.02 91.59 L348.71 88.99 L346.37 86.42 L343.98 83.90 L341.56 81.41 L339.10 78.97 L336.61 76.57 L334.07 74.22 L331.51 71.91 L328.91 69.64 L326.28 67.42 L323.61 65.25 L320.92 63.13 L318.19 61.05 L315.43 59.02 L312.64 57.04 L309.83 55.11 L306.99 53.23 L304.12 51.40 L301.23 49.62 L298.31 47.89 L295.36 46.22 L292.40 44.60 L289.41 43.03 L286.40 41.51 L283.37 40.05 L280.32 38.65 L277.26 37.30 L274.17 36.01 L271.07 34.77 L267.96 33.59 L264.83 32.46 L261.68 31.40 L258.52 30.39 L255.35 29.43 L252.17 28.54 L248.99 27.70 L245.79 26.93 L242.58 26.21 L239.37 25.55 L236.15 24.95 L232.93 24.41 L229.70 23.93 L226.47 23.50 L223.23 23.14 L220.00 22.84 L216.77 22.60 L213.53 22.42 L210.30 22.30 L207.07 22.24 L203.85 22.24 L200.63 22.29 L197.42 22.41 L194.21 22.59 L191.01 22.83 L187.83 23.13 L184.65 23.49 L181.48 23.91 L178.32 24.39 L175.17 24.93 L172.04 25.53 L168.93 26.19 L165.83 26.91 L162.74 27.68 L159.68 28.52 L156.63 29.41 L153.60 30.36 L150.59 31.37 L147.60 32.43 L144.64 33.56 L141.69 34.74 L138.77 35.97 L135.88 37.26 L133.01 38.61 L130.17 40.02 L127.36 41.47 L124.57 42.99 L121.81 44.55 L119.08 46.17 L116.39 47.85 L113.72 49.57 L111.09 51.35 L108.49 53.18 L105.93 55.06 L103.39 56.98 L100.90 58.96 L98.44 60.99 L96.02 63.07 L93.63 65.19 L91.29 67.36 L88.98 69.58 L86.71 71.85 L84.49 74.16 L82.30 76.51 L80.16 78.91 L78.06 81.35 L76.00 83.83 L73.99 86.35 L72.02 88.92 L70.10 91.52 L68.22 94.17 L66.39 96.85 L64.60 99.57 L62.87 102.32 L61.18 105.12 L59.54 107.94 L57.94 110.80 L56.40 113.70 L54.91 116.62 L53.46 119.58 L52.07 122.57 L50.73 125.59 L49.44 128.64 L48.20 131.71 L47.02 134.81 L45.89 137.94 L44.81 141.10 L43.78 144.27 L42.81 147.47 L41.89 150.70 L41.03 153.94 L40.22 157.20 L39.46 160.48 L38.76 163.79 L38.12 167.10 L37.53 170.44 L36.99 173.79 L36.51 177.15 L36.09 180.52 L35.73 183.91 L35.42 187.31 L35.16 190.72 L34.97 194.14 L34.82 197.57 L34.74 201.00 L34.71 204.44 L34.74 207.88 L34.82 211.33 L34.97 214.78 L35.16 218.23 L35.42 221.68 L35.73 225.13 L36.09 228.58 L36.51 232.03 L36.99 235.47 L37.53 238.91 L38.12 242.34 L38.76 245.77 L39.46 249.19 L40.22 252.60 L41.03 256.00 L41.89 259.38 L42.81 262.76 L43.78 266.12 L44.81 269.47 L45.89 272.81 L47.02 276.13 L48.20 279.43 L49.44 282.71 L50.73 285.97 L52.07 289.22 L53.46 292.44 L54.91 295.64 L56.40 298.82 L57.94 301.97 L59.54 305.10 L61.18 308.20 L62.87 311.28 L64.60 314.33 L66.39 317.35 L68.22 320.34 L70.10 323.30 L72.02 326.22 L73.99 329.12 L76.00 331.98 L78.06 334.81 L80.16 337.60 L82.30 340.36 L84.49 343.08 L86.71 345.76 L88.98 348.41 L91.29 351.01 L93.63 353.58 L96.02 356.10 L98.44 358.59 L100.90 361.03 L103.39 363.43 L105.93 365.78 L108.49 368.09 L111.09 370.36 L113.72 372.58 L116.39 374.75 L119.08 376.87 L121.81 378.95 L124.57 380.98 L127.36 382.96 L130.17 384.89 L133.01 386.77 L135.88 388.60 L138.77 390.38 L141.69 392.11 L144.64 393.78 L147.60 395.40 L150.59 396.97 L153.60 398.49 L156.63 399.95 L159.68 401.35 L162.74 402.70 L165.83 403.99 L168.93 405.23 L172.04 406.41 L175.17 407.54 L178.32 408.60 L181.48 409.61 L184.65 410.57 L187.83 411.46 L191.01 412.30 L194.21 413.07 L197.42 413.79 L200.63 414.45 L203.85 415.05 L207.07 415.59 L210.30 416.07 L213.53 416.50 L216.77 416.86 L220.00 417.16 L223.23 417.40 L226.47 417.58 L229.70 417.70 L232.93 417.76 L236.15 417.76 L239.37 417.71 L242.58 417.59 L245.79 417.41 L248.99 417.17 L252.17 416.87 L255.35 416.51 L258.52 416.09 L261.68 415.61 L264.83 415.07 L267.96 414.47 L271.07 413.81 L274.17 413.09 L277.26 412.32 L280.32 411.48 L283.37 410.59 L286.40 409.64 L289.41 408.63 L292.40 407.57 L295.36 406.44 L298.31 405.26 L301.23 404.03 L304.12 402.74 L306.99 401.39 L309.83 399.98 L312.64 398.53 L315.43 397.01 L318.19 395.45 L320.92 393.83 L323.61 392.15 L326.28 390.43 L328.91 388.65 L331.51 386.82 L334.07 384.94 L336.61 383.02 L339.10 381.04 L341.56 379.01 L343.98 376.93 L346.37 374.81 L348.71 372.64 L351.02 370.42 L353.29 368.15 L355.51 365.84 L357.70 363.49 L359.84 361.09 L361.94 358.65 L364.00 356.17 L366.01 353.65 L367.98 351.08 L369.90 348.48 L371.78 345.83 L373.61 343.15 L375.40 340.43 L377.13 337.68 L378.82 334.88 L380.46 332.06 L382.06 329.20 L383.60 326.30 L385.09 323.38 L386.54 320.42 L387.93 317.43 L389.27 314.41 L390.56 311.36 L391.80 308.29 L392.98 305.19 L394.11 302.06 L395.19 298.90 L396.22 295.73 L397.19 292.53 L398.11 289.30 L398.97 286.06 L399.78 282.80 L400.54 279.52 L401.24 276.21 L401.88 272.90 L402.47 269.56 L403.01 266.21 L403.49 262.85 L403.91 259.48 L404.27 256.09 L404.58 252.69 L404.84 249.28 L405.03 245.86 L405.18 242.43 L405.26 239.00 Z "></path><path id="C1h" stroke="green" stroke-width="1" stroke-dasharray="1,2" fill="none" d="M405.29 235.56 L403.89 236.20 L402.44 236.84 L400.93 237.47 L399.37 238.09 L397.76 238.71 L396.08 239.33 L394.36 239.93 L392.58 240.54 L390.75 241.13 L388.87 241.72 L386.94 242.30 L384.95 242.88 L382.92 243.45 L380.83 244.01 L378.70 244.56 L376.52 245.11 L374.29 245.65 L372.01 246.18 L369.69 246.70 L367.32 247.22 L364.91 247.72 L362.45 248.22 L359.95 248.71 L357.41 249.19 L354.82 249.66 L352.19 250.13 L349.53 250.58 L346.82 251.02 L344.08 251.46 L341.30 251.88 L338.48 252.30 L335.62 252.71 L332.73 253.10 L329.80 253.49 L326.85 253.86 L323.86 254.23 L320.83 254.58 L317.78 254.93 L314.70 255.26 L311.58 255.58 L308.44 255.90 L305.28 256.20 L302.08 256.49 L298.87 256.77 L295.62 257.03 L292.36 257.29 L289.07 257.54 L285.77 257.77 L282.44 257.99 L279.09 258.20 L275.73 258.40 L272.34 258.59 L268.95 258.77 L265.53 258.93 L262.11 259.08 L258.67 259.22 L255.21 259.35 L251.75 259.46 L248.28 259.57 L244.80 259.66 L241.31 259.74 L237.82 259.81 L234.32 259.86 L230.81 259.91 L227.31 259.94 L223.80 259.96 L220.29 259.97 L216.78 259.96 L213.27 259.94 L209.76 259.91 L206.25 259.87 L202.75 259.82 L199.26 259.75 L195.77 259.68 L192.29 259.58 L188.81 259.48 L185.35 259.37 L181.90 259.24 L178.46 259.10 L175.03 258.95 L171.61 258.79 L168.21 258.62 L164.83 258.43 L161.46 258.24 L158.11 258.03 L154.78 257.81 L151.47 257.58 L148.18 257.33 L144.91 257.08 L141.66 256.81 L138.44 256.53 L135.24 256.25 L132.07 255.95 L128.93 255.64 L125.81 255.31 L122.72 254.98 L119.66 254.64 L116.64 254.29 L113.64 253.92 L110.68 253.55 L107.75 253.17 L104.85 252.77 L101.99 252.37 L99.16 251.95 L96.37 251.53 L93.62 251.10 L90.91 250.65 L88.24 250.20 L85.61 249.74 L83.01 249.27 L80.46 248.79 L77.96 248.30 L75.49 247.80 L73.07 247.30 L70.69 246.78 L68.36 246.26 L66.08 245.73 L63.84 245.20 L61.65 244.65 L59.51 244.10 L57.42 243.54 L55.38 242.97 L53.38 242.40 L51.44 241.81 L49.55 241.23 L47.71 240.63 L45.93 240.03 L44.19 239.43 L42.51 238.81 L40.89 238.19 L39.32 237.57 L37.80 236.94 L36.34 236.31 L34.94 235.67 L33.59 235.02 L32.30 234.38 L31.06 233.72 L29.89 233.07 L28.77 232.40 L27.71 231.74 L26.70 231.07 L25.76 230.40 L24.88 229.72 L24.05 229.05 L23.29 228.37 L22.58 227.68 L21.94 227.00 L21.35 226.31 L20.83 225.62 L20.37 224.93 L19.96 224.23 L19.62 223.54 L19.34 222.84 L19.12 222.15 L18.96 221.45 L18.87 220.75 L18.83 220.06 L18.86 219.36 L18.94 218.66 L19.09 217.97 L19.30 217.27 L19.57 216.57 L19.90 215.88 L20.30 215.19 L20.75 214.49 L21.26 213.80 L21.84 213.12 L22.47 212.43 L23.17 211.75 L23.92 211.07 L24.74 210.39 L25.61 209.71 L26.55 209.04 L27.54 208.37 L28.59 207.70 L29.70 207.04 L30.87 206.38 L32.09 205.73 L33.37 205.08 L34.71 204.44 L36.11 203.80 L37.56 203.16 L39.07 202.53 L40.63 201.91 L42.24 201.29 L43.92 200.67 L45.64 200.07 L47.42 199.46 L49.25 198.87 L51.13 198.28 L53.06 197.70 L55.05 197.12 L57.08 196.55 L59.17 195.99 L61.30 195.44 L63.48 194.89 L65.71 194.35 L67.99 193.82 L70.31 193.30 L72.68 192.78 L75.09 192.28 L77.55 191.78 L80.05 191.29 L82.59 190.81 L85.18 190.34 L87.81 189.87 L90.47 189.42 L93.18 188.98 L95.92 188.54 L98.70 188.12 L101.52 187.70 L104.38 187.29 L107.27 186.90 L110.20 186.51 L113.15 186.14 L116.14 185.77 L119.17 185.42 L122.22 185.07 L125.30 184.74 L128.42 184.42 L131.56 184.10 L134.72 183.80 L137.92 183.51 L141.13 183.23 L144.38 182.97 L147.64 182.71 L150.93 182.46 L154.23 182.23 L157.56 182.01 L160.91 181.80 L164.27 181.60 L167.66 181.41 L171.05 181.23 L174.47 181.07 L177.89 180.92 L181.33 180.78 L184.79 180.65 L188.25 180.54 L191.72 180.43 L195.20 180.34 L198.69 180.26 L202.18 180.19 L205.68 180.14 L209.19 180.09 L212.69 180.06 L216.20 180.04 L219.71 180.03 L223.22 180.04 L226.73 180.06 L230.24 180.09 L233.75 180.13 L237.25 180.18 L240.74 180.25 L244.23 180.32 L247.71 180.42 L251.19 180.52 L254.65 180.63 L258.10 180.76 L261.54 180.90 L264.97 181.05 L268.39 181.21 L271.79 181.38 L275.17 181.57 L278.54 181.76 L281.89 181.97 L285.22 182.19 L288.53 182.42 L291.82 182.67 L295.09 182.92 L298.34 183.19 L301.56 183.47 L304.76 183.75 L307.93 184.05 L311.07 184.36 L314.19 184.69 L317.28 185.02 L320.34 185.36 L323.36 185.71 L326.36 186.08 L329.32 186.45 L332.25 186.83 L335.15 187.23 L338.01 187.63 L340.84 188.05 L343.63 188.47 L346.38 188.90 L349.09 189.35 L351.76 189.80 L354.39 190.26 L356.99 190.73 L359.54 191.21 L362.04 191.70 L364.51 192.20 L366.93 192.70 L369.31 193.22 L371.64 193.74 L373.92 194.27 L376.16 194.80 L378.35 195.35 L380.49 195.90 L382.58 196.46 L384.62 197.03 L386.62 197.60 L388.56 198.19 L390.45 198.77 L392.29 199.37 L394.07 199.97 L395.81 200.57 L397.49 201.19 L399.11 201.81 L400.68 202.43 L402.20 203.06 L403.66 203.69 L405.06 204.33 L406.41 204.98 L407.70 205.62 L408.94 206.28 L410.11 206.93 L411.23 207.60 L412.29 208.26 L413.30 208.93 L414.24 209.60 L415.12 210.28 L415.95 210.95 L416.71 211.63 L417.42 212.32 L418.06 213.00 L418.65 213.69 L419.17 214.38 L419.63 215.07 L420.04 215.77 L420.38 216.46 L420.66 217.16 L420.88 217.85 L421.04 218.55 L421.13 219.25 L421.17 219.94 L421.14 220.64 L421.06 221.34 L420.91 222.03 L420.70 222.73 L420.43 223.43 L420.10 224.12 L419.70 224.81 L419.25 225.51 L418.74 226.20 L418.16 226.88 L417.53 227.57 L416.83 228.25 L416.08 228.93 L415.26 229.61 L414.39 230.29 L413.45 230.96 L412.46 231.63 L411.41 232.30 L410.30 232.96 L409.13 233.62 L407.91 234.27 L406.63 234.92 Z "></path><path id="C2" stroke="green" stroke-width="1" stroke-dasharray="1,1" fill="none" d="M405.29 235.56 L399.73 235.10 Z M398.97 184.00 L393.61 185.08 Z M380.46 134.90 L375.65 137.45 Z M351.02 91.59 L347.09 95.45 Z M312.64 57.04 L309.86 61.93 Z M267.96 33.59 L266.52 39.18 Z M220.00 22.84 L220.00 28.76 Z M172.04 25.53 L173.48 31.37 Z M127.36 41.47 L130.14 46.83 Z M88.98 69.58 L92.91 74.10 Z M59.54 107.94 L64.35 111.30 Z M41.03 153.94 L46.39 155.92 Z M34.71 204.44 L40.27 204.90 Z M41.03 256.00 L46.39 254.92 Z M59.54 305.10 L64.35 302.55 Z M88.98 348.41 L92.91 344.55 Z M127.36 382.96 L130.14 378.07 Z M172.04 406.41 L173.48 400.82 Z M220.00 417.16 L220.00 411.24 Z M267.96 414.47 L266.52 408.63 Z M312.64 398.53 L309.86 393.17 Z M351.02 370.42 L347.09 365.90 Z M380.46 332.06 L375.65 328.70 Z M398.97 286.06 L393.61 284.08 Z "></path><path id="C2h" stroke="green" stroke-width="1" stroke-dasharray="1,1" fill="none" d="M405.29 235.56 L399.73 235.10 Z M378.70 244.56 L373.94 243.82 Z M341.30 251.88 L337.66 250.93 Z M295.62 257.03 L293.36 255.92 Z M244.80 259.66 L244.06 258.47 Z M192.29 259.58 L193.12 258.40 Z M141.66 256.81 L144.01 255.71 Z M96.37 251.53 L100.08 250.58 Z M59.51 244.10 L64.33 243.37 Z M33.59 235.02 L39.18 234.57 Z M20.37 224.93 L26.36 224.78 Z M20.75 214.49 L26.73 214.66 Z M34.71 204.44 L40.27 204.90 Z M61.30 195.44 L66.06 196.18 Z M98.70 188.12 L102.34 189.07 Z M144.38 182.97 L146.64 184.08 Z M195.20 180.34 L195.94 181.53 Z M247.71 180.42 L246.88 181.60 Z M298.34 183.19 L295.99 184.29 Z M343.63 188.47 L339.92 189.42 Z M380.49 195.90 L375.67 196.63 Z M406.41 204.98 L400.82 205.43 Z M419.63 215.07 L413.64 215.22 Z M419.25 225.51 L413.27 225.34 Z "></path><circle id="th_xy" fill="green" stroke-width="1" stroke="none" r="4" cx="220" cy="22.84153204451104"><title>θ=270 Φ=0</title></circle><path id="M" stroke="#0b22ae" stroke-width="0.5" stroke-dasharray="1,0" fill="none" d="M249.11 341.57 L299.54 292.15 L227.79 297.93 Z M299.54 184.83 L249.11 126.94 L227.79 190.61 Z M148.25 118.47 L97.82 167.89 L126.93 182.14 Z M97.82 275.21 L148.25 333.10 L126.93 289.46 Z M342.18 272.11 L291.75 321.53 L313.07 257.86 Z M291.75 106.90 L342.18 164.79 L313.07 150.54 Z M140.46 147.85 L190.89 98.43 L212.21 142.07 Z M190.89 313.06 L140.46 255.17 L212.21 249.39 Z M171.75 292.97 L227.79 297.93 L219.02 246.64 Z M200.01 350.83 L267.27 345.40 L249.11 341.57 Z M334.12 279.88 L314.14 238.98 L299.54 292.15 Z M219.02 246.64 L227.79 190.61 L171.75 192.37 Z M314.14 238.98 L334.12 179.29 L299.54 184.83 Z M267.27 102.54 L200.01 107.96 L249.11 126.94 Z M171.75 192.37 L126.93 182.14 L124.48 238.70 Z M200.01 107.96 L172.73 94.60 L148.25 118.47 Z M105.88 160.12 L85.89 219.81 L97.82 167.89 Z M124.48 238.70 L126.93 289.46 L171.75 292.97 Z M85.89 219.81 L105.88 260.71 L97.82 275.21 Z M172.73 337.46 L200.01 350.83 L148.25 333.10 Z M315.52 201.30 L313.07 257.86 L268.25 247.63 Z M354.11 220.19 L334.12 279.88 L342.18 272.11 Z M267.27 345.40 L239.99 332.04 L291.75 321.53 Z M268.25 147.03 L313.07 150.54 L315.52 201.30 Z M239.99 89.17 L267.27 102.54 L291.75 106.90 Z M334.12 179.29 L354.11 220.19 L342.18 164.79 Z M220.98 193.36 L212.21 142.07 L268.25 147.03 Z M125.86 201.02 L105.88 160.12 L140.46 147.85 Z M172.73 94.60 L239.99 89.17 L190.89 98.43 Z M268.25 247.63 L212.21 249.39 L220.98 193.36 Z M239.99 332.04 L172.73 337.46 L190.89 313.06 Z M105.88 260.71 L125.86 201.02 L140.46 255.17 Z M183.07 330.29 L249.11 341.57 L227.79 297.93 Z M249.11 341.57 L307.34 320.28 L299.54 292.15 Z M299.54 292.15 L270.42 244.69 L227.79 297.93 Z M270.42 244.69 L299.54 184.83 L227.79 190.61 Z M299.54 184.83 L307.34 134.40 L249.11 126.94 Z M249.11 126.94 L183.07 144.41 L227.79 190.61 Z M183.07 144.41 L148.25 118.47 L126.93 182.14 Z M148.25 118.47 L132.66 119.72 L97.82 167.89 Z M97.82 167.89 L95.73 230.02 L126.93 182.14 Z M95.73 230.02 L97.82 275.21 L126.93 289.46 Z M97.82 275.21 L132.66 305.60 L148.25 333.10 Z M148.25 333.10 L183.07 330.29 L126.93 289.46 Z M344.27 209.98 L342.18 272.11 L313.07 257.86 Z M342.18 272.11 L307.34 320.28 L291.75 321.53 Z M291.75 321.53 L256.93 295.59 L313.07 257.86 Z M256.93 109.71 L291.75 106.90 L313.07 150.54 Z M291.75 106.90 L307.34 134.40 L342.18 164.79 Z M342.18 164.79 L344.27 209.98 L313.07 150.54 Z M169.58 195.31 L140.46 147.85 L212.21 142.07 Z M140.46 147.85 L132.66 119.72 L190.89 98.43 Z M190.89 98.43 L256.93 109.71 L212.21 142.07 Z M256.93 295.59 L190.89 313.06 L212.21 249.39 Z M190.89 313.06 L132.66 305.60 L140.46 255.17 Z M140.46 255.17 L169.58 195.31 L212.21 249.39 Z M167.77 244.54 L171.75 292.97 L219.02 246.64 Z M171.75 292.97 L183.07 330.29 L227.79 297.93 Z M227.79 297.93 L270.42 244.69 L219.02 246.64 Z M183.07 330.29 L200.01 350.83 L249.11 341.57 Z M200.01 350.83 L220.00 351.44 L267.27 345.40 Z M267.27 345.40 L307.34 320.28 L249.11 341.57 Z M307.34 320.28 L334.12 279.88 L299.54 292.15 Z M334.12 279.88 L343.53 230.38 L314.14 238.98 Z M314.14 238.98 L270.42 244.69 L299.54 292.15 Z M167.77 244.54 L219.02 246.64 L171.75 192.37 Z M219.02 246.64 L270.42 244.69 L227.79 190.61 Z M227.79 190.61 L183.07 144.41 L171.75 192.37 Z M270.42 244.69 L314.14 238.98 L299.54 184.83 Z M314.14 238.98 L343.53 230.38 L334.12 179.29 Z M334.12 179.29 L307.34 134.40 L299.54 184.83 Z M307.34 134.40 L267.27 102.54 L249.11 126.94 Z M267.27 102.54 L220.00 88.56 L200.01 107.96 Z M200.01 107.96 L183.07 144.41 L249.11 126.94 Z M167.77 244.54 L171.75 192.37 L124.48 238.70 Z M171.75 192.37 L183.07 144.41 L126.93 182.14 Z M126.93 182.14 L95.73 230.02 L124.48 238.70 Z M183.07 144.41 L200.01 107.96 L148.25 118.47 Z M200.01 107.96 L220.00 88.56 L172.73 94.60 Z M172.73 94.60 L132.66 119.72 L148.25 118.47 Z M132.66 119.72 L105.88 160.12 L97.82 167.89 Z M105.88 160.12 L96.47 209.62 L85.89 219.81 Z M85.89 219.81 L95.73 230.02 L97.82 167.89 Z M167.77 244.54 L124.48 238.70 L171.75 292.97 Z M124.48 238.70 L95.73 230.02 L126.93 289.46 Z M126.93 289.46 L183.07 330.29 L171.75 292.97 Z M95.73 230.02 L85.89 219.81 L97.82 275.21 Z M85.89 219.81 L96.47 209.62 L105.88 260.71 Z M105.88 260.71 L132.66 305.60 L97.82 275.21 Z M132.66 305.60 L172.73 337.46 L148.25 333.10 Z M172.73 337.46 L220.00 351.44 L200.01 350.83 Z M200.01 350.83 L183.07 330.29 L148.25 333.10 Z M272.23 195.46 L315.52 201.30 L268.25 247.63 Z M315.52 201.30 L344.27 209.98 L313.07 257.86 Z M313.07 257.86 L256.93 295.59 L268.25 247.63 Z M344.27 209.98 L354.11 220.19 L342.18 272.11 Z M354.11 220.19 L343.53 230.38 L334.12 279.88 Z M334.12 279.88 L307.34 320.28 L342.18 272.11 Z M307.34 320.28 L267.27 345.40 L291.75 321.53 Z M267.27 345.40 L220.00 351.44 L239.99 332.04 Z M239.99 332.04 L256.93 295.59 L291.75 321.53 Z M272.23 195.46 L268.25 147.03 L315.52 201.30 Z M268.25 147.03 L256.93 109.71 L313.07 150.54 Z M313.07 150.54 L344.27 209.98 L315.52 201.30 Z M256.93 109.71 L239.99 89.17 L291.75 106.90 Z M239.99 89.17 L220.00 88.56 L267.27 102.54 Z M267.27 102.54 L307.34 134.40 L291.75 106.90 Z M307.34 134.40 L334.12 179.29 L342.18 164.79 Z M334.12 179.29 L343.53 230.38 L354.11 220.19 Z M354.11 220.19 L344.27 209.98 L342.18 164.79 Z M272.23 195.46 L220.98 193.36 L268.25 147.03 Z M220.98 193.36 L169.58 195.31 L212.21 142.07 Z M212.21 142.07 L256.93 109.71 L268.25 147.03 Z M169.58 195.31 L125.86 201.02 L140.46 147.85 Z M125.86 201.02 L96.47 209.62 L105.88 160.12 Z M105.88 160.12 L132.66 119.72 L140.46 147.85 Z M132.66 119.72 L172.73 94.60 L190.89 98.43 Z M172.73 94.60 L220.00 88.56 L239.99 89.17 Z M239.99 89.17 L256.93 109.71 L190.89 98.43 Z M272.23 195.46 L268.25 247.63 L220.98 193.36 Z M268.25 247.63 L256.93 295.59 L212.21 249.39 Z M212.21 249.39 L169.58 195.31 L220.98 193.36 Z M256.93 295.59 L239.99 332.04 L190.89 313.06 Z M239.99 332.04 L220.00 351.44 L172.73 337.46 Z M172.73 337.46 L132.66 305.60 L190.89 313.06 Z M132.66 305.60 L105.88 260.71 L140.46 255.17 Z M105.88 260.71 L96.47 209.62 L125.86 201.02 Z M125.86 201.02 L169.58 195.31 L140.46 255.17 Z "></path></svg>