<svg xmlns="http://www.w3.org/2000/svg" id="svg" width="440" height="440" font-family="Times" font-size="14" oncopy="svg_copy(this);">
<text x="10" y="10" id="title" font-style="italic" style="fill1:#ff6633;stroke:none">θ<tspan dy="6" font-size="0.8em">0</tspan><tspan dy="-6" font-style="normal"> = 270° <tspan font-style="italic">φ</tspan><tspan dy="6" font-size="0.8em">0</tspan><tspan dy="-6" font-style="normal"> = 0°</tspan></tspan></text>
<text x="280" y="10" id="title2" font-style="italic" style="fill1:#ff6633;stroke:none">f<tspan dy="6" font-size="0.8em">0</tspan><tspan dy="-6" font-style="normal"> = 38 kHz <tspan font-style="italic">c</tspan><tspan dy="6" font-size="0.8em">0</tspan><tspan dy="-6" font-style="normal"> = 1480 m/s</tspan></tspan></text>
<text x="340" y="432" id="title3" font-style="italic" style="fill1:#ff6633;stroke:none">TS<tspan font-style="normal"> = -41.83 dB</tspan></text>
<text x="10" y="432" id="title4" font-style="italic" style="fill1:#ff6633;stroke:none">ℒ<tspan dy="6" font-size="0.8em">BS</tspan><tspan dy="-6" font-style="normal"> = 0.0081 m</tspan></text>
<g id="svg0" transform="translate(20,20)">
<line x1="210" y1="200" x2="400" y2="200" stroke="gray"></line>
<line x1="210" y1="200" x2="400" y2="200" stroke="gray" transform="rotate(30 200 200)" stroke-dasharray="1,1"></line>
<line x1="210" y1="200" x2="400" y2="200" stroke="gray" transform="rotate(60 200 200)" stroke-dasharray="1,1"></line>
<line x1="210" y1="200" x2="400" y2="200" stroke="gray" transform="rotate(90 200 200)" stroke-dasharray="1,1"></line>
<line x1="210" y1="200" x2="400" y2="200" stroke="gray" transform="rotate(120 200 200)" stroke-dasharray="1,1"></line>
<line x1="210" y1="200" x2="400" y2="200" stroke="gray" transform="rotate(150 200 200)" stroke-dasharray="1,1"></line>
<line x1="210" y1="200" x2="400" y2="200" stroke="gray" transform="rotate(180 200 200)" stroke-dasharray="1,1"></line>
<line x1="210" y1="200" x2="400" y2="200" stroke="gray" transform="rotate(210 200 200)" stroke-dasharray="1,1"></line>
<line x1="210" y1="200" x2="400" y2="200" stroke="gray" transform="rotate(240 200 200)" stroke-dasharray="1,1"></line>
<line x1="210" y1="200" x2="400" y2="200" stroke="gray" transform="rotate(270 200 200)" stroke-dasharray="1,1"></line>
<line x1="210" y1="200" x2="400" y2="200" stroke="gray" transform="rotate(300 200 200)" stroke-dasharray="1,1"></line>
<line x1="210" y1="200" x2="400" y2="200" stroke="gray" transform="rotate(330 200 200)" stroke-dasharray="1,1"></line>
<circle cx="200" cy="200" r="10" stroke="black" fill="none"></circle>	
<circle cx="200" cy="200" r="57.5" stroke="gray" fill="none" stroke-dasharray="1,1"></circle>	
<circle cx="200" cy="200" r="105" stroke="gray" fill="none" stroke-dasharray="1,1"></circle>	
<circle cx="200" cy="200" r="152.5" stroke="gray" fill="none" stroke-dasharray="1,1"></circle>	
<circle cx="200" cy="200" r="200" stroke="black" fill="none"></circle>
<text x="205" y="215">-60</text>
<text x="245" y="215">-50</text>
<text x="295" y="215">-40</text>
<text x="342" y="215">-30</text>
<text x="380" y="215">-20</text>
<text x="405" y="205">0</text>
<g transform="rotate(-30,200,200)"><text x="405" y="205">30</text></g>
<g transform="rotate(-60,200,200)"><text x="405" y="205">60</text></g>
<text x="195" y="-5">90</text>
<g transform="rotate(60,200,200)"><text x="-30" y="205">120</text></g>
<g transform="rotate(30,200,200)"><text x="-30" y="205">150</text></g>
<text x="-20" y="205">180</text>
<g transform="rotate(-30,200,200)"><text x="-30" y="205">210</text></g>
<g transform="rotate(-60,200,200)"><text x="-30" y="205">240</text></g>
<text x="190" y="415">270</text>
<g transform="rotate( 60,200,200)"><text x="405" y="205">300</text></g>
<g transform="rotate( 30,200,200)"><text x="405" y="205">330</text></g>

<line x1="390" y1="200" x2="400" y2="200" stroke="black" transform="rotate(0 200 200)"></line>
<line x1="390" y1="200" x2="400" y2="200" stroke="black" transform="rotate(30 200 200)"></line>
<line x1="390" y1="200" x2="400" y2="200" stroke="black" transform="rotate(60 200 200)"></line>
<line x1="390" y1="200" x2="400" y2="200" stroke="black" transform="rotate(90 200 200)"></line>
<line x1="390" y1="200" x2="400" y2="200" stroke="black" transform="rotate(120 200 200)"></line>
<line x1="390" y1="200" x2="400" y2="200" stroke="black" transform="rotate(150 200 200)"></line>
<line x1="390" y1="200" x2="400" y2="200" stroke="black" transform="rotate(180 200 200)"></line>
<line x1="390" y1="200" x2="400" y2="200" stroke="black" transform="rotate(210 200 200)"></line>
<line x1="390" y1="200" x2="400" y2="200" stroke="black" transform="rotate(240 200 200)"></line>
<line x1="390" y1="200" x2="400" y2="200" stroke="black" transform="rotate(270 200 200)"></line>
<line x1="390" y1="200" x2="400" y2="200" stroke="black" transform="rotate(300 200 200)"></line>
<line x1="390" y1="200" x2="400" y2="200" stroke="black" transform="rotate(330 200 200)"></line>

<line x1="257.5" y1="195" x2="257.5" y2="200" stroke="black"></line>
<line x1="305" y1="195" x2="305" y2="200" stroke="black"></line>
<line x1="352.5" y1="195" x2="352.5" y2="200" stroke="black"></line>
<path id="F" stroke="#AA69D3" stroke-width="3" stroke-dasharray="1,0" fill="none" d=""></path><path id="P" stroke="#ff6633" stroke-width="3" stroke-dasharray="1,0" fill="none" d="M313.14 200.00 L312.61 198.03 L312.06 196.09 L311.49 194.16 L310.90 192.25 L310.28 190.35 L309.66 188.47 L309.04 186.61 L308.40 184.76 L307.76 182.93 L307.13 181.11 L306.48 179.30 L305.84 177.50 L305.20 175.71 L304.55 173.93 L303.90 172.16 L303.24 170.40 L302.58 168.64 L301.91 166.89 L301.22 165.15 L300.52 163.41 L299.80 161.69 L299.06 159.98 L298.30 158.27 L297.51 156.59 L296.69 154.91 L295.85 153.25 L294.97 151.61 L294.05 149.99 L293.11 148.39 L292.13 146.81 L291.11 145.25 L290.07 143.72 L288.98 142.22 L287.86 140.74 L286.70 139.29 L285.51 137.87 L284.29 136.48 L283.04 135.13 L281.75 133.80 L280.44 132.50 L279.09 131.24 L277.73 130.01 L276.34 128.82 L274.92 127.65 L273.48 126.52 L272.02 125.42 L270.54 124.35 L269.05 123.31 L267.54 122.31 L266.01 121.33 L264.47 120.39 L262.92 119.47 L261.35 118.58 L259.77 117.73 L258.19 116.90 L256.60 116.09 L254.99 115.32 L253.38 114.58 L251.76 113.86 L250.13 113.17 L248.50 112.50 L246.86 111.86 L245.22 111.25 L243.57 110.67 L241.92 110.11 L240.26 109.57 L238.60 109.06 L236.94 108.58 L235.27 108.12 L233.60 107.69 L231.93 107.28 L230.25 106.89 L228.58 106.53 L226.90 106.20 L225.22 105.88 L223.54 105.59 L221.86 105.32 L220.18 105.07 L218.50 104.84 L216.81 104.64 L215.13 104.45 L213.45 104.29 L211.77 104.14 L210.09 104.02 L208.41 103.91 L206.73 103.83 L205.04 103.76 L203.36 103.71 L201.68 103.68 L200.00 103.67 L198.32 103.68 L196.64 103.71 L194.96 103.76 L193.27 103.83 L191.59 103.91 L189.91 104.02 L188.23 104.14 L186.55 104.29 L184.87 104.45 L183.19 104.64 L181.50 104.84 L179.82 105.07 L178.14 105.32 L176.46 105.59 L174.78 105.88 L173.10 106.20 L171.42 106.53 L169.75 106.89 L168.07 107.28 L166.40 107.69 L164.73 108.12 L163.06 108.58 L161.40 109.06 L159.74 109.57 L158.08 110.11 L156.43 110.67 L154.78 111.25 L153.14 111.86 L151.50 112.50 L149.87 113.17 L148.24 113.86 L146.62 114.58 L145.01 115.32 L143.40 116.09 L141.81 116.90 L140.23 117.73 L138.65 118.58 L137.08 119.47 L135.53 120.39 L133.99 121.33 L132.46 122.31 L130.95 123.31 L129.46 124.35 L127.98 125.42 L126.52 126.52 L125.08 127.65 L123.66 128.82 L122.27 130.01 L120.91 131.24 L119.56 132.50 L118.25 133.80 L116.96 135.13 L115.71 136.48 L114.49 137.87 L113.30 139.29 L112.14 140.74 L111.02 142.22 L109.93 143.72 L108.89 145.25 L107.87 146.81 L106.89 148.39 L105.95 149.99 L105.03 151.61 L104.15 153.25 L103.31 154.91 L102.49 156.59 L101.70 158.27 L100.94 159.98 L100.20 161.69 L99.48 163.41 L98.78 165.15 L98.09 166.89 L97.42 168.64 L96.76 170.40 L96.10 172.16 L95.45 173.93 L94.80 175.71 L94.16 177.50 L93.52 179.30 L92.87 181.11 L92.24 182.93 L91.60 184.76 L90.96 186.61 L90.34 188.47 L89.72 190.35 L89.10 192.25 L88.51 194.16 L87.94 196.09 L87.39 198.03 L86.86 200.00 L86.37 201.98 L85.91 203.98 L85.48 206.00 L85.11 208.03 L84.78 210.08 L84.50 212.14 L84.27 214.21 L84.11 216.29 L84.00 218.37 L83.96 220.46 L83.98 222.55 L84.07 224.64 L84.23 226.73 L84.46 228.81 L84.76 230.88 L85.13 232.94 L85.57 234.99 L86.08 237.02 L86.66 239.03 L87.30 241.02 L88.01 242.99 L88.79 244.93 L89.62 246.85 L90.51 248.75 L91.45 250.62 L92.44 252.46 L93.46 254.28 L94.52 256.09 L95.60 257.87 L96.70 259.64 L97.80 261.41 L98.90 263.18 L99.99 264.95 L101.05 266.74 L102.08 268.56 L103.07 270.42 L104.01 272.33 L104.90 274.30 L105.73 276.33 L106.51 278.44 L107.24 280.64 L107.92 282.91 L108.55 285.27 L109.16 287.72 L109.76 290.24 L110.35 292.84 L110.94 295.50 L111.56 298.22 L112.21 300.99 L112.91 303.79 L113.66 306.62 L114.47 309.47 L115.35 312.33 L116.31 315.19 L117.35 318.04 L118.47 320.87 L119.68 323.68 L120.98 326.45 L122.37 329.19 L123.85 331.89 L125.42 334.54 L127.08 337.13 L128.83 339.67 L130.67 342.15 L132.59 344.56 L134.60 346.90 L136.68 349.17 L138.85 351.36 L141.09 353.47 L143.40 355.51 L145.78 357.46 L148.23 359.32 L150.75 361.09 L153.33 362.77 L155.96 364.37 L158.65 365.86 L161.38 367.26 L164.17 368.56 L167.00 369.77 L169.87 370.87 L172.78 371.87 L175.72 372.77 L178.69 373.57 L181.68 374.26 L184.70 374.84 L187.74 375.33 L190.79 375.70 L193.86 375.97 L196.93 376.13 L200.00 376.18 L203.07 376.13 L206.14 375.97 L209.21 375.70 L212.26 375.33 L215.30 374.84 L218.32 374.26 L221.31 373.57 L224.28 372.77 L227.22 371.87 L230.13 370.87 L233.00 369.77 L235.83 368.56 L238.62 367.26 L241.35 365.86 L244.04 364.37 L246.67 362.77 L249.25 361.09 L251.77 359.32 L254.22 357.46 L256.60 355.51 L258.91 353.47 L261.15 351.36 L263.32 349.17 L265.40 346.90 L267.41 344.56 L269.33 342.15 L271.17 339.67 L272.92 337.13 L274.58 334.54 L276.15 331.89 L277.63 329.19 L279.02 326.45 L280.32 323.68 L281.53 320.87 L282.65 318.04 L283.69 315.19 L284.65 312.33 L285.53 309.47 L286.34 306.62 L287.09 303.79 L287.79 300.99 L288.44 298.22 L289.06 295.50 L289.65 292.84 L290.24 290.24 L290.84 287.72 L291.45 285.27 L292.08 282.91 L292.76 280.64 L293.49 278.44 L294.27 276.33 L295.10 274.30 L295.99 272.33 L296.93 270.42 L297.92 268.56 L298.95 266.74 L300.01 264.95 L301.10 263.18 L302.20 261.41 L303.30 259.64 L304.40 257.87 L305.48 256.09 L306.54 254.28 L307.56 252.46 L308.55 250.62 L309.49 248.75 L310.38 246.85 L311.21 244.93 L311.99 242.99 L312.70 241.02 L313.34 239.03 L313.92 237.02 L314.43 234.99 L314.87 232.94 L315.24 230.88 L315.54 228.81 L315.77 226.73 L315.93 224.64 L316.02 222.55 L316.04 220.46 L316.00 218.37 L315.89 216.29 L315.73 214.21 L315.50 212.14 L315.22 210.08 L314.89 208.03 L314.52 206.00 L314.09 203.98 L313.63 201.98 Z "></path><circle id="P_TS" fill="#ff6633" stroke-width="1" stroke="#ff6633" r="4" cx="200" cy="103.67355392653872"><title>TS(90°)=-41.83</title></circle><path id="Q" stroke="#4da6ff" stroke-width="3" stroke-dasharray="4,2" fill="none" d="M310.14 200.00 L309.87 198.08 L309.56 196.17 L309.23 194.28 L308.86 192.39 L308.47 190.51 L308.05 188.64 L307.61 186.79 L307.15 184.94 L306.66 183.11 L306.16 181.28 L305.63 179.47 L305.08 177.66 L304.52 175.87 L303.94 174.09 L303.34 172.31 L302.72 170.55 L302.07 168.79 L301.41 167.05 L300.73 165.31 L300.04 163.59 L299.31 161.88 L298.57 160.17 L297.81 158.48 L297.02 156.80 L296.21 155.14 L295.38 153.48 L294.52 151.84 L293.64 150.21 L292.73 148.60 L291.80 147.00 L290.84 145.42 L289.85 143.85 L288.84 142.30 L287.81 140.77 L286.75 139.26 L285.66 137.76 L284.54 136.29 L283.40 134.84 L282.24 133.40 L281.05 131.99 L279.83 130.60 L278.60 129.23 L277.33 127.89 L276.04 126.57 L274.73 125.27 L273.40 124.00 L272.04 122.75 L270.66 121.53 L269.26 120.33 L267.84 119.15 L266.40 118.00 L264.94 116.88 L263.45 115.79 L261.96 114.72 L260.44 113.68 L258.91 112.67 L257.35 111.68 L255.79 110.72 L254.20 109.79 L252.60 108.89 L250.99 108.01 L249.36 107.17 L247.72 106.35 L246.06 105.56 L244.39 104.80 L242.71 104.06 L241.02 103.36 L239.32 102.68 L237.60 102.04 L235.88 101.42 L234.15 100.83 L232.40 100.27 L230.65 99.75 L228.89 99.25 L227.12 98.78 L225.35 98.34 L223.57 97.92 L221.78 97.55 L219.98 97.20 L218.18 96.88 L216.38 96.59 L214.57 96.33 L212.76 96.10 L210.94 95.90 L209.12 95.73 L207.30 95.59 L205.48 95.49 L203.65 95.41 L201.83 95.36 L200.00 95.35 L198.17 95.36 L196.35 95.41 L194.52 95.49 L192.70 95.59 L190.88 95.73 L189.06 95.90 L187.24 96.10 L185.43 96.33 L183.62 96.59 L181.82 96.88 L180.02 97.20 L178.22 97.55 L176.43 97.92 L174.65 98.34 L172.88 98.78 L171.11 99.25 L169.35 99.75 L167.60 100.27 L165.85 100.83 L164.12 101.42 L162.40 102.04 L160.68 102.68 L158.98 103.36 L157.29 104.06 L155.61 104.80 L153.94 105.56 L152.28 106.35 L150.64 107.17 L149.01 108.01 L147.40 108.89 L145.80 109.79 L144.21 110.72 L142.65 111.68 L141.09 112.67 L139.56 113.68 L138.04 114.72 L136.55 115.79 L135.06 116.88 L133.60 118.00 L132.16 119.15 L130.74 120.33 L129.34 121.53 L127.96 122.75 L126.60 124.00 L125.27 125.27 L123.96 126.57 L122.67 127.89 L121.40 129.23 L120.17 130.60 L118.95 131.99 L117.76 133.40 L116.60 134.84 L115.46 136.29 L114.34 137.76 L113.25 139.26 L112.19 140.77 L111.16 142.30 L110.15 143.85 L109.16 145.42 L108.20 147.00 L107.27 148.60 L106.36 150.21 L105.48 151.84 L104.62 153.48 L103.79 155.14 L102.98 156.80 L102.19 158.48 L101.43 160.17 L100.69 161.88 L99.96 163.59 L99.27 165.31 L98.59 167.05 L97.93 168.79 L97.28 170.55 L96.66 172.31 L96.06 174.09 L95.48 175.87 L94.92 177.66 L94.37 179.47 L93.84 181.28 L93.34 183.11 L92.85 184.94 L92.39 186.79 L91.95 188.64 L91.53 190.51 L91.14 192.39 L90.77 194.28 L90.44 196.17 L90.13 198.08 L89.86 200.00 L89.61 201.93 L89.41 203.86 L89.25 205.80 L89.12 207.75 L89.03 209.71 L89.00 211.67 L89.00 213.63 L89.06 215.59 L89.16 217.56 L89.32 219.52 L89.52 221.47 L89.79 223.43 L90.10 225.37 L90.47 227.31 L90.89 229.24 L91.37 231.15 L91.90 233.05 L92.49 234.93 L93.12 236.80 L93.80 238.65 L94.53 240.49 L95.30 242.30 L96.10 244.10 L96.94 245.89 L97.80 247.66 L98.68 249.42 L99.57 251.17 L100.46 252.92 L101.35 254.68 L102.22 256.45 L103.08 258.24 L103.89 260.06 L104.67 261.91 L105.40 263.81 L106.09 265.76 L106.72 267.77 L107.30 269.86 L107.83 272.01 L108.32 274.24 L108.76 276.56 L109.19 278.94 L109.60 281.40 L110.00 283.93 L110.41 286.52 L110.84 289.16 L111.30 291.86 L111.80 294.59 L112.35 297.35 L112.96 300.13 L113.64 302.92 L114.39 305.72 L115.22 308.52 L116.13 311.30 L117.12 314.07 L118.21 316.81 L119.38 319.53 L120.64 322.21 L121.99 324.85 L123.42 327.44 L124.95 329.99 L126.56 332.48 L128.26 334.92 L130.04 337.30 L131.91 339.61 L133.85 341.86 L135.87 344.04 L137.96 346.15 L140.13 348.19 L142.36 350.15 L144.67 352.03 L147.03 353.83 L149.46 355.54 L151.95 357.18 L154.49 358.73 L157.08 360.19 L159.72 361.57 L162.40 362.85 L165.13 364.05 L167.90 365.15 L170.70 366.16 L173.54 367.08 L176.40 367.90 L179.30 368.63 L182.21 369.26 L185.14 369.80 L188.10 370.23 L191.06 370.58 L194.03 370.82 L197.02 370.97 L200.00 371.01 L202.98 370.97 L205.97 370.82 L208.94 370.58 L211.90 370.23 L214.86 369.80 L217.79 369.26 L220.70 368.63 L223.60 367.90 L226.46 367.08 L229.30 366.16 L232.10 365.15 L234.87 364.05 L237.60 362.85 L240.28 361.57 L242.92 360.19 L245.51 358.73 L248.05 357.18 L250.54 355.54 L252.97 353.83 L255.33 352.03 L257.64 350.15 L259.87 348.19 L262.04 346.15 L264.13 344.04 L266.15 341.86 L268.09 339.61 L269.96 337.30 L271.74 334.92 L273.44 332.48 L275.05 329.99 L276.58 327.44 L278.01 324.85 L279.36 322.21 L280.62 319.53 L281.79 316.81 L282.88 314.07 L283.87 311.30 L284.78 308.52 L285.61 305.72 L286.36 302.92 L287.04 300.13 L287.65 297.35 L288.20 294.59 L288.70 291.86 L289.16 289.16 L289.59 286.52 L290.00 283.93 L290.40 281.40 L290.81 278.94 L291.24 276.56 L291.68 274.24 L292.17 272.01 L292.70 269.86 L293.28 267.77 L293.91 265.76 L294.60 263.81 L295.33 261.91 L296.11 260.06 L296.92 258.24 L297.78 256.45 L298.65 254.68 L299.54 252.92 L300.43 251.17 L301.32 249.42 L302.20 247.66 L303.06 245.89 L303.90 244.10 L304.70 242.30 L305.47 240.49 L306.20 238.65 L306.88 236.80 L307.51 234.93 L308.10 233.05 L308.63 231.15 L309.11 229.24 L309.53 227.31 L309.90 225.37 L310.21 223.43 L310.48 221.47 L310.68 219.52 L310.84 217.56 L310.94 215.59 L311.00 213.63 L311.00 211.67 L310.97 209.71 L310.88 207.75 L310.75 205.80 L310.59 203.86 L310.39 201.93 L310.14 200.00 Z "></path><circle id="Q_TS" fill="#4da6ff" stroke-width="1" stroke="#4da6ff" r="4" cx="200" cy="95.34803078090049"><title>TS(90°)=-40.07</title></circle></g>
</svg>