<svg xmlns="http://www.w3.org/2000/svg" id="svg" width="440" height="440" font-family="Times" font-size="14" oncopy="svg_copy(this);">
<text x="10" y="10" id="title" font-style="italic" style="fill1:#ff6633;stroke:none"></text>
<text x="280" y="10" id="title2" font-style="italic" style="fill1:#ff6633;stroke:none">f<tspan dy="6" font-size="0.8em">0</tspan><tspan dy="-6" font-style="normal"> = 360 kHz <tspan font-style="italic">c</tspan><tspan dy="6" font-size="0.8em">0</tspan><tspan dy="-6" font-style="normal"> = 1480 m/s</tspan></tspan></text>
<text x="340" y="432" id="title3" font-style="italic" style="fill1:#ff6633;stroke:none">TS<tspan font-style="normal"> = -29.55 dB</tspan></text>
<text x="10" y="432" id="title4" font-style="italic" style="fill1:#ff6633;stroke:none">ℒ<tspan dy="6" font-size="0.8em">BS</tspan><tspan dy="-6" font-style="normal"> = 0.0333 m</tspan></text>
<g id="svg0" transform="translate(20,20)">
<line x1="210" y1="200" x2="400" y2="200" stroke="gray"></line>
<line x1="210" y1="200" x2="400" y2="200" stroke="gray" transform="rotate(30 200 200)" stroke-dasharray="1,1"></line>
<line x1="210" y1="200" x2="400" y2="200" stroke="gray" transform="rotate(60 200 200)" stroke-dasharray="1,1"></line>
<line x1="210" y1="200" x2="400" y2="200" stroke="gray" transform="rotate(90 200 200)" stroke-dasharray="1,1"></line>
<line x1="210" y1="200" x2="400" y2="200" stroke="gray" transform="rotate(120 200 200)" stroke-dasharray="1,1"></line>
<line x1="210" y1="200" x2="400" y2="200" stroke="gray" transform="rotate(150 200 200)" stroke-dasharray="1,1"></line>
<line x1="210" y1="200" x2="400" y2="200" stroke="gray" transform="rotate(180 200 200)" stroke-dasharray="1,1"></line>
<line x1="210" y1="200" x2="400" y2="200" stroke="gray" transform="rotate(210 200 200)" stroke-dasharray="1,1"></line>
<line x1="210" y1="200" x2="400" y2="200" stroke="gray" transform="rotate(240 200 200)" stroke-dasharray="1,1"></line>
<line x1="210" y1="200" x2="400" y2="200" stroke="gray" transform="rotate(270 200 200)" stroke-dasharray="1,1"></line>
<line x1="210" y1="200" x2="400" y2="200" stroke="gray" transform="rotate(300 200 200)" stroke-dasharray="1,1"></line>
<line x1="210" y1="200" x2="400" y2="200" stroke="gray" transform="rotate(330 200 200)" stroke-dasharray="1,1"></line>
<circle cx="200" cy="200" r="10" stroke="black" fill="none"></circle>	
<circle cx="200" cy="200" r="57.5" stroke="gray" fill="none" stroke-dasharray="1,1"></circle>	
<circle cx="200" cy="200" r="105" stroke="gray" fill="none" stroke-dasharray="1,1"></circle>	
<circle cx="200" cy="200" r="152.5" stroke="gray" fill="none" stroke-dasharray="1,1"></circle>	
<circle cx="200" cy="200" r="200" stroke="black" fill="none"></circle>
<text x="205" y="215">-60</text>
<text x="245" y="215">-50</text>
<text x="295" y="215">-40</text>
<text x="342" y="215">-30</text>
<text x="380" y="215">-20</text>
<text x="405" y="205">0</text>
<g transform="rotate(-30,200,200)"><text x="405" y="205">30</text></g>
<g transform="rotate(-60,200,200)"><text x="405" y="205">60</text></g>
<text x="195" y="-5">90</text>
<g transform="rotate(60,200,200)"><text x="-30" y="205">120</text></g>
<g transform="rotate(30,200,200)"><text x="-30" y="205">150</text></g>
<text x="-20" y="205">180</text>
<g transform="rotate(-30,200,200)"><text x="-30" y="205">210</text></g>
<g transform="rotate(-60,200,200)"><text x="-30" y="205">240</text></g>
<text x="190" y="415">270</text>
<g transform="rotate( 60,200,200)"><text x="405" y="205">300</text></g>
<g transform="rotate( 30,200,200)"><text x="405" y="205">330</text></g>

<line x1="390" y1="200" x2="400" y2="200" stroke="black" transform="rotate(0 200 200)"></line>
<line x1="390" y1="200" x2="400" y2="200" stroke="black" transform="rotate(30 200 200)"></line>
<line x1="390" y1="200" x2="400" y2="200" stroke="black" transform="rotate(60 200 200)"></line>
<line x1="390" y1="200" x2="400" y2="200" stroke="black" transform="rotate(90 200 200)"></line>
<line x1="390" y1="200" x2="400" y2="200" stroke="black" transform="rotate(120 200 200)"></line>
<line x1="390" y1="200" x2="400" y2="200" stroke="black" transform="rotate(150 200 200)"></line>
<line x1="390" y1="200" x2="400" y2="200" stroke="black" transform="rotate(180 200 200)"></line>
<line x1="390" y1="200" x2="400" y2="200" stroke="black" transform="rotate(210 200 200)"></line>
<line x1="390" y1="200" x2="400" y2="200" stroke="black" transform="rotate(240 200 200)"></line>
<line x1="390" y1="200" x2="400" y2="200" stroke="black" transform="rotate(270 200 200)"></line>
<line x1="390" y1="200" x2="400" y2="200" stroke="black" transform="rotate(300 200 200)"></line>
<line x1="390" y1="200" x2="400" y2="200" stroke="black" transform="rotate(330 200 200)"></line>

<line x1="257.5" y1="195" x2="257.5" y2="200" stroke="black"></line>
<line x1="305" y1="195" x2="305" y2="200" stroke="black"></line>
<line x1="352.5" y1="195" x2="352.5" y2="200" stroke="black"></line>
<path id="F" stroke="#AA69D3" stroke-width="3" stroke-dasharray="1,0" fill="none" d="M310.29 180.55 L302.12 162.83 L292.58 146.55 L288.06 126.11 L267.86 119.13 L254.21 106.11 L235.60 102.19 L219.85 87.41 L200.00 97.89 L180.00 86.58 L165.85 106.18 L165.28 139.87 L138.09 126.22 L122.93 135.33 L116.98 152.07 L115.03 169.07 L108.45 183.86 L79.40 200.00 L57.96 225.05 L84.79 241.93 L75.86 271.67 L141.46 249.12 L132.02 281.02 L142.04 300.40 L171.98 276.98 L172.89 353.75 L200.00 312.66 L225.15 342.62 L249.22 335.23 L287.64 351.80 L303.53 323.38 L296.84 281.26 L331.02 275.65 L345.28 252.88 L280.46 214.19 L354.64 200.00 "></path><path id="P" stroke="#AA69D3" stroke-width="3" stroke-dasharray="1,0" fill="none" d="M310.29 180.55 L302.12 162.83 L292.58 146.55 L288.06 126.11 L267.86 119.13 L254.21 106.11 L235.60 102.19 L219.85 87.41 L200.00 97.89 L180.00 86.58 L165.85 106.18 L165.28 139.87 L138.09 126.22 L122.93 135.33 L116.98 152.07 L115.03 169.07 L108.45 183.86 L79.40 200.00 L57.96 225.05 L84.79 241.93 L75.86 271.67 L141.46 249.12 L132.02 281.02 L142.04 300.40 L171.98 276.98 L172.89 353.75 L200.00 312.66 L225.15 342.62 L249.22 335.23 L287.64 351.80 L303.53 323.38 L296.84 281.26 L331.02 275.65 L345.28 252.88 L280.46 214.19 L354.64 200.00 Z "></path><circle id="P_TS" fill="none" stroke-width="1" stroke="none" r="4" cx="210" cy="200"><title>TS(0°)=-60.00</title></circle><path id="Q" stroke="#4da6ff" stroke-width="3" stroke-dasharray="4,2" fill="none" d="M309.82 180.64 L301.34 163.12 L291.49 147.18 L280.06 132.82 L266.95 120.21 L251.96 110.01 L235.45 102.61 L217.97 98.07 L200.00 96.56 L182.05 98.22 L164.68 102.96 L148.36 110.56 L133.65 120.92 L120.98 133.69 L110.67 148.43 L103.16 164.75 L98.51 182.11 L96.83 200.00 L98.41 217.91 L103.17 235.24 L110.56 251.64 L121.13 266.18 L133.85 278.83 L148.44 289.31 L164.71 296.95 L182.11 301.44 L200.00 303.39 L217.88 301.39 L235.15 296.59 L251.54 289.27 L266.34 279.07 L278.97 266.26 L289.63 251.75 L296.81 235.24 L301.13 217.83 L303.00 200.00 Z "></path><circle id="Q_TS" fill="none" stroke-width="1" stroke="none" r="4" cx="210" cy="200"><title>TS(0°)=-60.00</title></circle></g>
</svg>