<svg xmlns="http://www.w3.org/2000/svg" id="svg" width="440" height="440" font-family="Times" font-size="14" oncopy="svg_copy(this);">
<text x="10" y="10" id="title" font-style="italic" style="fill1:#ff6633;stroke:none">θ<tspan dy="6" font-size="0.8em">0</tspan><tspan dy="-6" font-style="normal"> = 0° <tspan font-style="italic">φ</tspan><tspan dy="6" font-size="0.8em">0</tspan><tspan dy="-6" font-style="normal"> = 90°</tspan></tspan></text>
<text x="280" y="10" id="title2" font-style="italic" style="fill1:#ff6633;stroke:none">f<tspan dy="6" font-size="0.8em">0</tspan><tspan dy="-6" font-style="normal"> = 38 kHz <tspan font-style="italic">c</tspan><tspan dy="6" font-size="0.8em">0</tspan><tspan dy="-6" font-style="normal"> = 1480 m/s</tspan></tspan></text>
<text x="340" y="432" id="title3" font-style="italic" style="fill1:#ff6633;stroke:none">TS<tspan font-style="normal"> = -39.29 dB</tspan></text>
<text x="10" y="432" id="title4" font-style="italic" style="fill1:#ff6633;stroke:none">ℒ<tspan dy="6" font-size="0.8em">BS</tspan><tspan dy="-6" font-style="normal"> = 0.0108 m</tspan></text>
<g id="svg0" transform="translate(20,20)">
<line x1="210" y1="200" x2="400" y2="200" stroke="gray"></line>
<line x1="210" y1="200" x2="400" y2="200" stroke="gray" transform="rotate(30 200 200)" stroke-dasharray="1,1"></line>
<line x1="210" y1="200" x2="400" y2="200" stroke="gray" transform="rotate(60 200 200)" stroke-dasharray="1,1"></line>
<line x1="210" y1="200" x2="400" y2="200" stroke="gray" transform="rotate(90 200 200)" stroke-dasharray="1,1"></line>
<line x1="210" y1="200" x2="400" y2="200" stroke="gray" transform="rotate(120 200 200)" stroke-dasharray="1,1"></line>
<line x1="210" y1="200" x2="400" y2="200" stroke="gray" transform="rotate(150 200 200)" stroke-dasharray="1,1"></line>
<line x1="210" y1="200" x2="400" y2="200" stroke="gray" transform="rotate(180 200 200)" stroke-dasharray="1,1"></line>
<line x1="210" y1="200" x2="400" y2="200" stroke="gray" transform="rotate(210 200 200)" stroke-dasharray="1,1"></line>
<line x1="210" y1="200" x2="400" y2="200" stroke="gray" transform="rotate(240 200 200)" stroke-dasharray="1,1"></line>
<line x1="210" y1="200" x2="400" y2="200" stroke="gray" transform="rotate(270 200 200)" stroke-dasharray="1,1"></line>
<line x1="210" y1="200" x2="400" y2="200" stroke="gray" transform="rotate(300 200 200)" stroke-dasharray="1,1"></line>
<line x1="210" y1="200" x2="400" y2="200" stroke="gray" transform="rotate(330 200 200)" stroke-dasharray="1,1"></line>
<circle cx="200" cy="200" r="10" stroke="black" fill="none"></circle>	
<circle cx="200" cy="200" r="57.5" stroke="gray" fill="none" stroke-dasharray="1,1"></circle>	
<circle cx="200" cy="200" r="105" stroke="gray" fill="none" stroke-dasharray="1,1"></circle>	
<circle cx="200" cy="200" r="152.5" stroke="gray" fill="none" stroke-dasharray="1,1"></circle>	
<circle cx="200" cy="200" r="200" stroke="black" fill="none"></circle>
<text x="205" y="215">-60</text>
<text x="245" y="215">-50</text>
<text x="295" y="215">-40</text>
<text x="342" y="215">-30</text>
<text x="380" y="215">-20</text>
<text x="405" y="205">0</text>
<g transform="rotate(-30,200,200)"><text x="405" y="205">30</text></g>
<g transform="rotate(-60,200,200)"><text x="405" y="205">60</text></g>
<text x="195" y="-5">90</text>
<g transform="rotate(60,200,200)"><text x="-30" y="205">120</text></g>
<g transform="rotate(30,200,200)"><text x="-30" y="205">150</text></g>
<text x="-20" y="205">180</text>
<g transform="rotate(-30,200,200)"><text x="-30" y="205">210</text></g>
<g transform="rotate(-60,200,200)"><text x="-30" y="205">240</text></g>
<text x="190" y="415">270</text>
<g transform="rotate( 60,200,200)"><text x="405" y="205">300</text></g>
<g transform="rotate( 30,200,200)"><text x="405" y="205">330</text></g>

<line x1="390" y1="200" x2="400" y2="200" stroke="black" transform="rotate(0 200 200)"></line>
<line x1="390" y1="200" x2="400" y2="200" stroke="black" transform="rotate(30 200 200)"></line>
<line x1="390" y1="200" x2="400" y2="200" stroke="black" transform="rotate(60 200 200)"></line>
<line x1="390" y1="200" x2="400" y2="200" stroke="black" transform="rotate(90 200 200)"></line>
<line x1="390" y1="200" x2="400" y2="200" stroke="black" transform="rotate(120 200 200)"></line>
<line x1="390" y1="200" x2="400" y2="200" stroke="black" transform="rotate(150 200 200)"></line>
<line x1="390" y1="200" x2="400" y2="200" stroke="black" transform="rotate(180 200 200)"></line>
<line x1="390" y1="200" x2="400" y2="200" stroke="black" transform="rotate(210 200 200)"></line>
<line x1="390" y1="200" x2="400" y2="200" stroke="black" transform="rotate(240 200 200)"></line>
<line x1="390" y1="200" x2="400" y2="200" stroke="black" transform="rotate(270 200 200)"></line>
<line x1="390" y1="200" x2="400" y2="200" stroke="black" transform="rotate(300 200 200)"></line>
<line x1="390" y1="200" x2="400" y2="200" stroke="black" transform="rotate(330 200 200)"></line>

<line x1="257.5" y1="195" x2="257.5" y2="200" stroke="black"></line>
<line x1="305" y1="195" x2="305" y2="200" stroke="black"></line>
<line x1="352.5" y1="195" x2="352.5" y2="200" stroke="black"></line>
<path id="F" stroke="#AA69D3" stroke-width="3" stroke-dasharray="1,0" fill="none" d=""></path><path id="P" stroke="#ff6633" stroke-width="3" stroke-dasharray="1,0" fill="none" d="M359.27 200.00 L359.21 197.22 L359.06 194.45 L358.82 191.68 L358.49 188.92 L358.07 186.17 L357.57 183.44 L356.98 180.73 L356.30 178.03 L355.53 175.37 L354.68 172.73 L353.75 170.11 L352.73 167.54 L351.64 164.99 L350.46 162.49 L349.20 160.02 L347.86 157.60 L346.44 155.23 L344.95 152.90 L343.39 150.63 L341.75 148.41 L340.05 146.24 L338.27 144.14 L336.43 142.09 L334.52 140.11 L332.55 138.19 L330.51 136.34 L328.42 134.57 L326.27 132.86 L324.07 131.23 L321.82 129.67 L319.51 128.19 L317.16 126.79 L314.77 125.47 L312.34 124.23 L309.86 123.07 L307.35 122.00 L304.81 121.02 L302.24 120.12 L299.64 119.31 L297.02 118.59 L294.38 117.95 L291.73 117.41 L289.06 116.95 L286.39 116.58 L283.71 116.29 L281.03 116.09 L278.36 115.97 L275.69 115.94 L273.04 115.98 L270.41 116.09 L267.80 116.28 L265.22 116.53 L262.67 116.84 L260.16 117.20 L257.70 117.60 L255.28 118.04 L252.92 118.51 L250.62 118.99 L248.38 119.48 L246.22 119.95 L244.12 120.41 L242.09 120.84 L240.13 121.23 L238.25 121.57 L236.45 121.84 L234.70 122.05 L233.03 122.19 L231.42 122.24 L229.85 122.23 L228.34 122.14 L226.87 121.98 L225.42 121.75 L224.01 121.46 L222.62 121.13 L221.24 120.74 L219.86 120.33 L218.50 119.88 L217.13 119.42 L215.75 118.96 L214.37 118.48 L212.99 118.01 L211.59 117.54 L210.18 117.11 L208.76 116.68 L207.32 116.28 L205.88 115.90 L204.43 115.56 L202.96 115.25 L201.48 114.98 L200.00 114.74 L198.51 114.54 L197.01 114.38 L195.51 114.26 L194.00 114.18 L192.49 114.14 L190.98 114.14 L189.46 114.18 L187.95 114.26 L186.44 114.38 L184.93 114.54 L183.43 114.73 L181.92 114.96 L180.43 115.23 L178.94 115.52 L177.45 115.86 L175.98 116.22 L174.50 116.61 L173.04 117.02 L171.58 117.47 L170.13 117.94 L168.69 118.44 L167.25 118.95 L165.82 119.48 L164.40 120.04 L162.98 120.60 L161.56 121.19 L160.15 121.79 L158.74 122.41 L157.34 123.03 L155.93 123.67 L154.53 124.32 L153.12 124.98 L151.72 125.65 L150.31 126.33 L148.90 127.02 L147.49 127.73 L146.08 128.44 L144.66 129.17 L143.24 129.91 L141.82 130.66 L140.40 131.43 L138.97 132.22 L137.54 133.02 L136.10 133.83 L134.67 134.67 L133.24 135.53 L131.81 136.41 L130.38 137.32 L128.96 138.24 L127.54 139.20 L126.13 140.18 L124.72 141.19 L123.33 142.22 L121.94 143.29 L120.57 144.38 L119.22 145.51 L117.87 146.67 L116.55 147.86 L115.25 149.08 L113.97 150.33 L112.70 151.61 L111.47 152.93 L110.26 154.27 L109.07 155.65 L107.91 157.06 L106.79 158.50 L105.69 159.97 L104.63 161.47 L103.60 163.00 L102.61 164.55 L101.65 166.14 L100.73 167.75 L99.85 169.38 L99.01 171.04 L98.21 172.73 L97.45 174.43 L96.74 176.16 L96.07 177.91 L95.44 179.68 L94.86 181.46 L94.32 183.26 L93.83 185.08 L93.39 186.91 L92.99 188.75 L92.65 190.61 L92.35 192.47 L92.10 194.35 L91.90 196.23 L91.75 198.11 L91.65 200.00 L91.60 201.89 L91.60 203.79 L91.65 205.68 L91.74 207.57 L91.90 209.46 L92.09 211.34 L92.34 213.22 L92.64 215.09 L92.99 216.95 L93.38 218.80 L93.82 220.64 L94.31 222.46 L94.85 224.28 L95.43 226.07 L96.06 227.85 L96.73 229.61 L97.45 231.35 L98.21 233.07 L99.01 234.77 L99.86 236.45 L100.74 238.10 L101.66 239.73 L102.62 241.33 L103.62 242.91 L104.65 244.46 L105.71 245.99 L106.81 247.48 L107.93 248.95 L109.09 250.39 L110.28 251.80 L111.49 253.18 L112.73 254.53 L113.99 255.85 L115.28 257.15 L116.58 258.41 L117.91 259.64 L119.25 260.85 L120.61 262.02 L121.99 263.17 L123.38 264.29 L124.79 265.38 L126.20 266.45 L127.63 267.49 L129.06 268.51 L130.50 269.50 L131.95 270.47 L133.41 271.41 L134.87 272.33 L136.34 273.23 L137.81 274.11 L139.29 274.97 L140.76 275.82 L142.25 276.64 L143.73 277.45 L145.22 278.24 L146.71 279.01 L148.20 279.77 L149.69 280.51 L151.18 281.24 L152.68 281.95 L154.18 282.66 L155.69 283.34 L157.19 284.01 L158.71 284.67 L160.22 285.31 L161.74 285.93 L163.26 286.54 L164.79 287.14 L166.33 287.71 L167.87 288.27 L169.42 288.81 L170.97 289.33 L172.53 289.84 L174.10 290.32 L175.68 290.78 L177.26 291.21 L178.85 291.62 L180.44 292.01 L182.05 292.36 L183.65 292.70 L185.27 293.00 L186.89 293.27 L188.52 293.52 L190.15 293.73 L191.78 293.91 L193.42 294.06 L195.06 294.17 L196.71 294.24 L198.35 294.29 L200.00 294.30 L201.65 294.28 L203.29 294.22 L204.93 294.12 L206.57 294.00 L208.21 293.84 L209.84 293.65 L211.47 293.42 L213.09 293.17 L214.71 292.89 L216.33 292.58 L217.93 292.25 L219.54 291.91 L221.13 291.53 L222.73 291.15 L224.32 290.76 L225.91 290.36 L227.50 289.96 L229.10 289.56 L230.70 289.17 L232.32 288.79 L233.94 288.43 L235.59 288.08 L237.26 287.77 L238.95 287.48 L240.67 287.23 L242.44 287.01 L244.24 286.82 L246.08 286.67 L247.98 286.56 L249.93 286.48 L251.93 286.42 L253.98 286.39 L256.10 286.38 L258.27 286.38 L260.49 286.38 L262.76 286.39 L265.09 286.38 L267.46 286.35 L269.88 286.30 L272.34 286.21 L274.83 286.08 L277.35 285.91 L279.90 285.68 L282.47 285.40 L285.05 285.05 L287.65 284.64 L290.25 284.16 L292.85 283.60 L295.44 282.97 L298.03 282.26 L300.61 281.47 L303.17 280.60 L305.71 279.66 L308.22 278.62 L310.70 277.51 L313.15 276.32 L315.57 275.05 L317.95 273.70 L320.28 272.27 L322.57 270.77 L324.81 269.18 L327.00 267.53 L329.14 265.80 L331.21 264.00 L333.23 262.13 L335.19 260.19 L337.08 258.19 L338.91 256.12 L340.67 254.00 L342.36 251.81 L343.97 249.57 L345.52 247.28 L346.99 244.94 L348.38 242.55 L349.69 240.11 L350.92 237.63 L352.08 235.11 L353.15 232.55 L354.13 229.96 L355.04 227.34 L355.85 224.68 L356.58 222.01 L357.23 219.31 L357.79 216.58 L358.26 213.85 L358.64 211.09 L358.93 208.33 L359.13 205.56 L359.25 202.78 Z "></path><circle id="P_TS" fill="#ff6633" stroke-width="1" stroke="#ff6633" r="4" cx="91.64558418510389" cy="200"><title>TS(180°)=-39.29</title></circle></g>
</svg>