<svg xmlns="http://www.w3.org/2000/svg" id="svg1" width="440" height="440" font-family="Times" font-size="14" oncopy="svg_copy(this);">
      <g id="gt" transform="translate(0,20)">
      </g>
   <path id="Xp" stroke="red" stroke-width="0.875" stroke-dasharray="1,0" fill="none" d="M220.00 220.00 L7006.63 591.85 Z "></path><path id="Xn" stroke="red" stroke-width="0.875" stroke-dasharray="2,4" fill="none" d="M220.00 220.00 L-6566.63 -151.85 Z "></path><path id="Yp" stroke="green" stroke-width="0.875" stroke-dasharray="1,0" fill="none" d="M220.00 220.00 L220.00 -6679.67 Z "></path><path id="Yn" stroke="green" stroke-width="0.875" stroke-dasharray="2,4" fill="none" d="M220.00 220.00 L220.00 7119.67 Z "></path><path id="Zp" stroke="blue" stroke-width="0.875" stroke-dasharray="1,0" fill="none" d="M220.00 220.00 L-1651.68 1568.30 Z "></path><path id="Zn" stroke="blue" stroke-width="0.875" stroke-dasharray="2,4" fill="none" d="M220.00 220.00 L2091.68 -1128.30 Z "></path><circle id="O" fill="black" stroke-width="1" stroke="none" r="4" cx="220" cy="220"><title>[0,0,0]</title></circle><circle id="lambda_0" fill="#FFAA33" stroke-width="1" stroke="none" r="4" cx="352.1607634687025" cy="227.241216319253"><title>λ/2=0.0195</title></circle><path id="B11" stroke="black" stroke-width="0.5" stroke-dasharray="1,0" fill="none" d="M124.29 320.86 L51.39 373.38 L51.39 104.65 L124.29 52.14 Z M388.61 335.35 L315.71 387.86 L315.71 119.14 L388.61 66.62 Z M124.29 320.86 L388.61 335.35 Z M51.39 373.38 L315.71 387.86 Z M51.39 104.65 L315.71 119.14 Z M124.29 52.14 L388.61 66.62 Z Z "></path><path id="B1" stroke="black" stroke-width="0.5" stroke-dasharray="2,4" fill="none" d="M212.39 325.69 L139.50 378.20 L139.50 109.48 L212.39 56.97 Z M300.50 330.52 L227.61 383.03 L227.61 114.31 L300.50 61.80 Z M124.29 231.29 L51.39 283.80 L315.71 298.28 L388.61 245.77 Z M124.29 141.72 L51.39 194.23 L315.71 208.71 L388.61 156.20 Z M99.99 338.37 L99.99 69.64 L364.31 84.13 L364.31 352.85 Z M75.69 355.87 L75.69 87.15 L340.01 101.63 L340.01 370.36 Z "></path><path id="C1" stroke="green" stroke-width="1" stroke-dasharray="1,2" fill="none" d="M461.52 242.80 L461.48 238.23 L461.37 233.64 L461.19 229.06 L460.93 224.47 L460.60 219.87 L460.20 215.28 L459.72 210.69 L459.17 206.11 L458.55 201.52 L457.85 196.95 L457.08 192.38 L456.24 187.82 L455.33 183.26 L454.34 178.72 L453.29 174.20 L452.16 169.68 L450.97 165.18 L449.70 160.70 L448.36 156.24 L446.95 151.79 L445.48 147.37 L443.93 142.97 L442.32 138.59 L440.64 134.24 L438.89 129.91 L437.08 125.61 L435.20 121.34 L433.25 117.10 L431.24 112.89 L429.16 108.71 L427.02 104.57 L424.82 100.46 L422.55 96.39 L420.23 92.35 L417.84 88.36 L415.39 84.40 L412.89 80.49 L410.32 76.62 L407.70 72.79 L405.01 69.01 L402.28 65.27 L399.48 61.58 L396.64 57.94 L393.73 54.35 L390.78 50.81 L387.77 47.32 L384.72 43.88 L381.61 40.50 L378.45 37.17 L375.25 33.90 L371.99 30.68 L368.69 27.52 L365.35 24.42 L361.96 21.38 L358.53 18.40 L355.06 15.48 L351.54 12.63 L347.99 9.83 L344.39 7.10 L340.76 4.44 L337.09 1.84 L333.39 -0.69 L329.65 -3.16 L325.88 -5.55 L322.07 -7.88 L318.23 -10.14 L314.37 -12.33 L310.47 -14.45 L306.55 -16.50 L302.60 -18.47 L298.63 -20.37 L294.63 -22.20 L290.61 -23.96 L286.57 -25.64 L282.51 -27.24 L278.43 -28.77 L274.33 -30.23 L270.21 -31.61 L266.08 -32.91 L261.94 -34.13 L257.78 -35.28 L253.61 -36.35 L249.43 -37.34 L245.25 -38.25 L241.05 -39.09 L236.85 -39.85 L232.64 -40.52 L228.43 -41.12 L224.22 -41.64 L220.00 -42.07 L215.78 -42.43 L211.57 -42.71 L207.36 -42.91 L203.15 -43.03 L198.95 -43.06 L194.75 -43.02 L190.57 -42.90 L186.39 -42.70 L182.22 -42.41 L178.06 -42.05 L173.92 -41.61 L169.79 -41.09 L165.67 -40.49 L161.57 -39.81 L157.49 -39.05 L153.43 -38.21 L149.39 -37.29 L145.37 -36.29 L141.37 -35.22 L137.40 -34.07 L133.45 -32.84 L129.53 -31.53 L125.63 -30.15 L121.77 -28.69 L117.93 -27.16 L114.12 -25.55 L110.35 -23.86 L106.61 -22.10 L102.91 -20.27 L99.24 -18.36 L95.61 -16.39 L92.01 -14.33 L88.46 -12.21 L84.94 -10.02 L81.47 -7.76 L78.04 -5.43 L74.65 -3.02 L71.31 -0.56 L68.01 1.98 L64.75 4.58 L61.55 7.25 L58.39 9.98 L55.28 12.78 L52.23 15.64 L49.22 18.56 L46.27 21.55 L43.36 24.59 L40.52 27.69 L37.72 30.85 L34.99 34.07 L32.30 37.35 L29.68 40.68 L27.11 44.07 L24.61 47.51 L22.16 51.00 L19.77 54.55 L17.45 58.14 L15.18 61.78 L12.98 65.48 L10.84 69.22 L8.76 73.00 L6.75 76.83 L4.80 80.70 L2.92 84.62 L1.11 88.58 L-0.64 92.57 L-2.32 96.61 L-3.93 100.68 L-5.48 104.79 L-6.95 108.94 L-8.36 113.12 L-9.70 117.33 L-10.97 121.57 L-12.16 125.84 L-13.29 130.14 L-14.34 134.47 L-15.33 138.83 L-16.24 143.21 L-17.08 147.61 L-17.85 152.04 L-18.55 156.48 L-19.17 160.95 L-19.72 165.43 L-20.20 169.93 L-20.60 174.44 L-20.93 178.97 L-21.19 183.51 L-21.37 188.07 L-21.48 192.63 L-21.52 197.20 L-21.48 201.77 L-21.37 206.36 L-21.19 210.94 L-20.93 215.53 L-20.60 220.13 L-20.20 224.72 L-19.72 229.31 L-19.17 233.89 L-18.55 238.48 L-17.85 243.05 L-17.08 247.62 L-16.24 252.18 L-15.33 256.74 L-14.34 261.28 L-13.29 265.80 L-12.16 270.32 L-10.97 274.82 L-9.70 279.30 L-8.36 283.76 L-6.95 288.21 L-5.48 292.63 L-3.93 297.03 L-2.32 301.41 L-0.64 305.76 L1.11 310.09 L2.92 314.39 L4.80 318.66 L6.75 322.90 L8.76 327.11 L10.84 331.29 L12.98 335.43 L15.18 339.54 L17.45 343.61 L19.77 347.65 L22.16 351.64 L24.61 355.60 L27.11 359.51 L29.68 363.38 L32.30 367.21 L34.99 370.99 L37.72 374.73 L40.52 378.42 L43.36 382.06 L46.27 385.65 L49.22 389.19 L52.23 392.68 L55.28 396.12 L58.39 399.50 L61.55 402.83 L64.75 406.10 L68.01 409.32 L71.31 412.48 L74.65 415.58 L78.04 418.62 L81.47 421.60 L84.94 424.52 L88.46 427.37 L92.01 430.17 L95.61 432.90 L99.24 435.56 L102.91 438.16 L106.61 440.69 L110.35 443.16 L114.12 445.55 L117.93 447.88 L121.77 450.14 L125.63 452.33 L129.53 454.45 L133.45 456.50 L137.40 458.47 L141.37 460.37 L145.37 462.20 L149.39 463.96 L153.43 465.64 L157.49 467.24 L161.57 468.77 L165.67 470.23 L169.79 471.61 L173.92 472.91 L178.06 474.13 L182.22 475.28 L186.39 476.35 L190.57 477.34 L194.75 478.25 L198.95 479.09 L203.15 479.85 L207.36 480.52 L211.57 481.12 L215.78 481.64 L220.00 482.07 L224.22 482.43 L228.43 482.71 L232.64 482.91 L236.85 483.03 L241.05 483.06 L245.25 483.02 L249.43 482.90 L253.61 482.70 L257.78 482.41 L261.94 482.05 L266.08 481.61 L270.21 481.09 L274.33 480.49 L278.43 479.81 L282.51 479.05 L286.57 478.21 L290.61 477.29 L294.63 476.29 L298.63 475.22 L302.60 474.07 L306.55 472.84 L310.47 471.53 L314.37 470.15 L318.23 468.69 L322.07 467.16 L325.88 465.55 L329.65 463.86 L333.39 462.10 L337.09 460.27 L340.76 458.36 L344.39 456.39 L347.99 454.33 L351.54 452.21 L355.06 450.02 L358.53 447.76 L361.96 445.43 L365.35 443.02 L368.69 440.56 L371.99 438.02 L375.25 435.42 L378.45 432.75 L381.61 430.02 L384.72 427.22 L387.77 424.36 L390.78 421.44 L393.73 418.45 L396.64 415.41 L399.48 412.31 L402.28 409.15 L405.01 405.93 L407.70 402.65 L410.32 399.32 L412.89 395.93 L415.39 392.49 L417.84 389.00 L420.23 385.45 L422.55 381.86 L424.82 378.22 L427.02 374.52 L429.16 370.78 L431.24 367.00 L433.25 363.17 L435.20 359.30 L437.08 355.38 L438.89 351.42 L440.64 347.43 L442.32 343.39 L443.93 339.32 L445.48 335.21 L446.95 331.06 L448.36 326.88 L449.70 322.67 L450.97 318.43 L452.16 314.16 L453.29 309.86 L454.34 305.53 L455.33 301.17 L456.24 296.79 L457.08 292.39 L457.85 287.96 L458.55 283.52 L459.17 279.05 L459.72 274.57 L460.20 270.07 L460.60 265.56 L460.93 261.03 L461.19 256.49 L461.37 251.93 L461.48 247.37 Z "></path><path id="C1h" stroke="green" stroke-width="1" stroke-dasharray="1,2" fill="none" d="M477.78 234.12 L476.50 235.02 L475.14 235.90 L473.71 236.78 L472.19 237.66 L470.60 238.53 L468.94 239.40 L467.20 240.26 L465.38 241.11 L463.49 241.96 L461.52 242.80 L459.48 243.64 L457.37 244.46 L455.18 245.28 L452.92 246.09 L450.60 246.90 L448.20 247.69 L445.73 248.48 L443.19 249.26 L440.59 250.03 L437.92 250.79 L435.18 251.54 L432.38 252.28 L429.51 253.01 L426.58 253.73 L423.58 254.44 L420.53 255.14 L417.41 255.83 L414.23 256.51 L410.99 257.18 L407.70 257.84 L404.35 258.48 L400.94 259.12 L397.47 259.74 L393.95 260.35 L390.38 260.94 L386.76 261.53 L383.09 262.10 L379.36 262.66 L375.59 263.21 L371.77 263.74 L367.91 264.26 L364.00 264.76 L360.04 265.26 L356.05 265.74 L352.01 266.20 L347.93 266.65 L343.81 267.09 L339.66 267.51 L335.46 267.92 L331.24 268.31 L326.98 268.69 L322.68 269.05 L318.36 269.40 L314.00 269.73 L309.62 270.05 L305.21 270.36 L300.77 270.64 L296.31 270.92 L291.83 271.17 L287.32 271.41 L282.79 271.64 L278.25 271.85 L273.69 272.04 L269.11 272.22 L264.51 272.38 L259.90 272.53 L255.28 272.66 L250.65 272.77 L246.01 272.87 L241.36 272.96 L236.71 273.02 L232.04 273.07 L227.38 273.10 L222.71 273.12 L218.05 273.12 L213.38 273.11 L208.72 273.08 L204.06 273.03 L199.40 272.97 L194.75 272.89 L190.11 272.79 L185.47 272.68 L180.85 272.55 L176.24 272.41 L171.64 272.25 L167.06 272.07 L162.50 271.88 L157.95 271.67 L153.42 271.45 L148.91 271.21 L144.42 270.96 L139.95 270.69 L135.51 270.40 L131.10 270.10 L126.71 269.79 L122.35 269.46 L118.02 269.11 L113.72 268.75 L109.46 268.37 L105.22 267.98 L101.03 267.58 L96.86 267.16 L92.74 266.72 L88.66 266.27 L84.61 265.81 L80.61 265.34 L76.65 264.85 L72.73 264.34 L68.85 263.82 L65.03 263.29 L61.25 262.75 L57.52 262.19 L53.84 261.62 L50.20 261.04 L46.62 260.45 L43.10 259.84 L39.63 259.22 L36.21 258.59 L32.85 257.94 L29.54 257.29 L26.29 256.62 L23.11 255.95 L19.98 255.26 L16.91 254.56 L13.91 253.85 L10.96 253.13 L8.09 252.40 L5.27 251.66 L2.52 250.91 L-0.16 250.15 L-2.77 249.38 L-5.32 248.61 L-7.80 247.82 L-10.21 247.03 L-12.55 246.23 L-14.82 245.42 L-17.01 244.60 L-19.14 243.77 L-21.19 242.94 L-23.17 242.10 L-25.07 241.25 L-26.90 240.40 L-28.66 239.54 L-30.34 238.68 L-31.94 237.80 L-33.46 236.93 L-34.91 236.05 L-36.28 235.16 L-37.58 234.27 L-38.79 233.37 L-39.93 232.48 L-40.98 231.57 L-41.96 230.67 L-42.86 229.76 L-43.67 228.84 L-44.41 227.93 L-45.07 227.01 L-45.64 226.09 L-46.14 225.17 L-46.55 224.24 L-46.88 223.32 L-47.13 222.39 L-47.30 221.47 L-47.39 220.54 L-47.40 219.61 L-47.32 218.69 L-47.17 217.76 L-46.93 216.83 L-46.61 215.91 L-46.21 214.98 L-45.73 214.06 L-45.17 213.14 L-44.52 212.22 L-43.80 211.31 L-43.00 210.39 L-42.11 209.48 L-41.15 208.58 L-40.10 207.67 L-38.98 206.77 L-37.78 205.88 L-36.50 204.98 L-35.14 204.10 L-33.71 203.22 L-32.19 202.34 L-30.60 201.47 L-28.94 200.60 L-27.20 199.74 L-25.38 198.89 L-23.49 198.04 L-21.52 197.20 L-19.48 196.36 L-17.37 195.54 L-15.18 194.72 L-12.92 193.91 L-10.60 193.10 L-8.20 192.31 L-5.73 191.52 L-3.19 190.74 L-0.59 189.97 L2.08 189.21 L4.82 188.46 L7.62 187.72 L10.49 186.99 L13.42 186.27 L16.42 185.56 L19.47 184.86 L22.59 184.17 L25.77 183.49 L29.01 182.82 L32.30 182.16 L35.65 181.52 L39.06 180.88 L42.53 180.26 L46.05 179.65 L49.62 179.06 L53.24 178.47 L56.91 177.90 L60.64 177.34 L64.41 176.79 L68.23 176.26 L72.09 175.74 L76.00 175.24 L79.96 174.74 L83.95 174.26 L87.99 173.80 L92.07 173.35 L96.19 172.91 L100.34 172.49 L104.54 172.08 L108.76 171.69 L113.02 171.31 L117.32 170.95 L121.64 170.60 L126.00 170.27 L130.38 169.95 L134.79 169.64 L139.23 169.36 L143.69 169.08 L148.17 168.83 L152.68 168.59 L157.21 168.36 L161.75 168.15 L166.31 167.96 L170.89 167.78 L175.49 167.62 L180.10 167.47 L184.72 167.34 L189.35 167.23 L193.99 167.13 L198.64 167.04 L203.29 166.98 L207.96 166.93 L212.62 166.90 L217.29 166.88 L221.95 166.88 L226.62 166.89 L231.28 166.92 L235.94 166.97 L240.60 167.03 L245.25 167.11 L249.89 167.21 L254.53 167.32 L259.15 167.45 L263.76 167.59 L268.36 167.75 L272.94 167.93 L277.50 168.12 L282.05 168.33 L286.58 168.55 L291.09 168.79 L295.58 169.04 L300.05 169.31 L304.49 169.60 L308.90 169.90 L313.29 170.21 L317.65 170.54 L321.98 170.89 L326.28 171.25 L330.54 171.63 L334.78 172.02 L338.97 172.42 L343.14 172.84 L347.26 173.28 L351.34 173.73 L355.39 174.19 L359.39 174.66 L363.35 175.15 L367.27 175.66 L371.15 176.18 L374.97 176.71 L378.75 177.25 L382.48 177.81 L386.16 178.38 L389.80 178.96 L393.38 179.55 L396.90 180.16 L400.37 180.78 L403.79 181.41 L407.15 182.06 L410.46 182.71 L413.71 183.38 L416.89 184.05 L420.02 184.74 L423.09 185.44 L426.09 186.15 L429.04 186.87 L431.91 187.60 L434.73 188.34 L437.48 189.09 L440.16 189.85 L442.77 190.62 L445.32 191.39 L447.80 192.18 L450.21 192.97 L452.55 193.77 L454.82 194.58 L457.01 195.40 L459.14 196.23 L461.19 197.06 L463.17 197.90 L465.07 198.75 L466.90 199.60 L468.66 200.46 L470.34 201.32 L471.94 202.20 L473.46 203.07 L474.91 203.95 L476.28 204.84 L477.58 205.73 L478.79 206.63 L479.93 207.52 L480.98 208.43 L481.96 209.33 L482.86 210.24 L483.67 211.16 L484.41 212.07 L485.07 212.99 L485.64 213.91 L486.14 214.83 L486.55 215.76 L486.88 216.68 L487.13 217.61 L487.30 218.53 L487.39 219.46 L487.40 220.39 L487.32 221.31 L487.17 222.24 L486.93 223.17 L486.61 224.09 L486.21 225.02 L485.73 225.94 L485.17 226.86 L484.52 227.78 L483.80 228.69 L483.00 229.61 L482.11 230.52 L481.15 231.42 L480.10 232.33 L478.98 233.23 Z "></path><path id="C2" stroke="green" stroke-width="1" stroke-dasharray="1,1" fill="none" d="M461.52 242.80 L454.27 242.12 Z M453.29 174.20 L446.29 175.57 Z M429.16 108.71 L422.89 112.05 Z M390.78 50.81 L385.66 55.89 Z M340.76 4.44 L337.14 10.91 Z M282.51 -27.24 L280.63 -19.83 Z M220.00 -42.07 L220.00 -34.21 Z M157.49 -39.05 L159.37 -31.27 Z M99.24 -18.36 L102.86 -11.21 Z M49.22 18.56 L54.34 24.60 Z M10.84 69.22 L17.11 73.74 Z M-13.29 130.14 L-6.29 132.84 Z M-21.52 197.20 L-14.27 197.88 Z M-13.29 265.80 L-6.29 264.43 Z M10.84 331.29 L17.11 327.95 Z M49.22 389.19 L54.34 384.11 Z M99.24 435.56 L102.86 429.09 Z M157.49 467.24 L159.37 459.83 Z M220.00 482.07 L220.00 474.21 Z M282.51 479.05 L280.63 471.27 Z M340.76 458.36 L337.14 451.21 Z M390.78 421.44 L385.66 415.40 Z M429.16 370.78 L422.89 366.26 Z M453.29 309.86 L446.29 307.16 Z "></path><path id="C2h" stroke="green" stroke-width="1" stroke-dasharray="1,1" fill="none" d="M477.78 234.12 L470.05 233.70 Z M450.60 246.90 L443.68 246.09 Z M407.70 257.84 L402.07 256.70 Z M352.01 266.20 L348.05 264.81 Z M287.32 271.41 L285.30 269.87 Z M218.05 273.12 L218.11 271.53 Z M148.91 271.21 L151.04 269.68 Z M84.61 265.81 L88.67 264.44 Z M29.54 257.29 L35.25 256.17 Z M-12.55 246.23 L-5.57 245.44 Z M-38.79 233.37 L-31.03 232.97 Z M-47.40 219.61 L-39.38 219.62 Z M-37.78 205.88 L-30.05 206.30 Z M-10.60 193.10 L-3.68 193.91 Z M32.30 182.16 L37.93 183.30 Z M87.99 173.80 L91.95 175.19 Z M152.68 168.59 L154.70 170.13 Z M221.95 166.88 L221.89 168.47 Z M291.09 168.79 L288.96 170.32 Z M355.39 174.19 L351.33 175.56 Z M410.46 182.71 L404.75 183.83 Z M452.55 193.77 L445.57 194.56 Z M478.79 206.63 L471.03 207.03 Z M487.40 220.39 L479.38 220.38 Z "></path><circle id="th_xy" fill="green" stroke-width="1" stroke="none" r="4" cx="-17.849920987760925" cy="152.03519733552912"><title>θ=-10 Φ=-10</title></circle><path id="M" stroke="#0b22ae" stroke-width="0.5" stroke-dasharray="1,0" fill="none" d="M220.00 265.46 L211.43 268.96 L221.87 257.81 Z M211.43 268.96 L213.60 267.68 L221.87 257.81 Z M211.43 268.96 L205.82 258.83 L213.60 267.68 Z M205.82 258.83 L204.13 267.54 L213.60 267.68 Z M205.82 258.83 L195.86 261.18 L204.13 267.54 Z M195.86 261.18 L194.60 264.86 L204.13 267.54 Z M195.86 261.18 L166.39 282.01 L194.60 264.86 Z M166.39 282.01 L174.48 272.97 L194.60 264.86 Z M166.39 282.01 L147.16 278.15 L174.48 272.97 Z M147.16 278.15 L159.36 267.78 L174.48 272.97 Z M147.16 278.15 L163.15 250.26 L159.36 267.78 Z M163.15 250.26 L172.22 244.73 L159.36 267.78 Z M163.15 250.26 L185.54 230.86 L172.22 244.73 Z M185.54 230.86 L182.99 231.19 L172.22 244.73 Z M185.54 230.86 L166.99 226.60 L182.99 231.19 Z M166.99 226.60 L163.62 226.58 L182.99 231.19 Z M166.99 226.60 L150.83 216.21 L163.62 226.58 Z M150.83 216.21 L150.83 216.21 L163.62 226.58 Z M149.39 203.48 L148.64 204.06 L150.83 216.21 Z M149.39 203.48 L160.94 194.91 L148.64 204.06 Z M160.94 194.91 L157.69 195.09 L148.64 204.06 Z M160.94 194.91 L177.75 192.89 L157.69 195.09 Z M177.75 192.89 L173.72 192.40 L157.69 195.09 Z M177.75 192.89 L191.79 194.39 L173.72 192.40 Z M191.79 194.39 L188.73 193.97 L173.72 192.40 Z M191.79 194.39 L200.92 195.83 L188.73 193.97 Z M200.92 195.83 L199.00 196.03 L188.73 193.97 Z M200.92 195.83 L207.25 196.85 L199.00 196.03 Z M207.25 196.85 L205.80 197.33 L199.00 196.03 Z M207.25 196.85 L211.98 197.17 L205.80 197.33 Z M211.98 197.17 L210.95 198.32 L205.80 197.33 Z M211.98 197.17 L214.92 190.40 L210.95 198.32 Z M214.92 190.40 L214.00 193.89 L210.95 198.32 Z M214.92 190.40 L220.00 177.99 L214.00 193.89 Z M220.00 177.99 L218.11 181.90 L214.00 193.89 Z M220.00 177.99 L226.97 180.19 L218.11 181.90 Z M226.97 180.19 L225.05 182.39 L218.11 181.90 Z M226.97 180.19 L226.65 201.79 L225.05 182.39 Z M226.65 201.79 L226.18 201.50 L225.05 182.39 Z M226.65 201.79 L254.81 160.60 L226.18 201.50 Z M254.81 160.60 L255.24 157.76 L226.18 201.50 Z M254.81 160.60 L309.92 115.98 L255.24 157.76 Z M309.92 115.98 L308.11 117.47 L255.24 157.76 Z M309.92 115.98 L351.65 114.91 L308.11 117.47 Z M351.65 114.91 L344.51 121.88 L308.11 117.47 Z M351.65 114.91 L331.98 160.41 L344.51 121.88 Z M331.98 160.41 L324.43 165.94 L344.51 121.88 Z M331.98 160.41 L267.30 205.09 L324.43 165.94 Z M267.30 205.09 L261.84 207.35 L324.43 165.94 Z M267.30 205.09 L272.29 213.49 L261.84 207.35 Z M272.29 213.49 L266.63 214.56 L261.84 207.35 Z M272.29 213.49 L284.13 223.51 L266.63 214.56 Z M284.13 223.51 L284.13 223.51 L266.63 214.56 Z M269.54 231.59 L274.93 232.27 L284.13 223.51 Z M269.54 231.59 L250.87 233.12 L274.93 232.27 Z M250.87 233.12 L258.93 235.56 L274.93 232.27 Z M250.87 233.12 L236.71 230.72 L258.93 235.56 Z M236.71 230.72 L245.58 235.26 L258.93 235.56 Z M236.71 230.72 L227.48 226.79 L245.58 235.26 Z M227.48 226.79 L236.12 233.42 L245.58 235.26 Z M227.48 226.79 L225.53 227.00 L236.12 233.42 Z M225.53 227.00 L230.75 232.27 L236.12 233.42 Z M225.53 227.00 L227.87 234.28 L230.75 232.27 Z M227.87 234.28 L229.04 234.43 L230.75 232.27 Z M227.87 234.28 L228.33 243.74 L229.04 234.43 Z M228.33 243.74 L228.19 239.61 L229.04 234.43 Z M228.33 243.74 L225.93 254.54 L228.19 239.61 Z M225.93 254.54 L226.20 246.98 L228.19 239.61 Z M225.93 254.54 L220.00 265.46 L226.20 246.98 Z M220.00 265.46 L221.87 257.81 L226.20 246.98 Z M221.87 257.81 L213.60 267.68 L223.07 248.85 Z M213.60 267.68 L216.17 260.99 L223.07 248.85 Z M213.60 267.68 L204.13 267.54 L216.17 260.99 Z M204.13 267.54 L204.83 268.81 L216.17 260.99 Z M204.13 267.54 L194.60 264.86 L204.83 268.81 Z M194.60 264.86 L191.46 270.56 L204.83 268.81 Z M194.60 264.86 L174.48 272.97 L191.46 270.56 Z M174.48 272.97 L175.38 270.41 L191.46 270.56 Z M174.48 272.97 L159.36 267.78 L175.38 270.41 Z M159.36 267.78 L166.21 260.30 L175.38 270.41 Z M159.36 267.78 L172.22 244.73 L166.21 260.30 Z M172.22 244.73 L177.64 240.50 L166.21 260.30 Z M172.22 244.73 L182.99 231.19 L177.64 240.50 Z M182.99 231.19 L178.54 231.52 L177.64 240.50 Z M182.99 231.19 L163.62 226.58 L178.54 231.52 Z M163.62 226.58 L160.18 226.18 L178.54 231.52 Z M163.62 226.58 L150.83 216.21 L160.18 226.18 Z M150.83 216.21 L150.83 216.21 L160.18 226.18 Z M148.64 204.06 L148.29 205.10 L150.83 216.21 Z M148.64 204.06 L157.69 195.09 L148.29 205.10 Z M157.69 195.09 L155.31 196.37 L148.29 205.10 Z M157.69 195.09 L173.72 192.40 L155.31 196.37 Z M173.72 192.40 L170.39 193.32 L155.31 196.37 Z M173.72 192.40 L188.73 193.97 L170.39 193.32 Z M188.73 193.97 L185.78 194.65 L170.39 193.32 Z M188.73 193.97 L199.00 196.03 L185.78 194.65 Z M199.00 196.03 L196.94 196.94 L185.78 194.65 Z M199.00 196.03 L205.80 197.33 L196.94 196.94 Z M205.80 197.33 L204.54 198.85 L196.94 196.94 Z M205.80 197.33 L210.95 198.32 L204.54 198.85 Z M210.95 198.32 L210.23 200.66 L204.54 198.85 Z M210.95 198.32 L214.00 193.89 L210.23 200.66 Z M214.00 193.89 L213.26 197.66 L210.23 200.66 Z M214.00 193.89 L218.11 181.90 L213.26 197.66 Z M218.11 181.90 L216.63 188.29 L213.26 197.66 Z M218.11 181.90 L225.05 182.39 L216.63 188.29 Z M225.05 182.39 L222.55 192.62 L216.63 188.29 Z M225.05 182.39 L226.18 201.50 L222.55 192.62 Z M226.18 201.50 L223.96 207.26 L222.55 192.62 Z M226.18 201.50 L255.24 157.76 L223.96 207.26 Z M255.24 157.76 L255.70 156.75 L223.96 207.26 Z M255.24 157.76 L308.11 117.47 L255.70 156.75 Z M308.11 117.47 L303.60 125.56 L255.70 156.75 Z M308.11 117.47 L344.51 121.88 L303.60 125.56 Z M344.51 121.88 L331.51 136.47 L303.60 125.56 Z M344.51 121.88 L324.43 165.94 L331.51 136.47 Z M324.43 165.94 L310.65 176.13 L331.51 136.47 Z M324.43 165.94 L261.84 207.35 L310.65 176.13 Z M261.84 207.35 L254.64 210.38 L310.65 176.13 Z M261.84 207.35 L266.63 214.56 L254.64 210.38 Z M266.63 214.56 L261.87 215.67 L254.64 210.38 Z M266.63 214.56 L284.13 223.51 L261.87 215.67 Z M284.13 223.51 L284.13 223.51 L261.87 215.67 Z M274.93 232.27 L280.54 232.58 L284.13 223.51 Z M274.93 232.27 L258.93 235.56 L280.54 232.58 Z M258.93 235.56 L267.14 237.22 L280.54 232.58 Z M258.93 235.56 L245.58 235.26 L267.14 237.22 Z M245.58 235.26 L254.29 238.45 L267.14 237.22 Z M245.58 235.26 L236.12 233.42 L254.29 238.45 Z M236.12 233.42 L244.42 238.09 L254.29 238.45 Z M236.12 233.42 L230.75 232.27 L244.42 238.09 Z M230.75 232.27 L237.11 237.11 L244.42 238.09 Z M230.75 232.27 L229.04 234.43 L237.11 237.11 Z M229.04 234.43 L231.91 236.29 L237.11 237.11 Z M229.04 234.43 L228.19 239.61 L231.91 236.29 Z M228.19 239.61 L228.49 236.81 L231.91 236.29 Z M228.19 239.61 L226.20 246.98 L228.49 236.81 Z M226.20 246.98 L226.08 240.14 L228.49 236.81 Z M226.20 246.98 L221.87 257.81 L226.08 240.14 Z M221.87 257.81 L223.07 248.85 L226.08 240.14 Z M223.07 248.85 L216.17 260.99 L224.20 243.82 Z M216.17 260.99 L218.27 254.80 L224.20 243.82 Z M216.17 260.99 L204.83 268.81 L218.27 254.80 Z M204.83 268.81 L206.51 265.43 L218.27 254.80 Z M204.83 268.81 L191.46 270.56 L206.51 265.43 Z M191.46 270.56 L190.16 270.89 L206.51 265.43 Z M191.46 270.56 L175.38 270.41 L190.16 270.89 Z M175.38 270.41 L174.18 268.04 L190.16 270.89 Z M175.38 270.41 L166.21 260.30 L174.18 268.04 Z M166.21 260.30 L169.05 254.61 L174.18 268.04 Z M166.21 260.30 L177.64 240.50 L169.05 254.61 Z M177.64 240.50 L179.36 237.49 L169.05 254.61 Z M177.64 240.50 L178.54 231.52 L179.36 237.49 Z M178.54 231.52 L173.32 231.28 L179.36 237.49 Z M178.54 231.52 L160.18 226.18 L173.32 231.28 Z M160.18 226.18 L156.91 225.36 L173.32 231.28 Z M160.18 226.18 L150.83 216.21 L156.91 225.36 Z M150.83 216.21 L150.83 216.21 L156.91 225.36 Z M148.29 205.10 L148.55 206.57 L150.83 216.21 Z M148.29 205.10 L155.31 196.37 L148.55 206.57 Z M155.31 196.37 L154.23 198.76 L148.55 206.57 Z M155.31 196.37 L170.39 193.32 L154.23 198.76 Z M170.39 193.32 L168.31 195.79 L154.23 198.76 Z M170.39 193.32 L185.78 194.65 L168.31 195.79 Z M185.78 194.65 L183.40 196.71 L168.31 195.79 Z M185.78 194.65 L196.94 196.94 L183.40 196.71 Z M196.94 196.94 L194.97 198.81 L183.40 196.71 Z M196.94 196.94 L204.54 198.85 L194.97 198.81 Z M204.54 198.85 L203.27 200.99 L194.97 198.81 Z M204.54 198.85 L210.23 200.66 L203.27 200.99 Z M210.23 200.66 L209.06 202.54 L203.27 200.99 Z M210.23 200.66 L213.26 197.66 L209.06 202.54 Z M213.26 197.66 L211.55 198.73 L209.06 202.54 Z M213.26 197.66 L216.63 188.29 L211.55 198.73 Z M216.63 188.29 L215.14 192.46 L211.55 198.73 Z M216.63 188.29 L222.55 192.62 L215.14 192.46 Z M222.55 192.62 L220.92 201.60 L215.14 192.46 Z M222.55 192.62 L223.96 207.26 L220.92 201.60 Z M223.96 207.26 L225.56 201.29 L220.92 201.60 Z M223.96 207.26 L255.70 156.75 L225.56 201.29 Z M255.70 156.75 L255.59 159.30 L225.56 201.29 Z M255.70 156.75 L303.60 125.56 L255.59 159.30 Z M303.60 125.56 L294.87 141.50 L255.59 159.30 Z M303.60 125.56 L331.51 136.47 L294.87 141.50 Z M331.51 136.47 L312.29 157.31 L294.87 141.50 Z M331.51 136.47 L310.65 176.13 L312.29 157.31 Z M310.65 176.13 L291.68 189.15 L312.29 157.31 Z M310.65 176.13 L254.64 210.38 L291.68 189.15 Z M254.64 210.38 L245.91 213.74 L291.68 189.15 Z M254.64 210.38 L261.87 215.67 L245.91 213.74 Z M261.87 215.67 L258.05 216.77 L245.91 213.74 Z M261.87 215.67 L284.13 223.51 L258.05 216.77 Z M284.13 223.51 L284.13 223.51 L258.05 216.77 Z M280.54 232.58 L286.21 232.45 L284.13 223.51 Z M280.54 232.58 L267.14 237.22 L286.21 232.45 Z M267.14 237.22 L275.35 237.87 L286.21 232.45 Z M267.14 237.22 L254.29 238.45 L275.35 237.87 Z M254.29 238.45 L262.45 239.89 L275.35 237.87 Z M254.29 238.45 L244.42 238.09 L262.45 239.89 Z M244.42 238.09 L251.62 240.12 L262.45 239.89 Z M244.42 238.09 L237.11 237.11 L251.62 240.12 Z M237.11 237.11 L242.66 239.18 L251.62 240.12 Z M237.11 237.11 L231.91 236.29 L242.66 239.18 Z M231.91 236.29 L235.20 237.28 L242.66 239.18 Z M231.91 236.29 L228.49 236.81 L235.20 237.28 Z M228.49 236.81 L229.84 235.71 L235.20 237.28 Z M228.49 236.81 L226.08 240.14 L229.84 235.71 Z M226.08 240.14 L226.79 237.08 L229.84 235.71 Z M226.08 240.14 L223.07 248.85 L226.79 237.08 Z M223.07 248.85 L224.20 243.82 L226.79 237.08 Z M224.20 243.82 L218.27 254.80 L225.93 241.78 Z M218.27 254.80 L220.05 249.98 L225.93 241.78 Z M218.27 254.80 L206.51 265.43 L220.05 249.98 Z M206.51 265.43 L208.41 259.16 L220.05 249.98 Z M206.51 265.43 L190.16 270.89 L208.41 259.16 Z M190.16 270.89 L191.15 264.67 L208.41 259.16 Z M190.16 270.89 L174.18 268.04 L191.15 264.67 Z M174.18 268.04 L175.08 261.06 L191.15 264.67 Z M174.18 268.04 L169.05 254.61 L175.08 261.06 Z M169.05 254.61 L171.89 247.78 L175.08 261.06 Z M169.05 254.61 L179.36 237.49 L171.89 247.78 Z M179.36 237.49 L179.86 234.36 L171.89 247.78 Z M179.36 237.49 L173.32 231.28 L179.86 234.36 Z M173.32 231.28 L168.45 230.04 L179.86 234.36 Z M173.32 231.28 L156.91 225.36 L168.45 230.04 Z M156.91 225.36 L154.02 224.08 L168.45 230.04 Z M156.91 225.36 L150.83 216.21 L154.02 224.08 Z M150.83 216.21 L150.83 216.21 L154.02 224.08 Z M148.55 206.57 L149.53 208.41 L150.83 216.21 Z M148.55 206.57 L154.23 198.76 L149.53 208.41 Z M154.23 198.76 L154.86 202.15 L149.53 208.41 Z M154.23 198.76 L168.31 195.79 L154.86 202.15 Z M168.31 195.79 L168.20 199.76 L154.86 202.15 Z M168.31 195.79 L183.40 196.71 L168.20 199.76 Z M183.40 196.71 L182.75 200.51 L168.20 199.76 Z M183.40 196.71 L194.97 198.81 L182.75 200.51 Z M194.97 198.81 L194.21 202.31 L182.75 200.51 Z M194.97 198.81 L203.27 200.99 L194.21 202.31 Z M203.27 200.99 L202.31 204.00 L194.21 202.31 Z M203.27 200.99 L209.06 202.54 L202.31 204.00 Z M209.06 202.54 L206.85 203.70 L202.31 204.00 Z M209.06 202.54 L211.55 198.73 L206.85 203.70 Z M211.55 198.73 L208.92 199.29 L206.85 203.70 Z M211.55 198.73 L215.14 192.46 L208.92 199.29 Z M215.14 192.46 L213.70 196.86 L208.92 199.29 Z M215.14 192.46 L220.92 201.60 L213.70 196.86 Z M220.92 201.60 L219.98 204.72 L213.70 196.86 Z M220.92 201.60 L225.56 201.29 L219.98 204.72 Z M225.56 201.29 L228.08 192.70 L219.98 204.72 Z M225.56 201.29 L255.59 159.30 L228.08 192.70 Z M255.59 159.30 L253.88 167.53 L228.08 192.70 Z M255.59 159.30 L294.87 141.50 L253.88 167.53 Z M294.87 141.50 L281.69 163.59 L253.88 167.53 Z M294.87 141.50 L312.29 157.31 L281.69 163.59 Z M312.29 157.31 L288.22 180.61 L281.69 163.59 Z M312.29 157.31 L291.68 189.15 L288.22 180.61 Z M291.68 189.15 L269.70 202.22 L288.22 180.61 Z M291.68 189.15 L245.91 213.74 L269.70 202.22 Z M245.91 213.74 L236.62 216.76 L269.70 202.22 Z M245.91 213.74 L258.05 216.77 L236.62 216.76 Z M258.05 216.77 L255.12 217.82 L236.62 216.76 Z M258.05 216.77 L284.13 223.51 L255.12 217.82 Z M284.13 223.51 L284.13 223.51 L255.12 217.82 Z M286.21 232.45 L291.84 231.81 L284.13 223.51 Z M286.21 232.45 L275.35 237.87 L291.84 231.81 Z M275.35 237.87 L283.55 237.42 L291.84 231.81 Z M275.35 237.87 L262.45 239.89 L283.55 237.42 Z M262.45 239.89 L270.16 239.60 L283.55 237.42 Z M262.45 239.89 L251.62 240.12 L270.16 239.60 Z M251.62 240.12 L257.76 239.76 L270.16 239.60 Z M251.62 240.12 L242.66 239.18 L257.76 239.76 Z M242.66 239.18 L247.18 238.64 L257.76 239.76 Z M242.66 239.18 L235.20 237.28 L247.18 238.64 Z M235.20 237.28 L238.44 236.69 L247.18 238.64 Z M235.20 237.28 L229.84 235.71 L238.44 236.69 Z M229.84 235.71 L232.32 235.27 L238.44 236.69 Z M229.84 235.71 L226.79 237.08 L232.32 235.27 Z M226.79 237.08 L228.89 236.61 L232.32 235.27 Z M226.79 237.08 L224.20 243.82 L228.89 236.61 Z M224.20 243.82 L225.93 241.78 L228.89 236.61 Z M225.93 241.78 L220.05 249.98 L228.20 239.45 Z M220.05 249.98 L221.78 245.09 L228.20 239.45 Z M220.05 249.98 L208.41 259.16 L221.78 245.09 Z M208.41 259.16 L210.22 250.84 L221.78 245.09 Z M208.41 259.16 L191.15 264.67 L210.22 250.84 Z M191.15 264.67 L193.88 253.51 L210.22 250.84 Z M191.15 264.67 L175.08 261.06 L193.88 253.51 Z M175.08 261.06 L179.52 249.36 L193.88 253.51 Z M175.08 261.06 L171.89 247.78 L179.52 249.36 Z M171.89 247.78 L177.69 238.82 L179.52 249.36 Z M171.89 247.78 L179.86 234.36 L177.69 238.82 Z M179.86 234.36 L181.24 230.36 L177.69 238.82 Z M179.86 234.36 L168.45 230.04 L181.24 230.36 Z M168.45 230.04 L164.58 227.67 L181.24 230.36 Z M168.45 230.04 L154.02 224.08 L164.58 227.67 Z M154.02 224.08 L151.69 222.38 L164.58 227.67 Z M154.02 224.08 L150.83 216.21 L151.69 222.38 Z M150.83 216.21 L150.83 216.21 L151.69 222.38 Z M149.53 208.41 L151.30 210.52 L150.83 216.21 Z M149.53 208.41 L154.86 202.15 L151.30 210.52 Z M154.86 202.15 L157.47 206.22 L151.30 210.52 Z M154.86 202.15 L168.20 199.76 L157.47 206.22 Z M168.20 199.76 L170.73 204.89 L157.47 206.22 Z M168.20 199.76 L182.75 200.51 L170.73 204.89 Z M182.75 200.51 L184.76 205.77 L170.73 204.89 Z M182.75 200.51 L194.21 202.31 L184.76 205.77 Z M194.21 202.31 L195.41 207.19 L184.76 205.77 Z M194.21 202.31 L202.31 204.00 L195.41 207.19 Z M202.31 204.00 L201.77 207.68 L195.41 207.19 Z M202.31 204.00 L206.85 203.70 L201.77 207.68 Z M206.85 203.70 L204.52 205.97 L201.77 207.68 Z M206.85 203.70 L208.92 199.29 L204.52 205.97 Z M208.92 199.29 L207.40 203.39 L204.52 205.97 Z M208.92 199.29 L213.70 196.86 L207.40 203.39 Z M213.70 196.86 L213.28 204.06 L207.40 203.39 Z M213.70 196.86 L219.98 204.72 L213.28 204.06 Z M219.98 204.72 L218.89 204.40 L213.28 204.06 Z M219.98 204.72 L228.08 192.70 L218.89 204.40 Z M228.08 192.70 L228.97 191.71 L218.89 204.40 Z M228.08 192.70 L253.88 167.53 L228.97 191.71 Z M253.88 167.53 L249.75 181.82 L228.97 191.71 Z M253.88 167.53 L281.69 163.59 L249.75 181.82 Z M281.69 163.59 L265.49 187.01 L249.75 181.82 Z M281.69 163.59 L288.22 180.61 L265.49 187.01 Z M288.22 180.61 L262.61 201.05 L265.49 187.01 Z M288.22 180.61 L269.70 202.22 L262.61 201.05 Z M269.70 202.22 L247.83 212.56 L262.61 201.05 Z M269.70 202.22 L236.62 216.76 L247.83 212.56 Z M236.62 216.76 L228.38 218.84 L247.83 212.56 Z M236.62 216.76 L255.12 217.82 L228.38 218.84 Z M255.12 217.82 L252.91 218.85 L228.38 218.84 Z M255.12 217.82 L284.13 223.51 L252.91 218.85 Z M284.13 223.51 L284.13 223.51 L252.91 218.85 Z M291.84 231.81 L297.24 230.66 L284.13 223.51 Z M291.84 231.81 L283.55 237.42 L297.24 230.66 Z M283.55 237.42 L291.74 235.81 L297.24 230.66 Z M283.55 237.42 L270.16 239.60 L291.74 235.81 Z M270.16 239.60 L277.80 237.73 L291.74 235.81 Z M270.16 239.60 L257.76 239.76 L277.80 237.73 Z M257.76 239.76 L263.52 237.58 L277.80 237.73 Z M257.76 239.76 L247.18 238.64 L263.52 237.58 Z M247.18 238.64 L251.34 236.33 L263.52 237.58 Z M247.18 238.64 L238.44 236.69 L251.34 236.33 Z M238.44 236.69 L241.74 234.69 L251.34 236.33 Z M238.44 236.69 L232.32 235.27 L241.74 234.69 Z M232.32 235.27 L235.35 233.91 L241.74 234.69 Z M232.32 235.27 L228.89 236.61 L235.35 233.91 Z M228.89 236.61 L231.68 235.41 L235.35 233.91 Z M228.89 236.61 L225.93 241.78 L231.68 235.41 Z M225.93 241.78 L228.20 239.45 L231.68 235.41 Z M228.20 239.45 L221.78 245.09 L230.90 235.35 Z M221.78 245.09 L223.61 238.89 L230.90 235.35 Z M221.78 245.09 L210.22 250.84 L223.61 238.89 Z M210.22 250.84 L211.74 240.88 L223.61 238.89 Z M210.22 250.84 L193.88 253.51 L211.74 240.88 Z M193.88 253.51 L197.73 240.04 L211.74 240.88 Z M193.88 253.51 L179.52 249.36 L197.73 240.04 Z M179.52 249.36 L187.28 235.83 L197.73 240.04 Z M179.52 249.36 L177.69 238.82 L187.28 235.83 Z M177.69 238.82 L187.07 229.36 L187.28 235.83 Z M177.69 238.82 L181.24 230.36 L187.07 229.36 Z M181.24 230.36 L183.60 225.88 L187.07 229.36 Z M181.24 230.36 L164.58 227.67 L183.60 225.88 Z M164.58 227.67 L161.88 224.30 L183.60 225.88 Z M164.58 227.67 L151.69 222.38 L161.88 224.30 Z M151.69 222.38 L150.01 220.33 L161.88 224.30 Z M151.69 222.38 L150.83 216.21 L150.01 220.33 Z M150.83 216.21 L150.83 216.21 L150.01 220.33 Z M151.30 210.52 L153.82 212.76 L150.83 216.21 Z M151.30 210.52 L157.47 206.22 L153.82 212.76 Z M157.47 206.22 L162.15 210.57 L153.82 212.76 Z M157.47 206.22 L170.73 204.89 L162.15 210.57 Z M170.73 204.89 L175.99 210.37 L162.15 210.57 Z M170.73 204.89 L184.76 205.77 L175.99 210.37 Z M184.76 205.77 L188.96 211.29 L175.99 210.37 Z M184.76 205.77 L195.41 207.19 L188.96 211.29 Z M195.41 207.19 L196.86 211.80 L188.96 211.29 Z M195.41 207.19 L201.77 207.68 L196.86 211.80 Z M201.77 207.68 L200.09 211.03 L196.86 211.80 Z M201.77 207.68 L204.52 205.97 L200.09 211.03 Z M204.52 205.97 L202.62 209.73 L200.09 211.03 Z M204.52 205.97 L207.40 203.39 L202.62 209.73 Z M207.40 203.39 L207.32 209.44 L202.62 209.73 Z M207.40 203.39 L213.28 204.06 L207.32 209.44 Z M213.28 204.06 L212.40 209.30 L207.32 209.44 Z M213.28 204.06 L218.89 204.40 L212.40 209.30 Z M218.89 204.40 L217.09 204.80 L212.40 209.30 Z M218.89 204.40 L228.97 191.71 L217.09 204.80 Z M228.97 191.71 L228.36 198.86 L217.09 204.80 Z M228.97 191.71 L249.75 181.82 L228.36 198.86 Z M249.75 181.82 L243.61 198.75 L228.36 198.86 Z M249.75 181.82 L265.49 187.01 L243.61 198.75 Z M265.49 187.01 L249.50 205.74 L243.61 198.75 Z M265.49 187.01 L262.61 201.05 L249.50 205.74 Z M262.61 201.05 L240.53 214.16 L249.50 205.74 Z M262.61 201.05 L247.83 212.56 L240.53 214.16 Z M247.83 212.56 L229.30 218.50 L240.53 214.16 Z M247.83 212.56 L228.38 218.84 L229.30 218.50 Z M228.38 218.84 L224.42 219.67 L229.30 218.50 Z M228.38 218.84 L252.91 218.85 L224.42 219.67 Z M252.91 218.85 L251.23 219.85 L224.42 219.67 Z M252.91 218.85 L284.13 223.51 L251.23 219.85 Z M284.13 223.51 L284.13 223.51 L251.23 219.85 Z M297.24 230.66 L302.20 229.00 L284.13 223.51 Z M297.24 230.66 L291.74 235.81 L302.20 229.00 Z M291.74 235.81 L299.78 233.00 L302.20 229.00 Z M291.74 235.81 L277.80 237.73 L299.78 233.00 Z M277.80 237.73 L285.59 234.35 L299.78 233.00 Z M277.80 237.73 L263.52 237.58 L285.59 234.35 Z M263.52 237.58 L269.42 233.87 L285.59 234.35 Z M263.52 237.58 L251.34 236.33 L269.42 233.87 Z M251.34 236.33 L255.51 232.59 L269.42 233.87 Z M251.34 236.33 L241.74 234.69 L255.51 232.59 Z M241.74 234.69 L244.92 231.24 L255.51 232.59 Z M241.74 234.69 L235.35 233.91 L244.92 231.24 Z M235.35 233.91 L238.17 230.73 L244.92 231.24 Z M235.35 233.91 L231.68 235.41 L238.17 230.73 Z M231.68 235.41 L234.56 232.13 L238.17 230.73 Z M231.68 235.41 L228.20 239.45 L234.56 232.13 Z M228.20 239.45 L230.90 235.35 L234.56 232.13 Z M230.90 235.35 L223.61 238.89 L234.33 228.90 Z M223.61 238.89 L225.47 230.00 L234.33 228.90 Z M223.61 238.89 L211.74 240.88 L225.47 230.00 Z M211.74 240.88 L213.08 229.31 L225.47 230.00 Z M211.74 240.88 L197.73 240.04 L213.08 229.31 Z M197.73 240.04 L202.49 227.12 L213.08 229.31 Z M197.73 240.04 L187.28 235.83 L202.49 227.12 Z M187.28 235.83 L197.57 224.45 L202.49 227.12 Z M187.28 235.83 L187.07 229.36 L197.57 224.45 Z M187.07 229.36 L198.56 222.20 L197.57 224.45 Z M187.07 229.36 L183.60 225.88 L198.56 222.20 Z M183.60 225.88 L185.31 221.56 L198.56 222.20 Z M183.60 225.88 L161.88 224.30 L185.31 221.56 Z M161.88 224.30 L160.27 220.25 L185.31 221.56 Z M161.88 224.30 L150.01 220.33 L160.27 220.25 Z M150.01 220.33 L149.02 218.04 L160.27 220.25 Z M150.01 220.33 L150.83 216.21 L149.02 218.04 Z M150.83 216.21 L150.83 216.21 L149.02 218.04 Z M153.82 212.76 L157.01 214.99 L150.83 216.21 Z M153.82 212.76 L162.15 210.57 L157.01 214.99 Z M162.15 210.57 L168.70 214.68 L157.01 214.99 Z M162.15 210.57 L175.99 210.37 L168.70 214.68 Z M175.99 210.37 L183.28 215.28 L168.70 214.68 Z M175.99 210.37 L188.96 211.29 L183.28 215.28 Z M188.96 211.29 L192.93 215.78 L183.28 215.28 Z M188.96 211.29 L196.86 211.80 L192.93 215.78 Z M196.86 211.80 L195.25 215.33 L192.93 215.78 Z M196.86 211.80 L200.09 211.03 L195.25 215.33 Z M200.09 211.03 L196.04 214.48 L195.25 215.33 Z M200.09 211.03 L202.62 209.73 L196.04 214.48 Z M202.62 209.73 L199.52 214.05 L196.04 214.48 Z M202.62 209.73 L207.32 209.44 L199.52 214.05 Z M207.32 209.44 L204.05 213.75 L199.52 214.05 Z M207.32 209.44 L212.40 209.30 L204.05 213.75 Z M212.40 209.30 L207.76 212.39 L204.05 213.75 Z M212.40 209.30 L217.09 204.80 L207.76 212.39 Z M217.09 204.80 L214.94 210.76 L207.76 212.39 Z M217.09 204.80 L228.36 198.86 L214.94 210.76 Z M228.36 198.86 L226.77 210.88 L214.94 210.76 Z M228.36 198.86 L243.61 198.75 L226.77 210.88 Z M243.61 198.75 L236.74 213.19 L226.77 210.88 Z M243.61 198.75 L249.50 205.74 L236.74 213.19 Z M249.50 205.74 L238.63 216.30 L236.74 213.19 Z M249.50 205.74 L240.53 214.16 L238.63 216.30 Z M240.53 214.16 L232.34 218.73 L238.63 216.30 Z M240.53 214.16 L229.30 218.50 L232.34 218.73 Z M229.30 218.50 L224.50 219.80 L232.34 218.73 Z M229.30 218.50 L224.42 219.67 L224.50 219.80 Z M224.42 219.67 L226.21 219.97 L224.50 219.80 Z M224.42 219.67 L251.23 219.85 L226.21 219.97 Z M251.23 219.85 L249.90 220.83 L226.21 219.97 Z M251.23 219.85 L284.13 223.51 L249.90 220.83 Z M284.13 223.51 L284.13 223.51 L249.90 220.83 Z M302.20 229.00 L306.47 226.88 L284.13 223.51 Z M302.20 229.00 L299.78 233.00 L306.47 226.88 Z M299.78 233.00 L307.23 229.04 L306.47 226.88 Z M299.78 233.00 L285.59 234.35 L307.23 229.04 Z M285.59 234.35 L293.08 229.40 L307.23 229.04 Z M285.59 234.35 L269.42 233.87 L293.08 229.40 Z M269.42 233.87 L274.84 228.56 L293.08 229.40 Z M269.42 233.87 L255.51 232.59 L274.84 228.56 Z M255.51 232.59 L258.72 227.30 L274.84 228.56 Z M255.51 232.59 L244.92 231.24 L258.72 227.30 Z M244.92 231.24 L246.89 226.19 L258.72 227.30 Z M244.92 231.24 L238.17 230.73 L246.89 226.19 Z M238.17 230.73 L240.43 225.93 L246.89 226.19 Z M238.17 230.73 L234.56 232.13 L240.43 225.93 Z M234.56 232.13 L238.02 227.06 L240.43 225.93 Z M234.56 232.13 L230.90 235.35 L238.02 227.06 Z M230.90 235.35 L234.33 228.90 L238.02 227.06 Z M234.33 228.90 L225.47 230.00 L238.12 218.73 Z M225.47 230.00 L226.79 217.95 L238.12 218.73 Z M225.47 230.00 L213.08 229.31 L226.79 217.95 Z M213.08 229.31 L214.45 217.65 L226.79 217.95 Z M213.08 229.31 L202.49 227.12 L214.45 217.65 Z M202.49 227.12 L208.21 218.04 L214.45 217.65 Z M202.49 227.12 L197.57 224.45 L208.21 218.04 Z M197.57 224.45 L209.10 218.75 L208.21 218.04 Z M197.57 224.45 L198.56 222.20 L209.10 218.75 Z M198.56 222.20 L207.37 218.84 L209.10 218.75 Z M198.56 222.20 L185.31 221.56 L207.37 218.84 Z M185.31 221.56 L184.89 217.26 L207.37 218.84 Z M185.31 221.56 L160.27 220.25 L184.89 217.26 Z M160.27 220.25 L159.67 215.86 L184.89 217.26 Z M160.27 220.25 L149.02 218.04 L159.67 215.86 Z M149.02 218.04 L148.68 215.64 L159.67 215.86 Z M149.02 218.04 L150.83 216.21 L148.68 215.64 Z M150.83 216.21 L150.83 216.21 L148.68 215.64 Z M157.01 214.99 L160.65 217.08 L150.83 216.21 Z M157.01 214.99 L168.70 214.68 L160.65 217.08 Z M168.70 214.68 L176.65 218.12 L160.65 217.08 Z M168.70 214.68 L183.28 215.28 L176.65 218.12 Z M183.28 215.28 L191.17 218.91 L176.65 218.12 Z M183.28 215.28 L192.93 215.78 L191.17 218.91 Z M192.93 215.78 L194.16 219.18 L191.17 218.91 Z M192.93 215.78 L195.25 215.33 L194.16 219.18 Z M195.25 215.33 L191.02 219.30 L194.16 219.18 Z M195.25 215.33 L196.04 214.48 L191.02 219.30 Z M196.04 214.48 L190.35 219.57 L191.02 219.30 Z M196.04 214.48 L199.52 214.05 L190.35 219.57 Z M199.52 214.05 L192.39 219.96 L190.35 219.57 Z M199.52 214.05 L204.05 213.75 L192.39 219.96 Z M204.05 213.75 L195.35 220.52 L192.39 219.96 Z M204.05 213.75 L207.76 212.39 L195.35 220.52 Z M207.76 212.39 L202.08 221.26 L195.35 220.52 Z M207.76 212.39 L214.94 210.76 L202.08 221.26 Z M214.94 210.76 L213.77 221.88 L202.08 221.26 Z M214.94 210.76 L226.77 210.88 L213.77 221.88 Z M226.77 210.88 L224.70 221.98 L213.77 221.88 Z M226.77 210.88 L236.74 213.19 L224.70 221.98 Z M236.74 213.19 L231.19 221.86 L224.70 221.98 Z M236.74 213.19 L238.63 216.30 L231.19 221.86 Z M238.63 216.30 L237.49 222.01 L231.19 221.86 Z M238.63 216.30 L232.34 218.73 L237.49 222.01 Z M232.34 218.73 L238.56 221.71 L237.49 222.01 Z M232.34 218.73 L224.50 219.80 L238.56 221.71 Z M224.50 219.80 L231.22 220.88 L238.56 221.71 Z M224.50 219.80 L226.21 219.97 L231.22 220.88 Z M226.21 219.97 L227.40 220.51 L231.22 220.88 Z M226.21 219.97 L249.90 220.83 L227.40 220.51 Z M249.90 220.83 L248.84 221.76 L227.40 220.51 Z M249.90 220.83 L284.13 223.51 L248.84 221.76 Z M284.13 223.51 L284.13 223.51 L248.84 221.76 Z M306.47 226.88 L309.78 224.41 L284.13 223.51 Z M306.47 226.88 L307.23 229.04 L309.78 224.41 Z M307.23 229.04 L313.32 224.06 L309.78 224.41 Z M307.23 229.04 L293.08 229.40 L313.32 224.06 Z M293.08 229.40 L299.03 222.99 L313.32 224.06 Z M293.08 229.40 L274.84 228.56 L299.03 222.99 Z M274.84 228.56 L278.13 221.83 L299.03 222.99 Z M274.84 228.56 L258.72 227.30 L278.13 221.83 Z M258.72 227.30 L259.39 220.95 L278.13 221.83 Z M258.72 227.30 L246.89 226.19 L259.39 220.95 Z M246.89 226.19 L247.64 220.41 L259.39 220.95 Z M246.89 226.19 L240.43 225.93 L247.64 220.41 Z M240.43 225.93 L244.21 220.03 L247.64 220.41 Z M240.43 225.93 L238.02 227.06 L244.21 220.03 Z M238.02 227.06 L243.43 219.51 L244.21 220.03 Z M238.02 227.06 L234.33 228.90 L243.43 219.51 Z M234.33 228.90 L238.12 218.73 L243.43 219.51 Z M238.12 218.73 L226.79 217.95 L240.30 205.38 Z M226.79 217.95 L226.77 205.82 L240.30 205.38 Z M226.79 217.95 L214.45 217.65 L226.77 205.82 Z M214.45 217.65 L215.93 209.90 L226.77 205.82 Z M214.45 217.65 L208.21 218.04 L215.93 209.90 Z M208.21 218.04 L214.41 215.73 L215.93 209.90 Z M208.21 218.04 L209.10 218.75 L214.41 215.73 Z M209.10 218.75 L216.48 218.47 L214.41 215.73 Z M209.10 218.75 L207.37 218.84 L216.48 218.47 Z M207.37 218.84 L205.07 215.70 L216.48 218.47 Z M207.37 218.84 L184.89 217.26 L205.07 215.70 Z M184.89 217.26 L182.93 212.53 L205.07 215.70 Z M184.89 217.26 L159.67 215.86 L182.93 212.53 Z M159.67 215.86 L160.17 211.55 L182.93 212.53 Z M159.67 215.86 L148.68 215.64 L160.17 211.55 Z M148.68 215.64 L148.91 213.29 L160.17 211.55 Z M148.68 215.64 L150.83 216.21 L148.91 213.29 Z M150.83 216.21 L150.83 216.21 L148.91 213.29 Z M160.65 217.08 L164.46 218.95 L150.83 216.21 Z M160.65 217.08 L176.65 218.12 L164.46 218.95 Z M176.65 218.12 L185.19 220.55 L164.46 218.95 Z M176.65 218.12 L191.17 218.91 L185.19 220.55 Z M191.17 218.91 L197.13 221.18 L185.19 220.55 Z M191.17 218.91 L194.16 219.18 L197.13 221.18 Z M194.16 219.18 L191.59 222.58 L197.13 221.18 Z M194.16 219.18 L191.02 219.30 L191.59 222.58 Z M191.02 219.30 L185.06 224.79 L191.59 222.58 Z M191.02 219.30 L190.35 219.57 L185.06 224.79 Z M190.35 219.57 L181.73 227.49 L185.06 224.79 Z M190.35 219.57 L192.39 219.96 L181.73 227.49 Z M192.39 219.96 L181.27 230.82 L181.73 227.49 Z M192.39 219.96 L195.35 220.52 L181.27 230.82 Z M195.35 220.52 L186.72 233.91 L181.27 230.82 Z M195.35 220.52 L202.08 221.26 L186.72 233.91 Z M202.08 221.26 L199.88 234.49 L186.72 233.91 Z M202.08 221.26 L213.77 221.88 L199.88 234.49 Z M213.77 221.88 L214.67 231.16 L199.88 234.49 Z M213.77 221.88 L224.70 221.98 L214.67 231.16 Z M224.70 221.98 L222.69 226.66 L214.67 231.16 Z M224.70 221.98 L231.19 221.86 L222.69 226.66 Z M231.19 221.86 L230.28 227.85 L222.69 226.66 Z M231.19 221.86 L237.49 222.01 L230.28 227.85 Z M237.49 222.01 L241.14 229.18 L230.28 227.85 Z M237.49 222.01 L238.56 221.71 L241.14 229.18 Z M238.56 221.71 L242.36 226.44 L241.14 229.18 Z M238.56 221.71 L231.22 220.88 L242.36 226.44 Z M231.22 220.88 L232.84 222.59 L242.36 226.44 Z M231.22 220.88 L227.40 220.51 L232.84 222.59 Z M227.40 220.51 L226.71 220.95 L232.84 222.59 Z M227.40 220.51 L248.84 221.76 L226.71 220.95 Z M248.84 221.76 L248.07 222.65 L226.71 220.95 Z M248.84 221.76 L284.13 223.51 L248.07 222.65 Z M284.13 223.51 L284.13 223.51 L248.07 222.65 Z M309.78 224.41 L311.85 221.73 L284.13 223.51 Z M309.78 224.41 L313.32 224.06 L311.85 221.73 Z M313.32 224.06 L317.11 218.45 L311.85 221.73 Z M313.32 224.06 L299.03 222.99 L317.11 218.45 Z M299.03 222.99 L302.00 215.76 L317.11 218.45 Z M299.03 222.99 L278.13 221.83 L302.00 215.76 Z M278.13 221.83 L278.49 214.68 L302.00 215.76 Z M278.13 221.83 L259.39 220.95 L278.49 214.68 Z M259.39 220.95 L259.47 214.59 L278.49 214.68 Z M259.39 220.95 L247.64 220.41 L259.47 214.59 Z M247.64 220.41 L252.21 213.69 L259.47 214.59 Z M247.64 220.41 L244.21 220.03 L252.21 213.69 Z M244.21 220.03 L251.95 211.07 L252.21 213.69 Z M244.21 220.03 L243.43 219.51 L251.95 211.07 Z M243.43 219.51 L249.33 207.74 L251.95 211.07 Z M243.43 219.51 L238.12 218.73 L249.33 207.74 Z M238.12 218.73 L240.30 205.38 L249.33 207.74 Z M240.30 205.38 L226.77 205.82 L239.42 193.38 Z M226.77 205.82 L225.31 198.75 L239.42 193.38 Z M226.77 205.82 L215.93 209.90 L225.31 198.75 Z M215.93 209.90 L217.50 209.38 L225.31 198.75 Z M215.93 209.90 L214.41 215.73 L217.50 209.38 Z M214.41 215.73 L216.68 215.61 L217.50 209.38 Z M214.41 215.73 L216.48 218.47 L216.68 215.61 Z M216.48 218.47 L208.58 211.58 L216.68 215.61 Z M216.48 218.47 L205.07 215.70 L208.58 211.58 Z M205.07 215.70 L198.48 209.77 L208.58 211.58 Z M205.07 215.70 L182.93 212.53 L198.48 209.77 Z M182.93 212.53 L181.55 207.70 L198.48 209.77 Z M182.93 212.53 L160.17 211.55 L181.55 207.70 Z M160.17 211.55 L161.82 207.72 L181.55 207.70 Z M160.17 211.55 L148.91 213.29 L161.82 207.72 Z M148.91 213.29 L149.56 211.09 L161.82 207.72 Z M148.91 213.29 L150.83 216.21 L149.56 211.09 Z M150.83 216.21 L150.83 216.21 L149.56 211.09 Z M164.46 218.95 L168.13 220.53 L150.83 216.21 Z M164.46 218.95 L185.19 220.55 L168.13 220.53 Z M185.19 220.55 L192.94 221.98 L168.13 220.53 Z M185.19 220.55 L197.13 221.18 L192.94 221.98 Z M197.13 221.18 L195.67 223.37 L192.94 221.98 Z M197.13 221.18 L191.59 222.58 L195.67 223.37 Z M191.59 222.58 L182.10 227.95 L195.67 223.37 Z M191.59 222.58 L185.06 224.79 L182.10 227.95 Z M185.06 224.79 L172.93 233.82 L182.10 227.95 Z M185.06 224.79 L181.73 227.49 L172.93 233.82 Z M181.73 227.49 L168.11 240.82 L172.93 233.82 Z M181.73 227.49 L181.27 230.82 L168.11 240.82 Z M181.27 230.82 L170.54 247.41 L168.11 240.82 Z M181.27 230.82 L186.72 233.91 L170.54 247.41 Z M186.72 233.91 L183.76 249.33 L170.54 247.41 Z M186.72 233.91 L199.88 234.49 L183.76 249.33 Z M199.88 234.49 L203.09 243.17 L183.76 249.33 Z M199.88 234.49 L214.67 231.16 L203.09 243.17 Z M214.67 231.16 L217.17 231.35 L203.09 243.17 Z M214.67 231.16 L222.69 226.66 L217.17 231.35 Z M222.69 226.66 L222.33 229.89 L217.17 231.35 Z M222.69 226.66 L230.28 227.85 L222.33 229.89 Z M230.28 227.85 L233.06 237.25 L222.33 229.89 Z M230.28 227.85 L241.14 229.18 L233.06 237.25 Z M241.14 229.18 L243.10 237.03 L233.06 237.25 Z M241.14 229.18 L242.36 226.44 L243.10 237.03 Z M242.36 226.44 L241.49 230.22 L243.10 237.03 Z M242.36 226.44 L232.84 222.59 L241.49 230.22 Z M232.84 222.59 L231.22 223.59 L241.49 230.22 Z M232.84 222.59 L226.71 220.95 L231.22 223.59 Z M226.71 220.95 L224.80 221.02 L231.22 223.59 Z M226.71 220.95 L248.07 222.65 L224.80 221.02 Z M248.07 222.65 L247.70 223.50 L224.80 221.02 Z M248.07 222.65 L284.13 223.51 L247.70 223.50 Z M284.13 223.51 L284.13 223.51 L247.70 223.50 Z M311.85 221.73 L312.40 219.04 L284.13 223.51 Z M311.85 221.73 L317.11 218.45 L312.40 219.04 Z M317.11 218.45 L317.71 212.83 L312.40 219.04 Z M317.11 218.45 L302.00 215.76 L317.71 212.83 Z M302.00 215.76 L301.47 208.73 L317.71 212.83 Z M302.00 215.76 L278.49 214.68 L301.47 208.73 Z M278.49 214.68 L278.92 207.65 L301.47 208.73 Z M278.49 214.68 L259.47 214.59 L278.92 207.65 Z M259.47 214.59 L266.45 206.36 L278.92 207.65 Z M259.47 214.59 L252.21 213.69 L266.45 206.36 Z M252.21 213.69 L263.19 202.67 L266.45 206.36 Z M252.21 213.69 L251.95 211.07 L263.19 202.67 Z M251.95 211.07 L259.47 198.12 L263.19 202.67 Z M251.95 211.07 L249.33 207.74 L259.47 198.12 Z M249.33 207.74 L251.90 194.18 L259.47 198.12 Z M249.33 207.74 L240.30 205.38 L251.90 194.18 Z M240.30 205.38 L239.42 193.38 L251.90 194.18 Z M239.42 193.38 L225.31 198.75 L236.14 186.71 Z M225.31 198.75 L223.12 199.50 L236.14 186.71 Z M225.31 198.75 L217.50 209.38 L223.12 199.50 Z M217.50 209.38 L218.57 212.41 L223.12 199.50 Z M217.50 209.38 L216.68 215.61 L218.57 212.41 Z M216.68 215.61 L212.02 205.81 L218.57 212.41 Z M216.68 215.61 L208.58 211.58 L212.02 205.81 Z M208.58 211.58 L202.68 202.67 L212.02 205.81 Z M208.58 211.58 L198.48 209.77 L202.68 202.67 Z M198.48 209.77 L194.99 203.91 L202.68 202.67 Z M198.48 209.77 L181.55 207.70 L194.99 203.91 Z M181.55 207.70 L182.30 203.89 L194.99 203.91 Z M181.55 207.70 L161.82 207.72 L182.30 203.89 Z M161.82 207.72 L164.46 204.71 L182.30 203.89 Z M161.82 207.72 L149.56 211.09 L164.46 204.71 Z M149.56 211.09 L150.42 209.13 L164.46 204.71 Z M149.56 211.09 L150.83 216.21 L150.42 209.13 Z M150.83 216.21 L150.83 216.21 L150.42 209.13 Z M168.13 220.53 L171.29 221.84 L150.83 216.21 Z M168.13 220.53 L192.94 221.98 L171.29 221.84 Z M192.94 221.98 L197.49 222.87 L171.29 221.84 Z M192.94 221.98 L195.67 223.37 L197.49 222.87 Z M195.67 223.37 L184.62 227.81 L197.49 222.87 Z M195.67 223.37 L182.10 227.95 L184.62 227.81 Z M182.10 227.95 L164.15 238.06 L184.62 227.81 Z M182.10 227.95 L172.93 233.82 L164.15 238.06 Z M172.93 233.82 L153.53 249.56 L164.15 238.06 Z M172.93 233.82 L168.11 240.82 L153.53 249.56 Z M168.11 240.82 L153.18 260.16 L153.53 249.56 Z M168.11 240.82 L170.54 247.41 L153.18 260.16 Z M170.54 247.41 L165.41 265.07 L153.18 260.16 Z M170.54 247.41 L183.76 249.33 L165.41 265.07 Z M183.76 249.33 L187.99 258.57 L165.41 265.07 Z M183.76 249.33 L203.09 243.17 L187.99 258.57 Z M203.09 243.17 L209.74 241.17 L187.99 258.57 Z M203.09 243.17 L217.17 231.35 L209.74 241.17 Z M217.17 231.35 L218.75 228.25 L209.74 241.17 Z M217.17 231.35 L222.33 229.89 L218.75 228.25 Z M222.33 229.89 L223.96 240.95 L218.75 228.25 Z M222.33 229.89 L233.06 237.25 L223.96 240.95 Z M233.06 237.25 L235.03 246.74 L223.96 240.95 Z M233.06 237.25 L243.10 237.03 L235.03 246.74 Z M243.10 237.03 L241.63 241.65 L235.03 246.74 Z M243.10 237.03 L241.49 230.22 L241.63 241.65 Z M241.49 230.22 L237.53 231.27 L241.63 241.65 Z M241.49 230.22 L231.22 223.59 L237.53 231.27 Z M231.22 223.59 L229.03 223.86 L237.53 231.27 Z M231.22 223.59 L224.80 221.02 L229.03 223.86 Z M224.80 221.02 L222.71 220.75 L229.03 223.86 Z M224.80 221.02 L247.70 223.50 L222.71 220.75 Z M247.70 223.50 L247.88 224.36 L222.71 220.75 Z M247.70 223.50 L284.13 223.51 L247.88 224.36 Z M284.13 223.51 L284.13 223.51 L247.88 224.36 Z M312.40 219.04 L311.31 216.56 L284.13 223.51 Z M312.40 219.04 L317.71 212.83 L311.31 216.56 Z M317.71 212.83 L314.73 207.90 L311.31 216.56 Z M317.71 212.83 L301.47 208.73 L314.73 207.90 Z M301.47 208.73 L298.93 202.58 L314.73 207.90 Z M301.47 208.73 L278.92 207.65 L298.93 202.58 Z M278.92 207.65 L285.73 198.75 L298.93 202.58 Z M278.92 207.65 L266.45 206.36 L285.73 198.75 Z M266.45 206.36 L281.81 192.51 L285.73 198.75 Z M266.45 206.36 L263.19 202.67 L281.81 192.51 Z M263.19 202.67 L273.44 187.88 L281.81 192.51 Z M263.19 202.67 L259.47 198.12 L273.44 187.88 Z M259.47 198.12 L261.58 185.67 L273.44 187.88 Z M259.47 198.12 L251.90 194.18 L261.58 185.67 Z M251.90 194.18 L250.34 183.44 L261.58 185.67 Z M251.90 194.18 L239.42 193.38 L250.34 183.44 Z M239.42 193.38 L236.14 186.71 L250.34 183.44 Z M236.14 186.71 L223.12 199.50 L231.42 187.47 Z M223.12 199.50 L221.17 207.04 L231.42 187.47 Z M223.12 199.50 L218.57 212.41 L221.17 207.04 Z M218.57 212.41 L217.28 204.82 L221.17 207.04 Z M218.57 212.41 L212.02 205.81 L217.28 204.82 Z M212.02 205.81 L208.59 196.01 L217.28 204.82 Z M212.02 205.81 L202.68 202.67 L208.59 196.01 Z M202.68 202.67 L200.94 196.94 L208.59 196.01 Z M202.68 202.67 L194.99 203.91 L200.94 196.94 Z M194.99 203.91 L195.63 200.93 L200.94 196.94 Z M194.99 203.91 L182.30 203.89 L195.63 200.93 Z M182.30 203.89 L185.24 201.95 L195.63 200.93 Z M182.30 203.89 L164.46 204.71 L185.24 201.95 Z M164.46 204.71 L167.52 202.62 L185.24 201.95 Z M164.46 204.71 L150.42 209.13 L167.52 202.62 Z M150.42 209.13 L151.27 207.46 L167.52 202.62 Z M150.42 209.13 L150.83 216.21 L151.27 207.46 Z M150.83 216.21 L150.83 216.21 L151.27 207.46 Z M171.29 221.84 L173.64 222.90 L150.83 216.21 Z M171.29 221.84 L197.49 222.87 L173.64 222.90 Z M197.49 222.87 L196.85 224.11 L173.64 222.90 Z M197.49 222.87 L184.62 227.81 L196.85 224.11 Z M184.62 227.81 L169.32 235.05 L196.85 224.11 Z M184.62 227.81 L164.15 238.06 L169.32 235.05 Z M164.15 238.06 L142.65 253.26 L169.32 235.05 Z M164.15 238.06 L153.53 249.56 L142.65 253.26 Z M153.53 249.56 L133.61 270.85 L142.65 253.26 Z M153.53 249.56 L153.18 260.16 L133.61 270.85 Z M153.18 260.16 L143.15 281.08 L133.61 270.85 Z M153.18 260.16 L165.41 265.07 L143.15 281.08 Z M165.41 265.07 L167.53 277.48 L143.15 281.08 Z M165.41 265.07 L187.99 258.57 L167.53 277.48 Z M187.99 258.57 L196.40 258.12 L167.53 277.48 Z M187.99 258.57 L209.74 241.17 L196.40 258.12 Z M209.74 241.17 L215.70 232.26 L196.40 258.12 Z M209.74 241.17 L218.75 228.25 L215.70 232.26 Z M218.75 228.25 L218.32 238.47 L215.70 232.26 Z M218.75 228.25 L223.96 240.95 L218.32 238.47 Z M223.96 240.95 L225.52 250.88 L218.32 238.47 Z M223.96 240.95 L235.03 246.74 L225.52 250.88 Z M235.03 246.74 L234.60 250.70 L225.52 250.88 Z M235.03 246.74 L241.63 241.65 L234.60 250.70 Z M241.63 241.65 L237.39 241.05 L234.60 250.70 Z M241.63 241.65 L237.53 231.27 L237.39 241.05 Z M237.53 231.27 L232.96 230.14 L237.39 241.05 Z M237.53 231.27 L229.03 223.86 L232.96 230.14 Z M229.03 223.86 L228.41 224.37 L232.96 230.14 Z M229.03 223.86 L222.71 220.75 L228.41 224.37 Z M222.71 220.75 L222.02 220.67 L228.41 224.37 Z M222.71 220.75 L247.88 224.36 L222.02 220.67 Z M247.88 224.36 L248.73 225.24 L222.02 220.67 Z M247.88 224.36 L284.13 223.51 L248.73 225.24 Z M284.13 223.51 L284.13 223.51 L248.73 225.24 Z M311.31 216.56 L308.53 214.46 L284.13 223.51 Z M311.31 216.56 L314.73 207.90 L308.53 214.46 Z M314.73 207.90 L308.44 204.31 L308.53 214.46 Z M314.73 207.90 L298.93 202.58 L308.44 204.31 Z M298.93 202.58 L297.94 196.85 L308.44 204.31 Z M298.93 202.58 L285.73 198.75 L297.94 196.85 Z M285.73 198.75 L300.95 185.19 L297.94 196.85 Z M285.73 198.75 L281.81 192.51 L300.95 185.19 Z M281.81 192.51 L297.97 174.11 L300.95 185.19 Z M281.81 192.51 L273.44 187.88 L297.97 174.11 Z M273.44 187.88 L277.44 174.34 L297.97 174.11 Z M273.44 187.88 L261.58 185.67 L277.44 174.34 Z M261.58 185.67 L258.87 177.41 L277.44 174.34 Z M261.58 185.67 L250.34 183.44 L258.87 177.41 Z M250.34 183.44 L246.46 177.24 L258.87 177.41 Z M250.34 183.44 L236.14 186.71 L246.46 177.24 Z M236.14 186.71 L231.42 187.47 L246.46 177.24 Z M231.42 187.47 L221.17 207.04 L226.01 197.07 Z M221.17 207.04 L220.46 209.15 L226.01 197.07 Z M221.17 207.04 L217.28 204.82 L220.46 209.15 Z M217.28 204.82 L215.40 195.11 L220.46 209.15 Z M217.28 204.82 L208.59 196.01 L215.40 195.11 Z M208.59 196.01 L207.69 191.85 L215.40 195.11 Z M208.59 196.01 L200.94 196.94 L207.69 191.85 Z M200.94 196.94 L202.72 196.56 L207.69 191.85 Z M200.94 196.94 L195.63 200.93 L202.72 196.56 Z M195.63 200.93 L198.89 201.25 L202.72 196.56 Z M195.63 200.93 L185.24 201.95 L198.89 201.25 Z M185.24 201.95 L188.92 201.59 L198.89 201.25 Z M185.24 201.95 L167.52 202.62 L188.92 201.59 Z M167.52 202.62 L170.09 201.18 L188.92 201.59 Z M167.52 202.62 L151.27 207.46 L170.09 201.18 Z M151.27 207.46 L151.90 206.08 L170.09 201.18 Z M151.27 207.46 L150.83 216.21 L151.90 206.08 Z M150.83 216.21 L150.83 216.21 L151.90 206.08 Z M173.64 222.90 L174.96 223.79 L150.83 216.21 Z M173.64 222.90 L196.85 224.11 L174.96 223.79 Z M196.85 224.11 L192.82 226.02 L174.96 223.79 Z M196.85 224.11 L169.32 235.05 L192.82 226.02 Z M169.32 235.05 L155.06 243.75 L192.82 226.02 Z M169.32 235.05 L142.65 253.26 L155.06 243.75 Z M142.65 253.26 L124.30 270.50 L155.06 243.75 Z M142.65 253.26 L133.61 270.85 L124.30 270.50 Z M133.61 270.85 L120.08 292.27 L124.30 270.50 Z M133.61 270.85 L143.15 281.08 L120.08 292.27 Z M143.15 281.08 L141.05 297.49 L120.08 292.27 Z M143.15 281.08 L167.53 277.48 L141.05 297.49 Z M167.53 277.48 L174.83 281.70 L141.05 297.49 Z M167.53 277.48 L196.40 258.12 L174.83 281.70 Z M196.40 258.12 L204.95 250.91 L174.83 281.70 Z M196.40 258.12 L215.70 232.26 L204.95 250.91 Z M215.70 232.26 L217.21 230.64 L204.95 250.91 Z M215.70 232.26 L218.32 238.47 L217.21 230.64 Z M218.32 238.47 L218.80 247.87 L217.21 230.64 Z M218.32 238.47 L225.52 250.88 L218.80 247.87 Z M225.52 250.88 L226.29 254.01 L218.80 247.87 Z M225.52 250.88 L234.60 250.70 L226.29 254.01 Z M234.60 250.70 L232.27 248.07 L226.29 254.01 Z M234.60 250.70 L237.39 241.05 L232.27 248.07 Z M237.39 241.05 L232.58 237.06 L232.27 248.07 Z M237.39 241.05 L232.96 230.14 L232.58 237.06 Z M232.96 230.14 L230.50 229.32 L232.58 237.06 Z M232.96 230.14 L228.41 224.37 L230.50 229.32 Z M228.41 224.37 L228.72 225.16 L230.50 229.32 Z M228.41 224.37 L222.02 220.67 L228.72 225.16 Z M222.02 220.67 L223.58 221.35 L228.72 225.16 Z M222.02 220.67 L248.73 225.24 L223.58 221.35 Z M248.73 225.24 L250.36 226.21 L223.58 221.35 Z M248.73 225.24 L284.13 223.51 L250.36 226.21 Z M284.13 223.51 L284.13 223.51 L250.36 226.21 Z M308.53 214.46 L304.23 212.91 L284.13 223.51 Z M308.53 214.46 L308.44 204.31 L304.23 212.91 Z M308.44 204.31 L299.93 202.30 L304.23 212.91 Z M308.44 204.31 L297.94 196.85 L299.93 202.30 Z M297.94 196.85 L301.87 190.06 L299.93 202.30 Z M297.94 196.85 L300.95 185.19 L301.87 190.06 Z M300.95 185.19 L319.52 167.49 L301.87 190.06 Z M300.95 185.19 L297.97 174.11 L319.52 167.49 Z M297.97 174.11 L309.13 155.53 L319.52 167.49 Z M297.97 174.11 L277.44 174.34 L309.13 155.53 Z M277.44 174.34 L275.78 165.25 L309.13 155.53 Z M277.44 174.34 L258.87 177.41 L275.78 165.25 Z M258.87 177.41 L254.22 173.25 L275.78 165.25 Z M258.87 177.41 L246.46 177.24 L254.22 173.25 Z M246.46 177.24 L240.54 177.81 L254.22 173.25 Z M246.46 177.24 L231.42 187.47 L240.54 177.81 Z M231.42 187.47 L226.01 197.07 L240.54 177.81 Z M226.01 197.07 L220.46 209.15 L221.80 210.78 Z M220.46 209.15 L220.02 199.08 L221.80 210.78 Z M220.46 209.15 L215.40 195.11 L220.02 199.08 Z M215.40 195.11 L214.19 191.18 L220.02 199.08 Z M215.40 195.11 L207.69 191.85 L214.19 191.18 Z M207.69 191.85 L208.87 193.91 L214.19 191.18 Z M207.69 191.85 L202.72 196.56 L208.87 193.91 Z M202.72 196.56 L205.74 199.48 L208.87 193.91 Z M202.72 196.56 L198.89 201.25 L205.74 199.48 Z M198.89 201.25 L201.74 202.51 L205.74 199.48 Z M198.89 201.25 L188.92 201.59 L201.74 202.51 Z M188.92 201.59 L191.03 201.33 L201.74 202.51 Z M188.92 201.59 L170.09 201.18 L191.03 201.33 Z M170.09 201.18 L171.21 199.93 L191.03 201.33 Z M170.09 201.18 L151.90 206.08 L171.21 199.93 Z M151.90 206.08 L152.12 204.96 L171.21 199.93 Z M151.90 206.08 L150.83 216.21 L152.12 204.96 Z M150.83 216.21 L150.83 216.21 L152.12 204.96 Z M174.96 223.79 L175.17 224.57 L150.83 216.21 Z M174.96 223.79 L192.82 226.02 L175.17 224.57 Z M192.82 226.02 L188.70 228.09 L175.17 224.57 Z M192.82 226.02 L155.06 243.75 L188.70 228.09 Z M155.06 243.75 L145.43 251.69 L188.70 228.09 Z M155.06 243.75 L124.30 270.50 L145.43 251.69 Z M124.30 270.50 L113.70 285.31 L145.43 251.69 Z M124.30 270.50 L120.08 292.27 L113.70 285.31 Z M120.08 292.27 L116.08 307.99 L113.70 285.31 Z M120.08 292.27 L141.05 297.49 L116.08 307.99 Z M141.05 297.49 L146.53 305.17 L116.08 307.99 Z M141.05 297.49 L174.83 281.70 L146.53 305.17 Z M174.83 281.70 L184.76 277.73 L146.53 305.17 Z M174.83 281.70 L204.95 250.91 L184.76 277.73 Z M204.95 250.91 L211.71 241.02 L184.76 277.73 Z M204.95 250.91 L217.21 230.64 L211.71 241.02 Z M217.21 230.64 L216.41 238.35 L211.71 241.02 Z M217.21 230.64 L218.80 247.87 L216.41 238.35 Z M218.80 247.87 L219.97 252.26 L216.41 238.35 Z M218.80 247.87 L226.29 254.01 L219.97 252.26 Z M226.29 254.01 L226.45 251.99 L219.97 252.26 Z M226.29 254.01 L232.27 248.07 L226.45 251.99 Z M232.27 248.07 L229.91 243.24 L226.45 251.99 Z M232.27 248.07 L232.58 237.06 L229.91 243.24 Z M232.58 237.06 L229.98 234.36 L229.91 243.24 Z M232.58 237.06 L230.50 229.32 L229.98 234.36 Z M230.50 229.32 L230.28 229.85 L229.98 234.36 Z M230.50 229.32 L228.72 225.16 L230.28 229.85 Z M228.72 225.16 L227.97 225.13 L230.28 229.85 Z M228.72 225.16 L223.58 221.35 L227.97 225.13 Z M223.58 221.35 L226.44 222.65 L227.97 225.13 Z M223.58 221.35 L250.36 226.21 L226.44 222.65 Z M250.36 226.21 L252.79 227.27 L226.44 222.65 Z M250.36 226.21 L284.13 223.51 L252.79 227.27 Z M284.13 223.51 L284.13 223.51 L252.79 227.27 Z M304.23 212.91 L298.68 211.99 L284.13 223.51 Z M304.23 212.91 L299.93 202.30 L298.68 211.99 Z M299.93 202.30 L290.77 201.71 L298.68 211.99 Z M299.93 202.30 L301.87 190.06 L290.77 201.71 Z M301.87 190.06 L310.61 181.48 L290.77 201.71 Z M301.87 190.06 L319.52 167.49 L310.61 181.48 Z M319.52 167.49 L335.74 148.88 L310.61 181.48 Z M319.52 167.49 L309.13 155.53 L335.74 148.88 Z M309.13 155.53 L314.08 140.35 L335.74 148.88 Z M309.13 155.53 L275.78 165.25 L314.08 140.35 Z M275.78 165.25 L271.40 160.40 L314.08 140.35 Z M275.78 165.25 L254.22 173.25 L271.40 160.40 Z M254.22 173.25 L247.87 174.34 L271.40 160.40 Z M254.22 173.25 L240.54 177.81 L247.87 174.34 Z M240.54 177.81 L232.57 188.11 L247.87 174.34 Z M240.54 177.81 L226.01 197.07 L232.57 188.11 Z M226.01 197.07 L221.80 210.78 L232.57 188.11 Z M221.80 210.78 L220.02 199.08 L222.27 203.88 Z M220.02 199.08 L218.91 191.89 L222.27 203.88 Z M220.02 199.08 L214.19 191.18 L218.91 191.89 Z M214.19 191.18 L213.87 192.87 L218.91 191.89 Z M214.19 191.18 L208.87 193.91 L213.87 192.87 Z M208.87 193.91 L210.41 197.93 L213.87 192.87 Z M208.87 193.91 L205.74 199.48 L210.41 197.93 Z M205.74 199.48 L206.95 200.92 L210.41 197.93 Z M205.74 199.48 L201.74 202.51 L206.95 200.92 Z M201.74 202.51 L201.46 201.61 L206.95 200.92 Z M201.74 202.51 L191.03 201.33 L201.46 201.61 Z M191.03 201.33 L190.07 199.82 L201.46 201.61 Z M191.03 201.33 L171.21 199.93 L190.07 199.82 Z M171.21 199.93 L170.43 198.53 L190.07 199.82 Z M171.21 199.93 L152.12 204.96 L170.43 198.53 Z M152.12 204.96 L151.88 204.11 L170.43 198.53 Z M152.12 204.96 L150.83 216.21 L151.88 204.11 Z M150.83 216.21 L150.83 216.21 L151.88 204.11 Z M175.17 224.57 L174.33 225.26 L150.83 216.21 Z M175.17 224.57 L188.70 228.09 L174.33 225.26 Z M188.70 228.09 L186.28 229.69 L174.33 225.26 Z M188.70 228.09 L145.43 251.69 L186.28 229.69 Z M145.43 251.69 L142.16 256.84 L186.28 229.69 Z M145.43 251.69 L113.70 285.31 L142.16 256.84 Z M113.70 285.31 L112.41 294.00 L142.16 256.84 Z M113.70 285.31 L116.08 307.99 L112.41 294.00 Z M116.08 307.99 L121.57 314.08 L112.41 294.00 Z M116.08 307.99 L146.53 305.17 L121.57 314.08 Z M146.53 305.17 L158.13 302.01 L121.57 314.08 Z M146.53 305.17 L184.76 277.73 L158.13 302.01 Z M184.76 277.73 L196.01 265.90 L158.13 302.01 Z M184.76 277.73 L211.71 241.02 L196.01 265.90 Z M211.71 241.02 L215.55 233.76 L196.01 265.90 Z M211.71 241.02 L216.41 238.35 L215.55 233.76 Z M216.41 238.35 L216.13 247.53 L215.55 233.76 Z M216.41 238.35 L219.97 252.26 L216.13 247.53 Z M219.97 252.26 L221.37 255.05 L216.13 247.53 Z M219.97 252.26 L226.45 251.99 L221.37 255.05 Z M226.45 251.99 L226.86 250.35 L221.37 255.05 Z M226.45 251.99 L229.91 243.24 L226.86 250.35 Z M229.91 243.24 L229.21 241.20 L226.86 250.35 Z M229.91 243.24 L229.98 234.36 L229.21 241.20 Z M229.98 234.36 L229.66 234.12 L229.21 241.20 Z M229.98 234.36 L230.28 229.85 L229.66 234.12 Z M230.28 229.85 L229.49 229.41 L229.66 234.12 Z M230.28 229.85 L227.97 225.13 L229.49 229.41 Z M227.97 225.13 L225.27 223.55 L229.49 229.41 Z M227.97 225.13 L226.44 222.65 L225.27 223.55 Z M226.44 222.65 L230.71 224.64 L225.27 223.55 Z M226.44 222.65 L252.79 227.27 L230.71 224.64 Z M252.79 227.27 L256.02 228.40 L230.71 224.64 Z M252.79 227.27 L284.13 223.51 L256.02 228.40 Z M284.13 223.51 L284.13 223.51 L256.02 228.40 Z M298.68 211.99 L292.27 211.68 L284.13 223.51 Z M298.68 211.99 L290.77 201.71 L292.27 211.68 Z M290.77 201.71 L282.62 202.01 L292.27 211.68 Z M290.77 201.71 L310.61 181.48 L282.62 202.01 Z M310.61 181.48 L320.87 172.26 L282.62 202.01 Z M310.61 181.48 L335.74 148.88 L320.87 172.26 Z M335.74 148.88 L346.83 132.77 L320.87 172.26 Z M335.74 148.88 L314.08 140.35 L346.83 132.77 Z M314.08 140.35 L314.47 129.71 L346.83 132.77 Z M314.08 140.35 L271.40 160.40 L314.47 129.71 Z M271.40 160.40 L265.93 159.11 L314.47 129.71 Z M271.40 160.40 L247.87 174.34 L265.93 159.11 Z M247.87 174.34 L239.19 183.29 L265.93 159.11 Z M247.87 174.34 L232.57 188.11 L239.19 183.29 Z M232.57 188.11 L224.44 206.31 L239.19 183.29 Z M232.57 188.11 L221.80 210.78 L224.44 206.31 Z M221.80 210.78 L222.27 203.88 L224.44 206.31 Z M222.27 203.88 L218.91 191.89 L222.75 190.22 Z M218.91 191.89 L217.56 189.30 L222.75 190.22 Z M218.91 191.89 L213.87 192.87 L217.56 189.30 Z M213.87 192.87 L213.76 195.84 L217.56 189.30 Z M213.87 192.87 L210.41 197.93 L213.76 195.84 Z M210.41 197.93 L210.42 199.09 L213.76 195.84 Z M210.41 197.93 L206.95 200.92 L210.42 199.09 Z M206.95 200.92 L205.47 199.13 L210.42 199.09 Z M206.95 200.92 L201.46 201.61 L205.47 199.13 Z M201.46 201.61 L198.55 198.73 L205.47 199.13 Z M201.46 201.61 L190.07 199.82 L198.55 198.73 Z M190.07 199.82 L186.63 197.22 L198.55 198.73 Z M190.07 199.82 L170.43 198.53 L186.63 197.22 Z M170.43 198.53 L167.98 196.99 L186.63 197.22 Z M170.43 198.53 L151.88 204.11 L167.98 196.99 Z M151.88 204.11 L151.24 203.55 L167.98 196.99 Z M151.88 204.11 L150.83 216.21 L151.24 203.55 Z M150.83 216.21 L150.83 216.21 L151.24 203.55 Z M174.33 225.26 L172.56 225.86 L150.83 216.21 Z M174.33 225.26 L186.28 229.69 L172.56 225.86 Z M186.28 229.69 L185.73 230.53 L172.56 225.86 Z M186.28 229.69 L142.16 256.84 L185.73 230.53 Z M142.16 256.84 L145.21 258.02 L185.73 230.53 Z M142.16 256.84 L112.41 294.00 L145.21 258.02 Z M112.41 294.00 L119.52 294.85 L145.21 258.02 Z M112.41 294.00 L121.57 314.08 L119.52 294.85 Z M121.57 314.08 L134.58 309.44 L119.52 294.85 Z M121.57 314.08 L158.13 302.01 L134.58 309.44 Z M158.13 302.01 L173.60 288.50 L134.58 309.44 Z M158.13 302.01 L196.01 265.90 L173.60 288.50 Z M196.01 265.90 L206.44 249.70 L173.60 288.50 Z M196.01 265.90 L215.55 233.76 L206.44 249.70 Z M215.55 233.76 L213.72 243.51 L206.44 249.70 Z M215.55 233.76 L216.13 247.53 L213.72 243.51 Z M216.13 247.53 L216.50 257.98 L213.72 243.51 Z M216.13 247.53 L221.37 255.05 L216.50 257.98 Z M221.37 255.05 L223.05 258.35 L216.50 257.98 Z M221.37 255.05 L226.86 250.35 L223.05 258.35 Z M226.86 250.35 L227.77 250.08 L223.05 258.35 Z M226.86 250.35 L229.21 241.20 L227.77 250.08 Z M229.21 241.20 L229.24 240.18 L227.77 250.08 Z M229.21 241.20 L229.66 234.12 L229.24 240.18 Z M229.66 234.12 L228.64 232.41 L229.24 240.18 Z M229.66 234.12 L229.49 229.41 L228.64 232.41 Z M229.49 229.41 L226.27 226.23 L228.64 232.41 Z M229.49 229.41 L225.27 223.55 L226.27 226.23 Z M225.27 223.55 L222.85 221.95 L226.27 226.23 Z M225.27 223.55 L230.71 224.64 L222.85 221.95 Z M230.71 224.64 L236.39 227.25 L222.85 221.95 Z M230.71 224.64 L256.02 228.40 L236.39 227.25 Z M256.02 228.40 L259.96 229.56 L236.39 227.25 Z M256.02 228.40 L284.13 223.51 L259.96 229.56 Z M284.13 223.51 L284.13 223.51 L259.96 229.56 Z M292.27 211.68 L285.45 211.91 L284.13 223.51 Z M292.27 211.68 L282.62 202.01 L285.45 211.91 Z M282.62 202.01 L276.37 202.69 L285.45 211.91 Z M282.62 202.01 L320.87 172.26 L276.37 202.69 Z M320.87 172.26 L329.20 164.49 L276.37 202.69 Z M320.87 172.26 L346.83 132.77 L329.20 164.49 Z M346.83 132.77 L352.64 121.20 L329.20 164.49 Z M346.83 132.77 L314.47 129.71 L352.64 121.20 Z M314.47 129.71 L312.78 122.86 L352.64 121.20 Z M314.47 129.71 L265.93 159.11 L312.78 122.86 Z M265.93 159.11 L260.13 160.74 L312.78 122.86 Z M265.93 159.11 L239.19 183.29 L260.13 160.74 Z M239.19 183.29 L229.59 199.01 L260.13 160.74 Z M239.19 183.29 L224.44 206.31 L229.59 199.01 Z M224.44 206.31 L223.04 208.60 L229.59 199.01 Z M224.44 206.31 L222.27 203.88 L223.04 208.60 Z M222.27 203.88 L222.75 190.22 L223.04 208.60 Z M222.75 190.22 L217.56 189.30 L221.81 180.89 Z M217.56 189.30 L216.19 189.01 L221.81 180.89 Z M217.56 189.30 L213.76 195.84 L216.19 189.01 Z M213.76 195.84 L213.12 197.02 L216.19 189.01 Z M213.76 195.84 L210.42 199.09 L213.12 197.02 Z M210.42 199.09 L208.98 197.80 L213.12 197.02 Z M210.42 199.09 L205.47 199.13 L208.98 197.80 Z M205.47 199.13 L203.06 196.84 L208.98 197.80 Z M205.47 199.13 L198.55 198.73 L203.06 196.84 Z M198.55 198.73 L195.03 195.97 L203.06 196.84 Z M198.55 198.73 L186.63 197.22 L195.03 195.97 Z M186.63 197.22 L182.19 194.62 L195.03 195.97 Z M186.63 197.22 L167.98 196.99 L182.19 194.62 Z M167.98 196.99 L164.57 195.65 L182.19 194.62 Z M167.98 196.99 L151.24 203.55 L164.57 195.65 Z M151.24 203.55 L150.34 203.32 L164.57 195.65 Z M151.24 203.55 L150.83 216.21 L150.34 203.32 Z M150.83 216.21 L150.83 216.21 L150.34 203.32 Z M172.56 225.86 L170.05 226.34 L150.83 216.21 Z M172.56 225.86 L185.73 230.53 L170.05 226.34 Z M185.73 230.53 L186.04 230.75 L170.05 226.34 Z M185.73 230.53 L145.21 258.02 L186.04 230.75 Z M145.21 258.02 L153.07 255.38 L186.04 230.75 Z M145.21 258.02 L119.52 294.85 L153.07 255.38 Z M119.52 294.85 L132.41 288.57 L153.07 255.38 Z M119.52 294.85 L134.58 309.44 L132.41 288.57 Z M134.58 309.44 L151.35 296.61 L132.41 288.57 Z M134.58 309.44 L173.60 288.50 L151.35 296.61 Z M173.60 288.50 L188.43 270.70 L151.35 296.61 Z M173.60 288.50 L206.44 249.70 L188.43 270.70 Z M206.44 249.70 L209.38 246.20 L188.43 270.70 Z M206.44 249.70 L213.72 243.51 L209.38 246.20 Z M213.72 243.51 L211.30 259.79 L209.38 246.20 Z M213.72 243.51 L216.50 257.98 L211.30 259.79 Z M216.50 257.98 L217.89 265.65 L211.30 259.79 Z M216.50 257.98 L223.05 258.35 L217.89 265.65 Z M223.05 258.35 L224.78 258.92 L217.89 265.65 Z M223.05 258.35 L227.77 250.08 L224.78 258.92 Z M227.77 250.08 L228.36 247.91 L224.78 258.92 Z M227.77 250.08 L229.24 240.18 L228.36 247.91 Z M229.24 240.18 L228.53 237.20 L228.36 247.91 Z M229.24 240.18 L228.64 232.41 L228.53 237.20 Z M228.64 232.41 L225.99 228.19 L228.53 237.20 Z M228.64 232.41 L226.27 226.23 L225.99 228.19 Z M226.27 226.23 L220.74 220.71 L225.99 228.19 Z M226.27 226.23 L222.85 221.95 L220.74 220.71 Z M222.85 221.95 L228.47 225.68 L220.74 220.71 Z M222.85 221.95 L236.39 227.25 L228.47 225.68 Z M236.39 227.25 L243.23 230.21 L228.47 225.68 Z M236.39 227.25 L259.96 229.56 L243.23 230.21 Z M259.96 229.56 L264.51 230.66 L243.23 230.21 Z M259.96 229.56 L284.13 223.51 L264.51 230.66 Z M284.13 223.51 L284.13 223.51 L264.51 230.66 Z M285.45 211.91 L278.67 212.57 L284.13 223.51 Z M285.45 211.91 L276.37 202.69 L278.67 212.57 Z M276.37 202.69 L271.69 203.63 L278.67 212.57 Z M276.37 202.69 L329.20 164.49 L271.69 203.63 Z M329.20 164.49 L333.33 160.10 L271.69 203.63 Z M329.20 164.49 L352.64 121.20 L333.33 160.10 Z M352.64 121.20 L354.11 115.01 L333.33 160.10 Z M352.64 121.20 L312.78 122.86 L354.11 115.01 Z M312.78 122.86 L311.07 118.39 L354.11 115.01 Z M312.78 122.86 L260.13 160.74 L311.07 118.39 Z M260.13 160.74 L255.97 162.24 L311.07 118.39 Z M260.13 160.74 L229.59 199.01 L255.97 162.24 Z M229.59 199.01 L224.42 209.12 L255.97 162.24 Z M229.59 199.01 L223.04 208.60 L224.42 209.12 Z M223.04 208.60 L226.50 190.26 L224.42 209.12 Z M223.04 208.60 L222.75 190.22 L226.50 190.26 Z M222.75 190.22 L221.81 180.89 L226.50 190.26 Z M221.81 180.89 L216.19 189.01 L220.00 177.99 Z M216.19 189.01 L214.92 190.40 L220.00 177.99 Z M216.19 189.01 L213.12 197.02 L214.92 190.40 Z M213.12 197.02 L211.98 197.17 L214.92 190.40 Z M213.12 197.02 L208.98 197.80 L211.98 197.17 Z M208.98 197.80 L207.25 196.85 L211.98 197.17 Z M208.98 197.80 L203.06 196.84 L207.25 196.85 Z M203.06 196.84 L200.92 195.83 L207.25 196.85 Z M203.06 196.84 L195.03 195.97 L200.92 195.83 Z M195.03 195.97 L191.79 194.39 L200.92 195.83 Z M195.03 195.97 L182.19 194.62 L191.79 194.39 Z M182.19 194.62 L177.75 192.89 L191.79 194.39 Z M182.19 194.62 L164.57 195.65 L177.75 192.89 Z M164.57 195.65 L160.94 194.91 L177.75 192.89 Z M164.57 195.65 L150.34 203.32 L160.94 194.91 Z M150.34 203.32 L149.39 203.48 L160.94 194.91 Z M150.34 203.32 L150.83 216.21 L149.39 203.48 Z M150.83 216.21 L150.83 216.21 L149.39 203.48 Z M170.05 226.34 L166.99 226.60 L150.83 216.21 Z M170.05 226.34 L186.04 230.75 L166.99 226.60 Z M186.04 230.75 L185.54 230.86 L166.99 226.60 Z M186.04 230.75 L153.07 255.38 L185.54 230.86 Z M153.07 255.38 L163.15 250.26 L185.54 230.86 Z M153.07 255.38 L132.41 288.57 L163.15 250.26 Z M132.41 288.57 L147.16 278.15 L163.15 250.26 Z M132.41 288.57 L151.35 296.61 L147.16 278.15 Z M151.35 296.61 L166.39 282.01 L147.16 278.15 Z M151.35 296.61 L188.43 270.70 L166.39 282.01 Z M188.43 270.70 L195.86 261.18 L166.39 282.01 Z M188.43 270.70 L209.38 246.20 L195.86 261.18 Z M209.38 246.20 L205.82 258.83 L195.86 261.18 Z M209.38 246.20 L211.30 259.79 L205.82 258.83 Z M211.30 259.79 L211.43 268.96 L205.82 258.83 Z M211.30 259.79 L217.89 265.65 L211.43 268.96 Z M217.89 265.65 L220.00 265.46 L211.43 268.96 Z M217.89 265.65 L224.78 258.92 L220.00 265.46 Z M224.78 258.92 L225.93 254.54 L220.00 265.46 Z M224.78 258.92 L228.36 247.91 L225.93 254.54 Z M228.36 247.91 L228.33 243.74 L225.93 254.54 Z M228.36 247.91 L228.53 237.20 L228.33 243.74 Z M228.53 237.20 L227.87 234.28 L228.33 243.74 Z M228.53 237.20 L225.99 228.19 L227.87 234.28 Z M225.99 228.19 L225.53 227.00 L227.87 234.28 Z M225.99 228.19 L220.74 220.71 L225.53 227.00 Z M220.74 220.71 L227.48 226.79 L225.53 227.00 Z M220.74 220.71 L228.47 225.68 L227.48 226.79 Z M228.47 225.68 L236.71 230.73 L227.48 226.79 Z M228.47 225.68 L243.23 230.21 L236.71 230.73 Z M243.23 230.21 L250.87 233.12 L236.71 230.73 Z M243.23 230.21 L264.51 230.66 L250.87 233.12 Z M264.51 230.66 L269.54 231.59 L250.87 233.12 Z M264.51 230.66 L284.13 223.51 L269.54 231.59 Z M284.13 223.51 L284.13 223.51 L269.54 231.59 Z M278.67 212.57 L272.29 213.49 L284.13 223.51 Z M278.67 212.57 L271.69 203.63 L272.29 213.49 Z M271.69 203.63 L267.30 205.09 L272.29 213.49 Z M271.69 203.63 L333.33 160.10 L267.30 205.09 Z M333.33 160.10 L331.98 160.41 L267.30 205.09 Z M333.33 160.10 L354.11 115.01 L331.98 160.41 Z M354.11 115.01 L351.65 114.91 L331.98 160.41 Z M354.11 115.01 L311.07 118.39 L351.65 114.91 Z M311.07 118.39 L309.92 115.98 L351.65 114.91 Z M311.07 118.39 L255.97 162.24 L309.92 115.98 Z M255.97 162.24 L254.81 160.60 L309.92 115.98 Z M255.97 162.24 L224.42 209.12 L254.81 160.60 Z M224.42 209.12 L226.65 201.79 L254.81 160.60 Z M224.42 209.12 L226.50 190.26 L226.65 201.79 Z M226.50 190.26 L226.97 180.19 L226.65 201.79 Z M226.50 190.26 L221.81 180.89 L226.97 180.19 Z M221.81 180.89 L220.00 177.99 L226.97 180.19 Z "></path></svg>