<svg xmlns="http://www.w3.org/2000/svg" id="svg1" width="440" height="440" font-family="Times" font-size="14" oncopy="svg_copy(this);">
      <g id="gt" transform="translate(0,20)">
      </g>
   <path id="Xp" stroke="red" stroke-width="0.875" stroke-dasharray="1,0" fill="none" d="M220.00 220.00 L6704.27 764.65 Z "></path><path id="Xn" stroke="red" stroke-width="0.875" stroke-dasharray="2,4" fill="none" d="M220.00 220.00 L-6264.27 -324.65 Z "></path><path id="Yp" stroke="green" stroke-width="0.875" stroke-dasharray="1,0" fill="none" d="M220.00 220.00 L220.00 -6679.67 Z "></path><path id="Yn" stroke="green" stroke-width="0.875" stroke-dasharray="2,4" fill="none" d="M220.00 220.00 L220.00 7119.67 Z "></path><path id="Zp" stroke="blue" stroke-width="0.875" stroke-dasharray="1,0" fill="none" d="M220.00 220.00 L-2521.51 1508.23 Z "></path><path id="Zn" stroke="blue" stroke-width="0.875" stroke-dasharray="2,4" fill="none" d="M220.00 220.00 L2961.51 -1068.23 Z "></path><circle id="O" fill="black" stroke-width="1" stroke="none" r="4" cx="220" cy="220"><title>[0,0,0]</title></circle><circle id="lambda_0" fill="#FFAA33" stroke-width="1" stroke="none" r="4" cx="346.27261458835346" cy="230.60640032221363"><title>λ/2=0.0195</title></circle><path id="B11" stroke="black" stroke-width="0.5" stroke-dasharray="1,0" fill="none" d="M147.11 318.67 L40.34 368.84 L40.34 100.12 L147.11 49.95 Z M399.66 339.88 L292.89 390.05 L292.89 121.33 L399.66 71.16 Z M147.11 318.67 L399.66 339.88 Z M40.34 368.84 L292.89 390.05 Z M40.34 100.12 L292.89 121.33 Z M147.11 49.95 L399.66 71.16 Z Z "></path><path id="B1" stroke="black" stroke-width="0.5" stroke-dasharray="2,4" fill="none" d="M231.30 325.74 L124.52 375.91 L124.52 107.19 L231.30 57.02 Z M315.48 332.81 L208.70 382.98 L208.70 114.26 L315.48 64.09 Z M147.11 229.09 L40.34 279.27 L292.89 300.48 L399.66 250.31 Z M147.11 139.52 L40.34 189.69 L292.89 210.91 L399.66 160.73 Z M111.52 335.39 L111.52 66.67 L364.07 87.88 L364.07 356.61 Z M75.93 352.12 L75.93 83.39 L328.48 104.61 L328.48 373.33 Z "></path><path id="C1" stroke="green" stroke-width="1" stroke-dasharray="1,2" fill="none" d="M302.61 232.79 L302.60 230.99 L302.56 229.20 L302.50 227.40 L302.41 225.59 L302.30 223.79 L302.16 221.99 L302.00 220.18 L301.81 218.38 L301.59 216.57 L301.36 214.77 L301.09 212.97 L300.81 211.17 L300.49 209.37 L300.16 207.58 L299.80 205.79 L299.41 204.00 L299.00 202.22 L298.57 200.44 L298.11 198.68 L297.63 196.91 L297.12 195.16 L296.60 193.41 L296.04 191.67 L295.47 189.94 L294.87 188.21 L294.25 186.50 L293.61 184.80 L292.94 183.11 L292.25 181.43 L291.54 179.76 L290.81 178.10 L290.06 176.46 L289.28 174.83 L288.49 173.21 L287.67 171.61 L286.83 170.02 L285.98 168.45 L285.10 166.89 L284.20 165.35 L283.28 163.82 L282.35 162.32 L281.39 160.83 L280.42 159.36 L279.43 157.90 L278.42 156.47 L277.39 155.05 L276.34 153.66 L275.28 152.28 L274.20 150.93 L273.10 149.60 L271.99 148.29 L270.86 147.00 L269.72 145.73 L268.56 144.48 L267.38 143.26 L266.20 142.06 L264.99 140.89 L263.78 139.74 L262.55 138.61 L261.31 137.51 L260.05 136.43 L258.78 135.38 L257.50 134.36 L256.21 133.36 L254.91 132.39 L253.60 131.44 L252.28 130.52 L250.95 129.63 L249.61 128.77 L248.25 127.93 L246.90 127.12 L245.53 126.34 L244.15 125.59 L242.77 124.87 L241.38 124.17 L239.99 123.51 L238.58 122.88 L237.18 122.27 L235.76 121.69 L234.35 121.15 L232.92 120.63 L231.50 120.15 L230.07 119.69 L228.64 119.27 L227.20 118.87 L225.76 118.51 L224.32 118.18 L222.88 117.88 L221.44 117.61 L220.00 117.37 L218.56 117.16 L217.12 116.99 L215.68 116.84 L214.24 116.73 L212.80 116.64 L211.36 116.59 L209.93 116.58 L208.50 116.59 L207.08 116.63 L205.65 116.71 L204.24 116.81 L202.82 116.95 L201.42 117.12 L200.01 117.32 L198.62 117.56 L197.23 117.82 L195.85 118.12 L194.47 118.44 L193.10 118.80 L191.75 119.19 L190.39 119.60 L189.05 120.05 L187.72 120.53 L186.40 121.04 L185.09 121.58 L183.79 122.15 L182.50 122.75 L181.22 123.38 L179.95 124.04 L178.69 124.73 L177.45 125.44 L176.22 126.19 L175.01 126.96 L173.80 127.77 L172.62 128.60 L171.44 129.45 L170.28 130.34 L169.14 131.25 L168.01 132.19 L166.90 133.16 L165.80 134.16 L164.72 135.18 L163.66 136.22 L162.61 137.29 L161.58 138.39 L160.57 139.51 L159.58 140.66 L158.61 141.83 L157.65 143.02 L156.72 144.24 L155.80 145.48 L154.90 146.74 L154.02 148.02 L153.17 149.33 L152.33 150.66 L151.51 152.01 L150.72 153.38 L149.94 154.77 L149.19 156.18 L148.46 157.61 L147.75 159.06 L147.06 160.53 L146.39 162.01 L145.75 163.52 L145.13 165.04 L144.53 166.58 L143.96 168.13 L143.40 169.70 L142.88 171.28 L142.37 172.88 L141.89 174.50 L141.43 176.13 L141.00 177.77 L140.59 179.42 L140.20 181.09 L139.84 182.77 L139.51 184.46 L139.19 186.16 L138.91 187.87 L138.64 189.59 L138.41 191.32 L138.19 193.06 L138.00 194.80 L137.84 196.56 L137.70 198.32 L137.59 200.09 L137.50 201.86 L137.44 203.64 L137.40 205.43 L137.39 207.21 L137.40 209.01 L137.44 210.80 L137.50 212.60 L137.59 214.41 L137.70 216.21 L137.84 218.01 L138.00 219.82 L138.19 221.62 L138.41 223.43 L138.64 225.23 L138.91 227.03 L139.19 228.83 L139.51 230.63 L139.84 232.42 L140.20 234.21 L140.59 236.00 L141.00 237.78 L141.43 239.56 L141.89 241.32 L142.37 243.09 L142.88 244.84 L143.40 246.59 L143.96 248.33 L144.53 250.06 L145.13 251.79 L145.75 253.50 L146.39 255.20 L147.06 256.89 L147.75 258.57 L148.46 260.24 L149.19 261.90 L149.94 263.54 L150.72 265.17 L151.51 266.79 L152.33 268.39 L153.17 269.98 L154.02 271.55 L154.90 273.11 L155.80 274.65 L156.72 276.18 L157.65 277.68 L158.61 279.17 L159.58 280.64 L160.57 282.10 L161.58 283.53 L162.61 284.95 L163.66 286.34 L164.72 287.72 L165.80 289.07 L166.90 290.40 L168.01 291.71 L169.14 293.00 L170.28 294.27 L171.44 295.52 L172.62 296.74 L173.80 297.94 L175.01 299.11 L176.22 300.26 L177.45 301.39 L178.69 302.49 L179.95 303.57 L181.22 304.62 L182.50 305.64 L183.79 306.64 L185.09 307.61 L186.40 308.56 L187.72 309.48 L189.05 310.37 L190.39 311.23 L191.75 312.07 L193.10 312.88 L194.47 313.66 L195.85 314.41 L197.23 315.13 L198.62 315.83 L200.01 316.49 L201.42 317.12 L202.82 317.73 L204.24 318.31 L205.65 318.85 L207.08 319.37 L208.50 319.85 L209.93 320.31 L211.36 320.73 L212.80 321.13 L214.24 321.49 L215.68 321.82 L217.12 322.12 L218.56 322.39 L220.00 322.63 L221.44 322.84 L222.88 323.01 L224.32 323.16 L225.76 323.27 L227.20 323.36 L228.64 323.41 L230.07 323.42 L231.50 323.41 L232.92 323.37 L234.35 323.29 L235.76 323.19 L237.18 323.05 L238.58 322.88 L239.99 322.68 L241.38 322.44 L242.77 322.18 L244.15 321.88 L245.53 321.56 L246.90 321.20 L248.25 320.81 L249.61 320.40 L250.95 319.95 L252.28 319.47 L253.60 318.96 L254.91 318.42 L256.21 317.85 L257.50 317.25 L258.78 316.62 L260.05 315.96 L261.31 315.27 L262.55 314.56 L263.78 313.81 L264.99 313.04 L266.20 312.23 L267.38 311.40 L268.56 310.55 L269.72 309.66 L270.86 308.75 L271.99 307.81 L273.10 306.84 L274.20 305.84 L275.28 304.82 L276.34 303.78 L277.39 302.71 L278.42 301.61 L279.43 300.49 L280.42 299.34 L281.39 298.17 L282.35 296.98 L283.28 295.76 L284.20 294.52 L285.10 293.26 L285.98 291.98 L286.83 290.67 L287.67 289.34 L288.49 287.99 L289.28 286.62 L290.06 285.23 L290.81 283.82 L291.54 282.39 L292.25 280.94 L292.94 279.47 L293.61 277.99 L294.25 276.48 L294.87 274.96 L295.47 273.42 L296.04 271.87 L296.60 270.30 L297.12 268.72 L297.63 267.12 L298.11 265.50 L298.57 263.87 L299.00 262.23 L299.41 260.58 L299.80 258.91 L300.16 257.23 L300.49 255.54 L300.81 253.84 L301.09 252.13 L301.36 250.41 L301.59 248.68 L301.81 246.94 L302.00 245.20 L302.16 243.44 L302.30 241.68 L302.41 239.91 L302.50 238.14 L302.56 236.36 L302.60 234.57 Z "></path><path id="C1h" stroke="green" stroke-width="1" stroke-dasharray="1,2" fill="none" d="M316.45 228.10 L315.73 228.43 L314.97 228.77 L314.19 229.09 L313.37 229.42 L312.53 229.74 L311.66 230.06 L310.76 230.38 L309.84 230.69 L308.89 231.00 L307.91 231.31 L306.90 231.61 L305.87 231.91 L304.81 232.20 L303.72 232.50 L302.61 232.79 L301.48 233.07 L300.32 233.35 L299.13 233.63 L297.92 233.90 L296.69 234.17 L295.43 234.43 L294.15 234.69 L292.85 234.94 L291.53 235.20 L290.18 235.44 L288.81 235.68 L287.43 235.92 L286.02 236.15 L284.59 236.38 L283.14 236.60 L281.67 236.81 L280.19 237.02 L278.68 237.23 L277.16 237.43 L275.62 237.63 L274.06 237.82 L272.49 238.00 L270.90 238.18 L269.29 238.36 L267.67 238.52 L266.04 238.69 L264.39 238.84 L262.73 238.99 L261.05 239.14 L259.37 239.28 L257.67 239.41 L255.96 239.54 L254.23 239.66 L252.50 239.78 L250.76 239.89 L249.01 239.99 L247.25 240.09 L245.48 240.18 L243.70 240.26 L241.92 240.34 L240.13 240.42 L238.33 240.48 L236.53 240.54 L234.72 240.60 L232.91 240.65 L231.09 240.69 L229.28 240.72 L227.45 240.75 L225.63 240.77 L223.80 240.79 L221.98 240.80 L220.15 240.80 L218.32 240.80 L216.49 240.79 L214.67 240.78 L212.84 240.76 L211.02 240.73 L209.20 240.69 L207.39 240.65 L205.57 240.61 L203.77 240.55 L201.96 240.49 L200.17 240.43 L198.37 240.36 L196.59 240.28 L194.81 240.19 L193.04 240.10 L191.28 240.01 L189.53 239.90 L187.78 239.80 L186.05 239.68 L184.32 239.56 L182.61 239.43 L180.91 239.30 L179.22 239.16 L177.54 239.02 L175.88 238.87 L174.23 238.71 L172.59 238.55 L170.97 238.38 L169.36 238.21 L167.77 238.03 L166.19 237.85 L164.63 237.66 L163.09 237.46 L161.57 237.26 L160.06 237.06 L158.57 236.85 L157.10 236.63 L155.65 236.41 L154.21 236.19 L152.80 235.96 L151.41 235.72 L150.04 235.48 L148.69 235.24 L147.36 234.99 L146.06 234.73 L144.78 234.47 L143.52 234.21 L142.28 233.94 L141.07 233.67 L139.88 233.40 L138.71 233.12 L137.57 232.83 L136.46 232.54 L135.37 232.25 L134.31 231.96 L133.27 231.66 L132.26 231.36 L131.27 231.05 L130.32 230.74 L129.39 230.43 L128.48 230.11 L127.61 229.79 L126.76 229.47 L125.95 229.15 L125.16 228.82 L124.40 228.49 L123.66 228.16 L122.96 227.82 L122.29 227.48 L121.65 227.14 L121.04 226.80 L120.45 226.46 L119.90 226.11 L119.38 225.76 L118.89 225.41 L118.43 225.06 L118.00 224.71 L117.60 224.35 L117.23 224.00 L116.90 223.64 L116.59 223.28 L116.32 222.92 L116.08 222.56 L115.87 222.20 L115.69 221.84 L115.55 221.48 L115.43 221.12 L115.35 220.76 L115.30 220.39 L115.28 220.03 L115.29 219.67 L115.34 219.30 L115.42 218.94 L115.53 218.58 L115.67 218.22 L115.84 217.85 L116.04 217.49 L116.28 217.13 L116.55 216.77 L116.85 216.42 L117.18 216.06 L117.54 215.70 L117.93 215.35 L118.36 215.00 L118.81 214.64 L119.30 214.29 L119.81 213.95 L120.36 213.60 L120.94 213.25 L121.55 212.91 L122.18 212.57 L122.85 212.23 L123.55 211.90 L124.27 211.57 L125.03 211.23 L125.81 210.91 L126.63 210.58 L127.47 210.26 L128.34 209.94 L129.24 209.62 L130.16 209.31 L131.11 209.00 L132.09 208.69 L133.10 208.39 L134.13 208.09 L135.19 207.80 L136.28 207.50 L137.39 207.21 L138.52 206.93 L139.68 206.65 L140.87 206.37 L142.08 206.10 L143.31 205.83 L144.57 205.57 L145.85 205.31 L147.15 205.06 L148.47 204.80 L149.82 204.56 L151.19 204.32 L152.57 204.08 L153.98 203.85 L155.41 203.62 L156.86 203.40 L158.33 203.19 L159.81 202.98 L161.32 202.77 L162.84 202.57 L164.38 202.37 L165.94 202.18 L167.51 202.00 L169.10 201.82 L170.71 201.64 L172.33 201.48 L173.96 201.31 L175.61 201.16 L177.27 201.01 L178.95 200.86 L180.63 200.72 L182.33 200.59 L184.04 200.46 L185.77 200.34 L187.50 200.22 L189.24 200.11 L190.99 200.01 L192.75 199.91 L194.52 199.82 L196.30 199.74 L198.08 199.66 L199.87 199.58 L201.67 199.52 L203.47 199.46 L205.28 199.40 L207.09 199.35 L208.91 199.31 L210.72 199.28 L212.55 199.25 L214.37 199.23 L216.20 199.21 L218.02 199.20 L219.85 199.20 L221.68 199.20 L223.51 199.21 L225.33 199.22 L227.16 199.24 L228.98 199.27 L230.80 199.31 L232.61 199.35 L234.43 199.39 L236.23 199.45 L238.04 199.51 L239.83 199.57 L241.63 199.64 L243.41 199.72 L245.19 199.81 L246.96 199.90 L248.72 199.99 L250.47 200.10 L252.22 200.20 L253.95 200.32 L255.68 200.44 L257.39 200.57 L259.09 200.70 L260.78 200.84 L262.46 200.98 L264.12 201.13 L265.77 201.29 L267.41 201.45 L269.03 201.62 L270.64 201.79 L272.23 201.97 L273.81 202.15 L275.37 202.34 L276.91 202.54 L278.43 202.74 L279.94 202.94 L281.43 203.15 L282.90 203.37 L284.35 203.59 L285.79 203.81 L287.20 204.04 L288.59 204.28 L289.96 204.52 L291.31 204.76 L292.64 205.01 L293.94 205.27 L295.22 205.53 L296.48 205.79 L297.72 206.06 L298.93 206.33 L300.12 206.60 L301.29 206.88 L302.43 207.17 L303.54 207.46 L304.63 207.75 L305.69 208.04 L306.73 208.34 L307.74 208.64 L308.73 208.95 L309.68 209.26 L310.61 209.57 L311.52 209.89 L312.39 210.21 L313.24 210.53 L314.05 210.85 L314.84 211.18 L315.60 211.51 L316.34 211.84 L317.04 212.18 L317.71 212.52 L318.35 212.86 L318.96 213.20 L319.55 213.54 L320.10 213.89 L320.62 214.24 L321.11 214.59 L321.57 214.94 L322.00 215.29 L322.40 215.65 L322.77 216.00 L323.10 216.36 L323.41 216.72 L323.68 217.08 L323.92 217.44 L324.13 217.80 L324.31 218.16 L324.45 218.52 L324.57 218.88 L324.65 219.24 L324.70 219.61 L324.72 219.97 L324.71 220.33 L324.66 220.70 L324.58 221.06 L324.47 221.42 L324.33 221.78 L324.16 222.15 L323.96 222.51 L323.72 222.87 L323.45 223.23 L323.15 223.58 L322.82 223.94 L322.46 224.30 L322.07 224.65 L321.64 225.00 L321.19 225.36 L320.70 225.71 L320.19 226.05 L319.64 226.40 L319.06 226.75 L318.45 227.09 L317.82 227.43 L317.15 227.77 Z "></path><path id="C2" stroke="green" stroke-width="1" stroke-dasharray="1,1" fill="none" d="M302.61 232.79 L300.13 232.40 Z M299.80 205.79 L297.40 206.21 Z M291.54 179.76 L289.40 180.96 Z M278.42 156.47 L276.66 158.38 Z M261.31 137.51 L260.07 139.99 Z M241.38 124.17 L240.74 127.05 Z M220.00 117.37 L220.00 120.45 Z M198.62 117.56 L199.26 120.63 Z M178.69 124.73 L179.93 127.58 Z M161.58 138.39 L163.34 140.84 Z M148.46 157.61 L150.60 159.48 Z M140.20 181.09 L142.60 182.26 Z M137.39 207.21 L139.87 207.60 Z M140.20 234.21 L142.60 233.79 Z M148.46 260.24 L150.60 259.04 Z M161.58 283.53 L163.34 281.62 Z M178.69 302.49 L179.93 300.01 Z M198.62 315.83 L199.26 312.95 Z M220.00 322.63 L220.00 319.55 Z M241.38 322.44 L240.74 319.37 Z M261.31 315.27 L260.07 312.42 Z M278.42 301.61 L276.66 299.16 Z M291.54 282.39 L289.40 280.52 Z M299.80 258.91 L297.40 257.74 Z "></path><path id="C2h" stroke="green" stroke-width="1" stroke-dasharray="1,1" fill="none" d="M316.45 228.10 L313.56 227.86 Z M302.61 232.79 L300.13 232.40 Z M283.14 236.60 L281.25 236.10 Z M259.37 239.28 L258.19 238.70 Z M232.91 240.65 L232.52 240.03 Z M205.57 240.61 L206.01 239.99 Z M179.22 239.16 L180.44 238.59 Z M155.65 236.41 L157.58 235.92 Z M136.46 232.54 L138.96 232.17 Z M122.96 227.82 L125.87 227.59 Z M116.08 222.56 L119.20 222.49 Z M116.28 217.13 L119.39 217.22 Z M123.55 211.90 L126.44 212.14 Z M137.39 207.21 L139.87 207.60 Z M156.86 203.40 L158.75 203.90 Z M180.63 200.72 L181.81 201.30 Z M207.09 199.35 L207.48 199.97 Z M234.43 199.39 L233.99 200.01 Z M260.78 200.84 L259.56 201.41 Z M284.35 203.59 L282.42 204.08 Z M303.54 207.46 L301.04 207.83 Z M317.04 212.18 L314.13 212.41 Z M323.92 217.44 L320.80 217.51 Z M323.72 222.87 L320.61 222.78 Z "></path><circle id="th_xy" fill="green" stroke-width="1" stroke="none" r="4" cx="140.20362355665384" cy="181.08763299409566"><title>θ=-15 Φ=-15</title></circle><path id="M" stroke="#0b22ae" stroke-width="0.5" stroke-dasharray="1,0" fill="none" d="M220.00 151.58 L236.64 155.31 L212.97 157.22 Z M236.64 155.31 L229.84 160.76 L212.97 157.22 Z M236.64 155.31 L252.15 163.45 L229.84 160.76 Z M252.15 163.45 L246.05 168.33 L229.84 160.76 Z M252.15 163.45 L265.47 175.44 L246.05 168.33 Z M265.47 175.44 L260.49 179.43 L246.05 168.33 Z M265.47 175.44 L275.69 190.47 L260.49 179.43 Z M275.69 190.47 L272.17 193.29 L260.49 179.43 Z M275.69 190.47 L282.11 207.51 L272.17 193.29 Z M282.11 207.51 L280.29 208.97 L272.17 193.29 Z M282.11 207.51 L284.30 225.40 L280.29 208.97 Z M284.30 225.40 L284.30 225.40 L280.29 208.97 Z M282.11 242.92 L283.93 241.47 L284.30 225.40 Z M282.11 242.92 L275.69 258.89 L283.93 241.47 Z M275.69 258.89 L279.20 256.07 L283.93 241.47 Z M275.69 258.89 L265.47 272.20 L279.20 256.07 Z M265.47 272.20 L270.44 268.21 L279.20 256.07 Z M265.47 272.20 L252.15 281.95 L270.44 268.21 Z M252.15 281.95 L258.24 277.07 L270.44 268.21 Z M252.15 281.95 L236.64 287.48 L258.24 277.07 Z M236.64 287.48 L243.43 282.04 L258.24 277.07 Z M236.64 287.48 L220.00 288.42 L243.43 282.04 Z M220.00 288.42 L227.03 282.78 L243.43 282.04 Z M220.00 288.42 L203.36 284.69 L227.03 282.78 Z M203.36 284.69 L210.16 279.24 L227.03 282.78 Z M203.36 284.69 L187.85 276.55 L210.16 279.24 Z M187.85 276.55 L193.95 271.67 L210.16 279.24 Z M187.85 276.55 L174.53 264.56 L193.95 271.67 Z M174.53 264.56 L179.51 260.57 L193.95 271.67 Z M174.53 264.56 L164.31 249.53 L179.51 260.57 Z M164.31 249.53 L167.83 246.71 L179.51 260.57 Z M164.31 249.53 L157.89 232.49 L167.83 246.71 Z M157.89 232.49 L159.71 231.03 L167.83 246.71 Z M157.89 232.49 L155.70 214.60 L159.71 231.03 Z M155.70 214.60 L155.70 214.60 L159.71 231.03 Z M157.89 197.08 L156.07 198.53 L155.70 214.60 Z M157.89 197.08 L164.31 181.11 L156.07 198.53 Z M164.31 181.11 L160.80 183.93 L156.07 198.53 Z M164.31 181.11 L174.53 167.80 L160.80 183.93 Z M174.53 167.80 L169.56 171.79 L160.80 183.93 Z M174.53 167.80 L187.85 158.05 L169.56 171.79 Z M187.85 158.05 L181.76 162.93 L169.56 171.79 Z M187.85 158.05 L203.36 152.52 L181.76 162.93 Z M203.36 152.52 L196.57 157.96 L181.76 162.93 Z M203.36 152.52 L220.00 151.58 L196.57 157.96 Z M220.00 151.58 L212.97 157.22 L196.57 157.96 Z M212.97 157.22 L229.84 160.76 L206.41 167.13 Z M229.84 160.76 L223.51 170.33 L206.41 167.13 Z M229.84 160.76 L246.05 168.33 L223.51 170.33 Z M246.05 168.33 L240.38 176.92 L223.51 170.33 Z M246.05 168.33 L260.49 179.43 L240.38 176.92 Z M260.49 179.43 L255.86 186.44 L240.38 176.92 Z M260.49 179.43 L272.17 193.29 L255.86 186.44 Z M272.17 193.29 L268.89 198.24 L255.86 186.44 Z M272.17 193.29 L280.29 208.97 L268.89 198.24 Z M280.29 208.97 L278.59 211.53 L268.89 198.24 Z M280.29 208.97 L284.30 225.40 L278.59 211.53 Z M284.30 225.40 L284.30 225.40 L278.59 211.53 Z M283.93 241.47 L285.62 238.90 L284.30 225.40 Z M283.93 241.47 L279.20 256.07 L285.62 238.90 Z M279.20 256.07 L282.48 251.11 L285.62 238.90 Z M279.20 256.07 L270.44 268.21 L282.48 251.11 Z M270.44 268.21 L275.08 261.20 L282.48 251.11 Z M270.44 268.21 L258.24 277.07 L275.08 261.20 Z M258.24 277.07 L263.92 268.48 L275.08 261.20 Z M258.24 277.07 L243.43 282.04 L263.92 268.48 Z M243.43 282.04 L249.77 272.46 L263.92 268.48 Z M243.43 282.04 L227.03 282.78 L249.77 272.46 Z M227.03 282.78 L233.59 272.87 L249.77 272.46 Z M227.03 282.78 L210.16 279.24 L233.59 272.87 Z M210.16 279.24 L216.49 269.67 L233.59 272.87 Z M210.16 279.24 L193.95 271.67 L216.49 269.67 Z M193.95 271.67 L199.62 263.08 L216.49 269.67 Z M193.95 271.67 L179.51 260.57 L199.62 263.08 Z M179.51 260.57 L184.14 253.56 L199.62 263.08 Z M179.51 260.57 L167.83 246.71 L184.14 253.56 Z M167.83 246.71 L171.11 241.76 L184.14 253.56 Z M167.83 246.71 L159.71 231.03 L171.11 241.76 Z M159.71 231.03 L161.41 228.47 L171.11 241.76 Z M159.71 231.03 L155.70 214.60 L161.41 228.47 Z M155.70 214.60 L155.70 214.60 L161.41 228.47 Z M156.07 198.53 L154.38 201.10 L155.70 214.60 Z M156.07 198.53 L160.80 183.93 L154.38 201.10 Z M160.80 183.93 L157.52 188.89 L154.38 201.10 Z M160.80 183.93 L169.56 171.79 L157.52 188.89 Z M169.56 171.79 L164.92 178.80 L157.52 188.89 Z M169.56 171.79 L181.76 162.93 L164.92 178.80 Z M181.76 162.93 L176.08 171.52 L164.92 178.80 Z M181.76 162.93 L196.57 157.96 L176.08 171.52 Z M196.57 157.96 L190.23 167.54 L176.08 171.52 Z M196.57 157.96 L212.97 157.22 L190.23 167.54 Z M212.97 157.22 L206.41 167.13 L190.23 167.54 Z M206.41 167.13 L223.51 170.33 L200.78 180.65 Z M223.51 170.33 L218.07 183.39 L200.78 180.65 Z M223.51 170.33 L240.38 176.92 L218.07 183.39 Z M240.38 176.92 L235.50 188.63 L218.07 183.39 Z M240.38 176.92 L255.86 186.44 L235.50 188.63 Z M255.86 186.44 L251.88 196.00 L235.50 188.63 Z M255.86 186.44 L268.89 198.24 L251.88 196.00 Z M268.89 198.24 L266.08 205.00 L251.88 196.00 Z M268.89 198.24 L278.59 211.53 L266.08 205.00 Z M278.59 211.53 L277.13 215.03 L266.08 205.00 Z M278.59 211.53 L284.30 225.40 L277.13 215.03 Z M284.30 225.40 L284.30 225.40 L277.13 215.03 Z M285.62 238.90 L287.08 235.40 L284.30 225.40 Z M285.62 238.90 L282.48 251.11 L287.08 235.40 Z M282.48 251.11 L285.30 244.35 L287.08 235.40 Z M282.48 251.11 L275.08 261.20 L285.30 244.35 Z M275.08 261.20 L279.06 251.64 L285.30 244.35 Z M275.08 261.20 L263.92 268.48 L279.06 251.64 Z M263.92 268.48 L268.80 256.77 L279.06 251.64 Z M263.92 268.48 L249.77 272.46 L268.80 256.77 Z M249.77 272.46 L255.21 259.40 L268.80 256.77 Z M249.77 272.46 L233.59 272.87 L255.21 259.40 Z M233.59 272.87 L239.22 259.35 L255.21 259.40 Z M233.59 272.87 L216.49 269.67 L239.22 259.35 Z M216.49 269.67 L221.93 256.61 L239.22 259.35 Z M216.49 269.67 L199.62 263.08 L221.93 256.61 Z M199.62 263.08 L204.50 251.37 L221.93 256.61 Z M199.62 263.08 L184.14 253.56 L204.50 251.37 Z M184.14 253.56 L188.12 244.00 L204.50 251.37 Z M184.14 253.56 L171.11 241.76 L188.12 244.00 Z M171.11 241.76 L173.92 235.00 L188.12 244.00 Z M171.11 241.76 L161.41 228.47 L173.92 235.00 Z M161.41 228.47 L162.87 224.97 L173.92 235.00 Z M161.41 228.47 L155.70 214.60 L162.87 224.97 Z M155.70 214.60 L155.70 214.60 L162.87 224.97 Z M154.38 201.10 L152.92 204.60 L155.70 214.60 Z M154.38 201.10 L157.52 188.89 L152.92 204.60 Z M157.52 188.89 L154.70 195.65 L152.92 204.60 Z M157.52 188.89 L164.92 178.80 L154.70 195.65 Z M164.92 178.80 L160.94 188.36 L154.70 195.65 Z M164.92 178.80 L176.08 171.52 L160.94 188.36 Z M176.08 171.52 L171.20 183.23 L160.94 188.36 Z M176.08 171.52 L190.23 167.54 L171.20 183.23 Z M190.23 167.54 L184.79 180.60 L171.20 183.23 Z M190.23 167.54 L206.41 167.13 L184.79 180.60 Z M206.41 167.13 L200.78 180.65 L184.79 180.60 Z M200.78 180.65 L218.07 183.39 L196.46 196.85 Z M218.07 183.39 L213.90 199.04 L196.46 196.85 Z M218.07 183.39 L235.50 188.63 L213.90 199.04 Z M235.50 188.63 L231.76 202.65 L213.90 199.04 Z M235.50 188.63 L251.88 196.00 L231.76 202.65 Z M251.88 196.00 L248.82 207.45 L231.76 202.65 Z M251.88 196.00 L266.08 205.00 L248.82 207.45 Z M266.08 205.00 L263.91 213.10 L248.82 207.45 Z M266.08 205.00 L277.13 215.03 L263.91 213.10 Z M277.13 215.03 L276.01 219.23 L263.91 213.10 Z M277.13 215.03 L284.30 225.40 L276.01 219.23 Z M284.30 225.40 L284.30 225.40 L276.01 219.23 Z M287.08 235.40 L288.20 231.21 L284.30 225.40 Z M287.08 235.40 L285.30 244.35 L288.20 231.21 Z M285.30 244.35 L287.46 236.25 L288.20 231.21 Z M285.30 244.35 L279.06 251.64 L287.46 236.25 Z M279.06 251.64 L282.11 240.19 L287.46 236.25 Z M279.06 251.64 L268.80 256.77 L282.11 240.19 Z M268.80 256.77 L272.54 242.75 L282.11 240.19 Z M268.80 256.77 L255.21 259.40 L272.54 242.75 Z M255.21 259.40 L259.38 243.75 L272.54 242.75 Z M255.21 259.40 L239.22 259.35 L259.38 243.75 Z M239.22 259.35 L243.54 243.15 L259.38 243.75 Z M239.22 259.35 L221.93 256.61 L243.54 243.15 Z M221.93 256.61 L226.10 240.96 L243.54 243.15 Z M221.93 256.61 L204.50 251.37 L226.10 240.96 Z M204.50 251.37 L208.24 237.35 L226.10 240.96 Z M204.50 251.37 L188.12 244.00 L208.24 237.35 Z M188.12 244.00 L191.18 232.55 L208.24 237.35 Z M188.12 244.00 L173.92 235.00 L191.18 232.55 Z M173.92 235.00 L176.09 226.90 L191.18 232.55 Z M173.92 235.00 L162.87 224.97 L176.09 226.90 Z M162.87 224.97 L163.99 220.77 L176.09 226.90 Z M162.87 224.97 L155.70 214.60 L163.99 220.77 Z M155.70 214.60 L155.70 214.60 L163.99 220.77 Z M152.92 204.60 L151.80 208.79 L155.70 214.60 Z M152.92 204.60 L154.70 195.65 L151.80 208.79 Z M154.70 195.65 L152.54 203.75 L151.80 208.79 Z M154.70 195.65 L160.94 188.36 L152.54 203.75 Z M160.94 188.36 L157.89 199.81 L152.54 203.75 Z M160.94 188.36 L171.20 183.23 L157.89 199.81 Z M171.20 183.23 L167.46 197.25 L157.89 199.81 Z M171.20 183.23 L184.79 180.60 L167.46 197.25 Z M184.79 180.60 L180.62 196.25 L167.46 197.25 Z M184.79 180.60 L200.78 180.65 L180.62 196.25 Z M200.78 180.65 L196.46 196.85 L180.62 196.25 Z M196.46 196.85 L213.90 199.04 L193.74 214.63 Z M213.90 199.04 L211.27 216.21 L193.74 214.63 Z M213.90 199.04 L231.76 202.65 L211.27 216.21 Z M231.76 202.65 L229.41 218.05 L211.27 216.21 Z M231.76 202.65 L248.82 207.45 L229.41 218.05 Z M248.82 207.45 L246.90 220.02 L229.41 218.05 Z M248.82 207.45 L263.91 213.10 L246.90 220.02 Z M263.91 213.10 L262.56 221.99 L246.90 220.02 Z M263.91 213.10 L276.01 219.23 L262.56 221.99 Z M276.01 219.23 L275.31 223.83 L262.56 221.99 Z M276.01 219.23 L284.30 225.40 L275.31 223.83 Z M284.30 225.40 L284.30 225.40 L275.31 223.83 Z M288.20 231.21 L288.90 226.60 L284.30 225.40 Z M288.20 231.21 L287.46 236.25 L288.90 226.60 Z M287.46 236.25 L288.82 227.36 L288.90 226.60 Z M287.46 236.25 L282.11 240.19 L288.82 227.36 Z M282.11 240.19 L284.04 227.62 L288.82 227.36 Z M282.11 240.19 L272.54 242.75 L284.04 227.62 Z M272.54 242.75 L274.89 227.35 L284.04 227.62 Z M272.54 242.75 L259.38 243.75 L274.89 227.35 Z M259.38 243.75 L262.00 226.58 L274.89 227.35 Z M259.38 243.75 L243.54 243.15 L262.00 226.58 Z M243.54 243.15 L246.26 225.37 L262.00 226.58 Z M243.54 243.15 L226.10 240.96 L246.26 225.37 Z M226.10 240.96 L228.73 223.79 L246.26 225.37 Z M226.10 240.96 L208.24 237.35 L228.73 223.79 Z M208.24 237.35 L210.59 221.95 L228.73 223.79 Z M208.24 237.35 L191.18 232.55 L210.59 221.95 Z M191.18 232.55 L193.10 219.98 L210.59 221.95 Z M191.18 232.55 L176.09 226.90 L193.10 219.98 Z M176.09 226.90 L177.44 218.01 L193.10 219.98 Z M176.09 226.90 L163.99 220.77 L177.44 218.01 Z M163.99 220.77 L164.69 216.17 L177.44 218.01 Z M163.99 220.77 L155.70 214.60 L164.69 216.17 Z M155.70 214.60 L155.70 214.60 L164.69 216.17 Z M151.80 208.79 L151.10 213.40 L155.70 214.60 Z M151.80 208.79 L152.54 203.75 L151.10 213.40 Z M152.54 203.75 L151.18 212.64 L151.10 213.40 Z M152.54 203.75 L157.89 199.81 L151.18 212.64 Z M157.89 199.81 L155.96 212.38 L151.18 212.64 Z M157.89 199.81 L167.46 197.25 L155.96 212.38 Z M167.46 197.25 L165.11 212.65 L155.96 212.38 Z M167.46 197.25 L180.62 196.25 L165.11 212.65 Z M180.62 196.25 L178.00 213.42 L165.11 212.65 Z M180.62 196.25 L196.46 196.85 L178.00 213.42 Z M196.46 196.85 L193.74 214.63 L178.00 213.42 Z M193.74 214.63 L211.27 216.21 L192.82 232.77 Z M211.27 216.21 L210.38 233.74 L192.82 232.77 Z M211.27 216.21 L229.41 218.05 L210.38 233.74 Z M229.41 218.05 L228.60 233.76 L210.38 233.74 Z M229.41 218.05 L246.90 220.02 L228.60 233.76 Z M246.90 220.02 L246.24 232.85 L228.60 233.76 Z M246.90 220.02 L262.56 221.99 L246.24 232.85 Z M262.56 221.99 L262.09 231.06 L246.24 232.85 Z M262.56 221.99 L275.31 223.83 L262.09 231.06 Z M275.31 223.83 L275.07 228.52 L262.09 231.06 Z M275.31 223.83 L284.30 225.40 L275.07 228.52 Z M284.30 225.40 L284.30 225.40 L275.07 228.52 Z M288.90 226.60 L289.14 221.91 L284.30 225.40 Z M288.90 226.60 L288.82 227.36 L289.14 221.91 Z M288.82 227.36 L289.28 218.29 L289.14 221.91 Z M288.82 227.36 L284.04 227.62 L289.28 218.29 Z M284.04 227.62 L284.69 214.79 L289.28 218.29 Z M284.04 227.62 L274.89 227.35 L284.69 214.79 Z M274.89 227.35 L275.69 211.64 L284.69 214.79 Z M274.89 227.35 L262.00 226.58 L275.69 211.64 Z M262.00 226.58 L262.90 209.06 L275.69 211.64 Z M262.00 226.58 L246.26 225.37 L262.90 209.06 Z M246.26 225.37 L247.18 207.23 L262.90 209.06 Z M246.26 225.37 L228.73 223.79 L247.18 207.23 Z M228.73 223.79 L229.62 206.26 L247.18 207.23 Z M228.73 223.79 L210.59 221.95 L229.62 206.26 Z M210.59 221.95 L211.40 206.24 L229.62 206.26 Z M210.59 221.95 L193.10 219.98 L211.40 206.24 Z M193.10 219.98 L193.76 207.15 L211.40 206.24 Z M193.10 219.98 L177.44 218.01 L193.76 207.15 Z M177.44 218.01 L177.91 208.94 L193.76 207.15 Z M177.44 218.01 L164.69 216.17 L177.91 208.94 Z M164.69 216.17 L164.93 211.48 L177.91 208.94 Z M164.69 216.17 L155.70 214.60 L164.93 211.48 Z M155.70 214.60 L155.70 214.60 L164.93 211.48 Z M151.10 213.40 L150.86 218.09 L155.70 214.60 Z M151.10 213.40 L151.18 212.64 L150.86 218.09 Z M151.18 212.64 L150.72 221.71 L150.86 218.09 Z M151.18 212.64 L155.96 212.38 L150.72 221.71 Z M155.96 212.38 L155.31 225.21 L150.72 221.71 Z M155.96 212.38 L165.11 212.65 L155.31 225.21 Z M165.11 212.65 L164.31 228.36 L155.31 225.21 Z M165.11 212.65 L178.00 213.42 L164.31 228.36 Z M178.00 213.42 L177.10 230.94 L164.31 228.36 Z M178.00 213.42 L193.74 214.63 L177.10 230.94 Z M193.74 214.63 L192.82 232.77 L177.10 230.94 Z M192.82 232.77 L210.38 233.74 L193.74 250.04 Z M210.38 233.74 L211.27 250.42 L193.74 250.04 Z M210.38 233.74 L228.60 233.76 L211.27 250.42 Z M228.60 233.76 L229.41 248.72 L211.27 250.42 Z M228.60 233.76 L246.24 232.85 L229.41 248.72 Z M246.24 232.85 L246.90 245.07 L229.41 248.72 Z M246.24 232.85 L262.09 231.06 L246.90 245.07 Z M262.09 231.06 L262.56 239.70 L246.90 245.07 Z M262.09 231.06 L275.07 228.52 L262.56 239.70 Z M275.07 228.52 L275.31 232.99 L262.56 239.70 Z M275.07 228.52 L284.30 225.40 L275.31 232.99 Z M284.30 225.40 L284.30 225.40 L275.31 232.99 Z M289.14 221.91 L288.90 217.44 L284.30 225.40 Z M289.14 221.91 L289.28 218.29 L288.90 217.44 Z M289.28 218.29 L288.82 209.66 L288.90 217.44 Z M289.28 218.29 L284.69 214.79 L288.82 209.66 Z M284.69 214.79 L284.04 202.57 L288.82 209.66 Z M284.69 214.79 L275.69 211.64 L284.04 202.57 Z M275.69 211.64 L274.89 196.68 L284.04 202.57 Z M275.69 211.64 L262.90 209.06 L274.89 196.68 Z M262.90 209.06 L262.00 192.37 L274.89 196.68 Z M262.90 209.06 L247.18 207.23 L262.00 192.37 Z M247.18 207.23 L246.26 189.96 L262.00 192.37 Z M247.18 207.23 L229.62 206.26 L246.26 189.96 Z M229.62 206.26 L228.73 189.58 L246.26 189.96 Z M229.62 206.26 L211.40 206.24 L228.73 189.58 Z M211.40 206.24 L210.59 191.28 L228.73 189.58 Z M211.40 206.24 L193.76 207.15 L210.59 191.28 Z M193.76 207.15 L193.10 194.93 L210.59 191.28 Z M193.76 207.15 L177.91 208.94 L193.10 194.93 Z M177.91 208.94 L177.44 200.30 L193.10 194.93 Z M177.91 208.94 L164.93 211.48 L177.44 200.30 Z M164.93 211.48 L164.69 207.01 L177.44 200.30 Z M164.93 211.48 L155.70 214.60 L164.69 207.01 Z M155.70 214.60 L155.70 214.60 L164.69 207.01 Z M150.86 218.09 L151.10 222.56 L155.70 214.60 Z M150.86 218.09 L150.72 221.71 L151.10 222.56 Z M150.72 221.71 L151.18 230.34 L151.10 222.56 Z M150.72 221.71 L155.31 225.21 L151.18 230.34 Z M155.31 225.21 L155.96 237.43 L151.18 230.34 Z M155.31 225.21 L164.31 228.36 L155.96 237.43 Z M164.31 228.36 L165.11 243.32 L155.96 237.43 Z M164.31 228.36 L177.10 230.94 L165.11 243.32 Z M177.10 230.94 L178.00 247.63 L165.11 243.32 Z M177.10 230.94 L192.82 232.77 L178.00 247.63 Z M192.82 232.77 L193.74 250.04 L178.00 247.63 Z M193.74 250.04 L211.27 250.42 L196.46 265.27 Z M211.27 250.42 L213.90 265.13 L196.46 265.27 Z M211.27 250.42 L229.41 248.72 L213.90 265.13 Z M229.41 248.72 L231.76 261.91 L213.90 265.13 Z M229.41 248.72 L246.90 245.07 L231.76 261.91 Z M246.90 245.07 L248.82 255.83 L231.76 261.91 Z M246.90 245.07 L262.56 239.70 L248.82 255.83 Z M262.56 239.70 L263.91 247.31 L248.82 255.83 Z M262.56 239.70 L275.31 232.99 L263.91 247.31 Z M275.31 232.99 L276.01 236.93 L263.91 247.31 Z M275.31 232.99 L284.30 225.40 L276.01 236.93 Z M284.30 225.40 L284.30 225.40 L276.01 236.93 Z M288.90 217.44 L288.20 213.50 L284.30 225.40 Z M288.90 217.44 L288.82 209.66 L288.20 213.50 Z M288.82 209.66 L287.46 202.04 L288.20 213.50 Z M288.82 209.66 L284.04 202.57 L287.46 202.04 Z M284.04 202.57 L282.11 191.81 L287.46 202.04 Z M284.04 202.57 L274.89 196.68 L282.11 191.81 Z M274.89 196.68 L272.54 183.49 L282.11 191.81 Z M274.89 196.68 L262.00 192.37 L272.54 183.49 Z M262.00 192.37 L259.38 177.67 L272.54 183.49 Z M262.00 192.37 L246.26 189.96 L259.38 177.67 Z M246.26 189.96 L243.54 174.73 L259.38 177.67 Z M246.26 189.96 L228.73 189.58 L243.54 174.73 Z M228.73 189.58 L226.10 174.87 L243.54 174.73 Z M228.73 189.58 L210.59 191.28 L226.10 174.87 Z M210.59 191.28 L208.24 178.09 L226.10 174.87 Z M210.59 191.28 L193.10 194.93 L208.24 178.09 Z M193.10 194.93 L191.18 184.17 L208.24 178.09 Z M193.10 194.93 L177.44 200.30 L191.18 184.17 Z M177.44 200.30 L176.09 192.69 L191.18 184.17 Z M177.44 200.30 L164.69 207.01 L176.09 192.69 Z M164.69 207.01 L163.99 203.07 L176.09 192.69 Z M164.69 207.01 L155.70 214.60 L163.99 203.07 Z M155.70 214.60 L155.70 214.60 L163.99 203.07 Z M151.10 222.56 L151.80 226.50 L155.70 214.60 Z M151.10 222.56 L151.18 230.34 L151.80 226.50 Z M151.18 230.34 L152.54 237.96 L151.80 226.50 Z M151.18 230.34 L155.96 237.43 L152.54 237.96 Z M155.96 237.43 L157.89 248.19 L152.54 237.96 Z M155.96 237.43 L165.11 243.32 L157.89 248.19 Z M165.11 243.32 L167.46 256.51 L157.89 248.19 Z M165.11 243.32 L178.00 247.63 L167.46 256.51 Z M178.00 247.63 L180.62 262.33 L167.46 256.51 Z M178.00 247.63 L193.74 250.04 L180.62 262.33 Z M193.74 250.04 L196.46 265.27 L180.62 262.33 Z M196.46 265.27 L213.90 265.13 L200.78 277.41 Z M213.90 265.13 L218.07 276.85 L200.78 277.41 Z M213.90 265.13 L231.76 261.91 L218.07 276.85 Z M231.76 261.91 L235.50 272.42 L218.07 276.85 Z M231.76 261.91 L248.82 255.83 L235.50 272.42 Z M248.82 255.83 L251.88 264.41 L235.50 272.42 Z M248.82 255.83 L263.91 247.31 L251.88 264.41 Z M263.91 247.31 L266.08 253.38 L251.88 264.41 Z M263.91 247.31 L276.01 236.93 L266.08 253.38 Z M276.01 236.93 L277.13 240.08 L266.08 253.38 Z M276.01 236.93 L284.30 225.40 L277.13 240.08 Z M284.30 225.40 L284.30 225.40 L277.13 240.08 Z M288.20 213.50 L287.08 210.36 L284.30 225.40 Z M288.20 213.50 L287.46 202.04 L287.08 210.36 Z M287.46 202.04 L285.30 195.97 L287.08 210.36 Z M287.46 202.04 L282.11 191.81 L285.30 195.97 Z M282.11 191.81 L279.06 183.22 L285.30 195.97 Z M282.11 191.81 L272.54 183.49 L279.06 183.22 Z M272.54 183.49 L268.80 172.98 L279.06 183.22 Z M272.54 183.49 L259.38 177.67 L268.80 172.98 Z M259.38 177.67 L255.21 165.94 L268.80 172.98 Z M259.38 177.67 L243.54 174.73 L255.21 165.94 Z M243.54 174.73 L239.22 162.59 L255.21 165.94 Z M243.54 174.73 L226.10 174.87 L239.22 162.59 Z M226.10 174.87 L221.93 163.15 L239.22 162.59 Z M226.10 174.87 L208.24 178.09 L221.93 163.15 Z M208.24 178.09 L204.50 167.58 L221.93 163.15 Z M208.24 178.09 L191.18 184.17 L204.50 167.58 Z M191.18 184.17 L188.12 175.59 L204.50 167.58 Z M191.18 184.17 L176.09 192.69 L188.12 175.59 Z M176.09 192.69 L173.92 186.62 L188.12 175.59 Z M176.09 192.69 L163.99 203.07 L173.92 186.62 Z M163.99 203.07 L162.87 199.92 L173.92 186.62 Z M163.99 203.07 L155.70 214.60 L162.87 199.92 Z M155.70 214.60 L155.70 214.60 L162.87 199.92 Z M151.80 226.50 L152.92 229.64 L155.70 214.60 Z M151.80 226.50 L152.54 237.96 L152.92 229.64 Z M152.54 237.96 L154.70 244.03 L152.92 229.64 Z M152.54 237.96 L157.89 248.19 L154.70 244.03 Z M157.89 248.19 L160.94 256.78 L154.70 244.03 Z M157.89 248.19 L167.46 256.51 L160.94 256.78 Z M167.46 256.51 L171.20 267.02 L160.94 256.78 Z M167.46 256.51 L180.62 262.33 L171.20 267.02 Z M180.62 262.33 L184.79 274.06 L171.20 267.02 Z M180.62 262.33 L196.46 265.27 L184.79 274.06 Z M196.46 265.27 L200.78 277.41 L184.79 274.06 Z M200.78 277.41 L218.07 276.85 L206.41 285.64 Z M218.07 276.85 L223.51 284.80 L206.41 285.64 Z M218.07 276.85 L235.50 272.42 L223.51 284.80 Z M235.50 272.42 L240.38 279.54 L223.51 284.80 Z M235.50 272.42 L251.88 264.41 L240.38 279.54 Z M251.88 264.41 L255.86 270.23 L240.38 279.54 Z M251.88 264.41 L266.08 253.38 L255.86 270.23 Z M266.08 253.38 L268.89 257.50 L255.86 270.23 Z M266.08 253.38 L277.13 240.08 L268.89 257.50 Z M277.13 240.08 L278.59 242.21 L268.89 257.50 Z M277.13 240.08 L284.30 225.40 L278.59 242.21 Z M284.30 225.40 L284.30 225.40 L278.59 242.21 Z M287.08 210.36 L285.62 208.23 L284.30 225.40 Z M287.08 210.36 L285.30 195.97 L285.62 208.23 Z M285.30 195.97 L282.48 191.86 L285.62 208.23 Z M285.30 195.97 L279.06 183.22 L282.48 191.86 Z M279.06 183.22 L275.08 177.41 L282.48 191.86 Z M279.06 183.22 L268.80 172.98 L275.08 177.41 Z M268.80 172.98 L263.92 165.86 L275.08 177.41 Z M268.80 172.98 L255.21 165.94 L263.92 165.86 Z M255.21 165.94 L249.77 158.00 L263.92 165.86 Z M255.21 165.94 L239.22 162.59 L249.77 158.00 Z M239.22 162.59 L233.59 154.36 L249.77 158.00 Z M239.22 162.59 L221.93 163.15 L233.59 154.36 Z M221.93 163.15 L216.49 155.20 L233.59 154.36 Z M221.93 163.15 L204.50 167.58 L216.49 155.20 Z M204.50 167.58 L199.62 160.46 L216.49 155.20 Z M204.50 167.58 L188.12 175.59 L199.62 160.46 Z M188.12 175.59 L184.14 169.77 L199.62 160.46 Z M188.12 175.59 L173.92 186.62 L184.14 169.77 Z M173.92 186.62 L171.11 182.50 L184.14 169.77 Z M173.92 186.62 L162.87 199.92 L171.11 182.50 Z M162.87 199.92 L161.41 197.79 L171.11 182.50 Z M162.87 199.92 L155.70 214.60 L161.41 197.79 Z M155.70 214.60 L155.70 214.60 L161.41 197.79 Z M152.92 229.64 L154.38 231.77 L155.70 214.60 Z M152.92 229.64 L154.70 244.03 L154.38 231.77 Z M154.70 244.03 L157.52 248.14 L154.38 231.77 Z M154.70 244.03 L160.94 256.78 L157.52 248.14 Z M160.94 256.78 L164.92 262.59 L157.52 248.14 Z M160.94 256.78 L171.20 267.02 L164.92 262.59 Z M171.20 267.02 L176.08 274.14 L164.92 262.59 Z M171.20 267.02 L184.79 274.06 L176.08 274.14 Z M184.79 274.06 L190.23 282.00 L176.08 274.14 Z M184.79 274.06 L200.78 277.41 L190.23 282.00 Z M200.78 277.41 L206.41 285.64 L190.23 282.00 Z M206.41 285.64 L223.51 284.80 L212.97 289.39 Z M223.51 284.80 L229.84 288.43 L212.97 289.39 Z M223.51 284.80 L240.38 279.54 L229.84 288.43 Z M240.38 279.54 L246.05 282.80 L229.84 288.43 Z M240.38 279.54 L255.86 270.23 L246.05 282.80 Z M255.86 270.23 L260.49 272.89 L246.05 282.80 Z M255.86 270.23 L268.89 257.50 L260.49 272.89 Z M268.89 257.50 L272.17 259.37 L260.49 272.89 Z M268.89 257.50 L278.59 242.21 L272.17 259.37 Z M278.59 242.21 L280.29 243.18 L272.17 259.37 Z M278.59 242.21 L284.30 225.40 L280.29 243.18 Z M284.30 225.40 L284.30 225.40 L280.29 243.18 Z M285.62 208.23 L283.93 207.26 L284.30 225.40 Z M285.62 208.23 L282.48 191.86 L283.93 207.26 Z M282.48 191.86 L279.20 189.98 L283.93 207.26 Z M282.48 191.86 L275.08 177.41 L279.20 189.98 Z M275.08 177.41 L270.44 174.75 L279.20 189.98 Z M275.08 177.41 L263.92 165.86 L270.44 174.75 Z M263.92 165.86 L258.24 162.60 L270.44 174.75 Z M263.92 165.86 L249.77 158.00 L258.24 162.60 Z M249.77 158.00 L243.43 154.37 L258.24 162.60 Z M249.77 158.00 L233.59 154.36 L243.43 154.37 Z M233.59 154.36 L227.03 150.61 L243.43 154.37 Z M233.59 154.36 L216.49 155.20 L227.03 150.61 Z M216.49 155.20 L210.16 151.57 L227.03 150.61 Z M216.49 155.20 L199.62 160.46 L210.16 151.57 Z M199.62 160.46 L193.95 157.20 L210.16 151.57 Z M199.62 160.46 L184.14 169.77 L193.95 157.20 Z M184.14 169.77 L179.51 167.11 L193.95 157.20 Z M184.14 169.77 L171.11 182.50 L179.51 167.11 Z M171.11 182.50 L167.83 180.63 L179.51 167.11 Z M171.11 182.50 L161.41 197.79 L167.83 180.63 Z M161.41 197.79 L159.71 196.82 L167.83 180.63 Z M161.41 197.79 L155.70 214.60 L159.71 196.82 Z M155.70 214.60 L155.70 214.60 L159.71 196.82 Z M154.38 231.77 L156.07 232.74 L155.70 214.60 Z M154.38 231.77 L157.52 248.14 L156.07 232.74 Z M157.52 248.14 L160.80 250.02 L156.07 232.74 Z M157.52 248.14 L164.92 262.59 L160.80 250.02 Z M164.92 262.59 L169.56 265.25 L160.80 250.02 Z M164.92 262.59 L176.08 274.14 L169.56 265.25 Z M176.08 274.14 L181.76 277.40 L169.56 265.25 Z M176.08 274.14 L190.23 282.00 L181.76 277.40 Z M190.23 282.00 L196.57 285.63 L181.76 277.40 Z M190.23 282.00 L206.41 285.64 L196.57 285.63 Z M206.41 285.64 L212.97 289.39 L196.57 285.63 Z M212.97 289.39 L229.84 288.43 L220.00 288.42 Z M229.84 288.43 L236.64 287.48 L220.00 288.42 Z M229.84 288.43 L246.05 282.80 L236.64 287.48 Z M246.05 282.80 L252.15 281.95 L236.64 287.48 Z M246.05 282.80 L260.49 272.89 L252.15 281.95 Z M260.49 272.89 L265.47 272.20 L252.15 281.95 Z M260.49 272.89 L272.17 259.37 L265.47 272.20 Z M272.17 259.37 L275.69 258.89 L265.47 272.20 Z M272.17 259.37 L280.29 243.18 L275.69 258.89 Z M280.29 243.18 L282.11 242.92 L275.69 258.89 Z M280.29 243.18 L284.30 225.40 L282.11 242.92 Z M284.30 225.40 L284.30 225.40 L282.11 242.92 Z M283.93 207.26 L282.11 207.51 L284.30 225.40 Z M283.93 207.26 L279.20 189.98 L282.11 207.51 Z M279.20 189.98 L275.69 190.47 L282.11 207.51 Z M279.20 189.98 L270.44 174.75 L275.69 190.47 Z M270.44 174.75 L265.47 175.44 L275.69 190.47 Z M270.44 174.75 L258.24 162.60 L265.47 175.44 Z M258.24 162.60 L252.15 163.45 L265.47 175.44 Z M258.24 162.60 L243.43 154.37 L252.15 163.45 Z M243.43 154.37 L236.64 155.31 L252.15 163.45 Z M243.43 154.37 L227.03 150.61 L236.64 155.31 Z M227.03 150.61 L220.00 151.58 L236.64 155.31 Z M227.03 150.61 L210.16 151.57 L220.00 151.58 Z M210.16 151.57 L203.36 152.52 L220.00 151.58 Z M210.16 151.57 L193.95 157.20 L203.36 152.52 Z M193.95 157.20 L187.85 158.05 L203.36 152.52 Z M193.95 157.20 L179.51 167.11 L187.85 158.05 Z M179.51 167.11 L174.53 167.80 L187.85 158.05 Z M179.51 167.11 L167.83 180.63 L174.53 167.80 Z M167.83 180.63 L164.31 181.11 L174.53 167.80 Z M167.83 180.63 L159.71 196.82 L164.31 181.11 Z M159.71 196.82 L157.89 197.08 L164.31 181.11 Z M159.71 196.82 L155.70 214.60 L157.89 197.08 Z M155.70 214.60 L155.70 214.60 L157.89 197.08 Z M156.07 232.74 L157.89 232.49 L155.70 214.60 Z M156.07 232.74 L160.80 250.02 L157.89 232.49 Z M160.80 250.02 L164.31 249.53 L157.89 232.49 Z M160.80 250.02 L169.56 265.25 L164.31 249.53 Z M169.56 265.25 L174.53 264.56 L164.31 249.53 Z M169.56 265.25 L181.76 277.40 L174.53 264.56 Z M181.76 277.40 L187.85 276.55 L174.53 264.56 Z M181.76 277.40 L196.57 285.63 L187.85 276.55 Z M196.57 285.63 L203.36 284.69 L187.85 276.55 Z M196.57 285.63 L212.97 289.39 L203.36 284.69 Z M212.97 289.39 L220.00 288.42 L203.36 284.69 Z "></path></svg>