<svg xmlns="http://www.w3.org/2000/svg" id="svg1" width="440" height="440" font-family="Times" font-size="14" oncopy="svg_copy(this);">
      <g id="gt" transform="translate(0,20)">
      </g>
   <path id="Xp" stroke="red" stroke-width="0.875" stroke-dasharray="1,0" fill="none" d="M220.00 220.00 L3462.13 492.33 Z "></path><path id="Xn" stroke="red" stroke-width="0.875" stroke-dasharray="2,4" fill="none" d="M220.00 220.00 L-3022.13 -52.33 Z "></path><path id="Yp" stroke="green" stroke-width="0.875" stroke-dasharray="1,0" fill="none" d="M220.00 220.00 L220.00 -3229.83 Z "></path><path id="Yn" stroke="green" stroke-width="0.875" stroke-dasharray="2,4" fill="none" d="M220.00 220.00 L220.00 3669.83 Z "></path><path id="Zp" stroke="blue" stroke-width="0.875" stroke-dasharray="1,0" fill="none" d="M220.00 220.00 L-1150.75 864.11 Z "></path><path id="Zn" stroke="blue" stroke-width="0.875" stroke-dasharray="2,4" fill="none" d="M220.00 220.00 L1590.75 -424.11 Z "></path><circle id="O" fill="black" stroke-width="1" stroke="none" r="4" cx="220" cy="220"><title>[0,0,0]</title></circle><circle id="lambda_0" fill="#FFAA33" stroke-width="1" stroke="none" r="4" cx="283.13630729417673" cy="225.30320016110682"><title>λ/2=0.0195</title></circle><path id="B11" stroke="black" stroke-width="0.5" stroke-dasharray="1,0" fill="none" d="M183.56 269.33 L130.17 294.42 L130.17 160.06 L183.56 134.97 Z M309.83 279.94 L256.44 305.03 L256.44 170.67 L309.83 145.58 Z M183.56 269.33 L309.83 279.94 Z M130.17 294.42 L256.44 305.03 Z M130.17 160.06 L256.44 170.67 Z M183.56 134.97 L309.83 145.58 Z Z "></path><path id="B1" stroke="black" stroke-width="0.5" stroke-dasharray="2,4" fill="none" d="M225.65 272.87 L172.26 297.96 L172.26 163.59 L225.65 138.51 Z M267.74 276.41 L214.35 301.49 L214.35 167.13 L267.74 142.04 Z M183.56 224.55 L130.17 249.63 L256.44 260.24 L309.83 235.15 Z M183.56 179.76 L130.17 204.85 L256.44 215.45 L309.83 190.37 Z M165.76 277.70 L165.76 143.33 L292.03 153.94 L292.03 288.30 Z M147.97 286.06 L147.97 151.70 L274.24 162.30 L274.24 296.67 Z "></path><path id="C1" stroke="green" stroke-width="1" stroke-dasharray="1,2" fill="none" d="M530.78 246.10 L530.73 240.33 L530.59 234.55 L530.35 228.76 L530.02 222.97 L529.60 217.18 L529.08 211.39 L528.46 205.61 L527.76 199.83 L526.95 194.05 L526.06 188.28 L525.07 182.53 L523.99 176.78 L522.82 171.05 L521.55 165.33 L520.19 159.63 L518.74 153.94 L517.20 148.28 L515.57 142.64 L513.85 137.02 L512.04 131.43 L510.14 125.86 L508.15 120.32 L506.07 114.82 L503.91 109.34 L501.66 103.90 L499.33 98.50 L496.91 93.13 L494.40 87.80 L491.81 82.51 L489.14 77.26 L486.39 72.06 L483.56 66.90 L480.64 61.79 L477.65 56.72 L474.58 51.71 L471.43 46.74 L468.20 41.83 L464.90 36.98 L461.52 32.18 L458.07 27.43 L454.55 22.75 L450.95 18.12 L447.29 13.56 L443.56 9.06 L439.75 4.63 L435.89 0.26 L431.95 -4.05 L427.95 -8.28 L423.89 -12.45 L419.77 -16.54 L415.58 -20.57 L411.34 -24.52 L407.03 -28.39 L402.67 -32.19 L398.26 -35.91 L393.79 -39.56 L389.26 -43.12 L384.69 -46.61 L380.06 -50.01 L375.39 -53.33 L370.67 -56.57 L365.90 -59.73 L361.09 -62.80 L356.24 -65.78 L351.34 -68.67 L346.41 -71.48 L341.43 -74.20 L336.42 -76.83 L331.37 -79.37 L326.29 -81.82 L321.18 -84.17 L316.04 -86.44 L310.86 -88.61 L305.66 -90.68 L300.44 -92.67 L295.18 -94.55 L289.91 -96.34 L284.61 -98.04 L279.30 -99.63 L273.97 -101.13 L268.62 -102.53 L263.25 -103.84 L257.87 -105.04 L252.49 -106.15 L247.09 -107.16 L241.68 -108.06 L236.26 -108.87 L230.85 -109.58 L225.42 -110.18 L220.00 -110.69 L214.58 -111.10 L209.15 -111.40 L203.74 -111.60 L198.32 -111.71 L192.91 -111.71 L187.51 -111.61 L182.13 -111.41 L176.75 -111.10 L171.38 -110.70 L166.03 -110.20 L160.70 -109.60 L155.39 -108.89 L150.09 -108.09 L144.82 -107.18 L139.56 -106.18 L134.34 -105.07 L129.14 -103.87 L123.96 -102.57 L118.82 -101.17 L113.71 -99.68 L108.63 -98.08 L103.58 -96.39 L98.57 -94.60 L93.59 -92.72 L88.66 -90.74 L83.76 -88.67 L78.91 -86.50 L74.10 -84.24 L69.33 -81.88 L64.61 -79.44 L59.94 -76.90 L55.31 -74.27 L50.74 -71.56 L46.21 -68.75 L41.74 -65.86 L37.33 -62.88 L32.97 -59.81 L28.66 -56.66 L24.42 -53.42 L20.23 -50.10 L16.11 -46.70 L12.05 -43.22 L8.05 -39.65 L4.11 -36.01 L0.25 -32.29 L-3.56 -28.49 L-7.29 -24.62 L-10.95 -20.67 L-14.55 -16.65 L-18.07 -12.56 L-21.52 -8.40 L-24.90 -4.16 L-28.20 0.14 L-31.43 4.51 L-34.58 8.94 L-37.65 13.44 L-40.64 18.00 L-43.56 22.62 L-46.39 27.31 L-49.14 32.05 L-51.81 36.85 L-54.40 41.70 L-56.91 46.61 L-59.33 51.57 L-61.66 56.59 L-63.91 61.65 L-66.07 66.76 L-68.15 71.92 L-70.14 77.12 L-72.04 82.37 L-73.85 87.66 L-75.57 92.98 L-77.20 98.35 L-78.74 103.76 L-80.19 109.20 L-81.55 114.67 L-82.82 120.18 L-83.99 125.71 L-85.07 131.28 L-86.06 136.87 L-86.95 142.49 L-87.76 148.13 L-88.46 153.79 L-89.08 159.47 L-89.60 165.17 L-90.02 170.89 L-90.35 176.62 L-90.59 182.37 L-90.73 188.13 L-90.78 193.90 L-90.73 199.67 L-90.59 205.45 L-90.35 211.24 L-90.02 217.03 L-89.60 222.82 L-89.08 228.61 L-88.46 234.39 L-87.76 240.17 L-86.95 245.95 L-86.06 251.72 L-85.07 257.47 L-83.99 263.22 L-82.82 268.95 L-81.55 274.67 L-80.19 280.37 L-78.74 286.06 L-77.20 291.72 L-75.57 297.36 L-73.85 302.98 L-72.04 308.57 L-70.14 314.14 L-68.15 319.68 L-66.07 325.18 L-63.91 330.66 L-61.66 336.10 L-59.33 341.50 L-56.91 346.87 L-54.40 352.20 L-51.81 357.49 L-49.14 362.74 L-46.39 367.94 L-43.56 373.10 L-40.64 378.21 L-37.65 383.28 L-34.58 388.29 L-31.43 393.26 L-28.20 398.17 L-24.90 403.02 L-21.52 407.82 L-18.07 412.57 L-14.55 417.25 L-10.95 421.88 L-7.29 426.44 L-3.56 430.94 L0.25 435.37 L4.11 439.74 L8.05 444.05 L12.05 448.28 L16.11 452.45 L20.23 456.54 L24.42 460.57 L28.66 464.52 L32.97 468.39 L37.33 472.19 L41.74 475.91 L46.21 479.56 L50.74 483.12 L55.31 486.61 L59.94 490.01 L64.61 493.33 L69.33 496.57 L74.10 499.73 L78.91 502.80 L83.76 505.78 L88.66 508.67 L93.59 511.48 L98.57 514.20 L103.58 516.83 L108.63 519.37 L113.71 521.82 L118.82 524.17 L123.96 526.44 L129.14 528.61 L134.34 530.68 L139.56 532.67 L144.82 534.55 L150.09 536.34 L155.39 538.04 L160.70 539.63 L166.03 541.13 L171.38 542.53 L176.75 543.84 L182.13 545.04 L187.51 546.15 L192.91 547.16 L198.32 548.06 L203.74 548.87 L209.15 549.58 L214.58 550.18 L220.00 550.69 L225.42 551.10 L230.85 551.40 L236.26 551.60 L241.68 551.71 L247.09 551.71 L252.49 551.61 L257.87 551.41 L263.25 551.10 L268.62 550.70 L273.97 550.20 L279.30 549.60 L284.61 548.89 L289.91 548.09 L295.18 547.18 L300.44 546.18 L305.66 545.07 L310.86 543.87 L316.04 542.57 L321.18 541.17 L326.29 539.68 L331.37 538.08 L336.42 536.39 L341.43 534.60 L346.41 532.72 L351.34 530.74 L356.24 528.67 L361.09 526.50 L365.90 524.24 L370.67 521.88 L375.39 519.44 L380.06 516.90 L384.69 514.27 L389.26 511.56 L393.79 508.75 L398.26 505.86 L402.67 502.88 L407.03 499.81 L411.34 496.66 L415.58 493.42 L419.77 490.10 L423.89 486.70 L427.95 483.22 L431.95 479.65 L435.89 476.01 L439.75 472.29 L443.56 468.49 L447.29 464.62 L450.95 460.67 L454.55 456.65 L458.07 452.56 L461.52 448.40 L464.90 444.16 L468.20 439.86 L471.43 435.49 L474.58 431.06 L477.65 426.56 L480.64 422.00 L483.56 417.38 L486.39 412.69 L489.14 407.95 L491.81 403.15 L494.40 398.30 L496.91 393.39 L499.33 388.43 L501.66 383.41 L503.91 378.35 L506.07 373.24 L508.15 368.08 L510.14 362.88 L512.04 357.63 L513.85 352.34 L515.57 347.02 L517.20 341.65 L518.74 336.24 L520.19 330.80 L521.55 325.33 L522.82 319.82 L523.99 314.29 L525.07 308.72 L526.06 303.13 L526.95 297.51 L527.76 291.87 L528.46 286.21 L529.08 280.53 L529.60 274.83 L530.02 269.11 L530.35 263.38 L530.59 257.63 L530.73 251.87 Z "></path><path id="C1h" stroke="green" stroke-width="1" stroke-dasharray="1,2" fill="none" d="M530.78 246.10 L528.44 247.18 L526.01 248.24 L523.48 249.30 L520.86 250.35 L518.15 251.39 L515.34 252.42 L512.45 253.43 L509.47 254.44 L506.40 255.44 L503.24 256.43 L500.00 257.41 L496.67 258.37 L493.26 259.32 L489.76 260.27 L486.18 261.19 L482.52 262.11 L478.78 263.02 L474.97 263.91 L471.07 264.78 L467.10 265.65 L463.05 266.50 L458.93 267.33 L454.73 268.15 L450.47 268.96 L446.13 269.75 L441.73 270.53 L437.25 271.29 L432.72 272.04 L428.11 272.76 L423.45 273.48 L418.72 274.18 L413.93 274.86 L409.08 275.52 L404.17 276.17 L399.21 276.80 L394.19 277.41 L389.12 278.01 L384.00 278.58 L378.83 279.14 L373.61 279.68 L368.35 280.21 L363.03 280.71 L357.68 281.20 L352.28 281.67 L346.84 282.12 L341.37 282.55 L335.85 282.96 L330.31 283.35 L324.72 283.72 L319.11 284.08 L313.47 284.41 L307.79 284.73 L302.09 285.02 L296.37 285.29 L290.62 285.55 L284.85 285.78 L279.07 286.00 L273.26 286.19 L267.44 286.37 L261.60 286.52 L255.75 286.66 L249.89 286.77 L244.02 286.86 L238.14 286.94 L232.26 286.99 L226.37 287.02 L220.48 287.03 L214.59 287.03 L208.71 287.00 L202.82 286.95 L196.94 286.88 L191.07 286.79 L185.21 286.68 L179.36 286.55 L173.52 286.40 L167.69 286.22 L161.88 286.03 L156.09 285.82 L150.32 285.59 L144.57 285.34 L138.84 285.07 L133.14 284.77 L127.46 284.46 L121.81 284.13 L116.19 283.78 L110.60 283.41 L105.05 283.02 L99.53 282.62 L94.05 282.19 L88.60 281.74 L83.20 281.28 L77.84 280.79 L72.52 280.29 L67.25 279.77 L62.02 279.23 L56.84 278.68 L51.71 278.10 L46.63 277.51 L41.61 276.90 L36.63 276.27 L31.72 275.63 L26.86 274.97 L22.06 274.29 L17.32 273.59 L12.65 272.88 L8.03 272.16 L3.48 271.41 L-1.00 270.65 L-5.42 269.88 L-9.76 269.09 L-14.04 268.29 L-18.25 267.47 L-22.38 266.63 L-26.44 265.79 L-30.43 264.93 L-34.34 264.05 L-38.17 263.16 L-41.92 262.26 L-45.59 261.35 L-49.18 260.42 L-52.69 259.48 L-56.12 258.53 L-59.46 257.56 L-62.72 256.59 L-65.89 255.60 L-68.97 254.61 L-71.97 253.60 L-74.88 252.58 L-77.69 251.55 L-80.42 250.52 L-83.06 249.47 L-85.60 248.42 L-88.05 247.35 L-90.40 246.28 L-92.67 245.20 L-94.83 244.11 L-96.90 243.02 L-98.88 241.91 L-100.75 240.81 L-102.53 239.69 L-104.21 238.57 L-105.79 237.44 L-107.28 236.31 L-108.66 235.17 L-109.94 234.03 L-111.12 232.88 L-112.21 231.73 L-113.19 230.58 L-114.06 229.42 L-114.84 228.26 L-115.52 227.10 L-116.09 225.94 L-116.56 224.77 L-116.93 223.60 L-117.19 222.43 L-117.36 221.27 L-117.42 220.10 L-117.37 218.93 L-117.23 217.76 L-116.98 216.59 L-116.63 215.42 L-116.17 214.25 L-115.62 213.09 L-114.96 211.93 L-114.20 210.77 L-113.34 209.61 L-112.37 208.45 L-111.31 207.30 L-110.14 206.16 L-108.88 205.01 L-107.51 203.88 L-106.04 202.74 L-104.48 201.61 L-102.81 200.49 L-101.05 199.38 L-99.19 198.27 L-97.23 197.16 L-95.18 196.07 L-93.03 194.98 L-90.78 193.90 L-88.44 192.82 L-86.01 191.76 L-83.48 190.70 L-80.86 189.65 L-78.15 188.61 L-75.34 187.58 L-72.45 186.57 L-69.47 185.56 L-66.40 184.56 L-63.24 183.57 L-60.00 182.59 L-56.67 181.63 L-53.26 180.68 L-49.76 179.73 L-46.18 178.81 L-42.52 177.89 L-38.78 176.98 L-34.97 176.09 L-31.07 175.22 L-27.10 174.35 L-23.05 173.50 L-18.93 172.67 L-14.73 171.85 L-10.47 171.04 L-6.13 170.25 L-1.73 169.47 L2.75 168.71 L7.28 167.96 L11.89 167.24 L16.55 166.52 L21.28 165.82 L26.07 165.14 L30.92 164.48 L35.83 163.83 L40.79 163.20 L45.81 162.59 L50.88 161.99 L56.00 161.42 L61.17 160.86 L66.39 160.32 L71.65 159.79 L76.97 159.29 L82.32 158.80 L87.72 158.33 L93.16 157.88 L98.63 157.45 L104.15 157.04 L109.69 156.65 L115.28 156.28 L120.89 155.92 L126.53 155.59 L132.21 155.27 L137.91 154.98 L143.63 154.71 L149.38 154.45 L155.15 154.22 L160.93 154.00 L166.74 153.81 L172.56 153.63 L178.40 153.48 L184.25 153.34 L190.11 153.23 L195.98 153.14 L201.86 153.06 L207.74 153.01 L213.63 152.98 L219.52 152.97 L225.41 152.97 L231.29 153.00 L237.18 153.05 L243.06 153.12 L248.93 153.21 L254.79 153.32 L260.64 153.45 L266.48 153.60 L272.31 153.78 L278.12 153.97 L283.91 154.18 L289.68 154.41 L295.43 154.66 L301.16 154.93 L306.86 155.23 L312.54 155.54 L318.19 155.87 L323.81 156.22 L329.40 156.59 L334.95 156.98 L340.47 157.38 L345.95 157.81 L351.40 158.26 L356.80 158.72 L362.16 159.21 L367.48 159.71 L372.75 160.23 L377.98 160.77 L383.16 161.32 L388.29 161.90 L393.37 162.49 L398.39 163.10 L403.37 163.73 L408.28 164.37 L413.14 165.03 L417.94 165.71 L422.68 166.41 L427.35 167.12 L431.97 167.84 L436.52 168.59 L441.00 169.35 L445.42 170.12 L449.76 170.91 L454.04 171.71 L458.25 172.53 L462.38 173.37 L466.44 174.21 L470.43 175.07 L474.34 175.95 L478.17 176.84 L481.92 177.74 L485.59 178.65 L489.18 179.58 L492.69 180.52 L496.12 181.47 L499.46 182.44 L502.72 183.41 L505.89 184.40 L508.97 185.39 L511.97 186.40 L514.88 187.42 L517.69 188.45 L520.42 189.48 L523.06 190.53 L525.60 191.58 L528.05 192.65 L530.40 193.72 L532.67 194.80 L534.83 195.89 L536.90 196.98 L538.88 198.09 L540.75 199.19 L542.53 200.31 L544.21 201.43 L545.79 202.56 L547.28 203.69 L548.66 204.83 L549.94 205.97 L551.12 207.12 L552.21 208.27 L553.19 209.42 L554.06 210.58 L554.84 211.74 L555.52 212.90 L556.09 214.06 L556.56 215.23 L556.93 216.40 L557.19 217.57 L557.36 218.73 L557.42 219.90 L557.37 221.07 L557.23 222.24 L556.98 223.41 L556.63 224.58 L556.17 225.75 L555.62 226.91 L554.96 228.07 L554.20 229.23 L553.34 230.39 L552.37 231.55 L551.31 232.70 L550.14 233.84 L548.88 234.99 L547.51 236.12 L546.04 237.26 L544.48 238.39 L542.81 239.51 L541.05 240.62 L539.19 241.73 L537.23 242.84 L535.18 243.93 L533.03 245.02 Z "></path><path id="C2" stroke="green" stroke-width="1" stroke-dasharray="1,1" fill="none" d="M530.78 246.10 L521.46 245.32 Z M520.19 159.63 L511.19 161.44 Z M489.14 77.26 L481.07 81.54 Z M439.75 4.63 L433.16 11.09 Z M375.39 -53.33 L370.73 -45.13 Z M300.44 -92.67 L298.02 -83.29 Z M220.00 -110.69 L220.00 -100.77 Z M139.56 -106.18 L141.98 -96.39 Z M64.61 -79.44 L69.27 -70.45 Z M0.25 -32.29 L6.84 -24.72 Z M-49.14 32.05 L-41.07 37.69 Z M-80.19 109.20 L-71.19 112.52 Z M-90.78 193.90 L-81.46 194.68 Z M-80.19 280.37 L-71.19 278.56 Z M-49.14 362.74 L-41.07 358.46 Z M0.25 435.37 L6.84 428.91 Z M64.61 493.33 L69.27 485.13 Z M139.56 532.67 L141.98 523.29 Z M220.00 550.69 L220.00 540.77 Z M300.44 546.18 L298.02 536.39 Z M375.39 519.44 L370.73 510.45 Z M439.75 472.29 L433.16 464.72 Z M489.14 407.95 L481.07 402.31 Z M520.19 330.80 L511.19 327.48 Z "></path><path id="C2h" stroke="green" stroke-width="1" stroke-dasharray="1,1" fill="none" d="M530.78 246.10 L521.46 245.32 Z M486.18 261.19 L478.20 259.96 Z M423.45 273.48 L417.34 271.87 Z M346.84 282.12 L343.04 280.25 Z M261.60 286.52 L260.35 284.53 Z M173.52 286.40 L174.91 284.40 Z M88.60 281.74 L92.55 279.89 Z M12.65 272.88 L18.87 271.30 Z M-49.18 260.42 L-41.11 259.21 Z M-92.67 245.20 L-83.29 244.44 Z M-114.84 228.26 L-104.80 228.02 Z M-114.20 210.77 L-104.17 211.04 Z M-90.78 193.90 L-81.46 194.68 Z M-46.18 178.81 L-38.20 180.04 Z M16.55 166.52 L22.66 168.13 Z M93.16 157.88 L96.96 159.75 Z M178.40 153.48 L179.65 155.47 Z M266.48 153.60 L265.09 155.60 Z M351.40 158.26 L347.45 160.11 Z M427.35 167.12 L421.13 168.70 Z M489.18 179.58 L481.11 180.79 Z M532.67 194.80 L523.29 195.56 Z M554.84 211.74 L544.80 211.98 Z M554.20 229.23 L544.17 228.96 Z "></path><circle id="th_xy" fill="green" stroke-width="1" stroke="none" r="4" cx="220" cy="-110.68991345403674"><title>θ=270 Φ=0</title></circle><path id="M" stroke="#0b22ae" stroke-width="0.5" stroke-dasharray="1,0" fill="none" d="M15.75 190.19 L31.96 150.99 L15.75 190.19 Z M15.75 190.19 L31.96 150.99 L39.90 148.96 Z M15.75 190.19 L15.75 190.19 L15.75 190.22 Z M15.75 190.19 L39.90 148.96 L15.75 190.19 Z M15.75 190.19 L39.90 148.96 L47.30 150.47 Z M15.75 190.19 L15.75 190.19 L15.75 190.22 Z M15.75 190.19 L47.30 150.47 L15.76 190.20 Z M15.76 190.20 L47.30 150.47 L53.66 155.41 Z M15.75 190.19 L15.76 190.20 L15.75 190.22 Z M15.76 190.20 L53.66 155.41 L15.76 190.20 Z M15.76 190.20 L53.66 155.41 L58.53 163.46 Z M15.76 190.20 L15.76 190.20 L15.75 190.22 Z M15.76 190.20 L58.53 163.46 L15.76 190.21 Z M15.76 190.21 L58.53 163.46 L61.60 174.06 Z M15.76 190.20 L15.76 190.21 L15.75 190.22 Z M15.76 190.21 L61.60 174.06 L15.76 190.22 Z M15.76 190.22 L61.60 174.06 L62.64 186.49 Z M15.76 190.21 L15.76 190.22 L15.75 190.22 Z M15.76 190.22 L62.64 186.49 L15.76 190.23 Z M15.76 190.23 L62.64 186.49 L61.60 199.90 Z M15.76 190.22 L15.76 190.23 L15.75 190.22 Z M15.76 190.23 L61.60 199.90 L15.76 190.24 Z M15.76 190.24 L61.60 199.90 L58.53 213.38 Z M15.76 190.23 L15.76 190.24 L15.75 190.22 Z M15.76 190.24 L58.53 213.38 L15.76 190.24 Z M15.76 190.24 L58.53 213.38 L53.66 226.01 Z M15.76 190.24 L15.76 190.24 L15.75 190.22 Z M15.76 190.24 L53.66 226.01 L15.75 190.25 Z M15.75 190.25 L53.66 226.01 L47.30 236.93 Z M15.76 190.24 L15.75 190.25 L15.75 190.22 Z M15.75 190.25 L47.30 236.93 L15.75 190.26 Z M15.75 190.26 L47.30 236.93 L39.90 245.39 Z M15.75 190.25 L15.75 190.26 L15.75 190.22 Z M15.75 190.26 L39.90 245.39 L15.75 190.26 Z M15.75 190.26 L39.90 245.39 L31.96 250.83 Z M15.75 190.26 L15.75 190.26 L15.75 190.22 Z M15.75 190.26 L31.96 250.83 L15.74 190.26 Z M15.74 190.26 L31.96 250.83 L24.01 252.86 Z M15.75 190.26 L15.74 190.26 L15.75 190.22 Z M15.74 190.26 L24.01 252.86 L15.74 190.26 Z M15.74 190.26 L24.01 252.86 L16.61 251.35 Z M15.74 190.26 L15.74 190.26 L15.75 190.22 Z M15.74 190.26 L16.61 251.35 L15.74 190.25 Z M15.74 190.25 L16.61 251.35 L10.26 246.40 Z M15.74 190.26 L15.74 190.25 L15.75 190.22 Z M15.74 190.25 L10.26 246.40 L15.73 190.25 Z M15.73 190.25 L10.26 246.40 L5.38 238.35 Z M15.74 190.25 L15.73 190.25 L15.75 190.22 Z M15.73 190.25 L5.38 238.35 L15.73 190.24 Z M15.73 190.24 L5.38 238.35 L2.32 227.75 Z M15.73 190.25 L15.73 190.24 L15.75 190.22 Z M15.73 190.24 L2.32 227.75 L15.73 190.23 Z M15.73 190.23 L2.32 227.75 L1.27 215.33 Z M15.73 190.24 L15.73 190.23 L15.75 190.22 Z M15.73 190.23 L1.27 215.33 L15.73 190.22 Z M15.73 190.22 L1.27 215.33 L2.32 201.92 Z M15.73 190.23 L15.73 190.22 L15.75 190.22 Z M15.73 190.22 L2.32 201.92 L15.73 190.21 Z M15.73 190.21 L2.32 201.92 L5.38 188.44 Z M15.73 190.22 L15.73 190.21 L15.75 190.22 Z M15.73 190.21 L5.38 188.44 L15.74 190.20 Z M15.74 190.20 L5.38 188.44 L10.26 175.80 Z M15.73 190.21 L15.74 190.20 L15.75 190.22 Z M15.74 190.20 L10.26 175.80 L15.74 190.20 Z M15.74 190.20 L10.26 175.80 L16.61 164.89 Z M15.74 190.20 L15.74 190.20 L15.75 190.22 Z M15.74 190.20 L16.61 164.89 L15.74 190.19 Z M15.74 190.19 L16.61 164.89 L24.01 156.42 Z M15.74 190.20 L15.74 190.19 L15.75 190.22 Z M15.74 190.19 L24.01 156.42 L15.75 190.19 Z M15.75 190.19 L24.01 156.42 L31.96 150.99 Z M15.74 190.19 L15.75 190.19 L15.75 190.22 Z M31.96 150.99 L48.17 138.75 L39.90 148.96 Z M39.90 148.96 L48.17 138.75 L59.23 135.83 Z M39.90 148.96 L59.23 135.83 L47.30 150.47 Z M47.30 150.47 L59.23 135.83 L69.54 137.68 Z M47.30 150.47 L69.54 137.68 L53.66 155.41 Z M53.66 155.41 L69.54 137.68 L78.39 144.17 Z M53.66 155.41 L78.39 144.17 L58.53 163.46 Z M58.53 163.46 L78.39 144.17 L85.18 154.85 Z M58.53 163.46 L85.18 154.85 L61.60 174.06 Z M61.60 174.06 L85.18 154.85 L89.45 169.00 Z M61.60 174.06 L89.45 169.00 L62.64 186.49 Z M62.64 186.49 L89.45 169.00 L90.91 185.66 Z M62.64 186.49 L90.91 185.66 L61.60 199.90 Z M61.60 199.90 L90.91 185.66 L89.45 203.68 Z M61.60 199.90 L89.45 203.68 L58.53 213.38 Z M58.53 213.38 L89.45 203.68 L85.18 221.84 Z M58.53 213.38 L85.18 221.84 L53.66 226.01 Z M53.66 226.01 L85.18 221.84 L78.39 238.91 Z M53.66 226.01 L78.39 238.91 L47.30 236.93 Z M47.30 236.93 L78.39 238.91 L69.54 253.72 Z M47.30 236.93 L69.54 253.72 L39.90 245.39 Z M39.90 245.39 L69.54 253.72 L59.23 265.25 Z M39.90 245.39 L59.23 265.25 L31.96 250.83 Z M31.96 250.83 L59.23 265.25 L48.17 272.73 Z M31.96 250.83 L48.17 272.73 L24.01 252.86 Z M24.01 252.86 L48.17 272.73 L37.10 275.65 Z M24.01 252.86 L37.10 275.65 L16.61 251.35 Z M16.61 251.35 L37.10 275.65 L26.80 273.80 Z M16.61 251.35 L26.80 273.80 L10.26 246.40 Z M10.26 246.40 L26.80 273.80 L17.94 267.31 Z M10.26 246.40 L17.94 267.31 L5.38 238.35 Z M5.38 238.35 L17.94 267.31 L11.15 256.63 Z M5.38 238.35 L11.15 256.63 L2.32 227.75 Z M2.32 227.75 L11.15 256.63 L6.88 242.48 Z M2.32 227.75 L6.88 242.48 L1.27 215.33 Z M1.27 215.33 L6.88 242.48 L5.43 225.83 Z M1.27 215.33 L5.43 225.83 L2.32 201.92 Z M2.32 201.92 L5.43 225.83 L6.88 207.80 Z M2.32 201.92 L6.88 207.80 L5.38 188.44 Z M5.38 188.44 L6.88 207.80 L11.15 189.64 Z M5.38 188.44 L11.15 189.64 L10.26 175.80 Z M10.26 175.80 L11.15 189.64 L17.94 172.57 Z M10.26 175.80 L17.94 172.57 L16.61 164.89 Z M16.61 164.89 L17.94 172.57 L26.80 157.77 Z M16.61 164.89 L26.80 157.77 L24.01 156.42 Z M24.01 156.42 L26.80 157.77 L37.10 146.23 Z M24.01 156.42 L37.10 146.23 L31.96 150.99 Z M31.96 150.99 L37.10 146.23 L48.17 138.75 Z M48.17 138.75 L64.38 131.06 L59.23 135.83 Z M59.23 135.83 L64.38 131.06 L76.30 128.12 Z M59.23 135.83 L76.30 128.12 L69.54 137.68 Z M69.54 137.68 L76.30 128.12 L87.41 130.71 Z M69.54 137.68 L87.41 130.71 L78.39 144.17 Z M78.39 144.17 L87.41 130.71 L96.95 138.64 Z M78.39 144.17 L96.95 138.64 L85.18 154.85 Z M85.18 154.85 L96.95 138.64 L104.27 151.39 Z M85.18 154.85 L104.27 151.39 L89.45 169.00 Z M89.45 169.00 L104.27 151.39 L108.87 168.07 Z M89.45 169.00 L108.87 168.07 L90.91 185.66 Z M90.91 185.66 L108.87 168.07 L110.44 187.55 Z M90.91 185.66 L110.44 187.55 L89.45 203.68 Z M89.45 203.68 L110.44 187.55 L108.87 208.51 Z M89.45 203.68 L108.87 208.51 L85.18 221.84 Z M85.18 221.84 L108.87 208.51 L104.27 229.52 Z M85.18 221.84 L104.27 229.52 L78.39 238.91 Z M78.39 238.91 L104.27 229.52 L96.95 249.15 Z M78.39 238.91 L96.95 249.15 L69.54 253.72 Z M69.54 253.72 L96.95 249.15 L87.41 266.05 Z M69.54 253.72 L87.41 266.05 L59.23 265.25 Z M59.23 265.25 L87.41 266.05 L76.30 279.07 Z M59.23 265.25 L76.30 279.07 L48.17 272.73 Z M48.17 272.73 L76.30 279.07 L64.38 287.34 Z M48.17 272.73 L64.38 287.34 L37.10 275.65 Z M37.10 275.65 L64.38 287.34 L52.46 290.28 Z M37.10 275.65 L52.46 290.28 L26.80 273.80 Z M26.80 273.80 L52.46 290.28 L41.35 287.69 Z M26.80 273.80 L41.35 287.69 L17.94 267.31 Z M17.94 267.31 L41.35 287.69 L31.81 279.76 Z M17.94 267.31 L31.81 279.76 L11.15 256.63 Z M11.15 256.63 L31.81 279.76 L24.49 267.01 Z M11.15 256.63 L24.49 267.01 L6.88 242.48 Z M6.88 242.48 L24.49 267.01 L19.89 250.33 Z M6.88 242.48 L19.89 250.33 L5.43 225.83 Z M5.43 225.83 L19.89 250.33 L18.32 230.85 Z M5.43 225.83 L18.32 230.85 L6.88 207.80 Z M6.88 207.80 L18.32 230.85 L19.89 209.89 Z M6.88 207.80 L19.89 209.89 L11.15 189.64 Z M11.15 189.64 L19.89 209.89 L24.49 188.88 Z M11.15 189.64 L24.49 188.88 L17.94 172.57 Z M17.94 172.57 L24.49 188.88 L31.81 169.25 Z M17.94 172.57 L31.81 169.25 L26.80 157.77 Z M26.80 157.77 L31.81 169.25 L41.35 152.36 Z M26.80 157.77 L41.35 152.36 L37.10 146.23 Z M37.10 146.23 L41.35 152.36 L52.46 139.33 Z M37.10 146.23 L52.46 139.33 L48.17 138.75 Z M48.17 138.75 L52.46 139.33 L64.38 131.06 Z M64.38 131.06 L80.59 130.41 L76.30 128.12 Z M76.30 128.12 L80.59 130.41 L92.41 127.61 Z M76.30 128.12 L92.41 127.61 L87.41 130.71 Z M87.41 130.71 L92.41 127.61 L103.43 130.52 Z M87.41 130.71 L103.43 130.52 L96.95 138.64 Z M96.95 138.64 L103.43 130.52 L112.90 138.96 Z M96.95 138.64 L112.90 138.96 L104.27 151.39 Z M104.27 151.39 L112.90 138.96 L120.16 152.32 Z M104.27 151.39 L120.16 152.32 L108.87 168.07 Z M108.87 168.07 L120.16 152.32 L124.72 169.72 Z M108.87 168.07 L124.72 169.72 L110.44 187.55 Z M110.44 187.55 L124.72 169.72 L126.28 189.96 Z M110.44 187.55 L126.28 189.96 L108.87 208.51 Z M108.87 208.51 L126.28 189.96 L124.72 211.66 Z M108.87 208.51 L124.72 211.66 L104.27 229.52 Z M104.27 229.52 L124.72 211.66 L120.16 233.35 Z M104.27 229.52 L120.16 233.35 L96.95 249.15 Z M96.95 249.15 L120.16 233.35 L112.90 253.54 Z M96.95 249.15 L112.90 253.54 L87.41 266.05 Z M87.41 266.05 L112.90 253.54 L103.43 270.87 Z M87.41 266.05 L103.43 270.87 L76.30 279.07 Z M76.30 279.07 L103.43 270.87 L92.41 284.14 Z M76.30 279.07 L92.41 284.14 L64.38 287.34 Z M64.38 287.34 L92.41 284.14 L80.59 292.46 Z M64.38 287.34 L80.59 292.46 L52.46 290.28 Z M52.46 290.28 L80.59 292.46 L68.76 295.25 Z M52.46 290.28 L68.76 295.25 L41.35 287.69 Z M41.35 287.69 L68.76 295.25 L57.74 292.34 Z M41.35 287.69 L57.74 292.34 L31.81 279.76 Z M31.81 279.76 L57.74 292.34 L48.28 283.91 Z M31.81 279.76 L48.28 283.91 L24.49 267.01 Z M24.49 267.01 L48.28 283.91 L41.02 270.54 Z M24.49 267.01 L41.02 270.54 L19.89 250.33 Z M19.89 250.33 L41.02 270.54 L36.45 253.14 Z M19.89 250.33 L36.45 253.14 L18.32 230.85 Z M18.32 230.85 L36.45 253.14 L34.90 232.90 Z M18.32 230.85 L34.90 232.90 L19.89 209.89 Z M19.89 209.89 L34.90 232.90 L36.45 211.20 Z M19.89 209.89 L36.45 211.20 L24.49 188.88 Z M24.49 188.88 L36.45 211.20 L41.02 189.51 Z M24.49 188.88 L41.02 189.51 L31.81 169.25 Z M31.81 169.25 L41.02 189.51 L48.28 169.32 Z M31.81 169.25 L48.28 169.32 L41.35 152.36 Z M41.35 152.36 L48.28 169.32 L57.74 152.00 Z M41.35 152.36 L57.74 152.00 L52.46 139.33 Z M52.46 139.33 L57.74 152.00 L68.76 138.72 Z M52.46 139.33 L68.76 138.72 L64.38 131.06 Z M64.38 131.06 L68.76 138.72 L80.59 130.41 Z M80.59 130.41 L96.80 137.19 L92.41 127.61 Z M92.41 127.61 L96.80 137.19 L107.84 134.64 Z M92.41 127.61 L107.84 134.64 L103.43 130.52 Z M103.43 130.52 L107.84 134.64 L118.14 137.53 Z M103.43 130.52 L118.14 137.53 L112.90 138.96 Z M112.90 138.96 L118.14 137.53 L126.98 145.68 Z M112.90 138.96 L126.98 145.68 L120.16 152.32 Z M120.16 152.32 L126.98 145.68 L133.76 158.53 Z M120.16 152.32 L133.76 158.53 L124.72 169.72 Z M124.72 169.72 L133.76 158.53 L138.02 175.19 Z M124.72 169.72 L138.02 175.19 L126.28 189.96 Z M126.28 189.96 L138.02 175.19 L139.48 194.54 Z M126.28 189.96 L139.48 194.54 L124.72 211.66 Z M124.72 211.66 L139.48 194.54 L138.02 215.26 Z M124.72 211.66 L138.02 215.26 L120.16 233.35 Z M120.16 233.35 L138.02 215.26 L133.76 235.94 Z M120.16 233.35 L133.76 235.94 L112.90 253.54 Z M112.90 253.54 L133.76 235.94 L126.98 255.16 Z M112.90 253.54 L126.98 255.16 L103.43 270.87 Z M103.43 270.87 L126.98 255.16 L118.14 271.61 Z M103.43 270.87 L118.14 271.61 L92.41 284.14 Z M92.41 284.14 L118.14 271.61 L107.84 284.18 Z M92.41 284.14 L107.84 284.18 L80.59 292.46 Z M80.59 292.46 L107.84 284.18 L96.80 292.01 Z M80.59 292.46 L96.80 292.01 L68.76 295.25 Z M68.76 295.25 L96.80 292.01 L85.75 294.56 Z M68.76 295.25 L85.75 294.56 L57.74 292.34 Z M57.74 292.34 L85.75 294.56 L75.46 291.67 Z M57.74 292.34 L75.46 291.67 L48.28 283.91 Z M48.28 283.91 L75.46 291.67 L66.62 283.52 Z M48.28 283.91 L66.62 283.52 L41.02 270.54 Z M41.02 270.54 L66.62 283.52 L59.84 270.67 Z M41.02 270.54 L59.84 270.67 L36.45 253.14 Z M36.45 253.14 L59.84 270.67 L55.57 254.01 Z M36.45 253.14 L55.57 254.01 L34.90 232.90 Z M34.90 232.90 L55.57 254.01 L54.12 234.66 Z M34.90 232.90 L54.12 234.66 L36.45 211.20 Z M36.45 211.20 L54.12 234.66 L55.57 213.94 Z M36.45 211.20 L55.57 213.94 L41.02 189.51 Z M41.02 189.51 L55.57 213.94 L59.84 193.26 Z M41.02 189.51 L59.84 193.26 L48.28 169.32 Z M48.28 169.32 L59.84 193.26 L66.62 174.04 Z M48.28 169.32 L66.62 174.04 L57.74 152.00 Z M57.74 152.00 L66.62 174.04 L75.46 157.59 Z M57.74 152.00 L75.46 157.59 L68.76 138.72 Z M68.76 138.72 L75.46 157.59 L85.75 145.02 Z M68.76 138.72 L85.75 145.02 L80.59 130.41 Z M80.59 130.41 L85.75 145.02 L96.80 137.19 Z M96.80 137.19 L113.01 144.63 L107.84 134.64 Z M107.84 134.64 L113.01 144.63 L123.58 142.17 Z M107.84 134.64 L123.58 142.17 L118.14 137.53 Z M118.14 137.53 L123.58 142.17 L133.43 144.87 Z M118.14 137.53 L133.43 144.87 L126.98 145.68 Z M126.98 145.68 L133.43 144.87 L141.88 152.55 Z M126.98 145.68 L141.88 152.55 L133.76 158.53 Z M133.76 158.53 L141.88 152.55 L148.37 164.69 Z M133.76 158.53 L148.37 164.69 L138.02 175.19 Z M138.02 175.19 L148.37 164.69 L152.45 180.47 Z M138.02 175.19 L152.45 180.47 L139.48 194.54 Z M139.48 194.54 L152.45 180.47 L153.84 198.80 Z M139.48 194.54 L153.84 198.80 L138.02 215.26 Z M138.02 215.26 L153.84 198.80 L152.45 218.44 Z M138.02 215.26 L152.45 218.44 L133.76 235.94 Z M133.76 235.94 L152.45 218.44 L148.37 238.05 Z M133.76 235.94 L148.37 238.05 L126.98 255.16 Z M126.98 255.16 L148.37 238.05 L141.88 256.29 Z M126.98 255.16 L141.88 256.29 L118.14 271.61 Z M118.14 271.61 L141.88 256.29 L133.43 271.92 Z M118.14 271.61 L133.43 271.92 L107.84 284.18 Z M107.84 284.18 L133.43 271.92 L123.58 283.88 Z M107.84 284.18 L123.58 283.88 L96.80 292.01 Z M96.80 292.01 L123.58 283.88 L113.01 291.35 Z M96.80 292.01 L113.01 291.35 L85.75 294.56 Z M85.75 294.56 L113.01 291.35 L102.44 293.81 Z M85.75 294.56 L102.44 293.81 L75.46 291.67 Z M75.46 291.67 L102.44 293.81 L92.59 291.11 Z M75.46 291.67 L92.59 291.11 L66.62 283.52 Z M66.62 283.52 L92.59 291.11 L84.14 283.43 Z M66.62 283.52 L84.14 283.43 L59.84 270.67 Z M59.84 270.67 L84.14 283.43 L77.65 271.28 Z M59.84 270.67 L77.65 271.28 L55.57 254.01 Z M55.57 254.01 L77.65 271.28 L73.57 255.51 Z M55.57 254.01 L73.57 255.51 L54.12 234.66 Z M54.12 234.66 L73.57 255.51 L72.18 237.18 Z M54.12 234.66 L72.18 237.18 L55.57 213.94 Z M55.57 213.94 L72.18 237.18 L73.57 217.53 Z M55.57 213.94 L73.57 217.53 L59.84 193.26 Z M59.84 193.26 L73.57 217.53 L77.65 197.93 Z M59.84 193.26 L77.65 197.93 L66.62 174.04 Z M66.62 174.04 L77.65 197.93 L84.14 179.68 Z M66.62 174.04 L84.14 179.68 L75.46 157.59 Z M75.46 157.59 L84.14 179.68 L92.59 164.05 Z M75.46 157.59 L92.59 164.05 L85.75 145.02 Z M85.75 145.02 L92.59 164.05 L102.44 152.10 Z M85.75 145.02 L102.44 152.10 L96.80 137.19 Z M96.80 137.19 L102.44 152.10 L113.01 144.63 Z M113.01 144.63 L129.22 150.12 L123.58 142.17 Z M123.58 142.17 L129.22 150.12 L138.96 147.91 Z M123.58 142.17 L138.96 147.91 L133.43 144.87 Z M133.43 144.87 L138.96 147.91 L148.04 150.58 Z M133.43 144.87 L148.04 150.58 L141.88 152.55 Z M141.88 152.55 L148.04 150.58 L155.83 157.95 Z M141.88 152.55 L155.83 157.95 L148.37 164.69 Z M148.37 164.69 L155.83 157.95 L161.81 169.53 Z M148.37 164.69 L161.81 169.53 L152.45 180.47 Z M152.45 180.47 L161.81 169.53 L165.57 184.51 Z M152.45 180.47 L165.57 184.51 L153.84 198.80 Z M153.84 198.80 L165.57 184.51 L166.86 201.88 Z M153.84 198.80 L166.86 201.88 L152.45 218.44 Z M152.45 218.44 L166.86 201.88 L165.57 220.46 Z M152.45 218.44 L165.57 220.46 L148.37 238.05 Z M148.37 238.05 L165.57 220.46 L161.81 238.97 Z M148.37 238.05 L161.81 238.97 L141.88 256.29 Z M141.88 256.29 L161.81 238.97 L155.83 256.17 Z M141.88 256.29 L155.83 256.17 L133.43 271.92 Z M133.43 271.92 L155.83 256.17 L148.04 270.87 Z M133.43 271.92 L148.04 270.87 L123.58 283.88 Z M123.58 283.88 L148.04 270.87 L138.96 282.07 Z M123.58 283.88 L138.96 282.07 L113.01 291.35 Z M113.01 291.35 L138.96 282.07 L129.22 289.01 Z M113.01 291.35 L129.22 289.01 L102.44 293.81 Z M102.44 293.81 L129.22 289.01 L119.48 291.23 Z M102.44 293.81 L119.48 291.23 L92.59 291.11 Z M92.59 291.11 L119.48 291.23 L110.40 288.55 Z M92.59 291.11 L110.40 288.55 L84.14 283.43 Z M84.14 283.43 L110.40 288.55 L102.61 281.18 Z M84.14 283.43 L102.61 281.18 L77.65 271.28 Z M77.65 271.28 L102.61 281.18 L96.63 269.61 Z M77.65 271.28 L96.63 269.61 L73.57 255.51 Z M73.57 255.51 L96.63 269.61 L92.87 254.62 Z M73.57 255.51 L92.87 254.62 L72.18 237.18 Z M72.18 237.18 L92.87 254.62 L91.58 237.25 Z M72.18 237.18 L91.58 237.25 L73.57 217.53 Z M73.57 217.53 L91.58 237.25 L92.87 218.67 Z M73.57 217.53 L92.87 218.67 L77.65 197.93 Z M77.65 197.93 L92.87 218.67 L96.63 200.16 Z M77.65 197.93 L96.63 200.16 L84.14 179.68 Z M84.14 179.68 L96.63 200.16 L102.61 182.96 Z M84.14 179.68 L102.61 182.96 L92.59 164.05 Z M92.59 164.05 L102.61 182.96 L110.40 168.27 Z M92.59 164.05 L110.40 168.27 L102.44 152.10 Z M102.44 152.10 L110.40 168.27 L119.48 157.06 Z M102.44 152.10 L119.48 157.06 L113.01 144.63 Z M113.01 144.63 L119.48 157.06 L129.22 150.12 Z M129.22 150.12 L145.43 155.89 L138.96 147.91 Z M138.96 147.91 L145.43 155.89 L154.17 154.01 Z M138.96 147.91 L154.17 154.01 L148.04 150.58 Z M148.04 150.58 L154.17 154.01 L162.31 156.70 Z M148.04 150.58 L162.31 156.70 L155.83 157.95 Z M155.83 157.95 L162.31 156.70 L169.30 163.79 Z M155.83 157.95 L169.30 163.79 L161.81 169.53 Z M161.81 169.53 L169.30 163.79 L174.67 174.78 Z M161.81 169.53 L174.67 174.78 L165.57 184.51 Z M165.57 184.51 L174.67 174.78 L178.04 188.93 Z M165.57 184.51 L178.04 188.93 L166.86 201.88 Z M166.86 201.88 L178.04 188.93 L179.19 205.28 Z M166.86 201.88 L179.19 205.28 L165.57 220.46 Z M165.57 220.46 L179.19 205.28 L178.04 222.71 Z M165.57 220.46 L178.04 222.71 L161.81 238.97 Z M161.81 238.97 L178.04 222.71 L174.67 240.03 Z M161.81 238.97 L174.67 240.03 L155.83 256.17 Z M155.83 256.17 L174.67 240.03 L169.30 256.07 Z M155.83 256.17 L169.30 256.07 L148.04 270.87 Z M148.04 270.87 L169.30 256.07 L162.31 269.72 Z M148.04 270.87 L162.31 269.72 L138.96 282.07 Z M138.96 282.07 L162.31 269.72 L154.17 280.07 Z M138.96 282.07 L154.17 280.07 L129.22 289.01 Z M129.22 289.01 L154.17 280.07 L145.43 286.40 Z M129.22 289.01 L145.43 286.40 L119.48 291.23 Z M119.48 291.23 L145.43 286.40 L136.69 288.28 Z M119.48 291.23 L136.69 288.28 L110.40 288.55 Z M110.40 288.55 L136.69 288.28 L128.55 285.59 Z M110.40 288.55 L128.55 285.59 L102.61 281.18 Z M102.61 281.18 L128.55 285.59 L121.56 278.50 Z M102.61 281.18 L121.56 278.50 L96.63 269.61 Z M96.63 269.61 L121.56 278.50 L116.19 267.51 Z M96.63 269.61 L116.19 267.51 L92.87 254.62 Z M92.87 254.62 L116.19 267.51 L112.82 253.36 Z M92.87 254.62 L112.82 253.36 L91.58 237.25 Z M91.58 237.25 L112.82 253.36 L111.67 237.01 Z M91.58 237.25 L111.67 237.01 L92.87 218.67 Z M92.87 218.67 L111.67 237.01 L112.82 219.58 Z M92.87 218.67 L112.82 219.58 L96.63 200.16 Z M96.63 200.16 L112.82 219.58 L116.19 202.26 Z M96.63 200.16 L116.19 202.26 L102.61 182.96 Z M102.61 182.96 L116.19 202.26 L121.56 186.22 Z M102.61 182.96 L121.56 186.22 L110.40 168.27 Z M110.40 168.27 L121.56 186.22 L128.55 172.57 Z M110.40 168.27 L128.55 172.57 L119.48 157.06 Z M119.48 157.06 L128.55 172.57 L136.69 162.22 Z M119.48 157.06 L136.69 162.22 L129.22 150.12 Z M129.22 150.12 L136.69 162.22 L145.43 155.89 Z M145.43 155.89 L161.64 162.10 L154.17 154.01 Z M154.17 154.01 L161.64 162.10 L169.63 160.36 Z M154.17 154.01 L169.63 160.36 L162.31 156.70 Z M162.31 156.70 L169.63 160.36 L177.08 162.76 Z M162.31 156.70 L177.08 162.76 L169.30 163.79 Z M169.30 163.79 L177.08 162.76 L183.47 169.13 Z M169.30 163.79 L183.47 169.13 L174.67 174.78 Z M174.67 174.78 L183.47 169.13 L188.38 179.05 Z M174.67 174.78 L188.38 179.05 L178.04 188.93 Z M178.04 188.93 L188.38 179.05 L191.46 191.84 Z M178.04 188.93 L191.46 191.84 L179.19 205.28 Z M179.19 205.28 L191.46 191.84 L192.51 206.63 Z M179.19 205.28 L192.51 206.63 L178.04 222.71 Z M178.04 222.71 L192.51 206.63 L191.46 222.40 Z M178.04 222.71 L191.46 222.40 L174.67 240.03 Z M174.67 240.03 L191.46 222.40 L188.38 238.09 Z M174.67 240.03 L188.38 238.09 L169.30 256.07 Z M169.30 256.07 L188.38 238.09 L183.47 252.62 Z M169.30 256.07 L183.47 252.62 L162.31 269.72 Z M162.31 269.72 L183.47 252.62 L177.08 265.00 Z M162.31 269.72 L177.08 265.00 L154.17 280.07 Z M154.17 280.07 L177.08 265.00 L169.63 274.40 Z M154.17 280.07 L169.63 274.40 L145.43 286.40 Z M145.43 286.40 L169.63 274.40 L161.64 280.17 Z M145.43 286.40 L161.64 280.17 L136.69 288.28 Z M136.69 288.28 L161.64 280.17 L153.65 281.91 Z M136.69 288.28 L153.65 281.91 L128.55 285.59 Z M128.55 285.59 L153.65 281.91 L146.21 279.51 Z M128.55 285.59 L146.21 279.51 L121.56 278.50 Z M121.56 278.50 L146.21 279.51 L139.81 273.13 Z M121.56 278.50 L139.81 273.13 L116.19 267.51 Z M116.19 267.51 L139.81 273.13 L134.91 263.21 Z M116.19 267.51 L134.91 263.21 L112.82 253.36 Z M112.82 253.36 L134.91 263.21 L131.82 250.42 Z M112.82 253.36 L131.82 250.42 L111.67 237.01 Z M111.67 237.01 L131.82 250.42 L130.77 235.64 Z M111.67 237.01 L130.77 235.64 L112.82 219.58 Z M112.82 219.58 L130.77 235.64 L131.82 219.87 Z M112.82 219.58 L131.82 219.87 L116.19 202.26 Z M116.19 202.26 L131.82 219.87 L134.91 204.18 Z M116.19 202.26 L134.91 204.18 L121.56 186.22 Z M121.56 186.22 L134.91 204.18 L139.81 189.65 Z M121.56 186.22 L139.81 189.65 L128.55 172.57 Z M128.55 172.57 L139.81 189.65 L146.21 177.26 Z M128.55 172.57 L146.21 177.26 L136.69 162.22 Z M136.69 162.22 L146.21 177.26 L153.65 167.86 Z M136.69 162.22 L153.65 167.86 L145.43 155.89 Z M145.43 155.89 L153.65 167.86 L161.64 162.10 Z M161.64 162.10 L177.85 167.22 L169.63 160.36 Z M169.63 160.36 L177.85 167.22 L185.41 165.55 Z M169.63 160.36 L185.41 165.55 L177.08 162.76 Z M177.08 162.76 L185.41 165.55 L192.46 167.76 Z M177.08 162.76 L192.46 167.76 L183.47 169.13 Z M183.47 169.13 L192.46 167.76 L198.51 173.70 Z M183.47 169.13 L198.51 173.70 L188.38 179.05 Z M188.38 179.05 L198.51 173.70 L203.15 182.97 Z M188.38 179.05 L203.15 182.97 L191.46 191.84 Z M191.46 191.84 L203.15 182.97 L206.07 194.93 Z M191.46 191.84 L206.07 194.93 L192.51 206.63 Z M192.51 206.63 L206.07 194.93 L207.06 208.77 Z M192.51 206.63 L207.06 208.77 L191.46 222.40 Z M191.46 222.40 L207.06 208.77 L206.07 223.54 Z M191.46 222.40 L206.07 223.54 L188.38 238.09 Z M188.38 238.09 L206.07 223.54 L203.15 238.24 Z M188.38 238.09 L203.15 238.24 L183.47 252.62 Z M183.47 252.62 L203.15 238.24 L198.51 251.87 Z M183.47 252.62 L198.51 251.87 L177.08 265.00 Z M177.08 265.00 L198.51 251.87 L192.46 263.50 Z M177.08 265.00 L192.46 263.50 L169.63 274.40 Z M169.63 274.40 L192.46 263.50 L185.41 272.33 Z M169.63 274.40 L185.41 272.33 L161.64 280.17 Z M161.64 280.17 L185.41 272.33 L177.85 277.77 Z M161.64 280.17 L177.85 277.77 L153.65 281.91 Z M153.65 281.91 L177.85 277.77 L170.29 279.44 Z M153.65 281.91 L170.29 279.44 L146.21 279.51 Z M146.21 279.51 L170.29 279.44 L163.25 277.22 Z M146.21 279.51 L163.25 277.22 L139.81 273.13 Z M139.81 273.13 L163.25 277.22 L157.20 271.28 Z M139.81 273.13 L157.20 271.28 L134.91 263.21 Z M134.91 263.21 L157.20 271.28 L152.56 262.02 Z M134.91 263.21 L152.56 262.02 L131.82 250.42 Z M131.82 250.42 L152.56 262.02 L149.64 250.06 Z M131.82 250.42 L149.64 250.06 L130.77 235.64 Z M130.77 235.64 L149.64 250.06 L148.64 236.22 Z M130.77 235.64 L148.64 236.22 L131.82 219.87 Z M131.82 219.87 L148.64 236.22 L149.64 221.45 Z M131.82 219.87 L149.64 221.45 L134.91 204.18 Z M134.91 204.18 L149.64 221.45 L152.56 206.74 Z M134.91 204.18 L152.56 206.74 L139.81 189.65 Z M139.81 189.65 L152.56 206.74 L157.20 193.12 Z M139.81 189.65 L157.20 193.12 L146.21 177.26 Z M146.21 177.26 L157.20 193.12 L163.25 181.49 Z M146.21 177.26 L163.25 181.49 L153.65 167.86 Z M153.65 167.86 L163.25 181.49 L170.29 172.66 Z M153.65 167.86 L170.29 172.66 L161.64 162.10 Z M161.64 162.10 L170.29 172.66 L177.85 167.22 Z M177.85 167.22 L194.06 172.71 L185.41 165.55 Z M185.41 165.55 L194.06 172.71 L201.38 171.04 Z M185.41 165.55 L201.38 171.04 L192.46 167.76 Z M192.46 167.76 L201.38 171.04 L208.21 173.06 Z M192.46 167.76 L208.21 173.06 L198.51 173.70 Z M198.51 173.70 L208.21 173.06 L214.07 178.60 Z M198.51 173.70 L214.07 178.60 L203.15 182.97 Z M203.15 182.97 L214.07 178.60 L218.56 187.31 Z M203.15 182.97 L218.56 187.31 L206.07 194.93 Z M206.07 194.93 L218.56 187.31 L221.39 198.58 Z M206.07 194.93 L221.39 198.58 L207.06 208.77 Z M207.06 208.77 L221.39 198.58 L222.35 211.65 Z M207.06 208.77 L222.35 211.65 L206.07 223.54 Z M206.07 223.54 L222.35 211.65 L221.39 225.62 Z M206.07 223.54 L221.39 225.62 L203.15 238.24 Z M203.15 238.24 L221.39 225.62 L218.56 239.55 Z M203.15 238.24 L218.56 239.55 L198.51 251.87 Z M198.51 251.87 L218.56 239.55 L214.07 252.48 Z M198.51 251.87 L214.07 252.48 L192.46 263.50 Z M192.46 263.50 L214.07 252.48 L208.21 263.53 Z M192.46 263.50 L208.21 263.53 L185.41 272.33 Z M185.41 272.33 L208.21 263.53 L201.38 271.96 Z M185.41 272.33 L201.38 271.96 L177.85 277.77 Z M177.85 277.77 L201.38 271.96 L194.06 277.18 Z M177.85 277.77 L194.06 277.18 L170.29 279.44 Z M170.29 279.44 L194.06 277.18 L186.74 278.84 Z M170.29 279.44 L186.74 278.84 L163.25 277.22 Z M163.25 277.22 L186.74 278.84 L179.92 276.82 Z M163.25 277.22 L179.92 276.82 L157.20 271.28 Z M157.20 271.28 L179.92 276.82 L174.06 271.28 Z M157.20 271.28 L174.06 271.28 L152.56 262.02 Z M152.56 262.02 L174.06 271.28 L169.56 262.57 Z M152.56 262.02 L169.56 262.57 L149.64 250.06 Z M149.64 250.06 L169.56 262.57 L166.74 251.30 Z M149.64 250.06 L166.74 251.30 L148.64 236.22 Z M148.64 236.22 L166.74 251.30 L165.77 238.23 Z M148.64 236.22 L165.77 238.23 L149.64 221.45 Z M149.64 221.45 L165.77 238.23 L166.74 224.26 Z M149.64 221.45 L166.74 224.26 L152.56 206.74 Z M152.56 206.74 L166.74 224.26 L169.56 210.33 Z M152.56 206.74 L169.56 210.33 L157.20 193.12 Z M157.20 193.12 L169.56 210.33 L174.06 197.40 Z M157.20 193.12 L174.06 197.40 L163.25 181.49 Z M163.25 181.49 L174.06 197.40 L179.92 186.35 Z M163.25 181.49 L179.92 186.35 L170.29 172.66 Z M170.29 172.66 L179.92 186.35 L186.74 177.92 Z M170.29 172.66 L186.74 177.92 L177.85 167.22 Z M177.85 167.22 L186.74 177.92 L194.06 172.71 Z M194.06 172.71 L210.27 178.41 L201.38 171.04 Z M201.38 171.04 L210.27 178.41 L217.59 176.73 Z M201.38 171.04 L217.59 176.73 L208.21 173.06 Z M208.21 173.06 L217.59 176.73 L224.42 178.69 Z M208.21 173.06 L224.42 178.69 L214.07 178.60 Z M214.07 178.60 L224.42 178.69 L230.28 184.14 Z M214.07 178.60 L230.28 184.14 L218.56 187.31 Z M218.56 187.31 L230.28 184.14 L234.77 192.73 Z M218.56 187.31 L234.77 192.73 L221.39 198.58 Z M221.39 198.58 L234.77 192.73 L237.60 203.86 Z M221.39 198.58 L237.60 203.86 L222.35 211.65 Z M222.35 211.65 L237.60 203.86 L238.56 216.77 Z M222.35 211.65 L238.56 216.77 L221.39 225.62 Z M221.39 225.62 L238.56 216.77 L237.60 230.59 Z M221.39 225.62 L237.60 230.59 L218.56 239.55 Z M218.56 239.55 L237.60 230.59 L234.77 244.38 Z M218.56 239.55 L234.77 244.38 L214.07 252.48 Z M214.07 252.48 L234.77 244.38 L230.28 257.19 Z M214.07 252.48 L230.28 257.19 L208.21 263.53 Z M208.21 263.53 L230.28 257.19 L224.42 268.15 Z M208.21 263.53 L224.42 268.15 L201.38 271.96 Z M201.38 271.96 L224.42 268.15 L217.59 276.52 Z M201.38 271.96 L217.59 276.52 L194.06 277.18 Z M194.06 277.18 L217.59 276.52 L210.27 281.71 Z M194.06 277.18 L210.27 281.71 L186.74 278.84 Z M186.74 278.84 L210.27 281.71 L202.95 283.40 Z M186.74 278.84 L202.95 283.40 L179.92 276.82 Z M179.92 276.82 L202.95 283.40 L196.13 281.44 Z M179.92 276.82 L196.13 281.44 L174.06 271.28 Z M174.06 271.28 L196.13 281.44 L190.27 275.99 Z M174.06 271.28 L190.27 275.99 L169.56 262.57 Z M169.56 262.57 L190.27 275.99 L185.78 267.40 Z M169.56 262.57 L185.78 267.40 L166.74 251.30 Z M166.74 251.30 L185.78 267.40 L182.95 256.27 Z M166.74 251.30 L182.95 256.27 L165.77 238.23 Z M165.77 238.23 L182.95 256.27 L181.99 243.36 Z M165.77 238.23 L181.99 243.36 L166.74 224.26 Z M166.74 224.26 L181.99 243.36 L182.95 229.54 Z M166.74 224.26 L182.95 229.54 L169.56 210.33 Z M169.56 210.33 L182.95 229.54 L185.78 215.75 Z M169.56 210.33 L185.78 215.75 L174.06 197.40 Z M174.06 197.40 L185.78 215.75 L190.27 202.94 Z M174.06 197.40 L190.27 202.94 L179.92 186.35 Z M179.92 186.35 L190.27 202.94 L196.13 191.98 Z M179.92 186.35 L196.13 191.98 L186.74 177.92 Z M186.74 177.92 L196.13 191.98 L202.95 183.61 Z M186.74 177.92 L202.95 183.61 L194.06 172.71 Z M194.06 172.71 L202.95 183.61 L210.27 178.41 Z M210.27 178.41 L226.48 183.82 L217.59 176.73 Z M217.59 176.73 L226.48 183.82 L234.01 182.02 Z M217.59 176.73 L234.01 182.02 L224.42 178.69 Z M224.42 178.69 L234.01 182.02 L241.03 183.79 Z M224.42 178.69 L241.03 183.79 L230.28 184.14 Z M230.28 184.14 L241.03 183.79 L247.05 189.03 Z M230.28 184.14 L247.05 189.03 L234.77 192.73 Z M234.77 192.73 L247.05 189.03 L251.67 197.38 Z M234.77 192.73 L251.67 197.38 L237.60 203.86 Z M237.60 203.86 L251.67 197.38 L254.58 208.26 Z M237.60 203.86 L254.58 208.26 L238.56 216.77 Z M238.56 216.77 L254.58 208.26 L255.57 220.94 Z M238.56 216.77 L255.57 220.94 L237.60 230.59 Z M237.60 230.59 L255.57 220.94 L254.58 234.55 Z M237.60 230.59 L254.58 234.55 L234.77 244.38 Z M234.77 244.38 L254.58 234.55 L251.67 248.16 Z M234.77 244.38 L251.67 248.16 L230.28 257.19 Z M230.28 257.19 L251.67 248.16 L247.05 260.85 Z M230.28 257.19 L247.05 260.85 L224.42 268.15 Z M224.42 268.15 L247.05 260.85 L241.03 271.75 Z M224.42 268.15 L241.03 271.75 L217.59 276.52 Z M217.59 276.52 L241.03 271.75 L234.01 280.13 Z M217.59 276.52 L234.01 280.13 L210.27 281.71 Z M210.27 281.71 L234.01 280.13 L226.48 285.39 Z M210.27 281.71 L226.48 285.39 L202.95 283.40 Z M202.95 283.40 L226.48 285.39 L218.96 287.20 Z M202.95 283.40 L218.96 287.20 L196.13 281.44 Z M196.13 281.44 L218.96 287.20 L211.94 285.42 Z M196.13 281.44 L211.94 285.42 L190.27 275.99 Z M190.27 275.99 L211.94 285.42 L205.92 280.18 Z M190.27 275.99 L205.92 280.18 L185.78 267.40 Z M185.78 267.40 L205.92 280.18 L201.29 271.84 Z M185.78 267.40 L201.29 271.84 L182.95 256.27 Z M182.95 256.27 L201.29 271.84 L198.39 260.96 Z M182.95 256.27 L198.39 260.96 L181.99 243.36 Z M181.99 243.36 L198.39 260.96 L197.40 248.28 Z M181.99 243.36 L197.40 248.28 L182.95 229.54 Z M182.95 229.54 L197.40 248.28 L198.39 234.66 Z M182.95 229.54 L198.39 234.66 L185.78 215.75 Z M185.78 215.75 L198.39 234.66 L201.29 221.05 Z M185.78 215.75 L201.29 221.05 L190.27 202.94 Z M190.27 202.94 L201.29 221.05 L205.92 208.36 Z M190.27 202.94 L205.92 208.36 L196.13 191.98 Z M196.13 191.98 L205.92 208.36 L211.94 197.46 Z M196.13 191.98 L211.94 197.46 L202.95 183.61 Z M202.95 183.61 L211.94 197.46 L218.96 189.09 Z M202.95 183.61 L218.96 189.09 L210.27 178.41 Z M210.27 178.41 L218.96 189.09 L226.48 183.82 Z M226.48 183.82 L242.69 185.98 L234.01 182.02 Z M234.01 182.02 L242.69 185.98 L250.02 184.33 Z M234.01 182.02 L250.02 184.33 L241.03 183.79 Z M241.03 183.79 L250.02 184.33 L256.84 186.39 Z M241.03 183.79 L256.84 186.39 L247.05 189.03 Z M247.05 189.03 L256.84 186.39 L262.70 192.00 Z M247.05 189.03 L262.70 192.00 L251.67 197.38 Z M251.67 197.38 L262.70 192.00 L267.19 200.80 Z M251.67 197.38 L267.19 200.80 L254.58 208.26 Z M254.58 208.26 L267.19 200.80 L270.02 212.17 Z M254.58 208.26 L270.02 212.17 L255.57 220.94 Z M255.57 220.94 L270.02 212.17 L270.98 225.35 Z M255.57 220.94 L270.98 225.35 L254.58 234.55 Z M254.58 234.55 L270.98 225.35 L270.02 239.44 Z M254.58 234.55 L270.02 239.44 L251.67 248.16 Z M251.67 248.16 L270.02 239.44 L267.19 253.47 Z M251.67 248.16 L267.19 253.47 L247.05 260.85 Z M247.05 260.85 L267.19 253.47 L262.70 266.49 Z M247.05 260.85 L262.70 266.49 L241.03 271.75 Z M241.03 271.75 L262.70 266.49 L256.84 277.61 Z M241.03 271.75 L256.84 277.61 L234.01 280.13 Z M234.01 280.13 L256.84 277.61 L250.02 286.08 Z M234.01 280.13 L250.02 286.08 L226.48 285.39 Z M226.48 285.39 L250.02 286.08 L242.69 291.32 Z M226.48 285.39 L242.69 291.32 L218.96 287.20 Z M218.96 287.20 L242.69 291.32 L235.37 292.96 Z M218.96 287.20 L235.37 292.96 L211.94 285.42 Z M211.94 285.42 L235.37 292.96 L228.55 290.90 Z M211.94 285.42 L228.55 290.90 L205.92 280.18 Z M205.92 280.18 L228.55 290.90 L222.69 285.29 Z M205.92 280.18 L222.69 285.29 L201.29 271.84 Z M201.29 271.84 L222.69 285.29 L218.20 276.49 Z M201.29 271.84 L218.20 276.49 L198.39 260.96 Z M198.39 260.96 L218.20 276.49 L215.37 265.12 Z M198.39 260.96 L215.37 265.12 L197.40 248.28 Z M197.40 248.28 L215.37 265.12 L214.41 251.94 Z M197.40 248.28 L214.41 251.94 L198.39 234.66 Z M198.39 234.66 L214.41 251.94 L215.37 237.85 Z M198.39 234.66 L215.37 237.85 L201.29 221.05 Z M201.29 221.05 L215.37 237.85 L218.20 223.82 Z M201.29 221.05 L218.20 223.82 L205.92 208.36 Z M205.92 208.36 L218.20 223.82 L222.69 210.80 Z M205.92 208.36 L222.69 210.80 L211.94 197.46 Z M211.94 197.46 L222.69 210.80 L228.55 199.68 Z M211.94 197.46 L228.55 199.68 L218.96 189.09 Z M218.96 189.09 L228.55 199.68 L235.37 191.21 Z M218.96 189.09 L235.37 191.21 L226.48 183.82 Z M226.48 183.82 L235.37 191.21 L242.69 185.98 Z M242.69 185.98 L258.91 189.95 L250.02 184.33 Z M250.02 184.33 L258.91 189.95 L266.04 188.33 Z M250.02 184.33 L266.04 188.33 L256.84 186.39 Z M256.84 186.39 L266.04 188.33 L272.68 190.30 Z M256.84 186.39 L272.68 190.30 L262.70 192.00 Z M262.70 192.00 L272.68 190.30 L278.39 195.71 Z M262.70 192.00 L278.39 195.71 L267.19 200.80 Z M267.19 200.80 L278.39 195.71 L282.76 204.20 Z M267.19 200.80 L282.76 204.20 L270.02 212.17 Z M270.02 212.17 L282.76 204.20 L285.52 215.19 Z M270.02 212.17 L285.52 215.19 L270.98 225.35 Z M270.98 225.35 L285.52 215.19 L286.46 227.93 Z M270.98 225.35 L286.46 227.93 L270.02 239.44 Z M270.02 239.44 L286.46 227.93 L285.52 241.55 Z M270.02 239.44 L285.52 241.55 L267.19 253.47 Z M267.19 253.47 L285.52 241.55 L282.76 255.13 Z M267.19 253.47 L282.76 255.13 L262.70 266.49 Z M262.70 266.49 L282.76 255.13 L278.39 267.74 Z M262.70 266.49 L278.39 267.74 L256.84 277.61 Z M256.84 277.61 L278.39 267.74 L272.68 278.51 Z M256.84 277.61 L272.68 278.51 L250.02 286.08 Z M250.02 286.08 L272.68 278.51 L266.04 286.72 Z M250.02 286.08 L266.04 286.72 L242.69 291.32 Z M242.69 291.32 L266.04 286.72 L258.91 291.81 Z M242.69 291.32 L258.91 291.81 L235.37 292.96 Z M235.37 292.96 L258.91 291.81 L251.77 293.42 Z M235.37 292.96 L251.77 293.42 L228.55 290.90 Z M228.55 290.90 L251.77 293.42 L245.13 291.46 Z M228.55 290.90 L245.13 291.46 L222.69 285.29 Z M222.69 285.29 L245.13 291.46 L239.42 286.05 Z M222.69 285.29 L239.42 286.05 L218.20 276.49 Z M218.20 276.49 L239.42 286.05 L235.05 277.55 Z M218.20 276.49 L235.05 277.55 L215.37 265.12 Z M215.37 265.12 L235.05 277.55 L232.29 266.56 Z M215.37 265.12 L232.29 266.56 L214.41 251.94 Z M214.41 251.94 L232.29 266.56 L231.35 253.83 Z M214.41 251.94 L231.35 253.83 L215.37 237.85 Z M215.37 237.85 L231.35 253.83 L232.29 240.20 Z M215.37 237.85 L232.29 240.20 L218.20 223.82 Z M218.20 223.82 L232.29 240.20 L235.05 226.62 Z M218.20 223.82 L235.05 226.62 L222.69 210.80 Z M222.69 210.80 L235.05 226.62 L239.42 214.02 Z M222.69 210.80 L239.42 214.02 L228.55 199.68 Z M228.55 199.68 L239.42 214.02 L245.13 203.24 Z M228.55 199.68 L245.13 203.24 L235.37 191.21 Z M235.37 191.21 L245.13 203.24 L251.77 195.04 Z M235.37 191.21 L251.77 195.04 L242.69 185.98 Z M242.69 185.98 L251.77 195.04 L258.91 189.95 Z M258.91 189.95 L275.12 195.94 L266.04 188.33 Z M266.04 188.33 L275.12 195.94 L281.93 194.32 Z M266.04 188.33 L281.93 194.32 L272.68 190.30 Z M272.68 190.30 L281.93 194.32 L288.28 195.96 Z M272.68 190.30 L288.28 195.96 L278.39 195.71 Z M278.39 195.71 L288.28 195.96 L293.73 200.75 Z M278.39 195.71 L293.73 200.75 L282.76 204.20 Z M282.76 204.20 L293.73 200.75 L297.91 208.38 Z M282.76 204.20 L297.91 208.38 L285.52 215.19 Z M285.52 215.19 L297.91 208.38 L300.54 218.31 Z M285.52 215.19 L300.54 218.31 L286.46 227.93 Z M286.46 227.93 L300.54 218.31 L301.44 229.87 Z M286.46 227.93 L301.44 229.87 L285.52 241.55 Z M285.52 241.55 L301.44 229.87 L300.54 242.28 Z M285.52 241.55 L300.54 242.28 L282.76 255.13 Z M282.76 255.13 L300.54 242.28 L297.91 254.68 Z M282.76 255.13 L297.91 254.68 L278.39 267.74 Z M278.39 267.74 L297.91 254.68 L293.73 266.23 Z M278.39 267.74 L293.73 266.23 L272.68 278.51 Z M272.68 278.51 L293.73 266.23 L288.28 276.15 Z M272.68 278.51 L288.28 276.15 L266.04 286.72 Z M266.04 286.72 L288.28 276.15 L281.93 283.76 Z M266.04 286.72 L281.93 283.76 L258.91 291.81 Z M258.91 291.81 L281.93 283.76 L275.12 288.54 Z M258.91 291.81 L275.12 288.54 L251.77 293.42 Z M251.77 293.42 L275.12 288.54 L268.30 290.16 Z M251.77 293.42 L268.30 290.16 L245.13 291.46 Z M245.13 291.46 L268.30 290.16 L261.96 288.52 Z M245.13 291.46 L261.96 288.52 L239.42 286.05 Z M239.42 286.05 L261.96 288.52 L256.50 283.73 Z M239.42 286.05 L256.50 283.73 L235.05 277.55 Z M235.05 277.55 L256.50 283.73 L252.32 276.10 Z M235.05 277.55 L252.32 276.10 L232.29 266.56 Z M232.29 266.56 L252.32 276.10 L249.69 266.17 Z M232.29 266.56 L249.69 266.17 L231.35 253.83 Z M231.35 253.83 L249.69 266.17 L248.80 254.61 Z M231.35 253.83 L248.80 254.61 L232.29 240.20 Z M232.29 240.20 L248.80 254.61 L249.69 242.20 Z M232.29 240.20 L249.69 242.20 L235.05 226.62 Z M235.05 226.62 L249.69 242.20 L252.32 229.80 Z M235.05 226.62 L252.32 229.80 L239.42 214.02 Z M239.42 214.02 L252.32 229.80 L256.50 218.24 Z M239.42 214.02 L256.50 218.24 L245.13 203.24 Z M245.13 203.24 L256.50 218.24 L261.96 208.33 Z M245.13 203.24 L261.96 208.33 L251.77 195.04 Z M251.77 195.04 L261.96 208.33 L268.30 200.72 Z M251.77 195.04 L268.30 200.72 L258.91 189.95 Z M258.91 189.95 L268.30 200.72 L275.12 195.94 Z M275.12 195.94 L291.33 199.90 L281.93 194.32 Z M281.93 194.32 L291.33 199.90 L297.92 198.33 Z M281.93 194.32 L297.92 198.33 L288.28 195.96 Z M288.28 195.96 L297.92 198.33 L304.06 199.89 Z M288.28 195.96 L304.06 199.89 L293.73 200.75 Z M293.73 200.75 L304.06 199.89 L309.33 204.50 Z M293.73 200.75 L309.33 204.50 L297.91 208.38 Z M297.91 208.38 L309.33 204.50 L313.38 211.82 Z M297.91 208.38 L313.38 211.82 L300.54 218.31 Z M300.54 218.31 L313.38 211.82 L315.92 221.38 Z M300.54 218.31 L315.92 221.38 L301.44 229.87 Z M301.44 229.87 L315.92 221.38 L316.79 232.50 Z M301.44 229.87 L316.79 232.50 L300.54 242.28 Z M300.54 242.28 L316.79 232.50 L315.92 244.45 Z M300.54 242.28 L315.92 244.45 L297.91 254.68 Z M297.91 254.68 L315.92 244.45 L313.38 256.39 Z M297.91 254.68 L313.38 256.39 L293.73 266.23 Z M293.73 266.23 L313.38 256.39 L309.33 267.52 Z M293.73 266.23 L309.33 267.52 L288.28 276.15 Z M288.28 276.15 L309.33 267.52 L304.06 277.08 Z M288.28 276.15 L304.06 277.08 L281.93 283.76 Z M281.93 283.76 L304.06 277.08 L297.92 284.42 Z M281.93 283.76 L297.92 284.42 L275.12 288.54 Z M275.12 288.54 L297.92 284.42 L291.33 289.03 Z M275.12 288.54 L291.33 289.03 L268.30 290.16 Z M268.30 290.16 L291.33 289.03 L284.74 290.61 Z M268.30 290.16 L284.74 290.61 L261.96 288.52 Z M261.96 288.52 L284.74 290.61 L278.60 289.04 Z M261.96 288.52 L278.60 289.04 L256.50 283.73 Z M256.50 283.73 L278.60 289.04 L273.32 284.44 Z M256.50 283.73 L273.32 284.44 L252.32 276.10 Z M252.32 276.10 L273.32 284.44 L269.28 277.11 Z M252.32 276.10 L269.28 277.11 L249.69 266.17 Z M249.69 266.17 L269.28 277.11 L266.73 267.56 Z M249.69 266.17 L266.73 267.56 L248.80 254.61 Z M248.80 254.61 L266.73 267.56 L265.87 256.43 Z M248.80 254.61 L265.87 256.43 L249.69 242.20 Z M249.69 242.20 L265.87 256.43 L266.73 244.49 Z M249.69 242.20 L266.73 244.49 L252.32 229.80 Z M252.32 229.80 L266.73 244.49 L269.28 232.55 Z M252.32 229.80 L269.28 232.55 L256.50 218.24 Z M256.50 218.24 L269.28 232.55 L273.32 221.42 Z M256.50 218.24 L273.32 221.42 L261.96 208.33 Z M261.96 208.33 L273.32 221.42 L278.60 211.86 Z M261.96 208.33 L278.60 211.86 L268.30 200.72 Z M268.30 200.72 L278.60 211.86 L284.74 204.52 Z M268.30 200.72 L284.74 204.52 L275.12 195.94 Z M275.12 195.94 L284.74 204.52 L291.33 199.90 Z M291.33 199.90 L307.54 207.63 L297.92 198.33 Z M297.92 198.33 L307.54 207.63 L313.55 206.13 Z M297.92 198.33 L313.55 206.13 L304.06 199.89 Z M304.06 199.89 L313.55 206.13 L319.16 207.37 Z M304.06 199.89 L319.16 207.37 L309.33 204.50 Z M309.33 204.50 L319.16 207.37 L323.97 211.27 Z M309.33 204.50 L323.97 211.27 L313.38 211.82 Z M313.38 211.82 L323.97 211.27 L327.67 217.56 Z M313.38 211.82 L327.67 217.56 L315.92 221.38 Z M315.92 221.38 L327.67 217.56 L329.99 225.82 Z M315.92 221.38 L329.99 225.82 L316.79 232.50 Z M316.79 232.50 L329.99 225.82 L330.78 235.49 Z M316.79 232.50 L330.78 235.49 L315.92 244.45 Z M315.92 244.45 L330.78 235.49 L329.99 245.89 Z M315.92 244.45 L329.99 245.89 L313.38 256.39 Z M313.38 256.39 L329.99 245.89 L327.67 256.34 Z M313.38 256.39 L327.67 256.34 L309.33 267.52 Z M309.33 267.52 L327.67 256.34 L323.97 266.11 Z M309.33 267.52 L323.97 266.11 L304.06 277.08 Z M304.06 277.08 L323.97 266.11 L319.16 274.53 Z M304.06 277.08 L319.16 274.53 L297.92 284.42 Z M297.92 284.42 L319.16 274.53 L313.55 281.04 Z M297.92 284.42 L313.55 281.04 L291.33 289.03 Z M291.33 289.03 L313.55 281.04 L307.54 285.19 Z M291.33 289.03 L307.54 285.19 L284.74 290.61 Z M284.74 290.61 L307.54 285.19 L301.52 286.69 Z M284.74 290.61 L301.52 286.69 L278.60 289.04 Z M278.60 289.04 L301.52 286.69 L295.92 285.45 Z M278.60 289.04 L295.92 285.45 L273.32 284.44 Z M273.32 284.44 L295.92 285.45 L291.10 281.55 Z M273.32 284.44 L291.10 281.55 L269.28 277.11 Z M269.28 277.11 L291.10 281.55 L287.41 275.26 Z M269.28 277.11 L287.41 275.26 L266.73 267.56 Z M266.73 267.56 L287.41 275.26 L285.08 267.00 Z M266.73 267.56 L285.08 267.00 L265.87 256.43 Z M265.87 256.43 L285.08 267.00 L284.29 257.33 Z M265.87 256.43 L284.29 257.33 L266.73 244.49 Z M266.73 244.49 L284.29 257.33 L285.08 246.92 Z M266.73 244.49 L285.08 246.92 L269.28 232.55 Z M269.28 232.55 L285.08 246.92 L287.41 236.48 Z M269.28 232.55 L287.41 236.48 L273.32 221.42 Z M273.32 221.42 L287.41 236.48 L291.10 226.71 Z M273.32 221.42 L291.10 226.71 L278.60 211.86 Z M278.60 211.86 L291.10 226.71 L295.92 218.29 Z M278.60 211.86 L295.92 218.29 L284.74 204.52 Z M284.74 204.52 L295.92 218.29 L301.52 211.78 Z M284.74 204.52 L301.52 211.78 L291.33 199.90 Z M291.33 199.90 L301.52 211.78 L307.54 207.63 Z M307.54 207.63 L323.75 215.07 L313.55 206.13 Z M313.55 206.13 L323.75 215.07 L329.22 213.68 Z M313.55 206.13 L329.22 213.68 L319.16 207.37 Z M319.16 207.37 L329.22 213.68 L334.33 214.75 Z M319.16 207.37 L334.33 214.75 L323.97 211.27 Z M323.97 211.27 L334.33 214.75 L338.71 218.21 Z M323.97 211.27 L338.71 218.21 L327.67 217.56 Z M327.67 217.56 L338.71 218.21 L342.07 223.82 Z M327.67 217.56 L342.07 223.82 L329.99 225.82 Z M329.99 225.82 L342.07 223.82 L344.18 231.21 Z M329.99 225.82 L344.18 231.21 L330.78 235.49 Z M330.78 235.49 L344.18 231.21 L344.90 239.86 Z M330.78 235.49 L344.90 239.86 L329.99 245.89 Z M329.99 245.89 L344.90 239.86 L344.18 249.18 Z M329.99 245.89 L344.18 249.18 L327.67 256.34 Z M327.67 256.34 L344.18 249.18 L342.07 258.55 Z M327.67 256.34 L342.07 258.55 L323.97 266.11 Z M323.97 266.11 L342.07 258.55 L338.71 267.32 Z M323.97 266.11 L338.71 267.32 L319.16 274.53 Z M319.16 274.53 L338.71 267.32 L334.33 274.90 Z M319.16 274.53 L334.33 274.90 L313.55 281.04 Z M313.55 281.04 L334.33 274.90 L329.22 280.77 Z M313.55 281.04 L329.22 280.77 L307.54 285.19 Z M307.54 285.19 L329.22 280.77 L323.75 284.52 Z M307.54 285.19 L323.75 284.52 L301.52 286.69 Z M301.52 286.69 L323.75 284.52 L318.27 285.91 Z M301.52 286.69 L318.27 285.91 L295.92 285.45 Z M295.92 285.45 L318.27 285.91 L313.17 284.84 Z M295.92 285.45 L313.17 284.84 L291.10 281.55 Z M291.10 281.55 L313.17 284.84 L308.79 281.38 Z M291.10 281.55 L308.79 281.38 L287.41 275.26 Z M287.41 275.26 L308.79 281.38 L305.43 275.77 Z M287.41 275.26 L305.43 275.77 L285.08 267.00 Z M285.08 267.00 L305.43 275.77 L303.31 268.38 Z M285.08 267.00 L303.31 268.38 L284.29 257.33 Z M284.29 257.33 L303.31 268.38 L302.59 259.74 Z M284.29 257.33 L302.59 259.74 L285.08 246.92 Z M285.08 246.92 L302.59 259.74 L303.31 250.41 Z M285.08 246.92 L303.31 250.41 L287.41 236.48 Z M287.41 236.48 L303.31 250.41 L305.43 241.04 Z M287.41 236.48 L305.43 241.04 L291.10 226.71 Z M291.10 226.71 L305.43 241.04 L308.79 232.27 Z M291.10 226.71 L308.79 232.27 L295.92 218.29 Z M295.92 218.29 L308.79 232.27 L313.17 224.69 Z M295.92 218.29 L313.17 224.69 L301.52 211.78 Z M301.52 211.78 L313.17 224.69 L318.27 218.83 Z M301.52 211.78 L318.27 218.83 L307.54 207.63 Z M307.54 207.63 L318.27 218.83 L323.75 215.07 Z M323.75 215.07 L339.96 223.23 L329.22 213.68 Z M329.22 213.68 L339.96 223.23 L345.00 221.93 Z M329.22 213.68 L345.00 221.93 L334.33 214.75 Z M334.33 214.75 L345.00 221.93 L349.71 222.84 Z M334.33 214.75 L349.71 222.84 L338.71 218.21 Z M338.71 218.21 L349.71 222.84 L353.74 225.91 Z M338.71 218.21 L353.74 225.91 L342.07 223.82 Z M342.07 223.82 L353.74 225.91 L356.84 230.93 Z M342.07 223.82 L356.84 230.93 L344.18 231.21 Z M344.18 231.21 L356.84 230.93 L358.79 237.55 Z M344.18 231.21 L358.79 237.55 L344.90 239.86 Z M344.90 239.86 L358.79 237.55 L359.45 245.32 Z M344.90 239.86 L359.45 245.32 L344.18 249.18 Z M344.18 249.18 L359.45 245.32 L358.79 253.73 Z M344.18 249.18 L358.79 253.73 L342.07 258.55 Z M342.07 258.55 L358.79 253.73 L356.84 262.18 Z M342.07 258.55 L356.84 262.18 L338.71 267.32 Z M338.71 267.32 L356.84 262.18 L353.74 270.11 Z M338.71 267.32 L353.74 270.11 L334.33 274.90 Z M334.33 274.90 L353.74 270.11 L349.71 276.97 Z M334.33 274.90 L349.71 276.97 L329.22 280.77 Z M329.22 280.77 L349.71 276.97 L345.00 282.30 Z M329.22 280.77 L345.00 282.30 L323.75 284.52 Z M323.75 284.52 L345.00 282.30 L339.96 285.74 Z M323.75 284.52 L339.96 285.74 L318.27 285.91 Z M318.27 285.91 L339.96 285.74 L334.91 287.04 Z M318.27 285.91 L334.91 287.04 L313.17 284.84 Z M313.17 284.84 L334.91 287.04 L330.21 286.13 Z M313.17 284.84 L330.21 286.13 L308.79 281.38 Z M308.79 281.38 L330.21 286.13 L326.17 283.06 Z M308.79 281.38 L326.17 283.06 L305.43 275.77 Z M305.43 275.77 L326.17 283.06 L323.08 278.04 Z M305.43 275.77 L323.08 278.04 L303.31 268.38 Z M303.31 268.38 L323.08 278.04 L321.13 271.42 Z M303.31 268.38 L321.13 271.42 L302.59 259.74 Z M302.59 259.74 L321.13 271.42 L320.46 263.65 Z M302.59 259.74 L320.46 263.65 L303.31 250.41 Z M303.31 250.41 L320.46 263.65 L321.13 255.25 Z M303.31 250.41 L321.13 255.25 L305.43 241.04 Z M305.43 241.04 L321.13 255.25 L323.08 246.79 Z M305.43 241.04 L323.08 246.79 L308.79 232.27 Z M308.79 232.27 L323.08 246.79 L326.17 238.86 Z M308.79 232.27 L326.17 238.86 L313.17 224.69 Z M313.17 224.69 L326.17 238.86 L330.21 232.00 Z M313.17 224.69 L330.21 232.00 L318.27 218.83 Z M318.27 218.83 L330.21 232.00 L334.91 226.67 Z M318.27 218.83 L334.91 226.67 L323.75 215.07 Z M323.75 215.07 L334.91 226.67 L339.96 223.23 Z M339.96 223.23 L356.17 229.59 L345.00 221.93 Z M345.00 221.93 L356.17 229.59 L359.99 228.85 Z M345.00 221.93 L359.99 228.85 L349.71 222.84 Z M349.71 222.84 L359.99 228.85 L363.55 230.29 Z M349.71 222.84 L363.55 230.29 L353.74 225.91 Z M353.74 225.91 L363.55 230.29 L366.61 233.80 Z M353.74 225.91 L366.61 233.80 L356.84 230.93 Z M356.84 230.93 L366.61 233.80 L368.95 239.13 Z M356.84 230.93 L368.95 239.13 L358.79 237.55 Z M358.79 237.55 L368.95 239.13 L370.43 245.95 Z M358.79 237.55 L370.43 245.95 L359.45 245.32 Z M359.45 245.32 L370.43 245.95 L370.93 253.76 Z M359.45 245.32 L370.93 253.76 L358.79 253.73 Z M358.79 253.73 L370.93 253.76 L370.43 262.05 Z M358.79 253.73 L370.43 262.05 L356.84 262.18 Z M356.84 262.18 L370.43 262.05 L368.95 270.24 Z M356.84 262.18 L368.95 270.24 L353.74 270.11 Z M353.74 270.11 L368.95 270.24 L366.61 277.78 Z M353.74 270.11 L366.61 277.78 L349.71 276.97 Z M349.71 276.97 L366.61 277.78 L363.55 284.16 Z M349.71 276.97 L363.55 284.16 L345.00 282.30 Z M345.00 282.30 L363.55 284.16 L359.99 288.95 Z M345.00 282.30 L359.99 288.95 L339.96 285.74 Z M339.96 285.74 L359.99 288.95 L356.17 291.80 Z M339.96 285.74 L356.17 291.80 L334.91 287.04 Z M334.91 287.04 L356.17 291.80 L352.35 292.54 Z M334.91 287.04 L352.35 292.54 L330.21 286.13 Z M330.21 286.13 L352.35 292.54 L348.79 291.10 Z M330.21 286.13 L348.79 291.10 L326.17 283.06 Z M326.17 283.06 L348.79 291.10 L345.73 287.59 Z M326.17 283.06 L345.73 287.59 L323.08 278.04 Z M323.08 278.04 L345.73 287.59 L343.39 282.25 Z M323.08 278.04 L343.39 282.25 L321.13 271.42 Z M321.13 271.42 L343.39 282.25 L341.91 275.44 Z M321.13 271.42 L341.91 275.44 L320.46 263.65 Z M320.46 263.65 L341.91 275.44 L341.41 267.63 Z M320.46 263.65 L341.41 267.63 L321.13 255.25 Z M321.13 255.25 L341.41 267.63 L341.91 259.34 Z M321.13 255.25 L341.91 259.34 L323.08 246.79 Z M323.08 246.79 L341.91 259.34 L343.39 251.15 Z M323.08 246.79 L343.39 251.15 L326.17 238.86 Z M326.17 238.86 L343.39 251.15 L345.73 243.60 Z M326.17 238.86 L345.73 243.60 L330.21 232.00 Z M330.21 232.00 L345.73 243.60 L348.79 237.22 Z M330.21 232.00 L348.79 237.22 L334.91 226.67 Z M334.91 226.67 L348.79 237.22 L352.35 232.44 Z M334.91 226.67 L352.35 232.44 L339.96 223.23 Z M339.96 223.23 L352.35 232.44 L356.17 229.59 Z M356.17 229.59 L372.38 241.51 L359.99 228.85 Z M359.99 228.85 L372.38 241.51 L375.63 240.90 Z M359.99 228.85 L375.63 240.90 L363.55 230.29 Z M363.55 230.29 L375.63 240.90 L378.65 242.15 Z M363.55 230.29 L378.65 242.15 L366.61 233.80 Z M366.61 233.80 L378.65 242.15 L381.25 245.18 Z M366.61 233.80 L381.25 245.18 L368.95 239.13 Z M368.95 239.13 L381.25 245.18 L383.24 249.79 Z M368.95 239.13 L383.24 249.79 L370.43 245.95 Z M370.43 245.95 L383.24 249.79 L384.50 255.65 Z M370.43 245.95 L384.50 255.65 L370.93 253.76 Z M370.93 253.76 L384.50 255.65 L384.93 262.38 Z M370.93 253.76 L384.93 262.38 L370.43 262.05 Z M370.43 262.05 L384.93 262.38 L384.50 269.51 Z M370.43 262.05 L384.50 269.51 L368.95 270.24 Z M368.95 270.24 L384.50 269.51 L383.24 276.55 Z M368.95 270.24 L383.24 276.55 L366.61 277.78 Z M366.61 277.78 L383.24 276.55 L381.25 283.04 Z M366.61 277.78 L381.25 283.04 L363.55 284.16 Z M363.55 284.16 L381.25 283.04 L378.65 288.51 Z M363.55 284.16 L378.65 288.51 L359.99 288.95 Z M359.99 288.95 L378.65 288.51 L375.63 292.60 Z M359.99 288.95 L375.63 292.60 L356.17 291.80 Z M356.17 291.80 L375.63 292.60 L372.38 295.04 Z M356.17 291.80 L372.38 295.04 L352.35 292.54 Z M352.35 292.54 L372.38 295.04 L369.13 295.66 Z M352.35 292.54 L369.13 295.66 L348.79 291.10 Z M348.79 291.10 L369.13 295.66 L366.11 294.40 Z M348.79 291.10 L366.11 294.40 L345.73 287.59 Z M345.73 287.59 L366.11 294.40 L363.51 291.37 Z M345.73 287.59 L363.51 291.37 L343.39 282.25 Z M343.39 282.25 L363.51 291.37 L361.52 286.76 Z M343.39 282.25 L361.52 286.76 L341.91 275.44 Z M341.91 275.44 L361.52 286.76 L360.26 280.90 Z M341.91 275.44 L360.26 280.90 L341.41 267.63 Z M341.41 267.63 L360.26 280.90 L359.84 274.17 Z M341.41 267.63 L359.84 274.17 L341.91 259.34 Z M341.91 259.34 L359.84 274.17 L360.26 267.04 Z M341.91 259.34 L360.26 267.04 L343.39 251.15 Z M343.39 251.15 L360.26 267.04 L361.52 260.00 Z M343.39 251.15 L361.52 260.00 L345.73 243.60 Z M345.73 243.60 L361.52 260.00 L363.51 253.52 Z M345.73 243.60 L363.51 253.52 L348.79 237.22 Z M348.79 237.22 L363.51 253.52 L366.11 248.04 Z M348.79 237.22 L366.11 248.04 L352.35 232.44 Z M352.35 232.44 L366.11 248.04 L369.13 243.95 Z M352.35 232.44 L369.13 243.95 L356.17 229.59 Z M356.17 229.59 L369.13 243.95 L372.38 241.51 Z M372.38 241.51 L388.59 257.20 L375.63 240.90 Z M375.63 240.90 L388.59 257.20 L391.20 256.59 Z M375.63 240.90 L391.20 256.59 L378.65 242.15 Z M378.65 242.15 L391.20 256.59 L393.63 257.29 Z M378.65 242.15 L393.63 257.29 L381.25 245.18 Z M381.25 245.18 L393.63 257.29 L395.72 259.23 Z M381.25 245.18 L395.72 259.23 L383.24 249.79 Z M383.24 249.79 L395.72 259.23 L397.33 262.28 Z M383.24 249.79 L397.33 262.28 L384.50 255.65 Z M384.50 255.65 L397.33 262.28 L398.33 266.24 Z M384.50 255.65 L398.33 266.24 L384.93 262.38 Z M384.93 262.38 L398.33 266.24 L398.68 270.83 Z M384.93 262.38 L398.68 270.83 L384.50 269.51 Z M384.50 269.51 L398.68 270.83 L398.33 275.75 Z M384.50 269.51 L398.33 275.75 L383.24 276.55 Z M383.24 276.55 L398.33 275.75 L397.33 280.66 Z M383.24 276.55 L397.33 280.66 L381.25 283.04 Z M381.25 283.04 L397.33 280.66 L395.72 285.21 Z M381.25 283.04 L395.72 285.21 L378.65 288.51 Z M378.65 288.51 L395.72 285.21 L393.63 289.12 Z M378.65 288.51 L393.63 289.12 L375.63 292.60 Z M375.63 292.60 L393.63 289.12 L391.20 292.10 Z M375.63 292.60 L391.20 292.10 L372.38 295.04 Z M372.38 295.04 L391.20 292.10 L388.59 293.95 Z M372.38 295.04 L388.59 293.95 L369.13 295.66 Z M369.13 295.66 L388.59 293.95 L385.98 294.55 Z M369.13 295.66 L385.98 294.55 L366.11 294.40 Z M366.11 294.40 L385.98 294.55 L383.55 293.86 Z M366.11 294.40 L383.55 293.86 L363.51 291.37 Z M363.51 291.37 L383.55 293.86 L381.46 291.92 Z M363.51 291.37 L381.46 291.92 L361.52 286.76 Z M361.52 286.76 L381.46 291.92 L379.86 288.86 Z M361.52 286.76 L379.86 288.86 L360.26 280.90 Z M360.26 280.90 L379.86 288.86 L378.85 284.90 Z M360.26 280.90 L378.85 284.90 L359.84 274.17 Z M359.84 274.17 L378.85 284.90 L378.51 280.31 Z M359.84 274.17 L378.51 280.31 L360.26 267.04 Z M360.26 267.04 L378.51 280.31 L378.85 275.39 Z M360.26 267.04 L378.85 275.39 L361.52 260.00 Z M361.52 260.00 L378.85 275.39 L379.86 270.49 Z M361.52 260.00 L379.86 270.49 L363.51 253.52 Z M363.51 253.52 L379.86 270.49 L381.46 265.93 Z M363.51 253.52 L381.46 265.93 L366.11 248.04 Z M366.11 248.04 L381.46 265.93 L383.55 262.02 Z M366.11 248.04 L383.55 262.02 L369.13 243.95 Z M369.13 243.95 L383.55 262.02 L385.98 259.05 Z M369.13 243.95 L385.98 259.05 L372.38 241.51 Z M372.38 241.51 L385.98 259.05 L388.59 257.20 Z M388.59 257.20 L404.80 267.24 L391.20 256.59 Z M391.20 256.59 L404.80 267.24 L406.74 266.75 Z M391.20 256.59 L406.74 266.75 L393.63 257.29 Z M393.63 257.29 L406.74 266.75 L408.55 267.12 Z M393.63 257.29 L408.55 267.12 L395.72 259.23 Z M395.72 259.23 L408.55 267.12 L410.11 268.35 Z M395.72 259.23 L410.11 268.35 L397.33 262.28 Z M397.33 262.28 L410.11 268.35 L411.30 270.33 Z M397.33 262.28 L411.30 270.33 L398.33 266.24 Z M398.33 266.24 L411.30 270.33 L412.05 272.95 Z M398.33 266.24 L412.05 272.95 L398.68 270.83 Z M398.68 270.83 L412.05 272.95 L412.30 276.01 Z M398.68 270.83 L412.30 276.01 L398.33 275.75 Z M398.33 275.75 L412.30 276.01 L412.05 279.31 Z M398.33 275.75 L412.05 279.31 L397.33 280.66 Z M397.33 280.66 L412.05 279.31 L411.30 282.63 Z M397.33 280.66 L411.30 282.63 L395.72 285.21 Z M395.72 285.21 L411.30 282.63 L410.11 285.74 Z M395.72 285.21 L410.11 285.74 L393.63 289.12 Z M393.63 289.12 L410.11 285.74 L408.55 288.43 Z M393.63 289.12 L408.55 288.43 L391.20 292.10 Z M391.20 292.10 L408.55 288.43 L406.74 290.50 Z M391.20 292.10 L406.74 290.50 L388.59 293.95 Z M388.59 293.95 L406.74 290.50 L404.80 291.83 Z M388.59 293.95 L404.80 291.83 L385.98 294.55 Z M385.98 294.55 L404.80 291.83 L402.86 292.33 Z M385.98 294.55 L402.86 292.33 L383.55 293.86 Z M383.55 293.86 L402.86 292.33 L401.05 291.95 Z M383.55 293.86 L401.05 291.95 L381.46 291.92 Z M381.46 291.92 L401.05 291.95 L399.50 290.73 Z M381.46 291.92 L399.50 290.73 L379.86 288.86 Z M379.86 288.86 L399.50 290.73 L398.30 288.74 Z M379.86 288.86 L398.30 288.74 L378.85 284.90 Z M378.85 284.90 L398.30 288.74 L397.55 286.13 Z M378.85 284.90 L397.55 286.13 L378.51 280.31 Z M378.51 280.31 L397.55 286.13 L397.30 283.06 Z M378.51 280.31 L397.30 283.06 L378.85 275.39 Z M378.85 275.39 L397.30 283.06 L397.55 279.76 Z M378.85 275.39 L397.55 279.76 L379.86 270.49 Z M379.86 270.49 L397.55 279.76 L398.30 276.44 Z M379.86 270.49 L398.30 276.44 L381.46 265.93 Z M381.46 265.93 L398.30 276.44 L399.50 273.33 Z M381.46 265.93 L399.50 273.33 L383.55 262.02 Z M383.55 262.02 L399.50 273.33 L401.05 270.65 Z M383.55 262.02 L401.05 270.65 L385.98 259.05 Z M385.98 259.05 L401.05 270.65 L402.86 268.57 Z M385.98 259.05 L402.86 268.57 L388.59 257.20 Z M388.59 257.20 L402.86 268.57 L404.80 267.24 Z M404.80 267.24 L421.01 274.96 L406.74 266.75 Z M406.74 266.75 L421.01 274.96 L421.89 274.81 Z M421.01 274.96 L421.01 282.63 L421.89 274.81 Z M406.74 266.75 L421.89 274.81 L408.55 267.12 Z M408.55 267.12 L421.89 274.81 L422.70 275.20 Z M421.89 274.81 L421.01 282.63 L422.70 275.20 Z M408.55 267.12 L422.70 275.20 L410.11 268.35 Z M410.11 268.35 L422.70 275.20 L423.40 276.09 Z M422.70 275.20 L421.01 282.63 L423.40 276.09 Z M410.11 268.35 L423.40 276.09 L411.30 270.33 Z M411.30 270.33 L423.40 276.09 L423.94 277.42 Z M423.40 276.09 L421.01 282.63 L423.94 277.42 Z M411.30 270.33 L423.94 277.42 L412.05 272.95 Z M412.05 272.95 L423.94 277.42 L424.28 279.11 Z M423.94 277.42 L421.01 282.63 L424.28 279.11 Z M412.05 272.95 L424.28 279.11 L412.30 276.01 Z M412.30 276.01 L424.28 279.11 L424.39 281.04 Z M424.28 279.11 L421.01 282.63 L424.39 281.04 Z M412.30 276.01 L424.39 281.04 L412.05 279.31 Z M412.05 279.31 L424.39 281.04 L424.28 283.08 Z M424.39 281.04 L421.01 282.63 L424.28 283.08 Z M412.05 279.31 L424.28 283.08 L411.30 282.63 Z M411.30 282.63 L424.28 283.08 L423.94 285.09 Z M424.28 283.08 L421.01 282.63 L423.94 285.09 Z M411.30 282.63 L423.94 285.09 L410.11 285.74 Z M410.11 285.74 L423.94 285.09 L423.40 286.93 Z M423.94 285.09 L421.01 282.63 L423.40 286.93 Z M410.11 285.74 L423.40 286.93 L408.55 288.43 Z M408.55 288.43 L423.40 286.93 L422.70 288.48 Z M423.40 286.93 L421.01 282.63 L422.70 288.48 Z M408.55 288.43 L422.70 288.48 L406.74 290.50 Z M406.74 290.50 L422.70 288.48 L421.89 289.63 Z M422.70 288.48 L421.01 282.63 L421.89 289.63 Z M406.74 290.50 L421.89 289.63 L404.80 291.83 Z M404.80 291.83 L421.89 289.63 L421.01 290.30 Z M421.89 289.63 L421.01 282.63 L421.01 290.30 Z M404.80 291.83 L421.01 290.30 L402.86 292.33 Z M402.86 292.33 L421.01 290.30 L420.14 290.45 Z M421.01 290.30 L421.01 282.63 L420.14 290.45 Z M402.86 292.33 L420.14 290.45 L401.05 291.95 Z M401.05 291.95 L420.14 290.45 L419.32 290.07 Z M420.14 290.45 L421.01 282.63 L419.32 290.07 Z M401.05 291.95 L419.32 290.07 L399.50 290.73 Z M399.50 290.73 L419.32 290.07 L418.62 289.18 Z M419.32 290.07 L421.01 282.63 L418.62 289.18 Z M399.50 290.73 L418.62 289.18 L398.30 288.74 Z M398.30 288.74 L418.62 289.18 L418.08 287.84 Z M418.62 289.18 L421.01 282.63 L418.08 287.84 Z M398.30 288.74 L418.08 287.84 L397.55 286.13 Z M397.55 286.13 L418.08 287.84 L417.75 286.15 Z M418.08 287.84 L421.01 282.63 L417.75 286.15 Z M397.55 286.13 L417.75 286.15 L397.30 283.06 Z M397.30 283.06 L417.75 286.15 L417.63 284.22 Z M417.75 286.15 L421.01 282.63 L417.63 284.22 Z M397.30 283.06 L417.63 284.22 L397.55 279.76 Z M397.55 279.76 L417.63 284.22 L417.75 282.18 Z M417.63 284.22 L421.01 282.63 L417.75 282.18 Z M397.55 279.76 L417.75 282.18 L398.30 276.44 Z M398.30 276.44 L417.75 282.18 L418.08 280.18 Z M417.75 282.18 L421.01 282.63 L418.08 280.18 Z M398.30 276.44 L418.08 280.18 L399.50 273.33 Z M399.50 273.33 L418.08 280.18 L418.62 278.34 Z M418.08 280.18 L421.01 282.63 L418.62 278.34 Z M399.50 273.33 L418.62 278.34 L401.05 270.65 Z M401.05 270.65 L418.62 278.34 L419.32 276.79 Z M418.62 278.34 L421.01 282.63 L419.32 276.79 Z M401.05 270.65 L419.32 276.79 L402.86 268.57 Z M402.86 268.57 L419.32 276.79 L420.14 275.64 Z M419.32 276.79 L421.01 282.63 L420.14 275.64 Z M402.86 268.57 L420.14 275.64 L404.80 267.24 Z M404.80 267.24 L420.14 275.64 L421.01 274.96 Z M420.14 275.64 L421.01 282.63 L421.01 274.96 Z "></path></svg>